<?xml version="1.0" encoding="iso-8859-1"?>
<!-- Generator: Adobe Illustrator 16.0.4, SVG Export Plug-In . SVG Version: 6.00 Build 0)  -->
<!DOCTYPE svg PUBLIC "-//W3C//DTD SVG 1.1//EN" "http://www.w3.org/Graphics/SVG/1.1/DTD/svg11.dtd">
<svg version="1.1" id="Capa_1" xmlns="http://www.w3.org/2000/svg" xmlns:xlink="http://www.w3.org/1999/xlink" x="0px" y="0px"
	 width="40.719px" height="47.771px" viewBox="0 0 40.719 47.771" style="enable-background:new 0 0 40.719 47.771;"
	 xml:space="preserve">
<g id="Alarm_Clock">
	<path d="M8.959,15.879c-0.192,0-0.384-0.073-0.53-0.22l-2.25-2.25c-0.293-0.293-0.293-0.768,0-1.061s0.768-0.293,1.061,0l2.25,2.25
		c0.293,0.293,0.293,0.768,0,1.061C9.343,15.806,9.151,15.879,8.959,15.879z"/>
	<path d="M3.109,10.029c-0.192,0-0.384-0.073-0.53-0.22L1.17,8.4c-0.293-0.293-0.293-0.768,0-1.061c0.294-0.293,0.769-0.292,1.061,0
		l1.409,1.41c0.293,0.293,0.293,0.768,0,1.061C3.493,9.956,3.301,10.029,3.109,10.029z"/>
	<path d="M37.848,10.029c-0.192,0-0.384-0.073-0.53-0.22c-0.293-0.293-0.293-0.768,0-1.061l1.41-1.41
		c0.294-0.293,0.769-0.292,1.061,0c0.293,0.293,0.293,0.768,0,1.061l-1.41,1.41C38.231,9.956,38.039,10.029,37.848,10.029z"/>
	<path d="M31.838,15.879c-0.192,0-0.384-0.073-0.53-0.22c-0.293-0.293-0.293-0.768,0-1.061l2.25-2.25
		c0.293-0.293,0.768-0.293,1.061,0s0.293,0.768,0,1.061l-2.25,2.25C32.222,15.806,32.03,15.879,31.838,15.879z"/>
	<g>
		<path d="M3.31,44.404c-0.128,0-0.257-0.033-0.376-0.102c-0.358-0.208-0.479-0.667-0.271-1.025l3.309-5.696
			c0.208-0.358,0.665-0.48,1.025-0.272c0.358,0.208,0.479,0.667,0.271,1.025l-3.309,5.696C3.82,44.271,3.568,44.404,3.31,44.404z"/>
		<path d="M7.2,46.65c-0.129,0-0.26-0.033-0.379-0.104c-0.357-0.21-0.477-0.669-0.267-1.026l2.658-4.522
			c0.209-0.356,0.669-0.478,1.026-0.267c0.357,0.21,0.477,0.669,0.267,1.026L7.848,46.28C7.708,46.518,7.458,46.65,7.2,46.65z"/>
		<path d="M5.261,47.771c-0.519,0-1.03-0.136-1.492-0.402c-1.428-0.824-1.919-2.655-1.096-4.081
			c0.206-0.359,0.664-0.482,1.024-0.274c0.358,0.207,0.481,0.666,0.274,1.024c-0.409,0.709-0.164,1.621,0.546,2.031
			c0.346,0.199,0.748,0.252,1.132,0.149c0.384-0.102,0.704-0.348,0.901-0.692c0.207-0.359,0.664-0.482,1.024-0.276
			c0.359,0.207,0.482,0.665,0.276,1.024c-0.399,0.692-1.043,1.188-1.815,1.394C5.78,47.737,5.52,47.771,5.261,47.771z"/>
	</g>
	<g>
		<path d="M37.769,44.404c-0.259,0-0.511-0.134-0.649-0.374l-3.309-5.696c-0.208-0.358-0.087-0.817,0.271-1.025
			c0.361-0.208,0.818-0.086,1.025,0.272l3.309,5.696c0.208,0.358,0.087,0.817-0.271,1.025
			C38.025,44.372,37.896,44.404,37.769,44.404z"/>
		<path d="M33.878,46.65c-0.258,0-0.508-0.132-0.647-0.37l-2.659-4.522c-0.21-0.357-0.091-0.817,0.267-1.027
			c0.357-0.211,0.816-0.09,1.026,0.266l2.659,4.522c0.21,0.357,0.091,0.817-0.267,1.027C34.138,46.617,34.007,46.65,33.878,46.65z"
			/>
		<path d="M35.819,47.768c-1.034,0-2.04-0.536-2.592-1.493c-0.207-0.359-0.084-0.817,0.274-1.024
			c0.36-0.207,0.817-0.083,1.024,0.275c0.408,0.709,1.319,0.954,2.035,0.543c0.709-0.41,0.954-1.321,0.546-2.031
			c-0.207-0.359-0.084-0.817,0.275-1.024c0.357-0.206,0.817-0.083,1.023,0.275c0.822,1.426,0.33,3.256-1.096,4.08
			C36.841,47.639,36.326,47.768,35.819,47.768z"/>
	</g>
	<path d="M20.487,42.724L20.487,42.724c-8.131-0.002-14.743-6.616-14.741-14.744c-0.002-8.125,6.61-14.738,14.74-14.74
		c3.938,0,7.641,1.534,10.426,4.318c2.784,2.785,4.318,6.486,4.317,10.422c0.001,3.938-1.533,7.64-4.318,10.425
		C28.127,41.19,24.425,42.724,20.487,42.724z M20.488,14.239c-7.579,0.002-13.744,6.166-13.742,13.74
		c-0.002,7.577,6.162,13.742,13.741,13.744c3.67,0,7.121-1.43,9.717-4.026c2.597-2.596,4.025-6.047,4.025-9.718
		c0-3.669-1.429-7.119-4.024-9.714C27.608,15.669,24.158,14.239,20.488,14.239z"/>
	<path d="M20.504,46.081L20.504,46.081c-9.977-0.003-18.091-8.12-18.089-18.093C2.413,18.017,10.526,9.902,20.502,9.899
		c4.833,0,9.377,1.882,12.795,5.299c3.417,3.417,5.3,7.959,5.299,12.79c0.001,4.832-1.882,9.375-5.299,12.793
		C29.879,44.199,25.336,46.081,20.504,46.081z M20.504,11.899c-8.873,0.003-16.091,7.22-16.089,16.089
		c-0.002,8.871,7.216,16.09,16.089,16.093c4.298,0,8.339-1.674,11.379-4.714c3.039-3.04,4.713-7.081,4.713-11.379
		c0-4.296-1.673-8.335-4.713-11.375C28.843,13.573,24.802,11.899,20.504,11.899z"/>
	<g>
		<path d="M20.509,19.624c-0.276,0-0.5-0.224-0.5-0.5v-2.553c0-0.276,0.224-0.5,0.5-0.5s0.5,0.224,0.5,0.5v2.553
			C21.009,19.4,20.785,19.624,20.509,19.624z"/>
		<path d="M16.119,20.789c-0.172,0-0.341-0.09-0.433-0.25l-1.276-2.211c-0.139-0.239-0.057-0.545,0.183-0.683
			c0.238-0.139,0.545-0.057,0.683,0.183l1.276,2.211c0.139,0.239,0.057,0.545-0.183,0.683C16.29,20.768,16.204,20.789,16.119,20.789
			z"/>
		<path d="M12.854,24.02c-0.085,0-0.171-0.021-0.25-0.067l-2.211-1.277c-0.239-0.138-0.321-0.444-0.183-0.683
			c0.137-0.24,0.444-0.32,0.683-0.183l2.211,1.277c0.239,0.138,0.321,0.444,0.183,0.683C13.195,23.931,13.026,24.02,12.854,24.02z"
			/>
		<path d="M11.68,28.491H9.127c-0.276,0-0.5-0.224-0.5-0.5s0.224-0.5,0.5-0.5h2.553c0.276,0,0.5,0.224,0.5,0.5
			S11.956,28.491,11.68,28.491z"/>
		<path d="M10.594,34.171c-0.173,0-0.341-0.09-0.433-0.25c-0.139-0.239-0.057-0.545,0.183-0.683l2.211-1.275
			c0.239-0.139,0.546-0.056,0.683,0.183c0.139,0.239,0.057,0.545-0.183,0.683l-2.211,1.275
			C10.765,34.149,10.679,34.171,10.594,34.171z"/>
		<path d="M14.76,38.372c-0.085,0-0.171-0.021-0.25-0.067c-0.239-0.138-0.321-0.444-0.183-0.683l1.275-2.21
			c0.138-0.239,0.444-0.32,0.683-0.183c0.239,0.138,0.321,0.444,0.183,0.683l-1.275,2.21C15.101,38.282,14.932,38.372,14.76,38.372z
			"/>
		<path d="M20.527,39.926c-0.276,0-0.5-0.224-0.5-0.5v-2.552c0-0.276,0.224-0.5,0.5-0.5s0.5,0.224,0.5,0.5v2.552
			C21.027,39.702,20.804,39.926,20.527,39.926z"/>
		<path d="M26.188,38.419c-0.172,0-0.34-0.089-0.433-0.25l-1.277-2.209c-0.139-0.239-0.057-0.545,0.183-0.683
			c0.234-0.139,0.543-0.057,0.683,0.182l1.277,2.209c0.139,0.239,0.057,0.545-0.183,0.683C26.36,38.397,26.273,38.419,26.188,38.419
			z"/>
		<path d="M30.388,34.252c-0.085,0-0.171-0.021-0.25-0.067l-2.209-1.274c-0.239-0.138-0.321-0.444-0.183-0.683
			c0.137-0.239,0.442-0.321,0.683-0.183l2.209,1.274c0.239,0.138,0.321,0.444,0.183,0.683
			C30.729,34.162,30.561,34.252,30.388,34.252z"/>
		<path d="M29.351,28.509c-0.276,0-0.5-0.224-0.5-0.5c0-0.276,0.224-0.5,0.5-0.5l2.552-0.002l0,0c0.276,0,0.5,0.224,0.5,0.5
			c0,0.276-0.224,0.5-0.5,0.5L29.351,28.509L29.351,28.509z"/>
		<path d="M28.228,24.103c-0.172,0-0.34-0.089-0.433-0.25c-0.139-0.239-0.057-0.545,0.183-0.683l2.208-1.277
			c0.235-0.14,0.544-0.058,0.683,0.182c0.139,0.239,0.057,0.545-0.183,0.683l-2.208,1.277
			C28.399,24.082,28.312,24.103,28.228,24.103z"/>
		<path d="M24.996,20.835c-0.085,0-0.171-0.021-0.25-0.067c-0.239-0.138-0.321-0.444-0.184-0.683l1.274-2.21
			c0.138-0.239,0.443-0.322,0.684-0.183c0.239,0.138,0.321,0.444,0.184,0.683l-1.274,2.21
			C25.337,20.746,25.169,20.835,24.996,20.835z"/>
	</g>
	<path d="M20.461,29.888c-1.06,0-1.921-0.861-1.921-1.919c0-1.059,0.861-1.92,1.921-1.92c1.059,0,1.919,0.861,1.919,1.92
		C22.38,29.027,21.52,29.888,20.461,29.888z M20.461,27.488c-0.266,0-0.481,0.216-0.481,0.48c0,0.264,0.216,0.479,0.481,0.479
		c0.265,0,0.479-0.215,0.479-0.479C20.94,27.704,20.726,27.488,20.461,27.488z"/>
	<path d="M30.124,31.05c-0.059,0-0.118-0.007-0.178-0.021l-9.672-2.351c-0.403-0.098-0.649-0.503-0.552-0.906
		c0.098-0.402,0.504-0.646,0.905-0.552l9.672,2.351c0.403,0.098,0.649,0.503,0.552,0.906C30.769,30.82,30.462,31.05,30.124,31.05z"
		/>
	<path d="M14.46,32.12c-0.263,0-0.518-0.138-0.655-0.383c-0.202-0.361-0.074-0.818,0.287-1.021l4.938-2.77
		c0.363-0.202,0.819-0.074,1.021,0.288c0.202,0.361,0.074,0.818-0.287,1.021l-4.938,2.77C14.71,32.089,14.584,32.12,14.46,32.12z"/>
	<path d="M1.805,18.029c-0.024,0-0.049-0.001-0.072-0.003c-0.212-0.021-0.404-0.13-0.53-0.3c-2.056-2.774-1.444-6.219,1.596-8.989
		c1.624-1.479,3.479-2.293,5.223-2.293c1.413,0,2.753,0.532,3.876,1.538c0.158,0.142,0.249,0.343,0.25,0.555
		c0.001,0.212-0.088,0.415-0.245,0.558l-9.592,8.74C2.171,17.959,1.99,18.029,1.805,18.029z M8.021,7.942
		c-1.37,0-2.866,0.675-4.213,1.902c-2.19,1.996-2.845,4.288-1.843,6.273l8.263-7.529C9.547,8.16,8.808,7.942,8.021,7.942z"/>
	<path d="M38.913,18.029c-0.186,0-0.366-0.069-0.505-0.196l-9.591-8.74c-0.157-0.143-0.246-0.345-0.245-0.558
		c0.001-0.212,0.092-0.414,0.25-0.555c1.123-1.006,2.463-1.538,3.876-1.538c1.744,0,3.599,0.814,5.223,2.293
		c3.04,2.771,3.65,6.216,1.595,8.99c-0.126,0.17-0.318,0.279-0.53,0.3C38.962,18.028,38.938,18.029,38.913,18.029z M30.491,8.589
		l8.262,7.529c1.003-1.985,0.349-4.277-1.842-6.274C34.79,7.913,32.356,7.411,30.491,8.589z"/>
	<path d="M11.637,8.341c-1.517,0-2.97-0.342-3.217-0.403C8.018,7.838,7.772,7.432,7.872,7.03c0.1-0.403,0.507-0.648,0.907-0.549
		c1.285,0.316,3.707,0.601,4.728,0.017c0.436-0.249,0.604-0.96,0.801-1.785C14.755,2.837,15.432,0,20.469,0
		c0.414,0,0.75,0.336,0.75,0.75s-0.336,0.75-0.75,0.75c-3.853,0-4.266,1.73-4.701,3.562c-0.255,1.066-0.518,2.168-1.517,2.74
		C13.536,8.21,12.574,8.341,11.637,8.341z"/>
	<path d="M29.363,8.341c-0.938,0-1.898-0.131-2.614-0.54c-0.999-0.571-1.262-1.673-1.517-2.74C24.797,3.23,24.384,1.5,20.531,1.5
		c-0.414,0-0.75-0.336-0.75-0.75S20.117,0,20.531,0c5.037,0,5.714,2.837,6.161,4.714c0.196,0.824,0.365,1.536,0.801,1.785
		c1.148,0.657,3.865,0.196,4.728-0.017c0.404-0.1,0.809,0.146,0.908,0.548c0.099,0.402-0.146,0.809-0.549,0.908
		C32.333,7.999,30.88,8.341,29.363,8.341z"/>
</g>
<g>
</g>
<g>
</g>
<g>
</g>
<g>
</g>
<g>
</g>
<g>
</g>
<g>
</g>
<g>
</g>
<g>
</g>
<g>
</g>
<g>
</g>
<g>
</g>
<g>
</g>
<g>
</g>
<g>
</g>
</svg>
