<?xml version="1.0" encoding="iso-8859-1"?>
<!-- Generator: Adobe Illustrator 16.0.4, SVG Export Plug-In . SVG Version: 6.00 Build 0)  -->
<!DOCTYPE svg PUBLIC "-//W3C//DTD SVG 1.1//EN" "http://www.w3.org/Graphics/SVG/1.1/DTD/svg11.dtd">
<svg version="1.1" id="Capa_1" xmlns="http://www.w3.org/2000/svg" xmlns:xlink="http://www.w3.org/1999/xlink" x="0px" y="0px"
	 width="33.681px" height="47.953px" viewBox="0 0 33.681 47.953" style="enable-background:new 0 0 33.681 47.953;"
	 xml:space="preserve">
<g id="Bling_Dollar_Sign">
	<path d="M16.943,45.882c-0.359,0-0.712-0.004-1.057-0.014c-0.423-0.012-0.756-0.365-0.743-0.788
		c0.013-0.422,0.316-0.774,0.788-0.744c0.566,0.015,1.174,0.017,1.745,0.008c0.005,0,0.009,0,0.013,0
		c0.418,0,0.759,0.335,0.766,0.754c0.007,0.423-0.33,0.771-0.753,0.778C17.453,45.881,17.199,45.882,16.943,45.882z"/>
	<path d="M16.055,14.515c-0.402,0-0.733-0.321-0.743-0.725c-0.01-0.411,0.315-0.751,0.726-0.761l0.164-0.004
		c0.219-0.005,0.314-0.008,0.617-0.008c0.256,0,0.509,0.002,0.756,0.007c0.41,0.008,0.736,0.348,0.729,0.758
		c-0.009,0.41-0.348,0.725-0.758,0.728c-0.237-0.005-0.48-0.007-0.726-0.007c-0.284,0-0.375,0.002-0.581,0.008l-0.166,0.004
		C16.066,14.515,16.061,14.515,16.055,14.515z"/>
	<g>
		<path d="M17.75,39.697c-0.007,0-0.015,0-0.021,0c-0.164-0.004-0.612-0.007-0.785-0.007l-1.009-0.003
			c-0.415-0.002-0.749-0.339-0.747-0.753c0.002-0.413,0.337-0.747,0.75-0.747c0.001,0,0.002,0,0.003,0l1.003,0.003
			c0.183,0,0.656,0.003,0.828,0.008c0.414,0.012,0.74,0.357,0.729,0.771C18.488,39.375,18.154,39.697,17.75,39.697z"/>
		<path d="M32.931,24.308h-9.49c-0.232,0-0.452-0.108-0.595-0.293c-0.142-0.185-0.189-0.425-0.13-0.65
			c0.143-0.537,0.079-1.071-0.179-1.502c-0.253-0.422-0.668-0.712-1.2-0.838c-0.403-0.096-0.652-0.5-0.557-0.903
			c0.096-0.404,0.506-0.654,0.902-0.556c0.923,0.219,1.684,0.761,2.142,1.528c0.31,0.518,0.467,1.106,0.467,1.715h7.753
			c-0.464-1.917-2.44-6.676-10.703-7.971c-0.409-0.064-0.688-0.448-0.625-0.857c0.065-0.41,0.458-0.687,0.857-0.625
			c5.93,0.929,8.901,3.606,10.351,5.688c1.599,2.295,1.75,4.379,1.755,4.466c0.014,0.207-0.059,0.41-0.201,0.561
			C33.336,24.222,33.138,24.308,32.931,24.308z"/>
		<path d="M17.613,20.437c-0.008,0-0.016,0-0.024,0c-0.584-0.019-1.143-0.018-1.695-0.002c-0.008,0-0.016,0-0.022,0
			c-0.404,0-0.737-0.321-0.75-0.728c-0.012-0.414,0.314-0.759,0.728-0.771c0.584-0.018,1.17-0.019,1.789,0.002
			c0.414,0.013,0.738,0.36,0.726,0.774C18.35,20.117,18.017,20.437,17.613,20.437z"/>
		<path d="M12.233,26c-0.066,0-0.134-0.009-0.201-0.027c-0.751-0.209-3.033-0.846-3.033-3.083c0-1.004,0.501-2.39,2.885-3.288
			c0.393-0.146,0.82,0.05,0.967,0.438c0.146,0.388-0.051,0.82-0.438,0.966c-1.271,0.478-1.914,1.111-1.914,1.883
			c0,0.57,0.234,1.163,1.936,1.638c0.399,0.111,0.633,0.525,0.521,0.924C12.863,25.784,12.562,26,12.233,26z"/>
		<path d="M21.591,38.533c-0.328,0-0.63-0.217-0.723-0.548c-0.111-0.399,0.122-0.812,0.521-0.924
			c1.232-0.344,1.968-1.083,1.968-1.976c0-0.935-1.02-1.737-2.03-2.117c-0.387-0.146-0.583-0.579-0.438-0.966
			c0.146-0.388,0.577-0.583,0.967-0.438c1.384,0.521,3.001,1.756,3.001,3.521c0,1.582-1.174,2.893-3.063,3.42
			C21.725,38.524,21.657,38.533,21.591,38.533z"/>
		<path d="M17.608,26.787c-0.022,0-0.046-0.001-0.068-0.003c-0.617-0.056-1.189-0.111-1.722-0.165
			c-0.412-0.041-0.713-0.408-0.672-0.82c0.041-0.413,0.411-0.718,0.82-0.672c0.528,0.052,1.097,0.107,1.708,0.163
			c0.413,0.038,0.717,0.402,0.68,0.815C18.319,26.494,17.992,26.787,17.608,26.787z"/>
		<path d="M17.611,32.633c-0.013,0-0.026,0-0.039-0.001c-0.618-0.031-1.193-0.064-1.728-0.096c-0.413-0.024-0.729-0.38-0.704-0.793
			c0.025-0.414,0.385-0.727,0.794-0.704c0.53,0.031,1.1,0.064,1.714,0.095c0.414,0.021,0.731,0.374,0.711,0.787
			C18.339,32.322,18.008,32.633,17.611,32.633z"/>
		<path d="M21.499,44.956c-0.37,0-0.692-0.274-0.742-0.651c-0.055-0.411,0.233-0.788,0.645-0.843
			c6.202-0.826,9.345-3.586,9.339-8.203v-0.191c0.007-1.781,0.028-7.202-9.256-7.951c-0.412-0.033-0.721-0.395-0.688-0.808
			c0.034-0.414,0.404-0.717,0.809-0.688c7.079,0.571,10.657,3.75,10.635,9.452v0.125c0.008,6.896-5.782,9.104-10.642,9.751
			C21.565,44.954,21.532,44.956,21.499,44.956z"/>
		<path d="M12.016,44.935c-0.046,0-0.092-0.004-0.139-0.013c-5.665-1.055-8.588-3.761-10.041-5.845
			c-1.599-2.292-1.823-4.339-1.832-4.425c-0.021-0.211,0.047-0.421,0.189-0.579c0.143-0.157,0.345-0.247,0.557-0.247h9.262
			c0.34,0,0.637,0.229,0.725,0.557c0.003,0.011,0.425,1.474,1.771,2.043c0.382,0.162,0.561,0.602,0.398,0.983
			c-0.161,0.382-0.6,0.56-0.982,0.399c-1.408-0.595-2.119-1.779-2.431-2.481H1.668c0.53,1.932,2.617,6.657,10.484,8.122
			c0.407,0.076,0.676,0.467,0.6,0.875C12.685,44.683,12.37,44.935,12.016,44.935z"/>
		<path d="M12.014,32.282c-0.035,0-0.071-0.002-0.107-0.008c-6.032-0.864-9.989-3.279-10.855-6.626
			c-0.414-1.604-0.83-4.706,1.033-7.475c1.745-2.593,5.027-4.229,9.757-4.861c0.414-0.058,0.789,0.233,0.843,0.644
			c0.055,0.411-0.233,0.788-0.644,0.843c-4.285,0.574-7.217,1.991-8.712,4.213c-1.536,2.281-1.176,4.902-0.824,6.261
			c0.696,2.691,4.291,4.754,9.615,5.517c0.41,0.059,0.694,0.438,0.636,0.849C12.701,32.012,12.381,32.282,12.014,32.282z"/>
	</g>
	<g>
		<path d="M15.584,47.953H12.5c-0.276,0-0.5-0.224-0.5-0.5V10.427c0-0.276,0.224-0.5,0.5-0.5h3.084c0.276,0,0.5,0.224,0.5,0.5
			v37.026C16.084,47.729,15.86,47.953,15.584,47.953z M13,46.953h2.084V10.927H13V46.953z"/>
		<path d="M21.189,47.953h-3.086c-0.276,0-0.5-0.224-0.5-0.5V10.427c0-0.276,0.224-0.5,0.5-0.5h3.086c0.276,0,0.5,0.224,0.5,0.5
			v37.026C21.689,47.729,21.466,47.953,21.189,47.953z M18.604,46.953h2.086V10.927h-2.086V46.953z"/>
		<path d="M19.002,10.927H14.55c-0.276,0-0.5-0.224-0.5-0.5s0.224-0.5,0.5-0.5h4.452c0.276,0,0.5,0.224,0.5,0.5
			S19.278,10.927,19.002,10.927z"/>
	</g>
	<g>
		<path d="M16.875,10.881c-1.681,0-3.049-1.369-3.049-3.051c0-1.044,0.525-2.004,1.405-2.57c0.232-0.15,0.541-0.083,0.691,0.151
			c0.149,0.232,0.082,0.542-0.15,0.691c-0.593,0.38-0.946,1.026-0.946,1.728c0,1.131,0.919,2.051,2.049,2.051
			c1.132,0,2.053-0.92,2.053-2.051c0-0.729-0.375-1.387-1.002-1.762c-0.237-0.142-0.315-0.448-0.174-0.686
			c0.142-0.238,0.449-0.313,0.686-0.173c0.919,0.548,1.49,1.552,1.49,2.62C19.928,9.512,18.559,10.881,16.875,10.881z"/>
		<path d="M16.886,9.321c-0.81,0-1.468-0.658-1.468-1.467c-0.001-0.487,0.241-0.942,0.647-1.217c0.113-0.078,0.27-0.048,0.347,0.067
			c0.077,0.114,0.048,0.27-0.067,0.347c-0.268,0.182-0.428,0.481-0.427,0.803c0,0.534,0.435,0.968,0.968,0.968
			s0.968-0.434,0.968-0.967c0-0.303-0.139-0.583-0.381-0.768c-0.109-0.084-0.13-0.241-0.046-0.351
			c0.083-0.109,0.239-0.13,0.351-0.047c0.366,0.281,0.576,0.705,0.576,1.166C18.354,8.663,17.695,9.321,16.886,9.321z"/>
		<g>
			<path d="M16.827,7.557c-0.055,0-0.109-0.009-0.164-0.027c-1.9-0.659-2.479-6.045-2.337-6.596C14.525,0.171,16.288,0,16.89,0
				c0.276,0,0.5,0.224,0.5,0.5S17.166,1,16.89,1c-0.768,0-1.373,0.181-1.602,0.292c-0.008,0.91,0.701,4.945,1.703,5.292
				C17.252,6.675,17.39,6.96,17.3,7.221C17.228,7.428,17.034,7.557,16.827,7.557z"/>
			<path d="M16.893,7.557c-0.207,0-0.4-0.129-0.473-0.336c-0.09-0.261,0.048-0.545,0.309-0.636c0.999-0.346,1.719-4.327,1.719-5.294
				C18.215,1.178,17.611,1,16.85,1c-0.276,0-0.5-0.224-0.5-0.5S16.573,0,16.85,0c0.602,0,2.365,0.171,2.563,0.933
				c0.144,0.551-0.446,5.935-2.356,6.597C17.002,7.548,16.947,7.557,16.893,7.557z"/>
		</g>
	</g>
	<g>
		<path d="M14.029,13.457c-0.477,0-0.864-0.388-0.864-0.865c0-0.477,0.388-0.864,0.864-0.864c0.478,0,0.865,0.388,0.865,0.864
			C14.895,13.069,14.507,13.457,14.029,13.457z M14.029,12.228c-0.201,0-0.364,0.164-0.364,0.364c0,0.201,0.163,0.365,0.364,0.365
			s0.365-0.164,0.365-0.365C14.395,12.392,14.23,12.228,14.029,12.228z"/>
		<path d="M14.029,17.077c-0.477,0-0.864-0.388-0.864-0.865s0.388-0.865,0.864-0.865c0.478,0,0.865,0.388,0.865,0.865
			S14.507,17.077,14.029,17.077z M14.029,15.847c-0.201,0-0.364,0.164-0.364,0.365s0.163,0.365,0.364,0.365s0.365-0.164,0.365-0.365
			S14.23,15.847,14.029,15.847z"/>
		<path d="M14.029,20.696c-0.477,0-0.864-0.388-0.864-0.865c0-0.477,0.388-0.864,0.864-0.864c0.478,0,0.865,0.388,0.865,0.864
			C14.895,20.308,14.507,20.696,14.029,20.696z M14.029,19.467c-0.201,0-0.364,0.164-0.364,0.364c0,0.201,0.163,0.365,0.364,0.365
			s0.365-0.164,0.365-0.365C14.395,19.63,14.23,19.467,14.029,19.467z"/>
		<path d="M14.029,24.315c-0.477,0-0.864-0.388-0.864-0.865c0-0.477,0.388-0.864,0.864-0.864c0.478,0,0.865,0.388,0.865,0.864
			C14.895,23.928,14.507,24.315,14.029,24.315z M14.029,23.086c-0.201,0-0.364,0.164-0.364,0.364c0,0.201,0.163,0.365,0.364,0.365
			s0.365-0.164,0.365-0.365C14.395,23.25,14.23,23.086,14.029,23.086z"/>
		<path d="M14.029,27.935c-0.477,0-0.864-0.388-0.864-0.865s0.388-0.865,0.864-0.865c0.478,0,0.865,0.388,0.865,0.865
			S14.507,27.935,14.029,27.935z M14.029,26.706c-0.201,0-0.364,0.164-0.364,0.365s0.163,0.365,0.364,0.365s0.365-0.164,0.365-0.365
			S14.23,26.706,14.029,26.706z"/>
		<path d="M14.029,31.555c-0.477,0-0.864-0.388-0.864-0.865s0.388-0.865,0.864-0.865c0.478,0,0.865,0.388,0.865,0.865
			S14.507,31.555,14.029,31.555z M14.029,30.325c-0.201,0-0.364,0.164-0.364,0.365s0.163,0.365,0.364,0.365s0.365-0.164,0.365-0.365
			S14.23,30.325,14.029,30.325z"/>
		<path d="M14.029,35.174c-0.477,0-0.864-0.388-0.864-0.865s0.388-0.865,0.864-0.865c0.478,0,0.865,0.388,0.865,0.865
			S14.507,35.174,14.029,35.174z M14.029,33.944c-0.201,0-0.364,0.164-0.364,0.365s0.163,0.365,0.364,0.365s0.365-0.164,0.365-0.365
			S14.23,33.944,14.029,33.944z"/>
		<path d="M14.029,38.793c-0.477,0-0.864-0.388-0.864-0.865s0.388-0.865,0.864-0.865c0.478,0,0.865,0.388,0.865,0.865
			S14.507,38.793,14.029,38.793z M14.029,37.564c-0.201,0-0.364,0.164-0.364,0.365s0.163,0.365,0.364,0.365s0.365-0.164,0.365-0.365
			S14.23,37.564,14.029,37.564z"/>
		<path d="M14.029,42.413c-0.477,0-0.864-0.388-0.864-0.865s0.388-0.865,0.864-0.865c0.478,0,0.865,0.388,0.865,0.865
			S14.507,42.413,14.029,42.413z M14.029,41.184c-0.201,0-0.364,0.164-0.364,0.365s0.163,0.365,0.364,0.365s0.365-0.164,0.365-0.365
			S14.23,41.184,14.029,41.184z"/>
		<path d="M14.029,46.032c-0.477,0-0.864-0.388-0.864-0.865s0.388-0.865,0.864-0.865c0.478,0,0.865,0.388,0.865,0.865
			S14.507,46.032,14.029,46.032z M14.029,44.803c-0.201,0-0.364,0.164-0.364,0.365s0.163,0.365,0.364,0.365s0.365-0.164,0.365-0.365
			S14.23,44.803,14.029,44.803z"/>
	</g>
	<g>
		<path d="M19.607,13.457c-0.478,0-0.865-0.388-0.865-0.865c0-0.477,0.388-0.864,0.865-0.864c0.477,0,0.864,0.388,0.864,0.864
			C20.472,13.069,20.084,13.457,19.607,13.457z M19.607,12.228c-0.201,0-0.365,0.164-0.365,0.364c0,0.201,0.164,0.365,0.365,0.365
			s0.364-0.164,0.364-0.365C19.972,12.392,19.809,12.228,19.607,12.228z"/>
		<path d="M19.607,17.077c-0.478,0-0.865-0.388-0.865-0.865s0.388-0.865,0.865-0.865c0.477,0,0.864,0.388,0.864,0.865
			S20.084,17.077,19.607,17.077z M19.607,15.847c-0.201,0-0.365,0.164-0.365,0.365s0.164,0.365,0.365,0.365s0.364-0.164,0.364-0.365
			S19.809,15.847,19.607,15.847z"/>
		<path d="M19.607,20.696c-0.478,0-0.865-0.388-0.865-0.865c0-0.477,0.388-0.864,0.865-0.864c0.477,0,0.864,0.388,0.864,0.864
			C20.472,20.308,20.084,20.696,19.607,20.696z M19.607,19.467c-0.201,0-0.365,0.164-0.365,0.364c0,0.201,0.164,0.365,0.365,0.365
			s0.364-0.164,0.364-0.365C19.972,19.63,19.809,19.467,19.607,19.467z"/>
		<path d="M19.607,24.315c-0.478,0-0.865-0.388-0.865-0.865c0-0.477,0.388-0.864,0.865-0.864c0.477,0,0.864,0.388,0.864,0.864
			C20.472,23.928,20.084,24.315,19.607,24.315z M19.607,23.086c-0.201,0-0.365,0.164-0.365,0.364c0,0.201,0.164,0.365,0.365,0.365
			s0.364-0.164,0.364-0.365C19.972,23.25,19.809,23.086,19.607,23.086z"/>
		<path d="M19.607,27.935c-0.478,0-0.865-0.388-0.865-0.865s0.388-0.865,0.865-0.865c0.477,0,0.864,0.388,0.864,0.865
			S20.084,27.935,19.607,27.935z M19.607,26.706c-0.201,0-0.365,0.164-0.365,0.365s0.164,0.365,0.365,0.365s0.364-0.164,0.364-0.365
			S19.809,26.706,19.607,26.706z"/>
		<path d="M19.607,31.555c-0.478,0-0.865-0.388-0.865-0.865s0.388-0.865,0.865-0.865c0.477,0,0.864,0.388,0.864,0.865
			S20.084,31.555,19.607,31.555z M19.607,30.325c-0.201,0-0.365,0.164-0.365,0.365s0.164,0.365,0.365,0.365s0.364-0.164,0.364-0.365
			S19.809,30.325,19.607,30.325z"/>
		<path d="M19.607,35.174c-0.478,0-0.865-0.388-0.865-0.865s0.388-0.865,0.865-0.865c0.477,0,0.864,0.388,0.864,0.865
			S20.084,35.174,19.607,35.174z M19.607,33.944c-0.201,0-0.365,0.164-0.365,0.365s0.164,0.365,0.365,0.365s0.364-0.164,0.364-0.365
			S19.809,33.944,19.607,33.944z"/>
		<path d="M19.607,38.793c-0.478,0-0.865-0.388-0.865-0.865s0.388-0.865,0.865-0.865c0.477,0,0.864,0.388,0.864,0.865
			S20.084,38.793,19.607,38.793z M19.607,37.564c-0.201,0-0.365,0.164-0.365,0.365s0.164,0.365,0.365,0.365s0.364-0.164,0.364-0.365
			S19.809,37.564,19.607,37.564z"/>
		<path d="M19.607,42.413c-0.478,0-0.865-0.388-0.865-0.865s0.388-0.865,0.865-0.865c0.477,0,0.864,0.388,0.864,0.865
			S20.084,42.413,19.607,42.413z M19.607,41.184c-0.201,0-0.365,0.164-0.365,0.365s0.164,0.365,0.365,0.365s0.364-0.164,0.364-0.365
			S19.809,41.184,19.607,41.184z"/>
		<path d="M19.607,46.032c-0.478,0-0.865-0.388-0.865-0.865s0.388-0.865,0.865-0.865c0.477,0,0.864,0.388,0.864,0.865
			S20.084,46.032,19.607,46.032z M19.607,44.803c-0.201,0-0.365,0.164-0.365,0.365s0.164,0.365,0.365,0.365s0.364-0.164,0.364-0.365
			S19.809,44.803,19.607,44.803z"/>
	</g>
	<g>
		<g>
			<circle cx="25.351" cy="20.171" r="0.526"/>
			<circle cx="27.291" cy="18.758" r="0.525"/>
			<circle cx="23.046" cy="16.575" r="0.525"/>
			<circle cx="29.958" cy="21.385" r="0.525"/>
		</g>
		<g>
			<circle cx="9.309" cy="37.473" r="0.525"/>
			<circle cx="10.679" cy="41.795" r="0.525"/>
			<circle cx="3.891" cy="36.905" r="0.525"/>
			<circle cx="6.922" cy="39.571" r="0.525"/>
		</g>
		<g>
			<circle cx="26.887" cy="30.519" r="0.524"/>
			<circle cx="26.267" cy="35.136" r="0.525"/>
			<circle cx="24.994" cy="31.826" r="0.525"/>
			<circle cx="29.111" cy="34.965" r="0.525"/>
			<circle cx="27.17" cy="39.612" r="0.525"/>
			<circle cx="24.992" cy="38.049" r="0.524"/>
		</g>
		<g>
			<circle cx="7.65" cy="17.301" r="0.525"/>
			<circle cx="4.095" cy="21.71" r="0.525"/>
			<circle cx="5.893" cy="26.93" r="0.525"/>
			<circle cx="10.461" cy="29.349" r="0.525"/>
			<circle cx="8.042" cy="24.766" r="0.525"/>
			<circle cx="7.676" cy="21.837" r="0.525"/>
			<circle cx="9.442" cy="19.418" r="0.525"/>
		</g>
	</g>
	<g>
		<path d="M9.098,41.227c-0.488,0-0.885-0.396-0.885-0.884s0.396-0.884,0.885-0.884c0.486,0,0.883,0.396,0.883,0.884
			S9.584,41.227,9.098,41.227z M9.098,39.959c-0.212,0-0.385,0.172-0.385,0.384s0.173,0.384,0.385,0.384
			c0.211,0,0.383-0.172,0.383-0.384S9.309,39.959,9.098,39.959z"/>
		<path d="M24.348,41.852c-0.488,0-0.885-0.396-0.885-0.884c0-0.487,0.396-0.883,0.885-0.883c0.486,0,0.883,0.396,0.883,0.883
			C25.23,41.455,24.834,41.852,24.348,41.852z M24.348,40.585c-0.212,0-0.385,0.172-0.385,0.383c0,0.211,0.173,0.384,0.385,0.384
			c0.211,0,0.383-0.172,0.383-0.384C24.73,40.757,24.559,40.585,24.348,40.585z"/>
		<path d="M27.768,21.684c-0.478,0-0.865-0.388-0.865-0.865c0-0.477,0.388-0.864,0.865-0.864c0.477,0,0.864,0.388,0.864,0.864
			C28.632,21.296,28.244,21.684,27.768,21.684z M27.768,20.455c-0.201,0-0.365,0.164-0.365,0.364c0,0.201,0.164,0.365,0.365,0.365
			s0.364-0.164,0.364-0.365C28.132,20.619,27.969,20.455,27.768,20.455z"/>
		<path d="M5.344,24.949c-0.476,0-0.863-0.388-0.863-0.865c0-0.477,0.388-0.864,0.863-0.864c0.478,0,0.866,0.388,0.866,0.864
			C6.21,24.562,5.821,24.949,5.344,24.949z M5.344,23.72c-0.2,0-0.363,0.164-0.363,0.364c0,0.201,0.163,0.365,0.363,0.365
			c0.202,0,0.366-0.164,0.366-0.365C5.71,23.884,5.546,23.72,5.344,23.72z"/>
		<path d="M6.313,38.287c-0.476,0-0.863-0.388-0.863-0.865s0.388-0.865,0.863-0.865c0.478,0,0.866,0.388,0.866,0.865
			S6.791,38.287,6.313,38.287z M6.313,37.057c-0.2,0-0.363,0.164-0.363,0.365s0.163,0.365,0.363,0.365
			c0.202,0,0.366-0.164,0.366-0.365S6.516,37.057,6.313,37.057z"/>
		<path d="M8.739,27.98c-0.477,0-0.864-0.388-0.864-0.865s0.388-0.865,0.864-0.865c0.478,0,0.865,0.388,0.865,0.865
			S9.217,27.98,8.739,27.98z M8.739,26.751c-0.201,0-0.364,0.164-0.364,0.365s0.163,0.365,0.364,0.365s0.365-0.164,0.365-0.365
			S8.94,26.751,8.739,26.751z"/>
		<path d="M27.525,33.688c-0.478,0-0.866-0.388-0.866-0.865s0.389-0.865,0.866-0.865c0.476,0,0.863,0.388,0.863,0.865
			S28.001,33.688,27.525,33.688z M27.525,32.458c-0.202,0-0.366,0.164-0.366,0.365s0.164,0.365,0.366,0.365
			c0.2,0,0.363-0.164,0.363-0.365S27.726,32.458,27.525,32.458z"/>
		<path d="M27.654,38.174c-0.477,0-0.864-0.388-0.864-0.865s0.388-0.865,0.864-0.865c0.478,0,0.865,0.388,0.865,0.865
			S28.132,38.174,27.654,38.174z M27.654,36.944c-0.201,0-0.364,0.164-0.364,0.365s0.163,0.365,0.364,0.365s0.365-0.164,0.365-0.365
			S27.855,36.944,27.654,36.944z"/>
		<path d="M6.428,20.593c-0.478,0-0.866-0.388-0.866-0.865c0-0.477,0.389-0.864,0.866-0.864c0.476,0,0.863,0.388,0.863,0.864
			C7.291,20.205,6.903,20.593,6.428,20.593z M6.428,19.364c-0.202,0-0.366,0.164-0.366,0.364c0,0.201,0.164,0.365,0.366,0.365
			c0.2,0,0.363-0.164,0.363-0.365C6.791,19.527,6.628,19.364,6.428,19.364z"/>
		<path d="M24.865,19.138c-0.477,0-0.864-0.388-0.864-0.865c0-0.477,0.388-0.864,0.864-0.864c0.478,0,0.865,0.388,0.865,0.864
			C25.73,18.75,25.343,19.138,24.865,19.138z M24.865,17.909c-0.201,0-0.364,0.164-0.364,0.364c0,0.201,0.163,0.365,0.364,0.365
			s0.365-0.164,0.365-0.365C25.23,18.072,25.066,17.909,24.865,17.909z"/>
		<path d="M23.977,30.3c-0.476,0-0.863-0.388-0.863-0.865c0-0.476,0.388-0.864,0.863-0.864c0.478,0,0.866,0.388,0.866,0.864
			C24.843,29.913,24.454,30.3,23.977,30.3z M23.977,29.072c-0.2,0-0.363,0.163-0.363,0.364c0,0.201,0.163,0.365,0.363,0.365
			c0.202,0,0.366-0.164,0.366-0.365C24.343,29.235,24.179,29.072,23.977,29.072z"/>
		<path d="M10.578,18.402c-0.477,0-0.864-0.388-0.864-0.865s0.388-0.865,0.864-0.865c0.478,0,0.865,0.388,0.865,0.865
			S11.056,18.402,10.578,18.402z M10.578,17.173c-0.201,0-0.364,0.164-0.364,0.365s0.163,0.365,0.364,0.365s0.365-0.164,0.365-0.365
			S10.779,17.173,10.578,17.173z"/>
	</g>
</g>
<g>
</g>
<g>
</g>
<g>
</g>
<g>
</g>
<g>
</g>
<g>
</g>
<g>
</g>
<g>
</g>
<g>
</g>
<g>
</g>
<g>
</g>
<g>
</g>
<g>
</g>
<g>
</g>
<g>
</g>
</svg>
