<?xml version="1.0" encoding="iso-8859-1"?>
<!-- Generator: Adobe Illustrator 16.0.4, SVG Export Plug-In . SVG Version: 6.00 Build 0)  -->
<!DOCTYPE svg PUBLIC "-//W3C//DTD SVG 1.1//EN" "http://www.w3.org/Graphics/SVG/1.1/DTD/svg11.dtd">
<svg version="1.1" id="Capa_1" xmlns="http://www.w3.org/2000/svg" xmlns:xlink="http://www.w3.org/1999/xlink" x="0px" y="0px"
	 width="47.599px" height="47.98px" viewBox="0 0 47.599 47.98" style="enable-background:new 0 0 47.599 47.98;"
	 xml:space="preserve">
<g id="iPhone_w_x2F__Reciever">
	<path d="M7.875,39.803c-0.553,0-1-0.448-1-1v-1.5c0-0.552,0.447-1,1-1s1,0.448,1,1v1.5C8.875,39.355,8.428,39.803,7.875,39.803z"/>
	<path d="M44.375,42.511c-0.553,0-1-0.448-1-1v-1.5c0-0.552,0.447-1,1-1s1,0.448,1,1v1.5C45.375,42.063,44.928,42.511,44.375,42.511
		z"/>
	<path d="M14.397,47.98c-1.818,0-3.329-0.602-4.489-1.787c-2.563-2.619-2.495-7.147-2.491-7.338c0.006-0.272,0.229-0.489,0.5-0.489
		c0.003,0,0.007,0,0.011,0c0.275,0.005,0.495,0.234,0.489,0.51c-0.001,0.043-0.061,4.306,2.208,6.621
		c0.966,0.984,2.234,1.484,3.772,1.484c1.716,0,3.064-0.499,4.008-1.483c1.338-1.395,1.944-3.822,1.803-7.214
		c-0.049-1.197-0.345-2.901-0.658-4.706c-0.857-4.943-1.925-11.095,0.542-14.026c0.93-1.104,2.286-1.665,4.033-1.665
		c2.781,0,4.82,1.684,5.456,4.505c0.651,2.894-0.42,5.817-2.491,6.801c-0.249,0.116-0.548,0.012-0.667-0.237
		c-0.118-0.25-0.012-0.548,0.237-0.666c1.634-0.775,2.487-3.269,1.945-5.678c-0.252-1.12-1.194-3.725-4.48-3.725
		c-1.458,0-2.527,0.428-3.268,1.309c-2.167,2.575-1.145,8.473-0.322,13.211c0.333,1.917,0.62,3.574,0.673,4.835
		c0.153,3.675-0.547,6.349-2.081,7.948C17.988,47.378,16.396,47.98,14.397,47.98z"/>
	<path d="M39.197,42.793L39.197,42.793c-2.61,0-4.682-2.07-5.541-5.536c-0.928-3.751,1.021-5.811,3.876-8.311
		c0.01-0.009,0.918-0.905-1.748-7.238c-1.493-3.547-3.356-6.97-3.833-7.578l-0.234-0.303c-0.538-0.702-0.712-0.88-1.049-0.88
		c-0.382,0-0.979,0.215-1.827,0.658c-0.73,0.381-1.483,0.575-2.238,0.575c-2.036,0-4.02-1.284-6.63-4.293
		c-1.117-1.287-1.629-2.563-1.522-3.795c0.102-1.169,0.729-1.921,1.03-2.218C20.597,1.409,23.031,0,26.188,0
		c0.865,0,1.76,0.106,2.659,0.314c5.212,1.21,11.033,11.625,13.651,17.588c1.904,4.338,5.099,12.314,5.101,16.994
		c0.001,4.108-4.426,7.674-8.092,7.888C39.402,42.791,39.3,42.793,39.197,42.793z M30.668,11.448c1.114,0,1.66,0.712,2.239,1.467
		l0.224,0.29c0.479,0.611,8.283,14.337,5.39,16.871c-3.091,2.707-4.07,4.145-3.408,6.822c0.327,1.322,1.382,4.397,4.085,4.397
		c0,0,0,0,0.001,0c0.072,0,0.146-0.002,0.22-0.006c2.946-0.172,6.682-3.214,6.681-6.39c-0.002-3.218-1.814-9.193-4.974-16.392
		c-2.713-6.177-8.311-15.729-12.618-16.73C27.72,1.593,26.939,1.5,26.188,1.5c-1.521,0-4.245,0.404-5.393,3.111
		c-0.048,0.113-0.122,0.212-0.217,0.29c-0.018,0.015-0.571,0.496-0.635,1.346c-0.061,0.805,0.33,1.699,1.162,2.657
		c3.03,3.494,4.979,4.45,7.041,3.372C29.243,11.703,30.021,11.448,30.668,11.448z"/>
	<path d="M30.577,9.582c-0.217,0-0.416-0.141-0.479-0.359c-1.562-5.318-5.271-6.399-6.371-6.604
		c-1.124-0.209-1.885,0.001-2.044,0.21c-0.169,0.219-0.481,0.26-0.701,0.093c-0.22-0.168-0.261-0.482-0.094-0.701
		c0.476-0.618,1.631-0.843,3.022-0.585c1.241,0.231,5.425,1.44,7.146,7.305c0.078,0.265-0.073,0.542-0.339,0.621
		C30.671,9.575,30.624,9.582,30.577,9.582z"/>
	<path d="M41.102,42.217c-0.212,0-0.409-0.136-0.477-0.349c-0.084-0.263,0.062-0.544,0.325-0.628
		c2.305-0.733,2.43-3.198,2.377-4.224c-0.131-2.528-1.556-4.937-3.11-5.259c-0.271-0.056-0.444-0.321-0.388-0.591
		c0.056-0.271,0.324-0.441,0.591-0.388c2.238,0.464,3.771,3.573,3.906,6.187c0.136,2.619-1.014,4.574-3.073,5.229
		C41.203,42.21,41.151,42.217,41.102,42.217z"/>
	<path d="M41.866,28.565c-0.223,0-0.426-0.149-0.484-0.374c-3.401-13.087-7.816-17.41-7.86-17.452
		c-0.2-0.19-0.208-0.507-0.018-0.707c0.191-0.199,0.508-0.207,0.707-0.017c0.189,0.18,4.667,4.564,8.14,17.924
		c0.069,0.268-0.092,0.541-0.358,0.61C41.95,28.56,41.907,28.565,41.866,28.565z"/>
	<path d="M27.182,11.955c-1.101,0-2.604-0.789-3.921-2.059c-1.916-1.847-2.725-4.013-1.84-4.933c0.252-0.262,0.624-0.4,1.075-0.4
		c1.101,0,2.603,0.789,3.919,2.059c1.339,1.288,2.185,2.776,2.204,3.883c0.009,0.433-0.117,0.795-0.362,1.049
		C28.005,11.816,27.633,11.955,27.182,11.955z M22.496,5.063c-0.316,0-0.558,0.083-0.716,0.247
		c-0.594,0.618-0.002,2.463,1.828,4.226c1.209,1.166,2.611,1.919,3.573,1.919c0.316,0,0.557-0.083,0.716-0.248
		c0.153-0.159,0.228-0.392,0.223-0.693c-0.019-0.964-0.823-2.351-2.052-3.532C24.859,5.816,23.457,5.063,22.496,5.063z"/>
	<path d="M39.169,40.708c-1.136,0-2.418-1.391-3.049-3.307c-0.729-2.218-0.347-4.271,0.872-4.673
		c0.135-0.044,0.277-0.067,0.423-0.067c1.136,0,2.419,1.392,3.05,3.31c0.729,2.218,0.347,4.269-0.871,4.669
		C39.458,40.685,39.315,40.708,39.169,40.708z M37.415,33.161c-0.093,0-0.183,0.014-0.267,0.042
		c-0.921,0.304-1.174,2.155-0.554,4.042c0.613,1.861,1.926,3.224,2.843,2.921c0.92-0.303,1.173-2.152,0.553-4.038
		C39.434,34.437,38.326,33.161,37.415,33.161z"/>
	<g>
		<circle cx="23.029" cy="6.558" r="0.45"/>
		<circle cx="26.825" cy="10.259" r="0.449"/>
		<circle cx="25.417" cy="7.85" r="0.449"/>
		<circle cx="26.334" cy="8.94" r="0.449"/>
		<circle cx="24.373" cy="6.998" r="0.45"/>
		<circle cx="25.489" cy="9.766" r="0.449"/>
		<circle cx="23.43" cy="7.93" r="0.449"/>
		<circle cx="24.343" cy="9.001" r="0.449"/>
	</g>
	<g>
		<circle cx="37.487" cy="34.114" r="0.45"/>
		<path d="M39.389,39.329c-0.068,0.24-0.316,0.379-0.554,0.311c-0.239-0.068-0.378-0.316-0.312-0.553
			c0.065-0.24,0.316-0.381,0.555-0.314C39.316,38.842,39.455,39.09,39.389,39.329z"/>
		<path d="M39.354,36.54c-0.065,0.24-0.313,0.379-0.554,0.312c-0.238-0.07-0.378-0.318-0.31-0.557
			c0.067-0.238,0.315-0.379,0.555-0.311C39.284,36.051,39.423,36.299,39.354,36.54z"/>
		<circle cx="39.182" cy="37.818" r="0.449"/>
		<circle cx="38.437" cy="35.16" r="0.449"/>
		<circle cx="38.039" cy="38.119" r="0.45"/>
		<circle cx="37.157" cy="35.504" r="0.449"/>
		<path d="M37.854,37.008c-0.067,0.238-0.315,0.377-0.556,0.311c-0.237-0.066-0.377-0.314-0.31-0.557
			c0.067-0.236,0.315-0.375,0.554-0.309C37.783,36.52,37.92,36.772,37.854,37.008z"/>
	</g>
	<path d="M12.638,37.2H3.196C1.434,37.2,0,35.73,0,33.924V13.6c0-1.806,1.434-3.276,3.196-3.276h9.441
		c1.762,0,3.195,1.47,3.195,3.276v20.325C15.833,35.73,14.399,37.2,12.638,37.2z M3.196,11.824c-0.936,0-1.696,0.797-1.696,1.776
		v20.325c0,0.979,0.761,1.775,1.696,1.775h9.441c0.935,0,1.695-0.796,1.695-1.775V13.6c0-0.979-0.761-1.776-1.695-1.776H3.196z"/>
	<path d="M12.333,32.59H3.417c-0.701,0-1.271-0.625-1.271-1.392v-15.04c0-0.768,0.57-1.393,1.271-1.393h8.916
		c0.701,0,1.271,0.625,1.271,1.393v15.04C13.604,31.966,13.034,32.59,12.333,32.59z M3.417,15.266c-0.426,0-0.771,0.4-0.771,0.893
		v15.04c0,0.492,0.346,0.892,0.771,0.892h8.916c0.426,0,0.771-0.4,0.771-0.892v-15.04c0-0.493-0.346-0.893-0.771-0.893H3.417z"/>
	<circle cx="7.865" cy="34.292" r="0.875"/>
	<circle cx="6.188" cy="13.365" r="0.437"/>
	<path d="M9.999,13.595h-2.5c-0.138,0-0.25-0.112-0.25-0.25s0.112-0.25,0.25-0.25h2.5c0.138,0,0.25,0.112,0.25,0.25
		S10.137,13.595,9.999,13.595z"/>
	<path d="M5.518,24.216c-0.064,0-0.128-0.024-0.177-0.073c-0.098-0.098-0.098-0.256,0-0.354l5.067-5.066
		c0.098-0.098,0.256-0.098,0.354,0s0.098,0.256,0,0.354l-5.067,5.066C5.646,24.191,5.582,24.216,5.518,24.216z"/>
	<path d="M5.518,27.215c-0.064,0-0.128-0.024-0.177-0.073c-0.098-0.098-0.098-0.256,0-0.354l5.067-5.066
		c0.099-0.099,0.257-0.097,0.354,0c0.098,0.098,0.098,0.256,0,0.354l-5.067,5.066C5.646,27.191,5.582,27.215,5.518,27.215z"/>
	<path d="M24.792,29.762c-1.345,0-2.791-0.457-2.791-1.459c0-1.002,1.446-1.458,2.791-1.458s2.792,0.456,2.792,1.458
		C27.584,29.306,26.137,29.762,24.792,29.762z M24.792,27.845c-1.107,0-1.733,0.347-1.796,0.485
		c0.062,0.085,0.688,0.432,1.796,0.432s1.734-0.347,1.796-0.485C26.526,28.192,25.899,27.845,24.792,27.845z"/>
	<path d="M24.792,32.011c-1.345,0-2.791-0.457-2.791-1.459c0-1.002,1.446-1.458,2.791-1.458s2.792,0.456,2.792,1.458
		C27.584,31.555,26.137,32.011,24.792,32.011z M24.792,30.094c-1.107,0-1.733,0.347-1.796,0.485
		c0.062,0.085,0.688,0.432,1.796,0.432s1.734-0.347,1.796-0.485C26.526,30.441,25.899,30.094,24.792,30.094z"/>
	<path d="M24.631,34.384c-1.257,0-2.095-0.431-2.188-1.125C22.406,32.99,22.464,32.467,23.26,32c0.46-0.27,1.083-0.469,1.753-0.56
		c1.633-0.218,2.851,0.242,2.963,1.07c0.037,0.271-0.021,0.794-0.816,1.261c-0.461,0.27-1.084,0.469-1.754,0.56
		C25.138,34.367,24.877,34.384,24.631,34.384z M25.787,32.387c-0.203,0-0.419,0.014-0.64,0.044
		c-1.098,0.148-1.671,0.576-1.714,0.721c0.04,0.023,0.413,0.231,1.197,0.231c0.203,0,0.419-0.014,0.64-0.044
		c1.099-0.149,1.672-0.577,1.715-0.722C26.945,32.595,26.571,32.387,25.787,32.387z"/>
	<path d="M25.168,36.644c-1.257,0-2.095-0.431-2.188-1.125c-0.037-0.269,0.021-0.792,0.816-1.259c0.46-0.27,1.083-0.469,1.753-0.56
		c1.633-0.219,2.851,0.242,2.963,1.07c0.037,0.271-0.021,0.794-0.816,1.261c-0.461,0.27-1.084,0.469-1.754,0.56
		C25.675,36.627,25.414,36.644,25.168,36.644z M26.324,34.647c-0.203,0-0.419,0.014-0.64,0.044
		c-1.098,0.148-1.671,0.576-1.714,0.721c0.04,0.023,0.413,0.231,1.197,0.231c0.203,0,0.419-0.014,0.64-0.044
		c1.099-0.149,1.672-0.577,1.715-0.722C27.482,34.855,27.108,34.647,26.324,34.647z"/>
	<path d="M25.585,38.727c-1.255,0-2.094-0.43-2.188-1.123c-0.134-0.994,1.239-1.64,2.57-1.821c1.633-0.219,2.852,0.241,2.963,1.07
		c0.037,0.271-0.021,0.794-0.816,1.261c-0.461,0.27-1.084,0.469-1.754,0.56C26.092,38.71,25.831,38.727,25.585,38.727z
		 M26.741,36.73c-0.203,0-0.419,0.014-0.64,0.044c-1.099,0.148-1.672,0.577-1.715,0.722c0.04,0.022,0.413,0.231,1.198,0.231
		c0.203,0,0.419-0.014,0.64-0.044c1.099-0.149,1.672-0.577,1.715-0.722C27.899,36.938,27.525,36.73,26.741,36.73z"/>
	<path d="M26.085,40.977c-1.255,0-2.094-0.43-2.188-1.123c-0.134-0.994,1.239-1.64,2.57-1.821c1.634-0.219,2.851,0.242,2.963,1.07
		c0.037,0.271-0.021,0.794-0.816,1.261c-0.461,0.27-1.084,0.469-1.754,0.56C26.592,40.96,26.331,40.977,26.085,40.977z
		 M27.241,38.98c-0.203,0-0.419,0.014-0.64,0.044c-1.098,0.149-1.672,0.577-1.715,0.722c0.04,0.022,0.413,0.23,1.198,0.23
		c0.203,0,0.419-0.014,0.64-0.044c1.099-0.149,1.672-0.577,1.715-0.722C28.399,39.188,28.025,38.98,27.241,38.98z"/>
	<path d="M35.25,47.865c-11.117,0-11.312-7.792-11.312-7.87c-0.002-0.276,0.219-0.5,0.494-0.503
		c0.239-0.029,0.502,0.217,0.506,0.493c0.004,0.281,0.217,6.88,10.312,6.88c4.904,0,8.709-2.43,8.709-4.52
		c0-0.276,0.224-0.5,0.5-0.5s0.5,0.224,0.5,0.5C44.959,45.286,40.422,47.865,35.25,47.865z"/>
</g>
<g>
</g>
<g>
</g>
<g>
</g>
<g>
</g>
<g>
</g>
<g>
</g>
<g>
</g>
<g>
</g>
<g>
</g>
<g>
</g>
<g>
</g>
<g>
</g>
<g>
</g>
<g>
</g>
<g>
</g>
</svg>
