<?xml version="1.0" encoding="iso-8859-1"?>
<!-- Generator: Adobe Illustrator 16.0.4, SVG Export Plug-In . SVG Version: 6.00 Build 0)  -->
<!DOCTYPE svg PUBLIC "-//W3C//DTD SVG 1.1//EN" "http://www.w3.org/Graphics/SVG/1.1/DTD/svg11.dtd">
<svg version="1.1" id="Capa_1" xmlns="http://www.w3.org/2000/svg" xmlns:xlink="http://www.w3.org/1999/xlink" x="0px" y="0px"
	 width="48px" height="48px" viewBox="0 0 48 48" style="enable-background:new 0 0 48 48;" xml:space="preserve">
<g id="Close_x2F_No_Button">
	<g>
		<path d="M23.943,20.89c-0.256,0-0.512-0.098-0.707-0.293c-0.391-0.391-0.391-1.023,0-1.414l4.111-4.11
			c0.391-0.391,1.023-0.391,1.414,0s0.391,1.023,0,1.414l-4.111,4.11C24.455,20.792,24.199,20.89,23.943,20.89z"/>
		<path d="M15.533,29.3c-0.256,0-0.512-0.098-0.707-0.293c-0.391-0.391-0.391-1.023,0-1.414l4.219-4.22
			c0.391-0.391,1.023-0.391,1.414,0s0.391,1.023,0,1.414l-4.219,4.22C16.045,29.202,15.789,29.3,15.533,29.3z"/>
		<path d="M28.133,25.078c-0.256,0-0.512-0.098-0.707-0.293c-0.391-0.391-0.391-1.023,0-1.414l4.109-4.111
			c0.391-0.391,1.024-0.391,1.415,0s0.391,1.023,0,1.414l-4.109,4.111C28.645,24.98,28.389,25.078,28.133,25.078z"/>
		<path d="M19.72,33.487c-0.256,0-0.512-0.098-0.707-0.293c-0.391-0.391-0.391-1.023,0-1.414l4.225-4.224
			c0.391-0.391,1.023-0.391,1.414,0s0.391,1.023,0,1.414l-4.225,4.224C20.231,33.39,19.976,33.487,19.72,33.487z"/>
		<path d="M19.754,25.078c-0.256,0-0.512-0.098-0.707-0.293l-4.167-4.166c-0.391-0.391-0.391-1.023,0-1.414s1.023-0.391,1.414,0
			l4.167,4.166c0.391,0.391,0.391,1.023,0,1.414C20.266,24.98,20.01,25.078,19.754,25.078z"/>
		<path d="M28.109,33.434c-0.256,0-0.512-0.098-0.707-0.293l-4.168-4.166c-0.391-0.391-0.391-1.023,0-1.414
			c0.391-0.391,1.024-0.391,1.415,0l4.168,4.166c0.391,0.391,0.391,1.023,0,1.414C28.622,33.336,28.365,33.434,28.109,33.434z"/>
		<path d="M23.941,20.891c-0.256,0-0.512-0.098-0.707-0.293l-4.167-4.166c-0.391-0.391-0.391-1.023,0-1.414s1.023-0.391,1.414,0
			l4.167,4.166c0.391,0.391,0.391,1.023,0,1.414C24.453,20.793,24.197,20.891,23.941,20.891z"/>
		<path d="M32.297,29.245c-0.256,0-0.512-0.098-0.707-0.293l-4.168-4.166c-0.391-0.391-0.391-1.023,0-1.414
			c0.391-0.391,1.024-0.391,1.415,0l4.168,4.166c0.391,0.391,0.391,1.023,0,1.414C32.809,29.147,32.553,29.245,32.297,29.245z"/>
		<path d="M30.207,34.277c-1.01,0.001-2.02-0.384-2.789-1.152c-0.391-0.391-0.391-1.023,0-1.414s1.023-0.391,1.414,0
			c0.759,0.759,1.995,0.757,2.756-0.004c0.369-0.369,0.572-0.858,0.573-1.379c0-0.52-0.202-1.008-0.57-1.375
			c-0.391-0.391-0.391-1.023-0.001-1.414c0.39-0.393,1.022-0.392,1.414-0.002c0.747,0.746,1.158,1.738,1.157,2.793
			c-0.001,1.054-0.413,2.045-1.159,2.791C32.231,33.893,31.218,34.277,30.207,34.277z"/>
		<path d="M15.603,20.896c-0.256,0-0.513-0.098-0.708-0.294c-1.537-1.541-1.534-4.046,0.006-5.585
			c1.54-1.538,4.044-1.539,5.583-0.003c0.391,0.391,0.391,1.023,0.001,1.414c-0.391,0.392-1.023,0.391-1.414,0.002
			c-0.76-0.761-1.996-0.758-2.756,0.001c-0.761,0.761-0.763,1.998-0.004,2.759c0.39,0.391,0.389,1.024-0.002,1.414
			C16.114,20.799,15.858,20.896,15.603,20.896z"/>
		<path d="M17.637,34.353c-0.001,0-0.002,0-0.003,0c-1.053-0.001-2.044-0.412-2.792-1.157c-1.539-1.54-1.539-4.045-0.001-5.585
			c0.39-0.393,1.023-0.392,1.414-0.002c0.391,0.391,0.391,1.023,0.001,1.414c-0.759,0.761-0.759,1.998,0,2.758
			c0.369,0.368,0.859,0.571,1.379,0.572c0,0,0.001,0,0.001,0c0.519,0,1.007-0.203,1.375-0.571c0.39-0.393,1.023-0.392,1.414-0.002
			c0.391,0.39,0.392,1.023,0.002,1.414C19.682,33.94,18.691,34.353,17.637,34.353z"/>
		<path d="M32.111,21.097c-0.256,0-0.512-0.098-0.708-0.293c-0.39-0.391-0.39-1.024,0-1.414c0.37-0.369,0.573-0.859,0.573-1.38
			c0-0.52-0.203-1.01-0.573-1.379c-0.737-0.737-2.021-0.737-2.758,0.001c-0.391,0.391-1.024,0.391-1.415,0
			c-0.39-0.391-0.39-1.024,0-1.414c0.747-0.747,1.74-1.158,2.794-1.158h0c1.055,0,2.046,0.411,2.792,1.158
			c0.747,0.745,1.158,1.737,1.158,2.792c0,1.056-0.412,2.048-1.159,2.794C32.623,20.999,32.367,21.097,32.111,21.097z"/>
	</g>
	<path d="M37.292,48H11.917C4.344,48,0,44.014,0,37.062V12.125C0,4.873,4.27,0,10.625,0h27.584C42.918,0,48,4.524,48,11.834v25.083
		C48,43.132,43.296,48,37.292,48z M10.625,2C4.259,2,2,7.454,2,12.125v24.938C2,44.449,7.393,46,11.917,46h25.375
		C42.256,46,46,42.095,46,36.917V11.834C46,5.76,41.956,2,38.209,2H10.625z"/>
	<path d="M37.135,43.334H10.938c-3.463,0-6.281-2.812-6.281-6.268V10.935c0-3.456,2.818-6.268,6.281-6.268h26.197
		c3.463,0,6.28,2.812,6.28,6.268v26.132C43.415,40.522,40.598,43.334,37.135,43.334z M10.938,6.667
		c-2.361,0-4.281,1.914-4.281,4.268v26.132c0,2.354,1.92,4.268,4.281,4.268h26.197c2.36,0,4.28-1.914,4.28-4.268V10.935
		c0-2.354-1.92-4.268-4.28-4.268H10.938z"/>
</g>
<g>
</g>
<g>
</g>
<g>
</g>
<g>
</g>
<g>
</g>
<g>
</g>
<g>
</g>
<g>
</g>
<g>
</g>
<g>
</g>
<g>
</g>
<g>
</g>
<g>
</g>
<g>
</g>
<g>
</g>
</svg>
