<?xml version="1.0" encoding="iso-8859-1"?>
<!-- Generator: Adobe Illustrator 16.0.4, SVG Export Plug-In . SVG Version: 6.00 Build 0)  -->
<!DOCTYPE svg PUBLIC "-//W3C//DTD SVG 1.1//EN" "http://www.w3.org/Graphics/SVG/1.1/DTD/svg11.dtd">
<svg version="1.1" id="Capa_1" xmlns="http://www.w3.org/2000/svg" xmlns:xlink="http://www.w3.org/1999/xlink" x="0px" y="0px"
	 width="35px" height="48.083px" viewBox="0 0 35 48.083" style="enable-background:new 0 0 35 48.083;" xml:space="preserve">
<g id="Coffee">
	<g>
		<path d="M17.5,48.083c-7.053,0-11.808-1.981-11.874-4.937L2.257,13.508c-0.062-0.548,0.331-1.044,0.88-1.106
			c0.568-0.069,1.044,0.332,1.106,0.881L7.618,42.97c0.005,0.037,0.007,0.075,0.007,0.113c0,1.258,3.432,3,9.875,3
			s9.875-1.742,9.875-3c0-0.552,0.447-1,1-1s1,0.448,1,1C29.375,46.074,24.603,48.083,17.5,48.083z"/>
		<path d="M28.419,44.082c-0.038,0-0.076-0.002-0.115-0.006c-0.549-0.063-0.942-0.56-0.879-1.108l3.395-29.437
			c0.063-0.548,0.558-0.938,1.107-0.879c0.549,0.063,0.942,0.56,0.879,1.108l-3.395,29.437
			C29.353,43.707,28.92,44.082,28.419,44.082z"/>
	</g>
	<g>
		<path d="M17.5,43.125c-6.801,0-11.351-2.24-12.33-4.453c-0.224-0.505,0.004-1.096,0.51-1.319c0.503-0.225,1.095,0.005,1.318,0.51
			C7.502,39,11.1,41.125,17.5,41.125c7.16,0,10.317-1.752,10.429-2.482c0.082-0.546,0.59-0.923,1.138-0.839
			c0.546,0.083,0.922,0.592,0.839,1.138C29.527,41.444,24.542,43.125,17.5,43.125z"/>
		<path d="M17.578,22.031c-2.471,0-14.795-0.2-14.795-4.143c0-0.546,0.442-0.99,0.989-0.99c0.532,0,0.966,0.42,0.988,0.946
			c0.404,0.758,4.64,2.208,12.817,2.208c7.739,0,12.354-1.425,12.762-2.223c0-0.546,0.436-0.946,0.981-0.946
			c0.547,0,0.981,0.487,0.981,1.033C32.303,21.916,19.085,22.031,17.578,22.031z"/>
	</g>
	<g>
		<path d="M17.469,7.833c-5.954,0-16.031-0.825-16.031-3.917S11.515,0,17.469,0S33.5,0.825,33.5,3.917S23.423,7.833,17.469,7.833z
			 M17.469,1.5C8.407,1.5,3.191,3.083,2.936,3.933c0.256,0.817,5.472,2.4,14.533,2.4S31.746,4.75,32.002,3.9
			C31.746,3.083,26.53,1.5,17.469,1.5z"/>
		<path d="M6.342,6.816c-0.414,0-0.748-0.351-0.748-0.765c0-3.063,9.909-3.219,11.896-3.219c2.798,0,11.927,0.23,11.927,3.188
			c0,0.414-0.336,0.75-0.75,0.75c-0.407,0-0.738-0.324-0.75-0.729c-0.277-0.584-3.684-1.709-10.427-1.709
			c-6.771,0-10.163,1.158-10.4,1.749C7.089,6.496,6.756,6.816,6.342,6.816z"/>
		<path d="M17.406,15.583C9.522,15.583,0,13.877,0,11.76V8.979c0-0.414,0.336-0.75,0.75-0.75S1.5,8.565,1.5,8.979v2.573
			c0.986,0.729,7.293,2.531,15.906,2.531c8.698,0,15.084-1.804,16.094-2.536V8.979c0-0.414,0.336-0.75,0.75-0.75S35,8.565,35,8.979
			v2.781C35,13.978,24.491,15.583,17.406,15.583z"/>
		<path d="M17.5,12.833c-6.733,0-16.75-1.083-16.75-4.069c0-0.035,0.003-0.07,0.008-0.105l0.688-4.847
			c0.058-0.41,0.432-0.695,0.848-0.637c0.41,0.058,0.695,0.438,0.637,0.848L2.256,8.777C2.642,9.63,8.321,11.333,17.5,11.333
			c9.124,0,14.79-1.683,15.241-2.575L32.07,4.022c-0.059-0.41,0.227-0.79,0.637-0.848c0.413-0.059,0.79,0.227,0.848,0.637
			l0.688,4.847c0.005,0.035,0.008,0.07,0.008,0.105C34.25,11.75,24.233,12.833,17.5,12.833z"/>
	</g>
	<path d="M14.065,40.312c-0.132,0-0.265-0.035-0.385-0.106c-0.308-0.184-0.442-0.559-0.321-0.896l2.307-6.453h-3.501
		c-0.305,0-0.579-0.185-0.694-0.467c-0.115-0.282-0.048-0.606,0.17-0.819l8.821-8.617c0.253-0.247,0.644-0.284,0.939-0.088
		c0.294,0.195,0.412,0.57,0.283,0.899l-2.128,5.413h3.194c0.296,0,0.564,0.174,0.686,0.445c0.12,0.271,0.07,0.587-0.129,0.807
		l-8.686,9.635C14.476,40.227,14.271,40.312,14.065,40.312z M14.006,31.357h2.725c0.244,0,0.473,0.119,0.613,0.318
		c0.141,0.2,0.175,0.455,0.093,0.685l-1.388,3.882l5.017-5.564h-2.609c-0.248,0-0.48-0.123-0.62-0.328s-0.169-0.466-0.078-0.697
		l1.251-3.183L14.006,31.357z"/>
</g>
<g>
</g>
<g>
</g>
<g>
</g>
<g>
</g>
<g>
</g>
<g>
</g>
<g>
</g>
<g>
</g>
<g>
</g>
<g>
</g>
<g>
</g>
<g>
</g>
<g>
</g>
<g>
</g>
<g>
</g>
</svg>
