<?xml version="1.0" encoding="iso-8859-1"?>
<!-- Generator: Adobe Illustrator 16.0.4, SVG Export Plug-In . SVG Version: 6.00 Build 0)  -->
<!DOCTYPE svg PUBLIC "-//W3C//DTD SVG 1.1//EN" "http://www.w3.org/Graphics/SVG/1.1/DTD/svg11.dtd">
<svg version="1.1" id="Capa_1" xmlns="http://www.w3.org/2000/svg" xmlns:xlink="http://www.w3.org/1999/xlink" x="0px" y="0px"
	 width="48.014px" height="43.485px" viewBox="0 0 48.014 43.485" style="enable-background:new 0 0 48.014 43.485;"
	 xml:space="preserve">
<g id="Darth_Vader">
	<g>
		<path d="M21.633,15.541c-0.552,0-1-0.448-1-1V3.574c0-0.552,0.448-1,1-1s1,0.448,1,1v10.967
			C22.633,15.093,22.185,15.541,21.633,15.541z"/>
		<path d="M26.597,15.498c-0.552,0-1-0.448-1-1V3.567c0-0.552,0.448-1,1-1s1,0.448,1,1v10.931
			C27.597,15.05,27.149,15.498,26.597,15.498z"/>
		<path d="M26.597,4.472c-0.552,0-1-0.448-1-1C25.597,2.661,24.935,2,24.122,2c-0.812,0-1.473,0.661-1.473,1.472
			c0,0.552-0.448,1-1,1s-1-0.448-1-1C20.649,1.558,22.207,0,24.122,0c1.916,0,3.475,1.558,3.475,3.472
			C27.597,4.024,27.149,4.472,26.597,4.472z"/>
	</g>
	<path d="M38.212,16.845c-0.033,0-0.067-0.001-0.102-0.005c-0.549-0.056-0.95-0.546-0.895-1.096c0.025-0.246,0.038-0.49,0.038-0.729
		c0-5.735-4.927-10.974-11.216-11.926c-0.546-0.083-0.921-0.592-0.839-1.139s0.595-0.925,1.139-0.839
		c7.243,1.097,12.917,7.205,12.917,13.904c0,0.306-0.016,0.616-0.048,0.931C39.154,16.46,38.719,16.845,38.212,16.845z"/>
	<path d="M41.623,39.819c-0.157,0-0.313-0.037-0.458-0.111c-0.315-0.163-0.521-0.479-0.541-0.833
		c-0.004-0.083-0.494-8.385-2.744-14.593c-1.168-3.222-3.434-5.19-5.165-5.958c-1.046-0.464-2.032-0.573-2.702-0.298
		c-5.249,2.148-7.866,1.181-9.778,0.475c-0.49-0.181-0.914-0.337-1.324-0.421c-2.359-0.482-5.862,0.681-7.988,4.378
		C7.513,28.388,7.349,38.231,7.348,38.33c-0.004,0.355-0.197,0.682-0.506,0.857c-0.31,0.175-0.689,0.174-0.996-0.005l-5.348-3.105
		c-0.378-0.22-0.57-0.659-0.473-1.086C3.284,20.606,7.299,16.65,9.039,15.58c-0.012-0.191-0.018-0.379-0.018-0.565
		c0-6.663,5.642-12.765,12.843-13.892c0.549-0.085,1.057,0.287,1.143,0.833s-0.288,1.057-0.833,1.143
		C15.92,4.078,11.021,9.312,11.021,15.015c0,0.329,0.024,0.674,0.071,1.025c0.068,0.505-0.254,0.979-0.748,1.104
		c-0.008,0.005-4.485,1.684-8.205,17.574l3.279,1.904c0.2-3.204,0.954-10.264,3.771-15.162c2.282-3.967,6.353-6.115,10.123-5.34
		c0.559,0.114,1.072,0.304,1.615,0.504c1.781,0.658,3.798,1.403,8.328-0.451c1.189-0.486,2.706-0.371,4.27,0.322
		c2.73,1.211,5.061,3.867,6.234,7.105c1.75,4.827,2.469,10.667,2.73,13.488l3.39-2.143c-3.727-15.979-8.021-17.986-8.064-18.005
		c-0.494-0.211-0.75-0.783-0.558-1.285c0.193-0.502,0.728-0.769,1.238-0.596c0.547,0.186,5.461,2.333,9.493,20.131
		c0.094,0.413-0.083,0.84-0.441,1.066l-5.391,3.407C41.995,39.768,41.809,39.819,41.623,39.819z"/>
	<path d="M24.029,43.485c-3.54,0-11.476-2.069-11.812-2.158c-0.258-0.067-0.478-0.235-0.611-0.465
		c-0.134-0.23-0.17-0.504-0.101-0.762l0.963-3.583l-2.482-2.264c-0.193-0.176-0.31-0.42-0.325-0.681l-0.246-4.261
		c-1.297-2.515-0.862-6.408-0.842-6.577c0.064-0.548,0.562-0.937,1.108-0.877c0.548,0.064,0.941,0.56,0.878,1.108
		c-0.116,1.006-0.215,3.967,0.707,5.565c0.078,0.135,0.123,0.286,0.132,0.442l0.235,4.078l2.63,2.399
		c0.276,0.252,0.389,0.637,0.292,0.999L13.7,39.64c2.237,0.553,7.737,1.846,10.33,1.846c2.963,0,8.558-1.063,10.804-1.724
		l-0.967-3.593c-0.098-0.364,0.018-0.752,0.298-1.004l2.247-2.015l0.779-4.214c0.029-0.156,0.094-0.303,0.191-0.429
		c0.045-0.062,1.268-1.79,0.186-4.888c-0.182-0.521,0.093-1.092,0.615-1.274c0.519-0.183,1.092,0.093,1.274,0.615
		c1.224,3.505,0.102,5.824-0.335,6.538l-0.804,4.351c-0.04,0.217-0.151,0.416-0.316,0.563l-2.043,1.832l1.047,3.891
		c0.125,0.468-0.102,0.958-0.54,1.165C34.889,42.04,27.612,43.485,24.029,43.485z"/>
	<g>
		<path d="M15.739,22.69c-0.257,0-0.507-0.132-0.646-0.369l-0.691-1.173c-0.21-0.357-0.092-0.817,0.265-1.027
			c0.358-0.21,0.818-0.091,1.027,0.265l0.691,1.173c0.21,0.357,0.092,0.817-0.265,1.027C16,22.657,15.868,22.69,15.739,22.69z"/>
		<path d="M17.859,22.104c-0.411,0-0.746-0.331-0.75-0.742l-0.014-1.354c-0.004-0.415,0.328-0.753,0.742-0.758
			c0.003,0,0.005,0,0.008,0c0.411,0,0.746,0.331,0.75,0.742l0.014,1.354c0.004,0.415-0.328,0.753-0.742,0.758
			C17.864,22.104,17.862,22.104,17.859,22.104z"/>
		<path d="M20.025,22.683c-0.125,0-0.251-0.031-0.368-0.097c-0.361-0.203-0.489-0.661-0.285-1.021l0.667-1.184
			c0.204-0.361,0.663-0.488,1.021-0.285c0.361,0.203,0.489,0.661,0.285,1.021l-0.667,1.184
			C20.541,22.545,20.287,22.683,20.025,22.683z"/>
	</g>
	<g>
		<path d="M28.008,22.69c-0.257,0-0.507-0.132-0.647-0.37l-0.689-1.173c-0.21-0.357-0.091-0.817,0.267-1.026
			c0.356-0.209,0.816-0.091,1.026,0.267l0.689,1.173c0.21,0.357,0.091,0.817-0.267,1.026C28.269,22.657,28.138,22.69,28.008,22.69z"
			/>
		<path d="M30.129,22.104c-0.411,0-0.746-0.331-0.75-0.742l-0.014-1.354c-0.004-0.415,0.328-0.753,0.742-0.758
			c0.003,0,0.005,0,0.008,0c0.411,0,0.746,0.331,0.75,0.742l0.014,1.354c0.004,0.415-0.328,0.753-0.742,0.758
			C30.134,22.104,30.131,22.104,30.129,22.104z"/>
		<path d="M32.293,22.683c-0.125,0-0.252-0.031-0.369-0.097c-0.36-0.204-0.488-0.661-0.284-1.022l0.669-1.184
			c0.203-0.361,0.661-0.489,1.022-0.284c0.36,0.204,0.488,0.661,0.284,1.022l-0.669,1.184
			C32.809,22.545,32.555,22.683,32.293,22.683z"/>
	</g>
	<path d="M17.937,27.994c-1.853,0-3.36-1.508-3.36-3.363c0-1.853,1.507-3.36,3.36-3.36c1.854,0,3.362,1.507,3.362,3.36
		C21.299,26.486,19.791,27.994,17.937,27.994z M17.937,22.771c-1.026,0-1.86,0.834-1.86,1.86c0,1.027,0.834,1.863,1.86,1.863
		c1.027,0,1.862-0.835,1.862-1.863C19.799,23.605,18.963,22.771,17.937,22.771z"/>
	<path d="M30.127,27.994c-1.854,0-3.361-1.508-3.361-3.363c0-1.853,1.508-3.36,3.361-3.36c1.854,0,3.362,1.507,3.362,3.36
		C33.489,26.486,31.981,27.994,30.127,27.994z M30.127,22.771c-1.026,0-1.861,0.834-1.861,1.86c0,1.027,0.835,1.863,1.861,1.863
		c1.027,0,1.862-0.835,1.862-1.863C31.989,23.605,31.154,22.771,30.127,22.771z"/>
	<path d="M31.455,38.328H16.62c-0.201,0-0.382-0.121-0.46-0.306s-0.038-0.399,0.102-0.543l7.417-7.618
		c0.188-0.193,0.528-0.193,0.717,0l7.418,7.618c0.14,0.144,0.18,0.358,0.102,0.543S31.656,38.328,31.455,38.328z M17.805,37.328
		h12.466l-6.233-6.401L17.805,37.328z"/>
	<g>
		<path d="M28.092,38.078c-0.138,0-0.25-0.112-0.25-0.25v-3.247c0-0.138,0.112-0.25,0.25-0.25s0.25,0.112,0.25,0.25v3.247
			C28.342,37.966,28.23,38.078,28.092,38.078z"/>
		<path d="M24.037,38.078c-0.138,0-0.25-0.112-0.25-0.25V30.21c0-0.138,0.112-0.25,0.25-0.25s0.25,0.112,0.25,0.25v7.618
			C24.287,37.966,24.175,38.078,24.037,38.078z"/>
		<path d="M21.924,38.078c-0.138,0-0.25-0.112-0.25-0.25v-5.289c0-0.138,0.112-0.25,0.25-0.25s0.25,0.112,0.25,0.25v5.289
			C22.174,37.966,22.062,38.078,21.924,38.078z"/>
		<path d="M19.984,38.078c-0.138,0-0.25-0.112-0.25-0.25v-3.305c0-0.138,0.112-0.25,0.25-0.25s0.25,0.112,0.25,0.25v3.305
			C20.234,37.966,20.123,38.078,19.984,38.078z"/>
		<path d="M26.021,38.078c-0.138,0-0.25-0.112-0.25-0.25V32.48c0-0.138,0.112-0.25,0.25-0.25s0.25,0.112,0.25,0.25v5.348
			C26.271,37.966,26.16,38.078,26.021,38.078z"/>
	</g>
	<path d="M24.064,42.812c-0.086,0-0.172-0.022-0.25-0.066l-7.389-4.254c-0.196-0.113-0.292-0.344-0.233-0.562
		c0.059-0.218,0.256-0.371,0.483-0.371h14.777c0.227,0,0.424,0.152,0.483,0.371c0.059,0.219-0.037,0.45-0.233,0.562l-7.389,4.254
		C24.237,42.791,24.15,42.812,24.064,42.812z M18.546,38.559l5.519,3.177l5.52-3.177H18.546z"/>
	<path d="M6.691,37.154c-0.349,0-0.661-0.244-0.734-0.599c-0.083-0.406,0.178-0.802,0.584-0.886l5.808-1.192
		c0.402-0.084,0.802,0.178,0.886,0.584c0.083,0.406-0.178,0.802-0.584,0.886l-5.808,1.192C6.792,37.149,6.742,37.154,6.691,37.154z"
		/>
	<path d="M41.468,37.228c-0.05,0-0.101-0.005-0.151-0.015l-5.838-1.195c-0.406-0.083-0.667-0.479-0.584-0.885
		c0.083-0.406,0.48-0.666,0.885-0.584l5.838,1.195c0.406,0.083,0.667,0.479,0.584,0.885C42.129,36.983,41.816,37.228,41.468,37.228z
		"/>
	<path d="M15.078,39.143c-0.772,0-1.4-0.629-1.4-1.402c0-0.771,0.628-1.399,1.4-1.399c0.771,0,1.399,0.627,1.399,1.399
		C16.478,38.514,15.85,39.143,15.078,39.143z M15.078,36.842c-0.497,0-0.9,0.403-0.9,0.899c0,0.497,0.404,0.902,0.9,0.902
		c0.496,0,0.899-0.405,0.899-0.902C15.978,37.246,15.574,36.842,15.078,36.842z"/>
	<path d="M33.073,39.143c-0.772,0-1.4-0.629-1.4-1.402c0-0.771,0.628-1.399,1.4-1.399c0.771,0,1.399,0.627,1.399,1.399
		C34.473,38.514,33.845,39.143,33.073,39.143z M33.073,36.842c-0.497,0-0.9,0.403-0.9,0.899c0,0.497,0.404,0.902,0.9,0.902
		c0.496,0,0.899-0.405,0.899-0.902C33.973,37.246,33.569,36.842,33.073,36.842z"/>
	<path d="M24.024,30.173c-0.772,0-1.4-0.629-1.4-1.402c0-0.771,0.628-1.399,1.4-1.399s1.4,0.628,1.4,1.399
		C25.425,29.544,24.796,30.173,24.024,30.173z M24.024,27.872c-0.497,0-0.9,0.403-0.9,0.899c0,0.497,0.404,0.902,0.9,0.902
		s0.9-0.405,0.9-0.902C24.925,28.275,24.521,27.872,24.024,27.872z"/>
	<path d="M20.225,34.619c-0.113,0-0.215-0.077-0.243-0.191c-1.389-5.775-9.477-5.154-9.559-5.148
		c-0.147,0.007-0.258-0.09-0.271-0.228c-0.012-0.138,0.09-0.259,0.228-0.271c0.086-0.008,2.16-0.176,4.448,0.405
		c3.071,0.78,5.021,2.552,5.64,5.124c0.032,0.134-0.05,0.27-0.185,0.302C20.264,34.616,20.244,34.619,20.225,34.619z"/>
	<path d="M28.35,34.619c-0.019,0-0.039-0.002-0.059-0.007c-0.134-0.032-0.217-0.167-0.185-0.302c0.619-2.572,2.57-4.344,5.641-5.124
		c2.288-0.581,4.362-0.412,4.448-0.405c0.137,0.012,0.239,0.133,0.228,0.271c-0.012,0.137-0.119,0.236-0.271,0.228
		c-0.08-0.004-8.169-0.628-9.56,5.148C28.565,34.542,28.463,34.619,28.35,34.619z"/>
</g>
<g>
</g>
<g>
</g>
<g>
</g>
<g>
</g>
<g>
</g>
<g>
</g>
<g>
</g>
<g>
</g>
<g>
</g>
<g>
</g>
<g>
</g>
<g>
</g>
<g>
</g>
<g>
</g>
<g>
</g>
</svg>
