<?xml version="1.0" encoding="iso-8859-1"?>
<!-- Generator: Adobe Illustrator 16.0.4, SVG Export Plug-In . SVG Version: 6.00 Build 0)  -->
<!DOCTYPE svg PUBLIC "-//W3C//DTD SVG 1.1//EN" "http://www.w3.org/Graphics/SVG/1.1/DTD/svg11.dtd">
<svg version="1.1" id="Capa_1" xmlns="http://www.w3.org/2000/svg" xmlns:xlink="http://www.w3.org/1999/xlink" x="0px" y="0px"
	 width="47.854px" height="47.852px" viewBox="0 0 47.854 47.852" style="enable-background:new 0 0 47.854 47.852;"
	 xml:space="preserve">
<g id="Dashboard">
	<path d="M23.939,47.852h-0.016C10.736,47.852,0.004,37.12,0,23.929C0.004,10.734,10.738,0,23.929,0
		c6.393,0,12.401,2.488,16.92,7.008c4.52,4.519,7.007,10.525,7.005,16.915c0.003,6.39-2.482,12.398-6.999,16.919
		C36.337,45.362,30.33,47.852,23.939,47.852z M23.929,2C11.841,2,2.004,11.837,2,23.929c0.004,12.088,9.839,21.923,21.925,21.923
		h0.015c5.855,0,11.36-2.281,15.5-6.424c4.139-4.143,6.417-9.648,6.414-15.505c0.002-5.855-2.277-11.36-6.419-15.501
		C35.294,4.28,29.787,2,23.929,2z"/>
	<path d="M23.915,43.283h-0.004c-5.173-0.001-10.035-2.016-13.691-5.672s-5.669-8.518-5.668-13.688
		C4.55,13.252,13.233,4.567,23.909,4.564c0,0,0.001,0,0.002,0c5.17,0,10.031,2.014,13.688,5.671
		c3.658,3.657,5.672,8.519,5.671,13.688c0.001,5.169-2.013,10.03-5.669,13.688C33.945,41.269,29.084,43.283,23.915,43.283z
		 M23.911,6.564c-0.001,0-0.001,0-0.002,0C14.337,6.567,6.55,14.354,6.552,23.923c-0.001,4.637,1.804,8.996,5.082,12.274
		c3.278,3.279,7.639,5.085,12.277,5.086l0.004,1v-1c4.635,0,8.993-1.807,12.272-5.086c3.278-3.28,5.084-7.639,5.083-12.274
		c0.001-4.635-1.805-8.994-5.085-12.273C32.906,8.37,28.547,6.564,23.911,6.564z"/>
	<g>
		<path d="M24.062,12.346c-0.276,0-0.5-0.224-0.5-0.5V9.557c0-0.276,0.224-0.5,0.5-0.5s0.5,0.224,0.5,0.5v2.289
			C24.562,12.122,24.339,12.346,24.062,12.346z"/>
		<path d="M27.222,12.768c-0.043,0-0.086-0.006-0.13-0.018c-0.267-0.071-0.425-0.346-0.353-0.612l0.594-2.211
			c0.071-0.266,0.345-0.424,0.612-0.353c0.267,0.071,0.425,0.346,0.353,0.612l-0.594,2.211
			C27.645,12.62,27.442,12.768,27.222,12.768z"/>
		<path d="M30.164,13.993c-0.085,0-0.171-0.021-0.25-0.067c-0.239-0.138-0.321-0.443-0.183-0.683l1.145-1.981
			c0.138-0.239,0.444-0.32,0.683-0.183c0.239,0.138,0.321,0.443,0.183,0.683l-1.145,1.981
			C30.505,13.903,30.336,13.993,30.164,13.993z"/>
		<path d="M32.689,15.938c-0.128,0-0.256-0.049-0.354-0.146c-0.195-0.195-0.195-0.512,0-0.707l1.618-1.618
			c0.195-0.195,0.512-0.195,0.707,0s0.195,0.512,0,0.707l-1.618,1.618C32.945,15.89,32.817,15.938,32.689,15.938z"/>
		<path d="M34.625,18.471c-0.172,0-0.341-0.09-0.433-0.25c-0.139-0.239-0.057-0.545,0.183-0.683l1.982-1.145
			c0.238-0.14,0.545-0.057,0.683,0.183c0.139,0.239,0.057,0.545-0.183,0.683l-1.982,1.145C34.796,18.449,34.71,18.471,34.625,18.471
			z"/>
		<path d="M35.84,21.418c-0.221,0-0.423-0.147-0.483-0.371c-0.071-0.267,0.087-0.54,0.354-0.612l2.21-0.592
			c0.27-0.065,0.54,0.089,0.612,0.354c0.071,0.267-0.087,0.54-0.354,0.612l-2.21,0.592C35.926,21.412,35.883,21.418,35.84,21.418z"
			/>
		<path d="M36.249,24.58c-0.276,0-0.5-0.224-0.5-0.5c0-0.275,0.224-0.5,0.5-0.5l2.288-0.002l0,0c0.276,0,0.5,0.224,0.5,0.5
			c0,0.275-0.224,0.5-0.5,0.5L36.249,24.58L36.249,24.58z"/>
		<path d="M20.886,12.758c-0.221,0-0.423-0.147-0.483-0.37l-0.593-2.211c-0.071-0.268,0.087-0.541,0.354-0.613
			c0.27-0.064,0.541,0.087,0.613,0.354l0.593,2.211c0.071,0.268-0.087,0.541-0.354,0.613C20.972,12.752,20.929,12.758,20.886,12.758
			z"/>
		<path d="M17.924,13.979c-0.172,0-0.341-0.09-0.433-0.25l-1.145-1.982c-0.139-0.239-0.057-0.545,0.183-0.683
			c0.238-0.14,0.545-0.057,0.683,0.183l1.145,1.982c0.139,0.239,0.057,0.545-0.183,0.683C18.095,13.957,18.009,13.979,17.924,13.979
			z"/>
		<path d="M15.379,15.924c-0.128,0-0.256-0.049-0.354-0.146l-1.618-1.617c-0.195-0.195-0.195-0.512,0-0.707s0.512-0.195,0.707,0
			l1.618,1.617c0.195,0.195,0.195,0.512,0,0.707C15.635,15.875,15.507,15.924,15.379,15.924z"/>
		<path d="M13.424,18.463c-0.085,0-0.171-0.021-0.25-0.067l-1.981-1.145c-0.239-0.138-0.321-0.443-0.183-0.683
			c0.138-0.239,0.444-0.32,0.683-0.183l1.981,1.145c0.239,0.138,0.321,0.443,0.183,0.683C13.765,18.373,13.596,18.463,13.424,18.463
			z"/>
		<path d="M12.193,21.42c-0.043,0-0.086-0.006-0.129-0.017l-2.211-0.592c-0.268-0.072-0.426-0.346-0.354-0.612
			c0.072-0.267,0.352-0.419,0.612-0.354l2.211,0.592c0.268,0.072,0.426,0.346,0.354,0.612C12.616,21.272,12.414,21.42,12.193,21.42z
			"/>
		<path d="M11.771,24.596H9.481c-0.276,0-0.5-0.224-0.5-0.5s0.224-0.5,0.5-0.5h2.289c0.276,0,0.5,0.224,0.5,0.5
			S12.047,24.596,11.771,24.596z"/>
	</g>
	<path d="M7.845,33.551c-0.228,0-0.456-0.077-0.645-0.236c-0.422-0.355-0.475-0.986-0.118-1.409
		c4.216-4.994,10.378-7.858,16.904-7.858c0.003,0,0.005,0,0.007,0c6.529,0,12.692,2.864,16.909,7.857
		c0.356,0.422,0.304,1.054-0.118,1.409c-0.425,0.359-1.055,0.304-1.409-0.118c-3.836-4.543-9.442-7.148-15.382-7.148
		c-0.002,0-0.004,0-0.006,0c-5.938,0-11.541,2.605-15.378,7.149C8.412,33.43,8.13,33.551,7.845,33.551z"/>
	<g>
		<path d="M24.199,35.326c-1.85,0-3.354-1.504-3.354-3.353s1.504-3.353,3.354-3.353c1.848,0,3.352,1.504,3.352,3.353
			S26.047,35.326,24.199,35.326z M24.199,30.621c-0.746,0-1.354,0.606-1.354,1.353s0.607,1.353,1.354,1.353
			c0.745,0,1.352-0.606,1.352-1.353S24.944,30.621,24.199,30.621z"/>
		<path d="M24.199,30.582c-0.553,0-1-0.447-1-1V15.723c0-0.553,0.447-1,1-1s1,0.447,1,1v13.859
			C25.199,30.135,24.752,30.582,24.199,30.582z"/>
		<path d="M24.199,39.863c-0.553,0-1-0.447-1-1v-4.537c0-0.553,0.447-1,1-1s1,0.447,1,1v4.537
			C25.199,39.416,24.752,39.863,24.199,39.863z"/>
	</g>
</g>
<g>
</g>
<g>
</g>
<g>
</g>
<g>
</g>
<g>
</g>
<g>
</g>
<g>
</g>
<g>
</g>
<g>
</g>
<g>
</g>
<g>
</g>
<g>
</g>
<g>
</g>
<g>
</g>
<g>
</g>
</svg>
