<?xml version="1.0" encoding="iso-8859-1"?>
<!-- Generator: Adobe Illustrator 16.0.4, SVG Export Plug-In . SVG Version: 6.00 Build 0)  -->
<!DOCTYPE svg PUBLIC "-//W3C//DTD SVG 1.1//EN" "http://www.w3.org/Graphics/SVG/1.1/DTD/svg11.dtd">
<svg version="1.1" id="Capa_1" xmlns="http://www.w3.org/2000/svg" xmlns:xlink="http://www.w3.org/1999/xlink" x="0px" y="0px"
	 width="43.027px" height="45px" viewBox="0 0 43.027 45" style="enable-background:new 0 0 43.027 45;" xml:space="preserve">
<g id="Decrease_Volume">
	<path d="M39.862,26.219c-0.263,0-0.52-0.14-0.655-0.386c-0.201-0.362-0.07-0.818,0.292-1.021c1.251-0.695,2.029-2.016,2.03-3.446
		c-0.001-1.424-0.773-2.74-2.018-3.437c-0.361-0.202-0.491-0.659-0.289-1.021c0.203-0.359,0.66-0.489,1.021-0.288
		c1.716,0.959,2.782,2.778,2.784,4.745c-0.002,1.977-1.075,3.799-2.803,4.758C40.11,26.189,39.985,26.219,39.862,26.219z"/>
	<path d="M31.007,34.419c-3.896,0-5.995-6.967-5.995-13.521c0-6.554,2.101-13.517,5.995-13.517c3.896,0,5.997,6.965,5.997,13.519
		C37.004,27.454,34.902,34.419,31.007,34.419z M31.007,9.381c-1.668,0-3.995,4.382-3.995,11.519s2.327,11.521,3.995,11.521
		c1.669,0,3.997-4.384,3.997-11.521S32.676,9.381,31.007,9.381z"/>
	<path d="M31.014,34.419C29.339,34.42,2.629,26.463,2.38,26.382C1.044,25.943,0,23.517,0,20.858c0-2.464,0.845-5.159,2.456-5.544
		c0.187-0.046,1.736-0.505,3.699-1.085C26.321,8.264,30.407,7.235,31.196,7.4c0.542,0.104,0.896,0.629,0.792,1.171
		c-0.098,0.509-0.56,0.855-1.069,0.808C29.253,9.483,12.9,14.32,6.724,16.149c-2.561,0.756-3.606,1.064-3.806,1.112
		C2.692,17.411,2,18.699,2,20.858c0,2.059,0.767,3.447,1.07,3.654c1.42,0.451,26.325,7.771,27.963,7.908
		c0.53,0.044,0.963,0.499,0.944,1.031c-0.019,0.533-0.423,0.959-0.956,0.968C31.019,34.419,31.017,34.419,31.014,34.419z"/>
	<path d="M12.682,37.619c-0.788,0-1.583-0.123-2.362-0.373c-4.188-1.342-6.659-5.965-5.512-10.304
		c0.142-0.533,0.688-0.853,1.222-0.711c0.534,0.143,0.854,0.688,0.712,1.223c-0.881,3.328,1,6.865,4.188,7.889
		c1.489,0.478,3.054,0.333,4.4-0.405c1.403-0.771,2.413-2.088,2.839-3.709c0.141-0.535,0.686-0.854,1.223-0.714
		c0.533,0.142,0.854,0.688,0.713,1.222c-0.567,2.158-1.921,3.918-3.812,4.955C15.168,37.307,13.934,37.619,12.682,37.619z"/>
	<path d="M12.708,34.271c-0.488,0-0.981-0.076-1.467-0.229c-2.604-0.833-4.143-3.709-3.428-6.41c0.07-0.268,0.346-0.428,0.61-0.355
		c0.268,0.07,0.427,0.345,0.354,0.611c-0.58,2.195,0.66,4.528,2.767,5.201c0.989,0.317,2.024,0.224,2.918-0.271
		c0.931-0.51,1.599-1.381,1.88-2.453c0.071-0.269,0.347-0.43,0.611-0.355c0.268,0.068,0.426,0.344,0.355,0.609
		c-0.354,1.343-1.192,2.436-2.366,3.076C14.248,34.078,13.483,34.271,12.708,34.271z"/>
	<path d="M8.62,28.181c-0.104,0-0.208-0.017-0.312-0.05C6.633,27.588,5.27,24.325,5.27,20.86c0-3.739,1.34-6.874,3.118-7.292
		c0.536-0.125,1.074,0.208,1.201,0.746c0.126,0.536-0.206,1.073-0.741,1.201C8.412,15.662,7.27,17.527,7.27,20.86
		c0,3.146,1.213,5.146,1.675,5.376c0.525,0.17,0.804,0.73,0.634,1.256C9.44,27.914,9.043,28.181,8.62,28.181z"/>
	<g>
		<path d="M31.382,24.424c-1.043,0-1.589-1.522-1.589-3.027c0-1.504,0.546-3.026,1.589-3.026c1.044,0,1.592,1.522,1.592,3.026
			C32.973,22.902,32.426,24.424,31.382,24.424z M31.379,19.37c-0.171,0.04-0.586,0.777-0.586,2.026c0,1.239,0.41,1.978,0.589,2.026
			c0.18-0.047,0.591-0.782,0.591-2.026C31.973,20.069,31.522,19.401,31.379,19.37z"/>
		<path d="M31.412,19.335c-0.067,0-0.138-0.015-0.204-0.044l-5.063-2.268c-0.252-0.112-0.365-0.408-0.252-0.66
			c0.112-0.251,0.406-0.368,0.661-0.252l5.063,2.268c0.252,0.111,0.364,0.407,0.252,0.66C31.785,19.225,31.603,19.335,31.412,19.335
			z"/>
		<path d="M26.348,26.727c-0.19,0-0.374-0.11-0.457-0.296c-0.113-0.252,0-0.548,0.252-0.66l5.063-2.267
			c0.253-0.115,0.548,0.001,0.661,0.252c0.112,0.252,0,0.548-0.252,0.66l-5.064,2.267C26.485,26.713,26.416,26.727,26.348,26.727z"
			/>
	</g>
</g>
</svg>
