<?xml version="1.0" encoding="iso-8859-1"?>
<!-- Generator: Adobe Illustrator 16.0.4, SVG Export Plug-In . SVG Version: 6.00 Build 0)  -->
<!DOCTYPE svg PUBLIC "-//W3C//DTD SVG 1.1//EN" "http://www.w3.org/Graphics/SVG/1.1/DTD/svg11.dtd">
<svg version="1.1" id="Capa_1" xmlns="http://www.w3.org/2000/svg" xmlns:xlink="http://www.w3.org/1999/xlink" x="0px" y="0px"
	 width="47.444px" height="46.954px" viewBox="0 0 47.444 46.954" style="enable-background:new 0 0 47.444 46.954;"
	 xml:space="preserve">
<g id="Diamond_Ring">
	<path d="M23.48,21.911c-0.201,0-0.393-0.081-0.534-0.224L13.069,11.67c-0.149-0.152-0.228-0.36-0.214-0.573s0.117-0.41,0.284-0.542
		l3.942-3.11c0.132-0.104,0.295-0.161,0.463-0.161L29.271,7.27c0,0,0,0,0.001,0c0.165,0,0.324,0.054,0.455,0.154l4.051,3.089
		c0.171,0.13,0.278,0.328,0.293,0.542s-0.062,0.425-0.212,0.579l-9.843,10.052C23.875,21.83,23.655,21.913,23.48,21.911z
		 M14.725,11.213l8.753,8.877l8.715-8.9l-3.174-2.42L17.806,8.783L14.725,11.213z"/>
	<path d="M33.2,11.91H13.725c-0.414,0-0.75-0.336-0.75-0.75s0.336-0.75,0.75-0.75H33.2c0.414,0,0.75,0.336,0.75,0.75
		S33.614,11.91,33.2,11.91z"/>
	<path d="M20.125,11.902c-0.119,0-0.24-0.028-0.353-0.088c-0.365-0.195-0.504-0.649-0.309-1.015l1.662-3.115
		c0.194-0.366,0.649-0.504,1.015-0.309c0.365,0.195,0.504,0.649,0.309,1.015l-1.662,3.115
		C20.652,11.758,20.393,11.902,20.125,11.902z"/>
	<path d="M26.813,11.902c-0.266,0-0.524-0.142-0.66-0.393l-1.676-3.089c-0.198-0.364-0.062-0.819,0.302-1.017
		c0.361-0.196,0.819-0.063,1.017,0.302l1.676,3.089c0.198,0.364,0.062,0.819-0.302,1.017C27.057,11.873,26.935,11.902,26.813,11.902
		z"/>
	<path d="M23.48,21.911c-0.322,0-0.609-0.206-0.711-0.512l-3.354-10.008c-0.132-0.393,0.08-0.818,0.473-0.949
		c0.393-0.133,0.818,0.08,0.949,0.473l2.641,7.88l2.624-7.878c0.13-0.393,0.555-0.608,0.948-0.475
		c0.393,0.131,0.605,0.555,0.475,0.948l-3.333,10.008C24.09,21.704,23.803,21.91,23.48,21.911L23.48,21.911z"/>
	<path d="M43.104,24.042c-0.276,0-0.5-0.224-0.5-0.5v-7.76c0-0.276,0.224-0.5,0.5-0.5s0.5,0.224,0.5,0.5v7.76
		C43.604,23.818,43.38,24.042,43.104,24.042z"/>
	<path d="M45.312,22.362c-0.128,0-0.256-0.049-0.354-0.146l-4.39-4.39c-0.195-0.195-0.195-0.512,0-0.707s0.512-0.195,0.707,0
		l4.39,4.39c0.195,0.195,0.195,0.512,0,0.707C45.568,22.313,45.44,22.362,45.312,22.362z"/>
	<path d="M40.922,22.362c-0.128,0-0.256-0.049-0.354-0.146c-0.195-0.195-0.195-0.512,0-0.707l4.39-4.39
		c0.195-0.195,0.512-0.195,0.707,0s0.195,0.512,0,0.707l-4.39,4.39C41.178,22.313,41.05,22.362,40.922,22.362z"/>
	<path d="M46.944,20.243h-7.76c-0.276,0-0.5-0.224-0.5-0.5s0.224-0.5,0.5-0.5h7.76c0.276,0,0.5,0.224,0.5,0.5
		S47.22,20.243,46.944,20.243z"/>
	<path d="M4.405,8.729c-0.268,0-0.485-0.217-0.485-0.485v-7.76C3.92,0.217,4.137,0,4.405,0S4.89,0.217,4.89,0.485v7.76
		C4.89,8.513,4.673,8.729,4.405,8.729z"/>
	<path d="M6.601,7.062c-0.124,0-0.248-0.047-0.343-0.142l-4.39-4.39c-0.189-0.189-0.189-0.496,0-0.686s0.496-0.189,0.686,0
		l4.39,4.39c0.189,0.189,0.189,0.496,0,0.686C6.849,7.015,6.725,7.062,6.601,7.062z"/>
	<path d="M2.211,7.062c-0.124,0-0.248-0.047-0.343-0.142c-0.189-0.189-0.189-0.496,0-0.686l4.39-4.39
		c0.189-0.189,0.496-0.189,0.686,0s0.189,0.496,0,0.686l-4.39,4.39C2.459,7.015,2.335,7.062,2.211,7.062z"/>
	<path d="M8.245,4.93h-7.76C0.217,4.93,0,4.713,0,4.445S0.217,3.96,0.485,3.96h7.76c0.268,0,0.485,0.217,0.485,0.485
		S8.513,4.93,8.245,4.93z"/>
	<path d="M23.401,46.954c-7.928,0-14.378-6.45-14.378-14.377c0-7.929,6.45-14.379,14.378-14.379c7.929,0,14.379,6.45,14.379,14.379
		C37.78,40.504,31.33,46.954,23.401,46.954z M23.401,20.197c-6.825,0-12.378,5.553-12.378,12.379
		c0,6.825,5.553,12.377,12.378,12.377c6.826,0,12.379-5.553,12.379-12.377C35.78,25.75,30.227,20.197,23.401,20.197z"/>
	<path d="M23.361,43.316c-5.909,0-10.717-4.807-10.717-10.716s4.808-10.717,10.717-10.717S34.078,26.69,34.078,32.6
		S29.27,43.316,23.361,43.316z M23.361,23.383c-5.082,0-9.217,4.135-9.217,9.217s4.135,9.216,9.217,9.216s9.217-4.134,9.217-9.216
		S28.443,23.383,23.361,23.383z"/>
</g>
<g>
</g>
<g>
</g>
<g>
</g>
<g>
</g>
<g>
</g>
<g>
</g>
<g>
</g>
<g>
</g>
<g>
</g>
<g>
</g>
<g>
</g>
<g>
</g>
<g>
</g>
<g>
</g>
<g>
</g>
</svg>
