<?xml version="1.0" encoding="iso-8859-1"?>
<!-- Generator: Adobe Illustrator 16.0.4, SVG Export Plug-In . SVG Version: 6.00 Build 0)  -->
<!DOCTYPE svg PUBLIC "-//W3C//DTD SVG 1.1//EN" "http://www.w3.org/Graphics/SVG/1.1/DTD/svg11.dtd">
<svg version="1.1" id="Capa_1" xmlns="http://www.w3.org/2000/svg" xmlns:xlink="http://www.w3.org/1999/xlink" x="0px" y="0px"
	 width="47.621px" height="47.621px" viewBox="0 0 47.621 47.621" style="enable-background:new 0 0 47.621 47.621;"
	 xml:space="preserve">
<g id="Donut">
	<path d="M23.823,47.621h-0.016C10.685,47.621,0.004,36.941,0,23.814C0.004,10.683,10.687,0,23.812,0
		c6.361,0,12.341,2.477,16.838,6.974c4.497,4.497,6.973,10.476,6.971,16.834c0.003,6.358-2.471,12.338-6.966,16.836
		C36.16,45.143,30.183,47.621,23.823,47.621z M23.812,2C11.789,2,2.004,11.786,2,23.814c0.004,12.023,9.787,21.806,21.809,21.806
		h0.015c5.824,0,11.3-2.269,15.418-6.39c4.116-4.12,6.383-9.597,6.38-15.422c0.002-5.825-2.266-11.301-6.385-15.42
		C35.117,4.269,29.64,2,23.812,2z"/>
	<path d="M23.842,32.942c-4.964,0-9.003-4.039-9.003-9.003s4.039-9.003,9.003-9.003s9.003,4.039,9.003,9.003
		S28.806,32.942,23.842,32.942z M23.842,16.936c-3.861,0-7.003,3.142-7.003,7.003c0,3.861,3.142,7.003,7.003,7.003
		s7.003-3.142,7.003-7.003C30.845,20.077,27.703,16.936,23.842,16.936z"/>
	<path d="M18.49,42.347L18.49,42.347c-0.75,0-1.524-0.142-2.366-0.434c-3.068-1.062-4.457-4.382-4.896-5.689
		c-2.856-1.056-4.709-2.697-5.51-4.882c-1.112-3.039,0.205-6.152,0.787-7.293l-0.051-0.131c-1.176-3.034-1.953-5.039-0.515-8.121
		c1.644-3.521,5.984-4.91,7.327-5.263c2.786-3.901,4.426-5.801,8.893-6.146c5.692-0.438,8.518,3.401,9.341,4.774
		c4.356,0.809,6.908,2.321,8.244,4.87c1.229,2.347,0.688,5.777,0.411,7.097c1.822,2.098,2.603,4.248,2.32,6.398
		c-0.396,3.015-2.787,5.043-3.733,5.738c-0.704,3.757-1.856,6.534-4.95,7.899c-0.648,0.286-1.427,0.431-2.314,0.431
		c-2.643,0-5.753-1.283-6.961-1.831c-0.259,0.161-0.506,0.318-0.746,0.469C21.905,41.414,20.43,42.347,18.49,42.347z M23.033,6.354
		c-0.233,0-0.473,0.009-0.719,0.028c-3.677,0.284-4.761,1.576-7.635,5.616c-0.145,0.204-0.363,0.347-0.608,0.399
		c-0.048,0.01-4.831,1.059-6.318,4.246c-1.078,2.309-0.562,3.639,0.566,6.552l0.22,0.566c0.111,0.29,0.082,0.615-0.079,0.879
		c-0.019,0.03-1.899,3.204-0.859,6.023c0.628,1.703,2.228,2.994,4.754,3.835c0.323,0.108,0.569,0.373,0.653,0.703
		c0.009,0.037,1.026,3.87,3.771,4.82c2.259,0.78,3.546,0.023,5.925-1.48c0.386-0.244,0.794-0.502,1.231-0.768
		c0.292-0.179,0.657-0.194,0.967-0.041c0.037,0.019,3.763,1.861,6.577,1.861c0.607,0,1.114-0.088,1.508-0.261
		c2.13-0.939,3.141-2.727,3.861-6.829c0.05-0.279,0.215-0.524,0.456-0.675c0.025-0.017,2.838-1.822,3.191-4.575
		c0.214-1.662-0.514-3.398-2.161-5.161c-0.234-0.251-0.324-0.606-0.236-0.939c0.291-1.103,0.835-4.366-0.124-6.196
		c-1.08-2.061-3.258-3.23-7.284-3.911c-0.321-0.054-0.596-0.262-0.736-0.556C29.873,10.328,27.889,6.354,23.033,6.354z"/>
	<g>
		<path d="M27.381,13.542c-0.182,0-0.363-0.066-0.506-0.2l-2.155-2.021c-0.297-0.279-0.312-0.747-0.033-1.044
			c0.279-0.299,0.747-0.312,1.045-0.034l2.155,2.021c0.297,0.279,0.312,0.747,0.033,1.044
			C27.774,13.464,27.578,13.542,27.381,13.542z"/>
		<path d="M17.415,14.598c-0.181,0-0.361-0.066-0.504-0.198c-0.298-0.278-0.314-0.746-0.036-1.044l2.016-2.162
			c0.279-0.299,0.745-0.313,1.044-0.037c0.298,0.278,0.314,0.746,0.036,1.044l-2.016,2.162
			C17.81,14.519,17.612,14.598,17.415,14.598z"/>
		<path d="M11.155,21.842c-0.062,0-0.125-0.008-0.188-0.024c-0.395-0.103-0.632-0.507-0.528-0.902l0.747-2.859
			c0.104-0.395,0.513-0.629,0.901-0.528c0.395,0.103,0.632,0.507,0.528,0.902l-0.747,2.859
			C11.782,21.622,11.482,21.842,11.155,21.842z"/>
		<path d="M12.35,31.49c-0.238,0-0.473-0.115-0.615-0.328l-1.643-2.456c-0.227-0.339-0.136-0.798,0.203-1.025
			c0.343-0.226,0.799-0.134,1.025,0.204l1.643,2.456c0.227,0.339,0.136,0.798-0.203,1.025C12.633,31.449,12.49,31.49,12.35,31.49z"
			/>
		<path d="M32.354,37.127c-0.17,0-0.34-0.058-0.479-0.176l-2.251-1.914c-0.311-0.264-0.349-0.73-0.084-1.042
			c0.264-0.312,0.732-0.348,1.041-0.084l2.251,1.914c0.311,0.264,0.349,0.73,0.084,1.042C32.771,37.039,32.563,37.127,32.354,37.127
			z"/>
		<path d="M18.092,37.823c-0.271,0-0.53-0.148-0.66-0.405c-0.185-0.364-0.038-0.809,0.325-0.993l2.637-1.334
			c0.368-0.185,0.81-0.038,0.993,0.326c0.185,0.364,0.038,0.809-0.325,0.993l-2.637,1.334
			C18.317,37.797,18.203,37.823,18.092,37.823z"/>
		<path d="M36.947,29.538c-0.245,0-0.483-0.121-0.625-0.343l-1.584-2.494c-0.219-0.344-0.116-0.801,0.228-1.02
			c0.347-0.222,0.8-0.116,1.021,0.228l1.584,2.494c0.219,0.344,0.116,0.801-0.228,1.02C37.22,29.5,37.082,29.538,36.947,29.538z"/>
		<path d="M34.738,19.854c-0.071,0-0.144-0.01-0.216-0.032c-0.39-0.119-0.609-0.532-0.491-0.922l0.861-2.826
			c0.119-0.39,0.529-0.611,0.923-0.491c0.39,0.119,0.609,0.532,0.491,0.922l-0.861,2.826C35.348,19.648,35.055,19.854,34.738,19.854
			z"/>
	</g>
</g>
<g>
</g>
<g>
</g>
<g>
</g>
<g>
</g>
<g>
</g>
<g>
</g>
<g>
</g>
<g>
</g>
<g>
</g>
<g>
</g>
<g>
</g>
<g>
</g>
<g>
</g>
<g>
</g>
<g>
</g>
</svg>
