<?xml version="1.0" encoding="iso-8859-1"?>
<!-- Generator: Adobe Illustrator 16.0.4, SVG Export Plug-In . SVG Version: 6.00 Build 0)  -->
<!DOCTYPE svg PUBLIC "-//W3C//DTD SVG 1.1//EN" "http://www.w3.org/Graphics/SVG/1.1/DTD/svg11.dtd">
<svg version="1.1" id="Capa_1" xmlns="http://www.w3.org/2000/svg" xmlns:xlink="http://www.w3.org/1999/xlink" x="0px" y="0px"
	 width="47.854px" height="47.852px" viewBox="0 0 47.854 47.852" style="enable-background:new 0 0 47.854 47.852;"
	 xml:space="preserve">
<g id="Dribble">
	<path d="M23.939,47.852c0,0-0.015,0-0.016,0C10.736,47.852,0.004,37.12,0,23.93C0.004,10.734,10.738,0,23.929,0
		c6.393,0,12.401,2.489,16.92,7.008c4.52,4.52,7.007,10.526,7.005,16.916c0.003,6.39-2.482,12.397-7,16.918
		C36.337,45.362,30.33,47.852,23.939,47.852z M23.929,2C11.841,2,2.004,11.838,2,23.93c0.004,12.088,9.839,21.922,21.925,21.922
		h0.015c5.855,0,11.36-2.281,15.5-6.424c4.139-4.142,6.417-9.647,6.414-15.504c0.002-5.855-2.277-11.36-6.419-15.502
		C35.294,4.281,29.787,2,23.929,2z"/>
	<path d="M37.158,43.617c-0.007,0-0.015,0-0.021,0c-0.553-0.013-0.99-0.47-0.979-1.021c0.112-5.093-0.806-10.428-2.727-15.855
		c-0.185-0.521,0.088-1.093,0.608-1.276c0.524-0.185,1.094,0.089,1.276,0.608c2.003,5.657,2.959,11.231,2.842,16.566
		C38.146,43.184,37.701,43.617,37.158,43.617z"/>
	<path d="M32.982,23.879c-0.386,0-0.754-0.224-0.918-0.601c-0.681-1.561-1.469-3.203-2.162-4.508
		c-0.26-0.488-0.074-1.094,0.413-1.353c0.486-0.263,1.094-0.074,1.353,0.413c0.717,1.349,1.529,3.042,2.23,4.648
		c0.221,0.506-0.011,1.095-0.518,1.316C33.251,23.853,33.115,23.879,32.982,23.879z"/>
	<path d="M28.713,15.773c-0.338,0-0.667-0.171-0.855-0.479C23.044,7.39,17.961,2.555,17.91,2.507
		c-0.402-0.379-0.421-1.012-0.042-1.413c0.381-0.402,1.011-0.422,1.413-0.042c0.215,0.202,5.321,5.053,10.285,13.201
		c0.287,0.472,0.138,1.087-0.334,1.375C29.069,15.727,28.89,15.773,28.713,15.773z"/>
	<path d="M33.28,45.762c-0.007,0-0.015,0-0.021,0c-0.553-0.013-0.99-0.47-0.979-1.021c0.121-5.499-0.936-11.219-3.14-17
		c-0.196-0.517,0.062-1.094,0.578-1.291c0.515-0.199,1.094,0.062,1.291,0.578c2.297,6.024,3.396,11.998,3.271,17.756
		C34.269,45.328,33.823,45.762,33.28,45.762z"/>
	<path d="M28.62,24.838c-0.378,0-0.74-0.215-0.909-0.581c-0.49-1.063-1.122-2.304-1.931-3.793c-0.264-0.485-0.084-1.093,0.401-1.356
		c0.488-0.263,1.092-0.083,1.356,0.401c0.829,1.528,1.48,2.808,1.989,3.91c0.231,0.501,0.013,1.096-0.489,1.327
		C28.902,24.809,28.76,24.838,28.62,24.838z"/>
	<path d="M24.536,17.352c-0.333,0-0.658-0.166-0.849-0.469c-4.695-7.497-9.696-12.354-9.746-12.403
		c-0.397-0.383-0.409-1.017-0.025-1.414c0.385-0.396,1.017-0.408,1.414-0.025c0.21,0.203,5.219,5.064,10.053,12.78
		c0.293,0.469,0.151,1.086-0.316,1.379C24.901,17.303,24.718,17.352,24.536,17.352z"/>
	<path d="M28.775,15.805c-0.382,0-0.746-0.219-0.913-0.589c-0.227-0.504-0.002-1.096,0.501-1.323c4.373-1.97,7.725-4.53,9.438-7.207
		c0.296-0.465,0.915-0.603,1.381-0.303c0.465,0.297,0.601,0.916,0.303,1.381c-1.92,3-5.578,5.824-10.3,7.953
		C29.052,15.776,28.912,15.805,28.775,15.805z"/>
	<path d="M1.271,21.096c-0.543,0-0.988-0.435-1-0.979c-0.011-0.552,0.427-1.009,0.979-1.021c0.123-0.002,12.404-0.295,22.95-3.665
		c0.528-0.175,1.089,0.122,1.257,0.647c0.169,0.526-0.122,1.089-0.647,1.257c-10.831,3.462-23.006,3.75-23.519,3.761
		C1.284,21.096,1.277,21.096,1.271,21.096z"/>
	<path d="M30.786,19.238c-0.385,0-0.75-0.222-0.916-0.596c-0.223-0.505,0.006-1.096,0.511-1.319
		c4.852-2.144,8.264-4.724,10.142-7.666c0.297-0.465,0.914-0.603,1.381-0.305c0.466,0.297,0.602,0.915,0.305,1.381
		c-2.093,3.28-5.8,6.113-11.019,8.42C31.058,19.211,30.921,19.238,30.786,19.238z"/>
	<path d="M1.146,25.303c-0.536,0-0.979-0.425-0.998-0.965c-0.02-0.552,0.412-1.015,0.964-1.034c0.135-0.005,13.63-0.52,25.113-4.381
		c0.524-0.174,1.091,0.106,1.267,0.63s-0.106,1.09-0.63,1.267c-11.766,3.955-25.542,4.478-25.68,4.482
		C1.17,25.303,1.157,25.303,1.146,25.303z"/>
	<path d="M46.068,25.055c-0.103,0-0.208-0.016-0.312-0.05c-4.041-1.323-8.399-1.714-12.607-1.136
		c-0.563,0.079-1.053-0.307-1.127-0.854c-0.076-0.547,0.307-1.052,0.854-1.127c4.503-0.621,9.175-0.203,13.504,1.216
		c0.524,0.172,0.811,0.736,0.639,1.262C46.881,24.787,46.489,25.055,46.068,25.055z"/>
	<path d="M7.952,39.904c-0.203,0-0.408-0.062-0.585-0.189c-0.447-0.324-0.548-0.949-0.225-1.396
		c0.339-0.468,8.428-11.493,21.215-15.405c0.53-0.166,1.087,0.135,1.249,0.663s-0.136,1.088-0.663,1.249
		C16.791,28.544,8.842,39.382,8.764,39.49C8.567,39.761,8.263,39.904,7.952,39.904z"/>
	<path d="M46.191,28.396c-0.105,0-0.213-0.017-0.318-0.052c-3.612-1.212-7.422-1.532-11.321-0.949
		c-0.543,0.076-1.055-0.296-1.137-0.842c-0.081-0.546,0.296-1.055,0.842-1.137c4.213-0.629,8.337-0.283,12.253,1.031
		c0.523,0.176,0.806,0.743,0.63,1.267C46.999,28.133,46.609,28.396,46.191,28.396z"/>
	<path d="M10.304,43.37c-0.2,0-0.402-0.061-0.578-0.186c-0.45-0.319-0.556-0.943-0.236-1.394c0.33-0.464,8.217-11.416,20.271-15.376
		c0.531-0.172,1.09,0.113,1.263,0.638c0.172,0.525-0.113,1.09-0.638,1.263c-11.417,3.75-19.188,14.525-19.266,14.634
		C10.925,43.224,10.616,43.37,10.304,43.37z"/>
</g>
<g>
</g>
<g>
</g>
<g>
</g>
<g>
</g>
<g>
</g>
<g>
</g>
<g>
</g>
<g>
</g>
<g>
</g>
<g>
</g>
<g>
</g>
<g>
</g>
<g>
</g>
<g>
</g>
<g>
</g>
</svg>
