<?xml version="1.0" encoding="iso-8859-1"?>
<!-- Generator: Adobe Illustrator 16.0.4, SVG Export Plug-In . SVG Version: 6.00 Build 0)  -->
<!DOCTYPE svg PUBLIC "-//W3C//DTD SVG 1.1//EN" "http://www.w3.org/Graphics/SVG/1.1/DTD/svg11.dtd">
<svg version="1.1" id="Capa_1" xmlns="http://www.w3.org/2000/svg" xmlns:xlink="http://www.w3.org/1999/xlink" x="0px" y="0px"
	 width="47.704px" height="44.958px" viewBox="0 0 47.704 44.958" style="enable-background:new 0 0 47.704 44.958;"
	 xml:space="preserve">
<g id="Facebook_Like">
	<g>
		<path d="M26.639,11.968c-0.092,0-0.185-0.013-0.277-0.039c-0.53-0.153-0.837-0.708-0.684-1.238
			c0.308-1.063,0.745-4.545,0.889-5.797c0.062-0.55,0.562-0.948,1.106-0.88c0.549,0.062,0.943,0.558,0.88,1.106
			c-0.054,0.478-0.544,4.708-0.953,6.125C27.473,11.683,27.073,11.968,26.639,11.968z"/>
		<path d="M34.414,11.7c-0.042,0-0.085-0.003-0.128-0.008c-0.548-0.07-0.935-0.571-0.865-1.119c0.004-0.026,0.331-2.626,0.162-4.897
			c-0.041-0.551,0.372-1.03,0.923-1.071c0.563-0.044,1.03,0.373,1.071,0.923c0.185,2.478-0.157,5.187-0.172,5.3
			C35.34,11.332,34.91,11.7,34.414,11.7z"/>
		<path d="M34.579,6.758c-0.529,0-0.971-0.415-0.998-0.95c-0.053-1.071-0.225-2.58-1.091-3.317
			c-0.481-0.411-1.164-0.562-2.075-0.459c-1.002,0.111-1.532,0.602-1.834,3.089c-0.066,0.549-0.559,0.938-1.113,0.873
			c-0.549-0.067-0.939-0.565-0.873-1.113c0.191-1.572,0.546-4.497,3.6-4.837c1.471-0.164,2.681,0.146,3.593,0.925
			c1.456,1.239,1.72,3.299,1.792,4.74c0.027,0.552-0.397,1.021-0.949,1.049C34.613,6.758,34.596,6.758,34.579,6.758z"/>
	</g>
	<g>
		<path style="fill:none;stroke:#000000;stroke-width:2;stroke-linecap:round;stroke-linejoin:round;stroke-miterlimit:10;" d="
			M43.384,24.29"/>
		<path d="M43.384,18.618H33.008c-0.553,0-1-0.447-1-1s0.447-1,1-1h10.376c0.553,0,1,0.447,1,1S43.937,18.618,43.384,18.618z"/>
		<path d="M43.384,25.269c-0.553,0-1-0.447-1-1s0.447-1,1-1c1.279,0,2.32-1.043,2.32-2.324c0-1.282-1.041-2.326-2.32-2.326
			c-0.553,0-1-0.447-1-1s0.447-1,1-1c2.382,0,4.32,1.94,4.32,4.326C47.704,23.329,45.766,25.269,43.384,25.269z"/>
	</g>
	<g>
		<path style="fill:none;stroke:#000000;stroke-width:2;stroke-linecap:round;stroke-linejoin:round;stroke-miterlimit:10;" d="
			M42.451,30.808"/>
		<path d="M42.451,31.786c-0.553,0-1-0.447-1-1s0.447-1,1-1c1.279,0,2.32-1.042,2.32-2.322c0-1.021-0.679-1.938-1.65-2.229
			c-0.529-0.159-0.829-0.718-0.67-1.246c0.16-0.528,0.715-0.826,1.246-0.67c1.839,0.554,3.074,2.22,3.074,4.146
			C46.771,29.848,44.833,31.786,42.451,31.786z"/>
	</g>
	<g>
		<path style="fill:none;stroke:#000000;stroke-width:2;stroke-linecap:round;stroke-linejoin:round;stroke-miterlimit:10;" d="
			M41.478,37.333"/>
		<path d="M41.478,38.31c-0.553,0-1-0.447-1-1s0.447-1,1-1c1.279,0,2.32-1.042,2.32-2.322c0-1.03-0.687-1.948-1.67-2.232
			c-0.53-0.154-0.836-0.708-0.683-1.239c0.153-0.53,0.706-0.833,1.239-0.683c1.833,0.531,3.113,2.239,3.113,4.154
			C45.798,36.371,43.859,38.31,41.478,38.31z"/>
	</g>
	<g>
		<path d="M40.491,44.856c-0.553,0-1-0.447-1-1s0.447-1,1-1c1.28,0,2.321-1.042,2.321-2.322c0-1.025-0.654-1.918-1.629-2.221
			c-0.527-0.164-0.822-0.725-0.658-1.252c0.163-0.527,0.723-0.82,1.252-0.658c1.815,0.564,3.035,2.225,3.035,4.131
			C44.812,42.918,42.874,44.856,40.491,44.856z"/>
		<path d="M30.438,44.958c-2.453,0-4.861-0.02-6.581-0.079c-2.538-0.086-4.592-2.047-6.092-3.479
			c-0.484-0.463-0.941-0.899-1.302-1.161c-0.446-0.325-0.545-0.951-0.22-1.397c0.326-0.446,0.95-0.543,1.397-0.22
			c0.468,0.341,0.972,0.822,1.506,1.332c1.337,1.276,3.001,2.866,4.778,2.927c5.113,0.173,16.436-0.002,16.55-0.003
			c0.509-0.013,1.006,0.433,1.016,0.984c0.009,0.552-0.432,1.007-0.984,1.016C40.431,44.879,35.348,44.958,30.438,44.958z"/>
	</g>
	<path d="M33.021,18.618c-0.185,0-0.37-0.051-0.537-0.157c-0.466-0.297-0.602-0.916-0.305-1.381l0,0
		c-0.001,0,0.783-1.446,1.228-6.489c0.049-0.55,0.529-0.956,1.084-0.908c0.55,0.049,0.957,0.534,0.908,1.084
		c-0.485,5.507-1.363,7.122-1.534,7.39C33.674,18.455,33.351,18.618,33.021,18.618z"/>
	<path d="M16.826,25.878c-0.553,0-1-0.447-1-1c0-0.489,0.352-0.897,0.816-0.983c1.141-0.601,7.623-7.432,9.025-13.121
		c0.133-0.536,0.678-0.866,1.21-0.731c0.536,0.132,0.864,0.674,0.731,1.21C26.09,17.419,18.698,25.878,16.826,25.878z"/>
	<path d="M13.848,44.94h-9.66C1.879,44.94,0,42.84,0,40.257V26.245c0-2.581,1.879-4.682,4.188-4.682h9.66
		c2.308,0,4.186,2.101,4.186,4.682v14.012C18.033,42.84,16.155,44.94,13.848,44.94z M4.188,23.563C2.981,23.563,2,24.767,2,26.245
		v14.012c0,1.479,0.981,2.684,2.188,2.684h9.66c1.205,0,2.186-1.204,2.186-2.684V26.245c0-1.479-0.98-2.682-2.186-2.682H4.188z"/>
	<g>
		<g>
			<path style="fill:none;stroke:#000000;stroke-width:1.5;stroke-linecap:round;stroke-linejoin:round;stroke-miterlimit:10;" d="
				M6.629,35.981"/>
			<path style="fill:none;stroke:#000000;stroke-width:1.5;stroke-linecap:round;stroke-linejoin:round;stroke-miterlimit:10;" d="
				M9.998,36.476"/>
			<path d="M7.941,40.858c-0.263,0-0.517-0.138-0.654-0.382c-1.253-2.225-1.604-3.393-1.396-4.628
				c0.191-1.133,1.386-2.236,2.785-2.037c0.645,0.095,1.216,0.435,1.606,0.96c0.39,0.523,0.552,1.168,0.457,1.813
				c-0.06,0.41-0.437,0.686-0.852,0.633c-0.41-0.061-0.693-0.441-0.633-0.852c0.037-0.249-0.025-0.497-0.176-0.699
				c-0.151-0.203-0.372-0.335-0.623-0.371c-0.489-0.079-1.015,0.379-1.087,0.803c-0.123,0.732,0.035,1.529,1.224,3.642
				c0.203,0.361,0.075,0.818-0.285,1.021C8.192,40.827,8.065,40.858,7.941,40.858z"/>
		</g>
		<g>
			<path d="M8.336,41.197c-0.093,0-0.188-0.018-0.279-0.055c-0.499-0.198-0.704-0.531-0.872-0.855
				c-0.19-0.368-0.047-0.82,0.321-1.011c0.369-0.19,0.82-0.046,1.011,0.321c0.061,0.118,0.085,0.15,0.092,0.159
				c0.385,0.153,0.574,0.586,0.421,0.971C8.912,41.021,8.633,41.197,8.336,41.197z"/>
		</g>
		<g>
			<path style="fill:none;stroke:#000000;stroke-width:1.5;stroke-linecap:round;stroke-linejoin:round;stroke-miterlimit:10;" d="
				M12.711,38.524"/>
			<path style="fill:none;stroke:#000000;stroke-width:1.5;stroke-linecap:round;stroke-linejoin:round;stroke-miterlimit:10;" d="
				M9.992,36.474"/>
			<path d="M8.853,41.239c-0.33,0-0.633-0.219-0.724-0.553c-0.109-0.399,0.127-0.812,0.526-0.921
				c2.338-0.638,3.018-1.086,3.453-1.688c0.249-0.347,0.21-1.031-0.193-1.334c-0.203-0.153-0.453-0.215-0.702-0.184
				c-0.25,0.035-0.471,0.165-0.622,0.365c-0.25,0.332-0.72,0.397-1.05,0.147c-0.331-0.249-0.397-0.72-0.147-1.05
				c0.393-0.521,0.965-0.857,1.611-0.948c0.648-0.088,1.291,0.076,1.812,0.471c1.132,0.851,1.177,2.479,0.507,3.409
				c-0.744,1.03-1.782,1.578-4.274,2.259C8.984,41.23,8.917,41.239,8.853,41.239z"/>
		</g>
		<g>
			<path d="M8.635,41.264c-0.182,0-0.378-0.034-0.597-0.128c-0.381-0.164-0.557-0.604-0.394-0.985
				c0.164-0.381,0.604-0.555,0.985-0.394c0.014,0.01,0.054,0.001,0.179-0.039c0.398-0.12,0.816,0.1,0.939,0.494
				c0.122,0.396-0.099,0.816-0.494,0.939C9.062,41.21,8.859,41.264,8.635,41.264z"/>
		</g>
	</g>
</g>
<g>
</g>
<g>
</g>
<g>
</g>
<g>
</g>
<g>
</g>
<g>
</g>
<g>
</g>
<g>
</g>
<g>
</g>
<g>
</g>
<g>
</g>
<g>
</g>
<g>
</g>
<g>
</g>
<g>
</g>
</svg>
