<?xml version="1.0" encoding="iso-8859-1"?>
<!-- Generator: Adobe Illustrator 16.0.4, SVG Export Plug-In . SVG Version: 6.00 Build 0)  -->
<!DOCTYPE svg PUBLIC "-//W3C//DTD SVG 1.1//EN" "http://www.w3.org/Graphics/SVG/1.1/DTD/svg11.dtd">
<svg version="1.1" id="Capa_1" xmlns="http://www.w3.org/2000/svg" xmlns:xlink="http://www.w3.org/1999/xlink" x="0px" y="0px"
	 width="48px" height="48px" viewBox="0 0 48 48" style="enable-background:new 0 0 48 48;" xml:space="preserve">
<g id="Facebook">
	<path d="M37.292,48H11.917C4.344,48,0,44.014,0,37.062V12.125C0,4.873,4.27,0,10.625,0h27.584C42.918,0,48,4.524,48,11.834v25.083
		C48,43.132,43.296,48,37.292,48z M10.625,2C4.259,2,2,7.454,2,12.125v24.938C2,44.449,7.393,46,11.917,46h25.375
		C42.256,46,46,42.095,46,36.917V11.834C46,5.76,41.956,2,38.209,2H10.625z"/>
	<path d="M37.135,43.326H10.938c-3.459,0-6.273-2.808-6.273-6.26V10.935c0-3.452,2.814-6.26,6.273-6.26h26.197
		c3.458,0,6.272,2.808,6.272,6.26v26.132C43.407,40.519,40.593,43.326,37.135,43.326z M10.938,6.659
		c-2.365,0-4.289,1.918-4.289,4.275v26.132c0,2.357,1.924,4.275,4.289,4.275h26.197c2.364,0,4.288-1.918,4.288-4.275V10.935
		c0-2.357-1.924-4.275-4.288-4.275H10.938z"/>
	<path d="M30.622,40h-4.867c-0.552,0-1-0.447-1-1V26.096h-3.172c-0.552,0-1-0.447-1-1v-4.868c0-0.553,0.448-1,1-1h2.996
		c-0.017-4.221-0.029-7.865,3.121-9.528c1.171-0.619,3.079-0.934,5.67-0.934c1.247,0,2.175,0.076,2.214,0.08
		c0.519,0.043,0.918,0.478,0.917,0.998l-0.012,4.824c-0.001,0.552-0.449,0.998-1,0.998h-3.216c-0.611,0-0.65,1.075-0.65,1.086v2.476
		h3.866c0.552,0,1,0.447,1,1v4.868c0,0.553-0.448,1-1,1h-3.866V39C31.622,39.553,31.174,40,30.622,40z M26.755,38h2.867V25.096
		c0-0.553,0.448-1,1-1h3.866v-2.868h-3.866c-0.552,0-1-0.447-1-1v-3.476c0-1.24,0.706-3.086,2.65-3.086h2.218l0.007-2.878
		c-0.32-0.013-0.706-0.022-1.128-0.022c-2.198,0-3.879,0.25-4.736,0.702c-1.984,1.048-2.071,3.505-2.055,7.757l0.002,1.003
		c0,0.553-0.448,1-1,1h-2.998v2.868h3.172c0.552,0,1,0.447,1,1V38z"/>
</g>
<g>
</g>
<g>
</g>
<g>
</g>
<g>
</g>
<g>
</g>
<g>
</g>
<g>
</g>
<g>
</g>
<g>
</g>
<g>
</g>
<g>
</g>
<g>
</g>
<g>
</g>
<g>
</g>
<g>
</g>
</svg>
