<?xml version="1.0" encoding="iso-8859-1"?>
<!-- Generator: Adobe Illustrator 16.0.4, SVG Export Plug-In . SVG Version: 6.00 Build 0)  -->
<!DOCTYPE svg PUBLIC "-//W3C//DTD SVG 1.1//EN" "http://www.w3.org/Graphics/SVG/1.1/DTD/svg11.dtd">
<svg version="1.1" id="Capa_1" xmlns="http://www.w3.org/2000/svg" xmlns:xlink="http://www.w3.org/1999/xlink" x="0px" y="0px"
	 width="47.854px" height="47.854px" viewBox="0 0 47.854 47.854" style="enable-background:new 0 0 47.854 47.854;"
	 xml:space="preserve">
<g id="Fast_Forward">
	<path d="M23.93,47.854h-0.015C17.524,47.853,11.517,45.363,7,40.843c-4.518-4.52-7.003-10.528-7-16.918
		c-0.002-6.39,2.485-12.397,7.005-16.916C11.523,2.489,17.533,0,23.926,0c13.19,0,23.925,10.735,23.929,23.931
		C47.851,37.122,37.118,47.854,23.93,47.854z M23.926,2C18.067,2,12.561,4.281,8.419,8.423C4.277,12.563,1.998,18.069,2,23.925
		C1.997,29.781,4.275,35.287,8.414,39.43c4.14,4.142,9.645,6.424,15.501,6.424v1l0.014-1c12.087,0,21.922-9.835,21.926-21.923
		C45.851,11.838,36.014,2,23.926,2z"/>
	<path d="M23.941,43.285h-0.004c-5.169,0-10.029-2.015-13.687-5.672c-3.656-3.658-5.67-8.52-5.669-13.688
		c-0.001-5.169,2.013-10.029,5.669-13.687c3.657-3.657,8.519-5.672,13.688-5.672c5.176,0.001,10.038,2.016,13.695,5.673
		c3.656,3.656,5.669,8.517,5.668,13.686C43.305,34.598,34.619,43.283,23.941,43.285z M23.943,6.566
		c-4.64,0-8.998,1.806-12.277,5.086c-3.279,3.279-5.085,7.638-5.084,12.272c-0.001,4.636,1.805,8.994,5.084,12.274
		c3.278,3.279,7.637,5.086,12.271,5.086v1l0.004-1c9.575-0.002,17.363-7.79,17.361-17.36c0.001-4.635-1.804-8.993-5.083-12.271
		C32.941,8.374,28.581,6.567,23.943,6.566z"/>
	<g>
		<path d="M23.028,32.939c-0.162,0-0.324-0.039-0.472-0.118c-0.325-0.174-0.528-0.513-0.528-0.882V16.118
			c0-0.369,0.203-0.707,0.527-0.882c0.325-0.174,0.72-0.154,1.026,0.05l11.881,7.908c0.279,0.185,0.446,0.497,0.446,0.832
			c0,0.334-0.167,0.646-0.445,0.832l-11.881,7.913C23.415,32.883,23.222,32.939,23.028,32.939z M24.028,17.985v12.087l9.076-6.046
			L24.028,17.985z"/>
		<path d="M15.811,32.857c-0.162,0-0.324-0.039-0.472-0.118c-0.325-0.174-0.528-0.513-0.528-0.882V16.035
			c0-0.369,0.203-0.707,0.528-0.882c0.323-0.174,0.718-0.155,1.025,0.05L23.571,20c0.46,0.307,0.585,0.927,0.279,1.387
			c-0.308,0.46-0.929,0.584-1.387,0.279l-5.653-3.764V29.99l5.661-3.767c0.46-0.305,1.08-0.179,1.386,0.282
			c0.305,0.46,0.179,1.08-0.282,1.386l-7.21,4.798C16.197,32.801,16.004,32.857,15.811,32.857z"/>
	</g>
</g>
<g>
</g>
<g>
</g>
<g>
</g>
<g>
</g>
<g>
</g>
<g>
</g>
<g>
</g>
<g>
</g>
<g>
</g>
<g>
</g>
<g>
</g>
<g>
</g>
<g>
</g>
<g>
</g>
<g>
</g>
</svg>
