<?xml version="1.0" encoding="iso-8859-1"?>
<!-- Generator: Adobe Illustrator 16.0.4, SVG Export Plug-In . SVG Version: 6.00 Build 0)  -->
<!DOCTYPE svg PUBLIC "-//W3C//DTD SVG 1.1//EN" "http://www.w3.org/Graphics/SVG/1.1/DTD/svg11.dtd">
<svg version="1.1" id="Capa_1" xmlns="http://www.w3.org/2000/svg" xmlns:xlink="http://www.w3.org/1999/xlink" x="0px" y="0px"
	 width="47.765px" height="46.843px" viewBox="0 0 47.765 46.843" style="enable-background:new 0 0 47.765 46.843;"
	 xml:space="preserve">
<g id="Fork__x2B__Knife">
	<g>
		<path d="M24.063,20.66c-0.256,0-0.512-0.098-0.707-0.293c-0.391-0.391-0.391-1.024,0-1.414l3.275-3.275
			c0.391-0.391,1.023-0.391,1.414,0s0.391,1.024,0,1.414l-3.275,3.275C24.575,20.562,24.319,20.66,24.063,20.66z"/>
		<path d="M2.736,41.986c-0.256,0-0.512-0.098-0.707-0.293c-0.391-0.391-0.391-1.023,0-1.414l16.14-16.14
			c0.391-0.391,1.023-0.391,1.414,0s0.391,1.023,0,1.414l-16.14,16.14C3.248,41.889,2.992,41.986,2.736,41.986z"/>
		<path d="M27.722,25.062c-0.256,0-0.512-0.098-0.707-0.293c-0.391-0.39-0.391-1.023,0-1.414l3.646-3.647
			c0.391-0.391,1.023-0.391,1.414,0c0.391,0.39,0.391,1.023,0,1.414l-3.646,3.647C28.233,24.964,27.978,25.062,27.722,25.062z"/>
		<path d="M6.766,46.016c-0.256,0-0.512-0.098-0.707-0.293c-0.391-0.391-0.391-1.023,0-1.414l15.889-15.888
			c0.391-0.391,1.023-0.391,1.414,0s0.391,1.023,0,1.414L7.473,45.723C7.277,45.918,7.021,46.016,6.766,46.016z"/>
		<path d="M4.762,46.843c-0.983,0-1.967-0.374-2.717-1.122c-1.497-1.498-1.497-3.933-0.002-5.428c0.391-0.391,1.023-0.391,1.414,0
			s0.391,1.023,0,1.414c-0.716,0.716-0.715,1.882,0.001,2.599c0.719,0.718,1.886,0.717,2.601,0.002c0.391-0.391,1.023-0.39,1.414,0
			c0.391,0.391,0.391,1.023,0,1.415C6.727,46.47,5.744,46.843,4.762,46.843z"/>
	</g>
	<path d="M34.316,21.926c-1.128,0-2.229-0.192-3.256-0.589c-0.515-0.2-0.771-0.779-0.571-1.294s0.777-0.771,1.294-0.571
		c2.984,1.158,6.845,0.084,9.601-2.67c1.436-1.437,2.81-4.148,3.641-5.987l-3.767,1.092c-0.361,0.104-0.75-0.002-1.007-0.276
		c-0.258-0.274-0.34-0.668-0.213-1.022l1.616-4.504l-4.439,1.576c-0.361,0.126-0.763,0.04-1.036-0.229
		c-0.272-0.268-0.368-0.668-0.247-1.031l1.229-3.663c-1.883,0.832-4.636,2.208-6.125,3.696c-2.7,2.7-3.793,6.506-2.719,9.471
		c0.188,0.52-0.081,1.093-0.6,1.281c-0.518,0.188-1.093-0.08-1.281-0.6c-1.354-3.739-0.104-8.279,3.186-11.567
		c2.706-2.706,8.59-4.887,8.839-4.978c0.359-0.132,0.765-0.047,1.042,0.221c0.275,0.268,0.373,0.671,0.251,1.035l-1.271,3.791
		l4.492-1.595c0.364-0.128,0.771-0.038,1.043,0.236c0.273,0.274,0.363,0.68,0.233,1.044L42.582,9.44l3.904-1.132
		C46.849,8.2,47.244,8.312,47.5,8.592c0.257,0.279,0.334,0.68,0.199,1.034c-0.094,0.244-2.308,5.995-4.901,8.591
		C40.404,20.608,37.272,21.926,34.316,21.926z"/>
	<g>
		<path d="M39.262,45.487c-0.256,0-0.512-0.098-0.707-0.293L17.538,24.177c-0.391-0.391-0.391-1.023,0-1.414s1.023-0.391,1.414,0
			L39.969,43.78c0.391,0.391,0.391,1.023,0,1.414C39.773,45.39,39.518,45.487,39.262,45.487z"/>
		<path d="M43.291,41.459c-0.256,0-0.512-0.098-0.707-0.293L5.47,4.052c-0.391-0.391-0.391-1.023,0-1.414s1.023-0.391,1.414,0
			l37.114,37.114c0.391,0.391,0.391,1.023,0,1.414C43.803,41.361,43.547,41.459,43.291,41.459z"/>
		<path d="M41.279,46.305c-1.024,0-1.987-0.399-2.712-1.124c-0.391-0.391-0.391-1.024,0-1.415c0.391-0.39,1.023-0.39,1.414,0
			c0.347,0.347,0.808,0.538,1.298,0.538h0.001c0.491,0,0.952-0.192,1.3-0.539c0.718-0.718,0.72-1.884,0.004-2.6
			c-0.391-0.391-0.391-1.023,0-1.414s1.023-0.391,1.414,0c1.495,1.495,1.494,3.93-0.004,5.428c-0.725,0.725-1.688,1.124-2.712,1.125
			C41.281,46.305,41.28,46.305,41.279,46.305z"/>
		<path d="M2.085,4.27c-0.256,0-0.512-0.098-0.707-0.293c-0.391-0.391-0.391-1.023,0-1.414c1.498-1.498,3.934-1.498,5.43-0.001
			c0.391,0.391,0.391,1.023,0,1.414s-1.023,0.391-1.414,0C4.677,3.259,3.511,3.259,2.792,3.977C2.597,4.172,2.341,4.27,2.085,4.27z"
			/>
	</g>
	<path d="M15.497,24.789c-3.117,0-6.57-1.574-9.422-4.425C1.633,15.921-2.198,6.138,1.468,2.472c0.391-0.391,1.023-0.391,1.414,0
		s0.391,1.024,0,1.414C0.537,6.231,3.077,14.537,7.489,18.95c3.177,3.177,7.279,4.563,10.209,3.457
		c0.513-0.196,1.094,0.064,1.289,0.581c0.195,0.517-0.065,1.094-0.582,1.289C17.494,24.622,16.513,24.789,15.497,24.789z"/>
</g>
<g>
</g>
<g>
</g>
<g>
</g>
<g>
</g>
<g>
</g>
<g>
</g>
<g>
</g>
<g>
</g>
<g>
</g>
<g>
</g>
<g>
</g>
<g>
</g>
<g>
</g>
<g>
</g>
<g>
</g>
</svg>
