<?xml version="1.0" encoding="iso-8859-1"?>
<!-- Generator: Adobe Illustrator 16.0.4, SVG Export Plug-In . SVG Version: 6.00 Build 0)  -->
<!DOCTYPE svg PUBLIC "-//W3C//DTD SVG 1.1//EN" "http://www.w3.org/Graphics/SVG/1.1/DTD/svg11.dtd">
<svg version="1.1" id="Capa_1" xmlns="http://www.w3.org/2000/svg" xmlns:xlink="http://www.w3.org/1999/xlink" x="0px" y="0px"
	 width="48.012px" height="48.5px" viewBox="0 0 48.012 48.5" style="enable-background:new 0 0 48.012 48.5;" xml:space="preserve"
	>
<g id="Game_Pad">
	<g>
		<path d="M15.237,24.331h-2.543c-0.414,0-0.75-0.336-0.75-0.75s0.336-0.75,0.75-0.75h2.543c0.414,0,0.75,0.336,0.75,0.75
			S15.651,24.331,15.237,24.331z"/>
		<path d="M10.103,24.331H7.493c-0.414,0-0.75-0.336-0.75-0.75s0.336-0.75,0.75-0.75h2.608c0.414,0,0.75,0.336,0.75,0.75
			S10.517,24.331,10.103,24.331z"/>
		<path d="M15.237,26.919h-2.543c-0.414,0-0.75-0.336-0.75-0.75s0.336-0.75,0.75-0.75h2.543c0.414,0,0.75,0.336,0.75,0.75
			S15.651,26.919,15.237,26.919z"/>
		<path d="M7.492,26.919c-0.414,0-0.75-0.334-0.75-0.75c0-0.414,0.335-0.75,0.749-0.75l2.61-0.002c0.001,0,0.001,0,0.001,0
			c0.414,0,0.75,0.336,0.75,0.75c0,0.416-0.335,0.75-0.749,0.75L7.492,26.919L7.492,26.919z"/>
		<path d="M10.103,24.331L10.103,24.331c-0.414,0-0.75-0.336-0.75-0.75l0.001-2.578c0-0.414,0.336-0.75,0.75-0.75l0,0
			c0.414,0,0.75,0.336,0.75,0.75l-0.001,2.578C10.853,23.996,10.517,24.331,10.103,24.331z"/>
		<path d="M10.104,29.5c-0.414,0-0.75-0.336-0.75-0.75v-2.58c0-0.414,0.336-0.75,0.75-0.75s0.75,0.336,0.75,0.75v2.58
			C10.854,29.164,10.518,29.5,10.104,29.5z"/>
		<path d="M12.692,24.331c-0.414,0-0.75-0.336-0.75-0.75v-2.579c0-0.414,0.336-0.75,0.75-0.75s0.75,0.336,0.75,0.75v2.579
			C13.442,23.995,13.106,24.331,12.692,24.331z"/>
		<path d="M12.692,29.5L12.692,29.5c-0.414,0-0.75-0.336-0.75-0.75l0.001-2.58c0-0.414,0.336-0.75,0.75-0.75l0,0
			c0.414,0,0.75,0.336,0.75,0.75l-0.001,2.58C13.442,29.164,13.106,29.5,12.692,29.5z"/>
		<path d="M11.401,30.787c-1.121,0-2.034-0.912-2.039-2.037C9.361,28.336,9.696,28,10.11,27.998c0.001,0,0.001,0,0.002,0
			c0.413,0,0.749,0.334,0.75,0.748c0.001,0.299,0.243,0.541,0.54,0.541c0.001,0,0.001,0,0.001,0c0.302,0,0.542-0.242,0.542-0.539
			c0.001-0.414,0.336-0.75,0.75-0.75h0.001c0.414,0,0.75,0.338,0.749,0.752c-0.002,1.123-0.917,2.037-2.04,2.037
			C11.404,30.787,11.402,30.787,11.401,30.787z"/>
		<path d="M12.694,21.753c-0.414,0-0.75-0.336-0.75-0.75c0-0.298-0.24-0.541-0.54-0.541c-0.299,0-0.542,0.242-0.542,0.54
			c0,0.414-0.336,0.75-0.75,0.75c-0.412,0-0.75-0.336-0.75-0.75c0-1.125,0.916-2.04,2.043-2.04c1.125,0.001,2.039,0.917,2.039,2.041
			C13.444,21.417,13.108,21.753,12.694,21.753z"/>
		<path d="M7.492,26.919c-1.125,0-2.04-0.914-2.04-2.039s0.915-2.04,2.039-2.041c0.001,0,0.001,0,0.001,0
			c0.412,0,0.75,0.335,0.75,0.75s-0.335,0.75-0.749,0.75c-0.301,0-0.541,0.242-0.541,0.541c0,0.298,0.24,0.539,0.54,0.539
			c0.412,0,0.75,0.336,0.75,0.75S7.906,26.919,7.492,26.919z"/>
		<path d="M15.156,26.919c-0.412,0-0.75-0.336-0.75-0.75s0.338-0.75,0.75-0.75c0.306,0,0.541-0.237,0.541-0.541
			c0-0.296-0.24-0.539-0.541-0.539c-0.412,0-0.747-0.336-0.747-0.75s0.336-0.75,0.75-0.75c0,0,0,0,0.001,0
			c1.124,0.001,2.037,0.915,2.037,2.039C17.197,26.003,16.281,26.919,15.156,26.919z"/>
	</g>
	<g>
		<path d="M11.271,35.539c-3.011,0-5.841-1.172-7.97-3.303c-2.13-2.129-3.303-4.962-3.302-7.975c0-3.01,1.173-5.842,3.303-7.971
			s4.962-3.303,7.974-3.303c0.554,0,1,0.448,1,1c0,0.552-0.445,1-1,1c-2.478,0-4.808,0.965-6.56,2.718
			C2.964,19.456,2,21.785,2,24.261c0,2.479,0.964,4.809,2.716,6.561c1.751,1.752,4.08,2.717,6.556,2.717
			c2.351,0,4.601-0.881,6.321-2.48c0.403-0.375,1.036-0.354,1.413,0.053c0.376,0.404,0.353,1.037-0.052,1.412
			c-2.095,1.945-4.819,3.017-7.681,3.017C11.274,35.539,11.272,35.539,11.271,35.539z"/>
		<path d="M36.746,35.537c-0.006,0-0.016,0-0.021,0c-2.854,0-5.579-1.07-7.669-3.016c-0.404-0.375-0.427-1.008-0.051-1.412
			c0.378-0.404,1.01-0.426,1.414-0.051c1.718,1.598,3.957,2.479,6.307,2.479c0.007,0,0.014,0,0.018,0c2.475,0,4.8-0.963,6.55-2.711
			c1.753-1.752,2.719-4.082,2.718-6.562c0.002-5.114-4.158-9.274-9.273-9.276c-0.553,0-1-0.448-1-1c0-0.552,0.448-1,1-1l0,0
			c6.221,0.002,11.275,5.061,11.273,11.276c0.001,3.013-1.173,5.847-3.304,7.976C42.58,34.365,39.753,35.537,36.746,35.537z"/>
		<path d="M36.548,14.96H11.466c-0.553,0-1-0.448-1-1s0.447-1,1-1h25.082c0.553,0,1,0.448,1,1S37.101,14.96,36.548,14.96z"/>
		<path d="M18.303,32.746c-0.269,0-0.537-0.107-0.734-0.32c-0.375-0.404-0.35-1.037,0.058-1.412
			c0.304-0.281,0.504-0.467,6.304-0.484c5.796-0.02,6.061,0.203,6.345,0.416c0.442,0.33,0.534,0.957,0.204,1.398
			c-0.275,0.371-0.767,0.496-1.178,0.33c-1.087-0.195-9.438-0.186-10.646,0.012C18.54,32.725,18.422,32.746,18.303,32.746z"/>
	</g>
	<g>
		<path d="M21.07,27.548c-0.227,0-0.433-0.075-0.562-0.207c-0.276-0.274-0.303-0.893,0.077-1.275l1.5-1.5
			c0.337-0.337,0.986-0.369,1.274-0.08c0.134,0.132,0.208,0.339,0.207,0.566c0,0.269-0.104,0.527-0.289,0.707l-1.498,1.5
			C21.598,27.443,21.339,27.548,21.07,27.548z M22.794,24.778c-0.14,0-0.27,0.052-0.357,0.142l-1.499,1.5
			c-0.183,0.185-0.16,0.486-0.078,0.567c0.07,0.07,0.409,0.078,0.566-0.08l1.499-1.501c0.09-0.089,0.142-0.218,0.142-0.355
			c0-0.104-0.028-0.182-0.061-0.211C22.975,24.809,22.898,24.778,22.794,24.778z"/>
		<path d="M24.826,27.548c-0.229,0-0.435-0.075-0.564-0.207c-0.132-0.133-0.208-0.338-0.208-0.566c0-0.27,0.104-0.527,0.286-0.709
			l1.5-1.501c0.339-0.338,0.991-0.367,1.272-0.077c0.131,0.126,0.206,0.33,0.207,0.557c0.005,0.271-0.101,0.531-0.281,0.715
			l-1.504,1.5C25.353,27.443,25.094,27.548,24.826,27.548z M26.548,24.779c-0.136,0-0.265,0.051-0.354,0.141l-1.5,1.502
			c-0.089,0.088-0.14,0.218-0.14,0.354c0,0.104,0.03,0.182,0.062,0.212c0.068,0.071,0.405,0.078,0.563-0.08l1.503-1.5
			c0.087-0.087,0.142-0.222,0.14-0.358c-0.002-0.103-0.03-0.178-0.062-0.207C26.729,24.81,26.651,24.779,26.548,24.779z"/>
	</g>
	<g>
		<circle cx="33.136" cy="24.915" r="1.704"/>
		<circle cx="42.43" cy="24.916" r="1.704"/>
		<circle cx="37.755" cy="21.773" r="1.705"/>
		<circle cx="37.783" cy="27.77" r="1.705"/>
	</g>
	<path d="M28.319,18.683H19.87c-0.276,0-0.5-0.224-0.5-0.5c0-0.276,0.224-0.5,0.5-0.5h8.447c0.276,0,0.5,0.224,0.5,0.5
		C28.819,18.459,28.596,18.683,28.319,18.683z"/>
</g>
</svg>
