<?xml version="1.0" encoding="iso-8859-1"?>
<!-- Generator: Adobe Illustrator 16.0.4, SVG Export Plug-In . SVG Version: 6.00 Build 0)  -->
<!DOCTYPE svg PUBLIC "-//W3C//DTD SVG 1.1//EN" "http://www.w3.org/Graphics/SVG/1.1/DTD/svg11.dtd">
<svg version="1.1" id="Capa_1" xmlns="http://www.w3.org/2000/svg" xmlns:xlink="http://www.w3.org/1999/xlink" x="0px" y="0px"
	 width="47.832px" height="44.159px" viewBox="0 0 47.832 44.159" style="enable-background:new 0 0 47.832 44.159;"
	 xml:space="preserve">
<g id="Hammer">
	<path d="M43.792,38.708c-0.22,0-0.422-0.147-0.482-0.37c-0.352-1.31-1.473-1.943-2.893-2.746c-1.618-0.914-3.451-1.951-4.695-4.3
		c-2.043-3.858-4.484-4.993-4.508-5.004c-0.251-0.113-0.364-0.409-0.251-0.66c0.113-0.251,0.407-0.364,0.658-0.254
		c0.112,0.05,2.766,1.26,4.986,5.45c1.107,2.09,2.806,3.05,4.304,3.897c1.494,0.845,2.905,1.642,3.366,3.356
		c0.072,0.267-0.086,0.541-0.353,0.613C43.879,38.702,43.835,38.708,43.792,38.708z"/>
	<g>
		<path d="M4.024,19.539c-0.586,0-1.14-0.231-1.56-0.65l-1.816-1.815c-0.851-0.851-0.867-2.221-0.036-3.054l1.135-1.136
			c0.808-0.807,2.23-0.789,3.056,0.035l1.815,1.816c0.409,0.409,0.64,0.949,0.65,1.521c0.01,0.582-0.208,1.126-0.615,1.533
			L5.52,18.923C5.123,19.32,4.591,19.539,4.024,19.539z M3.244,13.768c-0.167,0-0.321,0.062-0.435,0.176l-1.135,1.135
			c-0.247,0.248-0.231,0.667,0.035,0.934l1.816,1.815c0.259,0.258,0.693,0.276,0.934,0.034l1.135-1.134
			c0.116-0.117,0.179-0.275,0.176-0.446c-0.003-0.182-0.078-0.354-0.211-0.487l-1.815-1.816C3.607,13.843,3.43,13.768,3.244,13.768z
			"/>
		<path d="M6.995,16.038c-0.192,0-0.384-0.073-0.53-0.22c-0.293-0.293-0.293-0.768,0-1.061c1.941-1.941,3.646-2.785,5.067-2.502
			c0.558,0.11,0.993,0.383,1.312,0.687l3.728-3.726c-0.774-0.808-1.069-1.665-0.877-2.553c0.487-2.26,4.339-3.886,6.874-4.724
			C16.88,0.303,12.526,3.79,12.324,3.956C10.265,5.849,7.853,8.258,7.6,8.801C7.469,9.082,7.368,9.38,7.267,9.673
			c-0.2,0.579-0.406,1.178-0.799,1.667c-0.511,0.641-1.715,1.725-1.766,1.771c-0.308,0.278-0.783,0.25-1.059-0.056
			c-0.277-0.308-0.252-0.782,0.056-1.059c0.322-0.29,1.236-1.14,1.597-1.592c0.231-0.288,0.387-0.741,0.553-1.22
			c0.118-0.342,0.239-0.69,0.392-1.017c0.497-1.065,4.028-4.358,5.099-5.342c0.285-0.237,6.362-5.142,13.889-1.458
			c0.284,0.139,0.45,0.44,0.416,0.754c-0.034,0.313-0.26,0.573-0.566,0.648c-3.074,0.759-7.563,2.567-7.917,4.211
			c-0.105,0.49,0.218,1.035,0.962,1.619c0.168,0.133,0.272,0.331,0.285,0.545c0.013,0.214-0.066,0.423-0.218,0.575l-4.898,4.896
			c-0.177,0.177-0.431,0.251-0.676,0.206c-0.245-0.049-0.45-0.216-0.547-0.447c-0.006-0.013-0.251-0.542-0.846-0.65
			c-0.507-0.092-1.661,0.058-3.699,2.094C7.378,15.965,7.187,16.038,6.995,16.038z"/>
		<path d="M24.208,25.02c-0.192,0-0.384-0.073-0.53-0.22L13.133,14.255c-0.293-0.293-0.293-0.768,0-1.061s0.768-0.293,1.061,0
			L24.738,23.74c0.293,0.293,0.293,0.768,0,1.061C24.591,24.947,24.399,25.02,24.208,25.02z"/>
		<path d="M27.753,21.474c-0.192,0-0.384-0.073-0.53-0.22L16.498,10.53c-0.293-0.293-0.293-0.768,0-1.061s0.768-0.293,1.061,0
			l10.726,10.724c0.293,0.293,0.293,0.768,0,1.061C28.137,21.401,27.945,21.474,27.753,21.474z"/>
		<path d="M25.423,28.336c-0.609,0-1.181-0.238-1.611-0.669c-0.43-0.429-0.667-1.001-0.667-1.61s0.237-1.181,0.668-1.612
			l4.325-4.325c0.863-0.862,2.363-0.861,3.223,0c0.43,0.43,0.667,1.002,0.667,1.611s-0.237,1.181-0.668,1.612l-4.325,4.325
			C26.605,28.099,26.032,28.336,25.423,28.336z M29.75,20.952c-0.208,0-0.404,0.082-0.551,0.229l-4.325,4.325
			c-0.147,0.147-0.229,0.343-0.229,0.551s0.081,0.403,0.229,0.55c0.295,0.297,0.807,0.296,1.102,0l4.325-4.325
			c0.147-0.147,0.229-0.343,0.229-0.551s-0.081-0.404-0.229-0.551S29.958,20.952,29.75,20.952z"/>
		<g>
			<path d="M40.436,44.159c-1.853,0-2.845-1.883-3.808-3.711c-0.912-1.73-1.945-3.691-3.779-4.697
				c-4.387-2.404-7.64-7.437-7.776-7.649c-0.223-0.349-0.121-0.812,0.228-1.036c0.347-0.222,0.812-0.122,1.036,0.227
				c0.032,0.049,3.188,4.925,7.234,7.143c2.229,1.224,3.424,3.491,4.384,5.313c1.145,2.174,1.762,3.097,2.819,2.871
				c0.052-0.011,0.104-0.017,0.157-0.017c-0.032-0.002,0.832-0.179,2.736-2.083c0.293-0.293,0.768-0.293,1.061,0
				s0.293,0.768,0,1.061c-2.115,2.116-3.263,2.467-3.684,2.516C40.831,44.138,40.629,44.159,40.436,44.159z"/>
			<path d="M44.332,41.665c-0.192,0-0.384-0.073-0.53-0.22c-0.293-0.293-0.293-0.768,0-1.061c2.097-2.097,2.381-3.164,2.383-3.175
				c0.01-0.038,0.027-0.097,0.042-0.133c0.348-0.821-0.338-1.341-2.717-2.591c-1.911-1.003-4.288-2.251-5.51-4.479
				c-2.217-4.046-7.094-7.202-7.143-7.233c-0.349-0.224-0.451-0.688-0.227-1.036s0.686-0.451,1.036-0.228
				c0.213,0.136,5.246,3.389,7.65,7.776c1.004,1.831,3.069,2.915,4.892,3.872c2.115,1.111,4.302,2.259,3.426,4.442
				c-0.104,0.396-0.588,1.662-2.771,3.845C44.715,41.591,44.523,41.665,44.332,41.665z"/>
		</g>
		<path d="M11.757,13.589c-0.192,0-0.384-0.073-0.53-0.22L6.585,8.728c-0.293-0.293-0.293-0.768,0-1.061s0.768-0.293,1.061,0
			l4.642,4.642c0.293,0.293,0.293,0.768,0,1.061C12.141,13.516,11.949,13.589,11.757,13.589z"/>
		<path d="M16.366,8.889c-0.192,0-0.384-0.073-0.53-0.22L11.24,4.074c-0.293-0.293-0.293-0.768,0-1.061s0.768-0.293,1.061,0
			l4.596,4.596c0.293,0.293,0.293,0.768,0,1.061C16.75,8.816,16.558,8.889,16.366,8.889z"/>
	</g>
</g>
<g>
</g>
<g>
</g>
<g>
</g>
<g>
</g>
<g>
</g>
<g>
</g>
<g>
</g>
<g>
</g>
<g>
</g>
<g>
</g>
<g>
</g>
<g>
</g>
<g>
</g>
<g>
</g>
<g>
</g>
</svg>
