<?xml version="1.0" encoding="iso-8859-1"?>
<!-- Generator: Adobe Illustrator 16.0.4, SVG Export Plug-In . SVG Version: 6.00 Build 0)  -->
<!DOCTYPE svg PUBLIC "-//W3C//DTD SVG 1.1//EN" "http://www.w3.org/Graphics/SVG/1.1/DTD/svg11.dtd">
<svg version="1.1" id="Capa_1" xmlns="http://www.w3.org/2000/svg" xmlns:xlink="http://www.w3.org/1999/xlink" x="0px" y="0px"
	 width="47.75px" height="49px" viewBox="0 0 47.75 49" style="enable-background:new 0 0 47.75 49;" xml:space="preserve">
<g id="Increase_Volume">
	<path d="M38.779,28.219c-0.264,0-0.521-0.141-0.656-0.386c-0.201-0.362-0.068-0.819,0.293-1.021
		c1.25-0.694,2.029-2.014,2.031-3.444c-0.002-1.424-0.775-2.74-2.02-3.437c-0.361-0.202-0.49-0.659-0.289-1.021
		c0.202-0.359,0.661-0.49,1.021-0.287c1.717,0.96,2.783,2.777,2.785,4.744c-0.002,1.977-1.076,3.799-2.803,4.758
		C39.027,28.189,38.902,28.219,38.779,28.219z"/>
	<path d="M39.537,31.674c-0.264,0-0.52-0.141-0.656-0.389c-0.199-0.36-0.068-0.816,0.293-1.02c2.504-1.388,4.061-4.025,4.061-6.883
		c0-2.849-1.545-5.48-4.03-6.871c-0.361-0.202-0.492-0.659-0.289-1.021c0.203-0.359,0.659-0.49,1.021-0.288
		c2.961,1.655,4.799,4.789,4.799,8.181c0,3.401-1.853,6.543-4.832,8.194C39.785,31.645,39.66,31.674,39.537,31.674z"/>
	<path d="M40.832,34.549c-0.266,0-0.521-0.141-0.658-0.389c-0.199-0.36-0.068-0.816,0.293-1.02c3.566-1.974,5.781-5.729,5.783-9.801
		c-0.002-4.054-2.203-7.802-5.746-9.784c-0.359-0.202-0.49-0.659-0.287-1.021c0.201-0.361,0.66-0.491,1.021-0.287
		c4.015,2.246,6.511,6.496,6.513,11.093c-0.002,4.617-2.515,8.875-6.556,11.112C41.078,34.52,40.955,34.549,40.832,34.549z"/>
	<path d="M31.007,36.42c-3.896,0-5.995-6.967-5.995-13.521s2.102-13.518,5.995-13.518c3.896,0,5.998,6.966,5.998,13.52
		S34.902,36.42,31.007,36.42z M31.007,11.381c-1.668,0-3.995,4.383-3.995,11.52c0,7.136,2.327,11.521,3.995,11.521
		s3.998-4.385,3.998-11.521C35.005,15.764,32.675,11.381,31.007,11.381z"/>
	<path d="M31.014,36.42c-1.675,0.001-28.385-7.956-28.634-8.037C1.044,27.943,0,25.518,0,22.859c0-2.464,0.844-5.159,2.456-5.544
		c0.186-0.046,1.739-0.505,3.705-1.087C26.33,10.263,30.423,9.25,31.195,9.399c0.543,0.104,0.897,0.629,0.793,1.171
		c-0.096,0.509-0.566,0.857-1.068,0.809c-1.664,0.105-18.016,4.94-24.191,6.768c-2.564,0.757-3.612,1.066-3.811,1.114
		C2.692,19.412,2,20.7,2,22.859c0,2.059,0.766,3.447,1.071,3.654c1.419,0.451,26.326,7.771,27.962,7.908
		c0.531,0.044,0.963,0.499,0.945,1.03c-0.019,0.533-0.424,0.959-0.957,0.969C31.02,36.42,31.018,36.42,31.014,36.42z"/>
	<path d="M12.681,39.619c-0.788,0-1.582-0.121-2.361-0.371c-4.186-1.342-6.659-5.965-5.512-10.305
		c0.141-0.535,0.689-0.854,1.222-0.711c0.534,0.142,0.853,0.688,0.711,1.221c-0.879,3.328,1,6.867,4.189,7.891
		c1.49,0.477,3.054,0.333,4.402-0.406c1.404-0.771,2.412-2.088,2.838-3.709c0.141-0.533,0.686-0.853,1.222-0.713
		c0.534,0.141,0.853,0.688,0.713,1.221c-0.568,2.158-1.921,3.918-3.81,4.955C15.169,39.309,13.934,39.619,12.681,39.619z"/>
	<path d="M12.708,36.273c-0.489,0-0.982-0.076-1.467-0.23c-2.604-0.834-4.142-3.71-3.427-6.41c0.071-0.268,0.345-0.428,0.611-0.355
		c0.267,0.07,0.426,0.347,0.355,0.611c-0.58,2.193,0.66,4.526,2.766,5.2c0.99,0.317,2.026,0.224,2.918-0.271
		c0.93-0.51,1.598-1.381,1.88-2.453c0.071-0.269,0.345-0.43,0.611-0.355c0.267,0.068,0.426,0.344,0.356,0.609
		c-0.353,1.343-1.193,2.436-2.366,3.076C14.248,36.078,13.483,36.273,12.708,36.273z"/>
	<path d="M8.62,30.182c-0.104,0-0.209-0.017-0.313-0.05c-1.675-0.546-3.037-3.807-3.037-7.271c0-3.738,1.34-6.874,3.118-7.292
		c0.538-0.123,1.075,0.208,1.202,0.746c0.126,0.536-0.206,1.073-0.742,1.201c-0.436,0.149-1.578,2.013-1.578,5.345
		c0,3.146,1.214,5.146,1.676,5.375c0.525,0.172,0.802,0.731,0.631,1.258C9.439,29.916,9.042,30.182,8.62,30.182z"/>
	<g>
		<path d="M31.382,26.425c-1.043,0-1.59-1.523-1.59-3.028c0-1.504,0.547-3.024,1.59-3.024c1.045,0,1.593,1.521,1.593,3.024
			C32.975,24.902,32.427,26.425,31.382,26.425z M31.378,21.371c-0.17,0.04-0.586,0.777-0.586,2.025c0,1.24,0.41,1.979,0.59,2.027
			c0.146-0.039,0.591-0.708,0.591-2.027C31.975,22.067,31.521,21.401,31.378,21.371z"/>
		<path d="M31.414,21.336c-0.068,0-0.139-0.015-0.205-0.044l-5.062-2.269c-0.252-0.112-0.365-0.408-0.252-0.66
			c0.111-0.251,0.41-0.366,0.66-0.252l5.064,2.269c0.252,0.111,0.363,0.407,0.252,0.66C31.787,21.226,31.604,21.336,31.414,21.336z"
			/>
		<path d="M26.35,28.729c-0.191,0-0.375-0.111-0.457-0.297c-0.113-0.252,0-0.548,0.252-0.66l5.063-2.268
			c0.252-0.115,0.547,0.001,0.66,0.252c0.112,0.252,0,0.548-0.252,0.66l-5.063,2.268C26.486,28.714,26.417,28.729,26.35,28.729z"/>
	</g>
</g>
</svg>
