<?xml version="1.0" encoding="iso-8859-1"?>
<!-- Generator: Adobe Illustrator 16.0.4, SVG Export Plug-In . SVG Version: 6.00 Build 0)  -->
<!DOCTYPE svg PUBLIC "-//W3C//DTD SVG 1.1//EN" "http://www.w3.org/Graphics/SVG/1.1/DTD/svg11.dtd">
<svg version="1.1" id="Capa_1" xmlns="http://www.w3.org/2000/svg" xmlns:xlink="http://www.w3.org/1999/xlink" x="0px" y="0px"
	 width="47.966px" height="45.975px" viewBox="0 0 47.966 45.975" style="enable-background:new 0 0 47.966 45.975;"
	 xml:space="preserve">
<g id="Lego_Rectangle">
	<g>
		<path d="M32.173,20.189c-0.001,0-0.026,0-0.027,0c-1.957-0.008-3.376-0.846-3.373-1.993c0.007-1.141,1.421-1.967,3.362-1.967
			c1.985,0.008,3.402,0.847,3.398,1.995C35.528,19.362,34.115,20.189,32.173,20.189z M32.156,17.539
			c-1.411,0-2.073,0.532-2.073,0.663c-0.001,0.131,0.664,0.671,2.068,0.678l0.021,0.655v-0.655c1.389,0,2.05-0.53,2.05-0.661
			C34.224,18.085,33.561,17.545,32.156,17.539z"/>
		<path d="M32.155,23.828c-0.008,0-0.017,0-0.025,0c-0.825-0.003-1.611-0.168-2.213-0.464c-1.013-0.499-1.161-1.173-1.16-1.531
			l0.016-3.638c0.002-0.361,0.295-0.652,0.655-0.652c0.001,0,0.002,0,0.003,0c0.361,0.001,0.653,0.296,0.652,0.658l-0.016,3.637
			c0,0.021,0.078,0.178,0.429,0.351c0.42,0.207,1.018,0.327,1.64,0.33c0.007,0,0.014,0,0.021,0c1.391,0,2.052-0.531,2.052-0.663
			l0.015-3.637c0.002-0.361,0.295-0.652,0.655-0.652c0.001,0,0.002,0,0.003,0c0.361,0.001,0.653,0.296,0.652,0.657l-0.015,3.637
			C35.514,22.984,34.07,23.828,32.155,23.828z"/>
	</g>
	<g>
		<path d="M39.753,16.029c-0.001,0-0.026,0-0.027,0c-1.959-0.008-3.377-0.846-3.373-1.993c0.007-1.14,1.421-1.967,3.362-1.967
			c1.985,0.008,3.402,0.848,3.398,1.995C43.108,15.203,41.695,16.029,39.753,16.029z M39.736,13.379
			c-1.411,0-2.073,0.532-2.073,0.663c-0.001,0.132,0.663,0.671,2.068,0.677l0.021,0.655v-0.655c1.389,0,2.05-0.53,2.05-0.66
			C41.804,13.926,41.141,13.385,39.736,13.379z"/>
		<path d="M39.737,19.668c-0.009,0-0.018,0-0.027,0c-1.959-0.009-3.377-0.848-3.373-1.995l0.016-3.637
			c0.002-0.361,0.295-0.652,0.655-0.652c0.001,0,0.002,0,0.003,0c0.361,0.001,0.653,0.296,0.652,0.658l-0.016,3.637
			c-0.001,0.132,0.663,0.673,2.068,0.68c1.453,0.004,2.072-0.53,2.072-0.662l0.015-3.637c0.002-0.361,0.295-0.652,0.655-0.652
			c0.001,0,0.002,0,0.003,0c0.361,0.001,0.653,0.296,0.652,0.657l-0.015,3.637C43.094,18.843,41.682,19.668,39.737,19.668z"/>
	</g>
	<g>
		<path d="M24.628,16.094c-0.001,0-0.026,0-0.027,0c-1.239-0.004-2.329-0.36-2.913-0.95c-0.303-0.305-0.462-0.666-0.46-1.043
			c0.005-1.139,1.42-1.966,3.364-1.966c1.983,0.008,3.4,0.848,3.396,1.995C27.983,15.268,26.57,16.094,24.628,16.094z
			 M24.611,13.444c-1.411,0-2.073,0.531-2.073,0.662c0,0.007,0.014,0.049,0.08,0.116c0.266,0.268,1.001,0.559,1.988,0.562
			l0.021,0.655v-0.655c1.389,0,2.05-0.53,2.05-0.66C26.679,13.991,26.016,13.45,24.611,13.444z"/>
		<path d="M24.614,19.732c-0.01,0-0.02,0-0.029,0c-1.959-0.008-3.377-0.847-3.373-1.995l0.016-3.637
			c0.002-0.361,0.302-0.625,0.658-0.652c0.361,0.001,0.653,0.296,0.652,0.658l-0.016,3.636c-0.001,0.132,0.663,0.673,2.068,0.68
			c0.008,0,0.016,0,0.022,0c1.389,0,2.05-0.531,2.05-0.663l0.015-3.636c0.002-0.362,0.271-0.648,0.658-0.652
			c0.361,0.001,0.653,0.296,0.652,0.657l-0.015,3.637C27.967,18.908,26.557,19.732,24.614,19.732z"/>
	</g>
	<g>
		<path d="M32.083,11.872c-0.001,0-0.026,0-0.027,0c-1.957-0.008-3.376-0.846-3.373-1.993c0.007-1.141,1.421-1.967,3.362-1.967
			c1.985,0.008,3.402,0.848,3.398,1.995C35.438,11.045,34.025,11.872,32.083,11.872z M32.066,9.222
			c-1.411,0-2.073,0.532-2.073,0.663c-0.001,0.131,0.664,0.671,2.068,0.678l0.021,0.655v-0.655c1.389,0,2.05-0.53,2.05-0.66
			C34.134,9.769,33.471,9.228,32.066,9.222z"/>
		<path d="M32.065,15.51c-0.009,0-0.018,0-0.026,0c-1.958-0.008-3.376-0.847-3.372-1.995l0.016-3.637
			c0.002-0.361,0.295-0.652,0.655-0.652c0.001,0,0.002,0,0.003,0c0.361,0.001,0.653,0.296,0.652,0.658l-0.016,3.637
			c-0.001,0.132,0.663,0.673,2.067,0.68c0.993-0.043,1.724-0.281,1.991-0.547c0.067-0.066,0.081-0.109,0.081-0.115l0.016-3.637
			c0.002-0.361,0.295-0.652,0.655-0.652c0.001,0,0.002,0,0.003,0c0.361,0.001,0.653,0.296,0.652,0.658l-0.016,3.636
			c-0.001,0.376-0.163,0.736-0.468,1.04C34.375,15.164,33.294,15.51,32.065,15.51z"/>
	</g>
	<g>
		<path d="M17.329,12.089c-0.001,0-0.024,0-0.025,0c-1.958-0.008-3.376-0.847-3.372-1.993c0.005-1.14,1.419-1.967,3.362-1.967
			c1.265,0.005,2.354,0.36,2.938,0.951c0.303,0.306,0.462,0.667,0.46,1.044C20.688,11.262,19.273,12.089,17.329,12.089z
			 M17.315,9.438c-1.412,0-2.073,0.531-2.073,0.662c-0.001,0.133,0.663,0.672,2.067,0.679l0.02,0.655v-0.655
			c1.391,0,2.053-0.53,2.053-0.661c0-0.007-0.014-0.049-0.08-0.117C19.036,9.733,18.301,9.442,17.315,9.438z"/>
		<path d="M17.316,15.727c-0.009,0-0.018,0-0.027,0c-1.238-0.004-2.327-0.36-2.912-0.95c-0.303-0.306-0.462-0.667-0.46-1.045
			l0.015-3.635c0.002-0.361,0.295-0.652,0.655-0.652c0.001,0,0.002,0,0.003,0c0.361,0.001,0.653,0.296,0.652,0.657l-0.015,3.636
			c0,0.008,0.014,0.051,0.08,0.118c0.266,0.268,1.001,0.559,1.987,0.562c0.007,0,0.014,0,0.021,0c0.976,0,1.704-0.282,1.97-0.546
			c0.067-0.066,0.081-0.109,0.081-0.115l0.016-3.638c0.002-0.361,0.295-0.652,0.655-0.652c0.001,0,0.002,0,0.003,0
			c0.361,0.001,0.653,0.296,0.652,0.658l-0.016,3.637c-0.001,0.376-0.163,0.736-0.468,1.04
			C19.623,15.381,18.544,15.727,17.316,15.727z"/>
	</g>
	<g>
		<path d="M24.909,7.929c-0.001,0-0.024,0-0.025,0c-1.238-0.005-2.327-0.36-2.911-0.951c-0.303-0.305-0.462-0.666-0.46-1.043
			c0.003-1.138,1.417-1.966,3.361-1.966c1.985,0.008,3.403,0.847,3.399,1.995C28.267,7.103,26.853,7.929,24.909,7.929z
			 M24.896,5.279c-1.411,0-2.072,0.53-2.072,0.661c0,0.007,0.014,0.05,0.08,0.116c0.265,0.268,1,0.559,1.986,0.563l0.02,0.655V6.619
			c1.391,0,2.054-0.531,2.054-0.662C26.964,5.826,26.3,5.285,24.896,5.279z"/>
		<path d="M24.896,11.567c-0.009,0-0.018,0-0.027,0c-1.238-0.005-2.327-0.361-2.912-0.951c-0.303-0.306-0.462-0.667-0.46-1.044
			l0.016-3.636c0.002-0.361,0.295-0.652,0.655-0.652c0.001,0,0.002,0,0.003,0c0.361,0.001,0.653,0.296,0.652,0.658l-0.016,3.637
			c0,0.006,0.014,0.049,0.08,0.116c0.266,0.269,1.001,0.559,1.987,0.563c0.007,0,0.014,0,0.021,0c1.389,0,2.05-0.53,2.05-0.662
			l0.017-3.637c0.002-0.361,0.295-0.652,0.655-0.652c0.001,0,0.002,0,0.003,0c0.361,0.001,0.653,0.296,0.652,0.658l-0.017,3.637
			C28.252,10.742,26.841,11.567,24.896,11.567z"/>
	</g>
	<g>
		<path d="M9.911,8.12c-0.001,0-0.026,0-0.027,0C7.927,8.111,6.508,7.273,6.511,6.126c0.007-1.141,1.421-1.967,3.362-1.967
			c1.984,0.008,3.402,0.847,3.399,1.994C13.266,7.293,11.853,8.12,9.911,8.12z M9.895,5.469c-1.411,0-2.073,0.532-2.073,0.663
			C7.82,6.263,8.485,6.803,9.89,6.81l0.021,0.655V6.81c1.389,0,2.051-0.531,2.051-0.662C11.963,6.017,11.299,5.476,9.895,5.469z"/>
		<path d="M9.896,11.758c-0.01,0-0.019,0-0.027,0c-1.957-0.008-3.376-0.847-3.373-1.994l0.016-3.638
			c0.002-0.361,0.295-0.652,0.655-0.652c0.001,0,0.002,0,0.003,0C7.53,5.475,7.822,5.77,7.821,6.131L7.806,9.769
			C7.805,9.9,8.47,10.441,9.874,10.448c0.635,0.019,1.22-0.112,1.641-0.315c0.351-0.169,0.431-0.325,0.431-0.347l0.017-3.637
			c0.002-0.361,0.295-0.652,0.655-0.652c0.001,0,0.002,0,0.003,0c0.361,0.001,0.653,0.296,0.652,0.658l-0.017,3.637
			c-0.002,0.358-0.156,1.032-1.173,1.521C11.486,11.6,10.711,11.758,9.896,11.758z"/>
	</g>
	<g>
		<path d="M17.554,3.96c-0.001,0-0.026,0-0.027,0c-1.959-0.008-3.377-0.847-3.373-1.993C14.16,0.827,15.574,0,17.516,0
			c1.985,0.008,3.402,0.848,3.398,1.995C20.909,3.134,19.496,3.96,17.554,3.96z M17.537,1.31c-1.411,0-2.073,0.532-2.073,0.663
			c-0.001,0.132,0.663,0.671,2.068,0.678l0.021,0.655V2.65c1.389,0,2.05-0.53,2.05-0.66C19.604,1.857,18.941,1.316,17.537,1.31z"/>
		<path d="M17.538,7.599c-0.009,0-0.018,0-0.027,0c-1.957-0.008-3.376-0.847-3.373-1.994l0.016-3.638
			c0.002-0.361,0.295-0.652,0.655-0.652c0.001,0,0.002,0,0.003,0c0.361,0.001,0.653,0.296,0.652,0.658l-0.016,3.637
			c-0.001,0.132,0.664,0.673,2.068,0.68c0.007,0,0.014,0,0.021,0c1.389,0,2.051-0.531,2.051-0.663l0.015-3.635
			c0.002-0.361,0.295-0.652,0.655-0.652c0.001,0,0.002,0,0.003,0c0.361,0.001,0.653,0.296,0.652,0.657l-0.015,3.636
			C20.893,6.774,19.481,7.599,17.538,7.599z"/>
	</g>
	<path d="M31.926,27.675c-0.161,0-0.323-0.039-0.475-0.121L0.524,10.814c-0.486-0.263-0.667-0.87-0.404-1.355
		c0.264-0.486,0.87-0.667,1.355-0.403l30.927,16.74c0.486,0.263,0.667,0.87,0.404,1.355C32.625,27.485,32.281,27.675,31.926,27.675z
		"/>
	<path d="M12.583,6.385c-0.396,0-0.772-0.238-0.929-0.629c-0.205-0.513,0.045-1.095,0.558-1.3l1.856-0.742
		c0.513-0.204,1.095,0.044,1.3,0.558c0.205,0.513-0.045,1.095-0.558,1.3l-1.856,0.742C12.832,6.361,12.707,6.385,12.583,6.385z"/>
	<path d="M21.894,6.611c-0.157,0-0.316-0.037-0.465-0.115L20.2,5.849c-0.489-0.258-0.677-0.862-0.419-1.351
		c0.258-0.488,0.863-0.675,1.351-0.418l1.229,0.647c0.489,0.258,0.677,0.862,0.419,1.351C22.6,6.417,22.253,6.611,21.894,6.611z"/>
	<path d="M29.252,10.346c-0.159,0-0.321-0.038-0.473-0.119l-1.118-0.601c-0.486-0.261-0.669-0.868-0.407-1.354
		c0.262-0.486,0.864-0.67,1.354-0.408l1.118,0.601c0.486,0.261,0.669,0.868,0.407,1.354C29.953,10.155,29.608,10.346,29.252,10.346z
		"/>
	<path d="M37.007,14.258c-0.147,0-0.298-0.033-0.439-0.102l-1.748-0.857c-0.496-0.243-0.7-0.842-0.457-1.338
		c0.241-0.495,0.843-0.7,1.338-0.458l1.748,0.857c0.496,0.243,0.7,0.842,0.457,1.338C37.732,14.053,37.377,14.258,37.007,14.258z"/>
	<g>
		<path d="M31.906,45.975c-0.167,0-0.334-0.042-0.485-0.125L0.536,28.724c-0.317-0.176-0.515-0.511-0.515-0.875V9.919
			c0-0.411,0.252-0.78,0.635-0.931l5.723-2.247c0.512-0.202,1.095,0.05,1.296,0.565c0.202,0.514-0.051,1.095-0.565,1.296
			l-5.088,1.998v16.66l28.887,16.017l0.019-16.575c0-0.362,0.196-0.696,0.513-0.873l15.039-8.388
			c0.482-0.269,1.092-0.096,1.36,0.386c0.27,0.482,0.097,1.092-0.386,1.361l-14.527,8.102l-0.02,17.684
			c0,0.354-0.188,0.682-0.493,0.861C32.257,45.929,32.082,45.975,31.906,45.975z"/>
		<path d="M31.907,45.975c-0.34,0-0.67-0.173-0.858-0.485c-0.284-0.473-0.131-1.087,0.342-1.372l14.557-8.75V18.945l-3.536-1.732
			c-0.495-0.243-0.7-0.842-0.458-1.338c0.244-0.496,0.843-0.7,1.339-0.458l4.096,2.007c0.343,0.168,0.56,0.516,0.56,0.898v17.611
			c0,0.351-0.184,0.676-0.484,0.857l-15.041,9.042C32.26,45.929,32.083,45.975,31.907,45.975z"/>
	</g>
</g>
<g>
</g>
<g>
</g>
<g>
</g>
<g>
</g>
<g>
</g>
<g>
</g>
<g>
</g>
<g>
</g>
<g>
</g>
<g>
</g>
<g>
</g>
<g>
</g>
<g>
</g>
<g>
</g>
<g>
</g>
</svg>
