<?xml version="1.0" encoding="iso-8859-1"?>
<!-- Generator: Adobe Illustrator 16.0.4, SVG Export Plug-In . SVG Version: 6.00 Build 0)  -->
<!DOCTYPE svg PUBLIC "-//W3C//DTD SVG 1.1//EN" "http://www.w3.org/Graphics/SVG/1.1/DTD/svg11.dtd">
<svg version="1.1" id="Capa_1" xmlns="http://www.w3.org/2000/svg" xmlns:xlink="http://www.w3.org/1999/xlink" x="0px" y="0px"
	 width="28.708px" height="47.98px" viewBox="0 0 28.708 47.98" style="enable-background:new 0 0 28.708 47.98;"
	 xml:space="preserve">
<g id="Light_Bulb">
	<path d="M9.998,38.194c-0.274,0-0.548-0.112-0.745-0.333c-2.274-2.542-2.459-7.972-2.466-8.202c0-2.046-1.284-4.167-2.771-6.624
		C1.709,19.224-0.906,14.904,0.308,9.28C2.164,0.669,11.507,0,14.326,0c0.553,0,1,0.448,1,1s-0.447,1-1,1
		C11.198,2,3.762,2.75,2.263,9.702c-1.046,4.847,1.247,8.635,3.464,12.297c1.574,2.6,3.061,5.056,3.061,7.631
		c0.041,1.335,0.474,5.24,1.956,6.898c0.368,0.412,0.333,1.044-0.078,1.412C10.474,38.11,10.235,38.194,9.998,38.194z"/>
	<path d="M18.71,38.194c-0.237,0-0.476-0.084-0.666-0.254c-0.412-0.368-0.447-1-0.079-1.412c1.486-1.663,1.916-5.564,1.955-6.927
		c0-2.546,1.486-5.001,3.061-7.602c2.218-3.663,4.511-7.451,3.465-12.297C24.945,2.75,17.509,2,14.381,2c-0.553,0-1-0.448-1-1
		s0.447-1,1-1C17.2,0,26.543,0.669,28.4,9.28c1.213,5.624-1.402,9.944-3.709,13.755c-1.487,2.457-2.771,4.578-2.771,6.595
		c-0.007,0.259-0.191,5.688-2.465,8.231C19.258,38.082,18.984,38.194,18.71,38.194z"/>
	<path d="M14.449,37.544c-0.414,0-0.75-0.336-0.75-0.75c0-0.508,0.027-1.286,0.062-2.254c0.098-2.741,0.28-7.839-0.135-12.244
		c-2.034,0.456-3.418-0.343-4.172-1.01c-2.089-1.847-2.566-5.306-1.6-7.165c0.591-1.135,1.648-1.612,2.896-1.314
		c1.638,0.394,2.729,1.911,3.438,4.183c0.964-3.493,2.609-5.036,4.085-5.263c1.133-0.176,2.149,0.427,2.587,1.532
		c0.68,1.714-0.022,4.744-4.237,7.643c-0.541,0.372-1.053,0.664-1.537,0.889c0.38,3.702,0.34,8.192,0.175,12.804
		c-0.034,0.945-0.062,1.705-0.062,2.201C15.199,37.208,14.863,37.544,14.449,37.544z M10.051,14.219
		c-0.381,0-0.655,0.191-0.864,0.594c-0.68,1.305-0.23,4.029,1.262,5.349c0.816,0.723,1.836,0.93,3.009,0.629
		c-0.455-3.402-1.354-6.117-3.056-6.526C10.275,14.235,10.158,14.219,10.051,14.219z M18.66,13.196c-0.05,0-0.103,0.004-0.158,0.013
		c-0.938,0.144-2.737,1.795-3.396,6.88c0.219-0.126,0.441-0.268,0.668-0.424c3.246-2.232,4.189-4.6,3.692-5.854
		C19.371,13.571,19.145,13.196,18.66,13.196z"/>
	<path d="M19.157,41.593h-9.62c-1.067,0-1.937-0.928-1.937-2.068v-0.693c0-1.141,0.869-2.068,1.937-2.068h9.62
		c1.068,0,1.938,0.928,1.938,2.068v0.693C21.095,40.665,20.226,41.593,19.157,41.593z M9.537,38.263
		c-0.236,0-0.437,0.26-0.437,0.568v0.693c0,0.308,0.2,0.568,0.437,0.568h9.62c0.237,0,0.438-0.26,0.438-0.568v-0.693
		c0-0.308-0.2-0.568-0.438-0.568H9.537z"/>
	<path d="M19.157,44.925h-9.62c-1.067,0-1.937-0.928-1.937-2.068v-0.693c0-1.141,0.869-2.069,1.937-2.069h9.62
		c1.068,0,1.938,0.928,1.938,2.069v0.693C21.095,43.997,20.226,44.925,19.157,44.925z M9.537,41.594
		c-0.236,0-0.437,0.261-0.437,0.569v0.693c0,0.308,0.2,0.568,0.437,0.568h9.62c0.237,0,0.438-0.26,0.438-0.568v-0.693
		c0-0.309-0.2-0.569-0.438-0.569H9.537z"/>
	<path d="M14.347,47.98c-2.299,0-4.169-1.615-4.169-3.6c0-0.414,0.336-0.75,0.75-0.75s0.75,0.336,0.75,0.75
		c0,1.158,1.197,2.1,2.669,2.1s2.669-0.942,2.669-2.1c0-0.414,0.336-0.75,0.75-0.75s0.75,0.336,0.75,0.75
		C18.516,46.366,16.646,47.98,14.347,47.98z"/>
</g>
<g>
</g>
<g>
</g>
<g>
</g>
<g>
</g>
<g>
</g>
<g>
</g>
<g>
</g>
<g>
</g>
<g>
</g>
<g>
</g>
<g>
</g>
<g>
</g>
<g>
</g>
<g>
</g>
<g>
</g>
</svg>
