<?xml version="1.0" encoding="iso-8859-1"?>
<!-- Generator: Adobe Illustrator 16.0.4, SVG Export Plug-In . SVG Version: 6.00 Build 0)  -->
<!DOCTYPE svg PUBLIC "-//W3C//DTD SVG 1.1//EN" "http://www.w3.org/Graphics/SVG/1.1/DTD/svg11.dtd">
<svg version="1.1" id="Capa_1" xmlns="http://www.w3.org/2000/svg" xmlns:xlink="http://www.w3.org/1999/xlink" x="0px" y="0px"
	 width="48px" height="48px" viewBox="0 0 48 48" style="enable-background:new 0 0 48 48;" xml:space="preserve">
<path d="M43.584,36.757c-0.357-0.207-0.816-0.086-1.025,0.272l-0.779,1.344c-0.021,0.037-0.024,0.077-0.039,0.116
	c-0.118-0.021-0.238-0.037-0.362-0.037c-1.17,0-2.122,0.952-2.122,2.122c0,0.516,0.192,0.981,0.498,1.35
	c-0.021,0.028-0.052,0.048-0.07,0.08l-0.785,1.365c-0.207,0.359-0.084,0.816,0.275,1.023c0.118,0.068,0.247,0.101,0.374,0.101
	c0.261,0,0.513-0.136,0.649-0.376l0.787-1.365c0.017-0.029,0.019-0.062,0.031-0.094c0.118,0.021,0.238,0.037,0.362,0.037
	c1.17,0,2.122-0.951,2.122-2.121c0-0.521-0.196-0.993-0.51-1.363c0.027-0.031,0.065-0.048,0.087-0.085l0.778-1.345
	C44.064,37.424,43.941,36.965,43.584,36.757z M41.378,41.695c-0.619,0-1.122-0.502-1.122-1.121s0.503-1.122,1.122-1.122
	s1.122,0.503,1.122,1.122S41.997,41.695,41.378,41.695z M39.163,24.199c0-1.346-0.165-2.923-0.431-4.114
	c-0.042-0.183-0.151-0.329-0.291-0.433c0.079-0.215,0.146-0.433,0.209-0.705c0.003-0.013-0.001-0.025,0.001-0.039l0.009,0.002
	l1.886-9.141l0.181,0.038c0.109,0.023,0.221,0.034,0.334,0.034c0.828,0,1.58-0.626,1.748-1.456l0.094-0.463
	c0.191-0.958-0.377-1.828-1.32-2.023L37.223,5c-0.918-0.192-1.767,0.401-1.959,1.339L35.154,6.81
	c-0.202,0.995,0.355,1.922,1.27,2.11l0.204,0.042l-0.987,4.786C32.22,9.406,26.962,6.74,21.702,6.74h-0.001
	C12.072,6.743,4.24,14.575,4.242,24.2c-0.001,4.663,1.815,9.048,5.113,12.346s7.683,5.114,12.349,5.115c0.001,0,0.002,0,0.003,0
	c4.661,0,9.044-1.815,12.342-5.115C37.348,33.247,39.164,28.861,39.163,24.199z M36.132,7.023l0.109-0.469
	c0.075-0.364,0.315-0.59,0.63-0.59c0.048,0,0.1,0.006,0.15,0.016l4.358,0.898c0.402,0.083,0.626,0.432,0.543,0.846l-0.095,0.462
	c-0.084,0.413-0.506,0.72-0.898,0.642L36.627,7.94C36.218,7.856,36.055,7.4,36.132,7.023z M39.566,9.568l-1.887,9.141l0.002,0
	c-0.001,0.005-0.005,0.009-0.006,0.014c-0.12,0.516-0.225,0.79-0.583,1.404l-2.346,3.969c-0.148-0.226-0.341-0.42-0.571-0.559
	l-0.402-0.243c-0.23-0.138-0.481-0.209-0.733-0.231l1.785-3.023c0.006-0.008,0.016-0.011,0.021-0.02
	c0.177-0.289,0.318-0.533,0.445-0.769l0.027-0.047l-0.002-0.001c0.228-0.432,0.391-0.838,0.508-1.409l0.002,0l1.781-8.631
	L39.566,9.568z M34.475,26.717l0.201,0.122c0.092,0.056,0.161,0.149,0.188,0.259c0.025,0.096,0.012,0.192-0.036,0.271l-1.14,1.879
	c-0.076,0.126-0.205,0.145-0.275,0.145c-0.082,0-0.169-0.024-0.238-0.065l-0.203-0.13c-0.028-0.017-0.048-0.039-0.07-0.059
	l0.474-0.781l0.013,0.008l0.671-1.135l0.326-0.539C34.414,26.7,34.446,26.7,34.475,26.717z M33.261,26.613l-1.575,2.599
	c-0.153,0.254-0.412,0.292-0.554,0.292c-0.164,0-0.337-0.05-0.476-0.134l-0.407-0.261c-0.19-0.114-0.319-0.275-0.364-0.453
	c-0.039-0.157-0.01-0.315,0.086-0.473l0.444-0.733l0.025,0.015l1.281-2.169l0.556-0.917c0.133-0.218,0.346-0.343,0.584-0.343
	c0.134,0,0.271,0.04,0.396,0.116l0.403,0.243c0.185,0.11,0.319,0.296,0.374,0.514c0.042,0.167,0.019,0.329-0.047,0.472
	L33.261,26.613z M21.706,40.161c-0.001,0-0.002,0-0.003,0c-4.265-0.001-8.273-1.662-11.288-4.677
	C7.401,32.471,5.741,28.463,5.742,24.2C5.74,15.402,12.899,8.243,21.702,8.24c0,0,0,0,0.001,0c5.072,0,10.156,2.725,13.268,7.111
	c0.076,0.108,0.18,0.179,0.291,0.232l-0.414,2.006c0,0.001-0.002,0.003-0.002,0.004c-0.099,0.476-0.232,0.807-0.437,1.187
	l-3.584,6.069l-1.709,2.817c-0.231,0.381-0.304,0.818-0.201,1.23c0.108,0.437,0.399,0.816,0.808,1.062l0.406,0.26
	c0.307,0.186,0.654,0.284,1.003,0.284c0.597,0,1.111-0.282,1.41-0.772l0.101-0.165c0.022,0.017,0.039,0.041,0.063,0.056l0.204,0.131
	c0.154,0.092,0.328,0.141,0.502,0.141c0.3,0,0.557-0.142,0.704-0.385l1.138-1.878c0.117-0.192,0.15-0.424,0.096-0.651
	c-0.06-0.236-0.211-0.443-0.418-0.566L34.73,26.29c-0.026-0.016-0.058-0.018-0.085-0.03l0.173-0.285
	c0.031-0.053,0.053-0.109,0.078-0.164l2.561-4.333c0.128,0.881,0.206,1.851,0.206,2.723c0.001,4.263-1.659,8.271-4.675,11.286
	C29.973,38.501,25.967,40.161,21.706,40.161z M21.7,17.406c-3.746,0.001-6.794,3.049-6.794,6.794s3.048,6.794,6.795,6.795
	c1.815,0,3.521-0.707,4.805-1.99c1.284-1.282,1.99-2.989,1.99-4.804c0-1.815-0.706-3.521-1.99-4.805
	C25.223,18.113,23.515,17.406,21.7,17.406z M25.091,27.591c-0.906,0.905-2.11,1.404-3.39,1.404
	c-2.644-0.001-4.795-2.151-4.795-4.795c0-2.643,2.151-4.793,4.796-4.794c1.28,0,2.483,0.499,3.389,1.405
	c0.906,0.906,1.404,2.109,1.404,3.39C26.496,25.48,25.997,26.686,25.091,27.591z M23.591,24.142c0,1.008-0.817,1.825-1.825,1.825
	s-1.825-0.816-1.825-1.825c0-1.008,0.817-1.825,1.825-1.825S23.591,23.134,23.591,24.142z M40.255,0H7.745C3.475,0,0,3.475,0,7.745
	v32.51C0,44.525,3.475,48,7.745,48h32.51C44.525,48,48,44.525,48,40.255V7.745C48,3.475,44.525,0,40.255,0z M46,40.255
	C46,43.423,43.423,46,40.255,46H7.745C4.577,46,2,43.423,2,40.255V7.745C2,4.577,4.577,2,7.745,2h32.51C43.423,2,46,4.577,46,7.745
	V40.255z M38.711,37.781c0.208-0.357,0.086-0.816-0.271-1.024c-0.358-0.207-0.817-0.086-1.025,0.272l-0.779,1.344
	c-0.021,0.037-0.024,0.077-0.039,0.116c-0.118-0.021-0.239-0.037-0.363-0.037c-1.17,0-2.123,0.952-2.123,2.122
	c0,0.516,0.192,0.982,0.5,1.351c-0.022,0.027-0.052,0.047-0.07,0.079l-0.786,1.365c-0.206,0.359-0.083,0.816,0.276,1.023
	c0.117,0.068,0.246,0.101,0.373,0.101c0.26,0,0.513-0.136,0.65-0.376l0.786-1.365c0.017-0.029,0.019-0.062,0.031-0.094
	c0.118,0.021,0.238,0.037,0.362,0.037c1.17,0,2.121-0.951,2.121-2.121c0-0.521-0.196-0.992-0.509-1.362
	c0.026-0.032,0.065-0.049,0.087-0.086L38.711,37.781z M36.232,41.695c-0.619,0-1.123-0.502-1.123-1.121s0.504-1.122,1.123-1.122
	s1.121,0.503,1.121,1.122S36.852,41.695,36.232,41.695z"/>
</svg>
