<?xml version="1.0" encoding="iso-8859-1"?>
<!-- Generator: Adobe Illustrator 16.0.4, SVG Export Plug-In . SVG Version: 6.00 Build 0)  -->
<!DOCTYPE svg PUBLIC "-//W3C//DTD SVG 1.1//EN" "http://www.w3.org/Graphics/SVG/1.1/DTD/svg11.dtd">
<svg version="1.1" id="Capa_1" xmlns="http://www.w3.org/2000/svg" xmlns:xlink="http://www.w3.org/1999/xlink" x="0px" y="0px"
	 width="48.007px" height="47.933px" viewBox="0 0 48.007 47.933" style="enable-background:new 0 0 48.007 47.933;"
	 xml:space="preserve">
<g id="Sharpie">
	<g>
		<g>
			<path d="M14.08,40.426c-0.255,0-0.51-0.097-0.705-0.291c-0.392-0.389-0.394-1.022-0.005-1.414l4.307-4.335
				c0.39-0.392,1.023-0.394,1.414-0.005c0.392,0.389,0.394,1.022,0.005,1.414L14.79,40.13C14.594,40.327,14.337,40.426,14.08,40.426
				z"/>
			<path d="M8.694,35.043c-0.254,0-0.509-0.097-0.704-0.29c-0.392-0.389-0.395-1.022-0.006-1.414l4.324-4.362
				c0.388-0.393,1.022-0.395,1.414-0.006c0.392,0.389,0.395,1.022,0.006,1.414l-4.324,4.362C9.209,34.945,8.952,35.043,8.694,35.043
				z"/>
			<path style="fill:none;stroke:#000000;stroke-width:2;stroke-linecap:round;stroke-linejoin:round;stroke-miterlimit:10;" d="
				M16.303,31.13"/>
			<path d="M9.07,43.062c-1.116,0-2.109-0.395-2.868-1.153c-0.988-0.986-1.334-2.414-0.975-4.02c0.338-1.513,1.276-3.07,2.71-4.505
				c0.391-0.391,1.023-0.391,1.414,0c0.391,0.39,0.391,1.023,0,1.414C8.203,35.947,7.432,37.2,7.18,38.325
				c-0.145,0.646-0.186,1.546,0.437,2.169c0.643,0.642,1.506,0.625,2.12,0.494c0.778-0.165,2.029-0.685,3.575-2.23
				c0.391-0.391,1.023-0.391,1.414,0c0.391,0.39,0.391,1.023,0,1.414c-1.498,1.498-3.08,2.457-4.575,2.773
				C9.781,43.023,9.419,43.062,9.07,43.062z"/>
		</g>
		<path d="M18.565,36.691c-0.265,0-0.52-0.105-0.707-0.293l-6.113-6.113c-0.39-0.39-0.391-1.022-0.001-1.413l15.511-15.546
			c0.188-0.188,0.442-0.294,0.708-0.294h0c0.265,0,0.52,0.105,0.707,0.293l6.112,6.113c0.39,0.39,0.391,1.022,0.001,1.413
			l-15.51,15.546C19.086,36.585,18.832,36.691,18.565,36.691L18.565,36.691z M13.866,29.577l4.699,4.699l14.097-14.13l-4.698-4.699
			L13.866,29.577z"/>
		<g>
			<path d="M34.436,21.785c-0.256,0-0.512-0.098-0.707-0.293c-0.391-0.39-0.391-1.023,0-1.414c0.397-0.397,0.819-0.814,1.255-1.245
				c2.818-2.786,6.326-6.252,7.403-8.653c0.226-0.504,0.819-0.729,1.322-0.503c0.504,0.226,0.729,0.818,0.503,1.322
				c-1.23,2.742-4.732,6.203-7.822,9.257c-0.433,0.428-0.852,0.842-1.247,1.237C34.948,21.688,34.691,21.785,34.436,21.785z"/>
			<path d="M27.32,14.671c-0.256,0-0.512-0.098-0.707-0.292c-0.391-0.391-0.391-1.023-0.001-1.414
				c0.59-0.59,1.221-1.246,1.877-1.927c2.772-2.877,5.915-6.138,8.501-7.255c0.505-0.219,1.096,0.014,1.314,0.521
				c0.219,0.507-0.014,1.095-0.521,1.314c-2.218,0.958-5.343,4.202-7.854,6.807c-0.665,0.69-1.305,1.354-1.902,1.952
				C27.833,14.574,27.576,14.671,27.32,14.671z"/>
			<path d="M43.274,11.613c-0.164,0-0.329-0.04-0.482-0.125c-0.483-0.267-0.659-0.875-0.392-1.359
				c0.345-0.625,0.68-0.906,1.143-1.296c0.308-0.259,0.692-0.582,1.266-1.156c1.154-1.154,1.705-3.201,0.581-4.498l-0.384-0.421
				c-1.521-1.387-3.497-0.771-4.752,0.485c-0.569,0.569-0.84,0.899-1.058,1.164c-0.356,0.434-0.592,0.7-1.284,1.144
				C37.446,5.85,36.828,5.714,36.53,5.25c-0.298-0.465-0.163-1.083,0.302-1.381c0.46-0.295,0.543-0.396,0.818-0.731
				c0.233-0.283,0.551-0.67,1.189-1.308c2.244-2.245,5.432-2.448,7.581-0.482l0.464,0.504c1.918,2.214,1.165,5.415-0.662,7.241
				c-0.635,0.635-1.073,1.003-1.393,1.272c-0.394,0.332-0.513,0.432-0.679,0.732C43.969,11.426,43.627,11.613,43.274,11.613z"/>
		</g>
	</g>
	<g>
		<g>
			<path d="M36.016,14.38c-0.192,0-0.384-0.073-0.53-0.22c-0.293-0.293-0.293-0.768,0-1.061l7.024-7.024
				c0.293-0.293,0.768-0.293,1.061,0s0.293,0.768,0,1.061l-7.024,7.024C36.399,14.307,36.208,14.38,36.016,14.38z"/>
			<path d="M34.324,12.694c-0.192,0-0.384-0.073-0.53-0.22c-0.293-0.293-0.293-0.768,0-1.061l7.026-7.026
				c0.293-0.293,0.768-0.293,1.061,0s0.293,0.768,0,1.061l-7.026,7.026C34.708,12.621,34.516,12.694,34.324,12.694z"/>
			<path d="M43.034,7.35c-0.192,0-0.384-0.073-0.531-0.22c-0.292-0.293-0.292-0.768,0.001-1.061
				c0.293-0.293,0.397-0.604,0.397-0.797c0-0.046-0.006-0.129-0.048-0.171c-0.043-0.043-0.127-0.049-0.174-0.049c0,0,0,0,0,0
				c-0.194,0-0.506,0.104-0.798,0.396c-0.293,0.293-0.768,0.293-1.061,0s-0.293-0.768,0-1.061c0.531-0.531,1.209-0.836,1.859-0.836
				c0,0,0.001,0,0.002,0c0.481,0,0.92,0.174,1.234,0.489c0.313,0.312,0.487,0.75,0.487,1.231c0,0.649-0.305,1.327-0.838,1.859
				C43.417,7.277,43.226,7.35,43.034,7.35z"/>
			<path d="M34.634,15.042c-0.467,0-0.904-0.16-1.233-0.488c-0.397-0.397-0.563-0.98-0.457-1.602
				c0.092-0.536,0.377-1.066,0.805-1.494c0.293-0.293,0.768-0.293,1.061,0s0.293,0.768,0,1.061
				c-0.207,0.207-0.348,0.457-0.387,0.686c-0.022,0.131-0.008,0.242,0.039,0.288c0.108,0.108,0.569,0.054,0.971-0.35
				c0.293-0.294,0.768-0.293,1.061-0.001c0.293,0.292,0.293,0.768,0.001,1.061C35.941,14.756,35.26,15.042,34.634,15.042z"/>
		</g>
		<path d="M18.636,30.714c-0.046,0-0.092-0.004-0.139-0.013c-0.407-0.077-0.675-0.468-0.599-0.875
			c0.351-1.872,1.513-3.065,3.361-3.451c1.516-0.316,2.241-1.291,2.287-2.115c0.069-1.247,0.499-2.972,3.427-3.557
			c0.409-0.084,0.801,0.183,0.882,0.588c0.081,0.406-0.182,0.801-0.588,0.882c-1.965,0.393-2.173,1.25-2.223,2.169
			c-0.078,1.397-1.184,3.021-3.479,3.501c-1.257,0.262-1.954,0.98-2.193,2.259C19.304,30.462,18.989,30.714,18.636,30.714z"/>
		<path d="M10.321,39.791c-0.192,0-0.384-0.073-0.53-0.22c-0.293-0.293-0.293-0.768,0-1.061l3.262-3.262
			c0.293-0.293,0.768-0.293,1.061,0s0.293,0.768,0,1.061l-3.262,3.262C10.705,39.717,10.513,39.791,10.321,39.791z"/>
	</g>
	<g>
		<path d="M31.235,47.933h-19.86c-0.552,0-1-0.448-1-1s0.448-1,1-1h19.86c0.552,0,1,0.448,1,1S31.788,47.933,31.235,47.933z"/>
		<path d="M31.235,41.124H18.706c-0.552,0-1-0.448-1-1s0.448-1,1-1h12.529c0.552,0,1,0.448,1,1S31.788,41.124,31.235,41.124z"/>
		<path d="M38.995,44.414H15.154c-0.552,0-1-0.448-1-1s0.448-1,1-1h23.841c0.552,0,1,0.448,1,1S39.547,44.414,38.995,44.414z"/>
	</g>
	<g>
		<g>
			<polygon points="3.025,43.168 0.5,45.702 2.71,47.11 5.143,45.283 			"/>
			<path d="M2.71,47.61c-0.093,0-0.187-0.026-0.269-0.079l-2.21-1.409c-0.128-0.081-0.212-0.216-0.229-0.367s0.036-0.3,0.143-0.408
				l2.525-2.533c0.094-0.094,0.221-0.147,0.354-0.147h0c0.132,0,0.26,0.053,0.354,0.146l2.117,2.114
				c0.103,0.103,0.155,0.245,0.145,0.389c-0.01,0.145-0.083,0.278-0.198,0.365L3.01,47.51C2.921,47.577,2.816,47.61,2.71,47.61z
				 M1.293,45.614l1.394,0.888l1.695-1.273l-1.355-1.354L1.293,45.614z"/>
		</g>
		<path d="M5.353,46.205c-0.014,0-0.028,0-0.042-0.001c-0.213-0.012-0.411-0.114-0.544-0.281c-0.006-0.008-0.654-0.818-1.187-1.354
			c-0.535-0.533-1.34-1.177-1.348-1.184c-0.167-0.133-0.269-0.331-0.281-0.544c-0.012-0.213,0.068-0.421,0.219-0.572l2.058-2.058
			c0.009-0.009,0.018-0.019,0.027-0.028l0.662-0.661c0.293-0.292,0.768-0.292,1.061,0.001c0.292,0.293,0.292,0.768,0,1.06
			l-2.165,2.165c0.266,0.229,0.572,0.502,0.831,0.76c0.258,0.26,0.533,0.568,0.762,0.835L7.545,42.2
			c0.292-0.293,0.768-0.295,1.061-0.002c0.293,0.292,0.294,0.768,0.002,1.061l-2.725,2.727C5.742,46.126,5.551,46.205,5.353,46.205z
			"/>
	</g>
</g>
<g>
</g>
<g>
</g>
<g>
</g>
<g>
</g>
<g>
</g>
<g>
</g>
<g>
</g>
<g>
</g>
<g>
</g>
<g>
</g>
<g>
</g>
<g>
</g>
<g>
</g>
<g>
</g>
<g>
</g>
</svg>
