<?xml version="1.0" encoding="iso-8859-1"?>
<!-- Generator: Adobe Illustrator 16.0.4, SVG Export Plug-In . SVG Version: 6.00 Build 0)  -->
<!DOCTYPE svg PUBLIC "-//W3C//DTD SVG 1.1//EN" "http://www.w3.org/Graphics/SVG/1.1/DTD/svg11.dtd">
<svg version="1.1" id="Capa_1" xmlns="http://www.w3.org/2000/svg" xmlns:xlink="http://www.w3.org/1999/xlink" x="0px" y="0px"
	 width="47.729px" height="40.169px" viewBox="0 0 47.729 40.169" style="enable-background:new 0 0 47.729 40.169;"
	 xml:space="preserve">
<g id="Meat_Cleaver">
	<g>
		<path d="M28.386,24.642c1.426-0.031,1.978,0.233,2.558,1.163c1.292,2.066,3.752,6.078,6.836,8.346
			c3.08,2.268,5.381,2.015,5.553,3.46c0.406,3.432,5.228,2.319,3.54-1.462c-2.088-4.678-5.289-6.569-6.975-8.022
			c-1.688-1.453-5.871-4.938-7.965-7.032l-1.788,1.789L28.386,24.642z"/>
		<path d="M45.323,40.169c-1.091,0-2.283-0.773-2.488-2.5c-0.053-0.443-0.458-0.646-1.603-1.109
			c-0.959-0.389-2.274-0.921-3.75-2.007c-3.078-2.264-5.536-6.198-6.856-8.312l-0.107-0.172c-0.436-0.698-0.774-0.93-1.921-0.93
			l-0.202,0.002c-0.19-0.011-0.39-0.116-0.471-0.304c-0.08-0.188-0.038-0.405,0.106-0.55l3.547-3.547
			c0.188-0.188,0.52-0.188,0.707,0c1.685,1.685,4.731,4.276,6.746,5.99l1.191,1.017c0.283,0.244,0.608,0.5,0.964,0.779
			c1.736,1.364,4.358,3.425,6.141,7.418c0.722,1.618,0.306,2.666-0.006,3.147C46.885,39.767,46.138,40.169,45.323,40.169z
			 M29.526,24.208c0.832,0.147,1.35,0.542,1.842,1.331l0.107,0.172c1.285,2.057,3.677,5.886,6.601,8.036
			c1.375,1.012,2.571,1.497,3.532,1.886c1.169,0.474,2.093,0.848,2.221,1.918c0.141,1.193,0.865,1.618,1.495,1.618
			c0.475,0,0.908-0.232,1.161-0.622c0.348-0.537,0.324-1.316-0.068-2.195c-1.681-3.767-4.088-5.659-5.845-7.04
			c-0.369-0.29-0.707-0.556-1-0.808l-1.187-1.013c-1.894-1.611-4.691-3.991-6.449-5.694L29.526,24.208z"/>
	</g>
	<path d="M21.619,32.004c-0.351,0-0.741-0.079-1.169-0.239C15.219,29.819,0.378,13.584,0.006,10.338
		C-0.285,7.824,9.932,0.8,10.035,0.73c2.075-1.401,4.171-0.783,6.232,1.839c1.357,1.729,14.494,16.578,15.973,18.056
		c0.011,0.011,0.021,0.022,0.031,0.033c0.009,0.008,0.018,0.017,0.026,0.025c0.391,0.39,0.391,1.023,0,1.414
		c-0.347,0.347-1.016,1.023-1.847,1.864c-2.587,2.615-6.497,6.567-7.604,7.586C22.515,31.852,22.104,32.004,21.619,32.004z
		 M2.016,10.206c0.323,1.088,3.54,5.465,8.888,11.037c6.176,6.434,9.764,8.76,10.662,8.764c1.176-1.099,5.098-5.062,7.461-7.452
		c0.442-0.447,0.839-0.848,1.166-1.178c-3.167-3.407-14.359-16.119-15.5-17.572c-1.622-2.064-2.587-2.059-3.54-1.417
		C8.038,4.493,2.588,8.964,2.016,10.206z"/>
	<path d="M24.428,29.556c-0.048,0-0.096-0.004-0.145-0.014C19.728,28.655,3.408,11.153,2.979,7.729
		c-0.052-0.411,0.24-0.786,0.651-0.837c0.414-0.047,0.786,0.24,0.837,0.651c0.359,2.868,16.109,19.749,20.104,20.527
		c0.406,0.079,0.672,0.473,0.593,0.88C25.093,29.307,24.779,29.556,24.428,29.556z"/>
	<path d="M12.15,8.464c-0.558,0-1.083-0.217-1.477-0.611c-0.813-0.815-0.813-2.14,0-2.954c0.788-0.789,2.167-0.79,2.955,0
		c0.394,0.394,0.61,0.918,0.61,1.476c0,0.558-0.218,1.083-0.613,1.477C13.233,8.247,12.708,8.464,12.15,8.464z M12.15,5.287
		c-0.292,0-0.565,0.113-0.77,0.319c-0.424,0.424-0.424,1.115,0,1.54c0.41,0.41,1.128,0.41,1.537,0
		c0.207-0.207,0.32-0.48,0.321-0.771c0-0.291-0.113-0.564-0.318-0.769C12.714,5.4,12.441,5.287,12.15,5.287z"/>
</g>
<g>
</g>
<g>
</g>
<g>
</g>
<g>
</g>
<g>
</g>
<g>
</g>
<g>
</g>
<g>
</g>
<g>
</g>
<g>
</g>
<g>
</g>
<g>
</g>
<g>
</g>
<g>
</g>
<g>
</g>
</svg>
