<?xml version="1.0" encoding="iso-8859-1"?>
<!-- Generator: Adobe Illustrator 16.0.4, SVG Export Plug-In . SVG Version: 6.00 Build 0)  -->
<!DOCTYPE svg PUBLIC "-//W3C//DTD SVG 1.1//EN" "http://www.w3.org/Graphics/SVG/1.1/DTD/svg11.dtd">
<svg version="1.1" id="Capa_1" xmlns="http://www.w3.org/2000/svg" xmlns:xlink="http://www.w3.org/1999/xlink" x="0px" y="0px"
	 width="47.799px" height="49.5px" viewBox="0 0 47.799 49.5" style="enable-background:new 0 0 47.799 49.5;" xml:space="preserve"
	>
<g id="Mute">
	<path d="M31.007,36.67c-3.895,0-5.996-6.966-5.996-13.521c0-6.554,2.102-13.519,5.996-13.519c3.896,0,5.998,6.965,5.998,13.521
		C37.005,29.704,34.903,36.67,31.007,36.67z M31.007,11.631c-1.668,0-3.996,4.382-3.996,11.521c0,7.138,2.328,11.521,3.996,11.521
		c1.669,0,3.998-4.383,3.998-11.521C35.005,16.013,32.676,11.631,31.007,11.631z"/>
	<path d="M31.013,36.67c-1.722,0-28.386-7.959-28.634-8.039C1.044,28.194,0,25.77,0,23.108c0-2.466,0.844-5.162,2.458-5.544
		c0.184-0.045,1.734-0.503,3.697-1.084c20.169-5.968,24.261-6.979,25.042-6.83c0.544,0.104,0.896,0.63,0.794,1.172
		c-0.099,0.508-0.567,0.856-1.07,0.806c-1.668,0.105-18.021,4.943-24.197,6.771c-2.559,0.755-3.606,1.063-3.805,1.111
		C2.691,19.662,2,20.95,2,23.108c0,2.057,0.766,3.444,1.07,3.651c1.412,0.451,26.279,7.771,27.963,7.91
		c0.53,0.044,0.963,0.499,0.944,1.032c-0.02,0.533-0.424,0.959-0.957,0.967C31.019,36.67,31.017,36.67,31.013,36.67z"/>
	<path d="M12.683,39.869c-0.788,0-1.583-0.124-2.363-0.374c-4.187-1.341-6.66-5.962-5.512-10.302
		c0.141-0.534,0.686-0.854,1.223-0.711c0.534,0.142,0.852,0.688,0.711,1.223c-0.88,3.327,0.999,6.864,4.189,7.886
		c1.49,0.479,3.053,0.335,4.401-0.403c1.404-0.771,2.413-2.087,2.839-3.71c0.14-0.533,0.685-0.854,1.222-0.714
		c0.534,0.143,0.853,0.688,0.713,1.224c-0.568,2.158-1.922,3.917-3.812,4.954C15.167,39.559,13.934,39.869,12.683,39.869z"/>
	<path d="M12.705,36.512c-0.487,0-0.979-0.074-1.461-0.229c-2.6-0.833-4.134-3.704-3.421-6.398c0.069-0.262,0.339-0.416,0.599-0.349
		c0.262,0.069,0.417,0.338,0.348,0.599c-0.582,2.199,0.662,4.538,2.772,5.217c0.992,0.315,2.031,0.22,2.927-0.271
		c0.932-0.511,1.602-1.385,1.885-2.461c0.068-0.262,0.341-0.422,0.598-0.349c0.262,0.066,0.418,0.337,0.349,0.599
		c-0.352,1.338-1.19,2.428-2.36,3.07C14.245,36.319,13.48,36.512,12.705,36.512z"/>
	<path d="M8.62,30.431c-0.104,0-0.209-0.017-0.313-0.05C6.632,29.836,5.27,26.574,5.27,23.11c0-3.738,1.34-6.873,3.117-7.293
		c0.537-0.124,1.076,0.207,1.203,0.744c0.127,0.534-0.205,1.072-0.741,1.2c-0.436,0.15-1.579,2.016-1.579,5.349
		c0,3.146,1.214,5.146,1.675,5.376c0.525,0.171,0.803,0.729,0.632,1.257C9.439,30.164,9.042,30.431,8.62,30.431z"/>
	<g>
		<path d="M31.382,26.674c-1.043,0-1.589-1.521-1.589-3.025c0-1.504,0.546-3.025,1.589-3.025c1.044,0,1.592,1.521,1.592,3.025
			S32.426,26.674,31.382,26.674z M31.379,21.621c-0.171,0.039-0.586,0.776-0.586,2.025c0,1.238,0.41,1.978,0.589,2.024
			c0.146-0.039,0.59-0.707,0.59-2.024C31.974,22.317,31.522,21.651,31.379,21.621z"/>
		<path d="M31.413,21.585c-0.068,0-0.137-0.014-0.204-0.044l-5.065-2.267c-0.252-0.112-0.365-0.408-0.252-0.66
			c0.113-0.251,0.407-0.367,0.662-0.252l5.064,2.267c0.252,0.112,0.365,0.408,0.252,0.66C31.786,21.476,31.604,21.585,31.413,21.585
			z"/>
		<path d="M26.349,28.978c-0.19,0-0.375-0.11-0.457-0.298c-0.113-0.252,0-0.548,0.252-0.658l5.064-2.27
			c0.252-0.116,0.547,0.001,0.661,0.252c0.112,0.252,0,0.548-0.252,0.66l-5.065,2.27C26.485,28.963,26.416,28.978,26.349,28.978z"/>
	</g>
	<g>
		<path d="M43.646,22.152c-0.127,0-0.256-0.049-0.354-0.146c-0.195-0.193-0.195-0.512,0-0.707l1.631-1.63
			c0.195-0.193,0.512-0.193,0.707,0c0.195,0.195,0.195,0.512,0,0.707L44,22.005C43.901,22.104,43.774,22.152,43.646,22.152z"/>
		<path d="M40.312,25.486c-0.127,0-0.256-0.049-0.354-0.146c-0.195-0.193-0.195-0.512,0-0.707l1.673-1.674
			c0.195-0.195,0.513-0.195,0.707,0c0.195,0.195,0.195,0.512,0,0.707l-1.673,1.674C40.567,25.438,40.438,25.486,40.312,25.486z"/>
		<path d="M45.308,23.813c-0.127,0-0.256-0.051-0.354-0.146c-0.195-0.195-0.195-0.512,0-0.707l1.63-1.631
			c0.194-0.195,0.513-0.195,0.707,0s0.194,0.512,0,0.707l-1.63,1.631C45.563,23.764,45.437,23.813,45.308,23.813z"/>
		<path d="M41.972,27.147c-0.127,0-0.256-0.051-0.354-0.146c-0.195-0.195-0.195-0.512,0-0.707l1.676-1.675
			c0.195-0.195,0.512-0.195,0.707,0s0.195,0.512,0,0.707l-1.676,1.675C42.228,27.098,42.101,27.147,41.972,27.147z"/>
		<path d="M41.983,23.813c-0.127,0-0.256-0.051-0.354-0.146l-1.649-1.652c-0.195-0.193-0.195-0.512,0-0.705
			c0.193-0.195,0.512-0.195,0.707,0l1.649,1.65c0.194,0.195,0.194,0.512,0,0.707C42.24,23.764,42.112,23.813,41.983,23.813z"/>
		<path d="M45.299,27.125c-0.128,0-0.256-0.049-0.354-0.146l-1.65-1.651c-0.193-0.195-0.193-0.512,0-0.707s0.514-0.195,0.707,0
			l1.65,1.651c0.195,0.193,0.195,0.512,0,0.707C45.556,27.076,45.427,27.125,45.299,27.125z"/>
		<path d="M43.646,22.152c-0.127,0-0.256-0.049-0.354-0.146l-1.652-1.65c-0.195-0.195-0.195-0.514,0-0.707
			c0.194-0.195,0.512-0.195,0.707,0L44,21.299c0.194,0.195,0.194,0.514,0,0.707C43.901,22.104,43.774,22.152,43.646,22.152z"/>
		<path d="M46.959,25.464c-0.128,0-0.256-0.049-0.354-0.146l-1.65-1.651c-0.195-0.195-0.195-0.512,0-0.707
			c0.193-0.195,0.512-0.195,0.707,0l1.65,1.651c0.195,0.193,0.195,0.512,0,0.707C47.215,25.415,47.087,25.464,46.959,25.464z"/>
		<path d="M46.129,27.461c-0.444,0-0.864-0.173-1.179-0.488c-0.195-0.194-0.195-0.513,0.001-0.705c0.194-0.195,0.512-0.195,0.707,0
			c0.251,0.252,0.692,0.252,0.944-0.004c0.262-0.261,0.263-0.686,0.002-0.944c-0.195-0.196-0.195-0.515,0-0.707
			c0.194-0.195,0.513-0.195,0.707,0c0.648,0.649,0.648,1.71,0,2.358C46.996,27.287,46.576,27.461,46.129,27.461z"/>
		<path d="M40.339,22.154c-0.128,0-0.256-0.049-0.354-0.146c-0.65-0.648-0.65-1.71,0.002-2.359c0.313-0.315,0.734-0.489,1.18-0.49
			h0.001c0.446,0,0.865,0.174,1.181,0.489c0.194,0.193,0.194,0.512,0,0.707c-0.195,0.193-0.513,0.193-0.707,0
			c-0.127-0.126-0.295-0.196-0.474-0.196l0,0c-0.178,0.001-0.347,0.07-0.474,0.197c-0.262,0.262-0.262,0.687-0.002,0.945
			c0.195,0.195,0.195,0.514,0,0.707C40.595,22.106,40.467,22.154,40.339,22.154z"/>
		<path d="M41.146,27.49c-0.444,0-0.865-0.174-1.182-0.49c-0.648-0.648-0.65-1.709-0.001-2.36c0.195-0.194,0.513-0.193,0.708-0.002
			c0.195,0.195,0.196,0.514,0.001,0.707c-0.261,0.264-0.261,0.688,0,0.948c0.127,0.127,0.295,0.197,0.476,0.197l0,0
			c0.18-0.001,0.347-0.07,0.472-0.196c0.194-0.196,0.512-0.193,0.708-0.002c0.193,0.195,0.195,0.512,0.001,0.707
			c-0.313,0.316-0.731,0.49-1.179,0.491C41.147,27.49,41.146,27.49,41.146,27.49z"/>
		<path d="M46.886,22.234c-0.128,0-0.255-0.049-0.353-0.146c-0.196-0.192-0.196-0.511-0.001-0.707c0.261-0.262,0.262-0.688,0-0.946
			c-0.262-0.262-0.686-0.263-0.947,0.001c-0.195,0.193-0.512,0.193-0.707,0c-0.195-0.195-0.195-0.514,0-0.707
			c0.65-0.65,1.709-0.652,2.361-0.001c0.65,0.648,0.65,1.71,0.001,2.36C47.142,22.186,47.015,22.234,46.886,22.234z"/>
	</g>
</g>
</svg>
