<?xml version="1.0" encoding="iso-8859-1"?>
<!-- Generator: Adobe Illustrator 16.0.4, SVG Export Plug-In . SVG Version: 6.00 Build 0)  -->
<!DOCTYPE svg PUBLIC "-//W3C//DTD SVG 1.1//EN" "http://www.w3.org/Graphics/SVG/1.1/DTD/svg11.dtd">
<svg version="1.1" id="Capa_1" xmlns="http://www.w3.org/2000/svg" xmlns:xlink="http://www.w3.org/1999/xlink" x="0px" y="0px"
	 width="48px" height="49px" viewBox="0 0 48 49" style="enable-background:new 0 0 48 49;" xml:space="preserve">
<g id="Envelope">
	<path d="M40.255,40.5H7.745C3.402,40.5,0,37.279,0,33.168V16.082C0,11.901,3.475,8.5,7.745,8.5h32.51
		C44.525,8.5,48,11.901,48,16.082v17.086C48,37.279,44.598,40.5,40.255,40.5z M7.745,10.5C4.577,10.5,2,13.004,2,16.082v17.086
		c0,2.99,2.523,5.332,5.745,5.332h32.51c3.222,0,5.745-2.342,5.745-5.332V16.082c0-3.078-2.577-5.582-5.745-5.582H7.745z"/>
	<path d="M24,33.5c-0.256,0-0.513-0.098-0.708-0.294L5.88,15.73c-0.39-0.392-0.389-1.024,0.003-1.414
		c0.391-0.391,1.024-0.391,1.414,0.002l17.411,17.476c0.39,0.392,0.39,1.024-0.003,1.414C24.512,33.402,24.255,33.5,24,33.5z"/>
	<path d="M24.062,33.5c-0.255,0-0.511-0.098-0.706-0.292c-0.392-0.39-0.393-1.022-0.003-1.414l17.413-17.476
		c0.389-0.393,1.022-0.394,1.414-0.002c0.391,0.39,0.393,1.022,0.002,1.414l-17.41,17.476C24.576,33.402,24.319,33.5,24.062,33.5z"
		/>
	<path d="M6.589,34.309c-0.255,0-0.511-0.097-0.706-0.291c-0.392-0.391-0.393-1.021-0.003-1.414l9.054-9.087
		c0.39-0.393,1.023-0.394,1.414-0.002c0.392,0.39,0.393,1.022,0.003,1.414l-9.054,9.087C7.102,34.211,6.845,34.309,6.589,34.309z"/>
	<path d="M41.475,34.309c-0.257,0-0.514-0.098-0.709-0.293l-9.125-9.161c-0.391-0.392-0.39-1.024,0.002-1.414
		c0.393-0.39,1.024-0.39,1.414,0.002l9.127,9.161c0.389,0.393,0.389,1.023-0.004,1.414C41.984,34.211,41.729,34.309,41.475,34.309z"
		/>
	<g>
		<g>
			<path style="fill:none;stroke:#000000;stroke-width:1.5;stroke-linecap:round;stroke-linejoin:round;stroke-miterlimit:10;" d="
				M20.531,21.542"/>
			<path style="fill:none;stroke:#000000;stroke-width:1.5;stroke-linecap:round;stroke-linejoin:round;stroke-miterlimit:10;" d="
				M24.02,20.721"/>
			<path d="M23.412,25.82c-0.166,0-0.333-0.055-0.472-0.166c-2.077-1.683-2.871-2.684-3.144-3.966
				c-0.246-1.163,0.477-2.69,1.906-3.025c1.357-0.314,2.727,0.526,3.047,1.886c0.095,0.402-0.155,0.807-0.558,0.901
				c-0.405,0.095-0.808-0.154-0.902-0.558c-0.13-0.554-0.69-0.898-1.245-0.769c-0.537,0.125-0.878,0.794-0.781,1.253
				c0.165,0.774,0.632,1.5,2.621,3.111c0.322,0.261,0.372,0.734,0.111,1.055C23.847,25.727,23.63,25.82,23.412,25.82z"/>
		</g>
		<g>
			<path d="M23.929,26c-0.001,0-0.002,0-0.002,0c-0.549-0.002-0.86-0.232-1.157-0.488c-0.313-0.271-0.347-0.745-0.076-1.059
				c0.271-0.312,0.745-0.345,1.058-0.076c0.112,0.098,0.15,0.121,0.161,0.126c0.414,0.002,0.758,0.337,0.757,0.751
				S24.342,26,23.929,26z"/>
		</g>
		<g>
			<path style="fill:none;stroke:#000000;stroke-width:1.5;stroke-linecap:round;stroke-linejoin:round;stroke-miterlimit:10;" d="
				M27.466,21.673"/>
			<path style="fill:none;stroke:#000000;stroke-width:1.5;stroke-linecap:round;stroke-linejoin:round;stroke-miterlimit:10;" d="
				M24.012,20.722"/>
			<path d="M24.454,25.841c-0.228,0-0.453-0.104-0.601-0.3c-0.249-0.332-0.181-0.802,0.15-1.051
				c2.048-1.535,2.542-2.242,2.737-3.011c0.115-0.453-0.201-1.133-0.733-1.278c-0.552-0.151-1.122,0.171-1.272,0.72
				c-0.109,0.4-0.523,0.634-0.921,0.523c-0.399-0.109-0.634-0.522-0.524-0.922c0.18-0.652,0.604-1.195,1.193-1.529
				c0.588-0.333,1.274-0.42,1.922-0.238c1.418,0.389,2.082,1.942,1.791,3.094c-0.321,1.27-1.152,2.239-3.293,3.842
				C24.768,25.792,24.609,25.841,24.454,25.841z"/>
		</g>
		<g>
			<path d="M23.96,26c-0.018,0-0.035,0-0.052,0c-0.414-0.012-0.74-0.357-0.729-0.771c0.012-0.413,0.384-0.713,0.771-0.729
				c0.032-0.001,0.07-0.022,0.186-0.115c0.322-0.26,0.793-0.21,1.055,0.111c0.26,0.322,0.209,0.795-0.112,1.055
				C24.795,25.779,24.477,26,23.96,26z"/>
		</g>
	</g>
</g>
</svg>
