<?xml version="1.0" encoding="iso-8859-1"?>
<!-- Generator: Adobe Illustrator 16.0.4, SVG Export Plug-In . SVG Version: 6.00 Build 0)  -->
<!DOCTYPE svg PUBLIC "-//W3C//DTD SVG 1.1//EN" "http://www.w3.org/Graphics/SVG/1.1/DTD/svg11.dtd">
<svg version="1.1" id="Capa_1" xmlns="http://www.w3.org/2000/svg" xmlns:xlink="http://www.w3.org/1999/xlink" x="0px" y="0px"
	 width="47.854px" height="47.854px" viewBox="0 0 47.854 47.854" style="enable-background:new 0 0 47.854 47.854;"
	 xml:space="preserve">
<g id="Next_Chapter">
	<path d="M23.929,47.854h-0.015C17.523,47.853,11.517,45.363,7,40.843c-4.518-4.52-7.003-10.528-7-16.918
		c-0.002-6.39,2.485-12.397,7.005-16.917C11.523,2.489,17.532,0,23.925,0c13.19,0,23.926,10.735,23.93,23.931
		C47.851,37.122,37.117,47.854,23.929,47.854z M23.925,2C18.066,2,12.56,4.281,8.419,8.422C4.277,12.563,1.998,18.069,2,23.925
		C1.997,29.781,4.275,35.287,8.414,39.43c4.14,4.142,9.645,6.424,15.5,6.424v1l0.014-1c12.087,0,21.923-9.835,21.927-21.923
		C45.851,11.838,36.013,2,23.925,2z"/>
	<path d="M23.942,43.285h-0.004c-5.169,0-10.03-2.015-13.687-5.672c-3.657-3.657-5.671-8.519-5.67-13.688
		c-0.001-5.169,2.013-10.03,5.669-13.687c3.657-3.657,8.519-5.672,13.689-5.672c5.176,0.001,10.038,2.016,13.694,5.673
		c3.656,3.656,5.669,8.517,5.668,13.686C43.305,34.598,34.62,43.283,23.942,43.285z M23.944,6.566
		c-4.641,0-8.999,1.806-12.278,5.086c-3.279,3.278-5.084,7.638-5.084,12.272c0,4.636,1.805,8.995,5.084,12.274
		c3.278,3.279,7.638,5.086,12.272,5.086v1l0.004-1c9.574-0.002,17.362-7.79,17.36-17.36c0.001-4.635-1.804-8.993-5.082-12.271
		C32.941,8.374,28.582,6.567,23.944,6.566z"/>
	<path d="M16.224,32.732c-0.162,0-0.324-0.039-0.472-0.118c-0.325-0.174-0.528-0.513-0.528-0.882v-15.82
		c0-0.369,0.203-0.707,0.528-0.882c0.323-0.174,0.718-0.155,1.025,0.05l11.88,7.908c0.279,0.185,0.446,0.497,0.446,0.832
		c0,0.334-0.167,0.646-0.445,0.832l-11.88,7.912C16.61,32.676,16.417,32.732,16.224,32.732z M17.224,17.779v12.086l9.075-6.045
		L17.224,17.779z"/>
	<path d="M31.363,32.839c-0.553,0-1-0.447-1-1V16.018c0-0.553,0.447-1,1-1s1,0.447,1,1v15.821
		C32.363,32.392,31.916,32.839,31.363,32.839z"/>
</g>
<g>
</g>
<g>
</g>
<g>
</g>
<g>
</g>
<g>
</g>
<g>
</g>
<g>
</g>
<g>
</g>
<g>
</g>
<g>
</g>
<g>
</g>
<g>
</g>
<g>
</g>
<g>
</g>
<g>
</g>
</svg>
