<?xml version="1.0" encoding="iso-8859-1"?>
<!-- Generator: Adobe Illustrator 16.0.4, SVG Export Plug-In . SVG Version: 6.00 Build 0)  -->
<!DOCTYPE svg PUBLIC "-//W3C//DTD SVG 1.1//EN" "http://www.w3.org/Graphics/SVG/1.1/DTD/svg11.dtd">
<svg version="1.1" id="Capa_1" xmlns="http://www.w3.org/2000/svg" xmlns:xlink="http://www.w3.org/1999/xlink" x="0px" y="0px"
	 width="48.004px" height="51px" viewBox="0 0 48.004 51" style="enable-background:new 0 0 48.004 51;" xml:space="preserve">
<g id="Camera">
	<path d="M40.258,44.5H7.748c-5.136,0-7.744-1.134-7.744-7.332V17.5c0-0.552,0.447-1,1-1c0.553,0,1,0.448,1,1v19.668
		c0,4.668,1.224,5.332,5.744,5.332h32.51c5.251,0,5.746-0.941,5.746-5.332V17.5c0-0.552,0.447-1,1-1s1,0.448,1,1v19.668
		C48.004,42.338,46.928,44.5,40.258,44.5z"/>
	<g>
		<path d="M3.13,13c-0.089,0-0.179-0.012-0.269-0.037c-0.532-0.147-0.843-0.698-0.696-1.231l1.25-4.5
			C3.535,6.799,3.93,6.5,4.379,6.5h6.791c0.413,0,0.784,0.254,0.933,0.64l0.771,2c0.199,0.515-0.058,1.094-0.572,1.293
			c-0.517,0.198-1.096-0.057-1.293-0.573L10.483,8.5H5.139l-1.046,3.768C3.97,12.71,3.567,13,3.13,13z"/>
		<path d="M4.973,12.292c-0.02,0-0.04-0.002-0.061-0.007c-0.134-0.035-0.216-0.17-0.182-0.304l1.125-4.5
			c0.033-0.133,0.166-0.214,0.303-0.182C6.292,7.333,6.374,7.468,6.34,7.602l-1.125,4.5C5.187,12.216,5.085,12.292,4.973,12.292z"/>
		<path d="M10.785,12.292c-0.112,0-0.214-0.076-0.242-0.189l-1.125-4.5C9.384,7.468,9.466,7.333,9.6,7.299
			c0.138-0.035,0.27,0.048,0.303,0.182l1.125,4.5c0.034,0.134-0.048,0.27-0.182,0.303C10.825,12.289,10.805,12.292,10.785,12.292z"
			/>
		<path d="M6.379,12.292c-0.011,0-0.021,0-0.032-0.002c-0.138-0.019-0.234-0.144-0.216-0.281l0.594-4.5
			c0.018-0.137,0.146-0.237,0.28-0.215c0.138,0.018,0.233,0.144,0.216,0.281l-0.594,4.5C6.61,12.2,6.503,12.292,6.379,12.292z"/>
		<path d="M9.316,12.292c-0.124,0-0.231-0.091-0.248-0.217l-0.594-4.5C8.457,7.438,8.553,7.312,8.69,7.293
			c0.135-0.022,0.262,0.078,0.28,0.215l0.594,4.5c0.018,0.138-0.078,0.263-0.215,0.282C9.338,12.291,9.327,12.292,9.316,12.292z"/>
		<path d="M7.879,12.333c-0.138,0-0.25-0.112-0.25-0.25V7.542c0-0.138,0.112-0.25,0.25-0.25c0.138,0,0.25,0.112,0.25,0.25v4.542
			C8.129,12.222,8.017,12.333,7.879,12.333z"/>
	</g>
	<path d="M47.004,17.875h-17.5c-0.553,0-1-0.448-1-1s0.447-1,1-1h17.5c0.553,0,1,0.448,1,1S47.557,17.875,47.004,17.875z"/>
	<path d="M1.014,17.817c-0.265,0-0.518-0.104-0.705-0.291c-0.188-0.187-0.294-0.441-0.295-0.706L0,12.091
		c-0.002-0.552,0.444-1.001,0.997-1.003l10-0.029l-0.005-1.531c-0.002-0.55,0.441-0.999,0.992-1.003l6.188-0.049l0.016,2
		l-5.192,0.042L13,12.053c0.001,0.265-0.104,0.52-0.291,0.708c-0.187,0.188-0.44,0.294-0.706,0.295l-10,0.029l0.008,2.729
		l16.25-0.048l0.006,2l-17.25,0.051C1.016,17.817,1.015,17.817,1.014,17.817z"/>
	<path d="M29.254,18.583h-10.5c-0.414,0-0.75-0.336-0.75-0.75v-10.5c0-0.414,0.336-0.75,0.75-0.75h10.5
		c0.414,0,0.75,0.336,0.75,0.75v10.5C30.004,18.248,29.668,18.583,29.254,18.583z M19.504,17.083h9v-9h-9V17.083z"/>
	<path d="M47.004,17.375c-0.553,0-1-0.448-1-1c0-4.463-0.248-5.875-5.453-5.875H29.504c-0.553,0-1-0.448-1-1s0.447-1,1-1h11.047
		c6.951,0,7.453,2.975,7.453,7.875C48.004,16.927,47.557,17.375,47.004,17.375z"/>
	<g>
		<path d="M21.275,9.917v5.4h5.458v-5.4H21.275z M24.013,14.328c-0.872,0-1.579-0.708-1.579-1.581c0-0.872,0.707-1.578,1.579-1.578
			c0.872,0,1.579,0.707,1.579,1.578C25.592,13.62,24.885,14.328,24.013,14.328z"/>
		<path d="M26.732,15.566h-5.458c-0.138,0-0.25-0.112-0.25-0.25v-5.4c0-0.138,0.112-0.25,0.25-0.25h5.458
			c0.138,0,0.25,0.112,0.25,0.25v5.4C26.982,15.455,26.87,15.566,26.732,15.566z M21.525,15.066h4.958v-4.9h-4.958V15.066z
			 M24.013,14.578c-1.009,0-1.829-0.821-1.829-1.831c0-1.008,0.82-1.828,1.829-1.828c1.008,0,1.829,0.82,1.829,1.828
			C25.842,13.757,25.021,14.578,24.013,14.578z M24.013,11.419c-0.732,0-1.329,0.596-1.329,1.328c0,0.734,0.597,1.331,1.329,1.331
			c0.732,0,1.329-0.597,1.329-1.331C25.342,12.015,24.745,11.419,24.013,11.419z"/>
	</g>
	<circle cx="14.17" cy="21.541" r="1.255"/>
	<path d="M23.877,23.902c-3.602,0-6.521,2.92-6.521,6.523c0,3.604,2.92,6.522,6.521,6.522c3.604,0,6.523-2.92,6.523-6.522
		C30.4,26.823,27.48,23.902,23.877,23.902z M23.877,33.686c-1.801,0-3.262-1.457-3.262-3.261c0-1.801,1.461-3.262,3.262-3.262
		c1.803,0,3.262,1.461,3.262,3.262C27.139,32.229,25.68,33.686,23.877,33.686z"/>
	<path d="M23.877,40.925c-5.79,0-10.5-4.71-10.5-10.5c0-5.79,4.71-10.501,10.5-10.501c5.791,0,10.502,4.711,10.502,10.501
		C34.379,36.214,29.668,40.925,23.877,40.925z M23.877,21.924c-4.687,0-8.5,3.813-8.5,8.501c0,4.687,3.813,8.5,8.5,8.5
		c4.688,0,8.502-3.813,8.502-8.5C32.379,25.737,28.564,21.924,23.877,21.924z"/>
</g>
</svg>
