<?xml version="1.0" encoding="iso-8859-1"?>
<!-- Generator: Adobe Illustrator 16.0.4, SVG Export Plug-In . SVG Version: 6.00 Build 0)  -->
<!DOCTYPE svg PUBLIC "-//W3C//DTD SVG 1.1//EN" "http://www.w3.org/Graphics/SVG/1.1/DTD/svg11.dtd">
<svg version="1.1" id="Capa_1" xmlns="http://www.w3.org/2000/svg" xmlns:xlink="http://www.w3.org/1999/xlink" x="0px" y="0px"
	 width="48px" height="48px" viewBox="0 0 48 48" style="enable-background:new 0 0 48 48;" xml:space="preserve">
<g id="Pinterest">
	<path d="M18.005,39.387c-0.138,0-0.272-0.025-0.4-0.076c-0.764-0.301-1.202-1.042,0.139-7.881c0.688-3.515,1.568-7.104,1.771-7.744
		c0.128-0.405,0.023-1.006-0.088-1.643c-0.159-0.909-0.338-1.939-0.024-3.04c0.368-1.288,1.539-2.12,2.984-2.12
		c1.549,0,3.196,1.034,3.196,2.951c0,1.232-0.367,2.365-0.691,3.365c-0.512,1.58-0.664,2.271-0.098,2.749
		c0.318,0.268,0.661,0.397,1.05,0.397c1.156,0,2.441-1.146,2.923-1.974c0.877-1.504,1.641-4.761-0.043-7.1
		c-1.531-2.127-3.677-2.573-5.209-2.573c-2.115,0-4.352,0.912-5.44,2.219c-1.125,1.35-1.594,2.904-1.394,4.62
		c0.107,0.927,0.488,1.756,0.823,2.486c0.531,1.158,1.258,2.743-0.563,3.593c-0.93,0.435-2.021,0.049-2.916-1.063
		c-1.424-1.772-2.457-5.421-1.675-8.965C13.583,12.001,19.044,9.5,23.91,9.5c6.231,0,10.759,3.689,11.535,9.399
		c0.77,5.667-1.583,10.489-5.995,12.287c-1.1,0.448-2.152,0.676-3.127,0.676c-1.596,0-2.737-0.606-3.486-1.223
		C20.899,36.445,19.275,39.387,18.005,39.387z M22.388,18.383c-0.603,0-1.324,0.271-1.542,1.032c-0.22,0.77-0.078,1.583,0.06,2.37
		c0.137,0.786,0.279,1.599,0.04,2.354c-0.453,1.429-2.461,10.283-2.574,13.209c0.911-1.407,2.376-5.075,3.428-8.361
		c0.086-0.27,0.317-0.468,0.596-0.512c0.28-0.05,0.56,0.071,0.726,0.301c0.428,0.593,1.415,1.587,3.202,1.587
		c0.78,0,1.642-0.19,2.561-0.564c4.566-1.86,5.588-6.925,5.075-10.697C33.29,14.18,29.346,11,23.91,11
		c-4.266,0-9.042,2.137-10.094,6.911c-0.672,3.051,0.209,6.246,1.38,7.703c0.415,0.517,0.809,0.784,1.111,0.644
		c0.39-0.182,0.471-0.22-0.166-1.607c-0.363-0.791-0.814-1.776-0.95-2.938c-0.249-2.141,0.333-4.077,1.731-5.755
		c1.375-1.649,4.024-2.758,6.593-2.758c2.661,0,4.943,1.136,6.426,3.196c2.114,2.936,1.231,6.831,0.122,8.732
		c-0.613,1.051-2.301,2.718-4.219,2.718c-0.747,0-1.425-0.253-2.017-0.751c-1.395-1.174-0.87-2.793-0.363-4.357
		c0.304-0.938,0.618-1.908,0.618-2.903C24.084,18.77,23.069,18.383,22.388,18.383z"/>
	<path d="M37.292,48H11.917C4.344,48,0,44.014,0,37.062V12.125C0,4.873,4.27,0,10.625,0h27.584C42.918,0,48,4.524,48,11.834v25.083
		C48,43.132,43.296,48,37.292,48z M10.625,2C4.259,2,2,7.454,2,12.125v24.938C2,44.449,7.393,46,11.917,46h25.375
		C42.256,46,46,42.095,46,36.917V11.834C46,5.76,41.956,2,38.209,2H10.625z"/>
	<path d="M37.135,43.326H10.938c-3.459,0-6.273-2.808-6.273-6.26V10.935c0-3.452,2.814-6.26,6.273-6.26h26.197
		c3.458,0,6.272,2.808,6.272,6.26v26.132C43.407,40.519,40.593,43.326,37.135,43.326z M10.938,6.659
		c-2.365,0-4.289,1.918-4.289,4.275v26.132c0,2.357,1.924,4.275,4.289,4.275h26.197c2.364,0,4.288-1.918,4.288-4.275V10.935
		c0-2.357-1.924-4.275-4.288-4.275H10.938z"/>
</g>
<g>
</g>
<g>
</g>
<g>
</g>
<g>
</g>
<g>
</g>
<g>
</g>
<g>
</g>
<g>
</g>
<g>
</g>
<g>
</g>
<g>
</g>
<g>
</g>
<g>
</g>
<g>
</g>
<g>
</g>
</svg>
