<?xml version="1.0" encoding="iso-8859-1"?>
<!-- Generator: Adobe Illustrator 16.0.4, SVG Export Plug-In . SVG Version: 6.00 Build 0)  -->
<!DOCTYPE svg PUBLIC "-//W3C//DTD SVG 1.1//EN" "http://www.w3.org/Graphics/SVG/1.1/DTD/svg11.dtd">
<svg version="1.1" id="Capa_1" xmlns="http://www.w3.org/2000/svg" xmlns:xlink="http://www.w3.org/1999/xlink" x="0px" y="0px"
	 width="48.084px" height="48.084px" viewBox="0 0 48.084 48.084" style="enable-background:new 0 0 48.084 48.084;"
	 xml:space="preserve">
<g id="Play">
	<path d="M24.055,48.084H24.04C10.789,48.084,0.004,37.3,0,24.045C0.004,10.786,10.79,0,24.044,0c6.423,0,12.461,2.501,17.002,7.041
		c4.541,4.541,7.04,10.578,7.038,16.998c0.003,6.421-2.495,12.458-7.033,17C36.512,45.582,30.476,48.084,24.055,48.084z M24.044,2
		C11.893,2,2.004,11.89,2,24.045c0.004,12.152,9.891,22.039,22.04,22.039h0.015c5.886,0,11.42-2.294,15.581-6.458
		s6.451-9.699,6.448-15.587c0.002-5.887-2.29-11.421-6.453-15.583C35.469,4.293,29.933,2,24.044,2z"/>
	<path d="M24.03,43.491h-0.003c-5.198-0.001-10.083-2.024-13.757-5.698c-3.674-3.673-5.696-8.558-5.695-13.754
		C4.572,13.316,13.297,4.591,24.024,4.588c0,0,0.002,0,0.002,0c5.196,0,10.08,2.023,13.755,5.698
		c3.675,3.674,5.698,8.559,5.697,13.753c0.001,5.194-2.022,10.079-5.696,13.754C34.108,41.468,29.225,43.491,24.03,43.491z
		 M24.026,6.588c0,0-0.001,0-0.002,0C14.4,6.591,6.572,14.419,6.574,24.039c-0.001,4.662,1.813,9.044,5.109,12.34
		s7.68,5.111,12.343,5.112l0.003,1v-1c4.66,0,9.042-1.815,12.338-5.112s5.111-7.68,5.11-12.34c0.001-4.66-1.814-9.042-5.112-12.339
		C33.07,8.403,28.688,6.588,24.026,6.588z"/>
	<path d="M19.928,32.887c-0.162,0-0.324-0.039-0.472-0.118c-0.325-0.174-0.528-0.513-0.528-0.882v-15.9
		c0-0.369,0.203-0.707,0.528-0.882c0.325-0.175,0.718-0.155,1.026,0.05l11.94,7.947c0.278,0.185,0.446,0.497,0.446,0.832
		c0,0.334-0.167,0.646-0.446,0.832l-11.94,7.953C20.315,32.83,20.122,32.887,19.928,32.887z M20.928,17.854V30.02l9.136-6.086
		L20.928,17.854z"/>
</g>
<g>
</g>
<g>
</g>
<g>
</g>
<g>
</g>
<g>
</g>
<g>
</g>
<g>
</g>
<g>
</g>
<g>
</g>
<g>
</g>
<g>
</g>
<g>
</g>
<g>
</g>
<g>
</g>
<g>
</g>
</svg>
