<?xml version="1.0" encoding="iso-8859-1"?>
<!-- Generator: Adobe Illustrator 16.0.4, SVG Export Plug-In . SVG Version: 6.00 Build 0)  -->
<!DOCTYPE svg PUBLIC "-//W3C//DTD SVG 1.1//EN" "http://www.w3.org/Graphics/SVG/1.1/DTD/svg11.dtd">
<svg version="1.1" id="Capa_1" xmlns="http://www.w3.org/2000/svg" xmlns:xlink="http://www.w3.org/1999/xlink" x="0px" y="0px"
	 width="48px" height="47px" viewBox="0 0 48 47" style="enable-background:new 0 0 48 47;" xml:space="preserve">
<g id="Post_Card">
	<path d="M40.255,39.5H7.745C3.402,39.5,0,36.279,0,32.168V15.082C0,10.901,3.475,7.5,7.745,7.5h32.51
		C44.525,7.5,48,10.901,48,15.082v17.086C48,36.279,44.598,39.5,40.255,39.5z M7.745,9.5C4.577,9.5,2,12.004,2,15.082v17.086
		c0,2.99,2.523,5.332,5.745,5.332h32.51c3.222,0,5.745-2.342,5.745-5.332V15.082c0-3.078-2.577-5.582-5.745-5.582H7.745z"/>
	<path d="M24,34.25c-0.414,0-0.75-0.336-0.75-0.75v-18c0-0.414,0.336-0.75,0.75-0.75s0.75,0.336,0.75,0.75v18
		C24.75,33.914,24.414,34.25,24,34.25z"/>
	<g>
		<g>
			<path style="fill:none;stroke:#000000;stroke-width:1.5;stroke-linecap:round;stroke-linejoin:round;stroke-miterlimit:10;" d="
				M35.6,16.059"/>
			<path style="fill:none;stroke:#000000;stroke-width:1.5;stroke-linecap:round;stroke-linejoin:round;stroke-miterlimit:10;" d="
				M38.87,15.114"/>
			<path d="M38.501,20.022c-0.153,0-0.308-0.047-0.44-0.145c-2.062-1.506-2.865-2.423-3.188-3.635
				c-0.294-1.107,0.328-2.614,1.688-3.007c0.629-0.182,1.289-0.109,1.861,0.208c0.572,0.315,0.987,0.835,1.168,1.462
				c0.114,0.398-0.115,0.814-0.513,0.929c-0.401,0.11-0.813-0.116-0.929-0.513c-0.068-0.241-0.229-0.442-0.451-0.563
				c-0.219-0.121-0.475-0.15-0.719-0.08c-0.485,0.14-0.769,0.766-0.658,1.181c0.191,0.719,0.666,1.379,2.623,2.809
				c0.336,0.244,0.408,0.713,0.164,1.048C38.961,19.916,38.732,20.022,38.501,20.022z"/>
		</g>
		<g>
			<path d="M38.954,20.168c-0.488,0-0.794-0.207-1.065-0.42c-0.326-0.256-0.383-0.728-0.127-1.053
				c0.254-0.325,0.727-0.385,1.053-0.127c0.104,0.082,0.142,0.102,0.149,0.106c0.446-0.041,0.767,0.299,0.784,0.713
				c0.02,0.413-0.301,0.76-0.715,0.778C39.006,20.167,38.979,20.168,38.954,20.168z"/>
		</g>
		<g>
			<path style="fill:none;stroke:#000000;stroke-width:1.5;stroke-linecap:round;stroke-linejoin:round;stroke-miterlimit:10;" d="
				M42.188,15.854"/>
			<path style="fill:none;stroke:#000000;stroke-width:1.5;stroke-linecap:round;stroke-linejoin:round;stroke-miterlimit:10;" d="
				M38.863,15.114"/>
			<path d="M39.488,19.991c-0.215,0-0.428-0.092-0.576-0.271c-0.266-0.318-0.221-0.792,0.098-1.057
				c1.864-1.549,2.299-2.237,2.444-2.968c0.084-0.418-0.236-1.025-0.729-1.134c-0.246-0.055-0.5-0.01-0.713,0.124
				c-0.214,0.136-0.361,0.346-0.416,0.591c-0.091,0.405-0.498,0.653-0.896,0.569c-0.404-0.091-0.659-0.491-0.569-0.896
				c0.143-0.637,0.523-1.181,1.076-1.531c0.551-0.351,1.204-0.462,1.844-0.322c1.383,0.307,2.098,1.771,1.874,2.894
				c-0.247,1.231-0.993,2.196-2.956,3.827C39.828,19.935,39.658,19.991,39.488,19.991z"/>
		</g>
		<g>
			<path d="M39,20.167c-0.407,0-0.74-0.325-0.75-0.733c-0.009-0.414,0.318-0.757,0.732-0.767l0,0c0.017,0,0.052-0.022,0.147-0.109
				c0.312-0.276,0.784-0.248,1.06,0.061c0.275,0.31,0.25,0.783-0.062,1.059c-0.271,0.241-0.58,0.479-1.112,0.49
				C39.012,20.167,39.005,20.167,39,20.167z"/>
		</g>
	</g>
	<path d="M19,26H8c-0.414,0-0.75-0.336-0.75-0.75S7.586,24.5,8,24.5h11c0.414,0,0.75,0.336,0.75,0.75S19.414,26,19,26z"/>
	<path d="M19,30H8c-0.414,0-0.75-0.336-0.75-0.75S7.586,28.5,8,28.5h11c0.414,0,0.75,0.336,0.75,0.75S19.414,30,19,30z"/>
	<path d="M19,34H8c-0.414,0-0.75-0.336-0.75-0.75S7.586,32.5,8,32.5h11c0.414,0,0.75,0.336,0.75,0.75S19.414,34,19,34z"/>
</g>
</svg>
