<?xml version="1.0" encoding="iso-8859-1"?>
<!-- Generator: Adobe Illustrator 16.0.4, SVG Export Plug-In . SVG Version: 6.00 Build 0)  -->
<!DOCTYPE svg PUBLIC "-//W3C//DTD SVG 1.1//EN" "http://www.w3.org/Graphics/SVG/1.1/DTD/svg11.dtd">
<svg version="1.1" id="Capa_1" xmlns="http://www.w3.org/2000/svg" xmlns:xlink="http://www.w3.org/1999/xlink" x="0px" y="0px"
	 width="47.854px" height="47.854px" viewBox="0 0 47.854 47.854" style="enable-background:new 0 0 47.854 47.854;"
	 xml:space="preserve">
<g id="Previous_Chapter">
	<path d="M23.938,47.854h-0.014C10.737,47.854,0.004,37.121,0,23.93C0.004,10.734,10.739,0,23.93,0
		c6.393,0,12.401,2.489,16.92,7.008c4.52,4.52,7.007,10.526,7.005,16.916c0.003,6.391-2.483,12.399-7,16.919
		C36.337,45.364,30.329,47.854,23.938,47.854z M23.93,2C11.842,2,2.004,11.838,2,23.93c0.004,12.089,9.84,21.924,21.926,21.924
		h0.013c5.856,0,11.361-2.281,15.501-6.424s6.418-9.649,6.415-15.506c0.002-5.855-2.277-11.36-6.419-15.502
		C35.295,4.281,29.788,2,23.93,2z"/>
	<path d="M23.916,43.284h-0.004c-10.678-0.002-19.362-8.688-19.36-19.36c-0.001-5.169,2.012-10.029,5.668-13.686
		c3.656-3.657,8.519-5.672,13.69-5.673c5.175,0,10.036,2.015,13.692,5.672c3.657,3.656,5.67,8.518,5.669,13.687
		c0.001,5.17-2.012,10.031-5.669,13.688C33.946,41.27,29.086,43.284,23.916,43.284z M23.914,6.565
		c-4.642,0.001-9.001,1.808-12.28,5.087c-3.278,3.278-5.083,7.637-5.082,12.271c-0.002,9.57,7.786,17.358,17.36,17.36l0.004,1v-1
		c4.635,0,8.994-1.806,12.272-5.086c3.278-3.279,5.084-7.639,5.083-12.274c0.001-4.635-1.805-8.994-5.083-12.272
		C32.909,8.371,28.551,6.565,23.914,6.565z"/>
	<path d="M31.631,32.732c-0.193,0-0.387-0.057-0.555-0.168l-11.881-7.912c-0.278-0.186-0.445-0.497-0.445-0.832
		s0.167-0.647,0.446-0.832l11.881-7.909c0.308-0.205,0.702-0.224,1.025-0.05c0.325,0.175,0.528,0.513,0.528,0.882v15.821
		c0,0.369-0.203,0.707-0.528,0.882C31.955,32.693,31.793,32.732,31.631,32.732z M21.555,23.82l9.076,6.045V17.778L21.555,23.82z"/>
	<path d="M16.491,32.839c-0.553,0-1-0.447-1-1V16.018c0-0.553,0.447-1,1-1s1,0.447,1,1v15.821
		C17.491,32.392,17.044,32.839,16.491,32.839z"/>
</g>
<g>
</g>
<g>
</g>
<g>
</g>
<g>
</g>
<g>
</g>
<g>
</g>
<g>
</g>
<g>
</g>
<g>
</g>
<g>
</g>
<g>
</g>
<g>
</g>
<g>
</g>
<g>
</g>
<g>
</g>
</svg>
