<?xml version="1.0" encoding="iso-8859-1"?>
<!-- Generator: Adobe Illustrator 16.0.4, SVG Export Plug-In . SVG Version: 6.00 Build 0)  -->
<!DOCTYPE svg PUBLIC "-//W3C//DTD SVG 1.1//EN" "http://www.w3.org/Graphics/SVG/1.1/DTD/svg11.dtd">
<svg version="1.1" id="Capa_1" xmlns="http://www.w3.org/2000/svg" xmlns:xlink="http://www.w3.org/1999/xlink" x="0px" y="0px"
	 width="48.085px" height="48.084px" viewBox="0 0 48.085 48.084" style="enable-background:new 0 0 48.085 48.084;"
	 xml:space="preserve">
<g id="Previous">
	<g>
		<path d="M23.315,32.788c-0.193,0-0.387-0.057-0.555-0.168L11.04,24.812c-0.278-0.186-0.445-0.498-0.445-0.832
			c0-0.335,0.167-0.647,0.446-0.832l11.721-7.801c0.307-0.205,0.701-0.223,1.026-0.05c0.324,0.175,0.527,0.513,0.527,0.882v5.402
			c0,0.553-0.447,1-1,1s-1-0.447-1-1v-3.535l-8.917,5.935l8.917,5.939v-3.713c0-0.553,0.447-1,1-1s1,0.447,1,1v5.58
			c0,0.369-0.203,0.707-0.528,0.882C23.64,32.749,23.478,32.788,23.315,32.788z"/>
		<g>
			<path d="M34.568,27.19H23.376c-0.553,0-1-0.447-1-1s0.447-1,1-1h11.192c0.553,0,1,0.447,1,1S35.121,27.19,34.568,27.19z"/>
			<path d="M34.568,22.618H23.371c-0.553,0-1-0.447-1-1s0.447-1,1-1h11.197c0.553,0,1,0.447,1,1S35.121,22.618,34.568,22.618z"/>
			<path d="M34.568,27.175c-0.553,0-1-0.447-1-1s0.447-1,1-1c0.279,0,0.686-0.498,0.686-1.278s-0.406-1.278-0.686-1.278
				c-0.553,0-1-0.447-1-1s0.447-1,1-1c1.506,0,2.686,1.44,2.686,3.278S36.074,27.175,34.568,27.175z"/>
		</g>
	</g>
	<path d="M24.055,48.084h-0.016C10.788,48.084,0.004,37.3,0,24.045C0.004,10.786,10.79,0,24.044,0
		c6.424,0,12.462,2.501,17.003,7.041c4.54,4.541,7.04,10.578,7.038,16.998c0.003,6.421-2.495,12.458-7.033,17
		C36.513,45.582,30.476,48.084,24.055,48.084z M24.044,2C11.893,2,2.004,11.89,2,24.045c0.004,12.152,9.891,22.039,22.04,22.039
		h0.015c5.887,0,11.421-2.294,15.582-6.458s6.451-9.699,6.448-15.587c0.002-5.887-2.29-11.421-6.452-15.583
		C35.47,4.293,29.934,2,24.044,2z"/>
	<path d="M24.03,43.491h-0.004c-5.198-0.001-10.083-2.024-13.757-5.698c-3.674-3.673-5.696-8.558-5.695-13.754
		C4.572,13.316,13.297,4.591,24.024,4.588c0,0,0.001,0,0.002,0c5.195,0,10.08,2.023,13.755,5.698
		c3.675,3.674,5.698,8.559,5.697,13.753c0.001,5.194-2.021,10.079-5.696,13.754C34.108,41.468,29.225,43.491,24.03,43.491z
		 M24.026,6.588c-0.001,0-0.001,0-0.002,0C14.4,6.591,6.572,14.419,6.574,24.039c-0.001,4.662,1.813,9.044,5.109,12.34
		s7.68,5.111,12.343,5.112l0.004,1v-1c4.66,0,9.042-1.815,12.338-5.112s5.111-7.68,5.11-12.34c0.001-4.66-1.814-9.042-5.111-12.339
		S28.688,6.588,24.026,6.588z"/>
</g>
<g>
</g>
<g>
</g>
<g>
</g>
<g>
</g>
<g>
</g>
<g>
</g>
<g>
</g>
<g>
</g>
<g>
</g>
<g>
</g>
<g>
</g>
<g>
</g>
<g>
</g>
<g>
</g>
<g>
</g>
</svg>
