<?xml version="1.0" encoding="iso-8859-1"?>
<!-- Generator: Adobe Illustrator 16.0.4, SVG Export Plug-In . SVG Version: 6.00 Build 0)  -->
<!DOCTYPE svg PUBLIC "-//W3C//DTD SVG 1.1//EN" "http://www.w3.org/Graphics/SVG/1.1/DTD/svg11.dtd">
<svg version="1.1" id="Capa_1" xmlns="http://www.w3.org/2000/svg" xmlns:xlink="http://www.w3.org/1999/xlink" x="0px" y="0px"
	 width="44.931px" height="47.954px" viewBox="0 0 44.931 47.954" style="enable-background:new 0 0 44.931 47.954;"
	 xml:space="preserve">
<g id="Question_Bubble">
	<g>
		<path d="M4.011,47.954c-0.214,0-0.425-0.068-0.601-0.2c-0.268-0.201-0.417-0.522-0.397-0.856l0.7-12.329
			c0.031-0.552,0.503-0.971,1.055-0.941c0.552,0.031,0.973,0.503,0.941,1.055l-0.614,10.83l10.224-3.609
			c0.524-0.18,1.093,0.09,1.276,0.61s-0.09,1.092-0.61,1.276L4.344,47.897C4.235,47.936,4.123,47.954,4.011,47.954z"/>
		<path d="M22.412,44.926c-2.394,0-4.755-0.386-7.052-1.153l0.633-1.896c3.036,1.014,6.194,1.295,9.39,0.834
			c5.412-0.78,10.195-3.62,13.469-7.996c3.272-4.375,4.646-9.764,3.865-15.174c-1.607-11.162-12-18.941-23.168-17.331
			C14.14,2.987,9.357,5.827,6.083,10.205c-3.274,4.377-4.648,9.765-3.868,15.172c0.446,3.112,1.564,6,3.321,8.583l-1.654,1.125
			c-1.93-2.837-3.156-6.007-3.647-9.423c-0.855-5.936,0.652-11.851,4.247-16.655c3.595-4.806,8.845-7.923,14.782-8.778
			c12.266-1.754,23.669,6.773,25.433,19.026c0.856,5.938-0.65,11.854-4.244,16.657c-3.593,4.804-8.844,7.921-14.784,8.778
			C24.578,44.847,23.492,44.926,22.412,44.926z"/>
	</g>
	<g>
		<g>
			<path style="fill:none;stroke:#000000;stroke-width:1.5;stroke-linecap:round;stroke-linejoin:round;stroke-miterlimit:10;" d="
				M19.789,16.571"/>
			<path style="fill:none;stroke:#000000;stroke-width:1.5;stroke-linecap:round;stroke-linejoin:round;stroke-miterlimit:10;" d="
				M15.945,16.658"/>
			<path d="M17.91,18.798c-0.006,0-0.012,0-0.018,0c-1.459-0.006-2.514-0.804-2.689-2.033c-0.059-0.41,0.226-0.79,0.636-0.849
				c0.41-0.071,0.791,0.226,0.849,0.636c0.093,0.646,0.798,0.744,1.21,0.746c0.006,0,0.013,0,0.02,0c1,0,1.031-0.228,1.115-0.83
				c0.058-0.409,0.435-0.698,0.847-0.64c0.41,0.058,0.696,0.437,0.64,0.847C20.311,18.162,19.529,18.798,17.91,18.798z"/>
		</g>
		<g>
			<path style="fill:none;stroke:#000000;stroke-width:1.5;stroke-linecap:round;stroke-linejoin:round;stroke-miterlimit:10;" d="
				M23.547,27.692"/>
			<path style="fill:none;stroke:#000000;stroke-width:1.5;stroke-linecap:round;stroke-linejoin:round;stroke-miterlimit:10;" d="
				M19.731,27.692"/>
			<path d="M21.635,29.85c-1.488,0-2.653-0.947-2.653-2.157c0-0.414,0.336-0.75,0.75-0.75s0.75,0.336,0.75,0.75
				c0,0.311,0.493,0.657,1.153,0.657c0.659,0,1.151-0.347,1.151-0.657c0-0.414,0.336-0.75,0.75-0.75s0.75,0.336,0.75,0.75
				C24.286,28.902,23.121,29.85,21.635,29.85z"/>
		</g>
		<path d="M23.534,28.442C23.534,28.442,23.534,28.442,23.534,28.442c-0.415,0-0.75-0.336-0.75-0.751
			c0.001-1.057,0.017-2.893,0.113-3.31c0.078-0.342,0.3-0.515,0.96-1.027c1.388-1.076,4.636-3.598,4.636-6.733
			c0-3.911-1.988-5.895-5.908-5.895c-2.157,0-3.824,0.582-4.821,1.684c-0.89,0.982-1.252,2.374-1.076,4.137
			c0.041,0.412-0.26,0.779-0.672,0.82c-0.408,0.044-0.779-0.259-0.82-0.672c-0.22-2.201,0.271-3.982,1.456-5.292
			c1.289-1.424,3.341-2.177,5.934-2.177c4.708,0,7.408,2.695,7.408,7.395c0,3.87-3.655,6.707-5.216,7.919
			c-0.181,0.141-0.331,0.253-0.436,0.341c-0.034,0.479-0.057,1.741-0.058,2.812C24.284,28.106,23.948,28.442,23.534,28.442z
			 M18.989,27.709c0,0-0.053-2.414-0.053-3.962c0-1.141,1.117-1.937,2.41-2.857c1.563-1.113,3.335-2.376,3.335-4.269
			c0-1.607-0.49-2.098-2.097-2.098c-1.318,0-1.964,0.333-2.066,2.226c-0.022,0.413-0.361,0.737-0.79,0.708
			c-0.413-0.022-0.73-0.376-0.708-0.79c0.136-2.485,1.268-3.644,3.564-3.644c2.42,0,3.597,1.177,3.597,3.598
			c0,2.666-2.291,4.298-3.965,5.49c-0.751,0.535-1.78,1.269-1.78,1.636c0,1.534,0.053,3.927,0.053,3.929L18.989,27.709z"/>
	</g>
	<path d="M21.665,37.351c-1.519,0-2.754-1.236-2.754-2.756s1.235-2.755,2.754-2.755s2.754,1.235,2.754,2.755
		S23.184,37.351,21.665,37.351z M21.665,33.34c-0.691,0-1.254,0.562-1.254,1.255s0.562,1.256,1.254,1.256s1.254-0.563,1.254-1.256
		S22.356,33.34,21.665,33.34z"/>
</g>
<g>
</g>
<g>
</g>
<g>
</g>
<g>
</g>
<g>
</g>
<g>
</g>
<g>
</g>
<g>
</g>
<g>
</g>
<g>
</g>
<g>
</g>
<g>
</g>
<g>
</g>
<g>
</g>
<g>
</g>
</svg>
