<?xml version="1.0" encoding="iso-8859-1"?>
<!-- Generator: Adobe Illustrator 16.0.4, SVG Export Plug-In . SVG Version: 6.00 Build 0)  -->
<!DOCTYPE svg PUBLIC "-//W3C//DTD SVG 1.1//EN" "http://www.w3.org/Graphics/SVG/1.1/DTD/svg11.dtd">
<svg version="1.1" id="Capa_1" xmlns="http://www.w3.org/2000/svg" xmlns:xlink="http://www.w3.org/1999/xlink" x="0px" y="0px"
	 width="28.422px" height="47.871px" viewBox="0 0 28.422 47.871" style="enable-background:new 0 0 28.422 47.871;"
	 xml:space="preserve">
<g id="Wine_Glass">
	<g>
		<path d="M23.656,12.165c0,5.321-4.115,9.179-9.194,9.179c-5.07,0-9.188-3.896-9.188-9.179c0,0,3.467,2.225,9.226,0
			C20.55,9.827,23.656,12.165,23.656,12.165z"/>
		<path d="M14.462,22.343c-5.713,0-10.188-4.471-10.188-10.179c0-0.366,0.199-0.702,0.521-0.877c0.319-0.176,0.711-0.163,1.02,0.036
			c0.007,0.004,1.367,0.831,3.734,0.831l0,0c1.464,0,3.008-0.31,4.591-0.921c1.899-0.734,3.725-1.106,5.424-1.106
			c2.962,0,4.526,1.113,4.695,1.24c0.251,0.189,0.398,0.485,0.398,0.799C24.656,17.872,20.179,22.343,14.462,22.343z M6.414,13.715
			c0.706,3.82,3.988,6.628,8.048,6.628c4.479,0,7.901-3.231,8.177-7.607c-0.531-0.248-1.564-0.61-3.076-0.61
			c-1.452,0-3.034,0.327-4.703,0.972c-1.813,0.701-3.601,1.056-5.312,1.056l0,0C8.263,14.153,7.207,13.95,6.414,13.715z"/>
	</g>
	<g>
		<path d="M14.197,6.356c-2.717,0-11.581-0.229-11.581-3.178S11.48,0,14.197,0c2.716,0,11.578,0.229,11.578,3.178
			S16.913,6.356,14.197,6.356z M4.978,3.178c1.15,0.506,4.314,1.178,9.22,1.178c4.904,0,8.067-0.672,9.217-1.178
			C22.265,2.672,19.102,2,14.197,2C9.291,2,6.128,2.672,4.978,3.178z"/>
		<path d="M11.752,43.707c-0.393,0-0.765-0.233-0.925-0.619c-0.158-0.384-0.06-0.811,0.217-1.087
			c0.651-1.778,0.708-15.086,0.396-16.696c-0.165-0.527,0.136-1.063,0.663-1.228c0.528-0.162,1.095,0.154,1.26,0.682
			c0.245,0.787,0.271,6.442,0.229,9.295c-0.13,9.029-0.774,9.295-1.457,9.577C12.009,43.682,11.88,43.707,11.752,43.707z"/>
		<path d="M16.71,43.707c-0.127,0-0.257-0.024-0.381-0.076c-0.684-0.282-1.328-0.547-1.458-9.577
			c-0.041-2.853-0.016-8.508,0.229-9.295c0.165-0.528,0.729-0.82,1.253-0.657c0.515,0.161,0.807,0.698,0.668,1.214
			C16.711,26.98,16.768,40.227,17.418,42c0.276,0.277,0.375,0.704,0.217,1.088C17.476,43.473,17.103,43.706,16.71,43.707z"/>
		<path d="M16.341,25.998c-0.484,0-0.909-0.352-0.987-0.845c-0.085-0.545,0.287-1.058,0.833-1.143
			c6.026-0.947,10.235-5.922,10.235-12.097c0-1.128-0.444-3.517-2.56-8.489c-0.217-0.508,0.021-1.096,0.528-1.312
			c0.507-0.216,1.096,0.021,1.312,0.529c1.83,4.301,2.72,7.334,2.72,9.272c0,7.182-4.903,12.969-11.925,14.072
			C16.444,25.994,16.393,25.998,16.341,25.998z"/>
		<path d="M12.081,25.998c-0.052,0-0.104-0.004-0.156-0.012C4.903,24.882,0,19.095,0,11.913c0-1.938,0.89-4.971,2.72-9.272
			c0.216-0.508,0.804-0.745,1.312-0.529C4.539,2.328,4.776,2.916,4.56,3.424C2.444,8.396,2,10.785,2,11.913
			c0,6.175,4.209,11.149,10.235,12.097c0.546,0.085,0.918,0.598,0.833,1.143C12.99,25.646,12.565,25.998,12.081,25.998z"/>
		<path d="M14.224,47.871c-8.96,0-9.414-2.336-9.414-2.805c0-1.886,3.977-3.089,6.665-3.309c0.542-0.045,1.033,0.365,1.078,0.915
			c0.045,0.551-0.365,1.033-0.916,1.078c-2.012,0.165-3.647,0.783-4.429,1.233c1.076,0.404,3.609,0.887,7.016,0.887
			c3.405,0,5.938-0.482,7.017-0.887c-0.775-0.448-2.387-1.061-4.363-1.228c-0.551-0.047-0.959-0.531-0.912-1.081
			c0.046-0.55,0.538-0.956,1.08-0.912c2.66,0.226,6.595,1.431,6.595,3.303C23.64,45.535,23.186,47.871,14.224,47.871z"/>
	</g>
</g>
<g>
</g>
<g>
</g>
<g>
</g>
<g>
</g>
<g>
</g>
<g>
</g>
<g>
</g>
<g>
</g>
<g>
</g>
<g>
</g>
<g>
</g>
<g>
</g>
<g>
</g>
<g>
</g>
<g>
</g>
</svg>
