<?xml version="1.0" encoding="iso-8859-1"?>
<!-- Generator: Adobe Illustrator 16.0.4, SVG Export Plug-In . SVG Version: 6.00 Build 0)  -->
<!DOCTYPE svg PUBLIC "-//W3C//DTD SVG 1.1//EN" "http://www.w3.org/Graphics/SVG/1.1/DTD/svg11.dtd">
<svg version="1.1" id="Capa_1" xmlns="http://www.w3.org/2000/svg" xmlns:xlink="http://www.w3.org/1999/xlink" x="0px" y="0px"
	 width="47.854px" height="47.854px" viewBox="0 0 47.854 47.854" style="enable-background:new 0 0 47.854 47.854;"
	 xml:space="preserve">
<g id="Rewind">
	<path d="M23.938,47.854h-0.014C10.737,47.854,0.004,37.121,0,23.93C0.004,10.734,10.739,0,23.93,0c6.392,0,12.4,2.489,16.92,7.008
		c4.52,4.52,7.007,10.527,7.005,16.916c0.003,6.391-2.483,12.399-7,16.919C36.337,45.364,30.329,47.854,23.938,47.854z M23.93,2
		C11.842,2,2.004,11.838,2,23.93c0.004,12.089,9.84,21.924,21.926,21.924h0.013c5.856,0,11.361-2.281,15.501-6.424
		s6.418-9.649,6.415-15.506c0.002-5.855-2.278-11.36-6.419-15.502C35.294,4.281,29.787,2,23.93,2z"/>
	<path d="M23.916,43.284h-0.004c-10.678-0.002-19.362-8.688-19.36-19.36C4.55,13.252,13.233,4.567,23.91,4.564c0,0,0.001,0,0.002,0
		c5.17,0,10.031,2.014,13.688,5.671c3.658,3.657,5.672,8.519,5.671,13.688c0.001,5.17-2.013,10.031-5.669,13.688
		S29.085,43.284,23.916,43.284z M23.912,6.564c-0.001,0-0.001,0-0.002,0c-9.573,0.003-17.36,7.79-17.358,17.359
		c-0.002,9.57,7.786,17.358,17.36,17.36l0.004,1v-1c4.635,0,8.993-1.806,12.272-5.086c3.278-3.279,5.084-7.639,5.083-12.274
		c0.001-4.636-1.805-8.995-5.085-12.274C32.907,8.37,28.548,6.564,23.912,6.564z"/>
	<g>
		<path d="M24.825,32.938c-0.193,0-0.387-0.057-0.555-0.168L12.39,24.857c-0.278-0.186-0.445-0.498-0.445-0.832
			c0-0.335,0.167-0.647,0.446-0.832l11.881-7.908c0.308-0.204,0.7-0.223,1.026-0.05c0.324,0.175,0.527,0.513,0.527,0.882v15.82
			c0,0.369-0.203,0.707-0.528,0.882C25.149,32.898,24.987,32.938,24.825,32.938z M14.749,24.025l9.076,6.045V17.984L14.749,24.025z"
			/>
		<path d="M32.044,32.855c-0.193,0-0.387-0.057-0.555-0.168l-7.211-4.797c-0.461-0.306-0.587-0.926-0.282-1.386
			c0.305-0.461,0.924-0.588,1.386-0.282l5.662,3.766V17.901l-5.653,3.763c-0.462,0.306-1.082,0.182-1.387-0.277
			c-0.307-0.46-0.182-1.081,0.277-1.387l7.209-4.798c0.308-0.203,0.7-0.223,1.026-0.049c0.324,0.175,0.527,0.514,0.527,0.882v15.82
			c0,0.369-0.203,0.707-0.528,0.882C32.368,32.816,32.206,32.855,32.044,32.855z"/>
	</g>
</g>
<g>
</g>
<g>
</g>
<g>
</g>
<g>
</g>
<g>
</g>
<g>
</g>
<g>
</g>
<g>
</g>
<g>
</g>
<g>
</g>
<g>
</g>
<g>
</g>
<g>
</g>
<g>
</g>
<g>
</g>
</svg>
