<?xml version="1.0" encoding="iso-8859-1"?>
<!-- Generator: Adobe Illustrator 16.0.4, SVG Export Plug-In . SVG Version: 6.00 Build 0)  -->
<!DOCTYPE svg PUBLIC "-//W3C//DTD SVG 1.1//EN" "http://www.w3.org/Graphics/SVG/1.1/DTD/svg11.dtd">
<svg version="1.1" id="Capa_1" xmlns="http://www.w3.org/2000/svg" xmlns:xlink="http://www.w3.org/1999/xlink" x="0px" y="0px"
	 width="48.085px" height="48.084px" viewBox="0 0 48.085 48.084" style="enable-background:new 0 0 48.085 48.084;"
	 xml:space="preserve">
<g id="Next">
	<g>
		<path d="M24.77,32.789c-0.162,0-0.324-0.039-0.472-0.118c-0.325-0.175-0.528-0.513-0.528-0.882v-5.58c0-0.553,0.447-1,1-1
			s1,0.447,1,1v3.713l8.917-5.939l-8.917-5.936v3.535c0,0.553-0.447,1-1,1s-1-0.447-1-1V16.18c0-0.369,0.203-0.707,0.528-0.882
			c0.323-0.174,0.719-0.154,1.025,0.05l11.721,7.803c0.279,0.185,0.446,0.497,0.446,0.832c0,0.334-0.167,0.646-0.445,0.832
			l-11.721,7.807C25.156,32.732,24.963,32.789,24.77,32.789z"/>
		<g>
			<path d="M24.709,27.191H13.517c-0.553,0-1-0.447-1-1s0.447-1,1-1h11.192c0.553,0,1,0.447,1,1S25.262,27.191,24.709,27.191z"/>
			<path d="M24.713,22.619H13.517c-0.553,0-1-0.447-1-1s0.447-1,1-1h11.196c0.553,0,1,0.447,1,1S25.266,22.619,24.713,22.619z"/>
			<path d="M13.517,27.176c-1.507,0-2.687-1.439-2.687-3.277c0-1.839,1.18-3.279,2.687-3.279c0.553,0,1,0.447,1,1s-0.447,1-1,1
				c-0.28,0-0.687,0.498-0.687,1.279c0,0.779,0.406,1.277,0.687,1.277c0.553,0,1,0.447,1,1S14.069,27.176,13.517,27.176z"/>
		</g>
	</g>
	<path d="M24.045,48.084H24.03c-6.422-0.001-12.458-2.502-16.997-7.045C2.495,36.498-0.003,30.46,0,24.039
		c-0.002-6.42,2.498-12.456,7.038-16.997C11.579,2.501,17.617,0,24.041,0c13.254,0,24.04,10.786,24.044,24.045
		C48.081,37.3,37.297,48.084,24.045,48.084z M24.041,2C18.152,2,12.616,4.293,8.452,8.456C4.29,12.619,1.998,18.153,2,24.039
		c-0.003,5.888,2.287,11.423,6.448,15.587s9.695,6.458,15.582,6.458v1l0.014-1c12.15,0,22.037-9.887,22.041-22.039
		C46.081,11.89,36.192,2,24.041,2z"/>
	<path d="M24.059,43.492h-0.004c-5.194,0-10.078-2.024-13.753-5.699c-3.674-3.675-5.697-8.56-5.696-13.754
		c-0.001-5.193,2.022-10.078,5.698-13.753c3.675-3.675,8.561-5.698,13.757-5.698c10.728,0.004,19.452,8.729,19.45,19.451
		c0.001,5.196-2.021,10.081-5.695,13.755S29.256,43.491,24.059,43.492z M24.061,6.588c-4.662,0-9.045,1.815-12.343,5.113
		c-3.298,3.297-5.113,7.678-5.112,12.338c-0.001,4.66,1.814,9.043,5.11,12.34c3.297,3.298,7.679,5.113,12.339,5.113v1l0.004-1
		c4.663-0.001,9.047-1.816,12.343-5.112s5.11-7.679,5.109-12.341C41.513,14.42,33.685,6.592,24.061,6.588z"/>
</g>
<g>
</g>
<g>
</g>
<g>
</g>
<g>
</g>
<g>
</g>
<g>
</g>
<g>
</g>
<g>
</g>
<g>
</g>
<g>
</g>
<g>
</g>
<g>
</g>
<g>
</g>
<g>
</g>
<g>
</g>
</svg>
