<?xml version="1.0" encoding="iso-8859-1"?>
<!-- Generator: Adobe Illustrator 16.0.4, SVG Export Plug-In . SVG Version: 6.00 Build 0)  -->
<!DOCTYPE svg PUBLIC "-//W3C//DTD SVG 1.1//EN" "http://www.w3.org/Graphics/SVG/1.1/DTD/svg11.dtd">
<svg version="1.1" id="Capa_1" xmlns="http://www.w3.org/2000/svg" xmlns:xlink="http://www.w3.org/1999/xlink" x="0px" y="0px"
	 width="29.38px" height="47.849px" viewBox="0 0 29.38 47.849" style="enable-background:new 0 0 29.38 47.849;"
	 xml:space="preserve">
<g id="Safety_Pin">
	<path d="M20.512,44.234c-1.349,0-2.446-1.097-2.446-2.445c0-1.349,1.097-2.446,2.446-2.446s2.446,1.097,2.446,2.446
		C22.958,43.137,21.861,44.234,20.512,44.234z M20.512,40.343c-0.797,0-1.446,0.648-1.446,1.446c0,0.797,0.649,1.445,1.446,1.445
		s1.446-0.648,1.446-1.445C21.958,40.992,21.309,40.343,20.512,40.343z"/>
	<g>
		<path d="M28.38,18.737h-6.363c-0.552,0-1-0.448-1-1v-6.743c0-0.552,0.448-1,1-1s1,0.448,1,1v5.743h4.363V6.999
			C27.037,3.868,24.468,2,20.497,2c-3.97,0-6.538,1.868-6.881,4.999v9.663h4.326v-5.668c0-0.552,0.448-1,1-1s1,0.448,1,1v6.668
			c0,0.552-0.448,1-1,1h-6.326c-0.552,0-1-0.448-1-1V6.946c0-0.034,0.002-0.067,0.005-0.101C12.051,2.623,15.452,0,20.497,0
			c5.046,0,8.448,2.623,8.877,6.845c0.003,0.034,0.005,0.067,0.005,0.101v10.791C29.38,18.29,28.932,18.737,28.38,18.737z"/>
		<path d="M22.031,12.019c-0.288,0-0.573-0.124-0.771-0.362c-0.353-0.425-0.293-1.056,0.132-1.408c0.318-0.263,0.5-0.65,0.5-1.062
			c0-0.76-0.619-1.379-1.38-1.379c-0.76,0-1.379,0.619-1.379,1.379c0,0.397,0.172,0.776,0.471,1.039
			c0.415,0.365,0.455,0.997,0.09,1.412c-0.365,0.415-0.997,0.455-1.412,0.09c-0.731-0.643-1.15-1.569-1.15-2.541
			c0-1.863,1.516-3.379,3.379-3.379c1.864,0,3.38,1.516,3.38,3.379c0,1.009-0.446,1.958-1.225,2.602
			C22.481,11.943,22.255,12.019,22.031,12.019z"/>
		<path d="M20.504,47.849c-3.362,0-6.097-2.735-6.097-6.097c0-3.362,2.735-6.098,6.097-6.098c3.363,0,6.099,2.735,6.099,6.098
			C26.603,45.113,23.867,47.849,20.504,47.849z M20.504,37.654c-2.259,0-4.097,1.838-4.097,4.098s1.838,4.097,4.097,4.097
			c2.26,0,4.099-1.838,4.099-4.097S22.764,37.654,20.504,37.654z"/>
		<path d="M23.005,38.167c-0.227,0-0.455-0.077-0.642-0.234c-0.423-0.355-0.479-0.986-0.124-1.409
			c0.841-1.137,1.177-10.53,1.004-18.579c-0.012-0.552,0.426-1.009,0.979-1.021c0.579,0.027,1.01,0.426,1.021,0.979
			c0.089,4.153,0.246,17.86-1.472,19.907C23.574,38.045,23.291,38.167,23.005,38.167z"/>
		<path d="M25.853,42.746c-0.296,0-0.59-0.131-0.788-0.383c-0.341-0.435-0.265-1.063,0.17-1.404
			c1.166-1.219,1.806-13.002,1.721-23.212c-0.004-0.552,0.439-1.003,0.992-1.008c0.003,0,0.006,0,0.008,0
			c0.548,0,0.996,0.442,1,0.992c0.057,6.827-0.071,22.909-2.486,24.803C26.287,42.676,26.069,42.746,25.853,42.746z"/>
		<path d="M15.424,43.566c-0.309,0-0.612-0.142-0.808-0.41C2.75,26.93,0.122,12.973,0.016,12.387
			c-0.099-0.543,0.262-1.063,0.805-1.162c0.548-0.098,1.063,0.262,1.163,0.805c0.025,0.14,2.67,14.116,14.246,29.946
			c0.326,0.446,0.229,1.072-0.217,1.397C15.835,43.504,15.628,43.566,15.424,43.566z"/>
		<path d="M16.51,39.632c-0.38,0-0.743-0.218-0.911-0.587C7.164,20.481,0.373,12.982,0.305,12.909
			c-0.374-0.406-0.347-1.039,0.059-1.413c0.407-0.374,1.039-0.348,1.412,0.058c0.284,0.308,7.054,7.76,15.644,26.665
			c0.228,0.503,0.006,1.096-0.497,1.324C16.789,39.603,16.649,39.632,16.51,39.632z"/>
	</g>
</g>
<g>
</g>
<g>
</g>
<g>
</g>
<g>
</g>
<g>
</g>
<g>
</g>
<g>
</g>
<g>
</g>
<g>
</g>
<g>
</g>
<g>
</g>
<g>
</g>
<g>
</g>
<g>
</g>
<g>
</g>
</svg>
