<?xml version="1.0" encoding="iso-8859-1"?>
<!-- Generator: Adobe Illustrator 16.0.4, SVG Export Plug-In . SVG Version: 6.00 Build 0)  -->
<!DOCTYPE svg PUBLIC "-//W3C//DTD SVG 1.1//EN" "http://www.w3.org/Graphics/SVG/1.1/DTD/svg11.dtd">
<svg version="1.1" id="Capa_1" xmlns="http://www.w3.org/2000/svg" xmlns:xlink="http://www.w3.org/1999/xlink" x="0px" y="0px"
	 width="38.749px" height="47.583px" viewBox="0 0 38.749 47.583" style="enable-background:new 0 0 38.749 47.583;"
	 xml:space="preserve">
<g id="Scissors">
	<path d="M30.639,16.221c-0.552,0-1-0.448-1-1s0.448-1,1-1c3.369,0,6.11-2.741,6.11-6.109c0-3.37-2.741-6.111-6.11-6.111
		s-6.11,2.742-6.11,6.111c0,0.891,0.187,1.749,0.556,2.549c0.231,0.502,0.012,1.096-0.49,1.327c-0.502,0.232-1.096,0.013-1.327-0.49
		c-0.491-1.065-0.739-2.205-0.739-3.386c0-4.473,3.638-8.111,8.11-8.111s8.11,3.639,8.11,8.111
		C38.749,12.583,35.111,16.221,30.639,16.221z"/>
	<path d="M30.729,11.754c-2.017,0-3.657-1.641-3.657-3.658c0-2.017,1.641-3.657,3.657-3.657s3.657,1.641,3.657,3.657
		C34.386,10.113,32.745,11.754,30.729,11.754z M30.729,5.939c-1.189,0-2.157,0.968-2.157,2.157c0,1.19,0.968,2.158,2.157,2.158
		s2.157-0.968,2.157-2.158C32.886,6.907,31.918,5.939,30.729,5.939z"/>
	<path d="M7.415,16.188c-0.032,0-0.065-0.001-0.098-0.005C3.146,15.778,0,12.308,0,8.111C0,3.639,3.638,0,8.109,0
		c4.473,0,8.111,3.639,8.111,8.111c0,0.673-0.083,1.342-0.245,1.988c-0.161,0.637-0.4,1.254-0.712,1.834
		c-0.261,0.486-0.869,0.669-1.354,0.408c-0.486-0.261-0.669-0.867-0.408-1.354c0.234-0.436,0.414-0.899,0.534-1.377
		c0.123-0.486,0.185-0.991,0.185-1.5C14.221,4.742,11.479,2,8.109,2C4.741,2,2,4.742,2,8.111c0,3.162,2.369,5.776,5.511,6.081
		c0.55,0.053,0.952,0.542,0.898,1.092C8.359,15.801,7.924,16.188,7.415,16.188z"/>
	<path d="M8.18,11.754c-2.017,0-3.657-1.641-3.657-3.658c0-2.017,1.641-3.657,3.657-3.657c2.017,0,3.658,1.641,3.658,3.657
		C11.838,10.113,10.197,11.754,8.18,11.754z M8.18,5.939c-1.189,0-2.157,0.968-2.157,2.157c0,1.19,0.968,2.158,2.157,2.158
		c1.19,0,2.158-0.968,2.158-2.158C10.338,6.907,9.37,5.939,8.18,5.939z"/>
	<path d="M19.376,20.596c-0.33,0-0.652-0.163-0.843-0.46c-0.298-0.465-0.163-1.083,0.302-1.381c1.858-1.191,4.023-2.772,4.498-3.369
		v-3.967c0-0.552,0.448-1,1-1s1,0.448,1,1v4.167c0,0.482,0,1.38-5.418,4.853C19.748,20.544,19.561,20.596,19.376,20.596z"/>
	<path d="M19.331,20.596c-0.185,0-0.372-0.051-0.539-0.158c-5.418-3.473-5.418-4.37-5.418-4.853v-4.167c0-0.552,0.448-1,1-1
		s1,0.448,1,1v3.967c0.475,0.597,2.64,2.178,4.498,3.369c0.465,0.298,0.601,0.917,0.302,1.381
		C19.983,20.433,19.661,20.596,19.331,20.596z"/>
	<path d="M30.086,47.427c-0.023,0-0.047-0.001-0.07-0.002c-0.292-0.021-0.562-0.168-0.735-0.405
		c-0.165-0.224-16.502-22.43-18.637-25.439c-2.545-3.587-3.759-5.752-3.809-5.843c-0.269-0.482-0.096-1.091,0.386-1.36
		c0.484-0.269,1.092-0.095,1.361,0.386c0.012,0.021,1.218,2.172,3.693,5.66c1.836,2.588,14.271,19.502,17.728,24.203
		c0.604-1.537,1.022-4.732-2.043-9.937l-4.977-8.453c-0.208-0.353-0.179-0.797,0.072-1.121c0.047-0.06,4.684-6.055,6.486-10.201
		c0.22-0.506,0.811-0.739,1.316-0.518c0.506,0.22,0.738,0.809,0.518,1.316c-1.596,3.67-5.116,8.48-6.328,10.088l4.636,7.874
		c5.305,9.009,1.291,13.275,1.117,13.453C30.612,47.32,30.354,47.427,30.086,47.427z"/>
	<path d="M9.229,47.583c-0.17,0-0.343-0.043-0.5-0.135c-0.216-0.125-2.111-1.342-2-5.395c0.108-3.955,6.385-15.628,7.1-16.946
		c0.263-0.485,0.869-0.665,1.356-0.402c0.485,0.264,0.665,0.871,0.402,1.356c-1.88,3.465-6.778,13.102-6.859,16.046
		c-0.035,1.294,0.176,2.162,0.417,2.724l8.757-14.027c0.292-0.468,0.908-0.612,1.378-0.318c0.468,0.292,0.611,0.909,0.318,1.378
		l-9.52,15.249C9.89,47.416,9.563,47.583,9.229,47.583z"/>
	<path d="M19.332,25.751c-1.148,0-2.083-0.935-2.083-2.084s0.935-2.084,2.083-2.084c1.149,0,2.084,0.935,2.084,2.084
		S20.481,25.751,19.332,25.751z M19.332,22.583c-0.597,0-1.083,0.486-1.083,1.084s0.486,1.084,1.083,1.084
		c0.598,0,1.084-0.486,1.084-1.084S19.93,22.583,19.332,22.583z"/>
</g>
<g>
</g>
<g>
</g>
<g>
</g>
<g>
</g>
<g>
</g>
<g>
</g>
<g>
</g>
<g>
</g>
<g>
</g>
<g>
</g>
<g>
</g>
<g>
</g>
<g>
</g>
<g>
</g>
<g>
</g>
</svg>
