<?xml version="1.0" encoding="iso-8859-1"?>
<!-- Generator: Adobe Illustrator 16.0.4, SVG Export Plug-In . SVG Version: 6.00 Build 0)  -->
<!DOCTYPE svg PUBLIC "-//W3C//DTD SVG 1.1//EN" "http://www.w3.org/Graphics/SVG/1.1/DTD/svg11.dtd">
<svg version="1.1" id="Capa_1" xmlns="http://www.w3.org/2000/svg" xmlns:xlink="http://www.w3.org/1999/xlink" x="0px" y="0px"
	 width="47.923px" height="47.979px" viewBox="0 0 47.923 47.979" style="enable-background:new 0 0 47.923 47.979;"
	 xml:space="preserve">
<g id="Search">
	<g>
		<g>
			<polyline points="43.067,46.461 31.34,34.766 34.668,31.437 46.398,43.132 			"/>
			<path d="M43.067,47.458c-0.255,0-0.509-0.097-0.704-0.291L30.636,35.472c-0.188-0.187-0.292-0.44-0.293-0.705
				c0-0.265,0.105-0.519,0.292-0.706l3.328-3.329c0.389-0.388,1.019-0.391,1.409-0.001l11.73,11.695
				c0.39,0.389,0.391,1.021,0.002,1.41s-1.02,0.392-1.41,0.002L34.669,32.846l-1.918,1.919l11.021,10.99
				c0.39,0.389,0.391,1.021,0.002,1.41C43.579,47.36,43.323,47.458,43.067,47.458z"/>
		</g>
		<g>
			<path d="M46.409,43.143c0.778,0.771,0.666,2.155-0.254,3.073c-0.918,0.916-2.294,1.031-3.075,0.258"/>
			<path d="M44.382,47.979c-0.746,0-1.464-0.263-2.004-0.796c-0.391-0.388-0.394-1.02-0.007-1.41
				c0.387-0.393,1.018-0.396,1.41-0.008c0.385,0.384,1.149,0.265,1.669-0.255c0.305-0.304,0.479-0.693,0.479-1.067
				c0-0.17-0.04-0.41-0.222-0.591c-0.391-0.388-0.394-1.02-0.007-1.41c0.387-0.393,1.018-0.395,1.41-0.008
				c0.522,0.518,0.811,1.229,0.812,2.005c0.002,0.901-0.386,1.807-1.064,2.483C46.158,47.621,45.251,47.979,44.382,47.979z"/>
		</g>
	</g>
	<path d="M19.833,39.682c-5.301,0-10.284-2.065-14.032-5.815c-7.734-7.733-7.734-20.319,0-28.057C9.548,2.063,14.532,0,19.833,0
		c5.3,0,10.282,2.063,14.027,5.81c3.749,3.748,5.814,8.73,5.814,14.03s-2.065,10.281-5.814,14.026
		C30.115,37.616,25.133,39.682,19.833,39.682z M19.833,2c-4.767,0-9.248,1.855-12.618,5.224c-6.955,6.957-6.955,18.274,0,25.229
		c3.37,3.372,7.851,5.229,12.618,5.229c4.766,0,9.245-1.857,12.612-5.229c3.372-3.368,5.229-7.847,5.229-12.612
		c0-4.765-1.856-9.246-5.228-12.616C29.078,3.855,24.599,2,19.833,2z"/>
	<path d="M19.832,35.046c-4.062,0-7.88-1.581-10.751-4.451c-5.929-5.932-5.929-15.578,0-21.504c2.871-2.871,6.688-4.453,10.75-4.453
		c4.061,0,7.879,1.582,10.752,4.453c2.872,2.87,4.453,6.688,4.453,10.751s-1.582,7.882-4.453,10.753
		C27.712,33.465,23.894,35.046,19.832,35.046z M19.831,6.638c-3.527,0-6.843,1.374-9.336,3.867c-5.149,5.146-5.149,13.524,0,18.676
		c2.493,2.492,5.809,3.865,9.336,3.865s6.844-1.373,9.337-3.865c2.494-2.494,3.867-5.811,3.867-9.339s-1.374-6.844-3.867-9.337
		C26.674,8.012,23.358,6.638,19.831,6.638z"/>
	<path d="M12.37,24.5c-0.547,0-0.994-0.44-1-0.989c-0.025-2.296,0.846-4.463,2.452-6.103c1.607-1.641,3.757-2.557,6.055-2.579
		c0.033,0,0.066-0.001,0.099-0.001c2.257,0,4.386,0.87,6.004,2.455c1.642,1.609,2.557,3.76,2.578,6.057
		c0.005,0.552-0.438,1.004-0.991,1.009c-0.003,0-0.006,0-0.009,0c-0.548,0-0.995-0.441-1-0.991
		c-0.016-1.762-0.718-3.411-1.978-4.646c-1.259-1.233-2.901-1.865-4.682-1.883c-1.765,0.018-3.415,0.72-4.647,1.979
		c-1.232,1.258-1.9,2.92-1.881,4.682c0.006,0.552-0.437,1.005-0.989,1.011C12.377,24.5,12.374,24.5,12.37,24.5z"/>
	<path d="M19.964,26.073c-2.133,0-3.889-1.736-3.915-3.871c-0.018-2.16,1.721-3.934,3.878-3.957c2.172,0,3.924,1.737,3.949,3.873
		c0.011,1.048-0.386,2.035-1.117,2.781c-0.731,0.747-1.71,1.164-2.757,1.174H19.964z M19.971,20.245
		c-1.078,0.012-1.93,0.88-1.921,1.937c0.013,1.042,0.872,1.892,1.915,1.892v1l0.019-1c0.512-0.005,0.991-0.208,1.348-0.573
		c0.357-0.364,0.551-0.848,0.546-1.359C21.865,21.096,21.01,20.245,19.971,20.245z"/>
	<path d="M15.497,16.685c-0.342,0-0.676-0.176-0.862-0.492l-1.437-2.436c-0.281-0.476-0.123-1.089,0.354-1.369
		c0.474-0.279,1.088-0.123,1.369,0.354l1.437,2.436c0.281,0.476,0.123,1.089-0.354,1.369C15.845,16.64,15.67,16.685,15.497,16.685z"
		/>
	<path d="M19.904,15.468c-0.548,0-0.994-0.44-1-0.989l-0.029-2.816c-0.006-0.553,0.438-1.005,0.99-1.011c0.003,0,0.007,0,0.01,0
		c0.548,0,0.994,0.44,1,0.989l0.029,2.816c0.006,0.553-0.438,1.005-0.99,1.011C19.911,15.468,19.908,15.468,19.904,15.468z"/>
	<path d="M24.403,16.667c-0.166,0-0.334-0.041-0.49-0.129c-0.481-0.271-0.652-0.881-0.38-1.361l1.385-2.459
		c0.271-0.481,0.878-0.654,1.362-0.381c0.481,0.271,0.652,0.881,0.38,1.361l-1.385,2.459C25.092,16.483,24.753,16.667,24.403,16.667
		z"/>
</g>
<g>
</g>
<g>
</g>
<g>
</g>
<g>
</g>
<g>
</g>
<g>
</g>
<g>
</g>
<g>
</g>
<g>
</g>
<g>
</g>
<g>
</g>
<g>
</g>
<g>
</g>
<g>
</g>
<g>
</g>
</svg>
