<?xml version="1.0" encoding="iso-8859-1"?>
<!-- Generator: Adobe Illustrator 16.0.4, SVG Export Plug-In . SVG Version: 6.00 Build 0)  -->
<!DOCTYPE svg PUBLIC "-//W3C//DTD SVG 1.1//EN" "http://www.w3.org/Graphics/SVG/1.1/DTD/svg11.dtd">
<svg version="1.1" id="Capa_1" xmlns="http://www.w3.org/2000/svg" xmlns:xlink="http://www.w3.org/1999/xlink" x="0px" y="0px"
	 width="35.36px" height="47.935px" viewBox="0 0 35.36 47.935" style="enable-background:new 0 0 35.36 47.935;"
	 xml:space="preserve">
<g id="Shopping_Bag">
	<path d="M31.826,47.935H3.535C1.586,47.935,0,46.193,0,44.052l0.982-30.815C0.981,11.194,2.501,9.63,4.517,9.63h4.496
		c0.553,0,1,0.448,1,1s-0.447,1-1,1H4.517c-0.918,0-1.535,0.658-1.535,1.638L1.999,44.083C2,45.09,2.688,45.935,3.535,45.935h28.291
		c0.847,0,1.535-0.845,1.535-1.883L32.381,13.3c-0.001-1.012-0.618-1.67-1.536-1.67h-4.456c-0.553,0-1-0.448-1-1s0.447-1,1-1h4.456
		c2.016,0,3.535,1.564,3.535,3.638l0.98,30.752C35.361,46.193,33.775,47.935,31.826,47.935z"/>
	<path d="M22.668,11.611H12.386c-0.542,0-0.981-0.439-0.981-0.981s0.439-0.981,0.981-0.981h10.282c0.542,0,0.981,0.439,0.981,0.981
		S23.21,11.611,22.668,11.611z"/>
	<g>
		<g>
			<path style="fill:none;stroke:#000000;stroke-width:1.5;stroke-linecap:round;stroke-linejoin:round;stroke-miterlimit:10;" d="
				M23.205,38.126"/>
			<path style="fill:none;stroke:#000000;stroke-width:1.5;stroke-linecap:round;stroke-linejoin:round;stroke-miterlimit:10;" d="
				M26.722,38.096"/>
			<path d="M25.198,42.88c-0.223,0-0.442-0.098-0.59-0.286c-1.626-2.065-2.17-3.196-2.153-4.484
				c0.016-1.173,1.043-2.487,2.495-2.498c0.672-0.018,1.294,0.247,1.771,0.714c0.478,0.468,0.744,1.094,0.75,1.762
				c0.004,0.414-0.329,0.753-0.743,0.757c-0.398-0.021-0.753-0.33-0.757-0.743c-0.002-0.267-0.109-0.517-0.3-0.704
				c-0.188-0.185-0.438-0.286-0.7-0.286c-0.004,0-0.007,0-0.01,0c-0.536,0.004-1.001,0.562-1.007,1.017
				c-0.01,0.773,0.279,1.565,1.831,3.537c0.257,0.325,0.2,0.797-0.125,1.053C25.523,42.828,25.36,42.88,25.198,42.88z"/>
		</g>
		<g>
			<path d="M25.652,43.161c-0.056,0-0.113-0.006-0.171-0.02c-0.528-0.124-0.786-0.425-1.006-0.723
				c-0.245-0.333-0.174-0.803,0.16-1.048c0.334-0.246,0.803-0.174,1.049,0.16c0.083,0.114,0.113,0.144,0.123,0.151
				c0.403,0.094,0.661,0.498,0.567,0.901C26.294,42.928,25.991,43.161,25.652,43.161z"/>
		</g>
		<g>
			<path style="fill:none;stroke:#000000;stroke-width:1.5;stroke-linecap:round;stroke-linejoin:round;stroke-miterlimit:10;" d="
				M29.812,39.754"/>
			<path style="fill:none;stroke:#000000;stroke-width:1.5;stroke-linecap:round;stroke-linejoin:round;stroke-miterlimit:10;" d="
				M26.714,38.096"/>
			<path d="M26.19,43.122c-0.286,0-0.561-0.165-0.685-0.444c-0.169-0.378,0-0.822,0.379-0.991c2.287-1.023,2.911-1.591,3.264-2.282
				c0.206-0.404,0.053-1.112-0.419-1.364c-0.236-0.127-0.509-0.154-0.763-0.077c-0.256,0.077-0.466,0.25-0.592,0.485
				c-0.194,0.364-0.649,0.504-1.015,0.307c-0.365-0.195-0.503-0.649-0.308-1.015c0.314-0.589,0.841-1.02,1.48-1.212
				c0.637-0.193,1.312-0.126,1.903,0.189c1.281,0.683,1.581,2.323,1.048,3.368c-0.585,1.149-1.592,1.898-3.988,2.97
				C26.397,43.101,26.293,43.122,26.19,43.122z"/>
		</g>
		<g>
			<path d="M25.869,43.191c-0.124,0-0.258-0.016-0.405-0.054c-0.4-0.104-0.642-0.513-0.537-0.914
				c0.104-0.402,0.512-0.641,0.914-0.538c0.023,0.005,0.062-0.006,0.193-0.071c0.374-0.184,0.821-0.027,1.003,0.345
				c0.182,0.373,0.027,0.821-0.345,1.003C26.442,43.084,26.188,43.191,25.869,43.191z"/>
		</g>
	</g>
	<g>
		<path d="M9.44,15.366c-0.414,0-0.75-0.336-0.75-0.75C8.69,1.26,10.276,0,17.669,0c0.414,0,0.75,0.336,0.75,0.75
			s-0.336,0.75-0.75,0.75c-6.85,0-7.479,1.103-7.479,13.116C10.19,15.03,9.854,15.366,9.44,15.366z"/>
		<path d="M25.758,15.795c-0.414,0-0.75-0.336-0.75-0.75c0-12.153-0.769-13.545-7.479-13.545c-0.414,0-0.75-0.336-0.75-0.75
			S17.114,0,17.528,0c8.151,0,8.979,2.851,8.979,15.045C26.508,15.459,26.172,15.795,25.758,15.795z"/>
	</g>
	<g>
		<path d="M11.794,15.396c-0.002,0-0.004,0-0.006,0c-0.414-0.003-0.747-0.342-0.744-0.756c0.05-6.259,0.075-9.4,1.674-10.941
			c1.074-1.035,2.705-1.199,4.984-1.137c0.414,0.012,0.74,0.357,0.729,0.771c-0.012,0.407-0.346,0.729-0.75,0.729
			c-0.007,0-0.014,0-0.021,0c-2.237-0.062-3.291,0.131-3.9,0.718c-1.145,1.104-1.17,4.218-1.215,9.873
			C12.541,15.064,12.205,15.396,11.794,15.396z"/>
	</g>
	<g>
		<path d="M23.322,15.581c-0.411,0-0.747-0.332-0.75-0.744C22.527,9.29,22.5,5.942,21.319,4.804C20.7,4.208,19.612,4,17.456,4.061
			c-0.008,0-0.015,0-0.021,0c-0.404,0-0.738-0.322-0.75-0.729c-0.012-0.414,0.314-0.759,0.729-0.771
			c2.245-0.066,3.854,0.107,4.947,1.162c1.635,1.576,1.66,4.759,1.712,11.101c0.003,0.414-0.33,0.752-0.744,0.756
			C23.326,15.581,23.324,15.581,23.322,15.581z"/>
	</g>
	<path d="M10.546,18.351c-1.281,0-2.323-1.042-2.323-2.324c0-1.282,1.042-2.324,2.323-2.324s2.324,1.042,2.324,2.324
		C12.87,17.308,11.827,18.351,10.546,18.351z M10.546,15.203c-0.454,0-0.823,0.37-0.823,0.824c0,0.454,0.369,0.824,0.823,0.824
		s0.824-0.37,0.824-0.824C11.37,15.572,11,15.203,10.546,15.203z"/>
	<path d="M24.488,18.351c-1.281,0-2.324-1.042-2.324-2.324c0-1.282,1.043-2.324,2.324-2.324s2.323,1.042,2.323,2.324
		C26.812,17.308,25.77,18.351,24.488,18.351z M24.488,15.203c-0.454,0-0.824,0.37-0.824,0.824c0,0.454,0.37,0.824,0.824,0.824
		s0.823-0.37,0.823-0.824C25.312,15.572,24.942,15.203,24.488,15.203z"/>
</g>
<g>
</g>
<g>
</g>
<g>
</g>
<g>
</g>
<g>
</g>
<g>
</g>
<g>
</g>
<g>
</g>
<g>
</g>
<g>
</g>
<g>
</g>
<g>
</g>
<g>
</g>
<g>
</g>
<g>
</g>
</svg>
