<?xml version="1.0" encoding="iso-8859-1"?>
<!-- Generator: Adobe Illustrator 16.0.4, SVG Export Plug-In . SVG Version: 6.00 Build 0)  -->
<!DOCTYPE svg PUBLIC "-//W3C//DTD SVG 1.1//EN" "http://www.w3.org/Graphics/SVG/1.1/DTD/svg11.dtd">
<svg version="1.1" id="Capa_1" xmlns="http://www.w3.org/2000/svg" xmlns:xlink="http://www.w3.org/1999/xlink" x="0px" y="0px"
	 width="42.917px" height="47.049px" viewBox="0 0 42.917 47.049" style="enable-background:new 0 0 42.917 47.049;"
	 xml:space="preserve">
<g id="Skull">
	<g>
		<g>
			<path d="M18.433,43.8c-0.552,0-1-0.448-1-1v-5.062c0-0.552,0.448-1,1-1s1,0.448,1,1V42.8C19.433,43.352,18.985,43.8,18.433,43.8z
				"/>
			<path d="M24.683,43.8c-0.552,0-1-0.448-1-1v-5.062c0-0.552,0.448-1,1-1s1,0.448,1,1V42.8C25.683,43.352,25.235,43.8,24.683,43.8z
				"/>
		</g>
		<path d="M21.538,46.94c-2.268,0-4.112-1.845-4.112-4.113c0-0.552,0.448-1,1-1s1,0.448,1,1c0,1.165,0.948,2.113,2.112,2.113
			c1.167,0,2.115-0.948,2.115-2.113c0-0.552,0.448-1,1-1s1,0.448,1,1C25.653,45.095,23.807,46.94,21.538,46.94z"/>
	</g>
	<g>
		<g>
			<path d="M7.758,43.908c-0.552,0-1-0.448-1-1v-5.016c0-0.552,0.448-1,1-1s1,0.448,1,1v5.016C8.758,43.46,8.31,43.908,7.758,43.908
				z"/>
			<path d="M14.006,43.908c-0.552,0-1-0.448-1-1v-5.114c0-0.552,0.448-1,1-1s1,0.448,1,1v5.114
				C15.006,43.46,14.558,43.908,14.006,43.908z"/>
			<path d="M7.777,38.763c-0.552,0-1-0.448-1-1c0-1.574,0.876-2.986,2.286-3.685c0.498-0.246,1.095-0.042,1.34,0.452
				c0.245,0.495,0.043,1.095-0.452,1.34c-0.725,0.359-1.175,1.084-1.175,1.893C8.777,38.315,8.33,38.763,7.777,38.763z"/>
		</g>
		<path d="M10.863,47.049c-2.267,0-4.111-1.844-4.111-4.111c0-0.552,0.448-1,1-1s1,0.448,1,1c0,1.164,0.947,2.111,2.111,2.111
			c1.167,0,2.115-0.947,2.115-2.111c0-0.552,0.448-1,1-1s1,0.448,1,1C14.979,45.205,13.132,47.049,10.863,47.049z"/>
	</g>
	<g>
		<g>
			<path d="M28.889,43.8c-0.552,0-1-0.448-1-1v-5.006c0-0.552,0.448-1,1-1s1,0.448,1,1V42.8C29.889,43.352,29.441,43.8,28.889,43.8z
				"/>
			<path d="M35.135,43.8c-0.552,0-1-0.448-1-1v-5.026c0-0.552,0.448-1,1-1s1,0.448,1,1V42.8C36.135,43.352,35.687,43.8,35.135,43.8z
				"/>
			<path d="M35.135,38.654c-0.552,0-1-0.448-1-1c0-0.812-0.45-1.539-1.175-1.896c-0.495-0.244-0.699-0.843-0.455-1.339
				c0.244-0.495,0.842-0.701,1.339-0.455c1.414,0.696,2.292,2.11,2.292,3.69C36.135,38.207,35.687,38.654,35.135,38.654z"/>
		</g>
		<path d="M31.993,46.94c-2.268,0-4.112-1.845-4.112-4.113c0-0.552,0.448-1,1-1s1,0.448,1,1c0,1.165,0.948,2.113,2.112,2.113
			c1.166,0,2.114-0.948,2.114-2.113c0-0.552,0.448-1,1-1s1,0.448,1,1C36.107,45.095,34.262,46.94,31.993,46.94z"/>
	</g>
	<path d="M7.904,35.692c-0.26,0-0.52-0.101-0.715-0.301C3.616,31.733,0,25.251,0,19.942C0,9.319,10.027,0,21.459,0
		C32.89,0,42.917,9.319,42.917,19.942c0,5.286-3.601,11.754-7.158,15.412c-0.385,0.396-1.019,0.404-1.414,0.02
		c-0.396-0.385-0.405-1.018-0.02-1.414c3.276-3.368,6.592-9.265,6.592-14.018C40.917,10.384,31.825,2,21.459,2
		C11.093,2,2,10.384,2,19.942c0,4.774,3.33,10.683,6.62,14.051c0.386,0.395,0.378,1.028-0.017,1.414
		C8.409,35.598,8.156,35.692,7.904,35.692z"/>
	<path d="M13.805,27.505c-3.092,0-5.639-2.518-5.679-5.614c-0.026-3.135,2.499-5.708,5.627-5.744c3.153,0,5.696,2.521,5.731,5.619
		c0.015,1.524-0.562,2.959-1.626,4.043c-1.061,1.081-2.48,1.683-3.996,1.696H13.805z M13.815,18.647
		c-1.789,0.02-3.204,1.463-3.189,3.218c0.022,1.729,1.448,3.14,3.179,3.14v1.25l0.034-1.25c0.85-0.007,1.643-0.343,2.235-0.947
		c0.596-0.606,0.919-1.411,0.911-2.265C16.965,20.059,15.543,18.647,13.815,18.647z"/>
	<path d="M29.242,27.505c-3.092,0-5.639-2.518-5.679-5.614c-0.027-3.134,2.498-5.708,5.628-5.744c3.151,0,5.694,2.52,5.73,5.618
		c0.016,1.524-0.562,2.959-1.625,4.043c-1.061,1.081-2.481,1.684-3.998,1.696H29.242z M29.254,18.647
		c-1.79,0.02-3.206,1.463-3.19,3.217c0.022,1.729,1.448,3.141,3.179,3.141v1.25l0.034-1.25c0.851-0.007,1.644-0.344,2.237-0.948
		c0.595-0.606,0.918-1.41,0.909-2.264C32.402,20.059,30.98,18.647,29.254,18.647z"/>
	<path d="M10.142,18.232c-0.343,0-0.676-0.176-0.863-0.493l-1.182-2.008c-0.28-0.476-0.122-1.089,0.354-1.369
		c0.477-0.279,1.089-0.121,1.369,0.354l1.182,2.008c0.28,0.476,0.122,1.089-0.354,1.369C10.489,18.188,10.314,18.232,10.142,18.232z
		"/>
	<path d="M13.771,17.229c-0.547,0-0.994-0.441-1-0.989l-0.024-2.317c-0.006-0.552,0.437-1.005,0.989-1.011c0.004,0,0.007,0,0.011,0
		c0.547,0,0.994,0.441,1,0.989l0.024,2.317c0.006,0.552-0.437,1.005-0.989,1.011C13.778,17.229,13.775,17.229,13.771,17.229z"/>
	<path d="M17.476,18.218c-0.167,0-0.335-0.042-0.49-0.129c-0.481-0.271-0.651-0.881-0.38-1.362l1.143-2.025
		c0.272-0.48,0.883-0.65,1.362-0.38c0.481,0.271,0.651,0.881,0.38,1.362l-1.143,2.025C18.164,18.035,17.825,18.218,17.476,18.218z"
		/>
	<path d="M25.675,18.232c-0.343,0-0.676-0.176-0.863-0.493l-1.183-2.008c-0.28-0.476-0.122-1.089,0.354-1.369
		c0.477-0.279,1.089-0.121,1.369,0.354l1.183,2.008c0.28,0.476,0.122,1.089-0.354,1.369C26.022,18.188,25.847,18.232,25.675,18.232z
		"/>
	<path d="M29.304,17.229c-0.548,0-0.995-0.441-1-0.99l-0.023-2.317c-0.005-0.552,0.438-1.004,0.99-1.01c0.003,0,0.007,0,0.01,0
		c0.548,0,0.995,0.441,1,0.99l0.023,2.317c0.005,0.552-0.438,1.004-0.99,1.01C29.311,17.229,29.307,17.229,29.304,17.229z"/>
	<path d="M33.007,18.218c-0.167,0-0.335-0.042-0.491-0.129c-0.481-0.271-0.65-0.881-0.379-1.362l1.144-2.025
		c0.272-0.481,0.882-0.65,1.362-0.379c0.481,0.271,0.65,0.881,0.379,1.362l-1.144,2.025C33.695,18.035,33.356,18.218,33.007,18.218z
		"/>
	<path d="M20.826,31.184c0,0.836-0.68,1.514-1.516,1.514s-1.514-0.678-1.514-1.514c0-0.839,0.678-1.518,1.514-1.518
		S20.826,30.345,20.826,31.184z"/>
	<path d="M25.562,31.184c0,0.836-0.678,1.514-1.514,1.514c-0.838,0-1.516-0.678-1.516-1.514c0-0.839,0.678-1.518,1.516-1.518
		C24.884,29.666,25.562,30.345,25.562,31.184z"/>
</g>
<g>
</g>
<g>
</g>
<g>
</g>
<g>
</g>
<g>
</g>
<g>
</g>
<g>
</g>
<g>
</g>
<g>
</g>
<g>
</g>
<g>
</g>
<g>
</g>
<g>
</g>
<g>
</g>
<g>
</g>
</svg>
