<?xml version="1.0" encoding="iso-8859-1"?>
<!-- Generator: Adobe Illustrator 16.0.4, SVG Export Plug-In . SVG Version: 6.00 Build 0)  -->
<!DOCTYPE svg PUBLIC "-//W3C//DTD SVG 1.1//EN" "http://www.w3.org/Graphics/SVG/1.1/DTD/svg11.dtd">
<svg version="1.1" id="Capa_1" xmlns="http://www.w3.org/2000/svg" xmlns:xlink="http://www.w3.org/1999/xlink" x="0px" y="0px"
	 width="47.775px" height="47px" viewBox="0 0 47.775 47" style="enable-background:new 0 0 47.775 47;" xml:space="preserve">
<g id="Sneaker">
	<path d="M17.059,39.637c-2.769,0-16.581-0.258-16.812-5.329c-0.038-0.838-0.1-1.527-0.15-2.108
		c-0.158-1.754-0.264-2.913,0.847-4.004c1.752-1.723,4.247-2.083,6.032-2.083c0.463,0,0.856,0.025,1.144,0.053
		c0.613-0.47,1.896-1.154,4.332-1.397c0.58-0.562,1.953-1.604,4.506-2.093c0.584-0.456,2.311-1.722,4.645-2.747
		c2.226-0.98,3.4-2.633,4.104-3.621l0.229-0.317c0.456-0.62,0.744-1.468,1.049-2.365c0.784-2.306,1.724-5.248,6.314-4.695
		c0.917,0.11,1.695,0.479,2.384,0.805c0.699,0.332,1.305,0.619,1.954,0.619c0.354-0.013,1.05-0.662,1.467-1.049
		c1.077-1.002,2.352-2.159,3.959-1.906c2.521,0.396,2.147,4.115,1.755,8.052c-0.226,2.241-0.479,4.781-0.033,5.768
		c0.2,0.44,0.381,0.744,0.572,1.064c0.615,1.03,1.146,1.92,1.67,5.93c0.312,1.099,2.087,7.851-1.257,9.602
		c-2.347,1.229-6.236,1.484-9.088,1.484c-1.206,0-2.472-0.049-3.657-0.14c-2.005-0.151-3.712-0.226-5.218-0.226
		c-2.537,0-4.146,0.211-5.847,0.434l-0.13,0.018C20.557,39.549,18.907,39.637,17.059,39.637z M6.976,28.112
		c-1.155,0-3.293,0.195-4.629,1.511c-0.403,0.396-0.408,0.726-0.26,2.398c0.056,0.604,0.119,1.323,0.158,2.196
		c0.074,1.65,6.043,3.419,14.812,3.419c1.736,0,3.34-0.084,4.511-0.238l0.129-0.018c1.768-0.231,3.438-0.451,6.105-0.451
		c1.557,0,3.312,0.076,5.368,0.23c1.139,0.088,2.352,0.133,3.508,0.133c3.714,0,6.611-0.445,8.159-1.256
		c1.419-0.743,0.984-4.82,0.243-7.343c-0.015-0.052-0.023-0.103-0.031-0.153c-0.474-3.661-0.889-4.356-1.413-5.235
		c-0.202-0.338-0.433-0.722-0.68-1.268c-0.667-1.476-0.408-4.057-0.135-6.79c0.178-1.774,0.547-5.466-0.066-5.876
		c-0.052-0.007-0.095-0.011-0.139-0.011c-0.646,0-1.448,0.747-2.156,1.405c-0.851,0.792-1.652,1.539-2.651,1.581l-0.177,0.004
		c-1.099,0-2.009-0.431-2.811-0.812c-0.602-0.285-1.17-0.556-1.764-0.626c-0.283-0.034-0.546-0.051-0.792-0.051
		c-2.13,0-2.653,1.23-3.394,3.404c-0.341,1.001-0.691,2.037-1.33,2.905l-0.21,0.293c-0.769,1.08-2.197,3.09-4.929,4.292
		c-2.568,1.129-4.363,2.608-4.381,2.624c-0.135,0.111-0.298,0.188-0.471,0.217c-2.789,0.476-3.804,1.695-3.846,1.747
		c-0.173,0.214-0.437,0.36-0.712,0.381c-2.9,0.222-3.775,1.126-3.784,1.136c-0.227,0.245-0.59,0.393-0.917,0.336
		C8.289,28.196,7.751,28.112,6.976,28.112z"/>
	<path d="M19.467,34.671c-1.36,0-2.703-0.041-4.195-0.145c-3.698-0.256-12.502-1.109-14.365-3.511
		c-0.345-0.443-0.479-0.946-0.386-1.452c0.07-0.396,0.451-0.653,0.847-0.585c0.396,0.071,0.657,0.451,0.585,0.847
		c-0.008,0.043-0.025,0.135,0.104,0.3c0.994,1.282,6.348,2.468,13.315,2.95c3.449,0.238,5.97,0.14,10.147-0.027
		c2.31-0.092,5.186-0.206,8.946-0.285c6.188-0.129,8.808-1.535,9.912-2.691c0.825-0.862,0.817-1.603,0.816-1.633
		c-0.01-0.396,0.298-0.733,0.694-0.752c0.416-0.012,0.73,0.276,0.759,0.67c0.009,0.133,0.052,1.336-1.14,2.635
		c-1.855,2.026-5.562,3.113-11.013,3.228c-3.749,0.079-6.616,0.191-8.92,0.284C23.22,34.595,21.326,34.671,19.467,34.671z"/>
	<path d="M15.384,39.039c-0.15,0-0.305-0.048-0.438-0.144c-0.336-0.242-0.412-0.71-0.17-1.048c1.005-1.396,0.223-3.535,0.215-3.557
		c-0.145-0.388,0.051-0.82,0.438-0.966c0.385-0.146,0.816,0.049,0.965,0.435c0.045,0.118,1.08,2.91-0.401,4.965
		C15.847,38.93,15.617,39.039,15.384,39.039z"/>
	<path d="M10.807,34.01c-0.133,0-0.265-0.034-0.385-0.104c-3.588-2.134-3.25-5.306-2.568-6.684c0.183-0.371,0.631-0.523,1.004-0.34
		c0.37,0.183,0.521,0.629,0.343,1c-0.136,0.285-1.225,2.822,1.99,4.733c0.354,0.212,0.473,0.673,0.261,1.027
		C11.312,33.879,11.062,34.01,10.807,34.01z"/>
	<g>
		<path d="M12.336,29.673c-0.061,0-0.121-0.021-0.169-0.065c-1.497-1.377-0.842-3.693-0.812-3.792
			c0.039-0.132,0.176-0.208,0.31-0.169c0.132,0.039,0.208,0.177,0.17,0.311c-0.006,0.021-0.595,2.118,0.672,3.283
			c0.104,0.095,0.108,0.252,0.017,0.354C12.471,29.646,12.403,29.673,12.336,29.673z"/>
		<path d="M14.047,28.976c-0.076,0-0.153-0.036-0.204-0.104c-1.512-2.137-0.386-3.537-0.337-3.597
			c0.091-0.105,0.248-0.119,0.354-0.033c0.104,0.089,0.121,0.245,0.033,0.353c-0.044,0.055-0.917,1.185,0.358,2.988
			c0.08,0.112,0.055,0.27-0.06,0.349C14.147,28.961,14.097,28.976,14.047,28.976z"/>
	</g>
	<path d="M13.315,30.614c-0.663,0-1.203-0.52-1.229-1.182c-0.014-0.327,0.103-0.642,0.324-0.885
		c0.223-0.242,0.527-0.383,0.856-0.396c0,0,0.001,0,0.002,0c0.713,0,1.251,0.519,1.277,1.18c0.028,0.678-0.501,1.253-1.18,1.281
		C13.363,30.613,13.319,30.614,13.315,30.614z M13.317,28.652c-0.229,0.008-0.407,0.092-0.54,0.235
		c-0.132,0.145-0.201,0.33-0.192,0.525c0.018,0.394,0.336,0.701,0.729,0.701v0.25l0.031-0.251c0.401-0.018,0.718-0.357,0.699-0.761
		C14.031,28.96,13.71,28.652,13.317,28.652z"/>
	<circle cx="13.303" cy="29.44" r="0.425"/>
	<g>
		<path d="M16.108,28.108c-0.074,0-0.147-0.033-0.196-0.096c-1.668-2.115-0.895-3.942-0.861-4.02
			c0.058-0.127,0.202-0.184,0.329-0.128c0.126,0.056,0.186,0.202,0.129,0.328c-0.026,0.066-0.679,1.641,0.797,3.509
			c0.085,0.108,0.065,0.267-0.042,0.352C16.217,28.09,16.163,28.108,16.108,28.108z"/>
		<path d="M17.708,27.277c-0.064,0-0.132-0.025-0.182-0.078c-1.344-1.421-0.896-3.616-0.875-3.709
			c0.029-0.135,0.163-0.218,0.296-0.191c0.135,0.028,0.221,0.162,0.193,0.296c-0.004,0.021-0.412,2.033,0.75,3.262
			c0.095,0.102,0.09,0.259-0.012,0.354C17.832,27.255,17.77,27.277,17.708,27.277z"/>
	</g>
	<path d="M17.089,29.049c-0.663,0-1.201-0.52-1.229-1.182c-0.027-0.678,0.502-1.253,1.179-1.281c0.001,0,0.001,0,0.002,0
		c0.714,0,1.253,0.519,1.281,1.18c0.027,0.679-0.502,1.254-1.179,1.282C17.138,29.048,17.093,29.049,17.089,29.049z M17.09,27.085
		c-0.434,0.018-0.748,0.359-0.729,0.763c0.016,0.394,0.337,0.701,0.729,0.701v0.25l0.031-0.251c0.402-0.018,0.716-0.357,0.7-0.763
		C17.804,27.393,17.483,27.085,17.09,27.085z"/>
	<circle cx="17.095" cy="27.862" r="0.425"/>
	<g>
		<path d="M19.786,26.381c-0.052,0-0.104-0.017-0.148-0.05c-1.748-1.311-1.274-3.437-1.255-3.525
			c0.032-0.135,0.167-0.218,0.302-0.187c0.134,0.031,0.218,0.165,0.187,0.301c-0.018,0.077-0.417,1.899,1.065,3.011
			c0.108,0.083,0.133,0.24,0.05,0.35C19.937,26.346,19.862,26.381,19.786,26.381z"/>
		<path d="M21.15,25.435c-0.065,0-0.131-0.025-0.18-0.076c-1.603-1.657-1.185-3.337-1.165-3.408c0.033-0.133,0.17-0.213,0.304-0.178
			c0.133,0.035,0.213,0.171,0.18,0.304c-0.015,0.061-0.355,1.488,1.04,2.935c0.096,0.1,0.093,0.258-0.006,0.354
			C21.275,25.413,21.213,25.435,21.15,25.435z"/>
	</g>
	<path d="M20.765,27.322c-0.662,0-1.201-0.519-1.229-1.181c-0.014-0.328,0.103-0.642,0.324-0.885
		c0.223-0.242,0.526-0.383,0.854-0.397c0.001,0,0.001,0,0.002,0c0.715,0,1.252,0.52,1.28,1.181c0.013,0.328-0.102,0.644-0.325,0.886
		c-0.223,0.242-0.525,0.383-0.854,0.396C20.813,27.321,20.768,27.322,20.765,27.322z M20.767,25.359
		c-0.228,0.009-0.407,0.093-0.539,0.237s-0.201,0.33-0.192,0.525c0.018,0.394,0.336,0.701,0.729,0.701v0.25l0.029-0.251
		c0.196-0.008,0.376-0.091,0.511-0.234c0.132-0.145,0.199-0.331,0.19-0.527C21.481,25.667,21.16,25.359,20.767,25.359z"/>
	<circle cx="20.745" cy="26.133" r="0.424"/>
	<g>
		<path d="M23.221,24.136c-0.062,0-0.121-0.022-0.169-0.066c-1.669-1.535-1.201-3.457-1.182-3.538
			c0.034-0.134,0.172-0.213,0.303-0.18c0.136,0.034,0.217,0.169,0.183,0.303c-0.019,0.07-0.408,1.72,1.035,3.046
			c0.102,0.095,0.106,0.252,0.015,0.354C23.355,24.109,23.288,24.136,23.221,24.136z"/>
		<path d="M24.463,23.356c-0.062,0-0.126-0.022-0.174-0.071c-1.13-1.101-1.289-3.118-1.295-3.204
			c-0.01-0.139,0.094-0.258,0.231-0.268c0.125-0.014,0.257,0.093,0.268,0.231c0.001,0.019,0.152,1.916,1.146,2.882
			c0.099,0.096,0.101,0.255,0.005,0.354C24.593,23.33,24.528,23.356,24.463,23.356z"/>
	</g>
	<path d="M24.191,25.364c-0.662,0-1.202-0.519-1.231-1.18c-0.025-0.68,0.502-1.255,1.181-1.283c0,0,0.001,0,0.002,0
		c0.713,0,1.253,0.52,1.279,1.182c0.028,0.678-0.501,1.253-1.18,1.281C24.238,25.363,24.194,25.364,24.191,25.364z M24.191,23.4
		c-0.435,0.019-0.747,0.36-0.731,0.765c0.019,0.392,0.338,0.7,0.731,0.7v0.25l0.03-0.251c0.401-0.017,0.718-0.357,0.699-0.761
		C24.906,23.709,24.584,23.4,24.191,23.4z"/>
	<circle cx="24.183" cy="24.169" r="0.424"/>
	<g>
		<path d="M26.328,22.065c-0.042,0-0.083-0.01-0.122-0.032c-1.924-1.07-2.03-2.726-2.033-2.796c-0.007-0.138,0.1-0.254,0.236-0.262
			c0.134-0.012,0.255,0.098,0.263,0.235c0.003,0.059,0.105,1.454,1.777,2.386c0.121,0.067,0.164,0.219,0.097,0.34
			C26.501,22.018,26.416,22.065,26.328,22.065z"/>
		<path d="M27.268,21.043c-0.054,0-0.104-0.017-0.149-0.051c-1.374-1.023-1.788-2.23-1.805-2.281
			c-0.043-0.131,0.025-0.272,0.158-0.316c0.131-0.042,0.271,0.027,0.314,0.157c0.004,0.011,0.391,1.115,1.629,2.041
			c0.111,0.083,0.133,0.239,0.051,0.35C27.419,21.008,27.344,21.043,27.268,21.043z"/>
	</g>
	<path d="M27.307,23.006c-0.662,0-1.201-0.52-1.229-1.182c-0.014-0.327,0.103-0.643,0.323-0.885
		c0.223-0.243,0.527-0.384,0.854-0.396c0,0,0.001,0,0.002,0c0.716,0,1.254,0.519,1.279,1.181c0.015,0.328-0.101,0.642-0.323,0.884
		c-0.223,0.243-0.525,0.384-0.854,0.397C27.355,23.005,27.311,23.006,27.307,23.006z M27.309,21.042
		c-0.229,0.009-0.407,0.093-0.54,0.236c-0.132,0.145-0.2,0.33-0.191,0.525c0.018,0.394,0.336,0.702,0.729,0.702v0.25l0.029-0.251
		c0.195-0.008,0.376-0.092,0.51-0.236c0.132-0.144,0.198-0.33,0.189-0.525C28.023,21.35,27.702,21.042,27.309,21.042z"/>
	<circle cx="27.32" cy="21.774" r="0.424"/>
	<g>
		<path d="M28.914,19.489c-0.024,0-0.053-0.004-0.08-0.013c-2.373-0.795-2.629-2.179-2.639-2.237
			c-0.022-0.136,0.069-0.265,0.206-0.288c0.132-0.024,0.263,0.068,0.287,0.204c0.011,0.057,0.25,1.159,2.305,1.848
			c0.131,0.044,0.201,0.186,0.158,0.316C29.116,19.423,29.019,19.489,28.914,19.489z"/>
		<path d="M29.592,18.14c-0.018,0-0.034-0.002-0.054-0.006c-1.518-0.333-2.613-1.845-2.659-1.909
			c-0.08-0.112-0.054-0.269,0.06-0.349c0.108-0.082,0.267-0.056,0.349,0.058c0.01,0.014,1.031,1.421,2.359,1.712
			c0.135,0.029,0.22,0.163,0.188,0.298C29.811,18.061,29.707,18.14,29.592,18.14z"/>
	</g>
	<path d="M29.856,20.109c-0.662,0-1.202-0.519-1.23-1.181c-0.025-0.678,0.502-1.253,1.182-1.281c0,0,0.001,0,0.002,0
		c0.712,0,1.252,0.519,1.279,1.179c0.027,0.679-0.503,1.254-1.181,1.282C29.904,20.108,29.86,20.109,29.856,20.109z M29.858,18.146
		c-0.436,0.019-0.748,0.359-0.732,0.762c0.018,0.394,0.337,0.701,0.73,0.701v0.25l0.031-0.251c0.401-0.017,0.718-0.357,0.7-0.761
		C30.572,18.455,30.251,18.146,29.858,18.146z"/>
	<circle cx="29.869" cy="18.876" r="0.424"/>
	<path d="M28.53,32.188c-0.664,0-1.204-0.52-1.23-1.181c-0.026-0.678,0.501-1.254,1.181-1.283c0.001,0,0.001,0,0.002,0
		c0.711,0,1.251,0.52,1.28,1.182c0.026,0.678-0.503,1.252-1.182,1.281C28.577,32.187,28.533,32.188,28.53,32.188z M28.529,30.223
		c-0.432,0.019-0.746,0.36-0.729,0.765c0.018,0.394,0.338,0.7,0.73,0.7v0.25l0.03-0.251c0.401-0.018,0.718-0.358,0.701-0.761
		C29.244,30.532,28.922,30.223,28.529,30.223z"/>
	<circle cx="28.532" cy="31.006" r="0.425"/>
	<path d="M31.942,32.045c-0.663,0-1.203-0.52-1.229-1.181c-0.014-0.327,0.103-0.644,0.324-0.885
		c0.222-0.242,0.527-0.384,0.855-0.396c0.001,0,0.001,0,0.002,0c0.711,0,1.25,0.52,1.277,1.18c0.027,0.679-0.502,1.252-1.18,1.281
		C31.99,32.044,31.945,32.045,31.942,32.045z M31.944,30.082c-0.229,0.009-0.407,0.092-0.539,0.235
		c-0.132,0.145-0.201,0.331-0.192,0.525c0.018,0.394,0.336,0.701,0.729,0.701v0.25l0.031-0.251c0.4-0.018,0.717-0.358,0.699-0.761
		C32.657,30.39,32.336,30.082,31.944,30.082z"/>
	<circle cx="31.944" cy="30.864" r="0.424"/>
	<g>
		<path d="M8.708,32.627c-0.136,0-0.248-0.109-0.25-0.246c-0.002-0.139,0.107-0.252,0.246-0.254c0.003,0,0.167-0.003,0.469-0.021
			c0.151-0.01,0.259,0.097,0.267,0.233c0.009,0.139-0.098,0.256-0.234,0.266c-0.318,0.021-0.491,0.022-0.491,0.022
			C8.711,32.627,8.709,32.627,8.708,32.627z"/>
		<path d="M10.129,32.526c-0.126,0-0.233-0.097-0.248-0.225c-0.014-0.138,0.085-0.26,0.225-0.273c0.275-0.028,0.59-0.064,0.936-0.11
			c0.133-0.027,0.265,0.076,0.281,0.214c0.019,0.138-0.077,0.264-0.214,0.281c-0.353,0.047-0.669,0.084-0.951,0.112
			C10.146,32.526,10.138,32.526,10.129,32.526z M12.012,32.274c-0.12,0-0.228-0.087-0.246-0.209
			c-0.022-0.137,0.068-0.266,0.206-0.287c0.294-0.048,0.604-0.104,0.928-0.166c0.131-0.022,0.266,0.062,0.293,0.197
			c0.026,0.137-0.062,0.268-0.198,0.294c-0.329,0.062-0.643,0.118-0.939,0.168C12.039,32.273,12.025,32.274,12.012,32.274z
			 M13.876,31.914c-0.113,0-0.218-0.08-0.244-0.196c-0.028-0.135,0.058-0.269,0.19-0.298c0.297-0.064,0.603-0.138,0.917-0.216
			c0.13-0.033,0.27,0.048,0.303,0.182c0.033,0.135-0.048,0.271-0.182,0.304c-0.319,0.08-0.629,0.151-0.931,0.219
			C13.912,31.913,13.894,31.914,13.876,31.914z M15.718,31.456c-0.107,0-0.21-0.072-0.239-0.184
			c-0.037-0.134,0.041-0.271,0.174-0.309c0.295-0.083,0.597-0.171,0.904-0.266c0.131-0.041,0.271,0.033,0.312,0.166
			s-0.033,0.271-0.166,0.312c-0.311,0.097-0.616,0.186-0.917,0.27C15.763,31.453,15.74,31.456,15.718,31.456z M17.532,30.897
			c-0.104,0-0.202-0.064-0.237-0.17c-0.044-0.132,0.026-0.271,0.157-0.317c0.292-0.099,0.588-0.203,0.888-0.313
			c0.128-0.047,0.273,0.019,0.321,0.147s-0.018,0.272-0.146,0.321c-0.305,0.111-0.604,0.219-0.9,0.318
			C17.585,30.893,17.558,30.897,17.532,30.897z M19.311,30.239c-0.101,0-0.192-0.06-0.232-0.156
			c-0.052-0.128,0.01-0.273,0.139-0.325c0.287-0.116,0.576-0.236,0.868-0.363c0.126-0.054,0.274,0.001,0.329,0.129
			c0.057,0.126-0.002,0.273-0.129,0.329c-0.295,0.129-0.589,0.252-0.881,0.369C19.374,30.234,19.342,30.239,19.311,30.239z
			 M21.049,29.48c-0.093,0-0.183-0.054-0.226-0.144c-0.059-0.125-0.006-0.273,0.119-0.333c0.28-0.133,0.562-0.271,0.844-0.415
			c0.124-0.062,0.274-0.015,0.336,0.108c0.063,0.123,0.016,0.273-0.107,0.336c-0.287,0.146-0.572,0.287-0.857,0.423
			C21.121,29.472,21.085,29.48,21.049,29.48z M22.737,28.617c-0.088,0-0.173-0.046-0.219-0.129
			c-0.067-0.121-0.023-0.272,0.098-0.339c0.272-0.149,0.544-0.307,0.816-0.468c0.116-0.07,0.271-0.032,0.342,0.087
			c0.071,0.119,0.032,0.272-0.087,0.342c-0.276,0.164-0.555,0.321-0.83,0.476C22.819,28.607,22.778,28.617,22.737,28.617z
			 M24.367,27.648c-0.082,0-0.163-0.041-0.21-0.115c-0.075-0.115-0.041-0.271,0.076-0.345c0.262-0.167,0.521-0.341,0.783-0.52
			c0.109-0.078,0.268-0.051,0.348,0.063c0.078,0.114,0.049,0.27-0.064,0.349c-0.264,0.182-0.528,0.357-0.796,0.527
			C24.459,27.635,24.413,27.648,24.367,27.648z M25.929,26.573c-0.076,0-0.152-0.034-0.201-0.101
			c-0.082-0.111-0.061-0.268,0.052-0.35c0.25-0.186,0.499-0.375,0.746-0.571c0.105-0.085,0.265-0.068,0.351,0.041
			c0.086,0.107,0.068,0.265-0.041,0.351c-0.251,0.2-0.504,0.395-0.758,0.582C26.033,26.557,25.98,26.573,25.929,26.573z
			 M27.412,25.394c-0.07,0-0.141-0.03-0.188-0.087c-0.092-0.105-0.078-0.263,0.025-0.353c0.236-0.202,0.473-0.409,0.703-0.622
			c0.104-0.094,0.26-0.086,0.354,0.015c0.093,0.102,0.086,0.26-0.017,0.353c-0.234,0.218-0.476,0.429-0.716,0.635
			C27.527,25.375,27.47,25.394,27.412,25.394z M28.808,24.112c-0.064,0-0.129-0.024-0.18-0.073c-0.097-0.1-0.096-0.258,0.002-0.354
			c0.223-0.218,0.44-0.442,0.656-0.671c0.095-0.1,0.252-0.106,0.354-0.01c0.101,0.095,0.104,0.253,0.011,0.353
			c-0.221,0.234-0.443,0.462-0.668,0.685C28.935,24.088,28.872,24.112,28.808,24.112z M30.107,22.733
			c-0.061,0-0.117-0.021-0.165-0.062c-0.104-0.091-0.115-0.249-0.024-0.354c0.204-0.232,0.406-0.472,0.604-0.717
			c0.087-0.108,0.245-0.125,0.352-0.037c0.107,0.087,0.124,0.245,0.037,0.353c-0.203,0.25-0.408,0.493-0.616,0.731
			C30.246,22.705,30.176,22.733,30.107,22.733z M31.301,21.262c-0.053,0-0.104-0.018-0.148-0.05c-0.11-0.083-0.132-0.24-0.049-0.351
			c0.187-0.248,0.371-0.501,0.551-0.76c0.08-0.114,0.236-0.141,0.348-0.062c0.113,0.078,0.143,0.234,0.062,0.348
			c-0.186,0.264-0.371,0.521-0.562,0.774C31.451,21.228,31.376,21.262,31.301,21.262z M32.385,19.708
			c-0.046,0-0.093-0.014-0.135-0.04c-0.116-0.075-0.148-0.229-0.075-0.346c0.168-0.261,0.333-0.526,0.495-0.798
			c0.071-0.12,0.227-0.158,0.345-0.087c0.117,0.071,0.156,0.225,0.087,0.343c-0.165,0.276-0.333,0.547-0.504,0.812
			C32.547,19.667,32.467,19.708,32.385,19.708z M33.354,18.08c-0.041,0-0.082-0.011-0.12-0.031
			c-0.121-0.066-0.166-0.218-0.101-0.339c0.149-0.272,0.297-0.55,0.438-0.832c0.062-0.124,0.212-0.171,0.336-0.11
			c0.123,0.062,0.172,0.213,0.11,0.336c-0.146,0.287-0.294,0.568-0.446,0.845C33.528,18.033,33.442,18.08,33.354,18.08z
			 M34.208,16.389c-0.035,0-0.069-0.007-0.104-0.023c-0.125-0.058-0.182-0.207-0.122-0.332c0.13-0.28,0.257-0.566,0.381-0.858
			c0.054-0.127,0.202-0.187,0.328-0.132c0.127,0.054,0.187,0.2,0.132,0.328c-0.126,0.296-0.255,0.587-0.387,0.873
			C34.393,16.335,34.302,16.389,34.208,16.389z"/>
		<path d="M34.953,14.631c-0.03,0-0.061-0.005-0.09-0.018c-0.128-0.05-0.193-0.194-0.143-0.323c0.058-0.149,0.112-0.3,0.17-0.451
			c0.048-0.129,0.19-0.195,0.319-0.149c0.13,0.047,0.196,0.191,0.149,0.321c-0.058,0.155-0.114,0.308-0.173,0.46
			C35.147,14.57,35.053,14.631,34.953,14.631z"/>
	</g>
	<g>
		<g>
			<path d="M3.959,36.211c-0.116,0-0.219-0.082-0.245-0.199l-0.82-3.848c-0.029-0.136,0.057-0.269,0.19-0.298
				c0.137-0.025,0.27,0.059,0.297,0.191l0.822,3.849c0.029,0.137-0.057,0.27-0.19,0.299C3.994,36.209,3.976,36.211,3.959,36.211z"/>
			<path d="M1.704,35.317c-0.079,0-0.157-0.038-0.206-0.107c-0.079-0.113-0.05-0.27,0.063-0.349l3.234-2.239
				c0.113-0.079,0.271-0.051,0.35,0.062c0.079,0.113,0.05,0.27-0.063,0.349l-3.234,2.24C1.803,35.302,1.753,35.317,1.704,35.317z"/>
		</g>
		<g>
			<path d="M6.554,36.824c-0.099,0-0.188-0.057-0.229-0.148l-1.566-3.609c-0.055-0.127,0.005-0.273,0.132-0.329
				c0.128-0.054,0.272,0.003,0.327,0.13l1.566,3.609c0.055,0.127-0.003,0.273-0.13,0.328C6.621,36.818,6.587,36.824,6.554,36.824z"
				/>
			<path d="M4.167,36.395c-0.062,0-0.125-0.021-0.173-0.07c-0.1-0.096-0.103-0.254-0.007-0.354l2.729-2.835
				c0.099-0.098,0.257-0.103,0.354-0.007c0.1,0.096,0.103,0.254,0.007,0.354l-2.729,2.834C4.298,36.368,4.232,36.395,4.167,36.395z"
				/>
		</g>
		<g>
			<path d="M8.923,37.373c-0.096,0-0.188-0.058-0.229-0.15l-1.567-3.608c-0.055-0.126,0.003-0.273,0.13-0.329
				c0.125-0.054,0.274,0.004,0.329,0.131l1.567,3.607c0.055,0.126-0.003,0.273-0.13,0.329C8.99,37.365,8.956,37.373,8.923,37.373z"
				/>
			<path d="M6.535,36.943c-0.062,0-0.125-0.021-0.173-0.068c-0.1-0.098-0.104-0.256-0.007-0.354l2.729-2.836
				c0.099-0.1,0.255-0.101,0.354-0.007c0.1,0.097,0.103,0.254,0.007,0.354l-2.73,2.835C6.666,36.918,6.601,36.943,6.535,36.943z"/>
		</g>
		<g>
			<path d="M11.6,37.702c-0.084,0-0.167-0.043-0.214-0.12L9.362,34.21c-0.071-0.119-0.033-0.271,0.085-0.344
				c0.12-0.068,0.272-0.031,0.343,0.085l2.024,3.372c0.069,0.119,0.033,0.272-0.085,0.345C11.688,37.691,11.644,37.702,11.6,37.702z
				"/>
			<path d="M9.177,37.588c-0.054,0-0.104-0.017-0.148-0.049c-0.111-0.082-0.135-0.238-0.053-0.351l2.336-3.166
				c0.082-0.11,0.24-0.134,0.35-0.054c0.111,0.082,0.135,0.238,0.053,0.351l-2.336,3.166C9.329,37.553,9.253,37.588,9.177,37.588z"
				/>
		</g>
		<g>
			<path d="M14.197,37.92c-0.084,0-0.167-0.043-0.214-0.123l-2.024-3.374c-0.069-0.118-0.033-0.271,0.086-0.343
				c0.117-0.071,0.272-0.032,0.345,0.086l2.022,3.375c0.071,0.116,0.033,0.271-0.086,0.342C14.286,37.907,14.241,37.92,14.197,37.92
				z"/>
			<path d="M11.773,37.805c-0.052,0-0.104-0.016-0.148-0.049c-0.109-0.082-0.135-0.238-0.053-0.352l2.336-3.166
				c0.083-0.11,0.239-0.133,0.35-0.054c0.111,0.082,0.137,0.238,0.055,0.351l-2.336,3.166C11.926,37.77,11.85,37.805,11.773,37.805z
				"/>
		</g>
	</g>
	<path d="M35.16,28.286c-0.081,0-0.163-0.021-0.238-0.062c-0.21-0.113-0.31-0.36-0.237-0.588l1.424-4.576l-2.462,0.103
		c-0.216,0.009-0.394-0.107-0.478-0.292c-0.084-0.186-0.048-0.402,0.091-0.551l5.88-6.238c0.16-0.173,0.422-0.208,0.623-0.085
		c0.2,0.121,0.291,0.367,0.214,0.591l-1.332,3.851l2.25-0.094c0.208-0.013,0.381,0.101,0.469,0.277
		c0.088,0.176,0.062,0.389-0.063,0.542l-5.754,6.94C35.447,28.223,35.305,28.286,35.16,28.286z M36.795,22.032
		c0.155,0,0.304,0.072,0.396,0.195c0.099,0.129,0.129,0.298,0.081,0.453l-0.884,2.839l3.423-4.129l-1.86,0.078
		c-0.175,0.013-0.324-0.068-0.422-0.201c-0.099-0.132-0.125-0.305-0.072-0.462l0.812-2.342l-3.438,3.649l1.945-0.081
		C36.781,22.032,36.788,22.032,36.795,22.032z"/>
	<path d="M31.666,16.624c-0.662,0-1.202-0.519-1.229-1.181c-0.015-0.329,0.102-0.644,0.325-0.886
		c0.223-0.242,0.525-0.382,0.854-0.396c0.001,0,0.001,0,0.002,0c0.712,0,1.25,0.519,1.278,1.18c0.026,0.678-0.501,1.252-1.181,1.281
		C31.714,16.623,31.669,16.624,31.666,16.624z M31.668,14.663c-0.227,0.009-0.408,0.092-0.54,0.235
		c-0.132,0.145-0.201,0.331-0.19,0.526c0.016,0.393,0.337,0.7,0.729,0.7v0.25l0.031-0.251c0.403-0.018,0.717-0.357,0.7-0.761
		C32.38,14.97,32.061,14.663,31.668,14.663z"/>
	<circle cx="31.668" cy="15.444" r="0.424"/>
	<g>
		<path d="M29.746,16.296c-1.667,0-2.211-0.661-2.238-0.694c-0.086-0.108-0.066-0.266,0.041-0.351s0.265-0.067,0.351,0.037
			c0.015,0.017,0.676,0.742,2.867,0.43c0.131-0.017,0.264,0.075,0.281,0.212c0.021,0.137-0.074,0.263-0.212,0.283
			C30.428,16.272,30.066,16.296,29.746,16.296z"/>
		<path d="M30.468,14.986c-1.268,0-2.382-0.774-2.435-0.812c-0.113-0.08-0.14-0.235-0.06-0.349c0.079-0.111,0.233-0.14,0.348-0.061
			c0.013,0.009,1.308,0.903,2.561,0.686c0.133-0.025,0.267,0.067,0.29,0.203c0.024,0.137-0.065,0.267-0.201,0.29
			C30.801,14.973,30.633,14.986,30.468,14.986z"/>
	</g>
</g>
</svg>
