<?xml version="1.0" encoding="iso-8859-1"?>
<!-- Generator: Adobe Illustrator 16.0.4, SVG Export Plug-In . SVG Version: 6.00 Build 0)  -->
<!DOCTYPE svg PUBLIC "-//W3C//DTD SVG 1.1//EN" "http://www.w3.org/Graphics/SVG/1.1/DTD/svg11.dtd">
<svg version="1.1" id="Capa_1" xmlns="http://www.w3.org/2000/svg" xmlns:xlink="http://www.w3.org/1999/xlink" x="0px" y="0px"
	 width="44.931px" height="47.955px" viewBox="0 0 44.931 47.955" style="enable-background:new 0 0 44.931 47.955;"
	 xml:space="preserve">
<g id="Speech_Bubble">
	<g>
		<path d="M4.011,47.955c-0.214,0-0.425-0.068-0.601-0.2c-0.268-0.201-0.417-0.522-0.397-0.856l0.7-12.328
			c0.031-0.552,0.507-0.968,1.055-0.941c0.552,0.031,0.973,0.504,0.941,1.055L5.094,45.513l10.224-3.608
			c0.522-0.18,1.092,0.09,1.276,0.61c0.184,0.521-0.09,1.092-0.61,1.276l-11.64,4.107C4.235,47.937,4.123,47.955,4.011,47.955z"/>
		<path d="M22.41,44.927c-2.392,0-4.753-0.385-7.051-1.152l0.633-1.896c3.038,1.014,6.195,1.291,9.39,0.834
			c5.412-0.781,10.195-3.621,13.469-7.996c3.273-4.376,4.646-9.764,3.865-15.174C41.109,8.38,30.717,0.604,19.549,2.211
			C14.14,2.989,9.357,5.829,6.082,10.207c-3.274,4.377-4.648,9.765-3.868,15.172c0.448,3.115,1.565,6.002,3.321,8.582l-1.652,1.125
			c-1.93-2.834-3.157-6.004-3.648-9.422C-0.622,19.729,0.886,13.813,4.48,9.009c3.596-4.806,8.846-7.923,14.783-8.778
			c12.262-1.763,23.669,6.771,25.432,19.026c0.857,5.938-0.649,11.854-4.243,16.657c-3.593,4.803-8.844,7.92-14.785,8.777
			C24.577,44.849,23.49,44.927,22.41,44.927z"/>
	</g>
	<g>
		<g>
			<path d="M22.451,32.41c-8.17,0-14.571-9.118-14.84-9.506c-0.293-0.424-0.217-1,0.177-1.333c0.248-0.21,6.146-5.165,10.393-5.679
				c2.634-0.316,3.699,0.283,4.461,0.98c0.015,0.014,0.028,0.026,0.042,0.039c0.44,0.104,0.768,0.5,0.768,0.973c0,0.553-0.447,1-1,1
				c-0.573,0-0.926-0.322-1.159-0.535c-0.314-0.288-0.791-0.724-2.871-0.471c-2.867,0.347-6.953,3.334-8.605,4.628
				c1.654,2.094,6.772,7.903,12.636,7.903c0.553,0,1,0.447,1,1S23.004,32.41,22.451,32.41z"/>
			<path d="M22.343,32.41c-0.553,0-1-0.447-1-1s0.447-1,1-1c5.876,0,10.985-5.809,12.637-7.903
				c-1.652-1.293-5.739-4.281-8.606-4.628c-2.08-0.251-2.557,0.183-2.87,0.47c-0.233,0.214-0.587,0.536-1.16,0.536
				c-0.553,0-1-0.447-1-1c0-0.473,0.328-0.868,0.769-0.973c0.014-0.013,0.027-0.026,0.042-0.039c0.762-0.697,1.825-1.298,4.46-0.98
				c4.247,0.514,10.145,5.469,10.393,5.679c0.394,0.333,0.47,0.909,0.177,1.333C36.914,23.292,30.513,32.41,22.343,32.41z"/>
		</g>
		<path d="M22.329,26.463c-1.939,0-8.269-0.167-8.269-2.32c0-2.151,6.329-2.318,8.269-2.318s8.27,0.167,8.27,2.318
			C30.599,26.296,24.269,26.463,22.329,26.463z M15.856,24.144c0.854,0.357,3.077,0.819,6.473,0.819s5.619-0.462,6.473-0.819
			c-0.854-0.357-3.078-0.819-6.473-0.819C18.936,23.324,16.712,23.786,15.856,24.144z"/>
	</g>
</g>
<g>
</g>
<g>
</g>
<g>
</g>
<g>
</g>
<g>
</g>
<g>
</g>
<g>
</g>
<g>
</g>
<g>
</g>
<g>
</g>
<g>
</g>
<g>
</g>
<g>
</g>
<g>
</g>
<g>
</g>
</svg>
