<?xml version="1.0" encoding="iso-8859-1"?>
<!-- Generator: Adobe Illustrator 16.0.4, SVG Export Plug-In . SVG Version: 6.00 Build 0)  -->
<!DOCTYPE svg PUBLIC "-//W3C//DTD SVG 1.1//EN" "http://www.w3.org/Graphics/SVG/1.1/DTD/svg11.dtd">
<svg version="1.1" id="Capa_1" xmlns="http://www.w3.org/2000/svg" xmlns:xlink="http://www.w3.org/1999/xlink" x="0px" y="0px"
	 width="47.854px" height="47.854px" viewBox="0 0 47.854 47.854" style="enable-background:new 0 0 47.854 47.854;"
	 xml:space="preserve">
<g id="Stop">
	<path d="M23.938,47.854h-0.013C10.737,47.854,0.004,37.121,0,23.93C0.004,10.734,10.738,0,23.929,0
		c6.393,0,12.402,2.489,16.921,7.008c4.519,4.52,7.006,10.526,7.004,16.916c0.003,6.391-2.483,12.399-7,16.919
		C36.337,45.364,30.329,47.854,23.938,47.854z M23.929,2C11.841,2,2.004,11.838,2,23.93c0.004,12.089,9.839,21.924,21.925,21.924
		h0.013c5.857,0,11.362-2.281,15.502-6.424s6.418-9.649,6.415-15.506c0.002-5.855-2.278-11.36-6.419-15.502
		C35.294,4.281,29.787,2,23.929,2z"/>
	<path d="M23.915,43.283h-0.003c-5.173-0.001-10.035-2.015-13.691-5.671s-5.669-8.518-5.668-13.688
		C4.55,13.253,13.233,4.568,23.909,4.564c5.172,0,10.035,2.014,13.693,5.671c3.658,3.657,5.672,8.519,5.671,13.688
		c0.001,5.169-2.013,10.03-5.669,13.688C33.946,41.27,29.084,43.283,23.915,43.283z M23.909,6.564
		C14.336,6.568,6.55,14.355,6.552,23.924c-0.001,4.637,1.804,8.996,5.083,12.274s7.639,5.084,12.277,5.085l0.003,1v-1
		c4.636,0,8.995-1.806,12.274-5.086c3.279-3.279,5.085-7.638,5.084-12.273c0.001-4.636-1.805-8.994-5.085-12.273
		C32.907,8.37,28.546,6.564,23.909,6.564z"/>
	<g>
		<g>
			<path d="M16.147,30.965c-0.552,0-1-0.447-1-1V18.121c0-0.553,0.448-1,1-1s1,0.447,1,1v11.844
				C17.147,30.518,16.7,30.965,16.147,30.965z"/>
			<path d="M29.278,32.971H18.806c-2.041,0-3.64-1.32-3.64-3.006c0-0.553,0.448-1,1-1s1,0.447,1,1c0,0.476,0.673,1.006,1.64,1.006
				h10.473c0.552,0,1,0.447,1,1S29.831,32.971,29.278,32.971z"/>
			<path d="M16.166,19.039c-0.552,0-1-0.447-1-1c0-1.687,1.599-3.008,3.64-3.008h10.473c0.552,0,1,0.447,1,1s-0.448,1-1,1H18.806
				c-0.966,0-1.64,0.531-1.64,1.008C17.166,18.592,16.718,19.039,16.166,19.039z"/>
		</g>
		<g>
			<path d="M31.92,30.965c-0.552,0-1-0.447-1-1V18.117c0-0.553,0.448-1,1-1s1,0.447,1,1v11.848
				C32.92,30.518,32.472,30.965,31.92,30.965z"/>
			<path d="M29.278,32.971c-0.552,0-1-0.447-1-1s0.448-1,1-1c0.967,0,1.642-0.53,1.642-1.006c0-0.553,0.448-1,1-1s1,0.447,1,1
				C32.92,31.65,31.32,32.971,29.278,32.971z"/>
			<path d="M31.92,19.039c-0.552,0-1-0.447-1-1c0-0.477-0.674-1.008-1.642-1.008c-0.552,0-1-0.447-1-1s0.448-1,1-1
				c2.042,0,3.642,1.321,3.642,3.008C32.92,18.592,32.472,19.039,31.92,19.039z"/>
		</g>
	</g>
</g>
<g>
</g>
<g>
</g>
<g>
</g>
<g>
</g>
<g>
</g>
<g>
</g>
<g>
</g>
<g>
</g>
<g>
</g>
<g>
</g>
<g>
</g>
<g>
</g>
<g>
</g>
<g>
</g>
<g>
</g>
</svg>
