<?xml version="1.0" encoding="iso-8859-1"?>
<!-- Generator: Adobe Illustrator 16.0.4, SVG Export Plug-In . SVG Version: 6.00 Build 0)  -->
<!DOCTYPE svg PUBLIC "-//W3C//DTD SVG 1.1//EN" "http://www.w3.org/Graphics/SVG/1.1/DTD/svg11.dtd">
<svg version="1.1" id="Capa_1" xmlns="http://www.w3.org/2000/svg" xmlns:xlink="http://www.w3.org/1999/xlink" x="0px" y="0px"
	 width="48px" height="42.75px" viewBox="0 0 48 42.75" style="enable-background:new 0 0 48 42.75;" xml:space="preserve">
<g id="Suitcase">
	<path d="M32,8.5c-0.414,0-0.75-0.336-0.75-0.75V2.333c0-0.459-0.374-0.833-0.834-0.833H17.584c-0.46,0-0.834,0.374-0.834,0.833
		V7.75c0,0.414-0.336,0.75-0.75,0.75s-0.75-0.336-0.75-0.75V2.333C15.25,1.047,16.297,0,17.584,0h12.832
		c1.287,0,2.334,1.047,2.334,2.333V7.75C32.75,8.164,32.414,8.5,32,8.5z"/>
	<path d="M29.062,8.045c-0.276,0-0.5-0.224-0.5-0.5V4.258c0-0.2-0.042-0.278-0.053-0.289l-8.916-0.015
		c-0.014-0.034-0.031,0.063-0.031,0.303v3.288c0,0.276-0.224,0.5-0.5,0.5s-0.5-0.224-0.5-0.5V4.258c0-0.322,0-1.303,1.031-1.303
		h8.817c0.557,0,1.151,0.342,1.151,1.303v3.288C29.562,7.822,29.339,8.045,29.062,8.045z"/>
	<g>
		<path d="M7.917,42.75C0.899,42.75,0,38.832,0,35.418V14.332c0-3.53,0.896-7.582,7.875-7.582c0.553,0,1,0.448,1,1s-0.447,1-1,1
			C2.961,8.75,2,10.797,2,14.332v21.086c0,3.377,0.968,5.332,5.917,5.332c0.553,0,1,0.448,1,1S8.47,42.75,7.917,42.75z"/>
		<path d="M36.125,42.75H12c-0.553,0-1-0.448-1-1s0.447-1,1-1h24.125c0.553,0,1,0.448,1,1S36.678,42.75,36.125,42.75z"/>
		<path d="M40.255,42.75c-0.553,0-1-0.448-1-1s0.447-1,1-1c4.829,0,5.745-1.874,5.745-5.332V14.332c0-3.473-0.387-5.582-5.745-5.582
			c-0.553,0-1-0.448-1-1s0.447-1,1-1c7.147,0,7.745,3.746,7.745,7.582v21.086C48,39.043,47.08,42.75,40.255,42.75z"/>
		<path d="M36.188,8.75H12c-0.553,0-1-0.448-1-1s0.447-1,1-1h24.188c0.553,0,1,0.448,1,1S36.74,8.75,36.188,8.75z"/>
		<rect x="8.125" y="6.75" width="3.667" height="35.979"/>
		<rect x="36.375" y="6.75" width="3.667" height="36"/>
	</g>
	<g>
		<g>
			<path style="fill:none;stroke:#000000;stroke-linecap:round;stroke-linejoin:round;stroke-miterlimit:10;" d="M14.732,32.812"/>
			<path style="fill:none;stroke:#000000;stroke-linecap:round;stroke-linejoin:round;stroke-miterlimit:10;" d="M18.004,31.867"/>
			<path d="M17.636,36.525c-0.103,0-0.206-0.031-0.295-0.096c-2.032-1.485-2.784-2.334-3.094-3.496
				c-0.263-0.995,0.33-2.362,1.519-2.703c0.562-0.164,1.154-0.097,1.668,0.186c0.515,0.283,0.888,0.749,1.051,1.312
				c0.076,0.266-0.076,0.542-0.342,0.619c-0.265,0.074-0.543-0.077-0.619-0.342c-0.088-0.307-0.291-0.56-0.571-0.714
				c-0.279-0.153-0.604-0.189-0.91-0.101c-0.629,0.18-0.967,0.96-0.828,1.485c0.206,0.773,0.699,1.471,2.717,2.945
				c0.223,0.163,0.271,0.476,0.108,0.699C17.941,36.454,17.789,36.525,17.636,36.525z"/>
		</g>
		<g>
			<path d="M18.086,36.671c-0.406,0-0.653-0.166-0.908-0.365c-0.218-0.17-0.257-0.484-0.087-0.702
				c0.17-0.219,0.486-0.256,0.702-0.086c0.203,0.158,0.233,0.154,0.318,0.152c0.309-0.028,0.51,0.202,0.521,0.478
				c0.013,0.276-0.201,0.509-0.477,0.521C18.132,36.67,18.109,36.671,18.086,36.671z"/>
		</g>
		<g>
			<path style="fill:none;stroke:#000000;stroke-linecap:round;stroke-linejoin:round;stroke-miterlimit:10;" d="M21.321,32.607"/>
			<path style="fill:none;stroke:#000000;stroke-linecap:round;stroke-linejoin:round;stroke-miterlimit:10;" d="M17.997,31.869"/>
			<path d="M18.623,36.494c-0.144,0-0.286-0.062-0.385-0.181c-0.177-0.212-0.147-0.528,0.065-0.704
				c1.921-1.595,2.371-2.323,2.529-3.109c0.105-0.531-0.281-1.288-0.92-1.428c-0.312-0.069-0.634-0.015-0.902,0.158
				c-0.27,0.171-0.456,0.437-0.525,0.748c-0.06,0.269-0.322,0.438-0.597,0.38c-0.27-0.06-0.439-0.327-0.38-0.597
				c0.127-0.573,0.471-1.061,0.966-1.375c0.494-0.314,1.082-0.416,1.654-0.29c1.207,0.266,1.885,1.593,1.685,2.602
				c-0.238,1.181-0.936,2.075-2.871,3.682C18.849,36.457,18.736,36.494,18.623,36.494z"/>
		</g>
		<g>
			<path d="M18.134,36.67c-0.271,0-0.494-0.217-0.5-0.489c-0.006-0.276,0.213-0.505,0.489-0.511
				c0.091-0.002,0.118-0.002,0.309-0.172c0.207-0.184,0.522-0.165,0.706,0.041s0.166,0.522-0.04,0.706
				c-0.255,0.227-0.502,0.415-0.953,0.425C18.142,36.67,18.138,36.67,18.134,36.67z"/>
		</g>
	</g>
	<path d="M30.99,19.348c-0.201,0-0.396-0.042-0.582-0.123l-4.836-2.127c-0.73-0.321-1.063-1.176-0.743-1.906l0.843-1.917
		c0.311-0.709,1.195-1.058,1.907-0.742l4.837,2.126c0.729,0.321,1.063,1.176,0.743,1.907l-0.843,1.917
		C32.084,19.008,31.564,19.348,30.99,19.348z M26.997,13.41c-0.178,0-0.338,0.104-0.409,0.267l-0.843,1.917
		c-0.1,0.226,0.004,0.49,0.229,0.589l4.837,2.127c0.223,0.097,0.492-0.012,0.59-0.23l0.842-1.916c0.1-0.226-0.004-0.491-0.229-0.59
		l-4.837-2.126C27.119,13.422,27.06,13.41,26.997,13.41z"/>
	<path d="M43.039,33.612c-0.463,0-0.919-0.282-1.188-0.736l-1.072-1.798c-0.392-0.659-0.253-1.466,0.31-1.801l3.563-2.122
		c0.547-0.326,1.348-0.055,1.731,0.587l1.071,1.799c0.391,0.66,0.251,1.467-0.31,1.801l-3.563,2.122
		C43.42,33.561,43.232,33.612,43.039,33.612z M45.193,27.894l-3.652,2.144c-0.122,0.072-0.148,0.338-0.001,0.586l1.072,1.799
		c0.159,0.268,0.401,0.349,0.516,0.281l3.563-2.122c0.122-0.072,0.147-0.339,0.001-0.588l-1.071-1.798
		C45.497,27.989,45.312,27.894,45.193,27.894z"/>
	<path d="M5.904,27.051c-0.095,0-0.188-0.027-0.271-0.08l-5.08-3.277c-0.152-0.098-0.239-0.27-0.229-0.45
		c0.011-0.18,0.117-0.341,0.279-0.42l5.618-2.746c0.161-0.08,0.354-0.065,0.505,0.038c0.148,0.103,0.229,0.279,0.213,0.459
		l-0.537,6.017C6.388,26.767,6.283,26.922,6.125,27C6.056,27.034,5.979,27.051,5.904,27.051z M1.839,23.333l3.636,2.345l0.384-4.31
		L1.839,23.333z"/>
</g>
<g>
</g>
<g>
</g>
<g>
</g>
<g>
</g>
<g>
</g>
<g>
</g>
<g>
</g>
<g>
</g>
<g>
</g>
<g>
</g>
<g>
</g>
<g>
</g>
<g>
</g>
<g>
</g>
<g>
</g>
</svg>
