<?xml version="1.0" encoding="iso-8859-1"?>
<!-- Generator: Adobe Illustrator 16.0.4, SVG Export Plug-In . SVG Version: 6.00 Build 0)  -->
<!DOCTYPE svg PUBLIC "-//W3C//DTD SVG 1.1//EN" "http://www.w3.org/Graphics/SVG/1.1/DTD/svg11.dtd">
<svg version="1.1" id="Capa_1" xmlns="http://www.w3.org/2000/svg" xmlns:xlink="http://www.w3.org/1999/xlink" x="0px" y="0px"
	 width="47.812px" height="47.75px" viewBox="0 0 47.812 47.75" style="enable-background:new 0 0 47.812 47.75;"
	 xml:space="preserve">
<g id="Toad_Mushroom">
	<path style="fill:none;stroke:#000000;stroke-width:2;stroke-linecap:round;stroke-linejoin:round;stroke-miterlimit:10;" d="
		M37.893,38.049"/>
	<path d="M9.731,39.19c-0.114,0-0.23-0.02-0.344-0.062c-0.129-0.047-12.83-4.899-8.481-21.126C5.679,0.205,23.073,0,23.812,0
		c0.553,0,1,0.448,1,1s-0.447,1-1,1C23.136,2,7.218,2.188,2.838,18.52C-1.043,33,9.619,37.083,10.075,37.25
		c0.519,0.189,0.785,0.764,0.596,1.283C10.522,38.938,10.14,39.19,9.731,39.19z"/>
	<path d="M38.08,39.19c-0.408,0-0.791-0.251-0.939-0.657c-0.189-0.519,0.077-1.092,0.595-1.282
		c0.47-0.175,11.101-4.321,7.238-18.731C40.593,2.188,24.675,2,23.999,2c-0.553,0-1-0.448-1-1s0.447-1,1-1
		c0.738,0,18.133,0.205,22.906,18.002c4.35,16.227-8.353,21.08-8.481,21.126C38.311,39.17,38.194,39.19,38.08,39.19z"/>
	<path d="M23.886,47.75c-15.035,0-15.035-8.464-15.035-11.245c0-4.229,5.621-6.753,15.035-6.753c0.553,0,1,0.448,1,1s-0.447,1-1,1
		c-6.014,0-13.035,1.245-13.035,4.753c0,2.767,0,9.245,13.035,9.245c0.553,0,1,0.448,1,1S24.438,47.75,23.886,47.75z"/>
	<path d="M23.886,47.75c-0.553,0-1-0.448-1-1s0.447-1,1-1c13.033,0,13.033-6.479,13.033-9.245c0-3.508-7.021-4.753-13.033-4.753
		c-0.553,0-1-0.448-1-1s0.447-1,1-1c9.413,0,15.033,2.524,15.033,6.753C38.919,39.286,38.919,47.75,23.886,47.75z"/>
	<circle cx="23.946" cy="14.25" r="9.875"/>
	<path d="M2.993,32.265c1.488,2.92,5.928-3.091,7.064-6.421c1.76-5.162-0.998-10.774-6.16-12.534
		C3.897,13.31-1.646,23.154,2.993,32.265z"/>
	<path d="M44.772,32.265c-1.486,2.92-5.927-3.091-7.062-6.421c-1.761-5.162,0.998-10.774,6.159-12.534
		C43.869,13.31,49.413,23.154,44.772,32.265z"/>
	<g>
		<path d="M18.705,42.143c-1.653,0-3.017-1.348-3.038-3.005c-0.013-1.678,1.339-3.055,3.013-3.074c1.688,0,3.048,1.349,3.067,3.007
			c0.008,0.816-0.301,1.584-0.87,2.164c-0.568,0.579-1.328,0.901-2.14,0.908H18.705z M18.714,37.563
			c-0.867,0.01-1.554,0.709-1.547,1.559c0.011,0.837,0.701,1.521,1.538,1.521v0.75l0.018-0.75c0.412-0.003,0.797-0.167,1.084-0.459
			c0.288-0.293,0.444-0.683,0.44-1.097C20.237,38.247,19.55,37.563,18.714,37.563z"/>
		<path d="M16.812,37.478c-0.258,0-0.508-0.132-0.647-0.37l-0.61-1.038c-0.21-0.357-0.091-0.817,0.267-1.027
			c0.356-0.211,0.816-0.09,1.026,0.266l0.61,1.038c0.21,0.357,0.091,0.817-0.267,1.027C17.072,37.444,16.941,37.478,16.812,37.478z"
			/>
		<path d="M18.688,36.959c-0.411,0-0.746-0.331-0.75-0.743l-0.012-1.197c-0.004-0.414,0.328-0.753,0.742-0.757
			c0.003,0,0.006,0,0.008,0c0.411,0,0.746,0.331,0.75,0.743l0.012,1.197c0.004,0.414-0.328,0.753-0.742,0.757
			C18.693,36.959,18.69,36.959,18.688,36.959z"/>
		<path d="M20.604,37.471c-0.125,0-0.251-0.031-0.367-0.097c-0.361-0.204-0.488-0.661-0.285-1.022l0.591-1.047
			c0.204-0.36,0.663-0.486,1.021-0.285c0.361,0.204,0.488,0.661,0.285,1.022l-0.591,1.047C21.12,37.333,20.865,37.471,20.604,37.471
			z"/>
	</g>
	<g>
		<path d="M29.144,42.143c-1.653,0-3.017-1.348-3.038-3.005c-0.015-1.677,1.337-3.055,3.012-3.074c1.688,0,3.049,1.349,3.068,3.007
			c0.008,0.816-0.301,1.584-0.87,2.164c-0.568,0.579-1.328,0.901-2.14,0.908H29.144z M29.151,37.563
			c-0.867,0.01-1.553,0.709-1.546,1.558c0.011,0.837,0.701,1.521,1.538,1.521v0.75l0.018-0.75c0.412-0.003,0.796-0.167,1.084-0.459
			c0.288-0.294,0.444-0.684,0.44-1.097C30.676,38.247,29.987,37.563,29.151,37.563z"/>
		<path d="M27.251,37.478c-0.258,0-0.508-0.132-0.647-0.37l-0.61-1.038c-0.21-0.357-0.091-0.817,0.267-1.027
			c0.356-0.211,0.816-0.09,1.026,0.266l0.61,1.038c0.21,0.357,0.091,0.817-0.267,1.027C27.511,37.444,27.38,37.478,27.251,37.478z"
			/>
		<path d="M29.127,36.959c-0.411,0-0.746-0.331-0.75-0.743l-0.012-1.197c-0.004-0.414,0.328-0.753,0.742-0.757
			c0.003,0,0.006,0,0.008,0c0.411,0,0.746,0.331,0.75,0.743l0.012,1.197c0.004,0.414-0.328,0.753-0.742,0.757
			C29.132,36.959,29.129,36.959,29.127,36.959z"/>
		<path d="M31.041,37.471c-0.125,0-0.252-0.031-0.368-0.097c-0.36-0.204-0.487-0.661-0.284-1.022l0.592-1.047
			c0.205-0.361,0.663-0.487,1.022-0.284c0.36,0.204,0.487,0.661,0.284,1.022l-0.592,1.047
			C31.557,37.334,31.303,37.471,31.041,37.471z"/>
	</g>
</g>
<g>
</g>
<g>
</g>
<g>
</g>
<g>
</g>
<g>
</g>
<g>
</g>
<g>
</g>
<g>
</g>
<g>
</g>
<g>
</g>
<g>
</g>
<g>
</g>
<g>
</g>
<g>
</g>
<g>
</g>
</svg>
