<?xml version="1.0" encoding="iso-8859-1"?>
<!-- Generator: Adobe Illustrator 16.0.4, SVG Export Plug-In . SVG Version: 6.00 Build 0)  -->
<!DOCTYPE svg PUBLIC "-//W3C//DTD SVG 1.1//EN" "http://www.w3.org/Graphics/SVG/1.1/DTD/svg11.dtd">
<svg version="1.1" id="Capa_1" xmlns="http://www.w3.org/2000/svg" xmlns:xlink="http://www.w3.org/1999/xlink" x="0px" y="0px"
	 width="48.277px" height="42.635px" viewBox="0 0 48.277 42.635" style="enable-background:new 0 0 48.277 42.635;"
	 xml:space="preserve">
<g id="Toilet_Paper_Roll">
	<path d="M15.525,16.526C6.819,16.526,0,12.897,0,8.263S6.819,0,15.525,0c8.707,0,15.526,3.629,15.526,8.263
		S24.232,16.526,15.525,16.526z M15.525,2C8.194,2,2,4.868,2,8.263s6.194,6.263,13.525,6.263c7.332,0,13.526-2.868,13.526-6.263
		S22.857,2,15.525,2z"/>
	<path d="M15.525,37.334C6.819,37.334,0,33.705,0,29.07V8.263c0-0.552,0.448-1,1-1s1,0.448,1,1V29.07
		c0,3.396,6.194,6.264,13.525,6.264c7.332,0,13.526-2.869,13.526-6.264V8.263c0-0.552,0.448-1,1-1s1,0.448,1,1V29.07
		C31.052,33.705,24.232,37.334,15.525,37.334z"/>
	<path d="M15.821,10.093c-2.583,0-5.363-0.757-5.363-2.418c0-1.662,2.78-2.419,5.363-2.419s5.363,0.757,5.363,2.419
		C21.185,9.336,18.404,10.093,15.821,10.093z M15.821,6.756c-2.429,0-3.752,0.684-3.869,0.957c0.117,0.196,1.441,0.88,3.869,0.88
		c2.428,0,3.751-0.684,3.869-0.956C19.573,7.441,18.25,6.756,15.821,6.756z"/>
	<path d="M47.277,42.635c-0.017,0-0.033,0-0.05-0.001c-0.384-0.019-9.468-0.582-14.337-10.164c-0.737-1.501-1.859-2.996-2.315-3.088
		c-0.552-0.029-0.969-0.5-0.939-1.051s0.513-0.969,1.058-0.945c1.792,0.095,3.385,2.962,3.986,4.191
		c3.276,6.447,8.659,8.315,11.22,8.85c-1.733-6.783-0.85-12.302-0.251-16.04c0.217-1.359,0.483-3.019,0.325-3.604
		c-0.159,0.014-0.39,0.053-0.573,0.084c-1.622,0.277-4.639,0.787-7.113-4.103c-3.193-6.31-9.945-10.527-10.013-10.569
		c-0.47-0.29-0.616-0.906-0.326-1.375c0.29-0.47,0.905-0.617,1.375-0.327c0.296,0.182,7.294,4.545,10.748,11.368
		c1.809,3.575,3.576,3.276,4.995,3.034c0.807-0.136,1.81-0.306,2.442,0.538c0.791,1.053,0.522,2.731,0.115,5.271
		c-0.613,3.828-1.539,9.612,0.61,16.64c0.096,0.312,0.033,0.65-0.167,0.907C47.876,42.494,47.584,42.635,47.277,42.635z"/>
	<g>
		<path d="M18.485,18.458c-0.276,0-0.5-0.224-0.5-0.5V17.47c0-0.276,0.224-0.5,0.5-0.5s0.5,0.224,0.5,0.5v0.488
			C18.985,18.234,18.762,18.458,18.485,18.458z"/>
		<path d="M18.485,32.237c-0.276,0-0.5-0.224-0.5-0.5v-0.918c0-0.276,0.224-0.5,0.5-0.5s0.5,0.224,0.5,0.5v0.918
			C18.985,32.013,18.762,32.237,18.485,32.237z M18.485,29.481c-0.276,0-0.5-0.224-0.5-0.5v-0.918c0-0.276,0.224-0.5,0.5-0.5
			s0.5,0.224,0.5,0.5v0.918C18.985,29.257,18.762,29.481,18.485,29.481z M18.485,26.726c-0.276,0-0.5-0.224-0.5-0.5v-0.919
			c0-0.276,0.224-0.5,0.5-0.5s0.5,0.224,0.5,0.5v0.919C18.985,26.502,18.762,26.726,18.485,26.726z M18.485,23.97
			c-0.276,0-0.5-0.224-0.5-0.5v-0.918c0-0.276,0.224-0.5,0.5-0.5s0.5,0.224,0.5,0.5v0.918C18.985,23.746,18.762,23.97,18.485,23.97z
			 M18.485,21.214c-0.276,0-0.5-0.224-0.5-0.5v-0.918c0-0.276,0.224-0.5,0.5-0.5s0.5,0.224,0.5,0.5v0.918
			C18.985,20.99,18.762,21.214,18.485,21.214z"/>
		<path d="M18.485,34.562c-0.276,0-0.5-0.224-0.5-0.5v-0.488c0-0.276,0.224-0.5,0.5-0.5s0.5,0.224,0.5,0.5v0.488
			C18.985,34.338,18.762,34.562,18.485,34.562z"/>
	</g>
	<g>
		<path d="M4.578,16.018c-0.276,0-0.5-0.224-0.5-0.5V15.03c0-0.276,0.224-0.5,0.5-0.5s0.5,0.224,0.5,0.5v0.488
			C5.078,15.794,4.854,16.018,4.578,16.018z"/>
		<path d="M4.578,29.797c-0.276,0-0.5-0.224-0.5-0.5v-0.918c0-0.276,0.224-0.5,0.5-0.5s0.5,0.224,0.5,0.5v0.918
			C5.078,29.573,4.854,29.797,4.578,29.797z M4.578,27.041c-0.276,0-0.5-0.224-0.5-0.5v-0.918c0-0.276,0.224-0.5,0.5-0.5
			s0.5,0.224,0.5,0.5v0.918C5.078,26.817,4.854,27.041,4.578,27.041z M4.578,24.286c-0.276,0-0.5-0.224-0.5-0.5v-0.919
			c0-0.276,0.224-0.5,0.5-0.5s0.5,0.224,0.5,0.5v0.919C5.078,24.062,4.854,24.286,4.578,24.286z M4.578,21.53
			c-0.276,0-0.5-0.224-0.5-0.5v-0.918c0-0.276,0.224-0.5,0.5-0.5s0.5,0.224,0.5,0.5v0.918C5.078,21.306,4.854,21.53,4.578,21.53z
			 M4.578,18.774c-0.276,0-0.5-0.224-0.5-0.5v-0.918c0-0.276,0.224-0.5,0.5-0.5s0.5,0.224,0.5,0.5v0.918
			C5.078,18.55,4.854,18.774,4.578,18.774z"/>
		<path d="M4.578,32.122c-0.276,0-0.5-0.224-0.5-0.5v-0.488c0-0.276,0.224-0.5,0.5-0.5s0.5,0.224,0.5,0.5v0.488
			C5.078,31.898,4.854,32.122,4.578,32.122z"/>
	</g>
	<g>
		<path d="M35.974,15.367c-0.276,0-0.5-0.224-0.5-0.5v-0.488c0-0.276,0.224-0.5,0.5-0.5s0.5,0.224,0.5,0.5v0.488
			C36.474,15.143,36.25,15.367,35.974,15.367z"/>
		<path d="M35.974,29.145c-0.276,0-0.5-0.224-0.5-0.5v-0.918c0-0.276,0.224-0.5,0.5-0.5s0.5,0.224,0.5,0.5v0.918
			C36.474,28.921,36.25,29.145,35.974,29.145z M35.974,26.389c-0.276,0-0.5-0.224-0.5-0.5v-0.918c0-0.276,0.224-0.5,0.5-0.5
			s0.5,0.224,0.5,0.5v0.918C36.474,26.166,36.25,26.389,35.974,26.389z M35.974,23.633c-0.276,0-0.5-0.224-0.5-0.5v-0.918
			c0-0.276,0.224-0.5,0.5-0.5s0.5,0.224,0.5,0.5v0.918C36.474,23.41,36.25,23.633,35.974,23.633z M35.974,20.878
			c-0.276,0-0.5-0.224-0.5-0.5v-0.918c0-0.276,0.224-0.5,0.5-0.5s0.5,0.224,0.5,0.5v0.918C36.474,20.654,36.25,20.878,35.974,20.878
			z M35.974,18.123c-0.276,0-0.5-0.224-0.5-0.5v-0.918c0-0.276,0.224-0.5,0.5-0.5s0.5,0.224,0.5,0.5v0.918
			C36.474,17.899,36.25,18.123,35.974,18.123z"/>
		<path d="M35.974,31.469c-0.276,0-0.5-0.224-0.5-0.5v-0.488c0-0.276,0.224-0.5,0.5-0.5s0.5,0.224,0.5,0.5v0.488
			C36.474,31.246,36.25,31.469,35.974,31.469z"/>
	</g>
</g>
<g>
</g>
<g>
</g>
<g>
</g>
<g>
</g>
<g>
</g>
<g>
</g>
<g>
</g>
<g>
</g>
<g>
</g>
<g>
</g>
<g>
</g>
<g>
</g>
<g>
</g>
<g>
</g>
<g>
</g>
</svg>
