<?xml version="1.0" encoding="iso-8859-1"?>
<!-- Generator: Adobe Illustrator 16.0.4, SVG Export Plug-In . SVG Version: 6.00 Build 0)  -->
<!DOCTYPE svg PUBLIC "-//W3C//DTD SVG 1.1//EN" "http://www.w3.org/Graphics/SVG/1.1/DTD/svg11.dtd">
<svg version="1.1" id="Capa_1" xmlns="http://www.w3.org/2000/svg" xmlns:xlink="http://www.w3.org/1999/xlink" x="0px" y="0px"
	 width="48px" height="48px" viewBox="0 0 48 48" style="enable-background:new 0 0 48 48;" xml:space="preserve">
<g id="Tumblr">
	<path d="M37.292,48H11.917C4.344,48,0,44.014,0,37.062V12.125C0,4.873,4.27,0,10.625,0h27.584C42.918,0,48,4.524,48,11.834v25.083
		C48,43.132,43.296,48,37.292,48z M10.625,2C4.259,2,2,7.454,2,12.125v24.938C2,44.449,7.393,46,11.917,46h25.375
		C42.256,46,46,42.095,46,36.917V11.834C46,5.76,41.956,2,38.209,2H10.625z"/>
	<path d="M37.135,43.326H10.938c-3.459,0-6.273-2.808-6.273-6.26V10.935c0-3.452,2.814-6.26,6.273-6.26h26.197
		c3.458,0,6.272,2.808,6.272,6.26v26.132C43.407,40.519,40.593,43.326,37.135,43.326z M10.938,6.659
		c-2.365,0-4.289,1.918-4.289,4.275v26.132c0,2.357,1.924,4.275,4.289,4.275h26.197c2.364,0,4.288-1.918,4.288-4.275V10.935
		c0-2.357-1.924-4.275-4.288-4.275H10.938z"/>
	<path d="M25.438,39.891c-2.371,0-4.098-0.485-5.599-1.572c-2.515-1.822-2.464-5.852-2.46-6.022v-9.071h-2.51c-0.552,0-1-0.447-1-1
		v-4.533c0-0.373,0.208-0.715,0.538-0.887c6.238-3.249,5.209-7.443,5.198-7.485c-0.079-0.299-0.015-0.618,0.173-0.863
		c0.188-0.246,0.479-0.391,0.789-0.393l4.105-0.021c0.252-0.041,0.52,0.103,0.709,0.289c0.188,0.187,0.295,0.44,0.296,0.706
		l0.035,7.18l6.272,0.034c0.55,0.003,0.995,0.45,0.995,1v4.974c0,0.553-0.448,1-1,1h-6.459v7.045c0,1.896,1.01,2.229,3.132,2.229
		c1.252,0,3.458-0.948,4.203-1.313c0.309-0.152,0.676-0.134,0.97,0.049c0.293,0.183,0.471,0.503,0.471,0.849v5.167
		c0,0.271-0.111,0.532-0.306,0.721c-0.15,0.145-1.59,1.423-5.802,1.777C27.353,39.818,26.374,39.891,25.438,39.891z M15.869,21.225
		h2.51c0.552,0,1,0.447,1,1v10.092c-0.014,0.893,0.252,3.382,1.634,4.383c1.153,0.835,2.477,1.191,4.425,1.191
		c0.861,0,1.789-0.068,2.582-0.135c2.448-0.206,3.731-0.74,4.276-1.037v-3.107c-1.062,0.419-2.505,0.888-3.644,0.888
		c-1.403,0-5.132,0-5.132-4.229v-8.045c0-0.553,0.448-1,1-1h6.459v-2.979l-6.267-0.034c-0.548-0.003-0.992-0.447-0.995-0.995
		l-0.035-7.169l-2.01,0.011c0.003,1.849-0.743,5.386-5.803,8.229V21.225z"/>
</g>
<g>
</g>
<g>
</g>
<g>
</g>
<g>
</g>
<g>
</g>
<g>
</g>
<g>
</g>
<g>
</g>
<g>
</g>
<g>
</g>
<g>
</g>
<g>
</g>
<g>
</g>
<g>
</g>
<g>
</g>
</svg>
