<?xml version="1.0" encoding="iso-8859-1"?>
<!-- Generator: Adobe Illustrator 16.0.4, SVG Export Plug-In . SVG Version: 6.00 Build 0)  -->
<!DOCTYPE svg PUBLIC "-//W3C//DTD SVG 1.1//EN" "http://www.w3.org/Graphics/SVG/1.1/DTD/svg11.dtd">
<svg version="1.1" id="Capa_1" xmlns="http://www.w3.org/2000/svg" xmlns:xlink="http://www.w3.org/1999/xlink" x="0px" y="0px"
	 width="48px" height="48px" viewBox="0 0 48 48" style="enable-background:new 0 0 48 48;" xml:space="preserve">
<g id="Vimeo">
	<path d="M37.292,48H11.917C4.344,48,0,44.014,0,37.062V12.125C0,4.873,4.27,0,10.625,0h27.584C42.918,0,48,4.524,48,11.834v25.083
		C48,43.132,43.296,48,37.292,48z M10.625,2C4.259,2,2,7.454,2,12.125v24.938C2,44.449,7.393,46,11.917,46h25.375
		C42.256,46,46,42.095,46,36.917V11.834C46,5.76,41.956,2,38.209,2H10.625z"/>
	<path d="M37.135,43.326H10.938c-3.459,0-6.273-2.808-6.273-6.26V10.935c0-3.452,2.814-6.26,6.273-6.26h26.197
		c3.458,0,6.272,2.808,6.272,6.26v26.132C43.407,40.519,40.593,43.326,37.135,43.326z M10.938,6.659
		c-2.365,0-4.289,1.918-4.289,4.275v26.132c0,2.357,1.924,4.275,4.289,4.275h26.197c2.364,0,4.288-1.918,4.288-4.275V10.935
		c0-2.357-1.924-4.275-4.288-4.275H10.938z"/>
	<path d="M23.367,37.324c-4.72,0-6.03-5.372-7.186-10.111c-0.255-1.046-0.496-2.033-0.767-2.953
		c-1.035-3.521-1.557-3.902-1.733-3.902c-0.166,0-0.542,0.135-1.394,0.773c-0.419,0.313-1.008,0.253-1.353-0.142l-1.562-1.785
		c-0.175-0.199-0.263-0.461-0.245-0.726c0.018-0.265,0.14-0.512,0.341-0.687c0.029-0.025,2.902-2.53,4.356-3.912
		c1.03-0.979,3.314-2.436,5.383-2.436c1.103,0,3.042,0.433,3.649,3.326l0.416,2.01c0.625,3.041,1.629,7.917,2.251,9.476
		c0.561-0.482,1.669-1.828,2.277-3.265c1.06-2.504,0.878-3.222,0.751-3.414c-0.09-0.136-0.426-0.15-0.565-0.15
		c-0.448,0-1.046,0.123-1.777,0.366c-0.333,0.113-0.701,0.04-0.968-0.189s-0.394-0.582-0.333-0.929
		c0.461-2.68,2.832-7.748,8.5-7.748c2.652,0,3.957,1.211,4.585,2.228c1.85,2.992,0.223,7.754-0.493,9.187
		C37.427,22.49,29.41,37.324,23.367,37.324z M13.682,18.357c1.929,0,2.763,2.313,3.652,5.338c0.284,0.965,0.542,2.021,0.791,3.044
		c1.226,5.026,2.32,8.585,5.243,8.585c3.744,0,10.435-10.056,12.346-13.878c0.788-1.577,1.768-5.32,0.581-7.241
		c-0.532-0.86-1.476-1.278-2.884-1.278c-3.71,0-5.381,2.738-6.079,4.544c0.23-0.029,0.449-0.044,0.657-0.044
		c1.272,0,1.917,0.568,2.233,1.046c0.896,1.353,0.211,3.438-0.577,5.299c-0.668,1.576-2.704,4.665-4.381,4.665
		c-0.211,0-0.413-0.043-0.599-0.128c-0.92-0.419-1.441-1.851-3.349-11.126L20.9,15.181c-0.323-1.539-1.074-1.736-1.692-1.736
		c-1.379,0-3.206,1.125-4.005,1.885c-1.031,0.979-2.7,2.46-3.667,3.311l0.315,0.359C12.439,18.629,13.054,18.357,13.682,18.357z"/>
</g>
<g>
</g>
<g>
</g>
<g>
</g>
<g>
</g>
<g>
</g>
<g>
</g>
<g>
</g>
<g>
</g>
<g>
</g>
<g>
</g>
<g>
</g>
<g>
</g>
<g>
</g>
<g>
</g>
<g>
</g>
</svg>
