<?xml version="1.0" encoding="iso-8859-1"?>
<!-- Generator: Adobe Illustrator 16.0.4, SVG Export Plug-In . SVG Version: 6.00 Build 0)  -->
<!DOCTYPE svg PUBLIC "-//W3C//DTD SVG 1.1//EN" "http://www.w3.org/Graphics/SVG/1.1/DTD/svg11.dtd">
<svg version="1.1" id="Capa_1" xmlns="http://www.w3.org/2000/svg" xmlns:xlink="http://www.w3.org/1999/xlink" x="0px" y="0px"
	 width="47.63px" height="47.456px" viewBox="0 0 47.63 47.456" style="enable-background:new 0 0 47.63 47.456;"
	 xml:space="preserve">
<g id="Whisk">
	<g>
		<path d="M27.615,28.441c-0.256,0-0.512-0.098-0.707-0.292l-1.656-1.655c-0.391-0.391-0.391-1.023,0-1.415
			c0.391-0.391,1.024-0.39,1.415,0l1.656,1.655c0.391,0.391,0.391,1.023,0,1.415C28.127,28.344,27.871,28.441,27.615,28.441z"/>
		<path d="M44.937,47.456c-1.05,0-2.293-0.616-3.325-1.648l-13.4-13.399c-1.032-1.032-1.647-2.275-1.647-3.327
			c0-0.585,0.193-1.086,0.556-1.448l0.688-0.688c1.016-1.015,3.168-0.514,4.774,1.092l13.4,13.4
			c0.729,0.729,1.264,1.583,1.505,2.402c0.287,0.977,0.141,1.819-0.413,2.373L46.386,46.9
			C46.023,47.264,45.522,47.456,44.937,47.456z M29.257,27.891c-0.125,0-0.293,0.02-0.389,0.115l-0.688,0.689
			c-0.096,0.096-0.116,0.264-0.116,0.388c0,0.488,0.316,1.373,1.208,2.265l13.4,13.399c0.892,0.892,1.778,1.208,2.265,1.208
			c0.125,0,0.293-0.02,0.389-0.115l0.687-0.688c0.142-0.142,0.155-0.482,0.035-0.89c-0.169-0.574-0.58-1.218-1.126-1.765l-13.4-13.4
			C30.629,28.207,29.744,27.891,29.257,27.891z"/>
		<path d="M23.138,26.614c-5.711,0-17.155-6.312-20.138-9.293C-1.005,13.313-0.999,7.033,3.013,3.021C4.961,1.073,7.506,0,10.18,0
			c2.65,0,5.18,1.071,7.125,3.016C20.917,6.627,29.629,22,25.914,25.715C25.317,26.312,24.383,26.614,23.138,26.614z M10.18,1
			C7.773,1,5.479,1.969,3.72,3.728c-3.676,3.676-3.681,9.215-0.013,12.885c2.813,2.812,14.046,9,19.431,9
			c0.971,0,1.667-0.204,2.069-0.606c2.816-2.816-4.499-17.175-8.608-21.285C14.842,1.967,12.563,1,10.18,1z"/>
		<path d="M24.288,26.199c-4.769,0-16.546-7.901-19.365-10.582c-1.738-1.652-3.782-4.688-3.821-7.81
			C1.079,5.987,1.731,4.4,3.041,3.091c0.195-0.195,0.512-0.195,0.707,0s0.195,0.512,0,0.707C2.636,4.91,2.083,6.254,2.102,7.795
			c0.035,2.81,1.913,5.58,3.51,7.098c4.064,3.865,17.64,11.975,19.521,10.094c0.195-0.195,0.512-0.195,0.707,0s0.195,0.512,0,0.707
			C25.491,26.043,24.958,26.199,24.288,26.199z"/>
		<path d="M25.227,25.971c-0.724,0-2.568-0.803-8.178-4.875c-4.181-3.035-8.328-6.381-10.084-8.138
			c-1.331-1.331-2.687-3.339-3.538-5.243c-0.703-1.572-1.335-3.651-0.355-4.63c0.195-0.195,0.512-0.195,0.707,0s0.195,0.512,0,0.707
			C3.431,4.14,3.469,5.361,4.34,7.307c0.805,1.8,2.082,3.694,3.332,4.944c3.8,3.799,15.851,12.564,17.455,12.711
			c0.188-0.097,0.424-0.067,0.583,0.091c0.195,0.195,0.195,0.512,0,0.707C25.613,25.857,25.5,25.971,25.227,25.971z"/>
		<path d="M25.355,25.908c-0.128,0-0.256-0.049-0.354-0.147c-0.158-0.158-0.188-0.396-0.089-0.584
			c-0.131-1.615-8.796-13.634-12.562-17.401c-1.249-1.249-3.172-2.535-5.02-3.357C5.333,3.53,4.088,3.483,3.74,3.831
			c-0.195,0.195-0.512,0.195-0.707,0c-0.195-0.195-0.195-0.512,0-0.707C4.013,2.145,6.131,2.79,7.737,3.504
			c1.953,0.869,3.991,2.234,5.32,3.564c1.745,1.745,5.061,5.882,8.063,10.061c5.528,7.693,4.939,8.281,4.587,8.632
			C25.611,25.859,25.483,25.908,25.355,25.908z"/>
		<path d="M25.287,26.04c-0.128,0-0.256-0.049-0.354-0.146c-0.195-0.195-0.195-0.512,0-0.707c0.212-0.213,0.256-0.62,0.256-0.923
			C25.18,20.277,17.927,8.725,14.851,5.675C12.597,3.44,7.375,0.17,3.748,3.798c-0.195,0.195-0.512,0.195-0.707,0
			s-0.195-0.512,0-0.707c4.183-4.184,10.015-0.604,12.514,1.874c2.973,2.948,10.624,14.695,10.634,19.296
			c0.001,0.718-0.183,1.267-0.549,1.633C25.543,25.991,25.415,26.04,25.287,26.04z"/>
		<path d="M25.136,25.687c-0.128,0-0.256-0.049-0.354-0.147L3.165,3.874C2.97,3.679,2.97,3.362,3.166,3.167
			c0.195-0.194,0.512-0.195,0.707,0.001L25.49,24.834c0.195,0.195,0.195,0.512-0.001,0.707
			C25.391,25.638,25.264,25.687,25.136,25.687z"/>
	</g>
	<circle cx="43.519" cy="43.329" r="0.926"/>
</g>
<g>
</g>
<g>
</g>
<g>
</g>
<g>
</g>
<g>
</g>
<g>
</g>
<g>
</g>
<g>
</g>
<g>
</g>
<g>
</g>
<g>
</g>
<g>
</g>
<g>
</g>
<g>
</g>
<g>
</g>
</svg>
