<?xml version="1.0" encoding="iso-8859-1"?>
<!-- Generator: Adobe Illustrator 16.0.4, SVG Export Plug-In . SVG Version: 6.00 Build 0)  -->
<!DOCTYPE svg PUBLIC "-//W3C//DTD SVG 1.1//EN" "http://www.w3.org/Graphics/SVG/1.1/DTD/svg11.dtd">
<svg version="1.1" id="Capa_1" xmlns="http://www.w3.org/2000/svg" xmlns:xlink="http://www.w3.org/1999/xlink" x="0px" y="0px"
	 width="48.085px" height="48.084px" viewBox="0 0 48.085 48.084" style="enable-background:new 0 0 48.085 48.084;"
	 xml:space="preserve">
<g id="Yes_Button">
	<path d="M24.056,48.084H24.04C10.789,48.084,0.004,37.301,0,24.046C0.004,10.787,10.791,0,24.045,0
		c6.423,0,12.461,2.501,17.002,7.042c4.54,4.541,7.04,10.578,7.038,16.998c0.003,6.421-2.495,12.459-7.033,17
		C36.513,45.583,30.477,48.084,24.056,48.084z M24.045,2C11.893,2,2.004,11.89,2,24.046c0.004,12.151,9.892,22.038,22.041,22.038
		h0.015c5.887,0,11.42-2.293,15.581-6.457s6.451-9.699,6.448-15.587c0.002-5.886-2.29-11.421-6.452-15.584
		C35.47,4.293,29.934,2,24.045,2z"/>
	<path d="M24.031,43.492h-0.004c-5.198-0.001-10.084-2.024-13.757-5.698C6.597,34.12,4.574,29.235,4.575,24.04
		C4.573,13.317,13.298,4.592,24.025,4.589c0,0,0.001,0,0.002,0c5.195,0,10.079,2.023,13.754,5.698
		c3.676,3.675,5.699,8.56,5.698,13.753c0.001,5.194-2.022,10.078-5.696,13.753C34.109,41.469,29.225,43.492,24.031,43.492z
		 M24.027,6.589c-0.001,0-0.001,0-0.002,0C14.401,6.592,6.573,14.42,6.575,24.04c-0.001,4.662,1.813,9.044,5.109,12.34
		s7.68,5.111,12.343,5.112l0.004,1v-1c4.659,0,9.041-1.815,12.338-5.113c3.296-3.297,5.111-7.679,5.11-12.339
		c0.001-4.66-1.814-9.042-5.112-12.339C33.07,8.404,28.688,6.589,24.027,6.589z"/>
	<g>
		<g>
			<path d="M21.022,28.569c-0.256,0-0.512-0.098-0.707-0.293c-0.391-0.39-0.391-1.023,0-1.414l10.643-10.651
				c0.391-0.391,1.023-0.391,1.414,0c0.391,0.39,0.391,1.023,0,1.414L21.729,28.276C21.534,28.472,21.278,28.569,21.022,28.569z"/>
			<path d="M23.011,33.94c-0.254,0-0.509-0.097-0.704-0.289c-0.392-0.389-0.396-1.022-0.007-1.415L34.586,19.83
				c0.391-0.392,1.021-0.395,1.415-0.007c0.392,0.389,0.396,1.022,0.007,1.415L23.722,33.645
				C23.525,33.842,23.269,33.94,23.011,33.94z"/>
			<path style="fill:none;stroke:#000000;stroke-width:2;stroke-linecap:round;stroke-linejoin:round;stroke-miterlimit:10;" d="
				M21.036,27.582"/>
			<path d="M35.367,21.465c-0.255,0-0.511-0.097-0.706-0.292c-0.391-0.39-0.393-1.022-0.002-1.414
				c0.293-0.294,0.454-0.685,0.454-1.099c-0.001-0.415-0.163-0.804-0.458-1.098c-0.607-0.605-1.592-0.604-2.195-0.001
				c-0.391,0.393-1.023,0.391-1.414,0.002c-0.392-0.391-0.392-1.023-0.002-1.414c1.384-1.386,3.638-1.387,5.023-0.003
				c0.673,0.67,1.044,1.562,1.045,2.51c0.002,0.948-0.366,1.842-1.037,2.515C35.88,21.367,35.624,21.465,35.367,21.465z"/>
		</g>
		<path d="M21.084,34.819c-0.948,0-1.84-0.369-2.51-1.04c-0.391-0.391-0.391-1.024,0-1.414c0.391-0.391,1.023-0.391,1.414,0
			c0.293,0.293,0.682,0.455,1.096,0.455h0.001c0.415-0.001,0.805-0.163,1.099-0.457c0.356-0.423,1.021-0.509,1.44-0.152
			c0.422,0.356,0.507,0.954,0.15,1.376c-0.055,0.064-0.113,0.127-0.177,0.19c-0.671,0.672-1.562,1.042-2.511,1.042
			C21.086,34.819,21.085,34.819,21.084,34.819z"/>
		<path d="M19.25,34.045c-0.256,0-0.512-0.098-0.707-0.293l-6.217-6.217c-0.391-0.391-0.391-1.023,0-1.414s1.023-0.391,1.414,0
			l6.217,6.217c0.391,0.391,0.391,1.023,0,1.414C19.762,33.947,19.506,34.045,19.25,34.045z"/>
		<path d="M21.024,28.572c-0.256,0-0.512-0.098-0.707-0.293l-4.372-4.375c-0.391-0.391-0.391-1.024,0-1.414
			c0.391-0.391,1.023-0.391,1.414,0l4.372,4.375c0.391,0.391,0.391,1.024,0,1.414C21.536,28.475,21.28,28.572,21.024,28.572z"/>
		<path d="M13.057,27.836c-0.256,0-0.512-0.098-0.707-0.293c-1.384-1.385-1.384-3.639,0-5.023c0.67-0.672,1.562-1.043,2.512-1.043
			c0,0,0.001,0,0.002,0c0.947,0,1.839,0.369,2.511,1.039c0.392,0.391,0.392,1.023,0.002,1.414c-0.391,0.393-1.023,0.391-1.414,0.002
			c-0.295-0.294-0.685-0.455-1.099-0.455c-0.001,0-0.001,0-0.001,0c-0.415,0-0.805,0.162-1.098,0.456
			c-0.605,0.606-0.605,1.591-0.001,2.196c0.391,0.391,0.391,1.024,0,1.414C13.568,27.738,13.312,27.836,13.057,27.836z"/>
	</g>
</g>
<g>
</g>
<g>
</g>
<g>
</g>
<g>
</g>
<g>
</g>
<g>
</g>
<g>
</g>
<g>
</g>
<g>
</g>
<g>
</g>
<g>
</g>
<g>
</g>
<g>
</g>
<g>
</g>
<g>
</g>
</svg>
