<?xml version="1.0" encoding="iso-8859-1"?>
<!-- Generator: Adobe Illustrator 16.0.4, SVG Export Plug-In . SVG Version: 6.00 Build 0)  -->
<!DOCTYPE svg PUBLIC "-//W3C//DTD SVG 1.1//EN" "http://www.w3.org/Graphics/SVG/1.1/DTD/svg11.dtd">
<svg version="1.1" id="Capa_1" xmlns="http://www.w3.org/2000/svg" xmlns:xlink="http://www.w3.org/1999/xlink" x="0px" y="0px"
	 width="47.923px" height="47.978px" viewBox="0 0 47.923 47.978" style="enable-background:new 0 0 47.923 47.978;"
	 xml:space="preserve">
<g id="Zoom_In">
	<g>
		<g>
			<polyline points="43.067,46.46 31.339,34.765 34.667,31.437 46.399,43.132 			"/>
			<path d="M43.067,47.457c-0.255,0-0.509-0.097-0.704-0.291L30.635,35.471c-0.188-0.187-0.292-0.44-0.293-0.705
				c0-0.265,0.105-0.519,0.292-0.706l3.328-3.328c0.389-0.388,1.019-0.391,1.409-0.001l11.731,11.695
				c0.39,0.389,0.391,1.02,0.002,1.41c-0.389,0.39-1.02,0.392-1.41,0.002L34.668,32.846l-1.918,1.918l11.021,10.99
				c0.39,0.389,0.391,1.021,0.002,1.41C43.578,47.359,43.322,47.457,43.067,47.457z"/>
		</g>
		<g>
			<path d="M46.41,43.143c0.777,0.771,0.666,2.155-0.254,3.073c-0.919,0.916-2.294,1.03-3.076,0.258"/>
			<path d="M44.382,47.978c-0.745,0-1.463-0.262-2.003-0.795c-0.392-0.387-0.396-1.018-0.009-1.409
				c0.388-0.393,1.019-0.396,1.41-0.009c0.386,0.381,1.151,0.265,1.671-0.255c0.304-0.304,0.479-0.692,0.478-1.066
				c0-0.17-0.039-0.411-0.222-0.593c-0.391-0.388-0.394-1.019-0.006-1.41c0.388-0.391,1.019-0.393,1.41-0.006
				c0.522,0.518,0.811,1.229,0.812,2.006c0.002,0.9-0.386,1.805-1.063,2.481C46.159,47.621,45.252,47.978,44.382,47.978z"/>
		</g>
	</g>
	<path d="M19.832,39.682c-5.301,0-10.284-2.065-14.031-5.815c-7.735-7.733-7.735-20.319,0-28.057C9.548,2.063,14.531,0,19.832,0
		S30.115,2.063,33.86,5.81c3.749,3.748,5.813,8.73,5.813,14.03s-2.064,10.281-5.813,14.026
		C30.115,37.616,25.133,39.682,19.832,39.682z M19.832,2c-4.767,0-9.247,1.855-12.617,5.224c-6.956,6.957-6.956,18.274,0,25.229
		c3.37,3.372,7.851,5.229,12.617,5.229s9.246-1.857,12.613-5.229c3.372-3.368,5.228-7.847,5.228-12.612s-1.856-9.246-5.227-12.616
		C29.078,3.855,24.599,2,19.832,2z"/>
	<path d="M19.833,35.045c-4.062,0-7.88-1.58-10.751-4.45c-2.872-2.874-4.454-6.692-4.454-10.754s1.582-7.88,4.454-10.75
		c2.871-2.872,6.688-4.453,10.75-4.453s7.88,1.581,10.752,4.453c2.872,2.87,4.453,6.688,4.453,10.751s-1.582,7.882-4.453,10.753
		C27.712,33.465,23.894,35.045,19.833,35.045z M19.832,6.638c-3.527,0-6.843,1.373-9.336,3.867
		c-2.494,2.493-3.868,5.809-3.868,9.336s1.374,6.844,3.869,9.34c2.493,2.492,5.809,3.864,9.336,3.864s6.844-1.372,9.337-3.864
		c2.494-2.494,3.867-5.811,3.867-9.339s-1.374-6.844-3.867-9.337C26.675,8.011,23.359,6.638,19.832,6.638z"/>
	<g>
		<path d="M26.882,18.507H22.3c-0.552,0-1-0.447-1-1s0.448-1,1-1h4.582c0.552,0,1,0.447,1,1S27.435,18.507,26.882,18.507z"/>
		<path d="M17.629,18.507h-4.705c-0.552,0-1-0.447-1-1s0.448-1,1-1h4.705c0.552,0,1,0.447,1,1S18.182,18.507,17.629,18.507z"/>
		<path d="M26.882,23.175H22.3c-0.552,0-1-0.447-1-1s0.448-1,1-1h4.582c0.552,0,1,0.447,1,1S27.435,23.175,26.882,23.175z"/>
		<path d="M17.633,23.175h-4.709c-0.552,0-1-0.447-1-1s0.448-1,1-1h4.709c0.552,0,1,0.447,1,1S18.186,23.175,17.633,23.175z"/>
		<path d="M17.631,18.506c-0.552,0-1-0.447-1-1v-4.645c0-0.553,0.448-1,1-1s1,0.447,1,1v4.645
			C18.631,18.059,18.184,18.506,17.631,18.506z"/>
		<path d="M17.631,27.819c-0.552,0-1-0.447-1-1v-4.645c0-0.553,0.448-1,1-1s1,0.447,1,1v4.645
			C18.631,27.372,18.184,27.819,17.631,27.819z"/>
		<path d="M22.298,18.506c-0.552,0-1-0.447-1-1v-4.645c0-0.553,0.448-1,1-1s1,0.447,1,1v4.645
			C23.298,18.059,22.851,18.506,22.298,18.506z"/>
		<path d="M22.298,27.819c-0.552,0-1-0.447-1-1v-4.645c0-0.553,0.448-1,1-1s1,0.447,1,1v4.645
			C23.298,27.372,22.851,27.819,22.298,27.819z"/>
		<path d="M19.975,30.143c-1.834,0-3.326-1.491-3.326-3.323c0-0.553,0.448-1,1-1s1,0.447,1,1c0,0.729,0.595,1.323,1.326,1.323
			c0.73,0,1.325-0.594,1.325-1.323c0-0.553,0.448-1,1-1s1,0.447,1,1C23.3,28.651,21.809,30.143,19.975,30.143z"/>
		<path d="M22.3,13.861c-0.552,0-1-0.447-1-1c0-0.729-0.595-1.323-1.325-1.323c-0.731,0-1.326,0.594-1.326,1.323
			c0,0.553-0.448,1-1,1s-1-0.447-1-1c0-1.832,1.492-3.323,3.326-3.323c1.833,0,3.325,1.491,3.325,3.323
			C23.3,13.414,22.853,13.861,22.3,13.861z"/>
		<path d="M12.924,23.175c-1.833,0-3.323-1.492-3.323-3.326c0-1.833,1.491-3.324,3.323-3.324c0.552,0,1,0.447,1,1s-0.448,1-1,1
			c-0.729,0-1.323,0.594-1.323,1.324c0,0.731,0.594,1.326,1.323,1.326c0.552,0,1,0.447,1,1S13.477,23.175,12.924,23.175z"/>
		<path d="M26.738,23.175c-0.552,0-1-0.447-1-1s0.448-1,1-1c0.731,0,1.325-0.595,1.325-1.326c0-0.73-0.594-1.324-1.325-1.324
			c-0.552,0-1-0.447-1-1s0.448-1,1-1c1.833,0,3.325,1.491,3.325,3.324C30.063,21.683,28.571,23.175,26.738,23.175z"/>
	</g>
</g>
<g>
</g>
<g>
</g>
<g>
</g>
<g>
</g>
<g>
</g>
<g>
</g>
<g>
</g>
<g>
</g>
<g>
</g>
<g>
</g>
<g>
</g>
<g>
</g>
<g>
</g>
<g>
</g>
<g>
</g>
</svg>
