<?xml version="1.0" encoding="iso-8859-1"?>
<!-- Generator: Adobe Illustrator 16.0.4, SVG Export Plug-In . SVG Version: 6.00 Build 0)  -->
<!DOCTYPE svg PUBLIC "-//W3C//DTD SVG 1.1//EN" "http://www.w3.org/Graphics/SVG/1.1/DTD/svg11.dtd">
<svg version="1.1" id="Capa_1" xmlns="http://www.w3.org/2000/svg" xmlns:xlink="http://www.w3.org/1999/xlink" x="0px" y="0px"
	 width="47.923px" height="47.979px" viewBox="0 0 47.923 47.979" style="enable-background:new 0 0 47.923 47.979;"
	 xml:space="preserve">
<g id="Zoom_Out">
	<g>
		<g>
			<polyline points="43.067,46.461 31.34,34.766 34.667,31.437 46.398,43.132 			"/>
			<path d="M43.067,47.458c-0.255,0-0.509-0.097-0.704-0.291L30.636,35.472c-0.188-0.187-0.292-0.44-0.293-0.705
				c0-0.265,0.105-0.519,0.292-0.706l3.327-3.329c0.389-0.388,1.02-0.391,1.409-0.001l11.731,11.695
				c0.39,0.389,0.391,1.02,0.002,1.41c-0.389,0.39-1.02,0.392-1.41,0.002L34.668,32.846l-1.918,1.919l11.021,10.99
				c0.39,0.389,0.391,1.021,0.002,1.41C43.579,47.36,43.323,47.458,43.067,47.458z"/>
		</g>
		<g>
			<path d="M46.409,43.143c0.778,0.771,0.666,2.155-0.254,3.073c-0.918,0.916-2.294,1.031-3.075,0.258"/>
			<path d="M44.382,47.979c-0.746,0-1.464-0.263-2.004-0.796c-0.391-0.388-0.394-1.02-0.007-1.41
				c0.387-0.392,1.018-0.396,1.41-0.008c0.385,0.384,1.15,0.265,1.669-0.255c0.305-0.304,0.479-0.693,0.479-1.067
				c0-0.17-0.04-0.41-0.222-0.591c-0.391-0.388-0.394-1.02-0.007-1.41c0.387-0.392,1.018-0.396,1.41-0.008
				c0.522,0.518,0.811,1.229,0.812,2.005c0.002,0.901-0.386,1.807-1.064,2.483C46.158,47.621,45.251,47.979,44.382,47.979z"/>
		</g>
	</g>
	<path d="M19.833,39.682c-5.3,0-10.284-2.065-14.032-5.815c-7.734-7.733-7.734-20.319,0-28.057C9.549,2.063,14.532,0,19.833,0
		c5.301,0,10.282,2.063,14.027,5.81c3.749,3.748,5.813,8.73,5.813,14.03s-2.064,10.281-5.813,14.026
		C30.115,37.616,25.133,39.682,19.833,39.682z M19.833,2c-4.766,0-9.248,1.855-12.618,5.224c-6.955,6.957-6.955,18.274,0,25.229
		c3.371,3.372,7.852,5.229,12.618,5.229s9.245-1.857,12.612-5.229c3.372-3.368,5.228-7.847,5.228-12.612
		c0-4.765-1.856-9.246-5.227-12.616C29.078,3.855,24.599,2,19.833,2z"/>
	<path d="M19.832,35.046c-4.062,0-7.879-1.581-10.75-4.451c-2.873-2.873-4.455-6.692-4.455-10.754s1.582-7.879,4.455-10.75
		c2.87-2.871,6.687-4.453,10.749-4.453c4.061,0,7.879,1.582,10.752,4.453c2.872,2.87,4.453,6.688,4.453,10.751
		s-1.582,7.882-4.453,10.753C27.711,33.465,23.893,35.046,19.832,35.046z M19.831,6.638c-3.527,0-6.843,1.374-9.334,3.867
		c-2.495,2.493-3.869,5.81-3.869,9.336c0,3.527,1.374,6.844,3.869,9.34c2.493,2.492,5.808,3.865,9.335,3.865
		c3.527,0,6.844-1.373,9.337-3.865c2.494-2.494,3.867-5.811,3.867-9.339s-1.374-6.844-3.867-9.337
		C26.674,8.012,23.358,6.638,19.831,6.638z"/>
	<g>
		<path d="M26.643,18.507H12.924c-0.552,0-1-0.447-1-1s0.448-1,1-1h13.719c0.552,0,1,0.447,1,1S27.195,18.507,26.643,18.507z"/>
		<path d="M26.648,23.175H12.924c-0.552,0-1-0.447-1-1s0.448-1,1-1h13.725c0.552,0,1,0.447,1,1S27.201,23.175,26.648,23.175z"/>
		<path d="M12.924,23.175c-1.832,0-3.322-1.492-3.322-3.327c0-1.834,1.49-3.325,3.322-3.325c0.552,0,1,0.447,1,1s-0.448,1-1,1
			c-0.729,0-1.322,0.595-1.322,1.325c0,0.731,0.593,1.327,1.322,1.327c0.552,0,1,0.447,1,1S13.476,23.175,12.924,23.175z"/>
		<path d="M26.738,23.175c-0.552,0-1-0.447-1-1s0.448-1,1-1c0.731,0,1.325-0.596,1.325-1.327c0-0.73-0.594-1.325-1.325-1.325
			c-0.552,0-1-0.447-1-1s0.448-1,1-1c1.833,0,3.325,1.491,3.325,3.325C30.063,21.683,28.572,23.175,26.738,23.175z"/>
	</g>
</g>
<g>
</g>
<g>
</g>
<g>
</g>
<g>
</g>
<g>
</g>
<g>
</g>
<g>
</g>
<g>
</g>
<g>
</g>
<g>
</g>
<g>
</g>
<g>
</g>
<g>
</g>
<g>
</g>
<g>
</g>
</svg>
