<?xml version="1.0" encoding="iso-8859-1"?>
<!-- Generator: Adobe Illustrator 16.0.0, SVG Export Plug-In . SVG Version: 6.00 Build 0)  -->
<!DOCTYPE svg PUBLIC "-//W3C//DTD SVG 1.1//EN" "http://www.w3.org/Graphics/SVG/1.1/DTD/svg11.dtd">
<svg version="1.1" id="Layer_1" xmlns="http://www.w3.org/2000/svg" xmlns:xlink="http://www.w3.org/1999/xlink" x="0px" y="0px"
	 width="64.008px" height="63.947px" viewBox="0 0 64.008 63.947" style="enable-background:new 0 0 64.008 63.947;"
	 xml:space="preserve">
<g id="Body_47_">
	<g>
		<path style="fill:#88C057;" d="M44.397,19.575c-6.187-6.184-14.965-7.438-19.605-2.799c-1.874,1.872-2.771,4.423-2.786,7.2h-0.007
			c0,2.044-0.908,3.929-7.669,3.99c-3.958-0.067-7.663,1.219-10.386,3.939c-6.209,6.208-4.951,17.529,2.811,25.288
			s19.087,9.018,25.297,2.81c2.646-2.646,3.931-6.221,3.939-10.053h0.011c0-7.068,1.921-7.992,4.001-7.992v-0.007
			c2.775-0.018,5.324-0.914,7.195-2.784C51.84,34.53,50.586,25.758,44.397,19.575z"/>
	</g>
</g>
<g id="String_Pegs">
	<g>
		<path style="fill:#6C9945;" d="M21.345,46.301l-3.758-3.755c-0.829-0.828-2.173-0.828-3.002,0c-0.828,0.828-0.828,2.17,0,2.997
			l3.76,3.755c0.828,0.828,2.172,0.828,3,0C22.174,48.47,22.174,47.128,21.345,46.301z"/>
	</g>
</g>
<g id="Sound_Hole">
	<g>
		<ellipse style="fill:#75A64B;" cx="32.001" cy="31.969" rx="8.002" ry="7.992"/>
	</g>
</g>
<g id="Sound_Hole_1_">
	<g>
		<circle style="fill:#517334;" cx="32.001" cy="31.969" r="3.996"/>
	</g>
</g>
<g id="Headstock">
	<g>
		<path style="fill-rule:evenodd;clip-rule:evenodd;fill:#666666;" d="M58.007,0l-2.001,1.998h-2.001v1.999h-2v1.997h-2v3.995
			L32.001,27.973c2.21,0,4.001,1.789,4.001,3.996c0,0,0,0,0,0l18.003-17.982h4.002v-1.999h2V9.99h2V7.992l2.001-1.998L58.007,0z"/>
	</g>
</g>
<g>
</g>
<g>
</g>
<g>
</g>
<g>
</g>
<g>
</g>
<g>
</g>
<g>
</g>
<g>
</g>
<g>
</g>
<g>
</g>
<g>
</g>
<g>
</g>
<g>
</g>
<g>
</g>
<g>
</g>
</svg>
