<?xml version="1.0" encoding="iso-8859-1"?>
<!-- Generator: Adobe Illustrator 16.0.0, SVG Export Plug-In . SVG Version: 6.00 Build 0)  -->
<!DOCTYPE svg PUBLIC "-//W3C//DTD SVG 1.1//EN" "http://www.w3.org/Graphics/SVG/1.1/DTD/svg11.dtd">
<svg version="1.1" id="Layer_1" xmlns="http://www.w3.org/2000/svg" xmlns:xlink="http://www.w3.org/1999/xlink" x="0px" y="0px"
	 width="68.333px" height="63.992px" viewBox="0 0 68.333 63.992" style="enable-background:new 0 0 68.333 63.992;"
	 xml:space="preserve">
<g id="Base_29_">
	<g>
		<path style="fill:#ED7161;" d="M52.042,35.991h-44c-2.209,0-4,1.792-4,4.001v20c0,2.209,1.791,4,4,4h44c2.209,0,4-1.791,4-4v-20
			C56.042,37.783,54.251,35.991,52.042,35.991z"/>
	</g>
</g>
<g id="Keys">
	<g>
		<path style="fill:#FFFFFF;" d="M50.042,43.992h-40c-1.104,0-2,0.896-2,2v11.999c0,1.104,0.896,2.001,2,2.001h40
			c1.104,0,2-0.896,2-2.001V45.992C52.042,44.888,51.146,43.992,50.042,43.992z"/>
	</g>
</g>
<g id="Keys_1_">
	<g>
		<path style="fill-rule:evenodd;clip-rule:evenodd;fill:#666666;" d="M12.042,53.992c0,1.104,0.896,2,2,2s2-0.896,2-2v-10h-4
			V53.992z M20.042,53.992c0,1.104,0.896,2,2,2s2-0.896,2-2v-10h-4V53.992z M28.042,53.992c0,1.104,0.896,2,2,2s2-0.896,2-2v-10h-4
			V53.992z M36.042,53.992c0,1.104,0.896,2,2,2s2-0.896,2-2v-10h-4V53.992z M44.042,43.992v10c0,1.104,0.896,2,2,2s2-0.896,2-2v-10
			H44.042z"/>
	</g>
</g>
<g id="Shape_35_">
	<g>
		<path style="fill:#CCCCCC;" d="M22.042,5.992c-16.667,7.333-18,34-18,34h52c0-6,8-6,8-6L22.042,5.992z"/>
	</g>
</g>
<g id="Stripes_3_">
	<g>
		<path style="fill-rule:evenodd;clip-rule:evenodd;fill:#808080;" d="M64.042,33.992l-5.719-3.813L19.28,7.472
			c-1.299,0.821-2.482,1.771-3.57,2.813l28.48,16.565L12.827,13.547c-0.862,1.147-1.649,2.35-2.353,3.593L40.79,29.997L8.512,21.126
			c-0.553,1.285-1.037,2.574-1.463,3.846l25.413,6.984L5.999,28.462c-0.381,1.431-0.688,2.797-0.938,4.059l26.286,3.471H4.472
			c-0.35,2.447-0.43,4.001-0.43,4.001h52C56.042,33.992,64.042,33.992,64.042,33.992z"/>
	</g>
</g>
<g id="Upper_Base">
	<g>
		<path style="fill:#ED7161;" d="M66.039,24.719L24.983,0.541c-1.89-1.113-4.306-0.453-5.396,1.475L18.599,3.76
			c-1.091,1.928-0.443,4.393,1.446,5.505l41.056,24.178c1.89,1.113,4.306,0.453,5.396-1.475l0.988-1.745
			C68.576,28.296,67.929,25.831,66.039,24.719z"/>
	</g>
</g>
<g>
</g>
<g>
</g>
<g>
</g>
<g>
</g>
<g>
</g>
<g>
</g>
<g>
</g>
<g>
</g>
<g>
</g>
<g>
</g>
<g>
</g>
<g>
</g>
<g>
</g>
<g>
</g>
<g>
</g>
</svg>
