<?xml version="1.0" encoding="iso-8859-1"?>
<!-- Generator: Adobe Illustrator 16.0.0, SVG Export Plug-In . SVG Version: 6.00 Build 0)  -->
<!DOCTYPE svg PUBLIC "-//W3C//DTD SVG 1.1//EN" "http://www.w3.org/Graphics/SVG/1.1/DTD/svg11.dtd">
<svg version="1.1" id="Layer_1" xmlns="http://www.w3.org/2000/svg" xmlns:xlink="http://www.w3.org/1999/xlink" x="0px" y="0px"
	 width="64px" height="63.992px" viewBox="0 0 64 63.992" style="enable-background:new 0 0 64 63.992;" xml:space="preserve">
<g id="Ear_9_">
	<g>
		<rect x="46" y="25.997" style="fill:#CCCCCC;" width="8" height="11.998"/>
	</g>
</g>
<g id="Ear_7_">
	<g>
		<circle style="fill:#999999;" cx="50" cy="13.998" r="13.998"/>
	</g>
</g>
<g id="Ear_4_">
	<g>
		<circle style="fill:#CCCCCC;" cx="50" cy="13.999" r="9.999"/>
	</g>
</g>
<g id="Ear_5_">
	<g>
		<circle style="fill:#999999;" cx="50" cy="13.999" r="6"/>
	</g>
</g>
<g id="Cable_Protection_2_">
	<g>
		<path style="fill-rule:evenodd;clip-rule:evenodd;fill:#999999;" d="M46,37.995v11.999v1.999v0.001c0,1.104,0.896,1.999,2,1.999h4
			c1.104,0,2-0.896,2-1.999v-0.001v-1.999V37.995H46z"/>
	</g>
</g>
<g id="Rectangle_2">
	<g>
		<rect x="48" y="53.993" style="fill:#CCCCCC;" width="4" height="9.999"/>
	</g>
</g>
<g id="Cable_Protection_3_">
	<g>
		<path style="fill-rule:evenodd;clip-rule:evenodd;fill:#999999;" d="M16,37.995v11.999v1.999v0.001c0,1.104,0.895,1.999,2,1.999h4
			c1.104,0,2-0.896,2-1.999v-0.001v-1.999V37.995H16z"/>
	</g>
</g>
<g id="Cable_8_">
	<g>
		<rect x="18" y="53.993" style="fill:#CCCCCC;" width="4" height="9.999"/>
	</g>
</g>
<g id="Ear_6_">
	<g>
		<path style="fill:#999999;" d="M0,5.999v15.998c0,3.313,2.686,5.999,6,5.999V0C2.686,0,0,2.687,0,5.999z"/>
	</g>
</g>
<g id="Case_2_">
	<g>
		<path style="fill-rule:evenodd;clip-rule:evenodd;fill:#CCCCCC;" d="M16,25.997v11.998h8V25.997H16z M24,25.997
			C24,15.729,14,0,6,0v27.996c4.023,0,5.277-5.999,8-5.999c1.966,0,2,4,2,4S24,25.973,24,25.997z"/>
	</g>
</g>
<g>
</g>
<g>
</g>
<g>
</g>
<g>
</g>
<g>
</g>
<g>
</g>
<g>
</g>
<g>
</g>
<g>
</g>
<g>
</g>
<g>
</g>
<g>
</g>
<g>
</g>
<g>
</g>
<g>
</g>
</svg>
