<?xml version="1.0" encoding="iso-8859-1"?>
<!-- Generator: Adobe Illustrator 16.0.0, SVG Export Plug-In . SVG Version: 6.00 Build 0)  -->
<!DOCTYPE svg PUBLIC "-//W3C//DTD SVG 1.1//EN" "http://www.w3.org/Graphics/SVG/1.1/DTD/svg11.dtd">
<svg version="1.1" id="Layer_1" xmlns="http://www.w3.org/2000/svg" xmlns:xlink="http://www.w3.org/1999/xlink" x="0px" y="0px"
	 width="120px" height="120px" viewBox="0 0 120 120" style="enable-background:new 0 0 120 120;" xml:space="preserve">
<g id="Pipe">
	<g>
		<path style="fill-rule:evenodd;clip-rule:evenodd;fill:#808080;" d="M95.927,66.159l-3.955-5.445l-8.24-33.263
			c-0.265-1.068-1.306-1.694-2.323-1.399c-1.019,0.295-1.63,1.399-1.365,2.467l7.958,32.123l0.01,7.747
			c0.293,1.151,1.417,1.834,2.51,1.526l3.958-1.114C95.571,68.491,96.22,67.309,95.927,66.159z"/>
	</g>
</g>
<g id="Pipe_1_">
	<g>
		<path style="fill-rule:evenodd;clip-rule:evenodd;fill:#808080;" d="M73.007,50.443l-1.229-0.625
			c-0.075-0.114-0.162-0.223-0.264-0.323L65.895,44c0.389,0.034,0.789-0.043,1.15-0.248c0.168-0.096,0.309-0.218,0.437-0.35
			c0.404,0.485,0.965,0.742,1.494,0.61C69.777,43.813,72.285,41.04,72,40L61.029,9.499c-0.285-1.04-1.167-1.722-1.969-1.521
			c-0.803,0.199-1.223,1.205-0.938,2.245l7.492,27.218L47.711,6.995c-0.553-0.941-1.768-1.27-2.712-0.733s-1.262,1.733-0.708,2.675
			l19.286,32.796L51.335,29.762c-0.778-0.766-2.036-0.769-2.81-0.006c-0.773,0.762-0.77,2,0.008,2.767L60.19,43.921l-11.179-5.688
			c-0.966-0.523-2.202-0.209-2.762,0.701c-0.559,0.911-0.229,2.074,0.736,2.598l23.995,12.211c0.967,0.523,2.202,0.21,2.762-0.701
			S73.973,50.967,73.007,50.443z"/>
	</g>
</g>
<g id="Bag">
	<g>
		<path style="fill:#ED7161;" d="M86,30c0,0,1.236-16.001-12-16.001S68.595,33.404,62,40c-6.595,6.594-30,8.49-30,20
			c0,7.446,5.516,10,12,10c11.734,0,26.885-3.829,34-16.001C81.92,47.294,75.658,32,80,32c0,0-1.692,2.538,0,4
			c2.097,1.812,6.078,2.468,8,0C88.669,35.14,85.505,33.375,86,30z"/>
	</g>
</g>
<g id="Stripes_2_">
	<g>
		<path style="fill-rule:evenodd;clip-rule:evenodd;fill:#B35549;" d="M87.104,34H80v-2c0,0-1.692,2.538,0,4
			c2.097,1.812,6.078,2.468,8,0C88.328,35.579,87.735,34.938,87.104,34z M85.847,26c-0.15-1.223-0.415-2.609-0.883-4H80v-6.536
			c-1.114-0.646-2.44-1.107-4-1.323V22h-8v-5.588C63.987,21.216,66.44,32.026,63.413,38H64v8h-8v-2.341
			c-1.257,0.556-2.604,1.094-4,1.628V46h-1.882c-3.453,1.296-7.046,2.627-10.118,4.227V58h-7.745C32.09,58.633,32,59.298,32,60
			c0,0.716,0.065,1.373,0.164,2H40v7.613C41.26,69.873,42.604,70,44,70v-8h8v7.4c1.328-0.196,2.664-0.439,4-0.746V62h8v4.005
			c1.375-0.611,2.712-1.304,4-2.083V62h2.835c1.547-1.179,2.99-2.502,4.287-4H68v-8h8v6.903c0.714-0.917,1.396-1.87,2-2.904
			C81.92,47.294,75.658,32,80,32v-6H85.847z M52,58h-8v-8h8V58z M64,58h-8v-8h8V58z M76,46h-8v-8h8V46z M76,34h-8v-8h8V34z"/>
	</g>
</g>
<g>
</g>
<g>
</g>
<g>
</g>
<g>
</g>
<g>
</g>
<g>
</g>
<g>
</g>
<g>
</g>
<g>
</g>
<g>
</g>
<g>
</g>
<g>
</g>
<g>
</g>
<g>
</g>
<g>
</g>
</svg>
