<?xml version="1.0" encoding="iso-8859-1"?>
<!-- Generator: Adobe Illustrator 16.0.0, SVG Export Plug-In . SVG Version: 6.00 Build 0)  -->
<!DOCTYPE svg PUBLIC "-//W3C//DTD SVG 1.1//EN" "http://www.w3.org/Graphics/SVG/1.1/DTD/svg11.dtd">
<svg version="1.1" id="Layer_1" xmlns="http://www.w3.org/2000/svg" xmlns:xlink="http://www.w3.org/1999/xlink" x="0px" y="0px"
	 width="64.019px" height="63.965px" viewBox="0 0 64.019 63.965" style="enable-background:new 0 0 64.019 63.965;"
	 xml:space="preserve">
<g id="Connector">
	<g>
		<path style="fill-rule:evenodd;clip-rule:evenodd;fill:#FFCC66;" d="M63.45,11.604c-0.76-0.762-1.99-0.762-2.749,0l-0.031,0.031
			v-0.001l-3.538,3.551l-1.931,1.938c-2.278,2.281-5.967,2.28-8.243-0.003c-2.277-2.285-2.277-5.989,0-8.274l4.656-4.673
			l0.841-0.843c0.759-0.762,0.759-1.997,0-2.758c-0.759-0.762-1.989-0.762-2.749,0l-5.495,5.514
			c-0.001,0.001-0.001,0.001-0.002,0.002c-0.274,0.275-0.577,0.577-0.896,0.898l-0.479,0.48c-0.012,0.012-0.02,0.025-0.03,0.037
			c-4.126,4.227-10.377,11.585-4.093,17.89c6.19,6.211,13.559,0.052,17.79-4.074c0.024-0.022,0.053-0.039,0.076-0.063l6.872-6.895
			C64.209,13.6,64.209,12.364,63.45,11.604z"/>
	</g>
</g>
<g id="Body_5_">
	<g>
		<path style="fill:#666666;" d="M40.003,24.024c-2.733-2.733-7.174-2.726-9.916,0.018C30.036,24.093,0.583,50.52,0.583,50.52
			c-0.777,0.776-0.777,2.034,0,2.811l10.063,10.053c0.776,0.776,2.036,0.776,2.813,0c0,0,26.534-29.448,26.526-29.441
			C42.729,31.198,42.737,26.758,40.003,24.024z"/>
	</g>
</g>
<g id="Stripes_1_">
	<g>
		<path style="fill:#333333;" d="M12.148,40.103l-2.104,1.895l5.994,5.993l5.954,5.955l1.897-2.098l-1.821-1.816L12.148,40.103z
			 M3.731,47.684l12.563,12.563l1.899-2.101L5.836,45.788L3.731,47.684z M18.463,34.415l-2.104,1.896l11.333,11.333l1.899-2.101
			L18.463,34.415z"/>
	</g>
</g>
<g>
</g>
<g>
</g>
<g>
</g>
<g>
</g>
<g>
</g>
<g>
</g>
<g>
</g>
<g>
</g>
<g>
</g>
<g>
</g>
<g>
</g>
<g>
</g>
<g>
</g>
<g>
</g>
<g>
</g>
</svg>
