<?xml version="1.0" encoding="iso-8859-1"?>
<!-- Generator: Adobe Illustrator 16.0.0, SVG Export Plug-In . SVG Version: 6.00 Build 0)  -->
<!DOCTYPE svg PUBLIC "-//W3C//DTD SVG 1.1//EN" "http://www.w3.org/Graphics/SVG/1.1/DTD/svg11.dtd">
<svg version="1.1" id="Layer_1" xmlns="http://www.w3.org/2000/svg" xmlns:xlink="http://www.w3.org/1999/xlink" x="0px" y="0px"
	 width="64.016px" height="64.048px" viewBox="0 0 64.016 64.048" style="enable-background:new 0 0 64.016 64.048;"
	 xml:space="preserve">
<g id="Body_44_">
	<g>
		<ellipse style="fill:#ED7161;" cx="22.002" cy="42.041" rx="22.002" ry="22.007"/>
	</g>
</g>
<g id="Shape_47_">
	<g>
		<ellipse style="fill:#FFFFFF;" cx="22.004" cy="42.044" rx="18.001" ry="18.006"/>
	</g>
</g>
<g id="Grif">
	<g>
		<path style="fill-rule:evenodd;clip-rule:evenodd;fill:#666666;" d="M63.668,8.683L62.755,7.77l0.238-0.238
			c1.35-1.35,1.35-3.54,0-4.89l-1.629-1.63c-1.351-1.351-3.539-1.351-4.889,0l-0.238,0.238l-0.876-0.877
			c-0.463-0.463-1.213-0.463-1.676,0c-0.464,0.463-0.464,1.214,0,1.677l0.876,0.876l-1.88,1.88l-0.895-0.895
			c-0.463-0.463-1.214-0.463-1.677,0s-0.463,1.214,0,1.677l0.895,0.895l-0.233,0.233c-0.697,0.697-1.026,1.617-1.004,2.53
			L19.71,39.315l-0.99-0.99c-0.483-0.483-1.268-0.483-1.751,0c-0.484,0.484-0.484,1.269,0,1.752l0.989,0.99L6.001,53.029
			c-0.464,0.462-0.464,1.213,0,1.676l3.352,3.354c0.463,0.463,1.213,0.463,1.676,0l11.958-11.962l0.988,0.988
			c0.483,0.483,1.268,0.483,1.752,0c0.483-0.483,0.483-1.268,0-1.752l-0.988-0.988l30.088-30.097
			c0.891,0.005,1.784-0.331,2.463-1.011l0.233-0.233l0.894,0.894c0.463,0.463,1.213,0.463,1.677,0c0.462-0.463,0.462-1.214,0-1.676
			l-0.895-0.895l1.88-1.88l0.912,0.913c0.463,0.463,1.214,0.463,1.677,0S64.131,9.146,63.668,8.683z M16.375,49.336
			c-0.458,0.458-1.2,0.458-1.658,0s-0.458-1.2,0-1.659l4.927-4.924l1.658,1.659L16.375,49.336z M33.383,32.339L23.055,42.66
			l-1.658-1.659L31.725,30.68c0.458-0.458,1.2-0.458,1.658,0C33.841,31.139,33.841,31.881,33.383,32.339z"/>
	</g>
</g>
<g>
</g>
<g>
</g>
<g>
</g>
<g>
</g>
<g>
</g>
<g>
</g>
<g>
</g>
<g>
</g>
<g>
</g>
<g>
</g>
<g>
</g>
<g>
</g>
<g>
</g>
<g>
</g>
<g>
</g>
</svg>
