<?xml version="1.0" encoding="iso-8859-1"?>
<!-- Generator: Adobe Illustrator 16.0.0, SVG Export Plug-In . SVG Version: 6.00 Build 0)  -->
<!DOCTYPE svg PUBLIC "-//W3C//DTD SVG 1.1//EN" "http://www.w3.org/Graphics/SVG/1.1/DTD/svg11.dtd">
<svg version="1.1" id="Layer_1" xmlns="http://www.w3.org/2000/svg" xmlns:xlink="http://www.w3.org/1999/xlink" x="0px" y="0px"
	 width="64px" height="32px" viewBox="0 0 64 32" style="enable-background:new 0 0 64 32;" xml:space="preserve">
<g id="Bridge_1_">
	<g>
		<rect x="24" y="20" style="fill:#808080;" width="16" height="4"/>
	</g>
</g>
<g id="Body_31_">
	<g>
		<path style="fill:#FF8833;" d="M34.024,8c0,0,2.652,17.874,3.11,19.601C37.912,30.533,37.957,32,48.02,32
			c10.063,0,10.108-1.467,10.886-4.399C59.362,25.874,62.015,8,62.015,8H34.024z"/>
	</g>
</g>
<g id="Rim_3_">
	<g>
		<path style="fill-rule:evenodd;clip-rule:evenodd;fill:#808080;" d="M62.478,4H33.499C32.671,4,32,4.896,32,6s0.671,2,1.499,2
			h28.979c0.828,0,1.499-0.896,1.499-2S63.306,4,62.478,4z M58.478,27.999H37.499C36.671,27.999,36,28.896,36,30s0.671,2,1.499,2
			h20.979c0.828,0,1.499-0.896,1.499-2S59.306,27.999,58.478,27.999z"/>
	</g>
</g>
<g id="Leather">
	<g>
		<path style="fill-rule:evenodd;clip-rule:evenodd;fill:#CCCCCC;" d="M58.127,0H37.912c-2.147,0-3.888,1.791-3.888,4h27.991
			C62.015,1.791,60.274,0,58.127,0z"/>
	</g>
</g>
<g id="Body_32_">
	<g>
		<path style="fill:#88C057;" d="M2.024,8c0,0,2.652,17.874,3.11,19.601C5.912,30.533,5.957,32,16.02,32
			c10.063,0,10.108-1.467,10.885-4.399C27.363,25.874,30.015,8,30.015,8H2.024z"/>
	</g>
</g>
<g id="Rim_4_">
	<g>
		<path style="fill-rule:evenodd;clip-rule:evenodd;fill:#808080;" d="M30.478,4H1.499C0.671,4,0,4.896,0,6s0.671,2,1.499,2h28.979
			c0.828,0,1.499-0.896,1.499-2S31.305,4,30.478,4z M26.478,27.999H5.499C4.671,27.999,4,28.896,4,30s0.671,2,1.499,2h20.979
			c0.828,0,1.499-0.896,1.499-2S27.305,27.999,26.478,27.999z"/>
	</g>
</g>
<g id="Leather_1_">
	<g>
		<path style="fill-rule:evenodd;clip-rule:evenodd;fill:#CCCCCC;" d="M26.127,0H5.912C3.765,0,2.024,1.791,2.024,4h27.991
			C30.015,1.791,28.274,0,26.127,0z"/>
	</g>
</g>
<g>
</g>
<g>
</g>
<g>
</g>
<g>
</g>
<g>
</g>
<g>
</g>
<g>
</g>
<g>
</g>
<g>
</g>
<g>
</g>
<g>
</g>
<g>
</g>
<g>
</g>
<g>
</g>
<g>
</g>
</svg>
