<?xml version="1.0" encoding="iso-8859-1"?>
<!-- Generator: Adobe Illustrator 16.0.0, SVG Export Plug-In . SVG Version: 6.00 Build 0)  -->
<!DOCTYPE svg PUBLIC "-//W3C//DTD SVG 1.1//EN" "http://www.w3.org/Graphics/SVG/1.1/DTD/svg11.dtd">
<svg version="1.1" id="Layer_1" xmlns="http://www.w3.org/2000/svg" xmlns:xlink="http://www.w3.org/1999/xlink" x="0px" y="0px"
	 width="64px" height="52px" viewBox="0 0 64 52" style="enable-background:new 0 0 64 52;" xml:space="preserve">
<g id="Cord">
	<g>
		<path style="fill:#48A0DC;" d="M52,24h-2H20.886H14h-2c-4.418,0-8-3.582-8-8s3.582-8,8-8h2h6.886H52c1.104,0,2-0.896,2-2
			s-0.896-2-2-2H14c-0.18,0-0.342,0.058-0.508,0.103C13.003,4.04,12.507,4,12,4C5.373,4,0,9.372,0,16c0,6.627,5.373,12,12,12h2
			h29.114H50h2c4.418,0,8,3.581,8,8c0,4.418-3.582,8-8,8h-2h-6.886H12c-1.104,0-2,0.896-2,2s0.896,2,2,2h38
			c0.18,0,0.342-0.059,0.508-0.103C50.997,47.959,51.493,48,52,48c6.627,0,12-5.373,12-12C64,29.372,58.627,24,52,24z"/>
	</g>
</g>
<g id="Plug">
	<g>
		<path style="fill-rule:evenodd;clip-rule:evenodd;fill:#B3B3B3;" d="M12,44H2c-1.104,0-2,0.896-2,2s0.896,2,2,2h10
			c1.104,0,2-0.896,2-2S13.104,44,12,44z M62,4H52c-1.104,0-2,0.896-2,2s0.896,2,2,2h10c1.104,0,2-0.896,2-2S63.104,4,62,4z"/>
	</g>
</g>
<g id="Body_4_">
	<g>
		<path style="fill-rule:evenodd;clip-rule:evenodd;fill:#666666;" d="M28,40H18h-2h-4v4v4v4h4h2h10c2.209,0,4-1.791,4-4v-4
			C32,41.791,30.209,40,28,40z M48,0h-2H36c-2.209,0-4,1.791-4,4v4c0,2.209,1.791,4,4,4h10h2h4V8V4V0H48z"/>
	</g>
</g>
<g id="Shape_7_">
	<g>
		<path style="fill-rule:evenodd;clip-rule:evenodd;fill:#4D4D4D;" d="M12,52h4V40h-4V52z M48,0v12h4V0H48z"/>
	</g>
</g>
<g>
</g>
<g>
</g>
<g>
</g>
<g>
</g>
<g>
</g>
<g>
</g>
<g>
</g>
<g>
</g>
<g>
</g>
<g>
</g>
<g>
</g>
<g>
</g>
<g>
</g>
<g>
</g>
<g>
</g>
</svg>
