<?xml version="1.0" encoding="iso-8859-1"?>
<!-- Generator: Adobe Illustrator 16.0.0, SVG Export Plug-In . SVG Version: 6.00 Build 0)  -->
<!DOCTYPE svg PUBLIC "-//W3C//DTD SVG 1.1//EN" "http://www.w3.org/Graphics/SVG/1.1/DTD/svg11.dtd">
<svg version="1.1" id="Layer_1" xmlns="http://www.w3.org/2000/svg" xmlns:xlink="http://www.w3.org/1999/xlink" x="0px" y="0px"
	 width="64px" height="56px" viewBox="0 0 64 56" style="enable-background:new 0 0 64 56;" xml:space="preserve">
<g id="Body_18_">
	<g>
		<path style="fill:#FF8833;" d="M60,12H4c-2.209,0-4,1.79-4,4v36c0,2.209,1.791,4,4,4h56c2.209,0,4-1.791,4-4V16
			C64,13.79,62.209,12,60,12z"/>
	</g>
</g>
<g id="Speaker_8_">
	<g>
		<circle style="fill:#B35F24;" cx="22" cy="33.999" r="16"/>
	</g>
</g>
<g id="Speaker_9_">
	<g>
		<circle style="fill:#FF8833;" cx="22" cy="33.999" r="4"/>
	</g>
</g>
<g id="Btns_6_">
	<g>
		<path style="fill-rule:evenodd;clip-rule:evenodd;fill:#FFFFFF;" d="M46,31.999c-1.104,0-2,0.896-2,2C44,35.104,44.896,36,46,36
			s2-0.896,2-2.001C48,32.896,47.104,31.999,46,31.999z M54,31.999c-1.104,0-2,0.896-2,2C52,35.104,52.896,36,54,36s2-0.896,2-2.001
			C56,32.896,55.104,31.999,54,31.999z M46,24c-1.104,0-2,0.895-2,1.999c0,1.105,0.896,2,2,2s2-0.895,2-2C48,24.895,47.104,24,46,24
			z M54,27.999c1.104,0,2-0.895,2-2C56,24.895,55.104,24,54,24s-2,0.895-2,1.999C52,27.104,52.896,27.999,54,27.999z M46,40
			c-1.104,0-2,0.895-2,2c0,1.104,0.896,2,2,2s2-0.896,2-2C48,40.895,47.104,40,46,40z M54,40c-1.104,0-2,0.895-2,2
			c0,1.104,0.896,2,2,2s2-0.896,2-2C56,40.895,55.104,40,54,40z"/>
	</g>
</g>
<g id="handle">
	<g>
		<path style="fill-rule:evenodd;clip-rule:evenodd;fill:#CCCCCC;" d="M18,6c0-1.104,0.896-2.001,2-2.001h24
			c1.104,0,2,0.896,2,2.001v6h4V3.999C50,1.79,48.209,0,46,0H18c-2.209,0-4,1.79-4,3.999V12h4V6z"/>
	</g>
</g>
<g>
</g>
<g>
</g>
<g>
</g>
<g>
</g>
<g>
</g>
<g>
</g>
<g>
</g>
<g>
</g>
<g>
</g>
<g>
</g>
<g>
</g>
<g>
</g>
<g>
</g>
<g>
</g>
<g>
</g>
</svg>
