<?xml version="1.0" encoding="iso-8859-1"?>
<!-- Generator: Adobe Illustrator 16.0.0, SVG Export Plug-In . SVG Version: 6.00 Build 0)  -->
<!DOCTYPE svg PUBLIC "-//W3C//DTD SVG 1.1//EN" "http://www.w3.org/Graphics/SVG/1.1/DTD/svg11.dtd">
<svg version="1.1" id="Layer_1" xmlns="http://www.w3.org/2000/svg" xmlns:xlink="http://www.w3.org/1999/xlink" x="0px" y="0px"
	 width="32.001px" height="64px" viewBox="0 0 32.001 64" style="enable-background:new 0 0 32.001 64;" xml:space="preserve">
<g id="Leg">
	<g>
		<rect x="12" y="50" style="fill:#B3B3B3;" width="8" height="10"/>
	</g>
</g>
<g id="Base_5_">
	<g>
		<path style="fill:#CCCCCC;" d="M16,57.999c-6.714,0-12.452,0.14-14.826,6.001h29.653C28.452,58.139,22.714,57.999,16,57.999z"/>
	</g>
</g>
<g id="Body_3_">
	<g>
		<path style="fill:#ED7161;" d="M16.001,0C7.163,0,0,7.163,0,16v20c0,8.836,7.163,16,16.001,16c8.837,0,16-7.164,16-16V16
			C32.001,7.163,24.838,0,16.001,0z"/>
	</g>
</g>
<g id="Speaker_Body">
	<g>
		<path style="fill-rule:evenodd;clip-rule:evenodd;fill:#B35549;" d="M16.001,26.001C10.478,26.001,6,30.478,6,36
			c0,5.523,4.478,10.001,10.001,10.001c5.522,0,10-4.478,10-10.001C26.001,30.478,21.523,26.001,16.001,26.001z M16.001,20.001
			c3.313,0,6-2.687,6-6c0-3.314-2.687-6.001-6-6.001c-3.314,0-6,2.687-6,6.001C10.001,17.314,12.687,20.001,16.001,20.001z"/>
	</g>
</g>
<g id="Speaker">
	<g>
		<path style="fill-rule:evenodd;clip-rule:evenodd;fill:#ED7161;" d="M16.001,34c-1.104,0-2,0.896-2,2s0.896,2,2,2s2-0.896,2-2
			S17.105,34,16.001,34z M16.001,16c1.104,0,2-0.896,2-1.999c0-1.105-0.896-2.001-2-2.001s-2,0.896-2,2.001
			C14.001,15.104,14.896,16,16.001,16z"/>
	</g>
</g>
<g>
</g>
<g>
</g>
<g>
</g>
<g>
</g>
<g>
</g>
<g>
</g>
<g>
</g>
<g>
</g>
<g>
</g>
<g>
</g>
<g>
</g>
<g>
</g>
<g>
</g>
<g>
</g>
<g>
</g>
</svg>
