<?xml version="1.0" encoding="iso-8859-1"?>
<!-- Generator: Adobe Illustrator 16.0.0, SVG Export Plug-In . SVG Version: 6.00 Build 0)  -->
<!DOCTYPE svg PUBLIC "-//W3C//DTD SVG 1.1//EN" "http://www.w3.org/Graphics/SVG/1.1/DTD/svg11.dtd">
<svg version="1.1" id="Layer_1" xmlns="http://www.w3.org/2000/svg" xmlns:xlink="http://www.w3.org/1999/xlink" x="0px" y="0px"
	 width="48px" height="64px" viewBox="0 0 48 64" style="enable-background:new 0 0 48 64;" xml:space="preserve">
<g id="Stand">
	<g>
		<polygon style="fill-rule:evenodd;clip-rule:evenodd;fill:#E6B85C;" points="32,42 24,42 16,42 8,64 24,64 40,64 		"/>
	</g>
</g>
<g id="Body_34_">
	<g>
		<path style="fill-rule:evenodd;clip-rule:evenodd;fill:#FFCC66;" d="M46,24V10H24H2v14c0,0-0.818,20,22,20C46.817,44,46,24,46,24z
			"/>
	</g>
</g>
<g id="Ropes">
	<g>
		<path style="fill-rule:evenodd;clip-rule:evenodd;fill:#ED7161;" d="M44,18c-4.418,0-8-3.582-8-8h-4c0,4.418-3.582,8-8,8
			s-8-3.582-8-8h-4c0,4.418-3.582,8-8,8c-0.695,0-1.357-0.116-2-0.282v4.081C2.653,21.909,3.314,22,4,22
			c4.176,0,7.851-2.136,10-5.372C16.149,19.864,19.823,22,24,22c4.176,0,7.851-2.136,10-5.372C36.149,19.864,39.824,22,44,22
			c0.686,0,1.346-0.091,2-0.201v-4.081C45.357,17.884,44.695,18,44,18z"/>
	</g>
</g>
<g id="Rim_5_">
	<g>
		<path style="fill:#808080;" d="M46,6H2C0.896,6,0,6.896,0,8s0.896,2,2,2h44c1.104,0,2-0.896,2-2S47.104,6,46,6z"/>
	</g>
</g>
<g id="Leather_2_">
	<g>
		<path style="fill-rule:evenodd;clip-rule:evenodd;fill:#CCCCCC;" d="M45.899,6C45.965,5.677,46,5.343,46,5c0-2.761-2.238-5-5-5H7
			C4.238,0,2,2.239,2,5c0,0.343,0.035,0.677,0.101,1H45.899z"/>
	</g>
</g>
<g>
</g>
<g>
</g>
<g>
</g>
<g>
</g>
<g>
</g>
<g>
</g>
<g>
</g>
<g>
</g>
<g>
</g>
<g>
</g>
<g>
</g>
<g>
</g>
<g>
</g>
<g>
</g>
<g>
</g>
</svg>
