<?xml version="1.0" encoding="iso-8859-1"?>
<!-- Generator: Adobe Illustrator 16.0.0, SVG Export Plug-In . SVG Version: 6.00 Build 0)  -->
<!DOCTYPE svg PUBLIC "-//W3C//DTD SVG 1.1//EN" "http://www.w3.org/Graphics/SVG/1.1/DTD/svg11.dtd">
<svg version="1.1" id="Layer_1" xmlns="http://www.w3.org/2000/svg" xmlns:xlink="http://www.w3.org/1999/xlink" x="0px" y="0px"
	 width="64px" height="51.986px" viewBox="0 0 64 51.986" style="enable-background:new 0 0 64 51.986;" xml:space="preserve">
<g id="Tripod">
	<g>
		<path style="fill-rule:evenodd;clip-rule:evenodd;fill:#CCCCCC;" d="M49.426,48.734L34,33.31V9.999C34,8.895,33.104,8,32,8
			s-2,0.895-2,1.999v23.239L14.514,48.725c-0.746,0.746-0.746,1.955,0,2.701s1.956,0.746,2.702,0l14.757-14.757l14.759,14.759
			c0.743,0.744,1.949,0.744,2.693,0C50.169,50.684,50.169,49.479,49.426,48.734z"/>
	</g>
</g>
<g id="Bridge">
	<g>
		<path style="fill:#CCCCCC;" d="M38,8H26c-1.104,0-2,0.895-2,1.999C24,11.104,24.896,12,26,12h12c1.104,0,2-0.896,2-2.001
			C40,8.895,39.104,8,38,8z"/>
	</g>
</g>
<g id="Body_30_">
	<g>
		<path style="fill-rule:evenodd;clip-rule:evenodd;fill:#88C057;" d="M2,18h24V1.999H2V18z M38,1.999V18h24V1.999H38z"/>
	</g>
</g>
<g id="SHape">
	<g>
		<path style="fill-rule:evenodd;clip-rule:evenodd;fill:#666666;" d="M26,0H2C0.896,0,0,0.895,0,1.999C0,3.104,0.896,4,2,4h24
			c1.104,0,2-0.896,2-2.001C28,0.895,27.104,0,26,0z M26,16H2c-1.104,0-2,0.896-2,2s0.896,2,2,2h24c1.104,0,2-0.896,2-2
			S27.104,16,26,16z M38,4h24c1.104,0,2-0.896,2-2.001C64,0.895,63.104,0,62,0H38c-1.104,0-2,0.895-2,1.999C36,3.104,36.896,4,38,4z
			 M62,16H38c-1.104,0-2,0.896-2,2s0.896,2,2,2h24c1.104,0,2-0.896,2-2S63.104,16,62,16z"/>
	</g>
</g>
<g>
</g>
<g>
</g>
<g>
</g>
<g>
</g>
<g>
</g>
<g>
</g>
<g>
</g>
<g>
</g>
<g>
</g>
<g>
</g>
<g>
</g>
<g>
</g>
<g>
</g>
<g>
</g>
<g>
</g>
</svg>
