<?xml version="1.0" encoding="iso-8859-1"?>
<!-- Generator: Adobe Illustrator 16.0.0, SVG Export Plug-In . SVG Version: 6.00 Build 0)  -->
<!DOCTYPE svg PUBLIC "-//W3C//DTD SVG 1.1//EN" "http://www.w3.org/Graphics/SVG/1.1/DTD/svg11.dtd">
<svg version="1.1" id="Layer_1" xmlns="http://www.w3.org/2000/svg" xmlns:xlink="http://www.w3.org/1999/xlink" x="0px" y="0px"
	 width="64px" height="63.992px" viewBox="0 0 64 63.992" style="enable-background:new 0 0 64 63.992;" xml:space="preserve">
<g id="Cord_1_">
	<g>
		<path style="fill-rule:evenodd;clip-rule:evenodd;fill:#B3B3B3;" d="M46,37.995v15.998c0,3.313-2.687,5.999-6,5.999
			c-3.314,0-6-2.686-6-5.999V24.042c-2.416,1.825-4,4.693-4,7.954v21.997c0,2.254,0.755,4.326,2.014,5.999H26
			c-3.314,0-6-2.686-6-5.999V24.042c-2.416,1.825-4,4.693-4,7.954v21.997c0,5.521,4.477,9.999,10,9.999h14
			c5.522,0,10-4.478,10-9.999V37.995H46z"/>
	</g>
</g>
<g id="Plug_10_">
	<g>
		<path style="fill:#CCCCCC;" d="M62,37.995h-2c-1.104,0-2,0.896-2,1.999c0,1.105,0.896,2,2,2h2c1.104,0,2-0.895,2-2
			C64,38.891,63.104,37.995,62,37.995z"/>
	</g>
</g>
<g id="Plug_11_">
	<g>
		<path style="fill-rule:evenodd;clip-rule:evenodd;fill:#808080;" d="M58,33.996h-2v11.998h2c1.104,0,2-0.896,2-2v-7.998
			C60,34.891,59.104,33.996,58,33.996z"/>
	</g>
</g>
<g id="Plug_12_">
	<g>
		<path style="fill-rule:evenodd;clip-rule:evenodd;fill:#B3B3B3;" d="M54,33.996h-6c-1.104,0-2,0.895-2,2v7.998
			c0,1.104,0.896,2,2,2h6h2v-2v-7.998v-2H54z"/>
	</g>
</g>
<g id="Shape_10_">
	<g>
		<path style="fill-rule:evenodd;clip-rule:evenodd;fill:#48A0DC;" d="M20,21.997h-4v25.997h4c2.209,0,4-1.791,4-4V25.997
			C24,23.788,22.209,21.997,20,21.997z M34,4h-4v25.996h4c2.209,0,4-1.791,4-3.999V7.999C38,5.79,36.209,4,34,4z"/>
	</g>
</g>
<g id="Plug_Back">
	<g>
		<path style="fill-rule:evenodd;clip-rule:evenodd;fill:#808080;" d="M18,25.997c0-1.477-0.81-2.752-2-3.445v-0.555h-2h-2H8
			c-2.209,0-4,1.791-4,4c0,2.208,1.791,3.999,4,3.999h4h2h2v-0.555C17.19,28.748,18,27.473,18,25.997z"/>
	</g>
</g>
<g id="Plug_Back_1_">
	<g>
		<path style="fill-rule:evenodd;clip-rule:evenodd;fill:#808080;" d="M32,7.999c0-1.477-0.81-2.752-2-3.444V4h-2h-2h-4
			c-2.209,0-4,1.79-4,3.999s1.791,4,4,4h4h2h2v-0.555C31.19,10.751,32,9.476,32,7.999z"/>
	</g>
</g>
<g id="Ear_Plugs">
	<g>
		<path style="fill-rule:evenodd;clip-rule:evenodd;fill:#CCCCCC;" d="M8,17.998c-4.419,0-8,3.581-8,7.999
			c0,4.417,3.581,7.999,8,7.999c4.418,0,4-3.582,4-7.999C12,21.579,12.418,17.998,8,17.998z M22,0c-4.419,0-8,3.582-8,7.999
			s3.581,7.999,8,7.999c4.418,0,4-3.582,4-7.999S26.418,0,22,0z"/>
	</g>
</g>
<g>
</g>
<g>
</g>
<g>
</g>
<g>
</g>
<g>
</g>
<g>
</g>
<g>
</g>
<g>
</g>
<g>
</g>
<g>
</g>
<g>
</g>
<g>
</g>
<g>
</g>
<g>
</g>
<g>
</g>
</svg>
