<?xml version="1.0" encoding="iso-8859-1"?>
<!-- Generator: Adobe Illustrator 16.0.0, SVG Export Plug-In . SVG Version: 6.00 Build 0)  -->
<!DOCTYPE svg PUBLIC "-//W3C//DTD SVG 1.1//EN" "http://www.w3.org/Graphics/SVG/1.1/DTD/svg11.dtd">
<svg version="1.1" id="Layer_1" xmlns="http://www.w3.org/2000/svg" xmlns:xlink="http://www.w3.org/1999/xlink" x="0px" y="0px"
	 width="64px" height="64.001px" viewBox="0 0 64 64.001" style="enable-background:new 0 0 64 64.001;" xml:space="preserve">
<g id="Neck_1_">
	<g>
		<rect x="24" y="32.001" style="fill:#DBB599;" width="16" height="14"/>
	</g>
</g>
<g id="Shirt">
	<g>
		<path style="fill-rule:evenodd;clip-rule:evenodd;fill:#5D4A66;" d="M60,52.001c-1.88-1.881-20-10-20-10v-0.307
			C37.876,43.124,35.078,44,32,44c-3.078,0-5.876-0.876-8-2.305v0.306c0,0-18.12,8.119-20,10C0.24,55.761,0,64,0,64l24,0.001V64h16
			h24C64,64,63.76,55.761,60,52.001z"/>
	</g>
</g>
<g id="Stripes">
	<g>
		<path style="fill:#99466D;" d="M41.068,42.482C38.867,44.618,35.644,46,32,46h16.672C45.529,44.513,42.573,43.164,41.068,42.482z
			 M22.932,42.482c-1.506,0.682-4.461,2.03-7.604,3.518H32C28.356,46,25.133,44.618,22.932,42.482z M63.067,58H0.932
			c-0.399,1.484-0.635,2.911-0.765,4.001h63.665C63.702,60.911,63.468,59.484,63.067,58z M60,52.001
			c-0.415-0.415-1.624-1.135-3.246-2.001H7.246C5.624,50.866,4.414,51.586,4,52.001c-0.575,0.574-1.059,1.261-1.48,2H61.48
			C61.059,53.262,60.574,52.575,60,52.001z"/>
	</g>
</g>
<g id="Head_1_">
	<g>
		<path style="fill:#F6CBAD;" d="M46,18c0-7.862-1.286-14-14-14c-12.712,0-13.999,6.474-14,13.995c0,0.002,0,0.003,0,0.005
			c0,6,2,10,4,14s6.081,8,10,8c3.918,0,8-4,10-8S46,24,46,18c0-0.003-0.001-0.007-0.001-0.01C45.999,17.993,46,17.996,46,18z"/>
	</g>
</g>
<g id="Hair_1_">
	<g>
		<path style="fill-rule:evenodd;clip-rule:evenodd;fill:#333333;" d="M47.986,15.489C47.994,15.413,48,15.349,48,15.309
			c0-0.195-0.021-0.394-0.035-0.591C47.624,7.555,44.262,0.566,33.286,0.053C32.869,0.021,32.443,0,32,0
			c-0.446,0-0.875,0.021-1.295,0.051C19.082,0.575,16,8.052,16,15.309c0-0.801,0.129-1.414,0.352-1.887
			C16.134,14.292,16,15.161,16,16c0,0.898,1.625,7.478,4,10c0-3.691,0.79-8.505,2.175-11.887C24.11,26.182,42.605,26,46,26
			c-0.021,0,1.727-8.502,1.971-10.382C47.98,15.745,48,15.871,48,16C48,15.83,47.989,15.659,47.986,15.489z"/>
	</g>
</g>
<g>
</g>
<g>
</g>
<g>
</g>
<g>
</g>
<g>
</g>
<g>
</g>
<g>
</g>
<g>
</g>
<g>
</g>
<g>
</g>
<g>
</g>
<g>
</g>
<g>
</g>
<g>
</g>
<g>
</g>
</svg>
