<?xml version="1.0" encoding="iso-8859-1"?>
<!-- Generator: Adobe Illustrator 16.0.0, SVG Export Plug-In . SVG Version: 6.00 Build 0)  -->
<!DOCTYPE svg PUBLIC "-//W3C//DTD SVG 1.1//EN" "http://www.w3.org/Graphics/SVG/1.1/DTD/svg11.dtd">
<svg version="1.1" id="Layer_1" xmlns="http://www.w3.org/2000/svg" xmlns:xlink="http://www.w3.org/1999/xlink" x="0px" y="0px"
	 width="56px" height="60px" viewBox="0 0 56 60" style="enable-background:new 0 0 56 60;" xml:space="preserve">
<g id="Bars">
	<g>
		<path style="fill-rule:evenodd;clip-rule:evenodd;fill:#FFCC66;" d="M14,56H2c-1.104,0-2,0.896-2,2s0.896,2,2,2h12
			c1.104,0,2-0.896,2-2S15.104,56,14,56z M34,56H22c-1.104,0-2,0.896-2,2s0.896,2,2,2h12c1.104,0,2-0.896,2-2S35.104,56,34,56z
			 M54,56H42c-1.104,0-2,0.896-2,2s0.896,2,2,2h12c1.104,0,2-0.896,2-2S55.104,56,54,56z M14,48H2c-1.104,0-2,0.896-2,2s0.896,2,2,2
			h12c1.104,0,2-0.896,2-2S15.104,48,14,48z M34,48H22c-1.104,0-2,0.896-2,2s0.896,2,2,2h12c1.104,0,2-0.896,2-2S35.104,48,34,48z
			 M42,52h12c1.104,0,2-0.896,2-2s-0.896-2-2-2H42c-1.104,0-2,0.896-2,2S40.896,52,42,52z"/>
	</g>
</g>
<g id="Bars_3_">
	<g>
		<path style="fill-rule:evenodd;clip-rule:evenodd;fill:#88C057;" d="M14,40H2c-1.104,0-2,0.896-2,2s0.896,2,2,2h12
			c1.104,0,2-0.896,2-2S15.104,40,14,40z M54,40H42c-1.104,0-2,0.896-2,2s0.896,2,2,2h12c1.104,0,2-0.896,2-2S55.104,40,54,40z
			 M14,32H2c-1.104,0-2,0.896-2,2s0.896,2,2,2h12c1.104,0,2-0.896,2-2S15.104,32,14,32z M34,32H22c-1.104,0-2,0.896-2,2s0.896,2,2,2
			h12c1.104,0,2-0.896,2-2S35.104,32,34,32z M42,36h12c1.104,0,2-0.896,2-2s-0.896-2-2-2H42c-1.104,0-2,0.896-2,2S40.896,36,42,36z"
			/>
	</g>
</g>
<g id="Bars_2_">
	<g>
		<path style="fill-rule:evenodd;clip-rule:evenodd;fill:#9B7CAB;" d="M14,24H2c-1.104,0-2,0.896-2,2s0.896,2,2,2h12
			c1.104,0,2-0.896,2-2S15.104,24,14,24z M14,16H2c-1.104,0-2,0.896-2,2s0.896,2,2,2h12c1.104,0,2-0.896,2-2S15.104,16,14,16z
			 M54,16H42c-1.104,0-2,0.896-2,2s0.896,2,2,2h12c1.104,0,2-0.896,2-2S55.104,16,54,16z"/>
	</g>
</g>
<g id="Bar">
	<g>
		<path style="fill:#ED7161;" d="M14,0H2C0.896,0,0,0.896,0,2s0.896,2,2,2h12c1.104,0,2-0.896,2-2S15.104,0,14,0z"/>
	</g>
</g>
<g>
</g>
<g>
</g>
<g>
</g>
<g>
</g>
<g>
</g>
<g>
</g>
<g>
</g>
<g>
</g>
<g>
</g>
<g>
</g>
<g>
</g>
<g>
</g>
<g>
</g>
<g>
</g>
<g>
</g>
</svg>
