<?xml version="1.0" encoding="iso-8859-1"?>
<!-- Generator: Adobe Illustrator 16.0.0, SVG Export Plug-In . SVG Version: 6.00 Build 0)  -->
<!DOCTYPE svg PUBLIC "-//W3C//DTD SVG 1.1//EN" "http://www.w3.org/Graphics/SVG/1.1/DTD/svg11.dtd">
<svg version="1.1" id="Layer_1" xmlns="http://www.w3.org/2000/svg" xmlns:xlink="http://www.w3.org/1999/xlink" x="0px" y="0px"
	 width="74.028px" height="90.122px" viewBox="0 0 74.028 90.122" style="enable-background:new 0 0 74.028 90.122;"
	 xml:space="preserve">
<g id="Guitar_Pick">
	<g>
		<path style="fill:#6D5778;" d="M61.528,26.464C50.444,15.462,39.447,8.54,28.079,19.823C16.711,31.107,5.119,68.542,12.127,75.497
			c8.198,8.139,44.723-4.55,56.091-15.833S72.612,37.465,61.528,26.464z"/>
	</g>
</g>
<g id="Stripes_5_">
	<g>
		<path style="fill-rule:evenodd;clip-rule:evenodd;fill:#88C057;" d="M61.528,26.464c-0.926-0.919-1.851-1.806-2.775-2.659
			L11.634,74.892c0.155,0.217,0.314,0.427,0.493,0.605c1.577,1.565,4.207,2.354,7.498,2.537l44.806-48.579
			C63.503,28.458,62.534,27.461,61.528,26.464z M45.663,15.04L12.826,50.642c-1.501,5.336-2.502,10.501-2.76,14.799L52.917,18.98
			C50.502,17.249,48.086,15.888,45.663,15.04z"/>
	</g>
</g>
<g>
</g>
<g>
</g>
<g>
</g>
<g>
</g>
<g>
</g>
<g>
</g>
<g>
</g>
<g>
</g>
<g>
</g>
<g>
</g>
<g>
</g>
<g>
</g>
<g>
</g>
<g>
</g>
<g>
</g>
</svg>
