<?xml version="1.0" encoding="iso-8859-1"?>
<!-- Generator: Adobe Illustrator 16.0.0, SVG Export Plug-In . SVG Version: 6.00 Build 0)  -->
<!DOCTYPE svg PUBLIC "-//W3C//DTD SVG 1.1//EN" "http://www.w3.org/Graphics/SVG/1.1/DTD/svg11.dtd">
<svg version="1.1" id="Layer_1" xmlns="http://www.w3.org/2000/svg" xmlns:xlink="http://www.w3.org/1999/xlink" x="0px" y="0px"
	 width="66.653px" height="56.681px" viewBox="0 0 66.653 56.681" style="enable-background:new 0 0 66.653 56.681;"
	 xml:space="preserve">
<g id="Keys_3_">
	<g>
		<path style="fill-rule:evenodd;clip-rule:evenodd;fill:#999999;" d="M19.335,17.401l6.013,5.998l2.835-2.827l-6.014-5.998
			L19.335,17.401z M27.353,13.403l6.013,5.998l2.834-2.828l-6.013-5.997L27.353,13.403z M35.369,9.404l6.013,5.998l2.835-2.827
			l-6.014-5.998L35.369,9.404z M46.221,2.578l-2.834,2.828l6.013,5.997l2.834-2.827L46.221,2.578z"/>
	</g>
</g>
<g id="Neck_5_">
	<g>
		<path style="fill:#99724B;" d="M27.625,36.046l-7.002-6.983c-1.495-1.491-3.919-1.491-5.415,0L3.78,40.462
			c-1.496,1.492-1.496,3.91,0,5.402l7.001,6.983c1.495,1.491,3.92,1.491,5.415,0l11.429-11.4
			C29.12,39.957,29.12,37.538,27.625,36.046z"/>
	</g>
</g>
<g id="Strings_4_">
	<g>
		<path style="fill-rule:evenodd;clip-rule:evenodd;fill:#CCCCCC;" d="M22.048,33.274L6.603,48.68l1.418,1.415l15.444-15.406
			L22.048,33.274z M26.056,37.272L10.612,52.679l0.169,0.169c0.453,0.452,0.995,0.749,1.566,0.927l15.126-15.088L26.056,37.272z
			 M18.039,29.276L2.879,44.398c0.183,0.534,0.474,1.04,0.901,1.466l0.231,0.231l15.444-15.406L18.039,29.276z"/>
	</g>
</g>
<g id="Head_8_">
	<g>
		<path style="fill-rule:evenodd;clip-rule:evenodd;fill:#E8AD72;" d="M56.632,5.936c-1.232,0-2.408,0.232-3.499,0.639L53.128,6.56
			l-0.301,0.126c-0.062,0.025-0.123,0.051-0.184,0.077L16.546,21.93l-2.004,5.998c0,0-0.791,3.21,0,3.998
			c0.791,0.789,12.025,11.996,12.025,11.996s3.35-3.999,6.013-3.999s1.164,1.999,6.014,1.999c4.718,0,4.248-7.765,13.259-17.202
			c1.421,0.771,3.049,1.208,4.779,1.208c5.535,0,10.021-4.477,10.021-9.997C66.653,10.41,62.167,5.936,56.632,5.936z"/>
	</g>
</g>
<g id="Keys_4_">
	<g>
		<path style="fill-rule:evenodd;clip-rule:evenodd;fill:#666666;" d="M19.74,11.996c-1.66,0-3.007,1.342-3.007,2.998
			s1.347,2.999,3.007,2.999c1.661,0,3.007-1.343,3.007-2.999S21.401,11.996,19.74,11.996z M27.758,7.997
			c-1.661,0-3.007,1.343-3.007,2.999s1.346,2.999,3.007,2.999c1.66,0,3.006-1.343,3.006-2.999S29.418,7.997,27.758,7.997z
			 M35.774,3.999c-1.66,0-3.006,1.342-3.006,2.999c0,1.655,1.346,2.998,3.006,2.998c1.661,0,3.007-1.343,3.007-2.998
			C38.781,5.341,37.436,3.999,35.774,3.999z M43.792,0c-1.66,0-3.006,1.343-3.006,2.999c0,1.655,1.346,2.999,3.006,2.999
			s3.007-1.344,3.007-2.999C46.799,1.343,45.452,0,43.792,0z"/>
	</g>
</g>
<g id="Keys_5_">
	<g>
		<path style="fill-rule:evenodd;clip-rule:evenodd;fill:#99724B;" d="M29.762,21.992c-1.66,0-3.006,1.343-3.006,2.999
			s1.346,2.999,3.006,2.999c1.661,0,3.007-1.343,3.007-2.999S31.423,21.992,29.762,21.992z M37.779,17.993
			c-1.66,0-3.007,1.343-3.007,2.999s1.347,2.999,3.007,2.999s3.007-1.343,3.007-2.999S39.439,17.993,37.779,17.993z M45.796,13.995
			c-1.66,0-3.006,1.343-3.006,2.998c0,1.656,1.346,2.999,3.006,2.999c1.661,0,3.007-1.343,3.007-2.999
			C48.803,15.338,47.457,13.995,45.796,13.995z M53.813,9.996c-1.66,0-3.007,1.343-3.007,2.999s1.347,2.999,3.007,2.999
			s3.007-1.343,3.007-2.999S55.474,9.996,53.813,9.996z"/>
	</g>
</g>
<g>
</g>
<g>
</g>
<g>
</g>
<g>
</g>
<g>
</g>
<g>
</g>
<g>
</g>
<g>
</g>
<g>
</g>
<g>
</g>
<g>
</g>
<g>
</g>
<g>
</g>
<g>
</g>
<g>
</g>
</svg>
