<?xml version="1.0" encoding="iso-8859-1"?>
<!-- Generator: Adobe Illustrator 16.0.0, SVG Export Plug-In . SVG Version: 6.00 Build 0)  -->
<!DOCTYPE svg PUBLIC "-//W3C//DTD SVG 1.1//EN" "http://www.w3.org/Graphics/SVG/1.1/DTD/svg11.dtd">
<svg version="1.1" id="Layer_1" xmlns="http://www.w3.org/2000/svg" xmlns:xlink="http://www.w3.org/1999/xlink" x="0px" y="0px"
	 width="64.003px" height="61.992px" viewBox="0 0 64.003 61.992" style="enable-background:new 0 0 64.003 61.992;"
	 xml:space="preserve">
<g id="BTNS">
	<g>
		<path style="fill-rule:evenodd;clip-rule:evenodd;fill:#B3B3B3;" d="M55.003,0h-2c-1.657,0-3.001,1.344-3.001,3
			c0,1.657,1.344,3,3.001,3h2c1.657,0,3-1.343,3-3C58.003,1.344,56.66,0,55.003,0z M41.002,0h-2c-1.657,0-3,1.344-3,3
			c0,1.657,1.343,3,3,3h2c1.657,0,3-1.343,3-3C44.002,1.344,42.659,0,41.002,0z"/>
	</g>
</g>
<g id="Body_24_">
	<g>
		<path style="fill:#F06EAA;" d="M60.003,2.001H4c-2.209,0-4,1.79-4,3.999v51.993c0,2.209,1.791,3.999,4,3.999h56.003
			c2.209,0,4-1.79,4-3.999V6C64.003,3.791,62.212,2.001,60.003,2.001z"/>
	</g>
</g>
<g id="Wheel">
	<g>
		<circle style="fill:#FFFFFF;" cx="32.002" cy="31.997" r="23.997"/>
	</g>
</g>
<g id="Btn_5_">
	<g>
		<circle style="fill:#F06EAA;" cx="32.002" cy="31.997" r="15.998"/>
	</g>
</g>
<g id="Pause">
	<g>
		<path style="fill-rule:evenodd;clip-rule:evenodd;fill:#FFFFFF;" d="M35.093,27.997c-0.603,0-1.091,0.447-1.091,1v5.999
			c0,0.552,0.488,1,1.091,1s1.091-0.448,1.091-1v-5.999C36.184,28.444,35.695,27.997,35.093,27.997z M38.911,27.997
			c-0.603,0-1.091,0.447-1.091,1v5.999c0,0.552,0.488,1,1.091,1s1.091-0.448,1.091-1v-5.999
			C40.002,28.444,39.514,27.997,38.911,27.997z"/>
	</g>
</g>
<g id="Play">
	<g>
		<path style="fill:#FFFFFF;" d="M31.991,31.942c0.005-0.308-0.118-0.609-0.361-0.774l-4.493-3.041
			c-0.071-0.048-0.148-0.078-0.234-0.098c-0.035-0.009-0.068-0.02-0.104-0.022c-0.017-0.001-0.031-0.011-0.048-0.011
			c-0.037,0-0.069,0.018-0.105,0.023c-0.043,0.007-0.085,0.011-0.127,0.026c-0.075,0.027-0.141,0.067-0.203,0.116
			c-0.007,0.007-0.016,0.011-0.023,0.018c-0.162,0.138-0.271,0.339-0.282,0.573c-0.001,0.005-0.002,0.008-0.003,0.012
			c0,0.012-0.006,0.021-0.006,0.032v6.399c0,0.011,0.006,0.021,0.006,0.031c0.001,0.005,0.003,0.008,0.003,0.014
			c0.013,0.232,0.119,0.433,0.281,0.57c0.01,0.01,0.021,0.014,0.03,0.022c0.061,0.046,0.123,0.086,0.195,0.111
			c0.044,0.017,0.088,0.021,0.134,0.028c0.035,0.006,0.065,0.022,0.101,0.022c0.017,0,0.03-0.009,0.046-0.01
			c0.037-0.003,0.072-0.015,0.109-0.024c0.079-0.018,0.152-0.046,0.221-0.09l4.503-3.047c0.243-0.165,0.366-0.467,0.361-0.774
			c0.002-0.019,0.002-0.036,0.003-0.054C31.993,31.979,31.993,31.961,31.991,31.942z"/>
	</g>
</g>
<g>
</g>
<g>
</g>
<g>
</g>
<g>
</g>
<g>
</g>
<g>
</g>
<g>
</g>
<g>
</g>
<g>
</g>
<g>
</g>
<g>
</g>
<g>
</g>
<g>
</g>
<g>
</g>
<g>
</g>
</svg>
