<?xml version="1.0" encoding="iso-8859-1"?>
<!-- Generator: Adobe Illustrator 16.0.0, SVG Export Plug-In . SVG Version: 6.00 Build 0)  -->
<!DOCTYPE svg PUBLIC "-//W3C//DTD SVG 1.1//EN" "http://www.w3.org/Graphics/SVG/1.1/DTD/svg11.dtd">
<svg version="1.1" id="Layer_1" xmlns="http://www.w3.org/2000/svg" xmlns:xlink="http://www.w3.org/1999/xlink" x="0px" y="0px"
	 width="32.001px" height="63.991px" viewBox="0 0 32.001 63.991" style="enable-background:new 0 0 32.001 63.991;"
	 xml:space="preserve">
<g id="Body_27_">
	<g>
		<path style="fill:#FF8833;" d="M30.001,0H2C0.896,0,0,0.896,0,1.999v59.993c0,1.104,0.896,1.999,2,1.999h28.001
			c1.104,0,2-0.895,2-1.999V1.999C32.001,0.896,31.105,0,30.001,0z"/>
	</g>
</g>
<g id="Screen_1_">
	<g>
		<path style="fill:#4D4D4D;" d="M26.001,4H6C4.896,4,4,4.896,4,5.999v39.995c0,1.104,0.896,1.999,2,1.999h20.001
			c1.104,0,2-0.895,2-1.999V5.999C28.001,4.896,27.105,4,26.001,4z"/>
	</g>
</g>
<g id="Btn_7_">
	<g>
		<circle style="fill:#FFFFFF;" cx="16" cy="55.993" r="4"/>
	</g>
</g>
<g>
</g>
<g>
</g>
<g>
</g>
<g>
</g>
<g>
</g>
<g>
</g>
<g>
</g>
<g>
</g>
<g>
</g>
<g>
</g>
<g>
</g>
<g>
</g>
<g>
</g>
<g>
</g>
<g>
</g>
</svg>
