<?xml version="1.0" encoding="iso-8859-1"?>
<!-- Generator: Adobe Illustrator 16.0.0, SVG Export Plug-In . SVG Version: 6.00 Build 0)  -->
<!DOCTYPE svg PUBLIC "-//W3C//DTD SVG 1.1//EN" "http://www.w3.org/Graphics/SVG/1.1/DTD/svg11.dtd">
<svg version="1.1" id="Layer_1" xmlns="http://www.w3.org/2000/svg" xmlns:xlink="http://www.w3.org/1999/xlink" x="0px" y="0px"
	 width="68.001px" height="65.997px" viewBox="0 0 68.001 65.997" style="enable-background:new 0 0 68.001 65.997;"
	 xml:space="preserve">
<g id="Plug_6_">
	<g>
		<path style="fill:#FFCC66;" d="M66.851,1.148c-1.533-1.531-4.02-1.531-5.553,0L39.087,23.338c-1.533,1.531-1.533,4.016,0,5.547
			c1.533,1.532,4.02,1.532,5.553,0L66.851,6.696C68.385,5.164,68.385,2.681,66.851,1.148z"/>
	</g>
</g>
<g id="Plug_7_">
	<g>
		<path style="fill:#CCA352;" d="M59.222,3.224L55.22,7.222l5.55,5.55l4.002-3.998L59.222,3.224z M49.217,13.219l5.55,5.55
			l4.002-3.998l-5.55-5.55L49.217,13.219z"/>
	</g>
</g>
<g id="Body_11_">
	<g>
		<polygon style="fill:#666666;" points="34,16.047 12,38.025 4,58.005 10,63.999 30,56.007 52,34.029 		"/>
	</g>
</g>
<g id="Body_12_">
	<g>
		<path style="fill-rule:evenodd;clip-rule:evenodd;fill:#333333;" d="M6.286,52.297l9.428,9.419l2.857-1.142L7.429,49.442
			L6.286,52.297z M12,38.025l-1.143,2.854l16.285,16.269L30,56.007L12,38.025z M8.571,46.588l12.857,12.844l2.857-1.142
			L9.714,43.733L8.571,46.588z"/>
	</g>
</g>
<g id="Body_13_">
	<g>
		<polygon style="fill:#333333;" points="27.019,23.021 21.016,29.018 39.007,47.009 45.01,41.012 		"/>
	</g>
</g>
<g>
</g>
<g>
</g>
<g>
</g>
<g>
</g>
<g>
</g>
<g>
</g>
<g>
</g>
<g>
</g>
<g>
</g>
<g>
</g>
<g>
</g>
<g>
</g>
<g>
</g>
<g>
</g>
<g>
</g>
</svg>
