<?xml version="1.0" encoding="iso-8859-1"?>
<!-- Generator: Adobe Illustrator 16.0.0, SVG Export Plug-In . SVG Version: 6.00 Build 0)  -->
<!DOCTYPE svg PUBLIC "-//W3C//DTD SVG 1.1//EN" "http://www.w3.org/Graphics/SVG/1.1/DTD/svg11.dtd">
<svg version="1.1" id="Layer_1" xmlns="http://www.w3.org/2000/svg" xmlns:xlink="http://www.w3.org/1999/xlink" x="0px" y="0px"
	 width="52px" height="64px" viewBox="0 0 52 64" style="enable-background:new 0 0 52 64;" xml:space="preserve">
<g id="Base_18_">
	<g>
		<path style="fill-rule:evenodd;clip-rule:evenodd;fill:#666666;" d="M46,22h-2.047C43.477,10.074,38.567,4,26,4
			S6.729,10.074,6.065,22H6c-2.209,0-4,1.791-4,4v34c0,2.209,1.791,4,4,4h40c2.209,0,4-1.791,4-4V26C50,23.791,48.209,22,46,22z"/>
	</g>
</g>
<g id="Tray">
	<g>
		<path style="fill-rule:evenodd;clip-rule:evenodd;fill:#4D4D4D;" d="M22,40h-4c-1.104,0-2,0.896-2,2v4c0,1.104,0.896,2,2,2h4
			c1.104,0,2-0.896,2-2v-4C24,40.896,23.104,40,22,40z M34,40h-4c-1.105,0-2,0.896-2,2v4c0,1.104,0.895,2,2,2h4c1.104,0,2-0.896,2-2
			v-4C36,40.896,35.104,40,34,40z M22,52h-4c-1.104,0-2,0.896-2,1.999V58c0,1.104,0.896,2,2,2h4c1.104,0,2-0.896,2-2v-4.001
			C24,52.896,23.104,52,22,52z M34,52h-4c-1.105,0-2,0.896-2,1.999V58c0,1.104,0.895,2,2,2h4c1.104,0,2-0.896,2-2v-4.001
			C36,52.896,35.104,52,34,52z"/>
	</g>
</g>
<g id="Case_3_">
	<g>
		<path style="fill-rule:evenodd;clip-rule:evenodd;fill:#FFCC66;" d="M50,24C50,10.745,39.255,0,26,0S2,10.745,2,24v0.001l0,0V60
			c0,2.209,1.791,4,4,4h4v-4V41.853V24.001V24c0-8.837,7.163-16.001,16-16.001c8.836,0,16,7.164,16,16.001v0.001v17.852V60v4h4
			c2.209,0,4-1.791,4-4V24L50,24L50,24z"/>
	</g>
</g>
<g id="Sep_1_">
	<g>
		<path style="fill-rule:evenodd;clip-rule:evenodd;fill:#E6E6E6;" d="M10,32H2c-1.104,0-2,0.896-2,2s0.896,2,2,2h8
			c1.104,0,2-0.896,2-2S11.104,32,10,32z M50,32h-8c-1.104,0-2,0.896-2,2s0.896,2,2,2h8c1.104,0,2-0.896,2-2S51.104,32,50,32z"/>
	</g>
</g>
<g id="Display_2_">
	<g>
		<path style="fill-rule:evenodd;clip-rule:evenodd;fill:#333333;" d="M36,25.996C36,20.476,31.522,16,26,16
			c-5.523,0-10,4.476-10,9.996c0,0.002,0,0.003,0,0.005l0,0V36h20v-9.999l0,0C36,25.999,36,25.998,36,25.996z"/>
	</g>
</g>
<g>
</g>
<g>
</g>
<g>
</g>
<g>
</g>
<g>
</g>
<g>
</g>
<g>
</g>
<g>
</g>
<g>
</g>
<g>
</g>
<g>
</g>
<g>
</g>
<g>
</g>
<g>
</g>
<g>
</g>
</svg>
