<?xml version="1.0" encoding="iso-8859-1"?>
<!-- Generator: Adobe Illustrator 16.0.0, SVG Export Plug-In . SVG Version: 6.00 Build 0)  -->
<!DOCTYPE svg PUBLIC "-//W3C//DTD SVG 1.1//EN" "http://www.w3.org/Graphics/SVG/1.1/DTD/svg11.dtd">
<svg version="1.1" id="Layer_1" xmlns="http://www.w3.org/2000/svg" xmlns:xlink="http://www.w3.org/1999/xlink" x="0px" y="0px"
	 width="64.07px" height="64.103px" viewBox="0 0 64.07 64.103" style="enable-background:new 0 0 64.07 64.103;"
	 xml:space="preserve">
<g id="Body_50_">
	<g>
		<path style="fill:#4D4D4D;" d="M62.887,1.184c-1.577-1.579-4.136-1.579-5.714,0L46.537,14.146H36.104
			c-3.157,0.188-6.643-0.481-8.203,1.081L1.171,47.994c-1.561,1.562-1.561,4.095,0,5.657l9.301,9.311
			c0.855,0.855,1.996,1.197,3.115,1.114c1.177,0.13,2.391-0.196,3.293-1.1L62.887,6.904C64.465,5.325,64.465,2.764,62.887,1.184z"/>
	</g>
</g>
<g id="Keys_6_">
	<g>
		<path style="fill:#E6E6E6;" d="M40.286,24.842l-11.765-9.794c-0.455-0.471-0.771,0.119-1.5,1l-25.5,31
			c-0.729,0.882-0.367,1.761,0.5,2.501l9.822,9.452c0.837,0.723,2.084,0.611,2.786-0.249l25.897-31.043
			C41.23,26.849,41.122,25.566,40.286,24.842z"/>
	</g>
</g>
<g id="Keys_7_">
	<g>
		<path style="fill-rule:evenodd;clip-rule:evenodd;fill:#666666;" d="M24.028,32.566c-0.688,0.688-0.688,1.803,0,2.49l5.988,5.488
			c0.013,0.013,0.027,0.021,0.04,0.033l2.257-2.7l-5.795-5.311C25.831,31.879,24.716,31.879,24.028,32.566z M36.505,32.057
			l-5.488-4.987c-0.688-0.688-1.803-0.688-2.49,0c-0.688,0.688-0.688,1.802,0,2.489l5.488,4.987c0.209,0.209,0.46,0.347,0.724,0.429
			l2.076-2.483C36.733,32.337,36.636,32.188,36.505,32.057z M22.52,36.564c-0.688-0.688-1.802-0.688-2.489,0
			c-0.688,0.688-0.688,1.803,0,2.49l5.988,5.487c0.137,0.137,0.293,0.238,0.456,0.321l2.19-2.62
			c-0.049-0.065-0.097-0.131-0.156-0.19L22.52,36.564z M12.024,48.058c-0.688-0.688-1.803-0.688-2.49,0
			c-0.688,0.688-0.688,1.803,0,2.49l6.488,5.988c0.131,0.131,0.28,0.229,0.436,0.31l2.196-2.627
			c-0.045-0.059-0.087-0.119-0.141-0.173L12.024,48.058z M17.022,43.062c-0.688-0.688-1.803-0.688-2.49,0s-0.688,1.802,0,2.489
			l5.488,4.988c0.354,0.353,0.819,0.521,1.281,0.512L23,49.019c-0.056-0.354-0.216-0.696-0.489-0.97L17.022,43.062z"/>
	</g>
</g>
<g>
</g>
<g>
</g>
<g>
</g>
<g>
</g>
<g>
</g>
<g>
</g>
<g>
</g>
<g>
</g>
<g>
</g>
<g>
</g>
<g>
</g>
<g>
</g>
<g>
</g>
<g>
</g>
<g>
</g>
</svg>
