<?xml version="1.0" encoding="iso-8859-1"?>
<!-- Generator: Adobe Illustrator 16.0.0, SVG Export Plug-In . SVG Version: 6.00 Build 0)  -->
<!DOCTYPE svg PUBLIC "-//W3C//DTD SVG 1.1//EN" "http://www.w3.org/Graphics/SVG/1.1/DTD/svg11.dtd">
<svg version="1.1" id="Layer_1" xmlns="http://www.w3.org/2000/svg" xmlns:xlink="http://www.w3.org/1999/xlink" x="0px" y="0px"
	 width="64.031px" height="49.998px" viewBox="0 0 64.031 49.998" style="enable-background:new 0 0 64.031 49.998;"
	 xml:space="preserve">
<g id="Cable_3_">
	<g>
		<path style="fill:#ED7161;" d="M19.395,30.603c-0.799-0.798-2.094-0.798-2.892,0L0.599,46.507c-0.799,0.799-0.799,2.094,0,2.892
			c0.798,0.799,2.093,0.799,2.892,0l15.904-15.903C20.193,32.696,20.193,31.401,19.395,30.603z"/>
	</g>
</g>
<g id="Plug_4_">
	<g>
		<path style="fill:#FFCC66;" d="M62.884,29.345L40.741,7.18c-1.528-1.529-4.007-1.529-5.536,0c-1.527,1.53-1.527,4.012,0,5.541
			l22.144,22.165c1.528,1.53,4.007,1.53,5.536,0C64.413,33.355,64.413,30.875,62.884,29.345z"/>
	</g>
</g>
<g id="Plug_5_">
	<g>
		<path style="fill:#CCA352;" d="M50.806,17.256l-5.538,5.538l3.998,4.002l5.538-5.538L50.806,17.256z M56.803,23.258l-5.538,5.539
			l3.998,4.002l5.538-5.539L56.803,23.258z"/>
	</g>
</g>
<g id="Rim_1_">
	<g>
		<polygon style="fill:#666666;" points="47.013,8.002 36.03,19.051 41.025,24.063 52.008,13.014 		"/>
	</g>
</g>
<g id="Shape_8_">
	<g>
		<path style="fill:#333333;" d="M48.826,4.006l-2.832-2.832c-1.564-1.565-4.102-1.565-5.666,0L9.169,32.332
			c-1.564,1.564-1.564,4.101,0,5.665l2.832,2.833c1.564,1.564,4.101,1.564,5.665,0L48.826,9.671
			C50.39,8.106,50.39,5.57,48.826,4.006z"/>
	</g>
</g>
<g>
</g>
<g>
</g>
<g>
</g>
<g>
</g>
<g>
</g>
<g>
</g>
<g>
</g>
<g>
</g>
<g>
</g>
<g>
</g>
<g>
</g>
<g>
</g>
<g>
</g>
<g>
</g>
<g>
</g>
</svg>
