<?xml version="1.0" encoding="iso-8859-1"?>
<!-- Generator: Adobe Illustrator 16.0.0, SVG Export Plug-In . SVG Version: 6.00 Build 0)  -->
<!DOCTYPE svg PUBLIC "-//W3C//DTD SVG 1.1//EN" "http://www.w3.org/Graphics/SVG/1.1/DTD/svg11.dtd">
<svg version="1.1" id="Layer_1" xmlns="http://www.w3.org/2000/svg" xmlns:xlink="http://www.w3.org/1999/xlink" x="0px" y="0px"
	 width="85.98px" height="74.044px" viewBox="0 0 85.98 74.044" style="enable-background:new 0 0 85.98 74.044;"
	 xml:space="preserve">
<g id="Handle_5_">
	<g>
		<path style="fill:#A67C52;" d="M54.782,31.17c-1.587-1.587-4.16-1.587-5.747,0L13.119,67.087c-1.587,1.587-1.587,4.16,0,5.746
			c1.587,1.587,4.159,1.587,5.746,0l35.917-35.916C56.369,35.33,56.369,32.757,54.782,31.17z"/>
	</g>
</g>
<g id="Body_38_">
	<g>
		<path style="fill:#6D5778;" d="M68.967,17.05C58.718,6.802,40.674,8.229,30.426,18.478C20.178,28.726,18.75,46.77,28.998,57.018
			c10.249,10.248,28.292,8.821,38.541-1.428C77.787,45.342,79.215,27.298,68.967,17.05z"/>
	</g>
</g>
<g id="Model">
	<g>
		<path style="fill-rule:evenodd;clip-rule:evenodd;fill:#F06EAA;" d="M70.847,42.456l1.482-13.317
			c0.063-0.562-0.132-1.033-0.481-1.337c-0.303-0.351-0.773-0.546-1.336-0.483l-13.304,1.484l1.482-13.317
			c0.063-0.563-0.132-1.034-0.482-1.337c-0.303-0.351-0.773-0.545-1.335-0.483l-13.305,1.484l0.472-4.232
			c-1.313,0.323-2.607,0.735-3.871,1.233l-0.583,5.24c-0.061,0.541,0.115,1,0.441,1.305c0.304,0.325,0.763,0.501,1.303,0.44
			l13.387-1.492l-1.491,13.4c-0.061,0.54,0.115,0.999,0.439,1.304c0.304,0.326,0.763,0.502,1.304,0.442l13.387-1.494l-1.491,13.401
			c-0.061,0.541,0.115,1,0.441,1.305c0.304,0.325,0.763,0.501,1.303,0.44l5.253-0.585c0.499-1.264,0.912-2.56,1.236-3.875
			L70.847,42.456z M58.15,54.972l-13.304,1.484l1.482-13.317c0.063-0.562-0.132-1.033-0.481-1.336
			c-0.303-0.352-0.774-0.546-1.336-0.484l-13.304,1.484l1.482-13.317c0.063-0.563-0.132-1.034-0.482-1.338
			c-0.304-0.351-0.774-0.545-1.336-0.482l-6.856,0.765c-0.235,0.609-0.448,1.226-0.643,1.848c-0.019,0.059-0.036,0.118-0.054,0.176
			c-0.188,0.611-0.358,1.227-0.507,1.848l5.904-0.659l-1.491,13.401c-0.061,0.541,0.115,0.999,0.439,1.304
			c0.304,0.326,0.763,0.502,1.304,0.441l13.387-1.493l-1.491,13.401c-0.061,0.542,0.116,1.001,0.441,1.305
			c0.305,0.325,0.763,0.5,1.303,0.44l13.387-1.493l-0.417,3.743c1.331-0.409,2.636-0.909,3.9-1.5l0.49-4.4
			c0.063-0.563-0.132-1.034-0.482-1.338C59.184,55.104,58.712,54.909,58.15,54.972z"/>
	</g>
</g>
<g id="Dots">
	<g>
		<path style="fill-rule:evenodd;clip-rule:evenodd;fill:#F06EAA;" d="M43.982,26.034c-2.209,0-4,1.79-4,4
			c0,2.209,1.791,3.999,4,3.999s4-1.79,4-3.999C47.982,27.824,46.191,26.034,43.982,26.034z M57.982,40.034
			c-2.209,0-4,1.791-4,3.999c0,2.21,1.791,4.001,4,4.001s4-1.791,4-4.001C61.982,41.825,60.191,40.034,57.982,40.034z"/>
	</g>
</g>
<g>
</g>
<g>
</g>
<g>
</g>
<g>
</g>
<g>
</g>
<g>
</g>
<g>
</g>
<g>
</g>
<g>
</g>
<g>
</g>
<g>
</g>
<g>
</g>
<g>
</g>
<g>
</g>
<g>
</g>
</svg>
