<?xml version="1.0" encoding="iso-8859-1"?>
<!-- Generator: Adobe Illustrator 16.0.0, SVG Export Plug-In . SVG Version: 6.00 Build 0)  -->
<!DOCTYPE svg PUBLIC "-//W3C//DTD SVG 1.1//EN" "http://www.w3.org/Graphics/SVG/1.1/DTD/svg11.dtd">
<svg version="1.1" id="Layer_1" xmlns="http://www.w3.org/2000/svg" xmlns:xlink="http://www.w3.org/1999/xlink" x="0px" y="0px"
	 width="52.006px" height="63.999px" viewBox="0 0 52.006 63.999" style="enable-background:new 0 0 52.006 63.999;"
	 xml:space="preserve">
<g id="Base_32_">
	<g>
		<path style="fill:#333333;" d="M36.001,56h-28c-2.209,0-4,1.79-4,3.999s1.791,4,4,4h28c2.209,0,4-1.791,4-4S38.21,56,36.001,56z"
			/>
	</g>
</g>
<g id="Body_35_">
	<g>
		<path style="fill:#666666;" d="M31.079,3.794C30.329,1.387,29.339,0,27.194,0H16.835c-2.146,0-3.322,1.449-3.885,3.794L0,56.187
			c0,2.097,1.739,3.795,3.885,3.795h36.259c2.146,0,3.885-1.698,3.885-3.795L31.079,3.794z"/>
	</g>
</g>
<g id="Shape_40_">
	<g>
		<rect x="18.001" y="0.006" style="fill:#333333;" width="8" height="43.995"/>
	</g>
</g>
<g id="Needle_1_">
	<g>
		<path style="fill-rule:evenodd;clip-rule:evenodd;fill:#FFCC66;" d="M51.417,14.563c-0.78-0.78-2.041-0.785-2.815-0.012
			L20.565,42.565c-0.42,0.42-0.603,0.982-0.564,1.535v1.901h2v-0.036c0.504-0.001,1.007-0.192,1.391-0.575l28.037-28.013
			C52.202,16.603,52.197,15.344,51.417,14.563z"/>
	</g>
</g>
<g id="Shape_41_">
	<g>
		<path style="fill:#CCA352;" d="M47.211,18.766c-2.341-2.34-4.72-3.756-7.043-1.436c-2.322,2.321-2.031,9.177-1.367,9.84
			c0.795,0.795,7.524,0.954,9.847-1.366S49.553,21.105,47.211,18.766z"/>
	</g>
</g>
<g id="Body_36_">
	<g>
		<path style="fill-rule:evenodd;clip-rule:evenodd;fill:#A67C52;" d="M31.079,3.794c0-2.095-1.74-3.794-3.885-3.794H16.835
			c-2.146,0-3.885,1.699-3.885,3.794l-0.052,0.211h18.233L31.079,3.794z M41.017,44.001H3.012L0,56.187
			c0,2.097,1.739,3.795,3.885,3.795h36.259c2.146,0,3.885-1.698,3.885-3.795L41.017,44.001z"/>
	</g>
</g>
<g>
</g>
<g>
</g>
<g>
</g>
<g>
</g>
<g>
</g>
<g>
</g>
<g>
</g>
<g>
</g>
<g>
</g>
<g>
</g>
<g>
</g>
<g>
</g>
<g>
</g>
<g>
</g>
<g>
</g>
</svg>
