<?xml version="1.0" encoding="iso-8859-1"?>
<!-- Generator: Adobe Illustrator 16.0.0, SVG Export Plug-In . SVG Version: 6.00 Build 0)  -->
<!DOCTYPE svg PUBLIC "-//W3C//DTD SVG 1.1//EN" "http://www.w3.org/Graphics/SVG/1.1/DTD/svg11.dtd">
<svg version="1.1" id="Layer_1" xmlns="http://www.w3.org/2000/svg" xmlns:xlink="http://www.w3.org/1999/xlink" x="0px" y="0px"
	 width="64.003px" height="64.002px" viewBox="0 0 64.003 64.002" style="enable-background:new 0 0 64.003 64.002;"
	 xml:space="preserve">
<g id="Cap">
	<g>
		<path style="fill:#4D4D4D;" d="M59.37,4.632c-6.177-6.177-16.191-6.177-22.368,0L4.633,37c-6.177,6.178-6.177,16.192,0,22.369
			c6.178,6.177,16.192,6.177,22.369,0L59.37,27C65.547,20.824,65.547,10.809,59.37,4.632z"/>
	</g>
</g>
<g id="Body_23_">
	<g>
		<path style="fill:#666666;" d="M45.39,18.613c-6.177-6.177-16.191-6.177-22.368,0L4.633,37c-6.177,6.178-6.177,16.192,0,22.369
			c6.178,6.177,16.192,6.177,22.369,0L45.39,40.982C51.566,34.805,51.566,24.79,45.39,18.613z"/>
	</g>
</g>
<g id="Display_4_">
	<g>
		<path style="fill-rule:evenodd;clip-rule:evenodd;fill:#48A0DC;" d="M38.246,25.694c-2.333-2.333-6.116-2.333-8.449,0
			L15.384,40.107c4.378,0.607,7.842,4.041,8.495,8.403l14.367-14.367C40.579,31.81,40.579,28.028,38.246,25.694z"/>
	</g>
</g>
<g id="Btn_4_">
	<g>
		<circle style="fill:#8C8C8C;" cx="14.002" cy="50.001" r="6"/>
	</g>
</g>
<g>
</g>
<g>
</g>
<g>
</g>
<g>
</g>
<g>
</g>
<g>
</g>
<g>
</g>
<g>
</g>
<g>
</g>
<g>
</g>
<g>
</g>
<g>
</g>
<g>
</g>
<g>
</g>
<g>
</g>
</svg>
