<?xml version="1.0" encoding="iso-8859-1"?>
<!-- Generator: Adobe Illustrator 16.0.0, SVG Export Plug-In . SVG Version: 6.00 Build 0)  -->
<!DOCTYPE svg PUBLIC "-//W3C//DTD SVG 1.1//EN" "http://www.w3.org/Graphics/SVG/1.1/DTD/svg11.dtd">
<svg version="1.1" id="Layer_1" xmlns="http://www.w3.org/2000/svg" xmlns:xlink="http://www.w3.org/1999/xlink" x="0px" y="0px"
	 width="64px" height="51.949px" viewBox="0 0 64 51.949" style="enable-background:new 0 0 64 51.949;" xml:space="preserve">
<g id="Box_7_">
	<g>
		<path style="fill:#CCCCCC;" d="M60,0H4C1.791,0,0,1.788,0,3.995v43.958c0,2.206,1.791,3.996,4,3.996h56c2.209,0,4-1.79,4-3.996
			V3.995C64,1.788,62.209,0,60,0z"/>
	</g>
</g>
<g id="Upper_Side">
	<g>
		<path style="fill-rule:evenodd;clip-rule:evenodd;fill:#9B7CAB;" d="M60,0H4C1.791,0,0,1.788,0,3.995v15.984h64V3.995
			C64,1.788,62.209,0,60,0z"/>
	</g>
</g>
<g id="White_keys">
	<g>
		<path style="fill-rule:evenodd;clip-rule:evenodd;fill:#FFFFFF;" d="M56,19.979H8H6v1.998v7.993v13.986
			c0,1.104,0.896,1.998,2,1.998h48c1.104,0,2-0.895,2-1.998V29.971v-7.993v-1.998H56z"/>
	</g>
</g>
<g id="Black_Keys">
	<g>
		<path style="fill-rule:evenodd;clip-rule:evenodd;fill:#484848;" d="M10,21.978v1.999v11.987c0,1.104,0.896,1.999,2,1.999
			s2-0.895,2-1.999V23.977v-1.999v-1.998h-4V21.978z M18,21.978v1.999v11.987c0,1.104,0.895,1.999,2,1.999c1.104,0,2-0.895,2-1.999
			V23.977v-1.999v-1.998h-4V21.978z M26,21.978v1.999v11.987c0,1.104,0.896,1.999,2,1.999s2-0.895,2-1.999V23.977v-1.999v-1.998h-4
			V21.978z M42,21.978v1.999v11.987c0,1.104,0.896,1.999,2,1.999s2-0.895,2-1.999V23.977v-1.999v-1.998h-4V21.978z M50,19.979v1.998
			v1.999v11.987c0,1.104,0.896,1.999,2,1.999s2-0.895,2-1.999V23.977v-1.999v-1.998H50z"/>
	</g>
</g>
<g id="Knobs_2_">
	<g>
		<path style="fill-rule:evenodd;clip-rule:evenodd;fill:#6D5778;" d="M16,7.992c-1.104,0-2,0.895-2,1.998s0.896,1.998,2,1.998
			s2-0.895,2-1.998S17.104,7.992,16,7.992z M8,7.992c-1.104,0-2,0.895-2,1.998s0.896,1.998,2,1.998s2-0.895,2-1.998
			S9.104,7.992,8,7.992z"/>
	</g>
</g>
<g id="Btn_9_">
	<g>
		<circle style="fill:#FFFFFF;" cx="56" cy="9.99" r="1.998"/>
	</g>
</g>
<g>
</g>
<g>
</g>
<g>
</g>
<g>
</g>
<g>
</g>
<g>
</g>
<g>
</g>
<g>
</g>
<g>
</g>
<g>
</g>
<g>
</g>
<g>
</g>
<g>
</g>
<g>
</g>
<g>
</g>
</svg>
