<?xml version="1.0" encoding="iso-8859-1"?>
<!-- Generator: Adobe Illustrator 16.0.0, SVG Export Plug-In . SVG Version: 6.00 Build 0)  -->
<!DOCTYPE svg PUBLIC "-//W3C//DTD SVG 1.1//EN" "http://www.w3.org/Graphics/SVG/1.1/DTD/svg11.dtd">
<svg version="1.1" id="Layer_1" xmlns="http://www.w3.org/2000/svg" xmlns:xlink="http://www.w3.org/1999/xlink" x="0px" y="0px"
	 width="44px" height="64px" viewBox="0 0 44 64" style="enable-background:new 0 0 44 64;" xml:space="preserve">
<g id="Box_3_">
	<g>
		<path style="fill:#CCCCCC;" d="M40,8H4c-2.209,0-4,1.791-4,4v48c0,2.209,1.791,4,4,4h36c2.209,0,4-1.791,4-4V12
			C44,9.791,42.209,8,40,8z"/>
	</g>
</g>
<g id="Shape_22_">
	<g>
		<circle style="fill:#9B7CAB;" cx="22" cy="28" r="14"/>
	</g>
</g>
<g id="Shape_23_">
	<g>
		<circle style="fill:#846A91;" cx="22" cy="28" r="8"/>
	</g>
</g>
<g id="Shape_24_">
	<g>
		<circle style="fill:#FFFFFF;" cx="22" cy="28" r="2"/>
	</g>
</g>
<g id="Signal">
	<g>
		<path style="fill:#666666;" d="M28,50H16c-1.104,0-2,0.896-2,2v4c0,1.104,0.896,2,2,2h12c1.104,0,2-0.896,2-2v-4
			C30,50.896,29.104,50,28,50z"/>
	</g>
</g>
<g id="Signal_Bar">
	<g>
		<path style="fill-rule:evenodd;clip-rule:evenodd;fill:#FFFFFF;" d="M22,54c-1.104,0-2,0.896-2,2v2h4v-2
			C24,54.896,23.104,54,22,54z"/>
	</g>
</g>
<g id="Btns_8_">
	<g>
		<path style="fill-rule:evenodd;clip-rule:evenodd;fill:#9B7CAB;" d="M8,52c-1.105,0-2,0.896-2,2s0.895,2,2,2c1.104,0,2-0.896,2-2
			S9.104,52,8,52z M36,52c-1.104,0-2,0.896-2,2s0.896,2,2,2s2-0.896,2-2S37.104,52,36,52z"/>
	</g>
</g>
<g id="Antena_Head">
	<g>
		<path style="fill-rule:evenodd;clip-rule:evenodd;fill:#B3B3B3;" d="M36,0c-1.104,0-2,0.896-2,2v2v4h4V4V2C38,0.896,37.104,0,36,0
			z"/>
	</g>
</g>
<g>
</g>
<g>
</g>
<g>
</g>
<g>
</g>
<g>
</g>
<g>
</g>
<g>
</g>
<g>
</g>
<g>
</g>
<g>
</g>
<g>
</g>
<g>
</g>
<g>
</g>
<g>
</g>
<g>
</g>
</svg>
