<?xml version="1.0" encoding="iso-8859-1"?>
<!-- Generator: Adobe Illustrator 16.0.0, SVG Export Plug-In . SVG Version: 6.00 Build 0)  -->
<!DOCTYPE svg PUBLIC "-//W3C//DTD SVG 1.1//EN" "http://www.w3.org/Graphics/SVG/1.1/DTD/svg11.dtd">
<svg version="1.1" id="Layer_1" xmlns="http://www.w3.org/2000/svg" xmlns:xlink="http://www.w3.org/1999/xlink" x="0px" y="0px"
	 width="64px" height="64.002px" viewBox="0 0 64 64.002" style="enable-background:new 0 0 64 64.002;" xml:space="preserve">
<g id="Antena_2_">
	<g>
		<path style="fill:#666666;" d="M57.429,24.669l-2-2L35.333,2.572l-2-2c-0.763-0.763-2-0.763-2.762,0s-0.763,2,0,2.762l2,2
			l20.097,20.097l2,2c0.763,0.763,1.999,0.763,2.762,0S58.192,25.432,57.429,24.669z"/>
	</g>
</g>
<g id="Base_22_">
	<g>
		<path style="fill:#88C057;" d="M60,24.002H4c-2.209,0-4,1.79-4,4v31.999c0,2.209,1.791,4.001,4,4.001h56c2.209,0,4-1.792,4-4.001
			V28.002C64,25.792,62.209,24.002,60,24.002z"/>
	</g>
</g>
<g id="Background_2_">
	<g>
		<rect x="4" y="28.002" style="fill:#FFFFFF;" width="56" height="31.999"/>
	</g>
</g>
<g id="Speaker_11_">
	<g>
		<path style="fill-rule:evenodd;clip-rule:evenodd;fill:#CCCCCC;" d="M30,46.002c1.104,0,2-0.896,2-1.999
			c0-1.104-0.896-2.001-2-2.001s-2,0.896-2,2.001C28,45.106,28.896,46.002,30,46.002z M38,46.002c1.104,0,2-0.896,2-1.999
			c0-1.104-0.896-2.001-2-2.001s-2,0.896-2,2.001C36,45.106,36.896,46.002,38,46.002z M46,46.002c1.104,0,2-0.896,2-1.999
			c0-1.104-0.896-2.001-2-2.001s-2,0.896-2,2.001C44,45.106,44.896,46.002,46,46.002z M54,46.002c1.104,0,2-0.896,2-1.999
			c0-1.104-0.896-2.001-2-2.001s-2,0.896-2,2.001C52,45.106,52.896,46.002,54,46.002z M34,50.002c1.104,0,2-0.896,2-1.999
			c0-1.104-0.896-2.001-2-2.001s-2,0.896-2,2.001C32,49.106,32.896,50.002,34,50.002z M42,50.002c1.104,0,2-0.896,2-1.999
			c0-1.104-0.896-2.001-2-2.001s-2,0.896-2,2.001C40,49.106,40.896,50.002,42,50.002z M50,50.002c1.104,0,2-0.896,2-1.999
			c0-1.104-0.896-2.001-2-2.001s-2,0.896-2,2.001C48,49.106,48.896,50.002,50,50.002z M30,50.002c-1.104,0-2,0.896-2,2s0.896,2,2,2
			s2-0.896,2-2S31.105,50.002,30,50.002z M38,50.002c-1.104,0-2,0.896-2,2s0.896,2,2,2s2-0.896,2-2S39.105,50.002,38,50.002z
			 M46,50.002c-1.104,0-2,0.896-2,2s0.896,2,2,2s2-0.896,2-2S47.105,50.002,46,50.002z M54,50.002c-1.104,0-2,0.896-2,2s0.896,2,2,2
			s2-0.896,2-2S55.105,50.002,54,50.002z M34,54.002c-1.104,0-2,0.896-2,2s0.896,2,2,2s2-0.896,2-2S35.105,54.002,34,54.002z
			 M42,54.002c-1.104,0-2,0.896-2,2s0.896,2,2,2s2-0.896,2-2S43.105,54.002,42,54.002z M50,54.002c-1.104,0-2,0.896-2,2s0.896,2,2,2
			s2-0.896,2-2S51.105,54.002,50,54.002z"/>
	</g>
</g>
<g id="Bar_2_">
	<g>
		<path style="fill:#CCCCCC;" d="M54,32.001H18c-1.104,0-2,0.896-2,2.001c0,1.104,0.896,2,2,2h36c1.104,0,2-0.896,2-2
			C56,32.896,55.105,32.001,54,32.001z"/>
	</g>
</g>
<g id="Knob_3_">
	<g>
		<circle style="fill:#666666;" cx="10" cy="34.001" r="2"/>
	</g>
</g>
<g id="Knob_2_">
	<g>
		<circle style="fill:#88C057;" cx="16" cy="50.001" r="8"/>
	</g>
</g>
<g>
</g>
<g>
</g>
<g>
</g>
<g>
</g>
<g>
</g>
<g>
</g>
<g>
</g>
<g>
</g>
<g>
</g>
<g>
</g>
<g>
</g>
<g>
</g>
<g>
</g>
<g>
</g>
<g>
</g>
</svg>
