<?xml version="1.0" encoding="iso-8859-1"?>
<!-- Generator: Adobe Illustrator 16.0.0, SVG Export Plug-In . SVG Version: 6.00 Build 0)  -->
<!DOCTYPE svg PUBLIC "-//W3C//DTD SVG 1.1//EN" "http://www.w3.org/Graphics/SVG/1.1/DTD/svg11.dtd">
<svg version="1.1" id="Layer_1" xmlns="http://www.w3.org/2000/svg" xmlns:xlink="http://www.w3.org/1999/xlink" x="0px" y="0px"
	 width="64px" height="64px" viewBox="0 0 64 64" style="enable-background:new 0 0 64 64;" xml:space="preserve">
<g id="Body_1_">
	<g>
		<path style="fill-rule:evenodd;clip-rule:evenodd;fill:#805F3E;" d="M60,48c-1.88-1.88-20-10-20-10l-0.01,0.043
			c-0.065-0.087-0.141-0.164-0.209-0.249c-0.037,0.158-0.083,0.313-0.129,0.468L38,30H26l-1.652,8.262
			c-0.046-0.154-0.092-0.31-0.129-0.468c-0.068,0.085-0.144,0.162-0.209,0.249L24,38c0,0-18.12,8.12-20,10c-3.76,3.76-4,16-4,16h20
			h10h4h10h20C64,64,63.76,51.76,60,48z"/>
	</g>
</g>
<g id="Bling">
	<g>
		<path style="fill-rule:evenodd;clip-rule:evenodd;fill:#FFCC66;" d="M39.47,37.735c0.337,1.327,0.53,2.761,0.53,4.266
			C40,48.628,36.418,54,32,54s-8-5.372-8-11.999c0-1.505,0.193-2.938,0.53-4.266l-4.42,2.21C20.045,40.62,20,41.303,20,42.001
			c0,8.836,5.373,16,12,16s12-7.164,12-16c0-0.698-0.045-1.381-0.11-2.056L39.47,37.735z"/>
	</g>
</g>
<g id="Head_4_">
	<g>
		<path style="fill:#997149;" d="M32,2.001C24.268,2.001,18,6,18,14c0,6,2,10,4,14s6.081,8,10,8c3.918,0,8-4,10-8s4-8,4-14
			C46,6,39.732,2.001,32,2.001z"/>
	</g>
</g>
<g id="Hair_3_">
	<g>
		<path style="fill-rule:evenodd;clip-rule:evenodd;fill:#333333;" d="M45.997,15.389c0-0.026,0.003-0.054,0.003-0.08
			c0-0.061-0.006-0.123-0.007-0.185C45.888,7.544,44.243,0,32,0C19.285,0,18,7.784,18,15.309c0-0.555,0.065-1.098,0.176-1.623
			C18.065,14.467,18,15.245,18,16c0,0.898,0.08,1.843,0.205,2.804C18.72,16.158,20.311,10,24,10c3.453,0,2.108,0,8,0
			c1.31,0,2.96,0.091,4.423,0c1.167,0,1.542,0,3.577,0c3.689,0,5.28,5.46,5.795,7.991c0.107-0.791,0.171-1.564,0.189-2.314
			C45.989,15.785,46,15.892,46,16C46,15.796,45.999,15.593,45.997,15.389z"/>
	</g>
</g>
<g>
</g>
<g>
</g>
<g>
</g>
<g>
</g>
<g>
</g>
<g>
</g>
<g>
</g>
<g>
</g>
<g>
</g>
<g>
</g>
<g>
</g>
<g>
</g>
<g>
</g>
<g>
</g>
<g>
</g>
</svg>
