<?xml version="1.0" encoding="iso-8859-1"?>
<!-- Generator: Adobe Illustrator 16.0.0, SVG Export Plug-In . SVG Version: 6.00 Build 0)  -->
<!DOCTYPE svg PUBLIC "-//W3C//DTD SVG 1.1//EN" "http://www.w3.org/Graphics/SVG/1.1/DTD/svg11.dtd">
<svg version="1.1" id="Layer_1" xmlns="http://www.w3.org/2000/svg" xmlns:xlink="http://www.w3.org/1999/xlink" x="0px" y="0px"
	 width="64px" height="64px" viewBox="0 0 64 64" style="enable-background:new 0 0 64 64;" xml:space="preserve">
<g id="Base_12_">
	<g>
		<path style="fill:#999999;" d="M60,0H4C1.79,0,0,1.791,0,4v56c0,2.209,1.79,4,4,4h56c2.209,0,4-1.791,4-4V4
			C64,1.791,62.209,0,60,0z"/>
	</g>
</g>
<g id="Base_13_">
	<g>
		<path style="fill:#9B7CAB;" d="M60,0H4C1.79,0,0,1.791,0,4v24c0,2.209,1.79,4,4,4h56c2.209,0,4-1.791,4-4V4
			C64,1.791,62.209,0,60,0z"/>
	</g>
</g>
<g id="Btns_3_">
	<g>
		<path style="fill-rule:evenodd;clip-rule:evenodd;fill:#CCCCCC;" d="M9.999,43.999c-2.209,0-4,1.791-4,4
			c0,2.21,1.791,4.001,4,4.001s4-1.791,4-4.001C13.999,45.79,12.208,43.999,9.999,43.999z M54,43.999c-2.21,0-4.001,1.791-4.001,4
			C49.999,50.209,51.79,52,54,52c2.209,0,3.999-1.791,3.999-4.001C57.999,45.79,56.209,43.999,54,43.999z"/>
	</g>
</g>
<g id="Shape_17_">
	<g>
		<path style="fill:#CCCCCC;" d="M42,36H22c-1.104,0-2,0.896-2,2.001v4C20,43.105,20.896,44,22,44h20c1.104,0,2-0.895,2-1.999v-4
			C44,36.896,43.104,36,42,36z"/>
	</g>
</g>
<g id="Shape_18_">
	<g>
		<path style="fill:#808080;" d="M42,44H22c-1.104,0-2,0.896-2,2.001V62c0,1.105,0.896,2,2,2h20c1.104,0,2-0.895,2-2V46.001
			C44,44.896,43.104,44,42,44z"/>
	</g>
</g>
<g id="Disc">
	<g>
		<path style="fill-rule:evenodd;clip-rule:evenodd;fill:#CCCCCC;" d="M16,4C9.372,4,4,9.373,4,16c0,6.628,5.372,12,12,12
			c6.627,0,11.999-5.372,11.999-12C27.999,9.373,22.627,4,16,4z M48,4c-6.628,0-12,5.373-12,12c0,6.628,5.372,12,12,12
			c6.627,0,12-5.372,12-12C60,9.373,54.627,4,48,4z"/>
	</g>
</g>
<g id="Holes_2_">
	<g>
		<path style="fill-rule:evenodd;clip-rule:evenodd;fill:#4D4D4D;" d="M18,8c0-1.105-0.896-2-2-2c-1.105,0-2,0.895-2,2v4
			c0,1.104,0.895,2,2,2c1.104,0,2-0.896,2-2V8z M24.963,18.268l-3.758-1.999c-1.037-0.553-2.364-0.226-2.963,0.731
			c-0.6,0.957-0.244,2.18,0.794,2.732l3.758,2c1.037,0.552,2.364,0.225,2.963-0.732C26.356,20.044,26.001,18.82,24.963,18.268z
			 M10.889,16.293l-3.788,2.081c-1.046,0.574-1.444,1.786-0.89,2.707c0.555,0.92,1.854,1.2,2.899,0.626l3.788-2.081
			c1.046-0.574,1.444-1.786,0.89-2.706C13.233,15.999,11.936,15.719,10.889,16.293z M50,8c0-1.105-0.896-2-2-2c-1.105,0-2,0.895-2,2
			v4c0,1.104,0.895,2,2,2c1.104,0,2-0.896,2-2V8z M56.963,18.268l-3.758-1.999c-1.037-0.553-2.364-0.226-2.963,0.731
			c-0.6,0.957-0.244,2.18,0.794,2.732l3.758,2c1.037,0.552,2.364,0.225,2.964-0.732C58.356,20.044,58.001,18.82,56.963,18.268z
			 M42.889,16.293l-3.788,2.081c-1.046,0.574-1.444,1.786-0.89,2.707c0.555,0.92,1.854,1.2,2.899,0.626l3.788-2.081
			c1.047-0.574,1.444-1.786,0.89-2.706C45.233,15.999,43.936,15.719,42.889,16.293z"/>
	</g>
</g>
<g>
</g>
<g>
</g>
<g>
</g>
<g>
</g>
<g>
</g>
<g>
</g>
<g>
</g>
<g>
</g>
<g>
</g>
<g>
</g>
<g>
</g>
<g>
</g>
<g>
</g>
<g>
</g>
<g>
</g>
</svg>
