<?xml version="1.0" encoding="iso-8859-1"?>
<!-- Generator: Adobe Illustrator 16.0.0, SVG Export Plug-In . SVG Version: 6.00 Build 0)  -->
<!DOCTYPE svg PUBLIC "-//W3C//DTD SVG 1.1//EN" "http://www.w3.org/Graphics/SVG/1.1/DTD/svg11.dtd">
<svg version="1.1" id="Layer_1" xmlns="http://www.w3.org/2000/svg" xmlns:xlink="http://www.w3.org/1999/xlink" x="0px" y="0px"
	 width="63.999px" height="54px" viewBox="0 0 63.999 54" style="enable-background:new 0 0 63.999 54;" xml:space="preserve">
<g id="Base_14_">
	<g>
		<path style="fill:#88C057;" d="M49.999,18h-36c-2.209,0-4,1.791-4,4v28c0,2.209,1.791,4,4,4h36C52.209,54,54,52.209,54,50V22
			C54,19.791,52.209,18,49.999,18z"/>
	</g>
</g>
<g id="Btns_4_">
	<g>
		<path style="fill-rule:evenodd;clip-rule:evenodd;fill:#FFFFFF;" d="M16,42c-1.105,0-2.001,0.896-2.001,2s0.896,2,2.001,2
			c1.104,0,2-0.896,2-2S17.104,42,16,42z M48,42c-1.105,0-2.001,0.896-2.001,2s0.896,2,2.001,2c1.104,0,1.999-0.896,1.999-2
			S49.104,42,48,42z"/>
	</g>
</g>
<g id="Shape_19_">
	<g>
		<path style="fill:#666666;" d="M36,34h-8.001c-1.104,0-2,0.896-2,2v8c0,1.104,0.896,2,2,2H36c1.104,0,2-0.896,2-2v-8
			C38,34.896,37.104,34,36,34z"/>
	</g>
</g>
<g id="Disc_1_">
	<g>
		<path style="fill-rule:evenodd;clip-rule:evenodd;fill:#CCCCCC;" d="M13.999,0C6.268,0,0,6.269,0,14c0,7.732,6.268,14,13.999,14
			c7.732,0,14-6.268,14-14C27.999,6.269,21.731,0,13.999,0z M49.999,0C42.268,0,36,6.269,36,14c0,7.732,6.268,14,13.999,14
			c7.732,0,14-6.268,14-14C63.999,6.269,57.731,0,49.999,0z"/>
	</g>
</g>
<g id="Holes_3_">
	<g>
		<path style="fill-rule:evenodd;clip-rule:evenodd;fill:#4D4D4D;" d="M16,6c0-1.104-0.896-2-2.001-2C12.895,4,12,4.896,12,6v4
			c0,1.104,0.895,2,1.999,2C15.104,12,16,11.104,16,10V6z M22.963,16.269l-3.758-2.001c-1.037-0.552-2.364-0.225-2.963,0.732
			c-0.6,0.957-0.244,2.18,0.794,2.732l3.758,2c1.037,0.553,2.364,0.225,2.963-0.732C24.356,18.043,24.001,16.82,22.963,16.269z
			 M8.889,14.293l-3.788,2.081c-1.046,0.574-1.444,1.787-0.89,2.707c0.555,0.921,1.853,1.201,2.899,0.626l3.788-2.081
			c1.046-0.574,1.444-1.786,0.89-2.707C11.233,13.999,9.936,13.719,8.889,14.293z M52,6c0-1.104-0.896-2-2.001-2
			C48.895,4,48,4.896,48,6v4c0,1.104,0.895,2,1.999,2C51.104,12,52,11.104,52,10V6z M58.963,16.269l-3.758-2.001
			c-1.037-0.552-2.364-0.225-2.963,0.732c-0.6,0.957-0.244,2.18,0.794,2.732l3.758,2c1.037,0.553,2.364,0.225,2.963-0.732
			C60.356,18.043,60.001,16.82,58.963,16.269z M44.889,14.293l-3.788,2.081c-1.046,0.574-1.444,1.787-0.89,2.707
			c0.555,0.921,1.853,1.201,2.899,0.626l3.788-2.081c1.046-0.574,1.444-1.786,0.89-2.707C47.233,13.999,45.936,13.719,44.889,14.293
			z"/>
	</g>
</g>
<g>
</g>
<g>
</g>
<g>
</g>
<g>
</g>
<g>
</g>
<g>
</g>
<g>
</g>
<g>
</g>
<g>
</g>
<g>
</g>
<g>
</g>
<g>
</g>
<g>
</g>
<g>
</g>
<g>
</g>
</svg>
