<?xml version="1.0" encoding="iso-8859-1"?>
<!-- Generator: Adobe Illustrator 16.0.0, SVG Export Plug-In . SVG Version: 6.00 Build 0)  -->
<!DOCTYPE svg PUBLIC "-//W3C//DTD SVG 1.1//EN" "http://www.w3.org/Graphics/SVG/1.1/DTD/svg11.dtd">
<svg version="1.1" id="Layer_1" xmlns="http://www.w3.org/2000/svg" xmlns:xlink="http://www.w3.org/1999/xlink" x="0px" y="0px"
	 width="64.092px" height="63.999px" viewBox="0 0 64.092 63.999" style="enable-background:new 0 0 64.092 63.999;"
	 xml:space="preserve">
<g id="Shape_50_">
	<g>
		<path style="fill-rule:evenodd;clip-rule:evenodd;fill:#CCCCCC;" d="M63.986,54.631c0.17-0.548,0.13-1.171-0.174-1.719L52.197,32
			l11.615-20.912c0.304-0.547,0.344-1.17,0.174-1.718c-0.017-0.06-0.036-0.117-0.06-0.176c-0.021-0.049-0.043-0.097-0.067-0.145
			c-0.021-0.044-0.036-0.09-0.062-0.133c-0.017-0.028-0.04-0.051-0.059-0.077c-0.031-0.048-0.066-0.091-0.102-0.136
			c-0.044-0.054-0.087-0.106-0.136-0.155c-0.054-0.055-0.112-0.103-0.173-0.15c-0.039-0.03-0.076-0.061-0.116-0.088
			c-0.029-0.02-0.054-0.045-0.084-0.063c-0.047-0.028-0.097-0.044-0.145-0.067c-0.041-0.021-0.082-0.04-0.124-0.058
			c-0.064-0.025-0.128-0.048-0.193-0.066c-0.546-0.167-1.165-0.125-1.709,0.178L39.097,20.375c-1.006,0.559-1.366,1.771-0.804,2.708
			s1.835,1.242,2.841,0.683l16.072-8.927L48.786,30h-33.48L6.885,14.839l16.073,8.927c1.006,0.56,2.277,0.254,2.84-0.683
			c0.563-0.937,0.203-2.149-0.803-2.708L3.134,8.233C2.589,7.931,1.97,7.889,1.424,8.057c-0.064,0.018-0.128,0.039-0.19,0.064
			C1.189,8.14,1.147,8.16,1.104,8.182C1.058,8.204,1.009,8.22,0.963,8.247C0.934,8.265,0.91,8.289,0.882,8.309
			C0.838,8.338,0.798,8.37,0.757,8.402C0.7,8.448,0.644,8.494,0.593,8.546c-0.053,0.052-0.1,0.108-0.146,0.167
			c-0.031,0.04-0.063,0.079-0.092,0.121c-0.02,0.029-0.044,0.053-0.063,0.083C0.266,8.963,0.25,9.012,0.227,9.06
			c-0.021,0.042-0.041,0.084-0.06,0.128C0.143,9.25,0.12,9.313,0.103,9.377c-0.167,0.546-0.126,1.166,0.177,1.711L11.894,32
			L0.279,52.912c-0.303,0.545-0.344,1.165-0.177,1.711c0.019,0.063,0.04,0.126,0.064,0.188c0.019,0.045,0.039,0.088,0.061,0.131
			c0.023,0.047,0.038,0.095,0.065,0.141c0.018,0.03,0.043,0.054,0.062,0.082c0.029,0.043,0.062,0.083,0.094,0.123
			c0.046,0.058,0.092,0.114,0.144,0.166s0.108,0.098,0.166,0.144c0.04,0.032,0.08,0.064,0.123,0.094
			c0.028,0.02,0.052,0.044,0.082,0.062c0.046,0.027,0.094,0.042,0.141,0.065c0.043,0.021,0.086,0.042,0.131,0.061
			c0.063,0.025,0.124,0.046,0.187,0.063c0.547,0.169,1.168,0.128,1.713-0.176l21.861-12.142c1.006-0.559,1.366-1.771,0.803-2.707
			c-0.563-0.937-1.834-1.243-2.84-0.684L6.886,49.16L15.306,34h33.48l8.419,15.159l-16.071-8.926
			c-1.006-0.56-2.278-0.253-2.841,0.684s-0.202,2.148,0.804,2.707l21.861,12.142c0.545,0.303,1.165,0.345,1.711,0.177
			c0.064-0.019,0.127-0.04,0.189-0.065c0.043-0.018,0.085-0.037,0.126-0.058c0.048-0.023,0.098-0.039,0.145-0.067
			c0.03-0.019,0.055-0.044,0.084-0.063c0.04-0.027,0.077-0.057,0.115-0.087c0.061-0.049,0.12-0.098,0.175-0.152
			c0.048-0.048,0.091-0.101,0.134-0.154c0.036-0.045,0.071-0.088,0.104-0.136c0.018-0.027,0.041-0.049,0.058-0.077
			c0.025-0.043,0.039-0.088,0.062-0.132c0.024-0.049,0.048-0.097,0.068-0.146C63.95,54.746,63.97,54.688,63.986,54.631z"/>
	</g>
</g>
<g id="Shape_3_">
	<g>
		<path style="fill-rule:evenodd;clip-rule:evenodd;fill:#808080;" d="M38.046,14h-12c-2.209,0-4,1.791-4,4v16h20V18
			C42.046,15.791,40.255,14,38.046,14z"/>
	</g>
</g>
<g id="Cable">
	<g>
		<path style="fill-rule:evenodd;clip-rule:evenodd;fill:#4D4D4D;" d="M32.046,0c-1.104,0-2,0.895-2,2v12h4V2
			C34.046,0.895,33.15,0,32.046,0z"/>
	</g>
</g>
<g id="Microphone_1_">
	<g>
		<path style="fill:#666666;" d="M42.046,36h-20c-1.104,0-2,0.896-2,1.999V62c0,1.104,0.896,1.999,2,1.999h20
			c1.104,0,2-0.896,2-1.999V37.999C44.046,36.896,43.15,36,42.046,36z"/>
	</g>
</g>
<g id="Shape_4_">
	<g>
		<path style="fill:#333333;" d="M44.046,32h-24c-1.104,0-2,0.895-2,2v3.999c0,1.104,0.896,2,2,2h24c1.104,0,2-0.896,2-2V34
			C46.046,32.895,45.15,32,44.046,32z"/>
	</g>
</g>
<g id="Holes">
	<g>
		<path style="fill-rule:evenodd;clip-rule:evenodd;fill:#999999;" d="M26.046,43.999c-1.104,0-2,0.896-2,2.001c0,1.104,0.896,2,2,2
			s2-0.896,2-2C28.046,44.895,27.15,43.999,26.046,43.999z M32.046,43.999c-1.104,0-2,0.896-2,2.001c0,1.104,0.896,2,2,2
			s2-0.896,2-2C34.046,44.895,33.15,43.999,32.046,43.999z M38.046,48c1.104,0,2-0.896,2-2c0-1.105-0.896-2.001-2-2.001
			s-2,0.896-2,2.001C36.046,47.104,36.941,48,38.046,48z M26.046,50c-1.104,0-2,0.896-2,2s0.896,2,2,2s2-0.896,2-2
			S27.15,50,26.046,50z M32.046,50c-1.104,0-2,0.896-2,2s0.896,2,2,2s2-0.896,2-2S33.15,50,32.046,50z M38.046,50
			c-1.104,0-2,0.896-2,2s0.896,2,2,2s2-0.896,2-2S39.15,50,38.046,50z M26.046,56c-1.104,0-2,0.895-2,2c0,1.104,0.896,1.999,2,1.999
			s2-0.896,2-1.999C28.046,56.895,27.15,56,26.046,56z M32.046,56c-1.104,0-2,0.895-2,2c0,1.104,0.896,1.999,2,1.999
			s2-0.896,2-1.999C34.046,56.895,33.15,56,32.046,56z M38.046,56c-1.104,0-2,0.895-2,2c0,1.104,0.896,1.999,2,1.999
			s2-0.896,2-1.999C40.046,56.895,39.15,56,38.046,56z"/>
	</g>
</g>
<g>
</g>
<g>
</g>
<g>
</g>
<g>
</g>
<g>
</g>
<g>
</g>
<g>
</g>
<g>
</g>
<g>
</g>
<g>
</g>
<g>
</g>
<g>
</g>
<g>
</g>
<g>
</g>
<g>
</g>
</svg>
