<?xml version="1.0" encoding="iso-8859-1"?>
<!-- Generator: Adobe Illustrator 16.0.0, SVG Export Plug-In . SVG Version: 6.00 Build 0)  -->
<!DOCTYPE svg PUBLIC "-//W3C//DTD SVG 1.1//EN" "http://www.w3.org/Graphics/SVG/1.1/DTD/svg11.dtd">
<svg version="1.1" id="Layer_1" xmlns="http://www.w3.org/2000/svg" xmlns:xlink="http://www.w3.org/1999/xlink" x="0px" y="0px"
	 width="64px" height="68px" viewBox="0 0 64 68" style="enable-background:new 0 0 64 68;" xml:space="preserve">
<g id="Suit_1_">
	<g>
		<path style="fill:#666666;" d="M0,64l24,0.001v-22c0,0-18.12,8.119-20,10C0.24,55.761,0,64,0,64z M60,52.001
			c-1.88-1.881-20-10-20-10V64h24C64,64,63.76,55.761,60,52.001z"/>
	</g>
</g>
<g id="Neck_2_">
	<g>
		<polygon style="fill:#DBB599;" points="24,30.001 24,38.001 24,64.001 40,64 40,38.001 40,30.001 		"/>
	</g>
</g>
<g id="Shirt_1_">
	<g>
		<path style="fill-rule:evenodd;clip-rule:evenodd;fill:#666666;" d="M32,46c-3.078,0-5.876-0.974-8-2.562V64h16V43.438
			C37.876,45.026,35.078,46,32,46z"/>
	</g>
</g>
<g id="Skull">
	<g>
		<path style="fill-rule:evenodd;clip-rule:evenodd;fill:#999999;" d="M32,48c-5.523,0-10,4.477-10,10c0,2.254,0.755,4.327,2.014,6
			h15.973C41.245,62.327,42,60.254,42,58C42,52.477,37.522,48,32,48z M28,60.001c-1.104,0-2-0.896-2-2C26,56.896,26.896,56,28,56
			s2,0.896,2,2.001C30,59.105,29.104,60.001,28,60.001z M36,60.001c-1.104,0-2-0.896-2-2C34,56.896,34.896,56,36,56s2,0.896,2,2.001
			C38,59.105,37.104,60.001,36,60.001z"/>
	</g>
</g>
<g id="Head_2_">
	<g>
		<path style="fill:#F6CBAD;" d="M46,18c0-7.862-1.286-14-14-14c-12.712,0-13.999,6.474-14,13.995c0,0.002,0,0.003,0,0.005
			c0,6,2,10,4,14s6.081,8,10,8c3.918,0,8-4,10-8S46,24,46,18c0-0.003-0.001-0.007-0.001-0.01C45.999,17.993,46,17.996,46,18z"/>
	</g>
</g>
<g id="Gotee">
	<g>
		<path style="fill-rule:evenodd;clip-rule:evenodd;fill:#664B31;" d="M30,46c0,1.104,0.896,2.001,2,2.001s2-0.896,2-2.001
			l2.286-7.999h-8.571L30,46z M36,30h-8c-1.104,0-2,0.896-2,2.001l0.571,2h10.857l0.571-2C38,30.896,37.104,30,36,30z"/>
	</g>
</g>
<g id="Hair_2_">
	<g>
		<path style="fill-rule:evenodd;clip-rule:evenodd;fill:#333333;" d="M45.997,15.389c0-0.026,0.003-0.054,0.003-0.08
			c0-0.061-0.006-0.123-0.007-0.185C45.888,7.544,44.243,0,32,0C19.285,0,18,7.784,18,15.309c0-0.555,0.064-1.097,0.176-1.622
			C18.065,14.467,18,15.246,18,16c0,0.898,0.08,1.843,0.205,2.804C18.72,16.158,20.311,10,24,10c0.431,0,0.786,0,1.091,0
			c1.627,2.011,4.736,4,6.909,4c5.892,0,4.547-2,8-2c3.689,0,5.28,3.46,5.795,5.991c0.107-0.79,0.171-1.563,0.189-2.313
			C45.989,15.785,46,15.892,46,16C46,15.797,45.999,15.593,45.997,15.389z"/>
	</g>
</g>
<g>
</g>
<g>
</g>
<g>
</g>
<g>
</g>
<g>
</g>
<g>
</g>
<g>
</g>
<g>
</g>
<g>
</g>
<g>
</g>
<g>
</g>
<g>
</g>
<g>
</g>
<g>
</g>
<g>
</g>
</svg>
