<?xml version="1.0" encoding="iso-8859-1"?>
<!-- Generator: Adobe Illustrator 16.0.0, SVG Export Plug-In . SVG Version: 6.00 Build 0)  -->
<!DOCTYPE svg PUBLIC "-//W3C//DTD SVG 1.1//EN" "http://www.w3.org/Graphics/SVG/1.1/DTD/svg11.dtd">
<svg version="1.1" id="Layer_1" xmlns="http://www.w3.org/2000/svg" xmlns:xlink="http://www.w3.org/1999/xlink" x="0px" y="0px"
	 width="56.006px" height="63.978px" viewBox="0 0 56.006 63.978" style="enable-background:new 0 0 56.006 63.978;"
	 xml:space="preserve">
<g id="Base_34_">
	<g>
		<path style="fill-rule:evenodd;clip-rule:evenodd;fill:#FFCC66;" d="M18.006,43.869c5.808-4.288,25.179-19.074,32-25.872
			c3.14-3.13,6-6.137,6-9.999c0-4.05-9.557-4-14-4l-2,3.987c5.611,0,8,0.063,8,2.013c0,4.602-40.434,23.289-45.502,31.67
			c-4.946,8.18-2.114,16.746,4.547,20.418c12.963,7.145,23.56-8.25,26.955-8.25c2.222,0,2.573,0.482,2.993,1.059
			c0.532,1.918,1.234,3.096,2.007,3.096c1.656,0,3-5.372,3-11.998s-1.344-11.998-3-11.998c-0.904,0-1.712,1.605-2.262,4.134
			c-2.075,2.266-8.39,2.5-12.738,5.74c-6.65,4.955-12,9.047-12,5.979C12.006,48.121,13.557,47.154,18.006,43.869z"/>
	</g>
</g>
<g id="Nozzle_2_">
	<g>
		<path style="fill:#CCA352;" d="M36.006,0l-2,1.999c0,0,0.938,5.999,6,5.999l2-4C37.756,3.998,36.006,0,36.006,0z"/>
	</g>
</g>
<g id="Btns_13_">
	<g>
		<path style="fill-rule:evenodd;clip-rule:evenodd;fill:#CCA352;" d="M35.707,26.769c-1.111-0.614-2.531-0.25-3.172,0.813
			c-0.642,1.063-0.261,2.423,0.85,3.037s2.53,0.25,3.172-0.813C37.197,28.742,36.816,27.382,35.707,26.769z M30.213,31.433
			c-1.11-0.613-2.53-0.249-3.171,0.814c-0.642,1.063-0.261,2.423,0.85,3.036c1.11,0.614,2.53,0.25,3.172-0.813
			C31.704,33.406,31.324,32.047,30.213,31.433z M24.721,36.098c-1.111-0.614-2.531-0.249-3.172,0.813
			c-0.641,1.063-0.261,2.424,0.85,3.037c1.11,0.615,2.53,0.25,3.172-0.813C26.211,38.071,25.831,36.711,24.721,36.098z"/>
	</g>
</g>
<g>
</g>
<g>
</g>
<g>
</g>
<g>
</g>
<g>
</g>
<g>
</g>
<g>
</g>
<g>
</g>
<g>
</g>
<g>
</g>
<g>
</g>
<g>
</g>
<g>
</g>
<g>
</g>
<g>
</g>
</svg>
