<?xml version="1.0" encoding="iso-8859-1"?>
<!-- Generator: Adobe Illustrator 16.0.0, SVG Export Plug-In . SVG Version: 6.00 Build 0)  -->
<!DOCTYPE svg PUBLIC "-//W3C//DTD SVG 1.1//EN" "http://www.w3.org/Graphics/SVG/1.1/DTD/svg11.dtd">
<svg version="1.1" id="Layer_1" xmlns="http://www.w3.org/2000/svg" xmlns:xlink="http://www.w3.org/1999/xlink" x="0px" y="0px"
	 width="64.037px" height="63.999px" viewBox="0 0 64.037 63.999" style="enable-background:new 0 0 64.037 63.999;"
	 xml:space="preserve">
<g id="Base_31_">
	<g>
		<circle style="fill:#88C057;" cx="32.033" cy="30.007" r="29.991"/>
	</g>
</g>
<g id="Shape_36_">
	<g>
		<circle style="fill:#FFFFFF;" cx="32.033" cy="30.006" r="25.992"/>
	</g>
</g>
<g id="Stick">
	<g>
		<path style="fill-rule:evenodd;clip-rule:evenodd;fill:#FFCC66;" d="M42.366,37.344L0.985,60.355
			c-0.952,0.53-1.27,1.718-0.708,2.654c0.562,0.936,1.789,1.266,2.741,0.736l41.381-23.013c0.952-0.529,1.269-1.717,0.708-2.653
			C44.546,37.144,43.318,36.814,42.366,37.344z M63.774,0.979c-0.549-0.944-1.776-1.261-2.743-0.706l-42,26.088
			c-0.967,0.554-1.306,1.77-0.757,2.714s1.776,1.261,2.743,0.706l42-26.087C63.984,3.14,64.323,1.925,63.774,0.979z"/>
	</g>
</g>
<g id="Tip">
	<g>
		<path style="fill-rule:evenodd;clip-rule:evenodd;fill:#E6B85C;" d="M53.738,33.255c-1.089-1.827-4.966-1.633-8.66,0.435
			c-3.693,2.066-5.805,5.223-4.716,7.048c1.089,1.827,4.966,1.633,8.659-0.434S54.826,35.081,53.738,33.255z M17.124,25.72
			c-3.742,2.118-5.915,5.299-4.853,7.104s4.957,1.551,8.699-0.567s5.915-5.299,4.853-7.104S20.866,23.602,17.124,25.72z"/>
	</g>
</g>
<g>
</g>
<g>
</g>
<g>
</g>
<g>
</g>
<g>
</g>
<g>
</g>
<g>
</g>
<g>
</g>
<g>
</g>
<g>
</g>
<g>
</g>
<g>
</g>
<g>
</g>
<g>
</g>
<g>
</g>
</svg>
