<?xml version="1.0" encoding="iso-8859-1"?>
<!-- Generator: Adobe Illustrator 16.0.0, SVG Export Plug-In . SVG Version: 6.00 Build 0)  -->
<!DOCTYPE svg PUBLIC "-//W3C//DTD SVG 1.1//EN" "http://www.w3.org/Graphics/SVG/1.1/DTD/svg11.dtd">
<svg version="1.1" id="Layer_1" xmlns="http://www.w3.org/2000/svg" xmlns:xlink="http://www.w3.org/1999/xlink" x="0px" y="0px"
	 width="44.003px" height="64px" viewBox="0 0 44.003 64" style="enable-background:new 0 0 44.003 64;" xml:space="preserve">
<g id="Base_3_">
	<g>
		<path style="fill:#808080;" d="M18.001,0h-16C0.896,0,0,0.896,0,1.999V62c0,1.104,0.896,2,2.001,2h16c1.104,0,2.001-0.896,2.001-2
			V1.999C20.002,0.896,19.105,0,18.001,0z"/>
	</g>
</g>
<g id="Base_4_">
	<g>
		<path style="fill:#808080;" d="M42.003,0H26.002c-1.104,0-2,0.896-2,1.999V62c0,1.104,0.896,2,2,2h16.001c1.104,0,2-0.896,2-2
			V1.999C44.003,0.896,43.107,0,42.003,0z"/>
	</g>
</g>
<g id="Speaker_Shape">
	<g>
		<path style="fill-rule:evenodd;clip-rule:evenodd;fill:#4D4D4D;" d="M10.001,6C6.688,6,4,8.687,4,11.999
			C4,15.313,6.688,18,10.001,18s6-2.687,6-6.001C16.001,8.687,13.314,6,10.001,6z M10.001,26C6.688,26,4,28.687,4,32
			s2.688,6,6.001,6s6-2.687,6-6S13.314,26,10.001,26z M34.002,18c3.314,0,6-2.687,6-6.001c0-3.313-2.686-5.999-6-5.999
			c-3.313,0-6,2.687-6,5.999C28.002,15.313,30.688,18,34.002,18z M34.002,26c-3.313,0-6,2.687-6,6s2.687,6,6,6c3.314,0,6-2.687,6-6
			S37.316,26,34.002,26z M10.001,48c-2.209,0-4,1.791-4,4c0,2.208,1.791,4,4,4s4-1.792,4-4C14.001,49.791,12.21,48,10.001,48z
			 M34.002,48c-2.209,0-4,1.791-4,4c0,2.208,1.791,4,4,4s4-1.792,4-4C38.002,49.791,36.211,48,34.002,48z"/>
	</g>
</g>
<g id="Nozzle">
	<g>
		<path style="fill-rule:evenodd;clip-rule:evenodd;fill:#666666;" d="M34.002,50c-1.104,0-2,0.896-2,2s0.896,2,2,2s2-0.896,2-2
			S35.106,50,34.002,50z M10.001,50c-1.104,0-2,0.896-2,2s0.896,2,2,2s2-0.896,2-2S11.105,50,10.001,50z M34.002,30
			c-1.104,0-2,0.896-2,2s0.896,2,2,2s2-0.896,2-2S35.106,30,34.002,30z M10.001,30c-1.104,0-2,0.896-2,2s0.896,2,2,2s2-0.896,2-2
			S11.105,30,10.001,30z M34.002,14c1.104,0,2-0.896,2-2.001c0-1.104-0.896-1.999-2-1.999s-2,0.896-2,1.999
			C32.002,13.104,32.897,14,34.002,14z M10.001,10c-1.104,0-2,0.896-2,1.999c0,1.105,0.896,2.001,2,2.001s2-0.896,2-2.001
			C12.001,10.896,11.105,10,10.001,10z"/>
	</g>
</g>
<g>
</g>
<g>
</g>
<g>
</g>
<g>
</g>
<g>
</g>
<g>
</g>
<g>
</g>
<g>
</g>
<g>
</g>
<g>
</g>
<g>
</g>
<g>
</g>
<g>
</g>
<g>
</g>
<g>
</g>
</svg>
