<?xml version="1.0" encoding="iso-8859-1"?>
<!-- Generator: Adobe Illustrator 16.0.0, SVG Export Plug-In . SVG Version: 6.00 Build 0)  -->
<!DOCTYPE svg PUBLIC "-//W3C//DTD SVG 1.1//EN" "http://www.w3.org/Graphics/SVG/1.1/DTD/svg11.dtd">
<svg version="1.1" id="Layer_1" xmlns="http://www.w3.org/2000/svg" xmlns:xlink="http://www.w3.org/1999/xlink" x="0px" y="0px"
	 width="60px" height="60px" viewBox="0 0 60 60" style="enable-background:new 0 0 60 60;" xml:space="preserve">
<g id="Wave">
	<g>
		<path style="fill-rule:evenodd;clip-rule:evenodd;fill:#54BBFF;" d="M10,12c-1.104,0-2,0.896-2,2v32c0,1.104,0.896,2,2,2
			s2-0.896,2-2V14C12,12.896,11.104,12,10,12z M26,18c-1.104,0-2,0.896-2,2v20c0,1.104,0.896,2,2,2s2-0.896,2-2V20
			C28,18.896,27.104,18,26,18z M58,18c-1.104,0-2,0.896-2,2v20c0,1.104,0.896,2,2,2s2-0.896,2-2V20C60,18.896,59.104,18,58,18z
			 M42,0c-1.105,0-2,0.896-2,2v56c0,1.104,0.895,2,2,2c1.104,0,2-0.896,2-2V2C44,0.896,43.104,0,42,0z"/>
	</g>
</g>
<g id="Wave_1_">
	<g>
		<path style="fill-rule:evenodd;clip-rule:evenodd;fill:#4395CC;" d="M2,22c-1.105,0-2,0.896-2,2v12c0,1.104,0.895,2,2,2
			c1.104,0,2-0.896,2-2V24C4,22.896,3.104,22,2,22z M34,12c-1.105,0-2,0.896-2,2v32c0,1.104,0.895,2,2,2c1.104,0,2-0.896,2-2V14
			C36,12.896,35.104,12,34,12z M50,12c-1.105,0-2,0.896-2,2v32c0,1.104,0.895,2,2,2c1.104,0,2-0.896,2-2V14
			C52,12.896,51.104,12,50,12z M18,6c-1.105,0-2,0.896-2,2v44c0,1.104,0.895,2,2,2c1.104,0,2-0.896,2-2V8C20,6.896,19.104,6,18,6z"
			/>
	</g>
</g>
<g>
</g>
<g>
</g>
<g>
</g>
<g>
</g>
<g>
</g>
<g>
</g>
<g>
</g>
<g>
</g>
<g>
</g>
<g>
</g>
<g>
</g>
<g>
</g>
<g>
</g>
<g>
</g>
<g>
</g>
</svg>
