<?xml version="1.0" encoding="iso-8859-1"?>
<!-- Generator: Adobe Illustrator 16.0.0, SVG Export Plug-In . SVG Version: 6.00 Build 0)  -->
<!DOCTYPE svg PUBLIC "-//W3C//DTD SVG 1.1//EN" "http://www.w3.org/Graphics/SVG/1.1/DTD/svg11.dtd">
<svg version="1.1" id="Layer_1" xmlns="http://www.w3.org/2000/svg" xmlns:xlink="http://www.w3.org/1999/xlink" x="0px" y="0px"
	 width="48.004px" height="63.938px" viewBox="0 0 48.004 63.938" style="enable-background:new 0 0 48.004 63.938;"
	 xml:space="preserve">
<g id="Box">
	<g>
		<path style="fill:#CCCCCC;" d="M45.35,4H2.653C1.188,4,0,5.198,0,6.675v54.587c0,1.478,1.188,2.677,2.653,2.677H45.35
			c1.466,0,2.654-1.199,2.654-2.677V6.675C48.004,5.198,46.815,4,45.35,4z"/>
	</g>
</g>
<g id="Shape_6_">
	<g>
		<path style="fill:#808080;" d="M41.35,0H6.654C5.188,0,4,1.198,4,2.675v54.587c0,1.478,1.188,2.677,2.654,2.677H41.35
			c1.466,0,2.654-1.199,2.654-2.677V2.675C44.004,1.198,42.815,0,41.35,0z"/>
	</g>
</g>
<g id="Speaker_3_">
	<g>
		<path style="fill-rule:evenodd;clip-rule:evenodd;fill:#404040;" d="M33.783,50.895c1.398-1.957,2.229-4.344,2.229-6.929
			c0-2.586-0.832-4.975-2.232-6.932l1.594-1.592c0.787-0.786,0.787-2.062,0-2.847c-0.787-0.786-2.063-0.786-2.852,0l-1.601,1.599
			c-1.957-1.379-4.34-2.196-6.919-2.196c-2.585,0-4.973,0.822-6.933,2.207l-1.554-1.552c-0.781-0.78-2.048-0.78-2.829,0
			c-0.78,0.78-0.78,2.044,0,2.825l1.546,1.544c-1.405,1.959-2.241,4.352-2.241,6.943c0,2.579,0.827,4.962,2.22,6.916l-1.645,1.643
			c-0.787,0.786-0.787,2.061,0,2.848c0.787,0.785,2.063,0.785,2.851,0l1.648-1.646c1.96,1.387,4.35,2.209,6.937,2.209
			c2.592,0,4.986-0.826,6.949-2.218l1.537,1.534c0.781,0.779,2.048,0.779,2.829,0c0.781-0.78,0.781-2.045,0-2.825L33.783,50.895z
			 M24.002,23.955c4.432,0,8.024-3.578,8.024-7.992c0-4.415-3.593-7.992-8.024-7.992s-8.024,3.577-8.024,7.992
			C15.978,20.377,19.57,23.955,24.002,23.955z"/>
	</g>
</g>
<g id="Speaker_2_">
	<g>
		<path style="fill-rule:evenodd;clip-rule:evenodd;fill:#989898;" d="M24.002,42.004c-1.116,0-2.022,0.895-2.022,1.998
			S22.886,46,24.002,46s2.022-0.895,2.022-1.998S25.118,42.004,24.002,42.004z M24.002,17.968c1.094,0,1.98-0.895,1.98-1.997
			c0-1.104-0.887-2-1.98-2s-1.98,0.896-1.98,2C22.021,17.073,22.908,17.968,24.002,17.968z"/>
	</g>
</g>
<g>
</g>
<g>
</g>
<g>
</g>
<g>
</g>
<g>
</g>
<g>
</g>
<g>
</g>
<g>
</g>
<g>
</g>
<g>
</g>
<g>
</g>
<g>
</g>
<g>
</g>
<g>
</g>
<g>
</g>
</svg>
