<?xml version="1.0" encoding="iso-8859-1"?>
<!-- Generator: Adobe Illustrator 16.0.0, SVG Export Plug-In . SVG Version: 6.00 Build 0)  -->
<!DOCTYPE svg PUBLIC "-//W3C//DTD SVG 1.1//EN" "http://www.w3.org/Graphics/SVG/1.1/DTD/svg11.dtd">
<svg version="1.1" id="Layer_1" xmlns="http://www.w3.org/2000/svg" xmlns:xlink="http://www.w3.org/1999/xlink" x="0px" y="0px"
	 width="60.035px" height="63.991px" viewBox="0 0 60.035 63.991" style="enable-background:new 0 0 60.035 63.991;"
	 xml:space="preserve">
<g id="Elipses">
	<g>
		<path style="fill-rule:evenodd;clip-rule:evenodd;" d="M30.018,51.992c-3.314,0-6,2.687-6,5.999c0,3.314,2.686,6,6,6
			c3.313,0,6-2.686,6-6C36.018,54.679,33.331,51.992,30.018,51.992z M30.018,0c-3.314,0-6,2.686-6,5.999s2.686,5.999,6,5.999
			c3.313,0,6-2.686,6-5.999S33.331,0,30.018,0z M56.981,38.798c-2.92-1.656-6.654-0.673-8.34,2.196
			c-1.686,2.87-0.686,6.538,2.234,8.195c2.921,1.656,6.654,0.673,8.341-2.195C60.902,44.124,59.901,40.455,56.981,38.798z
			 M9.158,14.802c-2.92-1.657-6.654-0.674-8.34,2.195s-0.686,6.539,2.234,8.195s6.654,0.674,8.34-2.196
			C13.079,20.127,12.078,16.458,9.158,14.802z M56.981,25.192c2.92-1.656,3.921-5.326,2.235-8.195
			c-1.687-2.869-5.42-3.853-8.341-2.195c-2.92,1.656-3.92,5.325-2.234,8.194C50.327,25.866,54.062,26.849,56.981,25.192z
			 M3.053,38.798c-2.92,1.657-3.92,5.326-2.234,8.196c1.686,2.868,5.42,3.852,8.34,2.195c2.92-1.657,3.921-5.325,2.234-8.195
			C9.707,38.125,5.973,37.142,3.053,38.798z"/>
	</g>
</g>
<g id="Shape_37_">
	<g>
		<circle style="fill:#CCCCCC;" cx="30.012" cy="31.995" r="27.986"/>
	</g>
</g>
<g id="Shape_38_">
	<g>
		<circle style="fill:#FFFFFF;" cx="30.012" cy="31.996" r="23.989"/>
	</g>
</g>
<g>
</g>
<g>
</g>
<g>
</g>
<g>
</g>
<g>
</g>
<g>
</g>
<g>
</g>
<g>
</g>
<g>
</g>
<g>
</g>
<g>
</g>
<g>
</g>
<g>
</g>
<g>
</g>
<g>
</g>
</svg>
