<?xml version="1.0" encoding="iso-8859-1"?>
<!-- Generator: Adobe Illustrator 16.0.0, SVG Export Plug-In . SVG Version: 6.00 Build 0)  -->
<!DOCTYPE svg PUBLIC "-//W3C//DTD SVG 1.1//EN" "http://www.w3.org/Graphics/SVG/1.1/DTD/svg11.dtd">
<svg version="1.1" id="Layer_1" xmlns="http://www.w3.org/2000/svg" xmlns:xlink="http://www.w3.org/1999/xlink" x="0px" y="0px"
	 width="64px" height="40px" viewBox="0 0 64 40" style="enable-background:new 0 0 64 40;" xml:space="preserve">
<g id="Base_19_">
	<g>
		<path style="fill:#CCCCCC;" d="M60,4H4C1.791,4,0,5.791,0,8.001v28C0,38.21,1.791,40,4,40h56c2.209,0,4-1.79,4-3.999v-28
			C64,5.791,62.209,4,60,4z"/>
	</g>
</g>
<g id="Background_1_">
	<g>
		<path style="fill-rule:evenodd;clip-rule:evenodd;fill:#808080;" d="M4,34.001c0,1.104,0.896,2,2,2h52c1.104,0,2-0.896,2-2V4H4
			V34.001z"/>
	</g>
</g>
<g id="Base_20_">
	<g>
		<path style="fill:#FFFFFF;" d="M26,8.001H10c-1.104,0-2,0.896-2,1.999v20c0,1.105,0.896,2.001,2,2.001h16c1.104,0,2-0.896,2-2.001
			V10C28,8.896,27.104,8.001,26,8.001z"/>
	</g>
</g>
<g id="Shape_21_">
	<g>
		<path style="fill-rule:evenodd;clip-rule:evenodd;fill:#666666;" d="M54,26H34c-1.104,0-2,0.896-2,2.001S32.896,30,34,30h20
			c1.104,0,2-0.895,2-1.999S55.104,26,54,26z M54,18.001H34c-1.104,0-2,0.895-2,1.999c0,1.105,0.896,2.001,2,2.001h20
			c1.104,0,2-0.896,2-2.001C56,18.896,55.104,18.001,54,18.001z M34,14h20c1.104,0,2-0.895,2-1.999S55.104,10,54,10H34
			c-1.104,0-2,0.896-2,2.001S32.896,14,34,14z"/>
	</g>
</g>
<g id="Btns_7_">
	<g>
		<path style="fill-rule:evenodd;clip-rule:evenodd;fill:#808080;" d="M18,20c-2.209,0-4,1.792-4,4.001c0,2.208,1.791,4,4,4
			s4-1.792,4-4C22,21.792,20.209,20,18,20z M18,16.001c1.104,0,2-0.896,2-2.001c0-1.104-0.896-1.999-2-1.999S16,12.896,16,14
			C16,15.105,16.896,16.001,18,16.001z"/>
	</g>
</g>
<g>
</g>
<g>
</g>
<g>
</g>
<g>
</g>
<g>
</g>
<g>
</g>
<g>
</g>
<g>
</g>
<g>
</g>
<g>
</g>
<g>
</g>
<g>
</g>
<g>
</g>
<g>
</g>
<g>
</g>
</svg>
