<?xml version="1.0" encoding="iso-8859-1"?>
<!-- Generator: Adobe Illustrator 16.0.0, SVG Export Plug-In . SVG Version: 6.00 Build 0)  -->
<!DOCTYPE svg PUBLIC "-//W3C//DTD SVG 1.1//EN" "http://www.w3.org/Graphics/SVG/1.1/DTD/svg11.dtd">
<svg version="1.1" id="Layer_1" xmlns="http://www.w3.org/2000/svg" xmlns:xlink="http://www.w3.org/1999/xlink" x="0px" y="0px"
	 width="64px" height="47.999px" viewBox="0 0 64 47.999" style="enable-background:new 0 0 64 47.999;" xml:space="preserve">
<g id="Handle_1_">
	<g>
		<path style="fill-rule:evenodd;clip-rule:evenodd;fill:#CCCCCC;" d="M40,0H24c-2.209,0-4,1.79-4,4v14c0,2.209,1.791,4,4,4h2
			c-1.104,0-2-0.896-2-2V6c0-1.104,0.896-2,2-2h12c1.104,0,2,0.896,2,2v14c0,1.104-0.896,2-2,2h2c2.209,0,4-1.791,4-4V4
			C44,1.79,42.209,0,40,0z"/>
	</g>
</g>
<g id="Legs">
	<g>
		<path style="fill-rule:evenodd;clip-rule:evenodd;fill:#B3B3B3;" d="M16,40c-2.209,0-4,1.791-4,4s1.791,3.999,4,3.999
			s4-1.79,4-3.999S18.209,40,16,40z M48,40c-2.209,0-4,1.791-4,4s1.791,3.999,4,3.999s4-1.79,4-3.999S50.209,40,48,40z"/>
	</g>
</g>
<g id="Shape_27_">
	<g>
		<path style="fill-rule:evenodd;clip-rule:evenodd;fill:#FFCC66;" d="M52,11.999c0,0-3.299-0.623-8-1.173v1.173
			C44,13.104,43.104,14,42,14c-1.105,0-2-0.896-2-2.001v-1.583C37.205,10.173,34.161,10,31.143,10c-2.447,0-4.877,0.127-7.143,0.317
			v1.682C24,13.104,23.104,14,22,14s-2-0.896-2-2.001v-1.268c-4.695,0.571-8,1.268-8,1.268C5.06,14.313,0,19.372,0,26v4
			c0,6.627,5.435,12.563,12,14c0,0,9.474,0,19.199,0C41.459,44,52,44,52,44c6.689-1.938,12-7.373,12-14v-4
			C64,19.372,58.627,13.688,52,11.999z"/>
	</g>
</g>
<g id="Display_3_">
	<g>
		<path style="fill:#FFFFFF;" d="M36,22h-8c-1.104,0-2,0.895-2,2v8c0,1.104,0.896,2,2,2h8c1.104,0,2-0.896,2-2v-8
			C38,22.895,37.104,22,36,22z"/>
	</g>
</g>
<g id="Speaker_12_">
	<g>
		<path style="fill-rule:evenodd;clip-rule:evenodd;fill:#CCA352;" d="M14,20c-4.419,0-8,3.581-8,8c0,4.418,3.581,8,8,8
			c4.418,0,8-3.582,8-8C22,23.581,18.418,20,14,20z M50,20c-4.419,0-8,3.581-8,8c0,4.418,3.581,8,8,8c4.418,0,8-3.582,8-8
			C58,23.581,54.418,20,50,20z"/>
	</g>
</g>
<g id="Shape_28_">
	<g>
		<path style="fill-rule:evenodd;clip-rule:evenodd;fill:#997A3D;" d="M14,26c-1.104,0-2,0.895-2,2c0,1.104,0.896,2,2,2s2-0.896,2-2
			C16,26.895,15.104,26,14,26z M50,26c-1.104,0-2,0.895-2,2c0,1.104,0.896,2,2,2s2-0.896,2-2C52,26.895,51.104,26,50,26z"/>
	</g>
</g>
<g>
</g>
<g>
</g>
<g>
</g>
<g>
</g>
<g>
</g>
<g>
</g>
<g>
</g>
<g>
</g>
<g>
</g>
<g>
</g>
<g>
</g>
<g>
</g>
<g>
</g>
<g>
</g>
<g>
</g>
</svg>
