<?xml version="1.0" encoding="iso-8859-1"?>
<!-- Generator: Adobe Illustrator 16.0.0, SVG Export Plug-In . SVG Version: 6.00 Build 0)  -->
<!DOCTYPE svg PUBLIC "-//W3C//DTD SVG 1.1//EN" "http://www.w3.org/Graphics/SVG/1.1/DTD/svg11.dtd">
<svg version="1.1" id="Layer_1" xmlns="http://www.w3.org/2000/svg" xmlns:xlink="http://www.w3.org/1999/xlink" x="0px" y="0px"
	 width="63.578px" height="64.001px" viewBox="0 0 63.578 64.001" style="enable-background:new 0 0 63.578 64.001;"
	 xml:space="preserve">
<g id="Shape_44_">
	<g>
		<path style="fill-rule:evenodd;clip-rule:evenodd;fill:#B35F24;" d="M42.986,42.636L26.945,26.609
			c-0.776-0.775-2.035-0.775-2.812,0s-0.776,2.033,0,2.809l16.042,16.026c0.776,0.775,2.035,0.775,2.811,0
			C43.763,44.669,43.763,43.411,42.986,42.636z M20.945,32.604c-0.776-0.775-2.035-0.775-2.812,0s-0.776,2.033,0,2.809
			l16.042,16.026c0.776,0.775,2.035,0.775,2.811,0c0.776-0.775,0.776-2.033,0-2.809L20.945,32.604z M14.945,38.598
			c-0.776-0.775-2.035-0.775-2.812,0s-0.776,2.033,0,2.809l16.042,16.026c0.776,0.775,2.035,0.775,2.811,0
			c0.776-0.776,0.776-2.033,0-2.809L14.945,38.598z"/>
	</g>
</g>
<g id="Btns_12_">
	<g>
		<path style="fill-rule:evenodd;clip-rule:evenodd;fill:#B35F24;" d="M27.023,24.48c-0.688-0.688-1.803-0.688-2.49,0l-2.491,2.491
			c-0.688,0.688-0.688,1.804,0,2.491c0.688,0.688,1.803,0.688,2.491,0l2.49-2.491C27.712,26.284,27.712,25.169,27.023,24.48z
			 M18.533,30.481l-2.491,2.49c-0.688,0.688-0.688,1.804,0,2.491c0.688,0.688,1.803,0.688,2.491,0l2.491-2.491
			c0.688-0.688,0.688-1.803,0-2.49C20.336,29.793,19.221,29.793,18.533,30.481z M12.533,36.48l-2.491,2.491
			c-0.688,0.688-0.688,1.804,0,2.492c0.688,0.688,1.803,0.688,2.491,0l2.49-2.492c0.688-0.688,0.688-1.803,0-2.491
			C14.336,35.793,13.221,35.793,12.533,36.48z"/>
	</g>
</g>
<g id="Body_41_">
	<g>
		<path style="fill-rule:evenodd;clip-rule:evenodd;fill:#FF8833;" d="M48.412,30.673l-5.553-5.548c-1.533-1.532-4.02-1.532-5.554,0
			L10.648,51.757c-1.534,1.532-1.534,4.016,0,5.548l5.552,5.547c1.534,1.532,4.02,1.532,5.554,0L48.412,36.22
			C49.945,34.688,49.945,32.204,48.412,30.673z M44.247,34.833L20.365,58.691c-0.767,0.766-2.01,0.766-2.776,0l-2.776-2.773
			c-0.767-0.766-0.767-2.008,0-2.773l23.882-23.859c0.767-0.766,2.01-0.766,2.776,0l2.776,2.774
			C45.014,32.824,45.014,34.066,44.247,34.833z"/>
	</g>
</g>
<g id="Horn">
	<g>
		<path style="fill-rule:evenodd;clip-rule:evenodd;fill:#FF8833;" d="M61.561,14.048l-12-11.988c-3.298-3.357-6-2.06-6,0
			c0,1.575,0.435,8.57-1.225,13.653C34.71,23.765,14.254,45.315,5.561,54c-2.303,2.3-2,2-2,2c-0.782,0.781-4.229,5.772-3.446,6.554
			l0.833,0.83c0.781,0.78,5.816-2.593,6.609-3.38c0.06-0.061,0.406-0.408,2.004-2.005c8.671-8.663,29.994-28.933,38.139-36.66
			c5.028-1.702,12.078-1.297,13.861-1.297C63.873,20.042,64.604,16.773,61.561,14.048z"/>
	</g>
</g>
<g>
</g>
<g>
</g>
<g>
</g>
<g>
</g>
<g>
</g>
<g>
</g>
<g>
</g>
<g>
</g>
<g>
</g>
<g>
</g>
<g>
</g>
<g>
</g>
<g>
</g>
<g>
</g>
<g>
</g>
</svg>
