<?xml version="1.0" encoding="iso-8859-1"?>
<!-- Generator: Adobe Illustrator 16.0.0, SVG Export Plug-In . SVG Version: 6.00 Build 0)  -->
<!DOCTYPE svg PUBLIC "-//W3C//DTD SVG 1.1//EN" "http://www.w3.org/Graphics/SVG/1.1/DTD/svg11.dtd">
<svg version="1.1" id="Layer_1" xmlns="http://www.w3.org/2000/svg" xmlns:xlink="http://www.w3.org/1999/xlink" x="0px" y="0px"
	 width="64.065px" height="64.001px" viewBox="0 0 64.065 64.001" style="enable-background:new 0 0 64.065 64.001;"
	 xml:space="preserve">
<g id="Handle_3_">
	<g>
		<path style="fill:#CCCCCC;" d="M21.371,42.649c-0.796-0.795-2.087-0.795-2.883,0L1.193,59.929c-0.796,0.795-0.796,2.084,0,2.88
			c0.796,0.795,2.086,0.795,2.882,0l17.296-17.279C22.167,44.734,22.167,43.444,21.371,42.649z"/>
	</g>
</g>
<g id="Ball_1_">
	<g>
		<circle style="fill:#B3B3B3;" cx="4.014" cy="59.991" r="4.012"/>
	</g>
</g>
<g id="U_Shape">
	<g>
		<path style="fill:#B3B3B3;" d="M61.414,10.675L30.413,42.21c-2.36,2.361-6.188,2.361-8.548,0s-2.36-6.189,0-8.551
			c0,0,31.524-30.927,31.524-31.012L50.228,0L19.017,30.809c-3.934,3.936-3.934,10.316,0,14.251c3.934,3.936,10.312,3.936,14.246,0
			l30.803-31.204L61.414,10.675z"/>
	</g>
</g>
<g>
</g>
<g>
</g>
<g>
</g>
<g>
</g>
<g>
</g>
<g>
</g>
<g>
</g>
<g>
</g>
<g>
</g>
<g>
</g>
<g>
</g>
<g>
</g>
<g>
</g>
<g>
</g>
<g>
</g>
</svg>
