<?xml version="1.0" encoding="iso-8859-1"?>
<!-- Generator: Adobe Illustrator 16.0.0, SVG Export Plug-In . SVG Version: 6.00 Build 0)  -->
<!DOCTYPE svg PUBLIC "-//W3C//DTD SVG 1.1//EN" "http://www.w3.org/Graphics/SVG/1.1/DTD/svg11.dtd">
<svg version="1.1" id="Layer_1" xmlns="http://www.w3.org/2000/svg" xmlns:xlink="http://www.w3.org/1999/xlink" x="0px" y="0px"
	 width="64px" height="48px" viewBox="0 0 64 48" style="enable-background:new 0 0 64 48;" xml:space="preserve">
<g id="Body_19_">
	<g>
		<path style="fill:#CCCCCC;" d="M60,0H4C1.791,0,0,1.791,0,4v40.001C0,46.209,1.791,48,4,48h56c2.209,0,4-1.791,4-3.999V4
			C64,1.791,62.209,0,60,0z"/>
	</g>
</g>
<g id="Shape_29_">
	<g>
		<path style="fill-rule:evenodd;clip-rule:evenodd;fill:#999999;" d="M58,33.896V6c0-1.104-0.896-2-2-2s-2,0.896-2,2v27.062
			l-5.408,5.408c-0.812,0.812-0.812,2.127,0,2.938s2.127,0.812,2.938,0l5.877-5.877C57.855,35.083,58.047,34.482,58,33.896z"/>
	</g>
</g>
<g id="Shape_30_">
	<g>
		<path style="fill:#666666;" d="M58,8h-4c-1.105,0-2,0.896-2,2v4.001C52,15.105,52.895,16,54,16h4c1.104,0,2-0.895,2-1.999V10
			C60,8.896,59.104,8,58,8z"/>
	</g>
</g>
<g id="Disc_3_">
	<g>
		<circle style="fill:#666666;" cx="24.013" cy="24" r="20"/>
	</g>
</g>
<g id="Label_2_">
	<g>
		<circle style="fill:#9B7CAB;" cx="24.014" cy="24" r="8"/>
	</g>
</g>
<g id="Pin">
	<g>
		<circle style="fill:#FFFFFF;" cx="24.003" cy="24" r="2"/>
	</g>
</g>
<g>
</g>
<g>
</g>
<g>
</g>
<g>
</g>
<g>
</g>
<g>
</g>
<g>
</g>
<g>
</g>
<g>
</g>
<g>
</g>
<g>
</g>
<g>
</g>
<g>
</g>
<g>
</g>
<g>
</g>
</svg>
