<?xml version="1.0" encoding="iso-8859-1"?>
<!-- Generator: Adobe Illustrator 16.0.0, SVG Export Plug-In . SVG Version: 6.00 Build 0)  -->
<!DOCTYPE svg PUBLIC "-//W3C//DTD SVG 1.1//EN" "http://www.w3.org/Graphics/SVG/1.1/DTD/svg11.dtd">
<svg version="1.1" id="Layer_1" xmlns="http://www.w3.org/2000/svg" xmlns:xlink="http://www.w3.org/1999/xlink" x="0px" y="0px"
	 width="64px" height="64px" viewBox="0 0 64 64" style="enable-background:new 0 0 64 64;" xml:space="preserve">
<g id="Body">
	<g>
		<path style="fill:#CCCCCC;" d="M60,0H4C1.791,0,0,1.791,0,4v56c0,2.21,1.791,4,4,4h56c2.209,0,4-1.79,4-4V4
			C64,1.791,62.209,0,60,0z"/>
	</g>
</g>
<g id="Display">
	<g>
		<path style="fill:#FFFFFF;" d="M56,8H8c-1.104,0-2,0.896-2,2.001v32C6,43.104,6.896,44,8,44h48c1.104,0,2-0.896,2-1.999v-32
			C58,8.896,57.104,8,56,8z"/>
	</g>
</g>
<g id="Level_1_">
	<g>
		<path style="fill:#B3B3B3;" d="M50.41,19.523C44.712,17.261,38.507,16,32,16c-6.452,0-12.597,1.268-18.259,3.492
			c-0.877,0.213-1.542,0.966-1.542,1.907c0,1.105,0.896,2.001,2.001,2.001c0.24,0,0.464-0.06,0.677-0.137l0.021,0.058
			C20.189,21.198,25.95,20,32,20c6.073,0,11.856,1.2,17.16,3.34l0.022-0.064c0.196,0.065,0.398,0.125,0.617,0.125
			c1.104,0,2-0.896,2-2.001C51.8,20.513,51.211,19.784,50.41,19.523z"/>
	</g>
</g>
<g id="Needle">
	<g>
		<path style="fill-rule:evenodd;clip-rule:evenodd;fill:#ED7161;" d="M26.151,13.542c-0.301-1.101-1.454-1.754-2.577-1.46
			c-1.122,0.296-1.788,1.427-1.487,2.528L30.114,44h4.356L26.151,13.542z"/>
	</g>
</g>
<g>
</g>
<g>
</g>
<g>
</g>
<g>
</g>
<g>
</g>
<g>
</g>
<g>
</g>
<g>
</g>
<g>
</g>
<g>
</g>
<g>
</g>
<g>
</g>
<g>
</g>
<g>
</g>
<g>
</g>
</svg>
