<?xml version="1.0" encoding="iso-8859-1"?>
<!-- Generator: Adobe Illustrator 16.0.0, SVG Export Plug-In . SVG Version: 6.00 Build 0)  -->
<!DOCTYPE svg PUBLIC "-//W3C//DTD SVG 1.1//EN" "http://www.w3.org/Graphics/SVG/1.1/DTD/svg11.dtd">
<svg version="1.1" id="Layer_1" xmlns="http://www.w3.org/2000/svg" xmlns:xlink="http://www.w3.org/1999/xlink" x="0px" y="0px"
	 width="64px" height="64px" viewBox="0 0 64 64" style="enable-background:new 0 0 64 64;" xml:space="preserve">
<g id="Clover_4_">
	<g>
		<path style="fill-rule:evenodd;clip-rule:evenodd;fill:#88C057;" d="M54,32H37.994c0-0.023,0.006-0.045,0.006-0.068
			c-0.004-0.33-0.054-0.647-0.108-0.962l17.845-3.122l0.004-0.023C60.43,26.998,64,22.928,64,18c0-5.523-4.478-10-10-10
			c-0.068,0-0.132,0.019-0.199,0.021C52.881,3.445,48.845,0,44,0c-5.214,0-9.447,4.005-9.909,9.1l-0.053,0.027L32.53,26.054
			c-0.2-0.019-0.394-0.056-0.599-0.054c-0.158,0.002-0.307,0.038-0.462,0.052L29.962,9.127L29.909,9.1C29.447,4.005,25.214,0,20,0
			c-4.845,0-8.881,3.445-9.801,8.021C10.132,8.019,10.068,8,10,8C4.477,8,0,12.477,0,18c0,4.928,3.569,8.998,8.26,9.824l0.004,0.023
			l17.835,3.12c-0.059,0.336-0.093,0.68-0.093,1.032H10C4.477,32,0,36.477,0,42c0,4.131,2.506,7.674,6.081,9.199
			C6.059,51.469,6,51.727,6,52c0,5.521,4.477,10,10,10c4.619,0,8.469-3.15,9.617-7.406l0.042-0.006L30,39.125V52
			c0,6.438,1.938,10.428,2.268,11c0.016,0,0.022-0.002,0.037-0.004C32.652,63.586,33.267,64,34,64c1.104,0,2-0.896,2-2
			c0-0.365-0.124-0.689-0.295-0.984c0.011-0.006,0.016-0.01,0.027-0.016C35.18,60.043,34,57.5,34,52V39.125l4.341,15.463
			l0.042,0.006C39.531,58.85,43.38,62,48,62c5.522,0,10-4.479,10-10c0-0.273-0.059-0.531-0.081-0.801C61.493,49.674,64,46.131,64,42
			C64,36.477,59.522,32,54,32z"/>
	</g>
</g>
<g>
</g>
<g>
</g>
<g>
</g>
<g>
</g>
<g>
</g>
<g>
</g>
<g>
</g>
<g>
</g>
<g>
</g>
<g>
</g>
<g>
</g>
<g>
</g>
<g>
</g>
<g>
</g>
<g>
</g>
</svg>
