<?xml version="1.0" encoding="iso-8859-1"?>
<!-- Generator: Adobe Illustrator 16.0.0, SVG Export Plug-In . SVG Version: 6.00 Build 0)  -->
<!DOCTYPE svg PUBLIC "-//W3C//DTD SVG 1.1//EN" "http://www.w3.org/Graphics/SVG/1.1/DTD/svg11.dtd">
<svg version="1.1" id="Layer_1" xmlns="http://www.w3.org/2000/svg" xmlns:xlink="http://www.w3.org/1999/xlink" x="0px" y="0px"
	 width="64px" height="64px" viewBox="0 0 64 64" style="enable-background:new 0 0 64 64;" xml:space="preserve">
<g id="Nut">
	<g>
		<path style="fill:#D9A16A;" d="M18,12C11.373,12,0,35.373,0,42c0,10,4,14,4,14s-2,3.1-2,4c0,1.104,0.896,2,2,2c0.9,0,4-2,4-2
			s4,4,14,4c6.627,0,32-13.373,32-20C54,28,34,12,18,12z"/>
	</g>
</g>
<g id="Cup">
	<g>
		<path style="fill-rule:evenodd;clip-rule:evenodd;fill:#8C6845;" d="M64,6c0-2.209-3.791-6-6-6c-1.986,0-0.037,1.98-7.854,9.848
			C43.549,3.973,35.484,0,28,0c-4,0-12,6-12,10s4.751,2.75,20,18c15.249,15.248,14,20,18,20s10-8,10-12
			c0-7.484-3.973-15.549-9.849-22.146C62.02,6.039,64,8.07,64,6z"/>
	</g>
</g>
<g>
</g>
<g>
</g>
<g>
</g>
<g>
</g>
<g>
</g>
<g>
</g>
<g>
</g>
<g>
</g>
<g>
</g>
<g>
</g>
<g>
</g>
<g>
</g>
<g>
</g>
<g>
</g>
<g>
</g>
</svg>
