<?xml version="1.0" encoding="iso-8859-1"?>
<!-- Generator: Adobe Illustrator 16.0.0, SVG Export Plug-In . SVG Version: 6.00 Build 0)  -->
<!DOCTYPE svg PUBLIC "-//W3C//DTD SVG 1.1//EN" "http://www.w3.org/Graphics/SVG/1.1/DTD/svg11.dtd">
<svg version="1.1" id="Layer_1" xmlns="http://www.w3.org/2000/svg" xmlns:xlink="http://www.w3.org/1999/xlink" x="0px" y="0px"
	 width="64.001px" height="64px" viewBox="0 0 64.001 64" style="enable-background:new 0 0 64.001 64;" xml:space="preserve">
<g id="Base">
	<g>
		<path style="fill-rule:evenodd;clip-rule:evenodd;fill:#A67C52;" d="M20.001,40c0,0-5.334,6.455-10,10
			c-9.197,6.984-9.732,11-9.732,11c-0.553,0.957-0.225,2.18,0.732,2.73c0.957,0.555,2.18,0.227,2.732-0.73
			c0,0,2.041-4.652,10.268-11c3.826-2.953,10-8,10-8L20.001,40z"/>
	</g>
</g>
<g id="Leaf">
	<g>
		<path style="fill:#FFCC66;" d="M34.001,20c0,0-3.838-20-8-20c-1.664,0-4,8.795-4,14s2,12,2,12c-7.043-7.043-17.52-10-22-10
			c-1.645,0-2,0.271-2,2c0,5.838,14,16,14,16c-2.41,0-10,2.75-10,4s18,4,18,4l32-32C45.624,10,34.001,20,34.001,20z"/>
	</g>
</g>
<g id="Leaf_1_">
	<g>
		<path style="fill:#E6B85C;" d="M44.001,30c0,0,10-11.623,10-20l-32,32c0,0,2.75,18,4,18s4-7.59,4-10c0,0,10.16,14,16,14
			c1.729,0,2-0.355,2-2c0-4.48-2.957-14.957-10-22c0,0,6.795,2,12,2s14-2.336,14-4C64.001,33.838,44.001,30,44.001,30z"/>
	</g>
</g>
<g>
</g>
<g>
</g>
<g>
</g>
<g>
</g>
<g>
</g>
<g>
</g>
<g>
</g>
<g>
</g>
<g>
</g>
<g>
</g>
<g>
</g>
<g>
</g>
<g>
</g>
<g>
</g>
<g>
</g>
</svg>
