<?xml version="1.0" encoding="iso-8859-1"?>
<!-- Generator: Adobe Illustrator 16.0.0, SVG Export Plug-In . SVG Version: 6.00 Build 0)  -->
<!DOCTYPE svg PUBLIC "-//W3C//DTD SVG 1.1//EN" "http://www.w3.org/Graphics/SVG/1.1/DTD/svg11.dtd">
<svg version="1.1" id="Layer_1" xmlns="http://www.w3.org/2000/svg" xmlns:xlink="http://www.w3.org/1999/xlink" x="0px" y="0px"
	 width="64.001px" height="64px" viewBox="0 0 64.001 64" style="enable-background:new 0 0 64.001 64;" xml:space="preserve">
<g id="Base_40_">
	<g>
		<path style="fill-rule:evenodd;clip-rule:evenodd;fill:#A67C52;" d="M18.001,42c0,0-3.334,4.455-8,8
			c-9.197,6.984-9.732,11-9.732,11c-0.553,0.957-0.225,2.18,0.732,2.73c0.957,0.555,2.18,0.227,2.732-0.73
			c0,0,2.041-4.652,10.268-11c3.826-2.953,8-6,8-6L18.001,42z"/>
	</g>
</g>
<g id="Leaf_22_">
	<g>
		<path style="fill:#E67A2E;" d="M64.001,40c-5.588-5.588-16-5.734-16-8c0-3.928,7.168-4.412,12-10c0,0-6-2.641-6-4
			c0-4.078,6-14,6-14l-40,40c2.068,2.068,0,4.496,0,8c0,5.547,7.086,12,14,12c0,0-2-2.285-2-6c0-2.572,1.447-4,4-4
			c7.428,0,16,4,16,4s-2-5.207-2-8C50.001,47.205,55.618,48.383,64.001,40z"/>
	</g>
</g>
<g id="Leaf_20_">
	<g>
		<path style="fill:#FF8833;" d="M46.001,10c-1.359,0-4-6-4-6c-5.588,4.832-6.074,12-10,12c-2.266,0-2.412-10.412-8-16
			c-8.383,8.381-7.207,14-10,14c-2.795,0-8-2-8-2s4,8.572,4,16c0,2.553-1.43,4-4,4c-3.715,0-6-2-6-2c0,6.914,6.453,14,12,14
			c3.504,0,5.932-2.068,8,0l40-40C60.001,4,50.079,10,46.001,10z"/>
	</g>
</g>
<g>
</g>
<g>
</g>
<g>
</g>
<g>
</g>
<g>
</g>
<g>
</g>
<g>
</g>
<g>
</g>
<g>
</g>
<g>
</g>
<g>
</g>
<g>
</g>
<g>
</g>
<g>
</g>
<g>
</g>
</svg>
