<?xml version="1.0" encoding="iso-8859-1"?>
<!-- Generator: Adobe Illustrator 16.0.0, SVG Export Plug-In . SVG Version: 6.00 Build 0)  -->
<!DOCTYPE svg PUBLIC "-//W3C//DTD SVG 1.1//EN" "http://www.w3.org/Graphics/SVG/1.1/DTD/svg11.dtd">
<svg version="1.1" id="Layer_1" xmlns="http://www.w3.org/2000/svg" xmlns:xlink="http://www.w3.org/1999/xlink" x="0px" y="0px"
	 width="64.001px" height="59.984px" viewBox="0 0 64.001 59.984" style="enable-background:new 0 0 64.001 59.984;"
	 xml:space="preserve">
<g id="Body_66_">
	<g>
		<path style="fill-rule:evenodd;clip-rule:evenodd;fill:#48A0DC;" d="M55.963,38.354C55.971,38.23,56,38.115,56,37.992
			c0-0.436-0.051-0.855-0.139-1.266l5.377-9.781c1.23-2.236,0.908-4.947-0.59-6.814l3.084-5.139l-0.027-0.016
			C63.875,14.682,64,14.357,64,13.992c0-1.105-0.895-2-2-2c-0.738,0-1.357,0.42-1.705,1.016l-0.027-0.016l-3.055,5.092
			c-2.26-0.381-4.607,0.688-5.82,2.893l-6.055,11.016H30.662l-4.801-8.736C25.949,22.848,26,22.426,26,21.992
			c0-0.123-0.029-0.238-0.037-0.361l7.232-12.586C34.854,6.16,33.869,2.475,31,0.809c-2.869-1.664-6.539-0.676-8.195,2.207
			L15.35,15.992H8c-2.813,0-5.154,1.941-5.805,4.551C1.582,20.328,0.842,20.141,0,20v3.984c0.842-0.141,1.582-0.328,2.195-0.543
			C2.848,26.051,5.188,27.992,8,27.992h7.338l4.801,8.734C20.051,37.137,20,37.557,20,37.992c0,0.123,0.029,0.238,0.037,0.361
			l-7.232,12.586c-1.658,2.883-0.674,6.57,2.195,8.236c2.869,1.664,6.539,0.676,8.195-2.207l7.455-12.977H45.35l7.455,12.977
			c1.656,2.883,5.326,3.871,8.195,2.207c2.869-1.666,3.854-5.354,2.195-8.236L55.963,38.354z"/>
	</g>
</g>
<g id="Interior_40_">
	<g>
		<path style="fill-rule:evenodd;clip-rule:evenodd;fill:#387BA8;" d="M31.238,33.039l-0.576-1.047H26
			c-2.881,0-5.279,2.029-5.861,4.736l0.406,0.738l-0.508,0.885c0.189,3.143,2.771,5.641,5.963,5.641h4.65l0.545-0.947
			c0.91-1.584,1-3.4,0.441-5.002C32.188,36.447,32.111,34.625,31.238,33.039z M55.455,37.467l0.406-0.738
			c-0.582-2.707-2.98-4.736-5.861-4.736h-4.662l-0.576,1.047c-0.873,1.586-0.949,3.408-0.398,5.004
			c-0.559,1.602-0.469,3.418,0.441,5.002l0.545,0.947H50c3.191,0,5.773-2.498,5.963-5.641L55.455,37.467z M25.861,23.256
			l-0.406-0.738l0.508-0.885c-0.189-3.145-2.771-5.641-5.963-5.641h-4.65l-0.545,0.947c-0.91,1.584-1,3.4-0.441,5
			c-0.551,1.598-0.475,3.42,0.398,5.006l0.576,1.047H20C22.879,27.992,25.279,25.961,25.861,23.256z"/>
	</g>
</g>
<g>
</g>
<g>
</g>
<g>
</g>
<g>
</g>
<g>
</g>
<g>
</g>
<g>
</g>
<g>
</g>
<g>
</g>
<g>
</g>
<g>
</g>
<g>
</g>
<g>
</g>
<g>
</g>
<g>
</g>
</svg>
