<?xml version="1.0" encoding="iso-8859-1"?>
<!-- Generator: Adobe Illustrator 16.0.0, SVG Export Plug-In . SVG Version: 6.00 Build 0)  -->
<!DOCTYPE svg PUBLIC "-//W3C//DTD SVG 1.1//EN" "http://www.w3.org/Graphics/SVG/1.1/DTD/svg11.dtd">
<svg version="1.1" id="Layer_1" xmlns="http://www.w3.org/2000/svg" xmlns:xlink="http://www.w3.org/1999/xlink" x="0px" y="0px"
	 width="64px" height="60px" viewBox="0 0 64 60" style="enable-background:new 0 0 64 60;" xml:space="preserve">
<g id="Legs_3_">
	<g>
		<path style="fill-rule:evenodd;clip-rule:evenodd;fill:#666666;" d="M18,46h-4c-1.105,0-2,0.895-2,2v10c0,1.104,0.895,2,2,2h4
			c1.105,0,2-0.896,2-2V48C20,46.895,19.105,46,18,46z M50,46h-4c-1.105,0-2,0.895-2,2v10c0,1.104,0.895,2,2,2h4
			c1.105,0,2-0.896,2-2V48C52,46.895,51.105,46,50,46z"/>
	</g>
</g>
<g id="Barrel">
	<g>
		<path style="fill:#BF8E5E;" d="M32,4C14,4,4,10,4,10v40c0,0,10,6,28,6s28-6,28-6V10C60,10,50,4,32,4z"/>
	</g>
</g>
<g id="Bung">
	<g>
		<path style="fill:#A67B51;" d="M32,0c-1.105,0-2,0.895-2,2v4c0,1.104,0.895,2,2,2s2-0.896,2-2V2C34,0.895,33.105,0,32,0z"/>
	</g>
</g>
<g id="Lines_2_">
	<g>
		<path style="fill-rule:evenodd;clip-rule:evenodd;fill:#A67B51;" d="M4,38v4c0,0,10,4,28,4s28-4,28-4v-4c0,0-10,4-28,4S4,38,4,38z
			 M32,14c-18,0-28,4-28,4v4c0,0,10-4,28-4s28,4,28,4v-4C60,18,50,14,32,14z M4,32h56v-4H4V32z"/>
	</g>
</g>
<g id="Hoops">
	<g>
		<path style="fill-rule:evenodd;clip-rule:evenodd;fill:#666666;" d="M0,12v36c0,1.104,0.895,2,2,2h2V10H2C0.895,10,0,10.895,0,12z
			 M62,10h-2v40h2c1.105,0,2-0.896,2-2V12C64,10.895,63.105,10,62,10z M46,54.693c1.443-0.281,2.771-0.588,4-0.91V6.217
			c-1.229-0.322-2.557-0.631-4-0.912V54.693z M14,53.783c1.229,0.322,2.557,0.629,4,0.91V5.305c-1.443,0.281-2.771,0.59-4,0.912
			V53.783z"/>
	</g>
</g>
<g>
</g>
<g>
</g>
<g>
</g>
<g>
</g>
<g>
</g>
<g>
</g>
<g>
</g>
<g>
</g>
<g>
</g>
<g>
</g>
<g>
</g>
<g>
</g>
<g>
</g>
<g>
</g>
<g>
</g>
</svg>
