<?xml version="1.0" encoding="iso-8859-1"?>
<!-- Generator: Adobe Illustrator 16.0.0, SVG Export Plug-In . SVG Version: 6.00 Build 0)  -->
<!DOCTYPE svg PUBLIC "-//W3C//DTD SVG 1.1//EN" "http://www.w3.org/Graphics/SVG/1.1/DTD/svg11.dtd">
<svg version="1.1" id="Layer_1" xmlns="http://www.w3.org/2000/svg" xmlns:xlink="http://www.w3.org/1999/xlink" x="0px" y="0px"
	 width="64px" height="64px" viewBox="0 0 64 64" style="enable-background:new 0 0 64 64;" xml:space="preserve">
<g id="Body_17_">
	<g>
		<path style="fill-rule:evenodd;clip-rule:evenodd;fill:#4D4D4D;" d="M54.007,31.997c-3.97,3.969-8.001,6-10.001,6s-4,0-6-2
			L28.003,25.995c-2-1.999-2-3.999-2-5.999s2.032-6.034,6.001-10.001C22.013,0.004,12.638,0,10.487,0
			C9.815,0,9.208,0.246,8.767,0.645c-0.951,0.859-0.951,2.252,0,3.112c1.762,1.592,3.235,5.594,3.235,8.239
			c0,2.643-1.207,6.759-3.155,8.401c-1.049,0.885-1.049,2.322,0,3.207c1.948,1.643,3.155,5.749,3.155,8.394
			c0,2.443-1.358,6.161-2.892,8.001H2c-1.105,0-2,0.895-2,2c0,1.104,0.895,2,2,2h8.001c0,5.522,4.478,10.001,10.001,10.001V62
			c0,1.104,0.895,2,2,2c1.105,0,2-0.896,2-2v-7.113c1.842-1.532,5.559-2.888,8.001-2.888c2.643,0,6.751,1.207,8.392,3.152
			c0.887,1.051,2.323,1.051,3.209,0c1.643-1.947,5.758-3.152,8.401-3.152s6.646,1.473,8.239,3.234c0.859,0.949,2.252,0.949,3.112,0
			c0.396-0.441,0.645-1.049,0.643-1.721C64,51.362,63.998,41.988,54.007,31.997z"/>
	</g>
</g>
<g id="Head_18_">
	<g>
		<path style="fill:#333333;" d="M44.005,23.996c-2,0-4,1.999-4,1.999h-2v-1.999c0,0,2-2,2-4s0-2-2-2c-2,0-6.001,2-8.001,4
			c-2,2-4.001,5.897-4.001,10.001c0,2.061,2,4,2,4s1.938,2,4,2c4.104,0,8.001-2,10.001-4c2-2,4.001-6,4.001-8.002
			C46.006,23.996,46.006,23.996,44.005,23.996z"/>
	</g>
</g>
<g>
</g>
<g>
</g>
<g>
</g>
<g>
</g>
<g>
</g>
<g>
</g>
<g>
</g>
<g>
</g>
<g>
</g>
<g>
</g>
<g>
</g>
<g>
</g>
<g>
</g>
<g>
</g>
<g>
</g>
</svg>
