<?xml version="1.0" encoding="iso-8859-1"?>
<!-- Generator: Adobe Illustrator 16.0.0, SVG Export Plug-In . SVG Version: 6.00 Build 0)  -->
<!DOCTYPE svg PUBLIC "-//W3C//DTD SVG 1.1//EN" "http://www.w3.org/Graphics/SVG/1.1/DTD/svg11.dtd">
<svg version="1.1" id="Layer_1" xmlns="http://www.w3.org/2000/svg" xmlns:xlink="http://www.w3.org/1999/xlink" x="0px" y="0px"
	 width="44px" height="64px" viewBox="0 0 44 64" style="enable-background:new 0 0 44 64;" xml:space="preserve">
<g id="Ball_16_">
	<g>
		<circle style="fill:#CCA352;" cx="22" cy="58" r="6"/>
	</g>
</g>
<g id="Bell_3_">
	<g>
		<path style="fill-rule:evenodd;clip-rule:evenodd;fill:#FFCC66;" d="M40,46c0,0-2-0.041-2-2c0-18-10-24-14-24c0-5.283,4-14,4-14
			c0-3.314-2.688-6-6-6c-3.314,0-6,2.686-6,6c0,0,4,8.717,4,14c-4,0-14,6-14,24c0,1.959-2,2-2,2c-2.209,0-4,1.789-4,4v4
			c0,2.209,1.791,4,4,4h36c2.209,0,4-1.791,4-4v-4C44,47.789,42.209,46,40,46z"/>
	</g>
</g>
<g id="Bow_14_">
	<g>
		<path style="fill-rule:evenodd;clip-rule:evenodd;fill:#ED7161;" d="M4,12c0,2,0,8.125,0,12c0,3.873,2,4,4,4c4,0,12-8,12-8v-4
			c0,0-8-8-12-8C6,8,4,8,4,12z M36,8c-4,0-12,8-12,8v4c0,0,8,8,12,8c2,0,4-0.127,4-4c0-3.875,0-10,0-12C40,8,38,8,36,8z"/>
	</g>
</g>
<g id="Knot_16_">
	<g>
		<path style="fill:#BA594C;" d="M24,14h-4c-1.105,0-2,0.895-2,2v4c0,1.104,0.895,2,2,2h4c1.104,0,2-0.896,2-2v-4
			C26,14.895,25.104,14,24,14z"/>
	</g>
</g>
<g>
</g>
<g>
</g>
<g>
</g>
<g>
</g>
<g>
</g>
<g>
</g>
<g>
</g>
<g>
</g>
<g>
</g>
<g>
</g>
<g>
</g>
<g>
</g>
<g>
</g>
<g>
</g>
<g>
</g>
</svg>
