<?xml version="1.0" encoding="iso-8859-1"?>
<!-- Generator: Adobe Illustrator 16.0.0, SVG Export Plug-In . SVG Version: 6.00 Build 0)  -->
<!DOCTYPE svg PUBLIC "-//W3C//DTD SVG 1.1//EN" "http://www.w3.org/Graphics/SVG/1.1/DTD/svg11.dtd">
<svg version="1.1" id="Layer_1" xmlns="http://www.w3.org/2000/svg" xmlns:xlink="http://www.w3.org/1999/xlink" x="0px" y="0px"
	 width="64px" height="56px" viewBox="0 0 64 56" style="enable-background:new 0 0 64 56;" xml:space="preserve">
<g id="Plate_12_">
	<g>
		<path style="fill:#CCCCCC;" d="M0,48c0,4.418,3.582,8,8,8h48c4.418,0,8-3.582,8-8H0z"/>
	</g>
</g>
<g id="Cake_7_">
	<g>
		<path style="fill:#A67C52;" d="M54,16H10c-3.313,0-6,2.686-6,6v26h56V22C60,18.686,57.313,16,54,16z"/>
	</g>
</g>
<g id="Decoration_58_">
	<g>
		<path style="fill-rule:evenodd;clip-rule:evenodd;fill:#FFFFFF;" d="M57.415,24.588C57.054,24.225,56.553,24,56,24
			s-1.054,0.225-1.415,0.588L52,27.172l-2.585-2.584C49.054,24.225,48.553,24,48,24s-1.054,0.225-1.415,0.588L44,27.172
			l-2.585-2.584C41.054,24.225,40.553,24,40,24s-1.054,0.225-1.415,0.588L36,27.172l-2.585-2.584C33.054,24.225,32.553,24,32,24
			s-1.054,0.225-1.415,0.588L28,27.172l-2.585-2.584C25.054,24.225,24.553,24,24,24s-1.054,0.225-1.415,0.588L20,27.172
			l-2.585-2.584C17.054,24.225,16.553,24,16,24s-1.054,0.225-1.415,0.588L12,27.172l-2.585-2.584C9.054,24.225,8.553,24,8,24
			s-1.054,0.225-1.415,0.588L4,27.172V28v2v2c0.552,0,1.052-0.225,1.414-0.586L8,28.828l2.586,2.586C10.948,31.775,11.448,32,12,32
			s1.052-0.225,1.414-0.586L16,28.828l2.586,2.586C18.948,31.775,19.448,32,20,32s1.052-0.225,1.414-0.586L24,28.828l2.586,2.586
			C26.948,31.775,27.448,32,28,32s1.052-0.225,1.414-0.586L32,28.828l2.586,2.586C34.948,31.775,35.448,32,36,32
			s1.052-0.225,1.414-0.586L40,28.828l2.586,2.586C42.948,31.775,43.448,32,44,32s1.052-0.225,1.414-0.586L48,28.828l2.586,2.586
			C50.948,31.775,51.448,32,52,32s1.052-0.225,1.414-0.586L56,28.828l2.586,2.586C58.948,31.775,59.448,32,60,32v-2v-2v-0.828
			L57.415,24.588z M4,40h56v-4H4V40z"/>
	</g>
</g>
<g id="Candles_2_">
	<g>
		<path style="fill-rule:evenodd;clip-rule:evenodd;fill:#F06EAA;" d="M19.999,8c-1.104,0-2,0.895-2,2v5.998H22V10
			C22,8.895,21.104,8,19.999,8z M31.999,8c-1.104,0-2,0.895-2,2v5.998h4V10C33.999,8.895,33.104,8,31.999,8z M43.999,8
			c-1.104,0-2,0.895-2,2v5.998h4V10C45.999,8.895,45.104,8,43.999,8z"/>
	</g>
</g>
<g id="Fire_22_">
	<g>
		<path style="fill-rule:evenodd;clip-rule:evenodd;fill:#FFCC66;" d="M18,4.199C18,5.193,18.896,6,20,6s2-0.807,2-1.801
			S21.834,1.65,20,0C20,3.02,18,2.475,18,4.199z M30,4.199C30,5.193,30.896,6,32,6s2-0.807,2-1.801S33.834,1.65,32,0
			C32,3.02,30,2.475,30,4.199z M44,0c0,3.02-2,2.475-2,4.199C42,5.193,42.896,6,44,6s2-0.807,2-1.801S45.834,1.65,44,0z"/>
	</g>
</g>
<g>
</g>
<g>
</g>
<g>
</g>
<g>
</g>
<g>
</g>
<g>
</g>
<g>
</g>
<g>
</g>
<g>
</g>
<g>
</g>
<g>
</g>
<g>
</g>
<g>
</g>
<g>
</g>
<g>
</g>
</svg>
