<?xml version="1.0" encoding="iso-8859-1"?>
<!-- Generator: Adobe Illustrator 16.0.0, SVG Export Plug-In . SVG Version: 6.00 Build 0)  -->
<!DOCTYPE svg PUBLIC "-//W3C//DTD SVG 1.1//EN" "http://www.w3.org/Graphics/SVG/1.1/DTD/svg11.dtd">
<svg version="1.1" id="Layer_1" xmlns="http://www.w3.org/2000/svg" xmlns:xlink="http://www.w3.org/1999/xlink" x="0px" y="0px"
	 width="52px" height="64px" viewBox="0 0 52 64" style="enable-background:new 0 0 52 64;" xml:space="preserve">
<g id="Fire_6_">
	<g>
		<path style="fill:#FFCC66;" d="M26,0c0,10.063-6,8.248-6,14c0,3.313,2.686,6,6,6s6-2.688,6-6C32,10.686,31.502,5.5,26,0z"/>
	</g>
</g>
<g id="Wick_4_">
	<g>
		<path style="fill:#666666;" d="M26,16c-1.105,0-2,0.895-2,2v8c0,1.104,0.895,2,2,2s2-0.896,2-2v-8C28,16.895,27.105,16,26,16z"/>
	</g>
</g>
<g id="Candle_4_">
	<g>
		<path style="fill:#ED7161;" d="M36,24c-14.246,0-17.758-4-22-4c-1.564,0-2,2.061-2,4c0,2.607,2,6.984,2,10v30h24V36
			c0-2.701,2-5.393,2-8C40,25.686,38.627,24,36,24z"/>
	</g>
</g>
<g id="Wax_2_">
	<g>
		<path style="fill-rule:evenodd;clip-rule:evenodd;fill:#BA594C;" d="M12,52c0,1.104,0.895,2,2,2c1.104,0,2-0.896,2-2
			c0-1.105-2-8-2-10C14,44,12,50.895,12,52z M38,36c0,2-2,8.895-2,10c0,1.104,0.895,2,2,2s2-0.896,2-2C40,44.895,38,38,38,36z
			 M20,36c0,1.104,0.895,2,2,2s2-0.896,2-2c0-1.105-2-8-2-10C22,28,20,34.895,20,36z"/>
	</g>
</g>
<g id="Plate_3_">
	<g>
		<path style="fill:#666666;" d="M50,58H2c-1.105,0-2,0.895-2,2c0,1.104,8.895,4,10,4h32c1.105,0,10-2.896,10-4
			C52,58.895,51.104,58,50,58z"/>
	</g>
</g>
<g>
</g>
<g>
</g>
<g>
</g>
<g>
</g>
<g>
</g>
<g>
</g>
<g>
</g>
<g>
</g>
<g>
</g>
<g>
</g>
<g>
</g>
<g>
</g>
<g>
</g>
<g>
</g>
<g>
</g>
</svg>
