<?xml version="1.0" encoding="iso-8859-1"?>
<!-- Generator: Adobe Illustrator 16.0.0, SVG Export Plug-In . SVG Version: 6.00 Build 0)  -->
<!DOCTYPE svg PUBLIC "-//W3C//DTD SVG 1.1//EN" "http://www.w3.org/Graphics/SVG/1.1/DTD/svg11.dtd">
<svg version="1.1" id="Layer_1" xmlns="http://www.w3.org/2000/svg" xmlns:xlink="http://www.w3.org/1999/xlink" x="0px" y="0px"
	 width="64px" height="64px" viewBox="0 0 64 64" style="enable-background:new 0 0 64 64;" xml:space="preserve">
<g id="Ears">
	<g>
		<path style="fill-rule:evenodd;clip-rule:evenodd;fill:#CCCCCC;" d="M60,12c0-0.75,0-0.979,0-2c0-3.314-2.688-6-6-6
			c-1.021,0-1.375,0-2,0c0-2.209-1.791-4-4-4s-4,1.791-4,4v8c0,4.418,3.582,8,8,8h8c2.209,0,4-1.791,4-4S62.209,12,60,12z M12,44H4
			c-2.209,0-4,1.791-4,4s1.791,4,4,4c0,0.75,0,0.977,0,2c0,3.313,2.686,6,6,6c1.021,0,1.375,0,2,0c0,2.209,1.791,4,4,4s4-1.791,4-4
			v-8C20,47.582,16.418,44,12,44z"/>
	</g>
</g>
<g id="Candy">
	<g>
		<circle style="fill:#ED7161;" cx="32" cy="32" r="24"/>
	</g>
</g>
<g id="Stripes_5_">
	<g>
		<path style="fill:#E6E6E6;" d="M11.873,45.049c1.674,2.576,3.828,4.807,6.336,6.574C19.23,43.355,25.33,36.203,32,32
			C22.994,32,15.281,37.295,11.873,45.049z M8.529,27C8.188,28.613,8,30.283,8,32c0,1.408,0.145,2.779,0.379,4.119
			C14.945,30.998,24.313,30.256,32,32C25.629,25.629,16.424,23.92,8.529,27z M45.047,52.125c2.578-1.674,4.809-3.826,6.576-6.336
			C43.355,44.77,36.203,38.67,32,32C32,41.006,37.295,48.719,45.047,52.125z M27,55.471C28.613,55.813,30.283,56,32,56
			c1.408,0,2.779-0.146,4.121-0.379C31,49.053,30.256,39.686,32,32C25.629,38.371,23.92,47.576,27,55.471z M18.951,11.873
			c-2.576,1.674-4.809,3.826-6.574,6.336C20.645,19.23,27.797,25.33,32,32C32,22.994,26.703,15.281,18.951,11.873z M55.471,37
			C55.813,35.387,56,33.715,56,32c0-1.408-0.146-2.779-0.379-4.121C49.055,33,39.686,33.744,32,32
			C38.371,38.371,47.576,40.078,55.471,37z M52.125,18.951c-1.674-2.576-3.826-4.809-6.336-6.576C44.77,20.645,38.67,27.797,32,32
			C41.006,32,48.719,26.703,52.125,18.951z M37,8.529C35.387,8.188,33.715,8,32,8c-1.408,0-2.779,0.145-4.121,0.377
			C33,14.945,33.744,24.313,32,32C38.371,25.629,40.08,16.424,37,8.529z"/>
	</g>
</g>
<g>
</g>
<g>
</g>
<g>
</g>
<g>
</g>
<g>
</g>
<g>
</g>
<g>
</g>
<g>
</g>
<g>
</g>
<g>
</g>
<g>
</g>
<g>
</g>
<g>
</g>
<g>
</g>
<g>
</g>
</svg>
