<?xml version="1.0" encoding="iso-8859-1"?>
<!-- Generator: Adobe Illustrator 16.0.0, SVG Export Plug-In . SVG Version: 6.00 Build 0)  -->
<!DOCTYPE svg PUBLIC "-//W3C//DTD SVG 1.1//EN" "http://www.w3.org/Graphics/SVG/1.1/DTD/svg11.dtd">
<svg version="1.1" id="Layer_1" xmlns="http://www.w3.org/2000/svg" xmlns:xlink="http://www.w3.org/1999/xlink" x="0px" y="0px"
	 width="52px" height="64px" viewBox="0 0 52 64" style="enable-background:new 0 0 52 64;" xml:space="preserve">
<g id="Statue">
	<g>
		<path style="fill:#999999;" d="M26,0c-1.105,0-2,0.895-2,2v10c0,1.105,0.895,2,2,2s2-0.895,2-2V2C28,0.895,27.105,0,26,0z"/>
	</g>
</g>
<g id="Building_1_">
	<g>
		<path style="fill-rule:evenodd;clip-rule:evenodd;fill:#CCCCCC;" d="M50,60h-2V48c1.105,0,2-0.896,2-2c0-1.105-0.895-2-2-2h-2v-8
			c0-1.105-2.895-4-4-4c0-7.452-5.104-15.115-12-17.34V12c0-2.209-1.791-4-4-4s-4,1.791-4,4v2.66C15.104,16.885,10,24.548,10,32
			c-1.105,0-4,2.895-4,4v8H4c-1.105,0-2,0.895-2,2c0,1.104,0.895,2,2,2v12H2c-1.105,0-2,0.895-2,2c0,1.104,0.895,2,2,2h48
			c1.104,0,2-0.896,2-2C52,60.895,51.104,60,50,60z"/>
	</g>
</g>
<g id="Windows_1_">
	<g>
		<path style="fill-rule:evenodd;clip-rule:evenodd;fill:#FFFFFF;" d="M10,48c-1.105,0-2,0.895-2,2v8c0,1.104,0.895,2,2,2
			s2-0.896,2-2v-8C12,48.895,11.105,48,10,48z M18,48c-1.105,0-2,0.895-2,2v8c0,1.104,0.895,2,2,2s2-0.896,2-2v-8
			C20,48.895,19.105,48,18,48z M34,48c-1.105,0-2,0.895-2,2v8c0,1.104,0.895,2,2,2s2-0.896,2-2v-8C36,48.895,35.105,48,34,48z
			 M42,48c-1.105,0-2,0.895-2,2v8c0,1.104,0.895,2,2,2s2-0.896,2-2v-8C44,48.895,43.105,48,42,48z M16,38c0-1.105-0.896-2-2-2
			c-1.105,0-2,0.895-2,2v4c0,1.104,0.895,2,2,2c1.104,0,2-0.896,2-2V38z M24,38c0-1.105-0.895-2-2-2s-2,0.895-2,2v4
			c0,1.104,0.895,2,2,2s2-0.896,2-2V38z M32,38c0-1.105-0.895-2-2-2s-2,0.895-2,2v4c0,1.104,0.895,2,2,2s2-0.896,2-2V38z M40,38
			c0-1.105-0.895-2-2-2s-2,0.895-2,2v4c0,1.104,0.895,2,2,2s2-0.896,2-2V38z M26,48c-1.105,0-2,0.895-2,2v8c0,1.104,0.895,2,2,2
			s2-0.896,2-2v-8C28,48.895,27.105,48,26,48z"/>
	</g>
</g>
<g>
</g>
<g>
</g>
<g>
</g>
<g>
</g>
<g>
</g>
<g>
</g>
<g>
</g>
<g>
</g>
<g>
</g>
<g>
</g>
<g>
</g>
<g>
</g>
<g>
</g>
<g>
</g>
<g>
</g>
</svg>
