<?xml version="1.0" encoding="iso-8859-1"?>
<!-- Generator: Adobe Illustrator 16.0.0, SVG Export Plug-In . SVG Version: 6.00 Build 0)  -->
<!DOCTYPE svg PUBLIC "-//W3C//DTD SVG 1.1//EN" "http://www.w3.org/Graphics/SVG/1.1/DTD/svg11.dtd">
<svg version="1.1" id="Layer_1" xmlns="http://www.w3.org/2000/svg" xmlns:xlink="http://www.w3.org/1999/xlink" x="0px" y="0px"
	 width="52px" height="64px" viewBox="0 0 52 64" style="enable-background:new 0 0 52 64;" xml:space="preserve">
<g id="Cross_29_">
	<g>
		<path style="fill-rule:evenodd;clip-rule:evenodd;fill:#CCCCCC;" d="M51.281,16.465c-0.455-0.381-1.059-0.543-1.639-0.434
			l-6.947,1.264c-1.793-4.459-5.309-8.039-9.735-9.896l1.001-5.006c0.117-0.588-0.035-1.197-0.414-1.66C33.166,0.268,32.6,0,32,0H20
			c-0.6,0-1.167,0.268-1.547,0.732c-0.38,0.463-0.532,1.072-0.414,1.66l1.001,5.004c-4.427,1.859-7.942,5.438-9.735,9.898
			l-6.947-1.264c-0.582-0.104-1.183,0.053-1.639,0.434C0.264,16.844,0,17.406,0,18v12c0,0.592,0.264,1.154,0.719,1.535
			c0.455,0.379,1.057,0.533,1.639,0.432l6.946-1.264c1.961,4.879,5.991,8.693,11.01,10.365l-2.301,20.711
			c-0.063,0.564,0.117,1.131,0.497,1.555C18.889,63.758,19.431,64,20,64h12c0.568,0,1.111-0.242,1.49-0.666s0.561-0.99,0.498-1.555
			l-2.301-20.711c5.018-1.672,9.048-5.486,11.009-10.365l6.946,1.264c0.584,0.105,1.186-0.051,1.639-0.432
			C51.736,31.154,52,30.592,52,30V18C52,17.406,51.736,16.844,51.281,16.465z M20,34c-2.209,0-4-1.791-4-4s1.791-4,4-4s4,1.791,4,4
			S22.209,34,20,34z M20,22c-2.209,0-4-1.791-4-4s1.791-4,4-4s4,1.791,4,4S22.209,22,20,22z M32,34c-2.209,0-4-1.791-4-4
			s1.791-4,4-4s4,1.791,4,4S34.209,34,32,34z M32,22c-2.209,0-4-1.791-4-4s1.791-4,4-4s4,1.791,4,4S34.209,22,32,22z"/>
	</g>
</g>
<g id="Center_10_">
	<g>
		<circle style="fill:#999999;" cx="26" cy="24" r="4"/>
	</g>
</g>
<g>
</g>
<g>
</g>
<g>
</g>
<g>
</g>
<g>
</g>
<g>
</g>
<g>
</g>
<g>
</g>
<g>
</g>
<g>
</g>
<g>
</g>
<g>
</g>
<g>
</g>
<g>
</g>
<g>
</g>
</svg>
