<?xml version="1.0" encoding="iso-8859-1"?>
<!-- Generator: Adobe Illustrator 16.0.0, SVG Export Plug-In . SVG Version: 6.00 Build 0)  -->
<!DOCTYPE svg PUBLIC "-//W3C//DTD SVG 1.1//EN" "http://www.w3.org/Graphics/SVG/1.1/DTD/svg11.dtd">
<svg version="1.1" id="Layer_1" xmlns="http://www.w3.org/2000/svg" xmlns:xlink="http://www.w3.org/1999/xlink" x="0px" y="0px"
	 width="60px" height="64.002px" viewBox="0 0 60 64.002" style="enable-background:new 0 0 60 64.002;" xml:space="preserve">
<g id="Champagne">
	<g>
		<path style="fill-rule:evenodd;clip-rule:evenodd;fill:#FFCC66;" d="M33.998,6c-1.105,0-2,0.895-2,2c0,1.104,0.895,2,2,2
			c1.104,0,1.998-0.896,1.998-2C35.996,6.895,35.102,6,33.998,6z M53.184,34h-15.93c0.359,1.965,0.637,3.467,0.742,4
			c0.811,4.123,3.012,8,7.994,8c3.852,0,7.996-3.063,7.996-8C53.986,37.275,53.666,35.816,53.184,34z M6.014,22
			c0,4.938,4.145,8,7.996,8c4.982,0,7.184-3.877,7.994-8c0.105-0.533,0.383-2.035,0.742-4H6.816C6.334,19.816,6.014,21.277,6.014,22
			z M42.992,6c1.656,0,2.998-1.344,2.998-3s-1.342-3-2.998-3c-1.654,0-2.998,1.344-2.998,3S41.338,6,42.992,6z M40.994,20
			c1.654,0,2.998-1.344,2.998-3s-1.344-3-2.998-3c-1.656,0-2.998,1.344-2.998,3S39.338,20,40.994,20z"/>
	</g>
</g>
<g id="Glass">
	<g>
		<path style="fill-rule:evenodd;clip-rule:evenodd;fill:#48A0DC;" d="M2.016,22c0,4.895,2.857,9.002,6.949,10.887L8.15,35.916
			c-0.586,2.186-2.275,5.754-5.564,4.877C1.49,40.5,0.365,41.148,0.07,42.24c-0.293,1.094,0.357,2.217,1.451,2.51l11.91,3.182
			c1.096,0.293,2.221-0.355,2.516-1.449c0.293-1.092-0.357-2.215-1.453-2.508c-3.287-0.879-2.963-4.813-2.375-6.998l0.814-3.029
			C13.289,33.979,13.646,34,14.01,34c4.285,0,10.908-2.467,11.992-12c0.445-3.91,2-18,2-18l-17.99-4C10.012,0,2.016,15.352,2.016,22
			z M24.693,7.264C23.631,13.141,22.27,20.646,22.004,22c-0.811,4.123-3.012,8-7.994,8c-3.852,0-7.996-3.063-7.996-8
			c0-2.223,2.83-11,5.123-17.75L24.693,7.264z M59.93,58.242c-0.295-1.094-1.42-1.742-2.516-1.449
			c-3.289,0.877-4.979-2.691-5.564-4.877l-0.814-3.029c4.092-1.885,6.949-5.992,6.949-10.887c0-6.648-7.996-22-7.996-22l-17.99,4
			c0,0,1.555,14.09,2,18c1.084,9.533,7.707,12,11.992,12c0.363,0,0.721-0.021,1.076-0.053l0.814,3.029
			c0.586,2.186,0.912,6.119-2.377,6.998c-1.094,0.293-1.744,1.416-1.451,2.51c0.295,1.092,1.42,1.74,2.516,1.447l11.91-3.182
			C59.572,60.457,60.223,59.334,59.93,58.242z M45.99,46c-4.982,0-7.184-3.877-7.994-8c-0.268-1.354-1.627-8.859-2.689-14.736
			l13.555-3.014C51.156,27,53.986,35.777,53.986,38C53.986,42.938,49.842,46,45.99,46z"/>
	</g>
</g>
<g>
</g>
<g>
</g>
<g>
</g>
<g>
</g>
<g>
</g>
<g>
</g>
<g>
</g>
<g>
</g>
<g>
</g>
<g>
</g>
<g>
</g>
<g>
</g>
<g>
</g>
<g>
</g>
<g>
</g>
</svg>
