<?xml version="1.0" encoding="iso-8859-1"?>
<!-- Generator: Adobe Illustrator 16.0.0, SVG Export Plug-In . SVG Version: 6.00 Build 0)  -->
<!DOCTYPE svg PUBLIC "-//W3C//DTD SVG 1.1//EN" "http://www.w3.org/Graphics/SVG/1.1/DTD/svg11.dtd">
<svg version="1.1" id="Layer_1" xmlns="http://www.w3.org/2000/svg" xmlns:xlink="http://www.w3.org/1999/xlink" x="0px" y="0px"
	 width="64px" height="64px" viewBox="0 0 64 64" style="enable-background:new 0 0 64 64;" xml:space="preserve">
<g id="Bottle_14_">
	<g>
		<path style="fill:#88C057;" d="M30,20c0,0-8.535,4.533-12,8L4,42c-2,2-4,4-4,6s2,4,4,6l6,6c2,2,4,4,6,4s4-2,6-4l16-16
			c3.109-3.109,6-10,6-10L30,20z"/>
	</g>
</g>
<g id="Bottle_12_">
	<g>
		<path style="fill:#666666;" d="M58,0c-2,0-6,4-6,6c-4.533,4.533-10.684,8.023-18,12l12,12c3.729-7.215,7.109-13.109,12-18
			c2,0,6-4,6-6S60,0,58,0z"/>
	</g>
</g>
<g id="Label_6_">
	<g>
		<path style="fill:#E6E6E6;" d="M22,32c-2,0-10,8-10,10s8,10,10,10s10-8,10-10S24,32,22,32z"/>
	</g>
</g>
<g id="Ring_43_">
	<g>
		<path style="fill-rule:evenodd;clip-rule:evenodd;fill:#FFCC66;" d="M46,30l-3.309-3.309C43.463,25.723,44,24.729,44,24
			c0-2-2-4-4-4c-0.729,0-1.723,0.537-2.691,1.309L34,18l-4,2l4.51,4.51C34.207,25.055,34,25.576,34,26c0,2,2,4,4,4
			c0.424,0,0.945-0.207,1.49-0.51L44,34L46,30z"/>
	</g>
</g>
<g>
</g>
<g>
</g>
<g>
</g>
<g>
</g>
<g>
</g>
<g>
</g>
<g>
</g>
<g>
</g>
<g>
</g>
<g>
</g>
<g>
</g>
<g>
</g>
<g>
</g>
<g>
</g>
<g>
</g>
</svg>
