<?xml version="1.0" encoding="iso-8859-1"?>
<!-- Generator: Adobe Illustrator 16.0.0, SVG Export Plug-In . SVG Version: 6.00 Build 0)  -->
<!DOCTYPE svg PUBLIC "-//W3C//DTD SVG 1.1//EN" "http://www.w3.org/Graphics/SVG/1.1/DTD/svg11.dtd">
<svg version="1.1" id="Layer_1" xmlns="http://www.w3.org/2000/svg" xmlns:xlink="http://www.w3.org/1999/xlink" x="0px" y="0px"
	 width="60px" height="64px" viewBox="0 0 60 64" style="enable-background:new 0 0 60 64;" xml:space="preserve">
<g id="Comb">
	<g>
		<path style="fill-rule:evenodd;clip-rule:evenodd;fill:#ED7161;" d="M18,4c0,0,0-2-2-2c0,0,0-2-2-2C8.066,0,6,6,6,6l12,2
			c0-2,2-2,2-2S20,4,18,4z M4,12c0,0,2,0.316,2,2c0,0.387,0,1.467,0,2c0,1.254,1.301,2,2,2c2,0,2-2,2-2v-6H6L4,12z"/>
	</g>
</g>
<g id="Legs_1_">
	<g>
		<path style="fill-rule:evenodd;clip-rule:evenodd;fill:#FFCC66;" d="M34,60h-2v-6c0-1.105-0.896-2-2-2c-1.105,0-2,0.895-2,2v6h-4
			c-1.105,0-2,0.895-2,2c0,1.104,0.895,2,2,2h10c1.105,0,2-0.896,2-2C36,60.895,35.105,60,34,60z"/>
	</g>
</g>
<g id="Beak_1_">
	<g>
		<polygon style="fill:#FFCC66;" points="4,8 0,12 10,12 10,8 		"/>
	</g>
</g>
<g id="Body_4_">
	<g>
		<path style="fill:#CCCCCC;" d="M50,14c-2.199,0-4.676,12-14,12c-6.393,0-10.846-6.609-14-12S17.309,4,10,4C6.691,4,4,8,4,8
			s6,4.205,6,8c0,6.359-4,9.844-4,16c0,9.209,5.811,12.889,8,14c11.123,5.648,12.504,10,14,10c0.9,0,2.918,0,4,0
			c2.207,0,6.232-4.67,10-8c3.523-3.115,18-4.094,18-18C60,21.439,52.203,14,50,14z"/>
	</g>
</g>
<g id="Sickles">
	<g>
		<path style="fill:#999999;" d="M50,14c-1.844,0-3.898,8.406-10,11.135c0,1.326,0,2.387,0,2.865c0,1.42,1.996,4,4,4
			c2.762,0,6,1.137,6,4c0,2.609-2,5.158-2,8c0,0.137-0.008,0.57-0.018,1.141C53.363,42.902,60,39.42,60,30
			C60,21.439,52.203,14,50,14z"/>
	</g>
</g>
<g id="Wing_1_">
	<g>
		<path style="fill:#B3B3B3;" d="M44,26l2-4c0,0-6.277,4-10,4c-4.121,0-7.459-6-14-6c-5.963,0-10,5.488-10,12
			c0,7.592,8.613,12,14,12c22.035,0,22-20,22-20L44,26z"/>
	</g>
</g>
<g>
</g>
<g>
</g>
<g>
</g>
<g>
</g>
<g>
</g>
<g>
</g>
<g>
</g>
<g>
</g>
<g>
</g>
<g>
</g>
<g>
</g>
<g>
</g>
<g>
</g>
<g>
</g>
<g>
</g>
</svg>
