<?xml version="1.0" encoding="iso-8859-1"?>
<!-- Generator: Adobe Illustrator 16.0.0, SVG Export Plug-In . SVG Version: 6.00 Build 0)  -->
<!DOCTYPE svg PUBLIC "-//W3C//DTD SVG 1.1//EN" "http://www.w3.org/Graphics/SVG/1.1/DTD/svg11.dtd">
<svg version="1.1" id="Layer_1" xmlns="http://www.w3.org/2000/svg" xmlns:xlink="http://www.w3.org/1999/xlink" x="0px" y="0px"
	 width="64px" height="50px" viewBox="0 0 64 50" style="enable-background:new 0 0 64 50;" xml:space="preserve">
<g id="Handle_1_">
	<g>
		<path style="fill:#48A0DC;" d="M12,32C10.023,33.975,0,42,0,44c0,1.938,2,4,4,4s10-10,12-12L12,32z"/>
	</g>
</g>
<g id="Cleaver">
	<g>
		<path style="fill:#CCCCCC;" d="M42,0c-4,0-8.146,10.145-30,32l4,4c0.92-0.922,1.98-2,4-2c2,0,14,16,14,16l30-30C64,20,46,0,42,0z"
			/>
	</g>
</g>
<g id="Blood">
	<g>
		<path style="fill-rule:evenodd;clip-rule:evenodd;fill:#ED7161;" d="M62,22c-0.861,0-2.758,0-4,0c-2.438,0-5.055,4-10,4
			s-4.766,8.766-6,10c-1.234,1.232-6.246,2.246-8,4c-0.996,0.996-2.141,4.781-2.951,6.152C32.775,48.367,34,50,34,50l10.791-10.791
			C44.37,41.174,44,43.141,44,44c0,1.104,0.895,2,2,2c1.104,0,2-0.896,2-2c0-1.155-0.667-4.309-1.23-6.77l5.523-5.523
			C52.117,32.688,52,33.52,52,34c0,1.104,0.895,2,2,2c1.104,0,2-0.896,2-2c0-0.91-0.414-3.06-0.865-5.135L62,22z"/>
	</g>
</g>
<g id="Hole">
	<g>
		<circle style="fill:#FFFFFF;" cx="42" cy="8" r="2"/>
	</g>
</g>
<g>
</g>
<g>
</g>
<g>
</g>
<g>
</g>
<g>
</g>
<g>
</g>
<g>
</g>
<g>
</g>
<g>
</g>
<g>
</g>
<g>
</g>
<g>
</g>
<g>
</g>
<g>
</g>
<g>
</g>
</svg>
