<?xml version="1.0" encoding="iso-8859-1"?>
<!-- Generator: Adobe Illustrator 16.0.0, SVG Export Plug-In . SVG Version: 6.00 Build 0)  -->
<!DOCTYPE svg PUBLIC "-//W3C//DTD SVG 1.1//EN" "http://www.w3.org/Graphics/SVG/1.1/DTD/svg11.dtd">
<svg version="1.1" id="Layer_1" xmlns="http://www.w3.org/2000/svg" xmlns:xlink="http://www.w3.org/1999/xlink" x="0px" y="0px"
	 width="64px" height="64px" viewBox="0 0 64 64" style="enable-background:new 0 0 64 64;" xml:space="preserve">
<g id="Coat_18_">
	<g>
		<path style="fill:#48A0DC;" d="M60,48c-1.881-1.881-18-10-18-10H22c0,0-16.121,8.119-18,10c-3.762,3.76-4,16-4,16h64
			C64,64,63.76,51.76,60,48z"/>
	</g>
</g>
<g id="Suspenders_2_">
	<g>
		<path style="fill-rule:evenodd;clip-rule:evenodd;fill:#666666;" d="M10.656,43.936L14,64h8l-3.992-23.957
			C15.852,41.156,13.139,42.578,10.656,43.936z M45.992,40.043L42,64h8l3.344-20.063C50.861,42.578,48.148,41.156,45.992,40.043z"/>
	</g>
</g>
<g id="Collar_18_">
	<g>
		<path style="fill-rule:evenodd;clip-rule:evenodd;fill:#FFCC66;" d="M22,38c0,0-3.156,1.59-6.836,3.523
			C16.256,43.018,18.008,44,20,44c0,3.313,2.686,6,6,6c3.313,0,6-2.688,6-6c0,3.313,2.686,6,6,6s6-2.688,6-6
			c1.992,0,3.744-0.982,4.836-2.477C45.154,39.59,42,38,42,38l-2-2h-1.633H25.633H24L22,38z"/>
	</g>
</g>
<g id="Neck_24_">
	<g>
		<path style="fill:#DBB59A;" d="M38,29.998H26l-2,6c0,1.105,4.895,4,6,4h4c1.104,0,6-2.895,6-4L38,29.998z"/>
	</g>
</g>
<g id="Hair_32_">
	<g>
		<path style="fill-rule:evenodd;clip-rule:evenodd;fill:#ED7161;" d="M54,10c0-2.209-1.791-4-4-4c-0.18,0-0.352,0.029-0.525,0.053
			C48.789,4.834,47.498,4,46,4s-2.789,0.834-3.475,2.053C42.352,6.029,42.18,6,42,6c-2.209,0-4,1.791-4,4s1.791,4,4,4
			c0,1.746,1.125,3.215,2.686,3.762c-0.063,0.09-0.105,0.195-0.16,0.291C44.352,18.029,44.18,18,44,18c-2.209,0-4,1.791-4,4
			s1.791,4,4,4c1.498,0,2.789-0.834,3.475-2.053C47.648,23.971,47.82,24,48,24c2.209,0,4-1.791,4-4c0-0.18-0.029-0.352-0.053-0.525
			C53.166,18.789,54,17.498,54,16c0-1.201-0.541-2.268-1.379-3C53.459,12.268,54,11.201,54,10z M22,6
			c-0.18,0-0.352,0.029-0.525,0.053C20.789,4.834,19.498,4,18,4s-2.789,0.834-3.475,2.053C14.352,6.029,14.18,6,14,6
			c-2.209,0-4,1.791-4,4c0,1.201,0.541,2.268,1.379,3C10.541,13.732,10,14.799,10,16c0,1.498,0.834,2.789,2.053,3.475
			C12.029,19.648,12,19.82,12,20c0,2.209,1.791,4,4,4c0.18,0,0.352-0.029,0.525-0.053C17.211,25.166,18.502,26,20,26
			c2.209,0,4-1.791,4-4s-1.791-4-4-4c-0.18,0-0.352,0.029-0.525,0.053c-0.055-0.096-0.098-0.201-0.16-0.291
			C20.875,17.215,22,15.746,22,14c2.209,0,4-1.791,4-4S24.209,6,22,6z"/>
	</g>
</g>
<g id="Head_76_">
	<g>
		<path style="fill:#F5CAAB;" d="M32,0c-7.732,0-14,5.998-14,13.998c0,6,2,10,4,14c2,4.002,6.08,8,10,8c3.918,0,8-3.998,10-8
			c2-4,4-8,4-14C46,5.998,39.73,0,32,0z"/>
	</g>
</g>
<g id="Nose_22_">
	<g>
		<circle style="fill:#ED7161;" cx="32" cy="22" r="4"/>
	</g>
</g>
<g>
</g>
<g>
</g>
<g>
</g>
<g>
</g>
<g>
</g>
<g>
</g>
<g>
</g>
<g>
</g>
<g>
</g>
<g>
</g>
<g>
</g>
<g>
</g>
<g>
</g>
<g>
</g>
<g>
</g>
</svg>
