<?xml version="1.0" encoding="iso-8859-1"?>
<!-- Generator: Adobe Illustrator 16.0.0, SVG Export Plug-In . SVG Version: 6.00 Build 0)  -->
<!DOCTYPE svg PUBLIC "-//W3C//DTD SVG 1.1//EN" "http://www.w3.org/Graphics/SVG/1.1/DTD/svg11.dtd">
<svg version="1.1" id="Layer_1" xmlns="http://www.w3.org/2000/svg" xmlns:xlink="http://www.w3.org/1999/xlink" x="0px" y="0px"
	 width="63.999px" height="64px" viewBox="0 0 63.999 64" style="enable-background:new 0 0 63.999 64;" xml:space="preserve">
<g id="Interior_44_">
	<g>
		<path style="fill:#BA594C;" d="M48.011,22.01c-1.998-2.002-7.994-4.002-9.992-6.004c-1.999-2-1.999-4-1.999-4V24.01
			c0,0,0,2.002,1.999,4.002c1.998,2.002,7.994,4.002,9.992,6.002c1.999,2.002,1.999,4.002,1.999,4.002V26.012
			C50.01,26.012,50.01,24.01,48.011,22.01z"/>
	</g>
</g>
<g id="Ribbon_42_">
	<g>
		<path style="fill-rule:evenodd;clip-rule:evenodd;fill:#ED7161;" d="M48.011,2c-1.998,2.002-7.994,4.002-9.992,6.004
			c-1.999,2-1.999,4.002-1.999,4.002V24.01c0,0,0-2,1.999-4.002c1.998-2,7.994-4.002,9.992-6.002c1.999-2,1.999-4.002,1.999-4.002V2
			C50.01,2,50.01,0,48.011,2z M38.019,36.016c-1.999,2-1.999,4.002-1.999,4.002v8.004c0,0,0,2,1.999,0
			c1.998-2.002,7.994-4.002,9.992-6.004c1.999-2,1.999-4.002,1.999-4.002V26.012c0,0,0,2-1.999,4.002
			C46.013,32.014,40.017,34.014,38.019,36.016z"/>
	</g>
</g>
<g id="Interior_42_">
	<g>
		<path style="fill:#638C3F;" d="M26.026,36.016c-1.998-2.002-7.994-4.002-9.992-6.002c-1.999-2.002-1.999-4.002-1.999-4.002v12.004
			c0,0,0,2.002,1.999,4.002c1.998,2.002,7.994,4.002,9.992,6.004c1.999,2,1.999,4.002,1.999,4.002V40.018
			C28.025,40.018,28.025,38.016,26.026,36.016z"/>
	</g>
</g>
<g id="Ribbon_40_">
	<g>
		<path style="fill-rule:evenodd;clip-rule:evenodd;fill:#88C057;" d="M26.026,16.006c-1.998,2.002-7.994,4.002-9.992,6.004
			c-1.999,2-1.999,4.002-1.999,4.002v12.004c0,0,0-2,1.999-4.002c1.998-2,7.994-4,9.992-6.002c1.999-2,1.999-4.002,1.999-4.002
			v-8.004C28.025,16.006,28.025,14.006,26.026,16.006z M16.034,50.021c-1.999,2.002-1.999,4.002-1.999,4.002v8.004c0,0,0,2,1.999,0
			c1.998-2.002,7.994-4.002,9.992-6.002c1.999-2.002,1.999-4.002,1.999-4.002V40.018c0,0,0,2-1.999,4.002
			C24.028,46.02,18.032,48.021,16.034,50.021z"/>
	</g>
</g>
<g id="Confetti_7_">
	<g>
		<path style="fill-rule:evenodd;clip-rule:evenodd;fill:#88C057;" d="M50.01,52.023c-2.208,0-3.997,1.791-3.997,4.002
			c0,2.209,1.789,4,3.997,4c2.207,0,3.997-1.791,3.997-4C54.007,53.814,52.217,52.023,50.01,52.023z M10.038,10.004
			c-2.207,0-3.997,1.791-3.997,4.002s1.79,4.002,3.997,4.002c2.208,0,3.997-1.791,3.997-4.002S12.246,10.004,10.038,10.004z
			 M63.28,23.994l-3.294-3.297c-0.909-0.91-2.383-0.91-3.293,0c-0.909,0.912-0.909,2.387,0,3.297l3.293,3.297
			c0.909,0.91,2.384,0.91,3.294,0C64.189,26.383,64.189,24.904,63.28,23.994z"/>
	</g>
</g>
<g id="Confetti_5_">
	<g>
		<path style="fill-rule:evenodd;clip-rule:evenodd;fill:#ED7161;" d="M22.029,0c-2.207,0-3.997,1.791-3.997,4.002
			c0,2.209,1.79,4.002,3.997,4.002c2.208,0,3.997-1.793,3.997-4.002C26.026,1.791,24.237,0,22.029,0z M60.002,36.016
			c-2.207,0-3.997,1.791-3.997,4.002c0,2.209,1.79,4.002,3.997,4.002s3.997-1.793,3.997-4.002
			C63.999,37.807,62.209,36.016,60.002,36.016z M4.006,38.658c-0.916-0.918-2.402-0.918-3.319,0c-0.916,0.918-0.916,2.406,0,3.322
			l3.319,3.324c0.917,0.916,2.402,0.916,3.318,0c0.918-0.918,0.918-2.404,0-3.324L4.006,38.658z M36.056,56.668l-3.319,3.32
			c-0.916,0.92-0.916,2.406,0,3.324c0.918,0.916,2.403,0.916,3.319,0l3.32-3.324c0.916-0.918,0.916-2.404,0-3.32
			C38.458,55.748,36.973,55.748,36.056,56.668z"/>
	</g>
</g>
<g>
</g>
<g>
</g>
<g>
</g>
<g>
</g>
<g>
</g>
<g>
</g>
<g>
</g>
<g>
</g>
<g>
</g>
<g>
</g>
<g>
</g>
<g>
</g>
<g>
</g>
<g>
</g>
<g>
</g>
</svg>
