<?xml version="1.0" encoding="iso-8859-1"?>
<!-- Generator: Adobe Illustrator 16.0.0, SVG Export Plug-In . SVG Version: 6.00 Build 0)  -->
<!DOCTYPE svg PUBLIC "-//W3C//DTD SVG 1.1//EN" "http://www.w3.org/Graphics/SVG/1.1/DTD/svg11.dtd">
<svg version="1.1" id="Layer_1" xmlns="http://www.w3.org/2000/svg" xmlns:xlink="http://www.w3.org/1999/xlink" x="0px" y="0px"
	 width="48px" height="64px" viewBox="0 0 48 64" style="enable-background:new 0 0 48 64;" xml:space="preserve">
<g id="Cross_4_">
	<g>
		<path style="fill-rule:evenodd;clip-rule:evenodd;fill:#FFCC66;" d="M44,18v-2c0-1.105-0.895-2-2-2s-2,0.895-2,2v2H30V8h2
			c1.105,0,2-0.896,2-2c0-1.105-0.895-2-2-2h-2c0-2.209-1.791-4-4-4h-4c-2.209,0-4,1.791-4,4h-2c-1.105,0-2,0.895-2,2
			c0,1.104,0.895,2,2,2h2v10H8v-2c0-1.105-0.895-2-2-2s-2,0.895-2,2v2c-2.209,0-4,1.789-4,4v4c0,2.209,1.791,4,4,4v2
			c0,1.104,0.895,2,2,2s2-0.896,2-2v-2h10v26h-2c-1.105,0-2,0.895-2,2c0,1.104,0.895,2,2,2h2c0,2.209,1.791,4,4,4h4
			c2.209,0,4-1.791,4-4h2c1.105,0,2-0.896,2-2c0-1.105-0.895-2-2-2h-2V30h10v2c0,1.104,0.895,2,2,2s2-0.896,2-2v-2
			c2.209,0,4-1.791,4-4v-4C48,19.789,46.209,18,44,18z"/>
	</g>
</g>
<g id="Cross_5_">
	<g>
		<path style="fill-rule:evenodd;clip-rule:evenodd;fill:#CCA352;" d="M42,22H26V6c0-1.105-0.895-2-2-2s-2,0.895-2,2v16H6
			c-1.105,0-2,0.895-2,2c0,1.104,0.895,2,2,2h16v32c0,1.104,0.895,2,2,2s2-0.896,2-2V26h16c1.105,0,2-0.896,2-2
			C44,22.895,43.105,22,42,22z"/>
	</g>
</g>
<g>
</g>
<g>
</g>
<g>
</g>
<g>
</g>
<g>
</g>
<g>
</g>
<g>
</g>
<g>
</g>
<g>
</g>
<g>
</g>
<g>
</g>
<g>
</g>
<g>
</g>
<g>
</g>
<g>
</g>
</svg>
