<?xml version="1.0" encoding="iso-8859-1"?>
<!-- Generator: Adobe Illustrator 16.0.0, SVG Export Plug-In . SVG Version: 6.00 Build 0)  -->
<!DOCTYPE svg PUBLIC "-//W3C//DTD SVG 1.1//EN" "http://www.w3.org/Graphics/SVG/1.1/DTD/svg11.dtd">
<svg version="1.1" id="Layer_1" xmlns="http://www.w3.org/2000/svg" xmlns:xlink="http://www.w3.org/1999/xlink" x="0px" y="0px"
	 width="64px" height="48px" viewBox="0 0 64 48" style="enable-background:new 0 0 64 48;" xml:space="preserve">
<g id="Base_30_">
	<g>
		<path style="fill:#E6B85C;" d="M56,44H8c-1.105,0-2,0.895-2,2c0,1.104,0.895,2,2,2h48c1.104,0,2-0.896,2-2
			C58,44.895,57.104,44,56,44z"/>
	</g>
</g>
<g id="Back_10_">
	<g>
		<path style="fill-rule:evenodd;clip-rule:evenodd;fill:#CCA352;" d="M54,26c-1.428,0-2.855-9.152-4.283-14.4
			C51.063,10.955,52,9.592,52,8c0-2.211-1.791-4-4-4s-4,1.789-4,4c0,1.154,0.496,2.186,1.277,2.916C42.092,15.527,37.457,24,36,24
			c-2,0-2-18-4-18s-2,18-4,18c-1.457,0-6.092-8.473-9.277-13.084C19.504,10.186,20,9.154,20,8c0-2.211-1.791-4-4-4s-4,1.789-4,4
			c0,1.592,0.938,2.955,2.283,3.6C12.855,16.848,11.428,26,10,26c-2,0-6-16-6-16l6,34h44l6-34C60,10,56,26,54,26z"/>
	</g>
</g>
<g id="Front_2_">
	<g>
		<path style="fill:#FFCC66;" d="M62,8c-2,0-14,16-16,16S34,4,32,4S20,24,18,24S4,8,2,8s6,36,6,36h48C56,44,64,8,62,8z"/>
	</g>
</g>
<g id="Stones_6_">
	<g>
		<path style="fill-rule:evenodd;clip-rule:evenodd;fill:#ED7161;" d="M32,0c-2.209,0-4,1.791-4,4s1.791,4,4,4s4-1.791,4-4
			S34.209,0,32,0z M2,4C0.895,4,0,5.789,0,8c0,2.209,0.895,4,2,4c1.104,0,2-1.791,2-4C4,5.789,3.104,4,2,4z M62,4
			c-1.105,0-2,1.789-2,4c0,2.209,0.895,4,2,4s2-1.791,2-4C64,5.789,63.105,4,62,4z"/>
	</g>
</g>
<g id="_x31__2_">
	<g>
		<path style="fill-rule:evenodd;clip-rule:evenodd;fill:#FFFFFF;" d="M34,34V23.998c0-1.104-0.896-2-2-2h-2c-1.105,0-2,0.896-2,2
			C28,25.104,28.895,26,30,26v8c-1.105,0-2,0.895-2,1.998c0,1.105,0.895,2,2,2h4c1.104,0,2-0.895,2-2C36,34.895,35.104,34,34,34z"/>
	</g>
</g>
<g>
</g>
<g>
</g>
<g>
</g>
<g>
</g>
<g>
</g>
<g>
</g>
<g>
</g>
<g>
</g>
<g>
</g>
<g>
</g>
<g>
</g>
<g>
</g>
<g>
</g>
<g>
</g>
<g>
</g>
</svg>
