<?xml version="1.0" encoding="iso-8859-1"?>
<!-- Generator: Adobe Illustrator 16.0.0, SVG Export Plug-In . SVG Version: 6.00 Build 0)  -->
<!DOCTYPE svg PUBLIC "-//W3C//DTD SVG 1.1//EN" "http://www.w3.org/Graphics/SVG/1.1/DTD/svg11.dtd">
<svg version="1.1" id="Layer_1" xmlns="http://www.w3.org/2000/svg" xmlns:xlink="http://www.w3.org/1999/xlink" x="0px" y="0px"
	 width="64px" height="64.001px" viewBox="0 0 64 64.001" style="enable-background:new 0 0 64 64.001;" xml:space="preserve">
<g id="String_4_">
	<g>
		<path style="fill-rule:evenodd;clip-rule:evenodd;fill:#CCCCCC;" d="M60.512,52.167l-38.05-10.078
			c-0.175-0.047-0.347-0.033-0.519-0.031c0.001-0.174,0.014-0.346-0.032-0.52L11.833,3.489c-0.277-1.053-1.345-1.674-2.384-1.393
			S7.795,3.458,8.073,4.509L18.15,42.558c0.231,0.875,1.014,1.418,1.867,1.424c0.007,0.854,0.551,1.637,1.426,1.869l38.049,10.076
			c1.051,0.279,2.131-0.338,2.412-1.377C62.187,53.513,61.563,52.444,60.512,52.167z"/>
	</g>
</g>
<g id="Arrow">
	<g>
		<path style="fill-rule:evenodd;clip-rule:evenodd;fill:#666666;" d="M63.887,1.526c-0.004-0.016,0.001-0.029-0.003-0.043
			c-0.007-0.025-0.026-0.043-0.034-0.068c-0.066-0.188-0.147-0.357-0.263-0.518c-0.066-0.096-0.141-0.178-0.222-0.26
			c-0.083-0.082-0.166-0.158-0.263-0.225c-0.158-0.113-0.326-0.195-0.511-0.26c-0.027-0.008-0.046-0.029-0.073-0.037
			c-0.016-0.004-0.03,0-0.046-0.002c-0.348-0.102-0.714-0.145-1.09-0.045l-7.887,2.07c-1.09,0.285-1.735,1.379-1.443,2.447
			c0.291,1.064,1.411,1.697,2.5,1.412l0.726-0.189L23.073,38.015h-3.084c-1.104,0-1.999,0.895-1.999,1.998
			c0,0.834,0.512,1.547,1.238,1.846l-0.153,0.154h-3.084c-1.104,0-1.999,0.895-1.999,1.998s0.896,2,1.999,2h1.999v1.998
			c0,1.104,0.895,2,1.999,2c1.104,0,1.999-0.896,1.999-2v-3.211l0.132-0.133c0.273,0.779,0.995,1.346,1.867,1.346
			c1.104,0,1.998-0.896,1.998-2v-3.209L58.236,8.55l-0.235,0.898c-0.286,1.088,0.347,2.209,1.413,2.5
			c1.066,0.293,2.162-0.355,2.448-1.443l2.069-7.889C64.03,2.241,63.986,1.874,63.887,1.526z"/>
	</g>
</g>
<g id="Bow_1_">
	<g>
		<path style="fill:#ED7161;" d="M57.968,56.005c0-7.996,5.997-13.992,5.997-23.986c0-7.729-6.266-13.992-13.992-13.992
			c-0.166,0-0.321,0.039-0.486,0.045c-0.961-1.391-2.168-2.594-3.557-3.557c0.006-0.166,0.045-0.32,0.045-0.486
			c0-7.729-6.265-13.992-13.992-13.992c-9.994,0-15.991,5.996-23.986,5.996c0-2.207-1.79-3.996-3.998-3.996S0,3.825,0,6.032
			c0,2.209,1.79,3.998,3.998,3.998c9.994,0,15.991-3.998,23.986-3.998c5.52,0,9.995,4.475,9.995,9.994
			c5.519,0,9.994,4.475,9.994,9.996c5.52,0,9.994,4.473,9.994,9.994c0,7.994-3.997,13.992-3.997,23.986
			c0,2.207,1.789,3.998,3.997,3.998s3.998-1.791,3.998-3.998S60.279,56.005,57.968,56.005z"/>
	</g>
</g>
<g>
</g>
<g>
</g>
<g>
</g>
<g>
</g>
<g>
</g>
<g>
</g>
<g>
</g>
<g>
</g>
<g>
</g>
<g>
</g>
<g>
</g>
<g>
</g>
<g>
</g>
<g>
</g>
<g>
</g>
</svg>
