<?xml version="1.0" encoding="iso-8859-1"?>
<!-- Generator: Adobe Illustrator 16.0.0, SVG Export Plug-In . SVG Version: 6.00 Build 0)  -->
<!DOCTYPE svg PUBLIC "-//W3C//DTD SVG 1.1//EN" "http://www.w3.org/Graphics/SVG/1.1/DTD/svg11.dtd">
<svg version="1.1" id="Layer_1" xmlns="http://www.w3.org/2000/svg" xmlns:xlink="http://www.w3.org/1999/xlink" x="0px" y="0px"
	 width="64px" height="64px" viewBox="0 0 64 64" style="enable-background:new 0 0 64 64;" xml:space="preserve">
<g id="Body_42_">
	<g>
		<path style="fill-rule:evenodd;clip-rule:evenodd;fill:#ED7161;" d="M60,48c-1.881-1.881-20-10-20-10l-2-6H26l-2,6
			c0,0-18.121,8.119-20,10c-3.76,3.76-4,16-4,16h64C64,64,63.76,51.76,60,48z"/>
	</g>
</g>
<g id="Handle_14_">
	<g>
		<path style="fill:#A67C52;" d="M54,34c-1.105,0-2,0.895-2,2v28h4V36C56,34.895,55.105,34,54,34z"/>
	</g>
</g>
<g id="Fork_2_">
	<g>
		<path style="fill-rule:evenodd;clip-rule:evenodd;fill:#CCCCCC;" d="M62,14c-1.105,0-2,0.895-2,2v10v2c0,1.104-0.896,2-2,2
			c-1.105,0-2-0.896-2-2v-2V12c0-1.105-0.895-2-2-2s-2,0.895-2,2v14v2c0,1.104-0.895,2-2,2s-2-0.896-2-2v-2V16c0-1.105-0.895-2-2-2
			s-2,0.895-2,2v12v2c0,2.209,1.791,4,4,4h4v2c0,1.104,0.895,2,2,2s2-0.896,2-2v-2h4c2.209,0,4-1.791,4-4v-2V16
			C64,14.895,63.105,14,62,14z"/>
	</g>
</g>
<g id="Head_58_">
	<g>
		<path style="fill-rule:evenodd;clip-rule:evenodd;fill:#ED7161;" d="M48,0l-7.799,3.899C37.895,2.641,35.066,2,32,2
			s-5.895,0.641-8.201,1.899L16,0l3.332,8.328C18.486,9.921,18,11.804,18,14c0,6,2,9.998,4,14c2,3.998,6.082,7.998,10,7.998
			s8-4,10-7.998c2-4.002,4-8,4-14c0-2.196-0.486-4.079-1.332-5.672L48,0z"/>
	</g>
</g>
<g id="Gotee_2_">
	<g>
		<path style="fill:#333333;" d="M32,34c-2.801,0-6-2-6-2s2.777,12,6,12s6-12,6-12S35.176,34,32,34z"/>
	</g>
</g>
<g id="Hair_26_">
	<g>
		<path style="fill:#333333;" d="M32,0c-7.732,0-14,4.268-14,12v2.004c0,1.346,0.113,2.578,0.291,3.746
			C19.15,14.131,21.826,10,25,10c3.865,0,7,2.133,7,6c0-3.867,3.135-6,7-6c3.172,0,5.848,4.129,6.707,7.748
			C45.887,16.58,46,15.346,46,14c0-0.002,0-0.004,0-0.006V12C46,4.268,39.732,0,32,0z"/>
	</g>
</g>
<g>
</g>
<g>
</g>
<g>
</g>
<g>
</g>
<g>
</g>
<g>
</g>
<g>
</g>
<g>
</g>
<g>
</g>
<g>
</g>
<g>
</g>
<g>
</g>
<g>
</g>
<g>
</g>
<g>
</g>
</svg>
