<?xml version="1.0" encoding="iso-8859-1"?>
<!-- Generator: Adobe Illustrator 16.0.0, SVG Export Plug-In . SVG Version: 6.00 Build 0)  -->
<!DOCTYPE svg PUBLIC "-//W3C//DTD SVG 1.1//EN" "http://www.w3.org/Graphics/SVG/1.1/DTD/svg11.dtd">
<svg version="1.1" id="Layer_1" xmlns="http://www.w3.org/2000/svg" xmlns:xlink="http://www.w3.org/1999/xlink" x="0px" y="0px"
	 width="63.999px" height="64px" viewBox="0 0 63.999 64" style="enable-background:new 0 0 63.999 64;" xml:space="preserve">
<g id="Cape_2_">
	<g>
		<path style="fill:#4D4D4D;" d="M60,47.998C58.12,46.119,44.005,36.002,44,36c0.003-0.004,6-8.896,6-10c0-1.105-0.896-2-2-2H16
			c-1.104,0-2,0.895-2,2c0,1.104,5.995,9.994,6,10C19.998,36,5.88,46.119,4,47.998C0.239,51.76,0,64,0,64s1.945,0,4,0h56
			c2.141,0,3.999,0,3.999,0S63.76,51.76,60,47.998z"/>
	</g>
</g>
<g id="Shirt_16_">
	<g>
		<polygon style="fill:#FFFFFF;" points="40,35.998 24,35.998 22,38 26,64 38,64 42,38 		"/>
	</g>
</g>
<g id="Necklace_6_">
	<g>
		<polygon style="fill:#999999;" points="32,48 22,38 22,42 32,51.943 42,42 42,38 		"/>
	</g>
</g>
<g id="Vest_4_">
	<g>
		<path style="fill:#ED7161;" d="M42,38l-8,26h18C52,52,42,38,42,38z M12,64h18l-8-26C22,38,12,52,12,64z"/>
	</g>
</g>
<g id="Neck_20_">
	<g>
		<path style="fill:#DBB59A;" d="M38,30H26l-2,5.998c0,1.105,4.895,4,6,4h4c1.104,0,6-2.895,6-4L38,30z"/>
	</g>
</g>
<g id="Head_56_">
	<g>
		<path style="fill-rule:evenodd;clip-rule:evenodd;fill:#F6CBAD;" d="M45.95,15.164c0.018-0.387,0.049-0.76,0.049-1.164
			c0-8-6.268-12-13.999-12c-7.732,0-14,4-14,12c0,0.404,0.031,0.777,0.049,1.163C16.528,13.577,14.584,12,14,12c0,1.186,2,4.936,2,6
			c0,0.64,1.767,2.68,3.418,4.206C20.147,24.269,21.069,26.138,22,28c2,3.998,6.081,7.998,10,7.998c3.918,0,8-4,10-7.998
			c0.931-1.862,1.853-3.731,2.581-5.794C46.233,20.681,48,18.64,48,18c0-1.064,2-4.814,2-6C49.416,12,47.471,13.578,45.95,15.164z"
			/>
	</g>
</g>
<g id="Hair_24_">
	<g>
		<path style="fill:#333333;" d="M32,0c-7.732,0-14,4.268-14,12v2.004c0,1.346,0.113,2.578,0.292,3.746
			C19.15,14.131,21.827,10,25,10c3.865,0,7,2.133,7,6c0-3.867,3.134-6,7-6c3.172,0,5.849,4.129,6.708,7.748
			c0.179-1.168,0.291-2.402,0.291-3.748c0-0.002,0.001-0.004,0.001-0.006V12C46,4.268,39.731,0,32,0z"/>
	</g>
</g>
<g>
</g>
<g>
</g>
<g>
</g>
<g>
</g>
<g>
</g>
<g>
</g>
<g>
</g>
<g>
</g>
<g>
</g>
<g>
</g>
<g>
</g>
<g>
</g>
<g>
</g>
<g>
</g>
<g>
</g>
</svg>
