<?xml version="1.0" encoding="iso-8859-1"?>
<!-- Generator: Adobe Illustrator 16.0.0, SVG Export Plug-In . SVG Version: 6.00 Build 0)  -->
<!DOCTYPE svg PUBLIC "-//W3C//DTD SVG 1.1//EN" "http://www.w3.org/Graphics/SVG/1.1/DTD/svg11.dtd">
<svg version="1.1" id="Layer_1" xmlns="http://www.w3.org/2000/svg" xmlns:xlink="http://www.w3.org/1999/xlink" x="0px" y="0px"
	 width="52px" height="64px" viewBox="0 0 52 64" style="enable-background:new 0 0 52 64;" xml:space="preserve">
<g id="Egg_12_">
	<g>
		<path style="fill:#ED7161;" d="M26,0C12.745,0,2,20.326,2,38c0,17.672,10.745,26,24,26s24-8.328,24-26C50,20.326,39.255,0,26,0z"
			/>
	</g>
</g>
<g id="Decoration_48_">
	<g>
		<path style="fill-rule:evenodd;clip-rule:evenodd;fill:#FFCC66;" d="M39.936,8H12.064c-0.993,1.23-1.931,2.57-2.804,4h33.479
			C41.866,10.57,40.929,9.23,39.936,8z M48.935,28H3.065c-0.553,2.656-0.897,5.348-1.016,8h47.9
			C49.832,33.348,49.487,30.656,48.935,28z M7.559,56h36.883c0.977-1.195,1.842-2.529,2.584-4H4.975
			C5.717,53.471,6.582,54.805,7.559,56z"/>
	</g>
</g>
<g id="Decoration_46_">
	<g>
		<path style="fill-rule:evenodd;clip-rule:evenodd;fill:#FFFFFF;" d="M48,43.172l-2.585-2.584C45.054,40.225,44.553,40,44,40
			s-1.054,0.225-1.415,0.588L40,43.172l-2.585-2.584C37.054,40.225,36.553,40,36,40s-1.054,0.225-1.415,0.588L32,43.172
			l-2.585-2.584C29.054,40.225,28.553,40,28,40s-1.054,0.225-1.415,0.588L24,43.172l-2.585-2.584C21.054,40.225,20.553,40,20,40
			s-1.054,0.225-1.415,0.588L16,43.172l-2.585-2.584C13.054,40.225,12.553,40,12,40s-1.054,0.225-1.415,0.588L8,43.172L5.418,40.59
			C5.055,40.227,4.555,40,4,40s-1.055,0.227-1.418,0.59l-0.464,0.465c0.132,1.744,0.397,3.367,0.747,4.908L4,44.828l2.586,2.586
			C6.948,47.775,7.448,48,8,48s1.052-0.225,1.414-0.586L12,44.828l2.586,2.586C14.948,47.775,15.448,48,16,48
			s1.052-0.225,1.414-0.586L20,44.828l2.586,2.586C22.948,47.775,23.448,48,24,48s1.052-0.225,1.414-0.586L28,44.828l2.586,2.586
			C30.948,47.775,31.448,48,32,48s1.052-0.225,1.414-0.586L36,44.828l2.586,2.586C38.948,47.775,39.448,48,40,48
			s1.052-0.225,1.414-0.586L44,44.828l2.586,2.586C46.948,47.775,47.448,48,48,48c0.225,0,0.432-0.061,0.634-0.129
			c0.602-2,1.033-4.174,1.229-6.563L48,43.172z M8,24c0.552,0,1.052-0.225,1.414-0.586L12,20.828l2.586,2.586
			C14.948,23.775,15.448,24,16,24s1.052-0.225,1.414-0.586L20,20.828l2.586,2.586C22.948,23.775,23.448,24,24,24
			s1.052-0.225,1.414-0.586L28,20.828l2.586,2.586C30.948,23.775,31.448,24,32,24s1.052-0.225,1.414-0.586L36,20.828l2.586,2.586
			C38.948,23.775,39.448,24,40,24s1.052-0.225,1.414-0.586L44,20.828l2.586,2.586c0.347,0.346,0.823,0.553,1.346,0.572
			c-0.766-2.646-1.728-5.217-2.858-7.631C44.759,16.15,44.404,16,44,16c-0.553,0-1.054,0.225-1.415,0.588L40,19.172l-2.585-2.584
			C37.054,16.225,36.553,16,36,16s-1.054,0.225-1.415,0.588L32,19.172l-2.585-2.584C29.054,16.225,28.553,16,28,16
			s-1.054,0.225-1.415,0.588L24,19.172l-2.585-2.584C21.054,16.225,20.553,16,20,16s-1.054,0.225-1.415,0.588L16,19.172
			l-2.585-2.584C13.054,16.225,12.553,16,12,16s-1.054,0.225-1.415,0.588L8,19.172l-1.614-1.615
			c-0.577,1.322-1.107,2.684-1.58,4.076l1.78,1.781C6.948,23.775,7.448,24,8,24z"/>
	</g>
</g>
<g>
</g>
<g>
</g>
<g>
</g>
<g>
</g>
<g>
</g>
<g>
</g>
<g>
</g>
<g>
</g>
<g>
</g>
<g>
</g>
<g>
</g>
<g>
</g>
<g>
</g>
<g>
</g>
<g>
</g>
</svg>
