<?xml version="1.0" encoding="iso-8859-1"?>
<!-- Generator: Adobe Illustrator 16.0.0, SVG Export Plug-In . SVG Version: 6.00 Build 0)  -->
<!DOCTYPE svg PUBLIC "-//W3C//DTD SVG 1.1//EN" "http://www.w3.org/Graphics/SVG/1.1/DTD/svg11.dtd">
<svg version="1.1" id="Layer_1" xmlns="http://www.w3.org/2000/svg" xmlns:xlink="http://www.w3.org/1999/xlink" x="0px" y="0px"
	 width="52px" height="64px" viewBox="0 0 52 64" style="enable-background:new 0 0 52 64;" xml:space="preserve">
<g id="Egg_4_">
	<g>
		<path style="fill:#FFCC66;" d="M26,0C12.745,0,2,20.326,2,38c0,17.672,10.745,26,24,26s24-8.328,24-26C50,20.326,39.255,0,26,0z"
			/>
	</g>
</g>
<g id="Decoration_7_">
	<g>
		<path style="fill-rule:evenodd;clip-rule:evenodd;fill:#88C057;" d="M42,50c-4,0-3.09-4-8-4c-4.911,0-4,4-8,4s-3.09-4-8.001-4
			C13.089,46,14,50,10,50c-3.719,0-3.252-3.418-7.105-3.904C5.704,58.213,14.972,64,26,64s20.296-5.787,23.105-17.904
			C45.252,46.582,45.719,50,42,50z M18,14c4,0,3.089,4,8,4c4.91,0,4-4,8-4s3.089,4,8,4h3.805C41.48,7.834,34.227,0,26,0
			S10.52,7.834,6.195,18H10C14.91,18,14,14,18,14z"/>
	</g>
</g>
<g id="Decoration_8_">
	<g>
		<path style="fill-rule:evenodd;clip-rule:evenodd;fill:#88C057;" d="M4,32c0,2.209,1.791,4,4,4s4-1.791,4-4s-1.791-4-4-4
			S4,29.791,4,32z M16,32c0,2.209,1.791,4,4,4s4-1.791,4-4s-1.791-4-4-4S16,29.791,16,32z M2,38c0,1.398,0.09,2.719,0.221,4h47.559
			C49.91,40.719,50,39.398,50,38H2z M28,32c0,2.209,1.791,4,4,4s4-1.791,4-4s-1.791-4-4-4S28,29.791,28,32z M47.315,22H4.685
			c-0.436,1.313-0.825,2.648-1.16,4h44.951C48.141,24.648,47.751,23.313,47.315,22z M40,32c0,2.209,1.791,4,4,4s4-1.791,4-4
			s-1.791-4-4-4S40,29.791,40,32z"/>
	</g>
</g>
<g>
</g>
<g>
</g>
<g>
</g>
<g>
</g>
<g>
</g>
<g>
</g>
<g>
</g>
<g>
</g>
<g>
</g>
<g>
</g>
<g>
</g>
<g>
</g>
<g>
</g>
<g>
</g>
<g>
</g>
</svg>
