<?xml version="1.0" encoding="iso-8859-1"?>
<!-- Generator: Adobe Illustrator 16.0.0, SVG Export Plug-In . SVG Version: 6.00 Build 0)  -->
<!DOCTYPE svg PUBLIC "-//W3C//DTD SVG 1.1//EN" "http://www.w3.org/Graphics/SVG/1.1/DTD/svg11.dtd">
<svg version="1.1" id="Layer_1" xmlns="http://www.w3.org/2000/svg" xmlns:xlink="http://www.w3.org/1999/xlink" x="0px" y="0px"
	 width="48px" height="64px" viewBox="0 0 48 64" style="enable-background:new 0 0 48 64;" xml:space="preserve">
<g id="Female">
	<g>
		<path style="fill-rule:evenodd;clip-rule:evenodd;fill:#F06EAA;" d="M48,24C48,10.744,37.254,0,24,0C10.744,0,0,10.744,0,24
			c0,11.889,8.652,21.732,20,23.641V52h-2c-2.209,0-4,1.791-4,4s1.791,4,4,4h2c0,2.209,1.791,4,4,4s4-1.791,4-4h2
			c2.209,0,4-1.791,4-4s-1.791-4-4-4h-2v-4.359C39.346,45.732,48,35.889,48,24z M8,24c0-8.838,7.164-16,16-16s16,7.162,16,16
			c0,8.836-7.164,16-16,16S8,32.836,8,24z"/>
	</g>
</g>
<g>
</g>
<g>
</g>
<g>
</g>
<g>
</g>
<g>
</g>
<g>
</g>
<g>
</g>
<g>
</g>
<g>
</g>
<g>
</g>
<g>
</g>
<g>
</g>
<g>
</g>
<g>
</g>
<g>
</g>
</svg>
