<?xml version="1.0" encoding="iso-8859-1"?>
<!-- Generator: Adobe Illustrator 16.0.0, SVG Export Plug-In . SVG Version: 6.00 Build 0)  -->
<!DOCTYPE svg PUBLIC "-//W3C//DTD SVG 1.1//EN" "http://www.w3.org/Graphics/SVG/1.1/DTD/svg11.dtd">
<svg version="1.1" id="Layer_1" xmlns="http://www.w3.org/2000/svg" xmlns:xlink="http://www.w3.org/1999/xlink" x="0px" y="0px"
	 width="63.999px" height="63.998px" viewBox="0 0 63.999 63.998" style="enable-background:new 0 0 63.999 63.998;"
	 xml:space="preserve">
<g id="Wick_16_">
	<g>
		<path style="fill:#999999;" d="M53.996,5.996c-3.241,11.261-9.65,4.872-14.004,13.99l2,3.997
			c5.696-9.452,10.311-3.825,14.005-13.992L53.996,5.996z"/>
	</g>
</g>
<g id="Fire_20_">
	<g>
		<path style="fill-rule:evenodd;clip-rule:evenodd;fill:#FFCC66;" d="M63.999,7.994c0-0.72-1.54-1.346-3.828-1.697
			c1.443-1.944,2.134-3.548,1.605-4.076c-0.529-0.528-2.135,0.161-4.08,1.603C57.344,1.537,56.718,0,55.997,0
			c-0.722,0-1.348,1.537-1.7,3.823c-1.945-1.441-3.551-2.131-4.079-1.603s0.162,2.132,1.604,4.076
			c-2.288,0.352-3.828,0.978-3.828,1.697s1.54,1.346,3.828,1.696c-1.442,1.945-2.133,3.549-1.604,4.077s2.133-0.161,4.079-1.603
			c0.353,2.286,0.979,3.824,1.7,3.824c0.721,0,1.347-1.538,1.699-3.824c1.945,1.441,3.551,2.131,4.08,1.603
			c0.528-0.528-0.162-2.132-1.605-4.077C62.459,9.34,63.999,8.714,63.999,7.994z"/>
	</g>
</g>
<g id="Body_54_">
	<g>
		<path style="fill:#ED7161;" d="M47.451,26.713L37.322,16.595c-0.78-0.781-2.046-0.781-2.826,0L0.585,50.473
			c-0.78,0.779-0.78,2.044,0,2.823l10.129,10.118c0.779,0.779,2.046,0.779,2.825,0l33.912-33.878
			C48.23,28.757,48.23,27.492,47.451,26.713z"/>
	</g>
</g>
<g id="Lines_16_">
	<g>
		<path style="fill:#FFFFFF;" d="M0.585,50.473c-0.584,0.582-0.73,1.438-0.439,2.157l18.496,5.688l6.12-6.113L4.948,46.112
			L0.585,50.473z M11.068,39.999l19.813,6.09l6.12-6.113l-19.813-6.09L11.068,39.999z M47.856,27.322l-18.43-5.663l-6.119,6.113
			l19.813,6.09l4.331-4.326C48.05,28.937,48.179,28.056,47.856,27.322z"/>
	</g>
</g>
<g>
</g>
<g>
</g>
<g>
</g>
<g>
</g>
<g>
</g>
<g>
</g>
<g>
</g>
<g>
</g>
<g>
</g>
<g>
</g>
<g>
</g>
<g>
</g>
<g>
</g>
<g>
</g>
<g>
</g>
</svg>
