<?xml version="1.0" encoding="iso-8859-1"?>
<!-- Generator: Adobe Illustrator 16.0.0, SVG Export Plug-In . SVG Version: 6.00 Build 0)  -->
<!DOCTYPE svg PUBLIC "-//W3C//DTD SVG 1.1//EN" "http://www.w3.org/Graphics/SVG/1.1/DTD/svg11.dtd">
<svg version="1.1" id="Layer_1" xmlns="http://www.w3.org/2000/svg" xmlns:xlink="http://www.w3.org/1999/xlink" x="0px" y="0px"
	 width="44px" height="64px" viewBox="0 0 44 64" style="enable-background:new 0 0 44 64;" xml:space="preserve">
<g id="Foil_18_">
	<g>
		<path style="fill:#88C057;" d="M36,34c0-1.197-0.694-2-2-2H10c-1.306,0-2,0.803-2,2c0,4,10,16,10,20s-2,4-2,8c0,1.164,0.707,2,2,2
			h8c1.293,0,2-0.836,2-2c0-4-2-4-2-8S36,38,36,34z"/>
	</g>
</g>
<g id="Ribbon_38_">
	<g>
		<path style="fill:#FFCC66;" d="M26,52h-8c-1.104,0-2,0.895-2,2c0,1.104,0.896,2,2,2h8c1.104,0,2-0.896,2-2
			C28,52.895,27.104,52,26,52z"/>
	</g>
</g>
<g id="Flowers_6_">
	<g>
		<path style="fill-rule:evenodd;clip-rule:evenodd;fill:#F06EAA;" d="M42.62,19c0.839-0.732,1.38-1.799,1.38-3
			c0-1.746-1.126-3.215-2.686-3.762C41.747,11.6,42,10.83,42,10c0-1.498-0.834-2.789-2.053-3.475C39.97,6.352,40,6.18,40,6
			c0-2.209-1.791-4-4-4s-4,1.791-4,4c0,0.201,0.03,0.395,0.06,0.588C31.456,6.223,30.756,6,30,6c-0.18,0-0.353,0.029-0.526,0.053
			C28.789,4.834,27.498,4,26,4c-0.756,0-1.456,0.223-2.06,0.588C23.97,4.395,24,4.201,24,4c0-2.209-1.791-4-4-4s-4,1.791-4,4
			c0,0.201,0.03,0.395,0.06,0.588C15.456,4.223,14.756,4,14,4c-1.202,0-2.267,0.541-3,1.379C10.267,4.541,9.201,4,8,4
			C5.791,4,4,5.791,4,8c-2.209,0-4,1.791-4,4c0,1.201,0.541,2.268,1.38,3C0.541,15.732,0,16.799,0,18
			c0,1.746,1.126,3.215,2.686,3.762C2.253,22.4,2,23.17,2,24c0,2.209,1.791,4,4,4c0.201,0,0.394-0.031,0.587-0.059
			C6.223,28.545,6,29.244,6,30c0,2.209,1.791,4,4,4c0.83,0,1.6-0.254,2.239-0.686C12.785,34.875,14.254,36,16,36
			s3.215-1.125,3.761-2.686C20.4,33.746,21.17,34,22,34s1.6-0.254,2.239-0.686C24.785,34.875,26.254,36,28,36c2.209,0,4-1.791,4-4
			c0-0.094-0.021-0.182-0.027-0.273c0.02-0.006,0.037-0.014,0.057-0.02C32.022,31.807,32,31.9,32,32c0,2.209,1.791,4,4,4
			s4-1.791,4-4c0-0.83-0.253-1.6-0.686-2.238C40.874,29.215,42,27.746,42,26c0-0.18-0.03-0.352-0.053-0.525
			C43.166,24.789,44,23.498,44,22C44,20.799,43.459,19.732,42.62,19z M21.85,7.527c0.07-0.037,0.142-0.074,0.21-0.115
			c-0.012,0.076-0.017,0.152-0.023,0.229C21.974,7.604,21.913,7.563,21.85,7.527z"/>
	</g>
</g>
<g id="Flowers_4_">
	<g>
		<path style="fill-rule:evenodd;clip-rule:evenodd;fill:#BD5786;" d="M34,10c-2.209,0-4,1.791-4,4s1.791,4,4,4s4-1.791,4-4
			S36.209,10,34,10z M12,22c-2.209,0-4,1.791-4,4s1.791,4,4,4s4-1.791,4-4S14.209,22,12,22z M32,24c-2.21,0-4,1.791-4,4s1.79,4,4,4
			c2.209,0,4-1.791,4-4S34.209,24,32,24z M14,14c0-2.209-1.791-4-4-4s-4,1.791-4,4s1.791,4,4,4S14,16.209,14,14z M24,10
			c0-2.209-1.791-4-4-4s-4,1.791-4,4s1.791,4,4,4S24,12.209,24,10z M24,16c-2.209,0-4,1.791-4,4s1.791,4,4,4s4-1.791,4-4
			S26.209,16,24,16z"/>
	</g>
</g>
<g>
</g>
<g>
</g>
<g>
</g>
<g>
</g>
<g>
</g>
<g>
</g>
<g>
</g>
<g>
</g>
<g>
</g>
<g>
</g>
<g>
</g>
<g>
</g>
<g>
</g>
<g>
</g>
<g>
</g>
</svg>
