<?xml version="1.0" encoding="iso-8859-1"?>
<!-- Generator: Adobe Illustrator 16.0.0, SVG Export Plug-In . SVG Version: 6.00 Build 0)  -->
<!DOCTYPE svg PUBLIC "-//W3C//DTD SVG 1.1//EN" "http://www.w3.org/Graphics/SVG/1.1/DTD/svg11.dtd">
<svg version="1.1" id="Layer_1" xmlns="http://www.w3.org/2000/svg" xmlns:xlink="http://www.w3.org/1999/xlink" x="0px" y="0px"
	 width="64px" height="64px" viewBox="0 0 64 64" style="enable-background:new 0 0 64 64;" xml:space="preserve">
<g id="Bolts_2_">
	<g>
		<path style="fill:#B3B3B3;" d="M44,32H20c-1.104,0-2,0.895-2,2c0,1.104,0.896,2,2,2h24c1.104,0,2-0.896,2-2
			C46,32.895,45.104,32,44,32z"/>
	</g>
</g>
<g id="Coat_14_">
	<g>
		<path style="fill:#4D4D4D;" d="M4,43.998C0.239,47.76,0,64,0,64h28l-6-26.002C22,37.998,5.88,42.117,4,43.998z M60,43.998
			c-1.881-1.881-18-6-18-6L36,64h28C64,64,63.76,47.76,60,43.998z"/>
	</g>
</g>
<g id="Shirt_14_">
	<g>
		<polygon style="fill:#808080;" points="40,35.998 24,35.998 22,38 28,64 36,64 42,38 		"/>
	</g>
</g>
<g id="Collar_14_">
	<g>
		<path style="fill:#333333;" d="M14,44l4,2l-8,3.998L22,64h6l-6-26.002L14,44z M46,46l4-2l-8-6.002L36,64h6l12-14.002L46,46z"/>
	</g>
</g>
<g id="Neck_18_">
	<g>
		<path style="fill:#517334;" d="M38,30H26l-2,5.998c0,1.105,4.896,4,6,4h4c1.104,0,6-2.895,6-4L38,30z"/>
	</g>
</g>
<g id="Head_52_">
	<g>
		<path style="fill:#88C057;" d="M32,2c-7.732,0-14,0-14,7.998c0,6.002,0,10,2,14.002c2,3.998-0.586,11.998,12,11.998
			s10-8,12-11.998c2-4.002,2-8,2-14.002C46,2,39.731,2,32,2z"/>
	</g>
</g>
<g id="Forehead_2_">
	<g>
		<path style="fill:#90CC5C;" d="M46,9.998C46,2,39.731,2,32,2c-7.732,0-14,0-14,7.998c0,3.912,0.854,8.654,2,12.604
			c0-1.328,0-2.316,0-2.602c0-8,1.739-8,12-8s12,0,12,8c0,0.242,0,1.211,0,2.602C45.146,18.654,46,13.91,46,9.998z"/>
	</g>
</g>
<g id="Hair_22_">
	<g>
		<path style="fill:#666666;" d="M32,0c-7.732,0-14,2-14,9.998C18,7.25,21.063,5.813,22,6c1.563,0.938,0.066,3.168,2,4
			c-1.048-1.047,0.897-6.104,2-6c0.271,2.061,1.32,3.32,2,4c0-1.539,0.943-4.943,2-6c1.262-0.027,4,2.311,4,4
			c0.875-0.875,2.726-2.055,4-2c1.251,1.25,0.875,2.875,2,4c0-0.873,1-1,2-2c1.566,0,4,2.996,4,3.998C46,2,39.731,0,32,0z"/>
	</g>
</g>
<g>
</g>
<g>
</g>
<g>
</g>
<g>
</g>
<g>
</g>
<g>
</g>
<g>
</g>
<g>
</g>
<g>
</g>
<g>
</g>
<g>
</g>
<g>
</g>
<g>
</g>
<g>
</g>
<g>
</g>
</svg>
