<?xml version="1.0" encoding="iso-8859-1"?>
<!-- Generator: Adobe Illustrator 16.0.0, SVG Export Plug-In . SVG Version: 6.00 Build 0)  -->
<!DOCTYPE svg PUBLIC "-//W3C//DTD SVG 1.1//EN" "http://www.w3.org/Graphics/SVG/1.1/DTD/svg11.dtd">
<svg version="1.1" id="Layer_1" xmlns="http://www.w3.org/2000/svg" xmlns:xlink="http://www.w3.org/1999/xlink" x="0px" y="0px"
	 width="64px" height="64px" viewBox="0 0 64 64" style="enable-background:new 0 0 64 64;" xml:space="preserve">
<g id="Box_6_">
	<g>
		<path style="fill:#FFCC66;" d="M2,26v33.998C2,62.209,3.791,64,6,64h52c2.209,0,4-1.791,4-4.002V26H2z"/>
	</g>
</g>
<g id="Lid_8_">
	<g>
		<path style="fill:#E6B85C;" d="M60,14H4c-2.209,0-4,1.791-4,4v12h64V18C64,15.791,62.209,14,60,14z"/>
	</g>
</g>
<g id="Ribbon_28_">
	<g>
		<rect x="26" y="30" style="fill:#ED7161;" width="12" height="34"/>
	</g>
</g>
<g id="Ribbon_26_">
	<g>
		<rect x="26" y="14" style="fill:#BA594C;" width="12" height="16"/>
	</g>
</g>
<g id="Knot_12_">
	<g>
		<circle style="fill:#BA594C;" cx="32" cy="14" r="4"/>
	</g>
</g>
<g id="Ribbon_24_">
	<g>
		<path style="fill-rule:evenodd;clip-rule:evenodd;fill:#ED7261;" d="M20,0c-4,0-8,4-8,8c0,6,16,6,16,6S26,0,20,0z M18,8
			c0-1.195,0.688-4,2-4c2,0,4,8,4,8S18,9.875,18,8z"/>
	</g>
</g>
<g id="Ribbon_22_">
	<g>
		<path style="fill-rule:evenodd;clip-rule:evenodd;fill:#ED7261;" d="M44,0c-6,0-8,14-8,14s16,0,16-6C52,4,48,0,44,0z M40,12
			c0,0,2-8,4-8c1.313,0,2,2.805,2,4C46,9.875,40,12,40,12z"/>
	</g>
</g>
<g>
</g>
<g>
</g>
<g>
</g>
<g>
</g>
<g>
</g>
<g>
</g>
<g>
</g>
<g>
</g>
<g>
</g>
<g>
</g>
<g>
</g>
<g>
</g>
<g>
</g>
<g>
</g>
<g>
</g>
</svg>
