<?xml version="1.0" encoding="iso-8859-1"?>
<!-- Generator: Adobe Illustrator 16.0.0, SVG Export Plug-In . SVG Version: 6.00 Build 0)  -->
<!DOCTYPE svg PUBLIC "-//W3C//DTD SVG 1.1//EN" "http://www.w3.org/Graphics/SVG/1.1/DTD/svg11.dtd">
<svg version="1.1" id="Layer_1" xmlns="http://www.w3.org/2000/svg" xmlns:xlink="http://www.w3.org/1999/xlink" x="0px" y="0px"
	 width="52px" height="64px" viewBox="0 0 52 64" style="enable-background:new 0 0 52 64;" xml:space="preserve">
<g id="Gingerbread">
	<g>
		<path style="fill:#BF9871;" d="M38,36c3.868,0,3.053,4,8,4c3.571,0,6-3.08,6-6c0-2.734-2.329-6-6-6c-2.796,0-10-2.207-10-4
			c0-1.795,4-2.922,4-10c0-8.723-7.21-14-14-14S12,5.277,12,14c0,7.078,4,8.205,4,10c0,1.793-7.204,4-10,4c-3.671,0-6,3.266-6,6
			c0,2.92,2.428,6,6,6c4.946,0,4.132-4,8-4c1.431,0,2,1.172,2,4c0,4.516-8.19,9.998-10,9.998c-2.061,0-4,1.607-4,4.002
			c0,3.33,6.069,10,10,10c5.181,0,8.688-12,14-12s8.819,12,14,12c3.931,0,10-6.67,10-10c0-2.395-1.94-4.002-4-4.002
			c-1.811,0-10-5.482-10-9.998C36,37.172,36.569,36,38,36z"/>
	</g>
</g>
<g id="Decorations">
	<g>
		<path style="fill-rule:evenodd;clip-rule:evenodd;fill:#FFCC66;" d="M13,35.758c0.956-0.6,1.284-1.928,0.732-2.965l-2-3.758
			C11.18,27.998,9.957,27.643,9,28.242c-0.957,0.598-1.284,1.926-0.732,2.963l2,3.758C10.82,36,12.043,36.355,13,35.758z M45,28.299
			c-0.957-0.59-2.18-0.24-2.732,0.783l-2,3.699c-0.552,1.021-0.225,2.328,0.732,2.918c0.956,0.59,2.18,0.24,2.732-0.781l2-3.701
			C46.284,30.195,45.957,28.889,45,28.299z M12.973,50.48c-0.688-0.688-1.804-0.688-2.491,0c-0.688,0.688-0.688,1.803,0,2.49
			l4.491,4.492c0.688,0.688,1.803,0.688,2.491,0c0.688-0.688,0.688-1.803,0-2.49L12.973,50.48z M39.027,50.48l-4.491,4.492
			c-0.688,0.688-0.688,1.803,0,2.49c0.688,0.688,1.804,0.688,2.491,0l4.491-4.492c0.688-0.688,0.688-1.803,0-2.49
			S39.716,49.793,39.027,50.48z"/>
	</g>
</g>
<g id="Buttons_2_">
	<g>
		<path style="fill-rule:evenodd;clip-rule:evenodd;fill:#FFFFFF;" d="M26,34c1.104,0,2-0.896,2-2c0-1.105-0.896-2.002-2-2.002
			S24,30.895,24,32C24,33.104,24.896,34,26,34z M26,38c-1.104,0-2,0.895-2,2c0,1.104,0.896,2,2,2s2-0.896,2-2
			C28,38.895,27.104,38,26,38z"/>
	</g>
</g>
<g id="Face_4_">
	<g>
		<path style="fill-rule:evenodd;clip-rule:evenodd;fill:#FFFFFF;" d="M22,12c1.104,0,2-0.896,2-2c0-1.105-0.896-2-2-2s-2,0.895-2,2
			C20,11.104,20.896,12,22,12z M30,12c1.104,0,2-0.896,2-2c0-1.105-0.896-2-2-2s-2,0.895-2,2C28,11.104,28.896,12,30,12z M30,16
			c-1.75,0-2.138,2-4,2s-2.25-2-4-2c-1.25,0-2,1.125-2,2c0,1.75,2.75,4,6,4s6-2.25,6-4C32,17.125,31.25,16,30,16z"/>
	</g>
</g>
<g>
</g>
<g>
</g>
<g>
</g>
<g>
</g>
<g>
</g>
<g>
</g>
<g>
</g>
<g>
</g>
<g>
</g>
<g>
</g>
<g>
</g>
<g>
</g>
<g>
</g>
<g>
</g>
<g>
</g>
</svg>
