<?xml version="1.0" encoding="iso-8859-1"?>
<!-- Generator: Adobe Illustrator 16.0.0, SVG Export Plug-In . SVG Version: 6.00 Build 0)  -->
<!DOCTYPE svg PUBLIC "-//W3C//DTD SVG 1.1//EN" "http://www.w3.org/Graphics/SVG/1.1/DTD/svg11.dtd">
<svg version="1.1" id="Layer_1" xmlns="http://www.w3.org/2000/svg" xmlns:xlink="http://www.w3.org/1999/xlink" x="0px" y="0px"
	 width="52px" height="64px" viewBox="0 0 52 64" style="enable-background:new 0 0 52 64;" xml:space="preserve">
<g id="Ring_10_">
	<g>
		<path style="fill-rule:evenodd;clip-rule:evenodd;fill:#CCCCCC;" d="M26,0c-4.418,0-8,3.582-8,8s3.582,8,8,8s8-3.582,8-8
			S30.418,0,26,0z M26,12c-2.209,0-4-1.791-4-4c0-2.211,1.791-4,4-4s4,1.789,4,4C30,10.209,28.209,12,26,12z"/>
	</g>
</g>
<g id="Top">
	<g>
		<path style="fill:#387BA8;" d="M32,8H20c-2.209,0-4,1.791-4,4v2c0,2.209,1.791,4,4,4h12c2.209,0,4-1.791,4-4v-2
			C36,9.791,34.209,8,32,8z"/>
	</g>
</g>
<g id="Globe">
	<g>
		<path style="fill-rule:evenodd;clip-rule:evenodd;fill:#48A0DC;" d="M26,12C15.186,12,5.918,18.605,1.998,28h48.004
			C46.082,18.605,36.814,12,26,12z M26,64c10.814,0,20.082-6.605,24-16H2C5.918,57.395,15.186,64,26,64z"/>
	</g>
</g>
<g id="Globe_1_">
	<g>
		<path style="fill-rule:evenodd;clip-rule:evenodd;fill:#F06EAA;" d="M1.998,28C0.715,31.079,0,34.455,0,38s0.715,6.921,2,10h48
			c1.285-3.079,2-6.455,2-10s-0.715-6.921-1.998-10H1.998z"/>
	</g>
</g>
<g id="Decoration_12_">
	<g>
		<path style="fill-rule:evenodd;clip-rule:evenodd;fill:#FFFFFF;" d="M50.584,34.588L48,37.172l-2.584-2.584
			C45.055,34.225,44.555,34,44,34s-1.055,0.225-1.416,0.588L40,37.172l-2.584-2.584C37.055,34.225,36.555,34,36,34
			s-1.055,0.225-1.416,0.588L32,37.172l-2.584-2.584C29.055,34.225,28.555,34,28,34s-1.055,0.225-1.416,0.588L24,37.172
			l-2.584-2.584C21.055,34.225,20.555,34,20,34s-1.055,0.225-1.416,0.588L16,37.172l-2.586-2.586C13.053,34.225,12.553,34,12,34
			c-0.555,0-1.055,0.225-1.416,0.588L8,37.172l-2.584-2.584c-0.146-0.146-0.328-0.253-0.516-0.35
			c-0.043-0.021-0.076-0.062-0.121-0.08C4.541,34.057,4.277,34,4,34s-0.541,0.057-0.779,0.158c-0.055,0.022-0.092,0.068-0.143,0.096
			c-0.178,0.094-0.354,0.193-0.494,0.334l-2.539,2.54C0.035,37.42,0,37.705,0,38c0,1.341,0.133,2.647,0.328,3.934
			c0.416-0.072,0.801-0.234,1.086-0.521L4,38.828l2.586,2.585C6.947,41.775,7.447,42,8,42s1.053-0.225,1.414-0.587L12,38.828
			l2.586,2.585C14.947,41.775,15.447,42,16,42s1.053-0.225,1.414-0.587L20,38.828l2.586,2.585C22.947,41.775,23.447,42,24,42
			s1.053-0.225,1.414-0.587L28,38.828l2.586,2.585C30.947,41.775,31.447,42,32,42s1.053-0.225,1.414-0.587L36,38.828l2.586,2.585
			C38.947,41.775,39.447,42,40,42s1.053-0.225,1.414-0.587L44,38.828l2.586,2.585C46.947,41.775,47.447,42,48,42
			c0.551,0,1.051-0.225,1.414-0.586l2.541-2.542C51.965,38.58,52,38.295,52,38c0-1.341-0.133-2.647-0.328-3.934
			C51.254,34.139,50.869,34.301,50.584,34.588z"/>
	</g>
</g>
<g>
</g>
<g>
</g>
<g>
</g>
<g>
</g>
<g>
</g>
<g>
</g>
<g>
</g>
<g>
</g>
<g>
</g>
<g>
</g>
<g>
</g>
<g>
</g>
<g>
</g>
<g>
</g>
<g>
</g>
</svg>
