<?xml version="1.0" encoding="iso-8859-1"?>
<!-- Generator: Adobe Illustrator 16.0.0, SVG Export Plug-In . SVG Version: 6.00 Build 0)  -->
<!DOCTYPE svg PUBLIC "-//W3C//DTD SVG 1.1//EN" "http://www.w3.org/Graphics/SVG/1.1/DTD/svg11.dtd">
<svg version="1.1" id="Layer_1" xmlns="http://www.w3.org/2000/svg" xmlns:xlink="http://www.w3.org/1999/xlink" x="0px" y="0px"
	 width="60px" height="64px" viewBox="0 0 60 64" style="enable-background:new 0 0 60 64;" xml:space="preserve">
<g id="Ring_23_">
	<g>
		<path style="fill-rule:evenodd;clip-rule:evenodd;fill:#CCCCCC;" d="M30,0c-4.418,0-8,3.582-8,8s3.582,8,8,8s8-3.582,8-8
			S34.418,0,30,0z M30,12c-2.209,0-4-1.791-4-4c0-2.211,1.791-4,4-4s4,1.789,4,4C34,10.209,32.209,12,30,12z"/>
	</g>
</g>
<g id="Top_4_">
	<g>
		<path style="fill:#638C3F;" d="M36,8H24c-2.209,0-4,1.791-4,4v2c0,2.209,1.791,4,4,4h12c2.209,0,4-1.791,4-4v-2
			C40,9.791,38.209,8,36,8z"/>
	</g>
</g>
<g id="Globe_15_">
	<g>
		<path style="fill-rule:evenodd;clip-rule:evenodd;fill:#88C057;" d="M30,12C19.186,12,9.918,18.605,5.998,28h48.004
			C50.082,18.605,40.814,12,30,12z M30,64c10.814,0,20.082-6.605,24-16H6C9.918,57.395,19.186,64,30,64z"/>
	</g>
</g>
<g id="Globe_13_">
	<g>
		<path style="fill-rule:evenodd;clip-rule:evenodd;fill:#FFCC66;" d="M5.998,28C4.715,31.079,4,34.455,4,38s0.715,6.921,2,10h48
			c1.285-3.079,2-6.455,2-10s-0.715-6.921-1.998-10H5.998z"/>
	</g>
</g>
<g id="Decoration_40_">
	<g>
		<path style="fill-rule:evenodd;clip-rule:evenodd;fill:#FFFFFF;" d="M54,32c-3.314,0-6,2.686-6,6c0,1.104-0.896,2-2,2
			c-1.105,0-2-0.896-2-2c0-3.314-2.688-6-6-6c-3.314,0-6,2.686-6,6c0,1.104-0.896,2-2,2c-1.105,0-2-0.896-2-2c0-3.314-2.688-6-6-6
			c-3.314,0-6,2.686-6,6c0,1.104-0.896,2-2,2c-1.105,0-2-0.896-2-2c0-3.314-2.688-6-6-6c-0.453,0-0.891,0.06-1.316,0.155
			C4.25,34.036,4,35.987,4,38c0-1.105,0.895-2,2-2c1.104,0,2,0.895,2,2c0,3.313,2.686,6,6,6c3.313,0,6-2.688,6-6
			c0-1.105,0.895-2,2-2c1.104,0,2,0.895,2,2c0,3.313,2.686,6,6,6c3.313,0,6-2.688,6-6c0-1.105,0.895-2,2-2c1.104,0,2,0.895,2,2
			c0,3.313,2.686,6,6,6c3.313,0,6-2.688,6-6c0-1.105,0.895-2,2-2c1.104,0,2,0.895,2,2c0-2.013-0.25-3.963-0.684-5.845
			C54.891,32.06,54.453,32,54,32z"/>
	</g>
</g>
<g>
</g>
<g>
</g>
<g>
</g>
<g>
</g>
<g>
</g>
<g>
</g>
<g>
</g>
<g>
</g>
<g>
</g>
<g>
</g>
<g>
</g>
<g>
</g>
<g>
</g>
<g>
</g>
<g>
</g>
</svg>
