<?xml version="1.0" encoding="iso-8859-1"?>
<!-- Generator: Adobe Illustrator 16.0.0, SVG Export Plug-In . SVG Version: 6.00 Build 0)  -->
<!DOCTYPE svg PUBLIC "-//W3C//DTD SVG 1.1//EN" "http://www.w3.org/Graphics/SVG/1.1/DTD/svg11.dtd">
<svg version="1.1" id="Layer_1" xmlns="http://www.w3.org/2000/svg" xmlns:xlink="http://www.w3.org/1999/xlink" x="0px" y="0px"
	 width="64px" height="56.001px" viewBox="0 0 64 56.001" style="enable-background:new 0 0 64 56.001;" xml:space="preserve">
<g id="Cauldron_7_">
	<g>
		<path style="fill:#4D4D4D;" d="M56.026,15.998c0-2,1.999-5.998,1.999-5.998H6.039c0,0,1.999,3.998,1.999,5.998
			c0,4-5.998,8-5.998,16c0,13.252,12.323,21.998,29.992,21.998c17.668,0,29.992-8.746,29.992-21.998
			C62.024,23.998,56.026,19.998,56.026,15.998z"/>
	</g>
</g>
<g id="Handles_2_">
	<g>
		<path style="fill-rule:evenodd;clip-rule:evenodd;fill:#333333;" d="M8.981,19.732l-5.693-3.43
			c-1.048-0.631-2.389-0.256-2.994,0.838c-0.604,1.094-0.245,2.49,0.803,3.123l5.692,3.428c1.049,0.631,2.389,0.256,2.993-0.836
			C10.387,21.762,10.029,20.363,8.981,19.732z M63.709,17.141c-0.597-1.094-1.921-1.469-2.956-0.838l-5.622,3.43
			c-1.035,0.631-1.39,2.029-0.792,3.123c0.598,1.092,1.921,1.467,2.956,0.836l5.623-3.428
			C63.954,19.631,64.308,18.234,63.709,17.141z"/>
	</g>
</g>
<g id="Legs_18_">
	<g>
		<path style="fill-rule:evenodd;clip-rule:evenodd;fill:#333333;" d="M14.037,45.996c-2.209,0-3.999,5.789-3.999,8
			c0,2.209-0.209,2,1.999,2c2.209,0,7.998-3.793,7.998-6C20.035,47.787,16.245,45.996,14.037,45.996z M53.841,53.996
			c0-2.211-1.757-8-3.925-8s-5.888,1.791-5.888,4c0,2.207,5.683,6,7.851,6C54.046,55.996,53.841,56.205,53.841,53.996z"/>
	</g>
</g>
<g id="Gold_2_">
	<g>
		<path style="fill:#FFCC66;" d="M51.027,8c-0.364,0-0.704,0.059-1.028,0.139C50.002,8.09,50.027,8.049,50.027,8
			c0-1.105-0.895-2-1.999-2c0-1.105-0.896-2-2-2c-0.459,0-0.861,0.18-1.199,0.441c-0.253-0.131-0.52-0.24-0.826-0.311
			C44.005,4.084,44.029,4.047,44.029,4c0-1.105-0.896-2-2-2c-0.459,0-0.861,0.182-1.199,0.441C40.323,2.182,39.719,2,39.03,2
			c-0.688,0-1.294,0.182-1.8,0.441C36.893,2.182,36.49,2,36.031,2c0-1.105-0.896-2-1.999-2c-0.51,0-0.962,0.205-1.314,0.518
			C32.236,0.191,31.657,0,31.032,0c-1.385,0-2.539,0.943-2.884,2.219C27.803,2.08,27.428,2,27.033,2
			c-0.37,0-0.715,0.084-1.041,0.207C26,2.135,26.034,2.074,26.034,2c0-1.105-0.896-2-2-2c-0.516,0-0.977,0.207-1.331,0.529
			C22.226,0.203,21.658,0,21.035,0c-1.317,0-2.424,0.854-2.826,2.035C18.148,2.029,18.097,2,18.036,2c-1.104,0-2,0.895-2,2v0.141
			C14.877,4.418,14.037,5.133,14.037,6c0,0.059,0.035,0.111,0.044,0.17c-0.26,0.088-0.508,0.197-0.729,0.348
			C12.999,6.205,12.546,6,12.037,6c-1.104,0-1.999,0.895-1.999,2c0,0.047,0.023,0.086,0.026,0.131C8.891,8.402,8.038,9.125,8.038,10
			h5.999c0,1.104,0.895,2,1.999,2c0.516,0,0.974-0.209,1.328-0.527C17.84,11.799,18.412,12,19.035,12c0.771,0,1.468-0.301,2-0.779
			C21.566,11.699,22.262,12,23.034,12c0.367,0,0.715-0.076,1.039-0.197c-0.007,0.068-0.039,0.127-0.039,0.197
			c0,1.102,0.896,1.998,2,1.998c0.509,0,0.961-0.205,1.314-0.52c0.479,0.328,1.06,0.52,1.685,0.52c1.316,0,2.423-0.855,2.826-2.033
			C31.918,11.971,31.97,12,32.032,12c0.509,0,0.962-0.205,1.314-0.52c0.479,0.328,1.06,0.52,1.685,0.52
			c0.921,0,1.735-0.424,2.285-1.078C38.03,11.586,38.978,12,40.03,12c0.18,0,0.352-0.031,0.525-0.055
			c0.686,1.219,1.976,2.053,3.474,2.053c1.518,0,2.821-0.855,3.499-2.1C47.692,11.941,47.85,12,48.028,12
			c1.104,0,1.999-0.896,1.999-2h3.999C54.026,8.895,52.683,8,51.027,8z"/>
	</g>
</g>
<g>
</g>
<g>
</g>
<g>
</g>
<g>
</g>
<g>
</g>
<g>
</g>
<g>
</g>
<g>
</g>
<g>
</g>
<g>
</g>
<g>
</g>
<g>
</g>
<g>
</g>
<g>
</g>
<g>
</g>
</svg>
