<?xml version="1.0" encoding="iso-8859-1"?>
<!-- Generator: Adobe Illustrator 16.0.0, SVG Export Plug-In . SVG Version: 6.00 Build 0)  -->
<!DOCTYPE svg PUBLIC "-//W3C//DTD SVG 1.1//EN" "http://www.w3.org/Graphics/SVG/1.1/DTD/svg11.dtd">
<svg version="1.1" id="Layer_1" xmlns="http://www.w3.org/2000/svg" xmlns:xlink="http://www.w3.org/1999/xlink" x="0px" y="0px"
	 width="64px" height="64px" viewBox="0 0 64 64" style="enable-background:new 0 0 64 64;" xml:space="preserve">
<g id="Cross_23_">
	<g>
		<path style="fill-rule:evenodd;clip-rule:evenodd;fill:#B3B3B3;" d="M44,10h-8V2c0-1.105-0.896-2-2-2h-4c-1.105,0-2,0.895-2,2v8
			h-8c-1.105,0-2,0.895-2,2v4c0,1.104,0.895,2,2,2h8v22h8V18h8c1.104,0,2-0.896,2-2v-4C46,10.895,45.104,10,44,10z"/>
	</g>
</g>
<g id="Step_10_">
	<g>
		<path style="fill:#999999;" d="M62,56H2c-1.105,0-2,0.895-2,2v4c0,1.104,0.895,2,2,2h60c1.104,0,2-0.896,2-2v-4
			C64,56.895,63.104,56,62,56z"/>
	</g>
</g>
<g id="Step_8_">
	<g>
		<path style="fill:#B3B3B3;" d="M56,48H8c-1.105,0-2,0.895-2,2v6h52v-6C58,48.895,57.104,48,56,48z"/>
	</g>
</g>
<g id="Step_6_">
	<g>
		<path style="fill:#CCCCCC;" d="M48,40H16c-1.105,0-2,0.895-2,2v6h36v-6C50,40.895,49.104,40,48,40z"/>
	</g>
</g>
<g>
</g>
<g>
</g>
<g>
</g>
<g>
</g>
<g>
</g>
<g>
</g>
<g>
</g>
<g>
</g>
<g>
</g>
<g>
</g>
<g>
</g>
<g>
</g>
<g>
</g>
<g>
</g>
<g>
</g>
</svg>
