<?xml version="1.0" encoding="iso-8859-1"?>
<!-- Generator: Adobe Illustrator 16.0.0, SVG Export Plug-In . SVG Version: 6.00 Build 0)  -->
<!DOCTYPE svg PUBLIC "-//W3C//DTD SVG 1.1//EN" "http://www.w3.org/Graphics/SVG/1.1/DTD/svg11.dtd">
<svg version="1.1" id="Layer_1" xmlns="http://www.w3.org/2000/svg" xmlns:xlink="http://www.w3.org/1999/xlink" x="0px" y="0px"
	 width="52px" height="64px" viewBox="0 0 52 64" style="enable-background:new 0 0 52 64;" xml:space="preserve">
<g id="Band_6_">
	<g>
		<path style="fill:#E6E6E6;" d="M48,48H4c-2.209,0-4,1.791-4,4v8c0,2.209,1.791,4,4,4h44c2.209,0,4-1.791,4-4v-8
			C52,49.791,50.209,48,48,48z"/>
	</g>
</g>
<g id="Hat">
	<g>
		<path style="fill:#ED7161;" d="M44,38c0-6,2-6,2-14c0-9.686-18-16-18-16C28,31.941,4,20,4,48c11.902,0,44,0,44,0
			C48,44.369,44,43.426,44,38z"/>
	</g>
</g>
<g id="Ball_2_">
	<g>
		<circle style="fill:#E6E6E6;" cx="28" cy="6" r="6"/>
	</g>
</g>
<g>
</g>
<g>
</g>
<g>
</g>
<g>
</g>
<g>
</g>
<g>
</g>
<g>
</g>
<g>
</g>
<g>
</g>
<g>
</g>
<g>
</g>
<g>
</g>
<g>
</g>
<g>
</g>
<g>
</g>
</svg>
