<?xml version="1.0" encoding="iso-8859-1"?>
<!-- Generator: Adobe Illustrator 16.0.0, SVG Export Plug-In . SVG Version: 6.00 Build 0)  -->
<!DOCTYPE svg PUBLIC "-//W3C//DTD SVG 1.1//EN" "http://www.w3.org/Graphics/SVG/1.1/DTD/svg11.dtd">
<svg version="1.1" id="Layer_1" xmlns="http://www.w3.org/2000/svg" xmlns:xlink="http://www.w3.org/1999/xlink" x="0px" y="0px"
	 width="56px" height="64.002px" viewBox="0 0 56 64.002" style="enable-background:new 0 0 56 64.002;" xml:space="preserve">
<g id="String_3_">
	<g>
		<path style="fill:#CCCCCC;" d="M28,48.002c-1.104,0-2,0.895-2,2v12c0,1.104,0.896,2,2,2s2-0.896,2-2v-12
			C30,48.896,29.104,48.002,28,48.002z"/>
	</g>
</g>
<g id="Heart_1_">
	<g>
		<path style="fill:#ED7161;" d="M39.999,0C32,0,31.063,4.002,28,4.002S23.875,0,15.999,0C8.268,0,0,6.148,0,16.002
			c0,16,22,30,28,30s28-14,28-30C56,6.002,47.731,0,39.999,0z"/>
	</g>
</g>
<g id="Balloon_4_">
	<g>
		<path style="fill:#D46557;" d="M28,44.002c-3.438,0-6,4.611-6,6c0,1.387,1.083,2,2,2c0.916,0,7.083,0,8,0c0.916,0,2-0.613,2-2
			C34,48.613,31.438,44.002,28,44.002z"/>
	</g>
</g>
<g>
</g>
<g>
</g>
<g>
</g>
<g>
</g>
<g>
</g>
<g>
</g>
<g>
</g>
<g>
</g>
<g>
</g>
<g>
</g>
<g>
</g>
<g>
</g>
<g>
</g>
<g>
</g>
<g>
</g>
</svg>
