<?xml version="1.0" encoding="iso-8859-1"?>
<!-- Generator: Adobe Illustrator 16.0.0, SVG Export Plug-In . SVG Version: 6.00 Build 0)  -->
<!DOCTYPE svg PUBLIC "-//W3C//DTD SVG 1.1//EN" "http://www.w3.org/Graphics/SVG/1.1/DTD/svg11.dtd">
<svg version="1.1" id="Layer_1" xmlns="http://www.w3.org/2000/svg" xmlns:xlink="http://www.w3.org/1999/xlink" x="0px" y="0px"
	 width="60px" height="64px" viewBox="0 0 60 64" style="enable-background:new 0 0 60 64;" xml:space="preserve">
<g id="Shank_6_">
	<g>
		<path style="fill:#CCCCCC;" d="M54,54c0,0,6-6,6-22C60,16.535,46.568,2,30,2S0,16.535,0,32c0,16,6,22,6,22s-4,1.971-4,4
			c0,2,2.186,6,4,6c1.967,0,12-4,12-6s-8-2-8-24c0-11.047,8.953-20,20-20c11.045,0,20,8.953,20,20c0,22-8,22-8,24s9.975,6,12,6
			c2,0,4-3.947,4-6C58,56.023,54,54,54,54z"/>
	</g>
</g>
<g id="Toe_6_">
	<g>
		<path style="fill-rule:evenodd;clip-rule:evenodd;fill:#999999;" d="M30,0c-3.344,0-8.213,0.725-8,2c2,12,2,12,8,12s6,0,8-12
			C38.213,0.725,33.344,0,30,0z M30,10c-3.438,0-4-2-4-4c0-1.293,0.656-2,4-2s4,0.707,4,2C34,8,33.438,10,30,10z"/>
	</g>
</g>
<g>
</g>
<g>
</g>
<g>
</g>
<g>
</g>
<g>
</g>
<g>
</g>
<g>
</g>
<g>
</g>
<g>
</g>
<g>
</g>
<g>
</g>
<g>
</g>
<g>
</g>
<g>
</g>
<g>
</g>
</svg>
