<?xml version="1.0" encoding="iso-8859-1"?>
<!-- Generator: Adobe Illustrator 16.0.0, SVG Export Plug-In . SVG Version: 6.00 Build 0)  -->
<!DOCTYPE svg PUBLIC "-//W3C//DTD SVG 1.1//EN" "http://www.w3.org/Graphics/SVG/1.1/DTD/svg11.dtd">
<svg version="1.1" id="Layer_1" xmlns="http://www.w3.org/2000/svg" xmlns:xlink="http://www.w3.org/1999/xlink" x="0px" y="0px"
	 width="64px" height="64px" viewBox="0 0 64 64" style="enable-background:new 0 0 64 64;" xml:space="preserve">
<g id="Base_5_">
	<g>
		<path style="fill:#CC6D29;" d="M48,60H16c-1.105,0-2,0.895-2,2s0.895,2,2,2h32c1.105,0,2-0.895,2-2S49.105,60,48,60z"/>
	</g>
</g>
<g id="Jar">
	<g>
		<path style="fill:#FF8833;" d="M48,12H16C10.668,18.555,6,25.768,6,36s4.668,17.445,10,24h32c5.33-6.555,10-13.768,10-24
			S53.33,18.555,48,12z"/>
	</g>
</g>
<g id="Cover">
	<g>
		<path style="fill:#E6E6E6;" d="M50,10H14C3.979,15.498,0,17.441,0,20s4.471,4,8,4s5.941-4,10-4s8.029,2,12,2s4.059-4,6-4
			s4.029,8,8,8s6.146-8,8-8c1.852,0,2.412,4,4,4s8-0.471,8-4S50,10,50,10z"/>
	</g>
</g>
<g id="Cover_1_">
	<g>
		<path style="fill:#CCCCCC;" d="M46,0H18c-2.209,0-4,1.791-4,4v4h36V4C50,1.791,48.209,0,46,0z"/>
	</g>
</g>
<g id="String">
	<g>
		<rect x="14" y="6" style="fill:#999999;" width="36" height="4"/>
	</g>
</g>
<g id="Content">
	<g>
		<path style="fill-rule:evenodd;clip-rule:evenodd;fill:#E67A2E;" d="M20,34c-1.105,0-2,0.895-2,2s0.895,2,2,2c1.104,0,2-0.895,2-2
			S21.104,34,20,34z M26,32c1.104,0,2-0.896,2-2c0-1.105-0.896-2-2-2c-1.105,0-2,0.895-2,2C24,31.104,24.895,32,26,32z M28,40
			c-1.105,0-2,0.895-2,2s0.895,2,2,2s2-0.895,2-2S29.105,40,28,40z M36,30c-1.105,0-2,0.895-2,2c0,1.104,0.895,2,2,2s2-0.896,2-2
			C38,30.895,37.105,30,36,30z M42,38c-1.105,0-2,0.895-2,2c0,1.104,0.895,2,2,2s2-0.896,2-2C44,38.895,43.105,38,42,38z M48,32
			c-1.105,0-2,0.895-2,2c0,1.104,0.895,2,2,2s2-0.896,2-2C50,32.895,49.105,32,48,32z M18,44c-1.105,0-2,0.895-2,2s0.895,2,2,2
			s2-0.895,2-2S19.105,44,18,44z M26,50c-1.105,0-2,0.895-2,2s0.895,2,2,2c1.104,0,2-0.895,2-2S27.104,50,26,50z M36,52
			c-1.105,0-2,0.895-2,2c0,1.104,0.895,2,2,2s2-0.896,2-2C38,52.895,37.105,52,36,52z M36,44c-1.105,0-2,0.895-2,2s0.895,2,2,2
			s2-0.895,2-2S37.105,44,36,44z M46,46c-1.105,0-2,0.895-2,2c0,1.104,0.895,2,2,2s2-0.896,2-2C48,46.895,47.105,46,46,46z M18,28
			c0-1.105-0.896-2-2-2c-1.105,0-2,0.895-2,2c0,1.104,0.895,2,2,2C17.104,30,18,29.104,18,28z"/>
	</g>
</g>
<g>
</g>
<g>
</g>
<g>
</g>
<g>
</g>
<g>
</g>
<g>
</g>
<g>
</g>
<g>
</g>
<g>
</g>
<g>
</g>
<g>
</g>
<g>
</g>
<g>
</g>
<g>
</g>
<g>
</g>
</svg>
