<?xml version="1.0" encoding="iso-8859-1"?>
<!-- Generator: Adobe Illustrator 16.0.0, SVG Export Plug-In . SVG Version: 6.00 Build 0)  -->
<!DOCTYPE svg PUBLIC "-//W3C//DTD SVG 1.1//EN" "http://www.w3.org/Graphics/SVG/1.1/DTD/svg11.dtd">
<svg version="1.1" id="Layer_1" xmlns="http://www.w3.org/2000/svg" xmlns:xlink="http://www.w3.org/1999/xlink" x="0px" y="0px"
	 width="64px" height="46px" viewBox="0 0 64 46" style="enable-background:new 0 0 64 46;" xml:space="preserve">
<g id="Sole">
	<g>
		<path style="fill-rule:evenodd;clip-rule:evenodd;fill:#A67C52;" d="M4,26v6v3.998V36l2,10h14l2-8v-0.484
			C29.59,41.057,36.412,46,46,46c9.914,0,18-6,18-20H4z"/>
	</g>
</g>
<g id="Upper">
	<g>
		<path style="fill:#88C057;" d="M54,10c0,0,2,3.465,2,6s-2.373,8-8,8c-5.629,0-12-4.59-12-14c0-7.086,6-10,6-10
			C31.686,0,27.682,6,20,6C13.201,6,6.734,2,4,2S0,4,0,4s6,0.191,6,6s-4,9.133-4,16c0,2.756,2,4,2,4s0-2,4-2
			c14.863,0,23.074,12,38,12c9.914,0,18-5.111,18-16C64,13.109,54,10,54,10z"/>
	</g>
</g>
<g id="Belt">
	<g>
		<path style="fill:#A67C52;" d="M36.049,10.578C31.406,11.99,20,15.693,20,18c0,1.756,1.977,6,4,6c1.504,0,9.611-4.42,13.672-6.689
			C36.732,15.455,36.129,13.229,36.049,10.578z"/>
	</g>
</g>
<g id="Buckle_2_">
	<g>
		<path style="fill:#FFCC66;" d="M37.207,16.334C35.83,16.902,33.043,18,32,18c-1.408,0-2-1.947-2-4c0-1.121,3.822-1.643,6.18-1.861
			C36.1,11.441,36,10.762,36,10c0-0.713,0.098-1.352,0.207-1.982C31.182,8.109,26,8.604,26,10c0,6.063,2.965,14,6,14
			c2.652,0,6.561-2.881,7.672-3.742C38.672,19.188,37.84,17.865,37.207,16.334z"/>
	</g>
</g>
<g>
</g>
<g>
</g>
<g>
</g>
<g>
</g>
<g>
</g>
<g>
</g>
<g>
</g>
<g>
</g>
<g>
</g>
<g>
</g>
<g>
</g>
<g>
</g>
<g>
</g>
<g>
</g>
<g>
</g>
</svg>
