<?xml version="1.0" encoding="iso-8859-1"?>
<!-- Generator: Adobe Illustrator 16.0.0, SVG Export Plug-In . SVG Version: 6.00 Build 0)  -->
<!DOCTYPE svg PUBLIC "-//W3C//DTD SVG 1.1//EN" "http://www.w3.org/Graphics/SVG/1.1/DTD/svg11.dtd">
<svg version="1.1" id="Layer_1" xmlns="http://www.w3.org/2000/svg" xmlns:xlink="http://www.w3.org/1999/xlink" x="0px" y="0px"
	 width="64px" height="64px" viewBox="0 0 64 64" style="enable-background:new 0 0 64 64;" xml:space="preserve">
<g id="Vest_6_">
	<g>
		<polygon style="fill:#666666;" points="40,36 24,36 22,38 22,64 42,64 42,38 		"/>
	</g>
</g>
<g id="Shirt_18_">
	<g>
		<polygon style="fill:#FFFFFF;" points="40,36 24,36 22,38 32,64 42,38 		"/>
	</g>
</g>
<g id="Coat_16_">
	<g>
		<path style="fill:#88C057;" d="M4,48c-3.76,3.76-4,16-4,16h24l-2-26C22,38,5.879,46.119,4,48z M60,48c-1.881-1.881-18-10-18-10
			l-2,26h24C64,64,63.76,51.76,60,48z"/>
	</g>
</g>
<g id="Collar_16_">
	<g>
		<path style="fill:#75A64B;" d="M14,44l4,2l-4,3.998L22,64h2l-2-26L14,44z M50,44l-8-6l-2,26h2l8-14.002L46,46L50,44z"/>
	</g>
</g>
<g id="Button_2_">
	<g>
		<circle style="fill:#666666;" cx="32" cy="50" r="2"/>
	</g>
</g>
<g id="Head_70_">
	<g>
		<path style="fill:#F5CAAB;" d="M32,4c-7.732,0-14,3.998-14,12c0,6,2,7.998,4,11.998c2,4.002,6.08,8,10,8c3.918,0,8-3.998,10-8
			c2-4,4-5.998,4-11.998C46,7.998,39.73,4,32,4z"/>
	</g>
</g>
<g id="Hair_28_">
	<g>
		<path style="fill:#FF8833;" d="M42,27.998c-1.66,3.32-4.756,6.604-8,7.639V34c0-1.105-0.896-2-2-2c-1.105,0-2,0.895-2,2v1.637
			c-3.244-1.035-6.34-4.318-8-7.639C20,24,18.002,21.992,18,16v9.99c0,0.002,0,0.006,0,0.01c0,6,2,7.998,4,12
			c2,4,6.08,7.998,10,7.998c3.918,0,8-3.998,10-7.998c2-4.002,4-6,4-12V16C46,22,44,24,42,27.998z"/>
	</g>
</g>
<g id="Brim_16_">
	<g>
		<path style="fill:#638C3F;" d="M50,10H14c-1.105,0-2,0.895-2,2c0,2.008,2.596,6,20,6s20-4,20-6C52,10.895,51.104,10,50,10z"/>
	</g>
</g>
<g id="Crown_25_">
	<g>
		<path style="fill:#88C057;" d="M38,0H26c-4.418,0-8,3.582-8,8v2c0,1.104,0.895,2,2,2h24c1.104,0,2-0.896,2-2V8
			C46,3.582,42.418,0,38,0z"/>
	</g>
</g>
<g>
</g>
<g>
</g>
<g>
</g>
<g>
</g>
<g>
</g>
<g>
</g>
<g>
</g>
<g>
</g>
<g>
</g>
<g>
</g>
<g>
</g>
<g>
</g>
<g>
</g>
<g>
</g>
<g>
</g>
</svg>
