<?xml version="1.0" encoding="iso-8859-1"?>
<!-- Generator: Adobe Illustrator 16.0.0, SVG Export Plug-In . SVG Version: 6.00 Build 0)  -->
<!DOCTYPE svg PUBLIC "-//W3C//DTD SVG 1.1//EN" "http://www.w3.org/Graphics/SVG/1.1/DTD/svg11.dtd">
<svg version="1.1" id="Layer_1" xmlns="http://www.w3.org/2000/svg" xmlns:xlink="http://www.w3.org/1999/xlink" x="0px" y="0px"
	 width="64.001px" height="64.017px" viewBox="0 0 64.001 64.017" style="enable-background:new 0 0 64.001 64.017;"
	 xml:space="preserve">
<g id="Envelope_6_">
	<g>
		<path style="fill:#CCCCCC;" d="M63.952,28.017c0.008-0.922-0.381-1.844-1.184-2.545l-8.768-7.67v-5.785c0-2.209-1.791-4-4-4
			h-7.186L34.843,1.04c-1.586-1.387-4.158-1.387-5.746,0l-7.973,6.977h-7.123c-2.209,0-4,1.791-4,4v5.73l-8.828,7.725
			c-0.818,0.715-1.197,1.605-1.172,2.545v32c0,2.209,1.791,4,4,4h56c2.209,0,4-1.791,4-4L63.952,28.017z"/>
	</g>
</g>
<g id="Paper_4_">
	<g>
		<path style="fill:#FFFFFF;" d="M48.001,12.017h-32c-1.105,0-2,0.895-2,2v19.838l18,15.459l18-15.459V14.017
			C50.001,12.911,49.106,12.017,48.001,12.017z"/>
	</g>
</g>
<g id="Container_14_">
	<g>
		<path style="fill:#FFFFFF;" d="M33.417,53.55c-0.354,0.295-0.779,0.418-1.207,0.443c-0.07,0.012-0.137,0.02-0.209,0.021
			c-0.072-0.002-0.139-0.01-0.209-0.021c-0.428-0.025-0.854-0.148-1.209-0.443L4.001,30.718v27.299c0,1.104,0.895,2,2,2h52
			c1.104,0,2-0.896,2-2V30.718L33.417,53.55z"/>
	</g>
</g>
<g id="Heart_18_">
	<g>
		<path style="fill:#ED7161;" d="M44.001,24.366c0-3.523-2.893-6.379-6.461-6.379c-2.367,0-4.414,1.268-5.539,3.141
			c-1.127-1.873-3.174-3.141-5.539-3.141c-3.568,0-6.461,2.855-6.461,6.379c0,1.762,0.723,3.357,1.895,4.512L21.89,28.88l8.518,8.25
			h0.027c0.322,0.537,0.889,0.916,1.566,0.916s1.244-0.379,1.566-0.916h0.027l8.516-8.25l-0.004-0.002
			C43.276,27.724,44.001,26.128,44.001,24.366z"/>
	</g>
</g>
<g>
</g>
<g>
</g>
<g>
</g>
<g>
</g>
<g>
</g>
<g>
</g>
<g>
</g>
<g>
</g>
<g>
</g>
<g>
</g>
<g>
</g>
<g>
</g>
<g>
</g>
<g>
</g>
<g>
</g>
</svg>
