<?xml version="1.0" encoding="iso-8859-1"?>
<!-- Generator: Adobe Illustrator 16.0.0, SVG Export Plug-In . SVG Version: 6.00 Build 0)  -->
<!DOCTYPE svg PUBLIC "-//W3C//DTD SVG 1.1//EN" "http://www.w3.org/Graphics/SVG/1.1/DTD/svg11.dtd">
<svg version="1.1" id="Layer_1" xmlns="http://www.w3.org/2000/svg" xmlns:xlink="http://www.w3.org/1999/xlink" x="0px" y="0px"
	 width="64px" height="64px" viewBox="0 0 64 64" style="enable-background:new 0 0 64 64;" xml:space="preserve">
<g id="Male_2_">
	<g>
		<path style="fill-rule:evenodd;clip-rule:evenodd;fill:#48A0DC;" d="M60,0H48c-2.209,0-4,1.791-4,4s1.791,4,4,4h2l-8.879,8.879
			C36.859,13.82,31.646,12,26,12C11.641,12,0,23.641,0,38s11.641,26,26,26s26-11.641,26-26c0-5.646-1.82-10.859-4.879-15.121L56,14
			v2c0,2.209,1.791,4,4,4s4-1.791,4-4V4C64,1.791,62.209,0,60,0z M26,56c-9.941,0-18-8.059-18-18s8.059-18,18-18s18,8.059,18,18
			S35.941,56,26,56z"/>
	</g>
</g>
<g>
</g>
<g>
</g>
<g>
</g>
<g>
</g>
<g>
</g>
<g>
</g>
<g>
</g>
<g>
</g>
<g>
</g>
<g>
</g>
<g>
</g>
<g>
</g>
<g>
</g>
<g>
</g>
<g>
</g>
</svg>
