<?xml version="1.0" encoding="iso-8859-1"?>
<!-- Generator: Adobe Illustrator 16.0.0, SVG Export Plug-In . SVG Version: 6.00 Build 0)  -->
<!DOCTYPE svg PUBLIC "-//W3C//DTD SVG 1.1//EN" "http://www.w3.org/Graphics/SVG/1.1/DTD/svg11.dtd">
<svg version="1.1" id="Layer_1" xmlns="http://www.w3.org/2000/svg" xmlns:xlink="http://www.w3.org/1999/xlink" x="0px" y="0px"
	 width="56px" height="64px" viewBox="0 0 56 64" style="enable-background:new 0 0 56 64;" xml:space="preserve">
<g id="Mask">
	<g>
		<path style="fill:#F2CBA5;" d="M28,0C13.641,0,2,10.535,2,26c0,15.463,8.707,38,26,38s26-22.537,26-38C54,10.535,42.359,0,28,0z"
			/>
	</g>
</g>
<g id="Eyes_1_">
	<g>
		<path style="fill-rule:evenodd;clip-rule:evenodd;fill:#333333;" d="M18,26c-5.15,0-6,2.238-6,5c0,2.285,3.367,5,6,5
			c3.313,0,6-2.238,6-5C24,26.471,23.625,26,18,26z M38,26c-5.625,0-6,0.471-6,5c0,2.762,2.686,5,6,5c2.633,0,6-2.715,6-5
			C44,28.238,43.15,26,38,26z"/>
	</g>
</g>
<g id="Holes">
	<g>
		<path style="fill-rule:evenodd;clip-rule:evenodd;fill:#666666;" d="M28,38c-1.105,0-2,0.895-2,2c0,1.104,0.895,2,2,2
			c1.104,0,2-0.896,2-2C30,38.895,29.104,38,28,38z M20,44c-1.105,0-2,0.895-2,2c0,1.104,0.895,2,2,2c1.104,0,2-0.896,2-2
			C22,44.895,21.104,44,20,44z M34,44c-1.105,0-2,0.895-2,2c0,1.104,0.895,2,2,2c1.104,0,2-0.896,2-2C36,44.895,35.104,44,34,44z
			 M20,52c-1.105,0-2,0.895-2,2c0,1.104,0.895,1.998,2,1.998c1.104,0,2-0.895,2-1.998C22,52.895,21.104,52,20,52z M34,52
			c-1.105,0-2,0.895-2,2c0,1.104,0.895,1.998,2,1.998c1.104,0,2-0.895,2-1.998C36,52.895,35.104,52,34,52z M8,38
			c-1.105,0-2,0.895-2,2c0,1.104,0.895,2,2,2c1.104,0,2-0.896,2-2C10,38.895,9.104,38,8,38z M46,38c-1.105,0-2,0.895-2,2
			c0,1.104,0.895,2,2,2c1.104,0,2-0.896,2-2C48,38.895,47.104,38,46,38z M14,10c-1.105,0-2,0.895-2,2c0,1.104,0.895,2,2,2
			c1.104,0,2-0.896,2-2C16,10.895,15.104,10,14,10z M40,10c-1.105,0-2,0.895-2,2c0,1.104,0.895,2,2,2c1.104,0,2-0.896,2-2
			C42,10.895,41.104,10,40,10z M22,18c-1.105,0-2,0.895-2,2c0,1.104,0.895,2,2,2c1.104,0,2-0.896,2-2C24,18.895,23.104,18,22,18z
			 M34,20c0-1.105-0.896-2-2-2c-1.105,0-2,0.895-2,2c0,1.104,0.895,2,2,2C33.104,22,34,21.104,34,20z M40,18c-1.105,0-2,0.895-2,2
			c0,1.104,0.895,2,2,2c1.104,0,2-0.896,2-2C42,18.895,41.104,18,40,18z M14,18c-1.105,0-2,0.895-2,2c0,1.104,0.895,2,2,2
			c1.104,0,2-0.896,2-2C16,18.895,15.104,18,14,18z"/>
	</g>
</g>
<g id="Straps">
	<g>
		<path style="fill-rule:evenodd;clip-rule:evenodd;fill:#666666;" d="M2,26c-1.105,0-2,1.791-2,4s0.895,4,2,4c1.104,0,2-1.791,2-4
			S3.104,26,2,26z M24,2c0,1.104,0.895,2,2,2h4c1.104,0,2-0.896,2-2V0h-8V2z M54,26c-1.105,0-2,1.791-2,4s0.895,4,2,4
			c1.104,0,2-1.791,2-4S55.104,26,54,26z"/>
	</g>
</g>
<g>
</g>
<g>
</g>
<g>
</g>
<g>
</g>
<g>
</g>
<g>
</g>
<g>
</g>
<g>
</g>
<g>
</g>
<g>
</g>
<g>
</g>
<g>
</g>
<g>
</g>
<g>
</g>
<g>
</g>
</svg>
