<?xml version="1.0" encoding="iso-8859-1"?>
<!-- Generator: Adobe Illustrator 16.0.0, SVG Export Plug-In . SVG Version: 6.00 Build 0)  -->
<!DOCTYPE svg PUBLIC "-//W3C//DTD SVG 1.1//EN" "http://www.w3.org/Graphics/SVG/1.1/DTD/svg11.dtd">
<svg version="1.1" id="Layer_1" xmlns="http://www.w3.org/2000/svg" xmlns:xlink="http://www.w3.org/1999/xlink" x="0px" y="0px"
	 width="64px" height="64px" viewBox="0 0 64 64" style="enable-background:new 0 0 64 64;" xml:space="preserve">
<g id="Body_11_">
	<g>
		<path style="fill:#735538;" d="M52,34c0-10.811-5.997-15.998-6-16H18c-0.004,0.002-6,5.189-6,16c0,14.25,12,15.563,12,20
			c0,5-6,5.188-6,10c0,0,5-2,8-2c1.938,0,2.125,2,6,2s4.063-2,6-2c3,0,8,2,8,2c0-4.813-6-5-6-10C40,49.563,52,48.25,52,34z"/>
	</g>
</g>
<g id="Brench_1_">
	<g>
		<path style="fill:#4D4D4D;" d="M60,46H4c-2.209,0-4,1.789-4,4c0,2.209,1.791,4,4,4h56c2.209,0,4-1.791,4-4
			C64,47.789,62.209,46,60,46z"/>
	</g>
</g>
<g id="Claws">
	<g>
		<path style="fill-rule:evenodd;clip-rule:evenodd;fill:#BF8D5E;" d="M28,44c-1.104,0-2,0.895-2,2c0-1.105-0.896-2-2-2
			s-2,0.895-2,2v4c0,1.104,0.896,2,2,2s2-0.896,2-2c0,1.104,0.896,2,2,2s2-0.896,2-2v-4C30,44.895,29.104,44,28,44z M40,44
			c-1.104,0-2,0.895-2,2c0-1.105-0.896-2-2-2s-2,0.895-2,2v4c0,1.104,0.896,2,2,2s2-0.896,2-2c0,1.104,0.896,2,2,2s2-0.896,2-2v-4
			C42,44.895,41.104,44,40,44z"/>
	</g>
</g>
<g id="Head_10_">
	<g>
		<path style="fill-rule:evenodd;clip-rule:evenodd;fill:#A67A51;" d="M47.138,8.369C47.588,5.736,48,2.617,48,0
			c-2.253,0-5.139,3.697-6.756,6.064C40.835,6.022,40.42,6,40,6c-3.078,0-5.876,1.168-8,3.073C29.876,7.168,27.078,6,24,6
			c-0.42,0-0.835,0.022-1.244,0.064C21.139,3.697,18.253,0,16,0c0,2.616,0.412,5.736,0.862,8.369C13.917,10.556,12,14.049,12,18
			c0,6.627,5.372,12,12,12c3.078,0,5.876-1.169,8-3.074C34.124,28.831,36.922,30,40,30c6.627,0,12-5.373,12-12
			C52,14.049,50.083,10.556,47.138,8.369z"/>
	</g>
</g>
<g id="Face">
	<g>
		<path style="fill-rule:evenodd;clip-rule:evenodd;fill:#E6E6E6;" d="M40,10c-4.418,0-8,3.582-8,8c0-4.418-3.582-8-8-8
			s-8,3.582-8,8s3.582,8,8,8c1.936,0,3.687-0.715,5.07-1.859L32,30l2.93-5.859C36.313,25.285,38.064,26,40,26c4.418,0,8-3.582,8-8
			S44.418,10,40,10z"/>
	</g>
</g>
<g id="Eyes">
	<g>
		<path style="fill-rule:evenodd;clip-rule:evenodd;fill:#4D4D4D;" d="M24,14c-2.209,0-4,1.791-4,4s1.791,4,4,4s4-1.791,4-4
			S26.209,14,24,14z M40,14c-2.209,0-4,1.791-4,4s1.791,4,4,4s4-1.791,4-4S42.209,14,40,14z"/>
	</g>
</g>
<g>
</g>
<g>
</g>
<g>
</g>
<g>
</g>
<g>
</g>
<g>
</g>
<g>
</g>
<g>
</g>
<g>
</g>
<g>
</g>
<g>
</g>
<g>
</g>
<g>
</g>
<g>
</g>
<g>
</g>
</svg>
