<?xml version="1.0" encoding="iso-8859-1"?>
<!-- Generator: Adobe Illustrator 16.0.0, SVG Export Plug-In . SVG Version: 6.00 Build 0)  -->
<!DOCTYPE svg PUBLIC "-//W3C//DTD SVG 1.1//EN" "http://www.w3.org/Graphics/SVG/1.1/DTD/svg11.dtd">
<svg version="1.1" id="Layer_1" xmlns="http://www.w3.org/2000/svg" xmlns:xlink="http://www.w3.org/1999/xlink" x="0px" y="0px"
	 width="48px" height="64px" viewBox="0 0 48 64" style="enable-background:new 0 0 48 64;" xml:space="preserve">
<g id="Flask">
	<g>
		<path style="fill-rule:evenodd;clip-rule:evenodd;fill:#CCCCCC;" d="M32,17.395V16c1.104,0,2-0.896,2-2v-2c0-1.105-0.896-2-2-2V8
			c0-1.105-0.896-2-2-2H18c-1.105,0-2,0.895-2,2v2c-1.105,0-2,0.895-2,2v2c0,1.104,0.895,2,2,2v1.395C6.685,20.692,0,29.554,0,40
			c0,13.254,10.744,24,24,24c13.254,0,24-10.746,24-24C48,29.554,41.314,20.693,32,17.395z"/>
	</g>
</g>
<g id="Interior_8_">
	<g>
		<path style="fill-rule:evenodd;clip-rule:evenodd;fill:#FFFFFF;" d="M28,20.401V12c0-1.105-0.896-2-2-2h-4c-1.105,0-2,0.895-2,2
			v8.401C10.871,22.254,4,30.323,4,40c0,11.045,8.953,20,20,20c11.045,0,20-8.955,20-20C44,30.323,37.128,22.255,28,20.401z"/>
	</g>
</g>
<g id="Potion">
	<g>
		<path style="fill-rule:evenodd;clip-rule:evenodd;fill:#88C057;" d="M35.975,41.751C35.844,39.66,34.124,38,32,38
			c-2.033,0-3.694,1.523-3.948,3.488c-2.036-0.46-4.083-1.146-6.117-1.812C21.775,38.732,20.989,38,20,38
			c-0.585,0-1.099,0.26-1.465,0.66C17.002,38.268,15.485,38,14,38c-0.063,0-0.119,0.007-0.182,0.008C13.407,36.842,12.307,36,11,36
			c-1.557,0-2.822,1.191-2.971,2.709C5.565,39.284,4,40,4,40c0,11.045,8.953,20,20,20c11.045,0,20-8.955,20-20
			C44,40,40.49,41.217,35.975,41.751z"/>
	</g>
</g>
<g id="Bubbles_1_">
	<g>
		<path style="fill-rule:evenodd;clip-rule:evenodd;fill:#FFCC66;" d="M20,48c-1.105,0-2,0.895-2,2c0,1.104,0.895,2,2,2
			c1.104,0,2-0.896,2-2C22,48.895,21.104,48,20,48z M31,44c-1.656,0-3,1.344-3,3s1.344,3,3,3s3-1.344,3-3S32.656,44,31,44z M28,52
			c-1.105,0-2,0.895-2,2c0,1.104,0.895,2,2,2c1.104,0,2-0.896,2-2C30,52.895,29.104,52,28,52z M16,42c-1.105,0-2,0.895-2,2
			c0,1.104,0.895,2,2,2c1.104,0,2-0.896,2-2C18,42.895,17.104,42,16,42z"/>
	</g>
</g>
<g id="Cork">
	<g>
		<path style="fill-rule:evenodd;clip-rule:evenodd;fill:#A67C52;" d="M28,0h-8c-1.105,0-2,0.895-2,2v4h12V2C30,0.895,29.104,0,28,0
			z M26,10h-4c-1.105,0-2,0.895-2,2v2c0,1.104,0.895,2,2,2h4c1.104,0,2-0.896,2-2v-2C28,10.895,27.104,10,26,10z"/>
	</g>
</g>
<g>
</g>
<g>
</g>
<g>
</g>
<g>
</g>
<g>
</g>
<g>
</g>
<g>
</g>
<g>
</g>
<g>
</g>
<g>
</g>
<g>
</g>
<g>
</g>
<g>
</g>
<g>
</g>
<g>
</g>
</svg>
