<?xml version="1.0" encoding="iso-8859-1"?>
<!-- Generator: Adobe Illustrator 16.0.0, SVG Export Plug-In . SVG Version: 6.00 Build 0)  -->
<!DOCTYPE svg PUBLIC "-//W3C//DTD SVG 1.1//EN" "http://www.w3.org/Graphics/SVG/1.1/DTD/svg11.dtd">
<svg version="1.1" id="Layer_1" xmlns="http://www.w3.org/2000/svg" xmlns:xlink="http://www.w3.org/1999/xlink" x="0px" y="0px"
	 width="64px" height="56.001px" viewBox="0 0 64 56.001" style="enable-background:new 0 0 64 56.001;" xml:space="preserve">
<g id="Crust">
	<g>
		<path style="fill-rule:evenodd;clip-rule:evenodd;fill:#FFD2B2;" d="M50.856,41.202c0.022-0.039,0.052-0.063,0.077-0.098
			L28,27.999L50.93,14.894c-0.024-0.035-0.055-0.059-0.077-0.098c-0.293-0.512-0.175-1.02-0.078-1.275
			c0.347-0.91,0.195-1.934-0.398-2.703c-0.593-0.771-1.541-1.176-2.511-1.076c-0.451,0-0.857-0.064-1.205-0.41
			c-0.419-0.42-0.435-0.934-0.406-1.203c0.103-0.967-0.306-1.918-1.076-2.51c-0.773-0.596-1.795-0.744-2.704-0.398
			c-0.436,0.164-0.896,0.139-1.28-0.084c-0.513-0.297-0.662-0.793-0.706-1.063c-0.154-0.961-0.796-1.771-1.694-2.145
			c-0.898-0.369-1.926-0.248-2.714,0.322c-0.246,0.178-0.741,0.383-1.249,0.248c-0.575-0.152-0.847-0.594-0.958-0.842
			c-0.396-0.889-1.227-1.508-2.192-1.635c-0.964-0.121-1.928,0.258-2.541,1.014C28.97,1.247,28.595,1.601,28,1.601
			s-0.971-0.354-1.141-0.564c-0.612-0.756-1.576-1.135-2.54-1.014c-0.966,0.127-1.796,0.746-2.192,1.635
			c-0.111,0.248-0.383,0.689-0.958,0.842c-0.508,0.135-1.003-0.07-1.25-0.248c-0.787-0.57-1.814-0.691-2.713-0.322
			c-0.898,0.373-1.54,1.184-1.694,2.145c-0.044,0.27-0.193,0.766-0.707,1.063c-0.384,0.223-0.845,0.248-1.279,0.084
			c-0.909-0.346-1.932-0.197-2.704,0.398C10.05,6.21,9.642,7.161,9.745,8.128c0.028,0.27,0.013,0.783-0.407,1.203
			c-0.347,0.346-0.753,0.41-1.204,0.41c-0.97-0.1-1.918,0.305-2.511,1.076c-0.594,0.77-0.745,1.793-0.398,2.703
			c0.097,0.256,0.215,0.764-0.078,1.275c-0.303,0.52-0.798,0.668-1.067,0.713c-0.96,0.152-1.771,0.795-2.144,1.693
			c-0.371,0.898-0.25,1.926,0.321,2.715c0.158,0.219,0.402,0.672,0.249,1.25c-0.154,0.574-0.597,0.848-0.846,0.959
			c-0.889,0.396-1.508,1.227-1.636,2.189c-0.127,0.965,0.255,1.926,1.011,2.539c0.212,0.174,0.566,0.551,0.566,1.146
			c0,0.594-0.355,0.973-0.567,1.145c-0.753,0.613-1.134,1.572-1.008,2.533c0.126,0.963,0.742,1.793,1.627,2.191
			c0.202,0.092,0.689,0.367,0.85,0.963c0.155,0.58-0.091,1.037-0.25,1.256c-0.57,0.789-0.689,1.818-0.318,2.715
			c0.373,0.898,1.186,1.541,2.145,1.693c0.27,0.041,0.766,0.191,1.064,0.705c0.217,0.375,0.247,0.838,0.082,1.27
			c-0.348,0.904-0.116,1.924,0.474,2.695s1.617,1.17,2.586,1.082c0.289,0,0.706,0.074,1.057,0.422
			c0.418,0.416,0.433,0.93,0.403,1.199c-0.103,0.967,0.305,1.918,1.074,2.512c0.771,0.596,1.795,0.748,2.702,0.402
			c0.438-0.166,0.92-0.133,1.281,0.074c0.519,0.301,0.667,0.797,0.71,1.063c0.153,0.965,0.794,1.777,1.693,2.148
			s1.927,0.254,2.715-0.318c0.378-0.273,0.854-0.357,1.247-0.256c0.577,0.156,0.85,0.596,0.96,0.844
			c0.396,0.889,1.226,1.508,2.19,1.637c0.979,0.133,1.928-0.256,2.541-1.012c0.168-0.209,0.54-0.557,1.141-0.557
			s0.973,0.348,1.14,0.557c0.614,0.756,1.563,1.145,2.542,1.012c0.965-0.129,1.794-0.748,2.19-1.637
			c0.11-0.248,0.382-0.688,0.96-0.844c0.393-0.102,0.869-0.018,1.247,0.256c0.788,0.572,1.815,0.689,2.715,0.318
			s1.54-1.184,1.693-2.148c0.043-0.266,0.191-0.762,0.71-1.063c0.361-0.207,0.843-0.24,1.28-0.074
			c0.908,0.346,1.933,0.193,2.703-0.402c0.77-0.594,1.177-1.545,1.074-2.512c-0.029-0.27-0.015-0.783,0.402-1.199
			c0.352-0.348,0.769-0.422,1.057-0.422c0.969,0.088,1.997-0.311,2.587-1.082s0.821-1.791,0.474-2.695
			C50.609,42.04,50.639,41.577,50.856,41.202z"/>
	</g>
</g>
<g id="Pie">
	<g>
		<path style="fill-rule:evenodd;clip-rule:evenodd;fill:#FF974C;" d="M28,27.999l19.089-10.91C43.296,10.468,36.176,5.997,28,5.997
			c-12.15,0-22,9.85-22,22.002s9.85,22.002,22,22.002c8.177,0,15.297-4.471,19.089-11.092L28,27.999z"/>
	</g>
</g>
<g id="Crust_Slice">
	<g>
		<path style="fill-rule:evenodd;clip-rule:evenodd;fill:#FFD2B2;" d="M58.933,41.104c0.301-0.426,0.738-0.57,0.986-0.607
			c0.96-0.152,1.772-0.795,2.145-1.693c0.372-0.896,0.253-1.926-0.317-2.715c-0.16-0.219-0.405-0.676-0.25-1.256
			c0.159-0.596,0.647-0.871,0.85-0.963c0.885-0.398,1.501-1.229,1.627-2.191c0.126-0.961-0.256-1.92-1.008-2.533
			c-0.212-0.172-0.567-0.551-0.567-1.145c0-0.596,0.354-0.973,0.566-1.146c0.755-0.613,1.137-1.574,1.011-2.539
			c-0.128-0.963-0.747-1.793-1.636-2.189c-0.25-0.111-0.691-0.385-0.846-0.959c-0.154-0.578,0.091-1.031,0.249-1.25
			c0.571-0.789,0.692-1.816,0.321-2.715c-0.372-0.898-1.184-1.541-2.145-1.693c-0.248-0.041-0.686-0.186-0.989-0.615L36,27.999
			L58.933,41.104z"/>
	</g>
</g>
<g id="Pie_Slice">
	<g>
		<path style="fill-rule:evenodd;clip-rule:evenodd;fill:#FF974C;" d="M55.088,38.909C56.931,35.69,58,31.974,58,27.999
			s-1.068-7.691-2.911-10.91L36,27.999L55.088,38.909z"/>
	</g>
</g>
<g id="Decoration_2_">
	<g>
		<path style="fill-rule:evenodd;clip-rule:evenodd;fill:#CC793D;" d="M22,27.999c0-1.105-1.791-2-4-2s-4,0.895-4,2
			c0,1.104,1.791,2,4,2S22,29.103,22,27.999z M46,25.999c-2.209,0-4,0.895-4,2c0,1.104,1.791,2,4,2s4-0.896,4-2
			C50,26.894,48.208,25.999,46,25.999z M35.285,14.224c-1.093-0.609-3.002,0.609-4.265,2.719c-1.263,2.111-1.399,4.318-0.307,4.928
			c1.094,0.611,3.003-0.607,4.266-2.721C36.242,17.038,36.378,14.833,35.285,14.224z M25.285,34.126
			c-1.093-0.609-3.002,0.607-4.265,2.721c-1.263,2.111-1.399,4.316-0.307,4.926c1.094,0.609,3.003-0.607,4.266-2.719
			C26.242,36.94,26.378,34.735,25.285,34.126z M20.713,14.222c-1.093,0.605-0.956,2.791,0.307,4.885
			c1.263,2.096,3.172,3.301,4.265,2.697c1.094-0.605,0.957-2.793-0.306-4.885C23.716,14.825,21.807,13.618,20.713,14.222z
			 M30.713,34.194c-1.093,0.604-0.956,2.789,0.307,4.885c1.263,2.094,3.172,3.301,4.265,2.695c1.094-0.604,0.957-2.789-0.306-4.885
			C33.716,34.796,31.807,33.589,30.713,34.194z"/>
	</g>
</g>
<g>
</g>
<g>
</g>
<g>
</g>
<g>
</g>
<g>
</g>
<g>
</g>
<g>
</g>
<g>
</g>
<g>
</g>
<g>
</g>
<g>
</g>
<g>
</g>
<g>
</g>
<g>
</g>
<g>
</g>
</svg>
