<?xml version="1.0" encoding="iso-8859-1"?>
<!-- Generator: Adobe Illustrator 16.0.0, SVG Export Plug-In . SVG Version: 6.00 Build 0)  -->
<!DOCTYPE svg PUBLIC "-//W3C//DTD SVG 1.1//EN" "http://www.w3.org/Graphics/SVG/1.1/DTD/svg11.dtd">
<svg version="1.1" id="Layer_1" xmlns="http://www.w3.org/2000/svg" xmlns:xlink="http://www.w3.org/1999/xlink" x="0px" y="0px"
	 width="64px" height="48px" viewBox="0 0 64 48" style="enable-background:new 0 0 64 48;" xml:space="preserve">
<g id="Blue_6_">
	<g>
		<path style="fill:#387AA7;" d="M32,12c-7.732,0-14,6.268-14,14h4h0.015c0-5.516,4.471-9.986,9.985-9.986s9.985,4.471,9.985,9.986
			H46C46,18.268,39.731,12,32,12z"/>
	</g>
</g>
<g id="Green_4_">
	<g>
		<path style="fill:#88C057;" d="M32,8c-9.941,0-18,8.059-18,18h4h0.008c0-7.729,6.265-13.992,13.992-13.992
			S45.991,18.271,45.991,26H50C50,16.059,41.941,8,32,8z"/>
	</g>
</g>
<g id="Yellow_2_">
	<g>
		<path style="fill:#FFCC66;" d="M32,4c-12.15,0-22,9.85-22,22h4c0-9.941,8.059-18,18-18s18,8.059,18,18h4C54,13.85,44.149,4,32,4z"
			/>
	</g>
</g>
<g id="Red_10_">
	<g>
		<path style="fill:#ED7161;" d="M32,0C17.641,0,6,11.641,6,26h4c0-12.15,9.85-22.002,22-22.002S54,13.85,54,26h4
			C58,11.641,46.359,0,32,0z"/>
	</g>
</g>
<g id="Cloud_6_">
	<g>
		<path style="fill-rule:evenodd;clip-rule:evenodd;fill:#E6E6E6;" d="M59.905,19.059C59.45,16.195,56.991,14,54,14
			c-2.77,0-5.078,1.887-5.769,4.439C47.54,18.162,46.79,18,46,18c-3.313,0-6,2.686-6,6c0,0.18,0.037,0.35,0.053,0.525
			C38.834,25.211,38,26.502,38,28c0,2.209,1.791,4,4,4c1.076,0,2.048-0.43,2.767-1.121C45.789,32.73,47.736,34,50,34
			c0.999,0,1.927-0.268,2.756-0.699C53.749,33.742,54.843,34,56,34c4.418,0,8-3.582,8-8C64,23.008,62.338,20.43,59.905,19.059z"/>
	</g>
</g>
<g id="Cloud_4_">
	<g>
		<path style="fill-rule:evenodd;clip-rule:evenodd;fill:#CCCCCC;" d="M48,28c-0.94,0-1.829,0.191-2.667,0.49
			C43.908,24.705,40.282,22,36,22c-1.805,0-3.474,0.516-4.935,1.352C29.249,19.033,24.979,16,20,16
			c-5.274,0-9.743,3.406-11.353,8.137C3.771,24.803,0,28.939,0,34c0,5.523,4.477,10,10,10c1.258,0,2.45-0.258,3.56-0.682
			C15.331,46.123,18.437,48,22,48c3.286,0,6.177-1.607,8-4.055C31.822,46.393,34.713,48,38,48c3.371,0,6.338-1.68,8.149-4.236
			C46.746,43.906,47.36,44,48,44c4.418,0,8-3.582,8-8S52.418,28,48,28z"/>
	</g>
</g>
<g>
</g>
<g>
</g>
<g>
</g>
<g>
</g>
<g>
</g>
<g>
</g>
<g>
</g>
<g>
</g>
<g>
</g>
<g>
</g>
<g>
</g>
<g>
</g>
<g>
</g>
<g>
</g>
<g>
</g>
</svg>
