<?xml version="1.0" encoding="iso-8859-1"?>
<!-- Generator: Adobe Illustrator 16.0.0, SVG Export Plug-In . SVG Version: 6.00 Build 0)  -->
<!DOCTYPE svg PUBLIC "-//W3C//DTD SVG 1.1//EN" "http://www.w3.org/Graphics/SVG/1.1/DTD/svg11.dtd">
<svg version="1.1" id="Layer_1" xmlns="http://www.w3.org/2000/svg" xmlns:xlink="http://www.w3.org/1999/xlink" x="0px" y="0px"
	 width="64px" height="56px" viewBox="0 0 64 56" style="enable-background:new 0 0 64 56;" xml:space="preserve">
<g id="Brench_6_">
	<g>
		<path style="fill:#A67C52;" d="M18.574,39.143C11.433,39.752,2,40,2,40s-2,1.695-2,4s2,4,2,4c23.254,0,34.874,4,38,4s4-6,4-6
			C30.122,46,22.622,42.992,18.574,39.143z"/>
	</g>
</g>
<g id="Raven_3_">
	<g>
		<path style="fill:#4D4D4D;" d="M64,46c0,0-6.371-4.297-12-12c-1.704-2.332-3.004-5.613-4-8c-1.118-2.682-7.761-13.066-10-16
			c-2.146-2.814-6.195-4-8-4c0-2.588-3.133-6-8-6s-8,2-8,2s-2.204,0-4,0C3.051,2,0,8,0,8s2.977,2,10,2c3.354,0,6,2.607,6,4
			c0,4.076-2,4.648-2,10c0,4.916-3.1,22,30,22c3.382,0,6.528,2.18,8,4c0.762,0.941,6,6,6,6l6-4c0,0-2.968-1.662-6-4
			C60.166,48,64,46,64,46z"/>
	</g>
</g>
<g id="Eye_17_">
	<g>
		<circle style="fill:#FFFFFF;" cx="20" cy="6" r="2"/>
	</g>
</g>
<g>
</g>
<g>
</g>
<g>
</g>
<g>
</g>
<g>
</g>
<g>
</g>
<g>
</g>
<g>
</g>
<g>
</g>
<g>
</g>
<g>
</g>
<g>
</g>
<g>
</g>
<g>
</g>
<g>
</g>
</svg>
