<?xml version="1.0" encoding="iso-8859-1"?>
<!-- Generator: Adobe Illustrator 16.0.0, SVG Export Plug-In . SVG Version: 6.00 Build 0)  -->
<!DOCTYPE svg PUBLIC "-//W3C//DTD SVG 1.1//EN" "http://www.w3.org/Graphics/SVG/1.1/DTD/svg11.dtd">
<svg version="1.1" id="Layer_1" xmlns="http://www.w3.org/2000/svg" xmlns:xlink="http://www.w3.org/1999/xlink" x="0px" y="0px"
	 width="64px" height="64px" viewBox="0 0 64 64" style="enable-background:new 0 0 64 64;" xml:space="preserve">
<g id="Coat_10_">
	<g>
		<path style="fill:#ED7161;" d="M60,43.999c-1.881-1.879-18-10-18-10l-2-2H24l-2,2.002c0,0-16.121,8.119-18,9.998
			C0.24,47.76,0,64,0,64h64C64,64,63.76,47.76,60,43.999z"/>
	</g>
</g>
<g id="Band_22_">
	<g>
		<rect x="28" y="44" style="fill:#FFFFFF;" width="8" height="20"/>
	</g>
</g>
<g id="Buckle_10_">
	<g>
		<path style="fill:#FFCC66;" d="M36,58h-8c-1.105,0-2,0.895-2,2v4h4v-2h4v2h4v-4C38,58.895,37.104,58,36,58z"/>
	</g>
</g>
<g id="Hat_11_">
	<g>
		<path style="fill-rule:evenodd;clip-rule:evenodd;fill:#ED7161;" d="M50,16.001C50,7.164,42.836,0,34,0S18,7.164,18,16.001h18
			c0,6.938,6.035,16,20,16c0-0.514,0-1.281,0-2C52.061,30.001,50,23.493,50,16.001z"/>
	</g>
</g>
<g id="Head_44_">
	<g>
		<rect x="20" y="16.001" style="fill:#F5CAAB;" width="24" height="16"/>
	</g>
</g>
<g id="Beard_2_">
	<g>
		<path style="fill:#E6E6E6;" d="M44,26.001c0,0-2.867,2-6,2c-3.135,0-8.867,0-12,0c-3.135,0-6-2-6-2c-2,0-2,4-2,6
			c0,8.889,2,3.938,2,12c0,3.559,7.939,4.061,4,8c1.447,0,3.436-1.535,5.305-3.322c0.887,0.561,1.785,1.02,2.695,1.32
			c0.91-0.301,1.807-0.76,2.695-1.32C36.564,50.465,38.551,52,40,52c-3.939-3.939,4-4.441,4-8c0-8.062,2-3.111,2-12
			C46,30.001,46,26.001,44,26.001z"/>
	</g>
</g>
<g id="Mustache_2_">
	<g>
		<path style="fill:#FFFFFF;" d="M40,30.001c-2.563,0-3.375-4-8-4s-5.438,4-8,4c-4,0-4-2-4-2s0,6,6,6c4,0,6-2,6-2s2,2,6,2
			c6,0,6-6,6-6S44,30.001,40,30.001z"/>
	</g>
</g>
<g id="Band_20_">
	<g>
		<path style="fill:#E6E6E6;" d="M32,10c-6.766,0-14,2.002-14,6c0,0.697,0,2.002,0,2.002s0,4,2,4c0-4,5.234-4,12-4s12,0,12,4
			c2,0,2-4,2-4s0-1.18,0-2.002C46,12.001,38.766,10,32,10z"/>
	</g>
</g>
<g id="Ball_10_">
	<g>
		<circle style="fill:#E6E6E6;" cx="55" cy="31.001" r="5"/>
	</g>
</g>
<g>
</g>
<g>
</g>
<g>
</g>
<g>
</g>
<g>
</g>
<g>
</g>
<g>
</g>
<g>
</g>
<g>
</g>
<g>
</g>
<g>
</g>
<g>
</g>
<g>
</g>
<g>
</g>
<g>
</g>
</svg>
