<?xml version="1.0" encoding="iso-8859-1"?>
<!-- Generator: Adobe Illustrator 16.0.0, SVG Export Plug-In . SVG Version: 6.00 Build 0)  -->
<!DOCTYPE svg PUBLIC "-//W3C//DTD SVG 1.1//EN" "http://www.w3.org/Graphics/SVG/1.1/DTD/svg11.dtd">
<svg version="1.1" id="Layer_1" xmlns="http://www.w3.org/2000/svg" xmlns:xlink="http://www.w3.org/1999/xlink" x="0px" y="0px"
	 width="64px" height="64px" viewBox="0 0 64 64" style="enable-background:new 0 0 64 64;" xml:space="preserve">
<g id="Shank_1_">
	<g>
		<path style="fill:#A67C52;" d="M30,36c0,4.213-3.518,10-6,10c-4.068,0-4-10-4-10L0,44c6.684,6.684,6.932,20,22,20
			c11.391,0,18-11.5,18-26L30,36z"/>
	</g>
</g>
<g id="Stem_1_">
	<g>
		<path style="fill:#666666;" d="M62,0C39.957,0,30,14.75,30,30l10,2C40,9.412,50.092,4,62,4c1.105,0,2-0.896,2-2
			C64,0.895,63.105,0,62,0z"/>
	</g>
</g>
<g id="Ring_7_">
	<g>
		<path style="fill:#FFCC66;" d="M40,32l-10-2c0,0-2-0.021-2,4c0,1.979,2,2,2,2l10,2c0,0,2,0,2-4C42,32,40,32,40,32z"/>
	</g>
</g>
<g>
</g>
<g>
</g>
<g>
</g>
<g>
</g>
<g>
</g>
<g>
</g>
<g>
</g>
<g>
</g>
<g>
</g>
<g>
</g>
<g>
</g>
<g>
</g>
<g>
</g>
<g>
</g>
<g>
</g>
</svg>
