<?xml version="1.0" encoding="iso-8859-1"?>
<!-- Generator: Adobe Illustrator 16.0.0, SVG Export Plug-In . SVG Version: 6.00 Build 0)  -->
<!DOCTYPE svg PUBLIC "-//W3C//DTD SVG 1.1//EN" "http://www.w3.org/Graphics/SVG/1.1/DTD/svg11.dtd">
<svg version="1.1" id="Layer_1" xmlns="http://www.w3.org/2000/svg" xmlns:xlink="http://www.w3.org/1999/xlink" x="0px" y="0px"
	 width="36px" height="64px" viewBox="0 0 36 64" style="enable-background:new 0 0 36 64;" xml:space="preserve">
<g id="Hanger_4_">
	<g>
		<path style="fill:#999999;" d="M12,0c-1.438,0-2,2-2,4c0,5.521,2,10,2,10s2-4.479,2-10C14,2,13.438,0,12,0z"/>
	</g>
</g>
<g id="Sock_5_">
	<g>
		<path style="fill:#ED7161;" d="M30,40c-2.669-2.67-4-4.207-4-6c0-1.23,1.957-3.889,3.937-6.668
			c-0.564-6.66-16.859-12.141-21-13.15C4.806,21.279,0,32.627,0,38c0,7.16,8.937,16.936,14,22c2.521,2.521,4.694,3.99,8,4
			c7.081,0.02,14-4.547,14-12C36,46.596,32.472,42.473,30,40z"/>
	</g>
</g>
<g id="Heel_4_">
	<g>
		<path style="fill:#D46557;" d="M2.594,27.629C1.063,31.689,0,35.498,0,38c0,3.486,2.124,7.592,4.883,11.473
			C7.636,46.752,10,42.766,10,39C10,34.275,6.492,29.984,2.594,27.629z"/>
	</g>
</g>
<g id="Band_28_">
	<g>
		<path style="fill:#E6E6E6;" d="M14,8c-1.026,0.033-2.959,2.566-5.063,6.182c4.141,1.01,20.436,6.49,21,13.15
			C31.891,24.59,34,21.732,34,20C34,12.285,15.199,7.959,14,8z"/>
	</g>
</g>
<g>
</g>
<g>
</g>
<g>
</g>
<g>
</g>
<g>
</g>
<g>
</g>
<g>
</g>
<g>
</g>
<g>
</g>
<g>
</g>
<g>
</g>
<g>
</g>
<g>
</g>
<g>
</g>
<g>
</g>
</svg>
