<?xml version="1.0" encoding="iso-8859-1"?>
<!-- Generator: Adobe Illustrator 16.0.0, SVG Export Plug-In . SVG Version: 6.00 Build 0)  -->
<!DOCTYPE svg PUBLIC "-//W3C//DTD SVG 1.1//EN" "http://www.w3.org/Graphics/SVG/1.1/DTD/svg11.dtd">
<svg version="1.1" id="Layer_1" xmlns="http://www.w3.org/2000/svg" xmlns:xlink="http://www.w3.org/1999/xlink" x="0px" y="0px"
	 width="60px" height="63.999px" viewBox="0 0 60 63.999" style="enable-background:new 0 0 60 63.999;" xml:space="preserve">
<g id="Legs_16_">
	<g>
		<path style="fill-rule:evenodd;clip-rule:evenodd;fill:#808080;" d="M59.414,44.585l-6-5.998
			c-0.246-0.248-0.553-0.426-0.889-0.518l-12.678-3.456l4.436-0.634c0.563-0.08,1.064-0.396,1.381-0.871l8-12
			c0.398-0.596,0.445-1.361,0.125-2.002l-2-4c-0.496-0.99-1.693-1.391-2.684-0.896c-0.988,0.494-1.389,1.695-0.895,2.686l1.48,2.961
			l-6.859,10.291l-8.336,1.19L43.6,19.2c0.41-0.547,0.512-1.264,0.273-1.902l-6-16c-0.387-1.035-1.541-1.555-2.576-1.172
			c-1.033,0.391-1.557,1.541-1.17,2.576l5.615,14.975L30,30.667l-9.742-12.99l5.615-14.975c0.387-1.035-0.137-2.186-1.172-2.576
			c-1.031-0.383-2.186,0.137-2.574,1.172l-6,16c-0.24,0.639-0.137,1.355,0.273,1.902l9.104,12.138l-8.336-1.19l-6.861-10.291
			l1.482-2.961c0.494-0.99,0.094-2.191-0.895-2.686c-0.99-0.494-2.189-0.092-2.684,0.896l-2,4c-0.32,0.641-0.273,1.406,0.125,2.002
			l8,12c0.314,0.475,0.818,0.791,1.381,0.871l4.434,0.634L7.473,38.069c-0.336,0.092-0.641,0.27-0.887,0.518l-6,5.998
			c-0.781,0.781-0.781,2.049,0,2.828C0.977,47.804,1.488,47.999,2,47.999s1.023-0.195,1.414-0.586l5.625-5.625l10.703-2.919
			l-4.904,3.503c-0.346,0.246-0.602,0.594-0.736,0.994l-4,12c-0.145,0.436-0.135,0.906,0.025,1.338l2.25,6
			c0.301,0.801,1.063,1.295,1.873,1.295c0.232,0,0.471-0.041,0.701-0.125c1.035-0.389,1.559-1.541,1.172-2.578l-2.002-5.334
			l3.57-10.711L30,36.458l12.309,8.793l3.57,10.711l-2.002,5.334c-0.387,1.037,0.137,2.189,1.17,2.578
			c0.232,0.084,0.469,0.125,0.703,0.125c0.809,0,1.572-0.494,1.873-1.295l2.25-6c0.16-0.432,0.17-0.902,0.023-1.338l-4-12
			c-0.133-0.4-0.391-0.748-0.734-0.994L40.26,38.87l10.701,2.918l5.625,5.625c0.391,0.391,0.902,0.586,1.414,0.586
			s1.023-0.195,1.414-0.586C60.195,46.634,60.195,45.366,59.414,44.585z"/>
	</g>
</g>
<g id="Body_50_">
	<g>
		<path style="fill-rule:evenodd;clip-rule:evenodd;fill:#4D4D4D;" d="M33.764,32.612C33.906,31.79,34,30.921,34,30.001
			c0-4.418-1.791-8-4-8s-4,3.582-4,8c0,0.92,0.094,1.789,0.236,2.611C21.455,34.191,18,38.688,18,44.001c0,6.627,5.373,12,12,12
			s12-5.373,12-12C42,38.688,38.545,34.191,33.764,32.612z"/>
	</g>
</g>
<g id="Cross_27_">
	<g>
		<path style="fill-rule:evenodd;clip-rule:evenodd;fill:#ED7161;" d="M34,38.001c0-1.105-0.896-2-2-2h-4c-1.105,0-2,0.895-2,2
			c0,1.104,2.895,4,4,4S34,39.104,34,38.001z M30,42.001c-1.105,0-4,2.895-4,4c0,1.104,0.895,2,2,2h4c1.104,0,2-0.896,2-2
			C34,44.896,31.105,42.001,30,42.001z"/>
	</g>
</g>
<g>
</g>
<g>
</g>
<g>
</g>
<g>
</g>
<g>
</g>
<g>
</g>
<g>
</g>
<g>
</g>
<g>
</g>
<g>
</g>
<g>
</g>
<g>
</g>
<g>
</g>
<g>
</g>
<g>
</g>
</svg>
