<?xml version="1.0" encoding="iso-8859-1"?>
<!-- Generator: Adobe Illustrator 16.0.0, SVG Export Plug-In . SVG Version: 6.00 Build 0)  -->
<!DOCTYPE svg PUBLIC "-//W3C//DTD SVG 1.1//EN" "http://www.w3.org/Graphics/SVG/1.1/DTD/svg11.dtd">
<svg version="1.1" id="Layer_1" xmlns="http://www.w3.org/2000/svg" xmlns:xlink="http://www.w3.org/1999/xlink" x="0px" y="0px"
	 width="48.001px" height="64px" viewBox="0 0 48.001 64" style="enable-background:new 0 0 48.001 64;" xml:space="preserve">
<g id="Base_36_">
	<g>
		<path style="fill-rule:evenodd;clip-rule:evenodd;fill:#88C057;" d="M47.834,47.211c-0.975-1.678-8.214-1.998-14.74,1.75
			c-3.16,1.814-5.555,4.248-7.093,6.469V38c0-1.105-0.896-2-2-2s-2,0.895-2,2v17.43c-1.538-2.221-3.933-4.654-7.093-6.469
			c-6.526-3.748-13.766-3.428-14.741-1.75c-0.975,1.68,2.367,8.078,8.894,11.828c4.893,2.811,10.187,3.334,12.94,2.711V62
			c0,1.105,0.896,2,2,2s2-0.895,2-2v-0.25c2.754,0.623,8.048,0.1,12.94-2.711C45.468,55.289,48.81,48.891,47.834,47.211z"/>
	</g>
</g>
<g id="Petals_14_">
	<g>
		<path style="fill-rule:evenodd;clip-rule:evenodd;fill:#FFBB33;" d="M34.941,24.961C34.313,24.6,33.678,24.287,33.042,24
			c0.636-0.287,1.271-0.6,1.899-0.961c6.526-3.75,9.868-10.148,8.894-11.828c-0.934-1.605-7.596-1.957-13.886,1.293
			C29.484,5.477,25.87,0,24.001,0s-5.483,5.477-5.948,12.504C11.763,9.254,5.1,9.605,4.167,11.211
			c-0.975,1.68,2.367,8.078,8.894,11.828C13.688,23.4,14.324,23.713,14.96,24c-0.636,0.287-1.271,0.6-1.899,0.961
			c-6.526,3.75-9.868,10.146-8.894,11.826c0.933,1.607,7.596,1.959,13.886-1.291C18.518,42.523,22.132,48,24.001,48
			s5.483-5.477,5.948-12.504c6.29,3.25,12.952,2.898,13.886,1.291C44.81,35.107,41.468,28.711,34.941,24.961z"/>
	</g>
</g>
<g id="Petals_12_">
	<g>
		<path style="fill-rule:evenodd;clip-rule:evenodd;fill:#FFCC66;" d="M48.001,24c0-1.869-5.477-5.484-12.506-5.949
			c3.253-6.289,2.9-12.953,1.294-13.885c-1.68-0.975-8.078,2.367-11.827,8.893c-0.361,0.629-0.673,1.264-0.961,1.898
			c-0.288-0.635-0.6-1.27-0.961-1.898c-3.749-6.525-10.147-9.867-11.827-8.893c-1.606,0.932-1.959,7.596,1.293,13.885
			C5.478,18.516,0.001,22.131,0.001,24s5.477,5.484,12.505,5.949c-3.252,6.289-2.899,12.953-1.293,13.885
			c1.68,0.975,8.078-2.367,11.827-8.893c0.361-0.629,0.673-1.264,0.961-1.898c0.288,0.635,0.6,1.27,0.961,1.898
			c3.749,6.525,10.147,9.867,11.827,8.893c1.606-0.932,1.959-7.596-1.294-13.885C42.524,29.484,48.001,25.869,48.001,24z"/>
	</g>
</g>
<g id="Center_14_">
	<g>
		<circle style="fill:#FF8833;" cx="24.001" cy="24" r="10"/>
	</g>
</g>
<g>
</g>
<g>
</g>
<g>
</g>
<g>
</g>
<g>
</g>
<g>
</g>
<g>
</g>
<g>
</g>
<g>
</g>
<g>
</g>
<g>
</g>
<g>
</g>
<g>
</g>
<g>
</g>
<g>
</g>
</svg>
