<?xml version="1.0" encoding="iso-8859-1"?>
<!-- Generator: Adobe Illustrator 16.0.0, SVG Export Plug-In . SVG Version: 6.00 Build 0)  -->
<!DOCTYPE svg PUBLIC "-//W3C//DTD SVG 1.1//EN" "http://www.w3.org/Graphics/SVG/1.1/DTD/svg11.dtd">
<svg version="1.1" id="Layer_1" xmlns="http://www.w3.org/2000/svg" xmlns:xlink="http://www.w3.org/1999/xlink" x="0px" y="0px"
	 width="64px" height="64px" viewBox="0 0 64 64" style="enable-background:new 0 0 64 64;" xml:space="preserve">
<g id="Sweater_3_">
	<g>
		<path style="fill:#ED7161;" d="M60,12c-5.519-1.104-11.616-2.688-16-4c-0.105-4.424-5.537-8-12-8c-6.366,0-11.74,3.67-12,8
			c-4.773,1.334-11.363,2.84-16,4c-1.94,0.484-4,1.791-4,4v44c0,2.209,1.791,4,4,4h56c2.209,0,4-1.791,4-4V16
			C64,13.791,61.961,12.391,60,12z"/>
	</g>
</g>
<g id="Decoration_36_">
	<g>
		<path style="fill-rule:evenodd;clip-rule:evenodd;fill:#FFFFFF;" d="M2,44c1.104,0,2-0.896,2-2c1.104,0,2-0.896,2-2
			c0-1.105-0.896-2-2-2c0-1.105-0.896-2-2-2s-2,0.895-2,2v4C0,43.104,0.896,44,2,44z M12,42c0,1.104,0.896,2,2,2s2-0.896,2-2
			c1.104,0,2-0.896,2-2c0-1.105-0.896-2-2-2c0-1.105-0.896-2-2-2s-2,0.895-2,2c-1.104,0-2,0.895-2,2C10,41.104,10.896,42,12,42z
			 M26,44c1.104,0,2-0.896,2-2c1.104,0,2-0.896,2-2c0-1.105-0.896-2-2-2c0-1.105-0.896-2-2-2s-2,0.895-2,2c-1.104,0-2,0.895-2,2
			c0,1.104,0.896,2,2,2C24,43.104,24.896,44,26,44z M36,42c0,1.104,0.896,2,2,2s2-0.896,2-2c1.104,0,2-0.896,2-2
			c0-1.105-0.896-2-2-2c0-1.105-0.896-2-2-2s-2,0.895-2,2c-1.104,0-2,0.895-2,2C34,41.104,34.896,42,36,42z M50,44
			c1.104,0,2-0.896,2-2c1.104,0,2-0.896,2-2c0-1.105-0.896-2-2-2c0-1.105-0.896-2-2-2s-2,0.895-2,2c-1.104,0-2,0.895-2,2
			c0,1.104,0.896,2,2,2C48,43.104,48.896,44,50,44z M62,36c-1.104,0-2,0.895-2,2c-1.104,0-2,0.895-2,2c0,1.104,0.896,2,2,2
			c0,1.104,0.896,2,2,2s2-0.896,2-2v-4C64,36.895,63.104,36,62,36z M62.585,26.588L60,29.172l-2.585-2.584
			C57.054,26.225,56.553,26,56,26s-1.054,0.225-1.415,0.588L52,29.172l-2.585-2.584C49.054,26.225,48.553,26,48,26
			s-1.054,0.225-1.415,0.588L44,29.172l-2.585-2.584C41.054,26.225,40.553,26,40,26s-1.054,0.225-1.415,0.588L36,29.172
			l-2.585-2.584C33.054,26.225,32.553,26,32,26s-1.054,0.225-1.415,0.588L28,29.172l-2.585-2.584C25.054,26.225,24.553,26,24,26
			s-1.054,0.225-1.415,0.588L20,29.172l-2.585-2.584C17.054,26.225,16.553,26,16,26s-1.054,0.225-1.415,0.588L12,29.172
			l-2.585-2.584C9.054,26.225,8.553,26,8,26s-1.054,0.225-1.415,0.588L4,29.172l-2.585-2.584C1.054,26.225,0.553,26,0,26v2v2v0.828
			l2.586,2.586C2.948,33.775,3.448,34,4,34s1.052-0.225,1.414-0.586L8,30.828l2.586,2.586C10.948,33.775,11.448,34,12,34
			s1.052-0.225,1.414-0.586L16,30.828l2.586,2.586C18.948,33.775,19.448,34,20,34s1.052-0.225,1.414-0.586L24,30.828l2.586,2.586
			C26.948,33.775,27.448,34,28,34s1.052-0.225,1.414-0.586L32,30.828l2.586,2.586C34.948,33.775,35.448,34,36,34
			s1.052-0.225,1.414-0.586L40,30.828l2.586,2.586C42.948,33.775,43.448,34,44,34s1.052-0.225,1.414-0.586L48,30.828l2.586,2.586
			C50.948,33.775,51.448,34,52,34s1.052-0.225,1.414-0.586L56,30.828l2.586,2.586C58.948,33.775,59.448,34,60,34
			s1.052-0.225,1.414-0.586L64,30.828V30v-2v-2C63.447,26,62.946,26.225,62.585,26.588z M60,46c-0.553,0-1.054,0.225-1.415,0.588
			L56,49.172l-2.585-2.584C53.054,46.225,52.553,46,52,46s-1.054,0.225-1.415,0.588L48,49.172l-2.585-2.584
			C45.054,46.225,44.553,46,44,46s-1.054,0.225-1.415,0.588L40,49.172l-2.585-2.584C37.054,46.225,36.553,46,36,46
			s-1.054,0.225-1.415,0.588L32,49.172l-2.585-2.584C29.054,46.225,28.553,46,28,46s-1.054,0.225-1.415,0.588L24,49.172
			l-2.585-2.584C21.054,46.225,20.553,46,20,46s-1.054,0.225-1.415,0.588L16,49.172l-2.585-2.584C13.054,46.225,12.553,46,12,46
			s-1.054,0.225-1.415,0.588L8,49.172l-2.585-2.584C5.054,46.225,4.553,46,4,46s-1.054,0.225-1.415,0.588L0,49.172V50v2v2
			c0.552,0,1.052-0.225,1.414-0.586L4,50.828l2.586,2.586C6.948,53.775,7.448,54,8,54s1.052-0.225,1.414-0.586L12,50.828
			l2.586,2.586C14.948,53.775,15.448,54,16,54s1.052-0.225,1.414-0.586L20,50.828l2.586,2.586C22.948,53.775,23.448,54,24,54
			s1.052-0.225,1.414-0.586L28,50.828l2.586,2.586C30.948,53.775,31.448,54,32,54s1.052-0.225,1.414-0.586L36,50.828l2.586,2.586
			C38.948,53.775,39.448,54,40,54s1.052-0.225,1.414-0.586L44,50.828l2.586,2.586C46.948,53.775,47.448,54,48,54
			s1.052-0.225,1.414-0.586L52,50.828l2.586,2.586C54.948,53.775,55.448,54,56,54s1.052-0.225,1.414-0.586L60,50.828l2.586,2.586
			C62.948,53.775,63.448,54,64,54v-2v-2v-0.828l-2.585-2.584C61.054,46.225,60.553,46,60,46z"/>
	</g>
</g>
<g id="Interior_24_">
	<g>
		<path style="fill:#BA594C;" d="M32,4c-6.526,0-8-0.488-8,4c0,4.486,4.793,12,8,12s8-7.514,8-12C40,3.512,38.526,4,32,4z"/>
	</g>
</g>
<g>
</g>
<g>
</g>
<g>
</g>
<g>
</g>
<g>
</g>
<g>
</g>
<g>
</g>
<g>
</g>
<g>
</g>
<g>
</g>
<g>
</g>
<g>
</g>
<g>
</g>
<g>
</g>
<g>
</g>
</svg>
