<?xml version="1.0" encoding="iso-8859-1"?>
<!-- Generator: Adobe Illustrator 16.0.0, SVG Export Plug-In . SVG Version: 6.00 Build 0)  -->
<!DOCTYPE svg PUBLIC "-//W3C//DTD SVG 1.1//EN" "http://www.w3.org/Graphics/SVG/1.1/DTD/svg11.dtd">
<svg version="1.1" id="Layer_1" xmlns="http://www.w3.org/2000/svg" xmlns:xlink="http://www.w3.org/1999/xlink" x="0px" y="0px"
	 width="44px" height="64px" viewBox="0 0 44 64" style="enable-background:new 0 0 44 64;" xml:space="preserve">
<g id="Stem">
	<g>
		<path style="fill-rule:evenodd;clip-rule:evenodd;fill:#88C057;" d="M34,30c-5.099,5.098-10,8-10,12V18c0-1.105-0.896-2-2-2
			s-2,0.895-2,2v30c0-4-4.901-6.902-10-12C4,30,0,20,0,20s0,16,8,24c4.786,4.785,12,8,12,12v6c0,1.104,0.896,2,2,2s2-0.896,2-2V50
			c0-4,7.214-7.215,12-12c8-8,8-24,8-24S40,24,34,30z"/>
	</g>
</g>
<g id="Petals_2_">
	<g>
		<path style="fill:#D46557;" d="M22,0c0,0-6,13.373-6,20s3.791,12,6,12s6-5.373,6-12S22,0,22,0z"/>
	</g>
</g>
<g id="Petals_3_">
	<g>
		<path style="fill-rule:evenodd;clip-rule:evenodd;fill:#ED7261;" d="M28,0c0,0-6,13.373-6,20c0-6.627-6-20-6-20s-6,13.373-6,20
			s7.791,12,10,12c1.695,0,1.966-3.168,2-7.635C22.034,28.832,22.305,32,24,32c2.209,0,10-5.373,10-12S28,0,28,0z"/>
	</g>
</g>
<g>
</g>
<g>
</g>
<g>
</g>
<g>
</g>
<g>
</g>
<g>
</g>
<g>
</g>
<g>
</g>
<g>
</g>
<g>
</g>
<g>
</g>
<g>
</g>
<g>
</g>
<g>
</g>
<g>
</g>
</svg>
