<?xml version="1.0" encoding="iso-8859-1"?>
<!-- Generator: Adobe Illustrator 16.0.0, SVG Export Plug-In . SVG Version: 6.00 Build 0)  -->
<!DOCTYPE svg PUBLIC "-//W3C//DTD SVG 1.1//EN" "http://www.w3.org/Graphics/SVG/1.1/DTD/svg11.dtd">
<svg version="1.1" id="Layer_1" xmlns="http://www.w3.org/2000/svg" xmlns:xlink="http://www.w3.org/1999/xlink" x="0px" y="0px"
	 width="64px" height="64px" viewBox="0 0 64 64" style="enable-background:new 0 0 64 64;" xml:space="preserve">
<g id="Legs_26_">
	<g>
		<path style="fill-rule:evenodd;clip-rule:evenodd;fill:#FFCC66;" d="M30,60h-2v-6c0-1.105-0.896-2-2-2s-2,0.895-2,2v6h-4
			c-1.104,0-2,0.895-2,2c0,1.104,0.896,2,2,2h10c1.104,0,2-0.896,2-2C32,60.895,31.104,60,30,60z"/>
	</g>
</g>
<g id="Head_78_">
	<g>
		<path style="fill:#BA594C;" d="M14,0C9.222,0,8,4,8,4l2,8c0,4.514-6,11.576-6,20h10v-8c0-4.389,6-10.811,6-18
			C20,2.531,17.12,0,14,0z"/>
	</g>
</g>
<g id="Body_68_">
	<g>
		<path style="fill:#666666;" d="M64,24c0-1.758-1.141-3.234-2.716-3.771C61.725,19.592,62,18.836,62,18
			c0-1.506-0.843-2.803-2.072-3.484C59.951,14.344,60,14.18,60,14c0-2.209-1.791-4-4-4c0-2.209-1.791-4-4-4
			c-0.181,0-0.353,0.029-0.526,0.053C50.789,4.832,49.498,4,48,4c-0.83,0-1.601,0.252-2.239,0.686C45.215,3.125,43.895,2,42,2
			c-3.131,0-8,6.576-8,14c-8.796,0-18.988,2.527-22,8c-2.254,4.094-8,2.512-8,10c0,15.547,12,20,20,20c3.771,3.771,16,6,16,6l-2-4
			l6,2c0,0,1.47-3.656,1.886-6.617C46.5,51.768,47.221,52,48,52c2.209,0,4-1.791,4-4c2.209,0,4-1.791,4-4c2.209,0,4-1.791,4-4
			c0-0.193-0.03-0.379-0.057-0.564C61.155,38.75,62,37.492,62,36c0-0.83-0.253-1.6-0.686-2.24C62.874,33.215,64,31.746,64,30
			c0-1.219-0.557-2.297-1.417-3.031C63.43,26.24,64,25.207,64,24z"/>
	</g>
</g>
<g id="Beak_10_">
	<g>
		<path style="fill:#FFCC66;" d="M0,10c2.422-2.422,8,0,8,0c0-3.723,0-6,0-6S0,5.602,0,10z"/>
	</g>
</g>
<g id="Snood_2_">
	<g>
		<path style="fill:#ED7161;" d="M8,4C7.25,4,6,6.059,6,8c0,3.066-2,5.141-2,8c0,2,0.875,4,2,4c1.813,0,4-2.063,4-8
			C10,8.375,8.688,4,8,4z"/>
	</g>
</g>
<g>
</g>
<g>
</g>
<g>
</g>
<g>
</g>
<g>
</g>
<g>
</g>
<g>
</g>
<g>
</g>
<g>
</g>
<g>
</g>
<g>
</g>
<g>
</g>
<g>
</g>
<g>
</g>
<g>
</g>
</svg>
