<?xml version="1.0" encoding="iso-8859-1"?>
<!-- Generator: Adobe Illustrator 16.0.0, SVG Export Plug-In . SVG Version: 6.00 Build 0)  -->
<!DOCTYPE svg PUBLIC "-//W3C//DTD SVG 1.1//EN" "http://www.w3.org/Graphics/SVG/1.1/DTD/svg11.dtd">
<svg version="1.1" id="Layer_1" xmlns="http://www.w3.org/2000/svg" xmlns:xlink="http://www.w3.org/1999/xlink" x="0px" y="0px"
	 width="64px" height="64px" viewBox="0 0 64 64" style="enable-background:new 0 0 64 64;" xml:space="preserve">
<g id="Web">
	<g>
		<path style="fill-rule:evenodd;clip-rule:evenodd;fill:#CCCCCC;" d="M63.195,42.396c-1.035-0.771-2.07-1.496-3.105-2.192
			c-0.023-0.026-0.035-0.059-0.061-0.083c-11.773-11.772-10.311-24.453-9.963-26.586c4.102-3.692,7.014-5.847,7.113-5.92
			c0.891-0.652,1.086-1.902,0.436-2.795c-0.648-0.891-1.9-1.088-2.793-0.438c-0.424,0.309-3.521,2.596-7.754,6.4
			c-13.563-0.397-25.41-7.945-25.529-8.023c-0.092-0.06-0.195-0.095-0.293-0.139c-1.004-1.184-1.709-1.912-1.826-2.031
			c-0.781-0.783-2.045-0.787-2.828-0.01s-0.789,2.043-0.014,2.828c0.029,0.029,0.744,0.769,1.801,2.042
			C17.703,16.71,6.143,27.492,4,29.393c-1.506,0.354-2.418,0.64-2.617,0.705c-1.051,0.34-1.625,1.465-1.285,2.516
			s1.469,1.629,2.516,1.289c0.041-0.013,0.627-0.192,1.654-0.438C17.855,47.395,18.266,56.83,18.27,57.014
			c0,0.076,0.025,0.146,0.035,0.222C18.117,58.811,18,60.397,18,62c0,1.105,0.895,2,2,2c1.104,0,2-0.895,2-2
			c0-1.385,0.105-2.76,0.264-4.129c13.377-13,28.047-14.443,33.793-14.443c0.742,0,1.324,0.024,1.723,0.049
			c1.01,0.675,2.018,1.377,3.025,2.127C61.164,45.871,61.582,46,61.998,46c0.611,0,1.213-0.277,1.605-0.805
			C64.264,44.309,64.08,43.057,63.195,42.396z M50.928,34.936c-1.227-0.594-2.447-1.146-3.658-1.653
			c-4.691-4.873-3.814-12.175-3.59-13.593c0.73-0.754,1.455-1.487,2.16-2.18C45.914,21.748,46.881,28.15,50.928,34.936z
			 M30.873,19.161c1.895,0.475,4.225,1.007,6.434,1.382c-1.592,1.775-3.189,3.667-4.75,5.666
			C32.213,23.754,31.641,21.385,30.873,19.161z M28.783,28.313c-2.275-0.295-4.459-0.467-6.535-0.547
			c1.75-1.837,3.695-4.061,5.154-6.229C28.082,23.697,28.58,25.965,28.783,28.313z M28.131,32.377
			c-1.17,1.781-2.289,3.615-3.32,5.508c-0.711-1.869-1.711-4.008-3.051-6.021C23.777,31.936,25.908,32.097,28.131,32.377z
			 M32.568,33.08c1.58,0.305,3.193,0.671,4.834,1.112c-2.246,0.688-4.846,1.743-7.682,3.301
			C30.625,35.984,31.578,34.513,32.568,33.08z M35.217,29.447c1.406-1.833,2.85-3.59,4.295-5.244
			c0.129,2.047,0.549,4.43,1.559,6.803C39.08,30.382,37.129,29.873,35.217,29.447z M43.109,14.494
			c-0.805,0.785-1.625,1.604-2.461,2.466c-3.693-0.3-9.584-1.857-11.689-2.439c-0.801-1.688-1.662-3.267-2.535-4.702
			C30.691,11.712,36.564,13.742,43.109,14.494z M21.734,9.962c1.285,1.924,2.619,4.21,3.791,6.74
			c-0.617,2.161-4.816,7.135-8.93,11.06c-2.07,0.08-3.975,0.238-5.686,0.44C14.775,24.023,19.881,17.394,21.734,9.962z
			 M8.943,32.568c2.141-0.32,4.758-0.598,7.742-0.705c3.467,3.656,5.1,9.318,5.57,11.233c-0.826,1.894-1.547,3.83-2.158,5.799
			C18.297,44.722,14.988,39.129,8.943,32.568z M23.541,51.387c0.643-2.279,1.475-4.518,2.441-6.707
			c9.555-7.238,17.158-7.835,19.309-7.838c2.016,0.817,4.055,1.768,6.104,2.844C44.57,40.403,33.943,42.993,23.541,51.387z"/>
	</g>
</g>
<g>
</g>
<g>
</g>
<g>
</g>
<g>
</g>
<g>
</g>
<g>
</g>
<g>
</g>
<g>
</g>
<g>
</g>
<g>
</g>
<g>
</g>
<g>
</g>
<g>
</g>
<g>
</g>
<g>
</g>
</svg>
