<?xml version="1.0" encoding="iso-8859-1"?>
<!-- Generator: Adobe Illustrator 16.0.0, SVG Export Plug-In . SVG Version: 6.00 Build 0)  -->
<!DOCTYPE svg PUBLIC "-//W3C//DTD SVG 1.1//EN" "http://www.w3.org/Graphics/SVG/1.1/DTD/svg11.dtd">
<svg version="1.1" id="Layer_1" xmlns="http://www.w3.org/2000/svg" xmlns:xlink="http://www.w3.org/1999/xlink" x="0px" y="0px"
	 width="64px" height="64px" viewBox="0 0 64 64" style="enable-background:new 0 0 64 64;" xml:space="preserve">
<g id="Brim_12_">
	<g>
		<path style="fill:#846A91;" d="M60,48H4c-2.209,0-4,1.791-4,4c0,4.018,11.978,12,32,12s32-8,32-12C64,49.791,62.209,48,60,48z"/>
	</g>
</g>
<g id="Crown_19_">
	<g>
		<path style="fill:#9B7CAB;" d="M46,44c0-6.041-1.127-14.389-2-18c-1.013-4.189-10-9.377-10-12c0-1.771,2.031-6.445,2-10
			c-0.016-1.711-0.684-4-2-4c-1.977,0-12,13.443-12,16c0,4.385,6,6.467,6,10s-6,14-8,18C20,44,43.625,44,46,44z"/>
	</g>
</g>
<g id="Band_32_">
	<g>
		<path style="fill:#333333;" d="M20,44c-0.988,1.977-2,4.895-2,6c0,1.104,0.896,2,2,2h24c1.104,0,2-0.896,2-2c0-1.105,0-6,0-6
			S25.75,44,20,44z"/>
	</g>
</g>
<g id="Buckle_12_">
	<g>
		<path style="fill-rule:evenodd;clip-rule:evenodd;fill:#FFCC66;" d="M36,42h-8c-1.104,0-2,0.895-2,2v8c0,1.104,0.896,2,2,2h8
			c1.104,0,2-0.896,2-2v-8C38,42.895,37.104,42,36,42z M34,50h-4v-4h4V50z"/>
	</g>
</g>
<g>
</g>
<g>
</g>
<g>
</g>
<g>
</g>
<g>
</g>
<g>
</g>
<g>
</g>
<g>
</g>
<g>
</g>
<g>
</g>
<g>
</g>
<g>
</g>
<g>
</g>
<g>
</g>
<g>
</g>
</svg>
