<?xml version="1.0" encoding="iso-8859-1"?>
<!-- Generator: Adobe Illustrator 16.0.0, SVG Export Plug-In . SVG Version: 6.00 Build 0)  -->
<!DOCTYPE svg PUBLIC "-//W3C//DTD SVG 1.1//EN" "http://www.w3.org/Graphics/SVG/1.1/DTD/svg11.dtd">
<svg version="1.1" id="Layer_1" xmlns="http://www.w3.org/2000/svg" xmlns:xlink="http://www.w3.org/1999/xlink" x="0px" y="0px"
	 width="63.998px" height="64.002px" viewBox="0 0 63.998 64.002" style="enable-background:new 0 0 63.998 64.002;"
	 xml:space="preserve">
<g id="Dirt">
	<g>
		<path style="fill-rule:evenodd;clip-rule:evenodd;fill:#A67C52;" d="M52,36c-1.105,0-2,0.895-2,2c0,1.104,0.895,2,2,2s2-0.896,2-2
			C54,36.895,53.105,36,52,36z M42,42c-1.105,0-2,0.895-2,2c0,1.104,0.895,2,2,2s2-0.896,2-2C44,42.895,43.105,42,42,42z M12,40
			c1.105,0,2-0.896,2-2c0-1.105-0.895-2-2-2s-2,0.895-2,2C10,39.104,10.895,40,12,40z M15,42c-1.656,0-3,1.342-3,3
			c0,1.656,1.344,3,3,3s3-1.344,3-3C18,43.342,16.656,42,15,42z M10,52c-1.105,0-2,0.895-2,2c0,1.104,0.895,2,2,2s2-0.896,2-2
			C12,52.895,11.105,52,10,52z"/>
	</g>
</g>
<g id="Hand">
	<g>
		<path style="fill:#88C057;" d="M54,24c-1.221,0-2.852,1.998-4,1.998s-6,0-6,0s3.34-3.34,4-3.998c1.125-1.125,4-7.875,4-10
			c0-1.092-2.148-2-4-2c-1.5,0-2.25,6.25-4,8c-0.688,0.688-6.697,4.023-6.697,4.023S42,14.254,42,12c0-1.629-4.877-12-6-12
			c-1.379,0-4,0.137-4,2c0,1.861,4,8.137,4,10c0,1.361-6,6-6,6s2-4.424,2-6c0-1.578-4.82-10-6-10s-4,2.611-4,3.998
			c0,1.389,4,3.891,4,6.002c0,2.109-4.344,12-6,12s-2-2-2-2s0-1.139,0-2c0-1.863,0.426-4-2-4c-3.613,0-4,4.762-4,8
			c0,4.736,3.127,9.285,6,12s4,10.559,4,14s-2,14-2,14h16l-2-18c0,0,2,0.039,2-2s-1.311-4.689,0-6c1.25-1.25,6.625-6,8-6
			c1.625,0,4.301,0,6,0s6-3.283,6-4C56,25.783,55.221,24,54,24z"/>
	</g>
</g>
<g id="Ground">
	<g>
		<path style="fill:#A67C52;" d="M56,56c-2.791,0-1.951-2-4-2c-5.195,0-4.135-4-8-4c-4.535,0-8,4-8,4s-3.219-2-8-2c-4.432,0-6,4-6,4
			s-2.209-2-6-2c-3.029,0-4,4-4,4s-2.141-2-4-2s-4,4-4,4s-4-0.777-4,2c0,0.926,0.777,2.002,1.746,2.002s62.252,0,62.252,0
			S59.826,56,56,56z"/>
	</g>
</g>
<g>
</g>
<g>
</g>
<g>
</g>
<g>
</g>
<g>
</g>
<g>
</g>
<g>
</g>
<g>
</g>
<g>
</g>
<g>
</g>
<g>
</g>
<g>
</g>
<g>
</g>
<g>
</g>
<g>
</g>
</svg>
