<?xml version="1.0" encoding="iso-8859-1"?>
<!-- Generator: Adobe Illustrator 16.0.0, SVG Export Plug-In . SVG Version: 6.00 Build 0)  -->
<!DOCTYPE svg PUBLIC "-//W3C//DTD SVG 1.1//EN" "http://www.w3.org/Graphics/SVG/1.1/DTD/svg11.dtd">
<svg version="1.1" id="Layer_1" xmlns="http://www.w3.org/2000/svg" xmlns:xlink="http://www.w3.org/1999/xlink" x="0px" y="0px"
	 width="60px" height="64px" viewBox="0 0 60 64" style="enable-background:new 0 0 60 64;" xml:space="preserve">
<g id="Heel_7_">
	<g>
		<path style="fill:#666666;" d="M0,18c0,0,6,16,6,44c0,1.104,0.895,2,2,2c1.104,0,2-0.896,2-2V36c0-3.999,0-6,2-6s4,2.001,4,2.001
			L18,18H0z"/>
	</g>
</g>
<g id="Shoe_16_">
	<g>
		<path style="fill:#999999;" d="M46,38c-6-4-6-24-6-30c0,0-8,2-18,2c0,0-6-2-12-10C10,0,0,6.787,0,16v2c0,0,6,0,16,14.001
			C26,46,24,63.999,32,64c14,0,20-3.999,26-8c2-8,2-10,2-12C60,40.001,52,42,46,38z"/>
	</g>
</g>
<g id="Zipper">
	<g>
		<path style="fill-rule:evenodd;clip-rule:evenodd;fill:#CCCCCC;" d="M21,8.269C20.043,7.716,18.82,8.044,18.268,9l-6,10
			c-0.553,0.957-0.225,2.18,0.732,2.732c0.956,0.552,2.18,0.225,2.731-0.732l6-10C22.284,10.044,21.956,8.82,21,8.269z"/>
	</g>
</g>
<g>
</g>
<g>
</g>
<g>
</g>
<g>
</g>
<g>
</g>
<g>
</g>
<g>
</g>
<g>
</g>
<g>
</g>
<g>
</g>
<g>
</g>
<g>
</g>
<g>
</g>
<g>
</g>
<g>
</g>
</svg>
