<?xml version="1.0" encoding="iso-8859-1"?>
<!-- Generator: Adobe Illustrator 16.0.0, SVG Export Plug-In . SVG Version: 6.00 Build 0)  -->
<!DOCTYPE svg PUBLIC "-//W3C//DTD SVG 1.1//EN" "http://www.w3.org/Graphics/SVG/1.1/DTD/svg11.dtd">
<svg version="1.1" id="Layer_1" xmlns="http://www.w3.org/2000/svg" xmlns:xlink="http://www.w3.org/1999/xlink" x="0px" y="0px"
	 width="60px" height="64px" viewBox="0 0 60 64" style="enable-background:new 0 0 60 64;" xml:space="preserve">
<g id="Platform">
	<g>
		<path style="fill-rule:evenodd;clip-rule:evenodd;fill:#F06EAA;" d="M32,44V18v-2H0v2c0,6.001,16,10.001,16,28.001
			c0,10-10,12-10,14C6,62,8,64,10,64s22,0,22,0c14,0,20-3.999,26-8c2-8,2-10.001,2-12H32z"/>
	</g>
</g>
<g id="Shoe_15_">
	<g>
		<path style="fill:#E6E6E6;" d="M46,38c-6-4-6-24-6-30c0,0-8,2-18,2c0,0-6-2-12-10C10,0,0,8,0,16c0,0,14,4.001,20,16.001
			c10,20,8,26,14,26s14,0,20-4.001c3.02-2.013,4.517-3.011,5.262-3.508C59.986,46.893,60,45.426,60,44C60,40.001,52,42,46,38z"/>
	</g>
</g>
<g>
</g>
<g>
</g>
<g>
</g>
<g>
</g>
<g>
</g>
<g>
</g>
<g>
</g>
<g>
</g>
<g>
</g>
<g>
</g>
<g>
</g>
<g>
</g>
<g>
</g>
<g>
</g>
<g>
</g>
</svg>
