<?xml version="1.0" encoding="iso-8859-1"?>
<!-- Generator: Adobe Illustrator 16.0.0, SVG Export Plug-In . SVG Version: 6.00 Build 0)  -->
<!DOCTYPE svg PUBLIC "-//W3C//DTD SVG 1.1//EN" "http://www.w3.org/Graphics/SVG/1.1/DTD/svg11.dtd">
<svg version="1.1" id="Layer_1" xmlns="http://www.w3.org/2000/svg" xmlns:xlink="http://www.w3.org/1999/xlink" x="0px" y="0px"
	 width="64px" height="63.999px" viewBox="0 0 64 63.999" style="enable-background:new 0 0 64 63.999;" xml:space="preserve">
<g id="Elipse">
	<g>
		<circle style="fill:#88C057;" cx="32" cy="32" r="32"/>
	</g>
</g>
<g id="A">
	<g>
		<path style="fill-rule:evenodd;clip-rule:evenodd;fill:#FFFFFF;" d="M48,45.999c-1,0-1.642-1.066-2-2l-10-26
			c-0.793-2.062-1.791-4-4-4c-2.21,0-3.207,1.938-4,4l-10,26c-0.359,0.934-1,2-2,2c-1.105,0-2,0.896-2,2s0.895,2,2,2h8
			c1.104,0,2-0.896,2-2s-0.896-2-2-2c-2,0-2.359-1.066-2-2l0.77-2H37.23l0.77,2c0.358,0.934,0,2-2,2c-1.105,0-2,0.896-2,2
			s0.895,2,2,2h12c1.104,0,2-0.896,2-2S49.104,45.999,48,45.999z M24.308,37.999L30,23.2l5.692,14.799H24.308z"/>
	</g>
</g>
<g>
</g>
<g>
</g>
<g>
</g>
<g>
</g>
<g>
</g>
<g>
</g>
<g>
</g>
<g>
</g>
<g>
</g>
<g>
</g>
<g>
</g>
<g>
</g>
<g>
</g>
<g>
</g>
<g>
</g>
</svg>
