<?xml version="1.0" encoding="iso-8859-1"?>
<!-- Generator: Adobe Illustrator 16.0.0, SVG Export Plug-In . SVG Version: 6.00 Build 0)  -->
<!DOCTYPE svg PUBLIC "-//W3C//DTD SVG 1.1//EN" "http://www.w3.org/Graphics/SVG/1.1/DTD/svg11.dtd">
<svg version="1.1" id="Layer_1" xmlns="http://www.w3.org/2000/svg" xmlns:xlink="http://www.w3.org/1999/xlink" x="0px" y="0px"
	 width="64px" height="20.001px" viewBox="0 0 64 20.001" style="enable-background:new 0 0 64 20.001;" xml:space="preserve">
<g id="Sole_23_">
	<g>
		<path style="fill:#666666;" d="M2,14.001c0,0,0,1.999,0,4c0,2,2,2,4,2h34v-6H2z"/>
	</g>
</g>
<g id="Shoe_8_">
	<g>
		<path style="fill:#ED7161;" d="M56,6.001C52,6.001,48,4,48,4s0,4-6,4S22,8,16,6.001C10,4,6,0,4,0S0,2.001,0,8c0,6.001,2,8,4,8
			s28,4.001,36,4.001C56,20.001,64,16,64,12S62,6.001,56,6.001z"/>
	</g>
</g>
<g>
</g>
<g>
</g>
<g>
</g>
<g>
</g>
<g>
</g>
<g>
</g>
<g>
</g>
<g>
</g>
<g>
</g>
<g>
</g>
<g>
</g>
<g>
</g>
<g>
</g>
<g>
</g>
<g>
</g>
</svg>
