<?xml version="1.0" encoding="iso-8859-1"?>
<!-- Generator: Adobe Illustrator 16.0.0, SVG Export Plug-In . SVG Version: 6.00 Build 0)  -->
<!DOCTYPE svg PUBLIC "-//W3C//DTD SVG 1.1//EN" "http://www.w3.org/Graphics/SVG/1.1/DTD/svg11.dtd">
<svg version="1.1" id="Layer_1" xmlns="http://www.w3.org/2000/svg" xmlns:xlink="http://www.w3.org/1999/xlink" x="0px" y="0px"
	 width="64px" height="64px" viewBox="0 0 64 64" style="enable-background:new 0 0 64 64;" xml:space="preserve">
<g id="Belt">
	<g>
		<path style="fill:#735538;" d="M52,0c-2,0-2,0-4,2.001L40,10l14,14l8-8c2-2,2-2,2-4S54,0,52,0z"/>
	</g>
</g>
<g id="Belt_3_">
	<g>
		<path style="fill:#A67C52;" d="M54,8c-2,0-12,0-14,2L2,48c-2.001,2-2,2.001-2,4c0,2,10,12,12,12s2,0,4-2l38-38c2-2,2-12,2-14
			S56,8,54,8z"/>
	</g>
</g>
<g id="Belt_2_">
	<g>
		<path style="fill:#8C6745;" d="M38,10c-1,0-4,3-4,4c0,2,14,16,16,16c1,0,4-3,4-4C54,24,40,10,38,10z"/>
	</g>
</g>
<g id="Hole">
	<g>
		<path style="fill-rule:evenodd;clip-rule:evenodd;fill:#735538;" d="M18,44c-1.105,0-2,0.896-2,2s0.895,2.001,2,2.001
			c1.104,0,2-0.896,2-2.001S19.104,44,18,44z M10,52c-1.104,0-2,0.896-2,2s0.896,2,2,2s2-0.896,2-2S11.104,52,10,52z"/>
	</g>
</g>
<g id="Pin">
	<g>
		<path style="fill:#FFCC66;" d="M32,30c-0.553,0-1.053,0.224-1.415,0.586l-6,6C24.224,36.948,24,37.448,24,38c0,1.104,0.895,2,2,2
			c0.552,0,1.052-0.224,1.414-0.585l6-6.001C33.775,33.052,34,32.553,34,32C34,30.896,33.104,30,32,30z"/>
	</g>
</g>
<g id="Buckle_14_">
	<g>
		<path style="fill:#FFCC66;" d="M26,20c-1,0-2,0-4,2L8,36c-2,2-2,3-2,4c0,0.434,0.586,1.355,1.492,2.507L22,27.999c0,0,2-1.999,4,0
			C28,30,34,36,36,38s0,4.001,0,4.001L21.492,56.507C22.645,57.413,23.565,58,24,58c1,0,2,0,4-2l14-14c2-2,2-2.999,2-4
			C44,36,27.999,20,26,20z"/>
	</g>
</g>
<g>
</g>
<g>
</g>
<g>
</g>
<g>
</g>
<g>
</g>
<g>
</g>
<g>
</g>
<g>
</g>
<g>
</g>
<g>
</g>
<g>
</g>
<g>
</g>
<g>
</g>
<g>
</g>
<g>
</g>
</svg>
