<?xml version="1.0" encoding="iso-8859-1"?>
<!-- Generator: Adobe Illustrator 16.0.0, SVG Export Plug-In . SVG Version: 6.00 Build 0)  -->
<!DOCTYPE svg PUBLIC "-//W3C//DTD SVG 1.1//EN" "http://www.w3.org/Graphics/SVG/1.1/DTD/svg11.dtd">
<svg version="1.1" id="Layer_1" xmlns="http://www.w3.org/2000/svg" xmlns:xlink="http://www.w3.org/1999/xlink" x="0px" y="0px"
	 width="64px" height="34px" viewBox="0 0 64 34" style="enable-background:new 0 0 64 34;" xml:space="preserve">
<g id="Bow">
	<g>
		<path style="fill-rule:evenodd;clip-rule:evenodd;fill:#666666;" d="M0,18c0,8,4,16,4,16c6,0,22-14.001,22-14.001V12
			C26,12,10,0,4,0C4,0,0,8,0,18z M60,0c-6,0-22,12-22,12v7.999C38,19.999,54,34,60,34c0,0,4-8,4-16C64,8,60,0,60,0z"/>
	</g>
</g>
<g id="Bow_1_">
	<g>
		<path style="fill-rule:evenodd;clip-rule:evenodd;fill:#4D4D4D;" d="M6,16c0,3.999,2,8,4,8s16-6,16-6v-4c0,0-14-6-16-6S6,12,6,16z
			 M54,8c-2,0-16,6-16,6v4c0,0,14,6,16,6s4-4.001,4-8C58,12,56,8,54,8z"/>
	</g>
</g>
<g id="Knot_1_">
	<g>
		<path style="fill:#333333;" d="M36,10h-8c-1.104,0-2,0.895-2,2v7.999C26,21.104,26.896,22,28,22h8c1.104,0,2-0.896,2-2.001V12
			C38,10.895,37.104,10,36,10z"/>
	</g>
</g>
<g>
</g>
<g>
</g>
<g>
</g>
<g>
</g>
<g>
</g>
<g>
</g>
<g>
</g>
<g>
</g>
<g>
</g>
<g>
</g>
<g>
</g>
<g>
</g>
<g>
</g>
<g>
</g>
<g>
</g>
</svg>
