<?xml version="1.0" encoding="iso-8859-1"?>
<!-- Generator: Adobe Illustrator 16.0.0, SVG Export Plug-In . SVG Version: 6.00 Build 0)  -->
<!DOCTYPE svg PUBLIC "-//W3C//DTD SVG 1.1//EN" "http://www.w3.org/Graphics/SVG/1.1/DTD/svg11.dtd">
<svg version="1.1" id="Layer_1" xmlns="http://www.w3.org/2000/svg" xmlns:xlink="http://www.w3.org/1999/xlink" x="0px" y="0px"
	 width="64px" height="52.001px" viewBox="0 0 64 52.001" style="enable-background:new 0 0 64 52.001;" xml:space="preserve">
<g id="Bra">
	<g>
		<path style="fill:#FFCC66;" d="M50,0c-2,0-2,0-2,2.001c0,2,6,18,6,19.999c0,8.001-20,18.001-22,18.001S10,30.001,10,22
			c0-1.999,6-17.999,6-19.999C16,0,16,0,14,0S0,28,0,40.001c0,8,10,12,16,12c8,0,14-8,16-8s8,8,16,8c6,0,16-4,16-12C64,28,52,0,50,0
			z"/>
	</g>
</g>
<g>
</g>
<g>
</g>
<g>
</g>
<g>
</g>
<g>
</g>
<g>
</g>
<g>
</g>
<g>
</g>
<g>
</g>
<g>
</g>
<g>
</g>
<g>
</g>
<g>
</g>
<g>
</g>
<g>
</g>
</svg>
