<?xml version="1.0" encoding="iso-8859-1"?>
<!-- Generator: Adobe Illustrator 16.0.0, SVG Export Plug-In . SVG Version: 6.00 Build 0)  -->
<!DOCTYPE svg PUBLIC "-//W3C//DTD SVG 1.1//EN" "http://www.w3.org/Graphics/SVG/1.1/DTD/svg11.dtd">
<svg version="1.1" id="Layer_1" xmlns="http://www.w3.org/2000/svg" xmlns:xlink="http://www.w3.org/1999/xlink" x="0px" y="0px"
	 width="64px" height="60px" viewBox="0 0 64 60" style="enable-background:new 0 0 64 60;" xml:space="preserve">
<g id="Peak_1_">
	<g>
		<path style="fill:#48A0DC;" d="M2,36.001v8C2,52.001,2,60,4,60c8,0,12-7.999,28-7.999S52,60,60,60c2,0,2-7.999,2-15.999v-8H2z"/>
	</g>
</g>
<g id="Crown_5_">
	<g>
		<path style="fill-rule:evenodd;clip-rule:evenodd;fill:#408EC2;" d="M34,2.001C34,0,33.104,0,32,0s-2,0-2,2.001
			c-22,0-30,15.999-30,34c0,8,2,8,2,8l4-2c4-2,14-6,26-6s22,4,26,6l4,2c0,0,2,0,2-8C64,18,56,2.001,34,2.001z"/>
	</g>
</g>
<g id="Front_2_">
	<g>
		<path style="fill:#E6E6E6;" d="M32,2.001c-24,0-26,18-26,22v18c4-2,14-6,26-6s22,4,26,6v-18C58,20.001,56,2.001,32,2.001z"/>
	</g>
</g>
<g>
</g>
<g>
</g>
<g>
</g>
<g>
</g>
<g>
</g>
<g>
</g>
<g>
</g>
<g>
</g>
<g>
</g>
<g>
</g>
<g>
</g>
<g>
</g>
<g>
</g>
<g>
</g>
<g>
</g>
</svg>
