<?xml version="1.0" encoding="iso-8859-1"?>
<!-- Generator: Adobe Illustrator 16.0.0, SVG Export Plug-In . SVG Version: 6.00 Build 0)  -->
<!DOCTYPE svg PUBLIC "-//W3C//DTD SVG 1.1//EN" "http://www.w3.org/Graphics/SVG/1.1/DTD/svg11.dtd">
<svg version="1.1" id="Layer_1" xmlns="http://www.w3.org/2000/svg" xmlns:xlink="http://www.w3.org/1999/xlink" x="0px" y="0px"
	 width="64px" height="64px" viewBox="0 0 64 64" style="enable-background:new 0 0 64 64;" xml:space="preserve">
<g id="Hook">
	<g>
		<path style="fill:#999999;" d="M14.868,12.04C15.57,10.851,16,9.48,16,8c0-4.419-3.582-8-8-8C3.581,0,0,3.581,0,8
			c0,2.209,0.896,4.209,2.343,5.656c0.781,0.781,2.048,0.781,2.829,0c0.78-0.781,0.78-2.047,0-2.828C4.447,10.104,4,9.104,4,8
			c0-2.209,1.791-4,4-4s4,1.791,4,4c0,1.104-0.448,2.104-1.172,2.828c-0.781,0.781-0.781,2.047,0,2.828L15.172,18H18v-2.828
			L14.868,12.04z"/>
	</g>
</g>
<g id="Hanger">
	<g>
		<path style="fill-rule:evenodd;clip-rule:evenodd;fill:#A67C52;" d="M64,8c0-2-2-4-6-4c-6,0-18,8-38,8c-2,0-8,6-8,8
			c0,20-8,32-8,38c0,4,2,6,4,6c1.267,0,1.729-0.804,1.899-1.899L62.101,9.899C63.196,9.729,64,9.266,64,8z M20,20
			c4.646,0,24.876-5.994,34.7-8.7L11.3,54.7C14.006,44.876,20,24.646,20,20z"/>
	</g>
</g>
<g>
</g>
<g>
</g>
<g>
</g>
<g>
</g>
<g>
</g>
<g>
</g>
<g>
</g>
<g>
</g>
<g>
</g>
<g>
</g>
<g>
</g>
<g>
</g>
<g>
</g>
<g>
</g>
<g>
</g>
</svg>
