<?xml version="1.0" encoding="iso-8859-1"?>
<!-- Generator: Adobe Illustrator 16.0.0, SVG Export Plug-In . SVG Version: 6.00 Build 0)  -->
<!DOCTYPE svg PUBLIC "-//W3C//DTD SVG 1.1//EN" "http://www.w3.org/Graphics/SVG/1.1/DTD/svg11.dtd">
<svg version="1.1" id="Layer_1" xmlns="http://www.w3.org/2000/svg" xmlns:xlink="http://www.w3.org/1999/xlink" x="0px" y="0px"
	 width="64.001px" height="28px" viewBox="0 0 64.001 28" style="enable-background:new 0 0 64.001 28;" xml:space="preserve">
<g id="Tongue_1_">
	<g>
		<path style="fill:#333333;" d="M24,0c-4,0-4,2.001-4,4c0,2.001,12,10,12,10h18C50,14,26,0,24,0z"/>
	</g>
</g>
<g id="Toe_Cap">
	<g>
		<path style="fill:#E6E6E6;" d="M50,14v8h12v-4C62,14,50,14,50,14z"/>
	</g>
</g>
<g id="Upper_1_">
	<g>
		<path style="fill:#666666;" d="M50,14C28,4,28,4,24,4s-4,8-12,8c-6,0-6-3.999-8-3.999S0,14,0,20v4.001h54V20C54,18,50,14,50,14z"
			/>
	</g>
</g>
<g id="Shoelaces">
	<g>
		<path style="fill-rule:evenodd;clip-rule:evenodd;fill:#E6E6E6;" d="M26.586,4.586c-0.781,0.781-0.781,2.048,0,2.829
			c0.78,0.78,2.047,0.78,2.828,0l3.233-3.234c-1.315-0.715-2.567-1.384-3.69-1.967L26.586,4.586z M44.402,10.77l-1.816,1.816
			c-0.781,0.781-0.781,2.047,0,2.828c0.78,0.781,2.047,0.781,2.828,0l2.578-2.578C47.043,12.286,45.815,11.579,44.402,10.77z
			 M34.586,8.586c-0.781,0.78-0.781,2.048,0,2.828c0.78,0.781,2.047,0.781,2.828,0l2.945-2.945
			c-1.182-0.668-2.402-1.354-3.622-2.034L34.586,8.586z"/>
	</g>
</g>
<g id="Sole_1_">
	<g>
		<path style="fill:#CCCCCC;" d="M62,18c-2.104,0-7.595,4-22,4c-4,0-36.57,0-38,0c-2,0-2,0-2,2.001c0,0.592,0,0.965,0,2
			C0,28,0,28,2,28c1.138,0,32,0,38,0c14,0,24-3.999,24-6C64,20,64.104,18,62,18z"/>
	</g>
</g>
<g>
</g>
<g>
</g>
<g>
</g>
<g>
</g>
<g>
</g>
<g>
</g>
<g>
</g>
<g>
</g>
<g>
</g>
<g>
</g>
<g>
</g>
<g>
</g>
<g>
</g>
<g>
</g>
<g>
</g>
</svg>
