<?xml version="1.0" encoding="iso-8859-1"?>
<!-- Generator: Adobe Illustrator 16.0.0, SVG Export Plug-In . SVG Version: 6.00 Build 0)  -->
<!DOCTYPE svg PUBLIC "-//W3C//DTD SVG 1.1//EN" "http://www.w3.org/Graphics/SVG/1.1/DTD/svg11.dtd">
<svg version="1.1" id="Layer_1" xmlns="http://www.w3.org/2000/svg" xmlns:xlink="http://www.w3.org/1999/xlink" x="0px" y="0px"
	 width="64px" height="64px" viewBox="0 0 64 64" style="enable-background:new 0 0 64 64;" xml:space="preserve">
<g id="Heel_2_">
	<g>
		<path style="fill:#735538;" d="M62,52H2v4c0,0,2,8,4,8c2,0,12,0,14,0c2,0,2-6,2-6c3.752,0,10,6,18,6c16,0,24-8,24-10S62,52,62,52z
			"/>
	</g>
</g>
<g id="Boot_8_">
	<g>
		<path style="fill:#A67C52;" d="M54,48c-6,0-4,0-6,0s-14-4-18-12H2c0,4-2,10-2,14s2,6,2,6s12.953,0,16,0c6,0,10,3.999,24,3.999
			C52,59.999,62,54,62,52C62,48,60,48,54,48z"/>
	</g>
</g>
<g id="Boot_9_">
	<g>
		<path style="fill:#8C6845;" d="M34,10c0,0-6-10-18-10C4,0,0,10,0,10s2,24,2,26c2,0,8,12,18,12c6,0,12,0,12-2s-2-6-2-10
			C30,30,34,10,34,10z"/>
	</g>
</g>
<g id="Strap_10_">
	<g>
		<path style="fill:#A67C52;" d="M18,0h-4c-1.104,0-2,0.896-2,2l2,12h4l2-12C20,0.896,19.104,0,18,0z"/>
	</g>
</g>
<g>
</g>
<g>
</g>
<g>
</g>
<g>
</g>
<g>
</g>
<g>
</g>
<g>
</g>
<g>
</g>
<g>
</g>
<g>
</g>
<g>
</g>
<g>
</g>
<g>
</g>
<g>
</g>
<g>
</g>
</svg>
