<?xml version="1.0" encoding="iso-8859-1"?>
<!-- Generator: Adobe Illustrator 16.0.0, SVG Export Plug-In . SVG Version: 6.00 Build 0)  -->
<!DOCTYPE svg PUBLIC "-//W3C//DTD SVG 1.1//EN" "http://www.w3.org/Graphics/SVG/1.1/DTD/svg11.dtd">
<svg version="1.1" id="Layer_1" xmlns="http://www.w3.org/2000/svg" xmlns:xlink="http://www.w3.org/1999/xlink" x="0px" y="0px"
	 width="64px" height="39.999px" viewBox="0 0 64 39.999" style="enable-background:new 0 0 64 39.999;" xml:space="preserve">
<g id="Brim_1_">
	<g>
		<path style="fill:#A67C52;" d="M62,16c-2,0-4,4-12,4H14c-8,0-10-4-12-4s-2,2.001-2,4c0,4.019,11.977,19.999,31.999,19.999
			S64,23.998,64,19.999C64,18,64,16,62,16z"/>
	</g>
</g>
<g id="Crown_1_">
	<g>
		<path style="fill:#8C6845;" d="M42,0c-4,0-6,2.001-10,2.001S26,0,22,0s-8,20-8,22.001C14,24,26,26,32,26s18-2,18-3.999
			C50,20,46,0,42,0z"/>
	</g>
</g>
<g id="Band_5_">
	<g>
		<path style="fill-rule:evenodd;clip-rule:evenodd;fill:#D9A16A;" d="M32,22.001c-5.279,0-15.201-1.549-17.508-3.284
			C14.177,20.367,14,21.582,14,22.001C14,24,26,26,32,26s18-2,18-3.999c0-0.419-0.177-1.634-0.492-3.284
			C47.201,20.452,37.279,22.001,32,22.001z"/>
	</g>
</g>
<g>
</g>
<g>
</g>
<g>
</g>
<g>
</g>
<g>
</g>
<g>
</g>
<g>
</g>
<g>
</g>
<g>
</g>
<g>
</g>
<g>
</g>
<g>
</g>
<g>
</g>
<g>
</g>
<g>
</g>
</svg>
