<?xml version="1.0" encoding="iso-8859-1"?>
<!-- Generator: Adobe Illustrator 16.0.0, SVG Export Plug-In . SVG Version: 6.00 Build 0)  -->
<!DOCTYPE svg PUBLIC "-//W3C//DTD SVG 1.1//EN" "http://www.w3.org/Graphics/SVG/1.1/DTD/svg11.dtd">
<svg version="1.1" id="Layer_1" xmlns="http://www.w3.org/2000/svg" xmlns:xlink="http://www.w3.org/1999/xlink" x="0px" y="0px"
	 width="64.001px" height="32.001px" viewBox="0 0 64.001 32.001" style="enable-background:new 0 0 64.001 32.001;"
	 xml:space="preserve">
<g id="Tongue">
	<g>
		<path style="fill:#333333;" d="M28,0c-2,0-4,2-4,4.001C24,8.853,36,18,36,18h14C50,16,33.595,0,28,0z"/>
	</g>
</g>
<g id="Upper">
	<g>
		<path style="fill-rule:evenodd;clip-rule:evenodd;fill:#666666;" d="M49.188,18.003C48.416,17.315,46.917,16.334,44,14
			C34,6,32,4.001,28,4.001c-2,0-4,0-6,1.999c-2,2-4,6.001-8,6.001S8,8,6,8c-4,0-6,8-6,12.001v8h50L62,24v-2
			C62,18.353,53.688,18.031,49.188,18.003z"/>
	</g>
</g>
<g id="Design">
	<g>
		<path style="fill-rule:evenodd;clip-rule:evenodd;fill:#4D4D4D;" d="M44,14C34,6,32,4.001,28,4.001
			c-1.156,0-2.313,0.013-3.469,0.398C26.418,5.814,33.199,10.899,40,16c5.769,4.326,6,4.001,6,6c0,2,0,6.001,0,6.001h4v-8
			C50,17.981,49.631,18.505,44,14z M0.466,16.009C0.159,17.476,0,18.893,0,20.001v8h18c0,0,0-4.001-4-8
			C10.516,16.516,2.479,16.066,0.466,16.009z"/>
	</g>
</g>
<g id="Design_1_">
	<g>
		<path style="fill-rule:evenodd;clip-rule:evenodd;fill:#4D4D4D;" d="M0.469,15.994c8.076-0.057,10.768-1.525,11.377-4.405
			C9.21,10.569,7.604,8,6,8C3.111,8,1.271,12.169,0.469,15.994z"/>
	</g>
</g>
<g id="Logo">
	<g>
		<path style="fill:#88C057;" d="M36,26l4-4l-4-4c-1.063-1.063-2.423-1.806-4-2c-0.194-1.577-0.938-2.937-2-4l-4-4l-5,5l3,3
			l1.978-1.978c1.023,1.091,1.781,2.051,1.951,2.716c-1.393,0.685-2.517,1.81-3.198,3.204C23.669,19.66,22,18,22,18l-3-2.999L16,18
			l4,4c1.063,1.063,2.422,1.806,4,2c0.193,1.577,0.937,2.938,2,4l4,4.001L34,28l-3-3l-1,1c0,0-1.66-1.669-1.943-2.73
			c1.399-0.685,2.528-1.813,3.212-3.212C32.33,20.341,34,22,34,22l-1,1.001L36,26z"/>
	</g>
</g>
<g id="Sole">
	<g>
		<path style="fill:#333333;" d="M62,22c-2.104,0-7.595,4-22,4c-4,0-36.57,0-38,0c-2,0-2,0-2,2.001C0,28.593,0,28.966,0,30
			c0,2.001,0,2.001,2,2.001c1.138,0,32,0,38,0c14,0,24-4,24-6.001C64,24,64.104,22,62,22z"/>
	</g>
</g>
<g>
</g>
<g>
</g>
<g>
</g>
<g>
</g>
<g>
</g>
<g>
</g>
<g>
</g>
<g>
</g>
<g>
</g>
<g>
</g>
<g>
</g>
<g>
</g>
<g>
</g>
<g>
</g>
<g>
</g>
</svg>
