<?xml version="1.0" encoding="iso-8859-1"?>
<!-- Generator: Adobe Illustrator 16.0.0, SVG Export Plug-In . SVG Version: 6.00 Build 0)  -->
<!DOCTYPE svg PUBLIC "-//W3C//DTD SVG 1.1//EN" "http://www.w3.org/Graphics/SVG/1.1/DTD/svg11.dtd">
<svg version="1.1" id="Layer_1" xmlns="http://www.w3.org/2000/svg" xmlns:xlink="http://www.w3.org/1999/xlink" x="0px" y="0px"
	 width="64.013px" height="64.029px" viewBox="0 0 64.013 64.029" style="enable-background:new 0 0 64.013 64.029;"
	 xml:space="preserve">
<g id="Steam">
	<g>
		<path style="fill-rule:evenodd;clip-rule:evenodd;fill:#CCCCCC;" d="M58.007,1.999c0-1.104-0.896-1.999-2-1.999h-40
			c-1.105,0-2,0.896-2,1.999c0,1.104,0.895,2.001,2,2.001h38l2.399,16h-36.4c-11.045,0-20,8.954-20,20v2
			c0,1.104,0.895,1.999,2,1.999h15.96l-3.808,14.812c-0.562,2.185,0.683,4.431,2.779,5.017c2.096,0.585,4.251-0.712,4.813-2.897
			l4.352-16.931h11.811l4.348,16.981c0.562,2.194,2.717,3.496,4.813,2.908c2.096-0.588,3.34-2.843,2.779-5.036l-3.803-14.854h15.956
			c1.104,0,2-0.895,2-1.999L58.007,1.999z"/>
	</g>
</g>
<g id="X_3_">
	<g>
		<path style="fill-rule:evenodd;clip-rule:evenodd;fill:#ED7161;" d="M62.527,60.091L39.75,54l22.778-6.092
			c1.069-0.286,1.704-1.383,1.417-2.449c-0.286-1.067-1.385-1.701-2.454-1.414L32.007,51.93L2.523,44.045
			c-1.069-0.287-2.168,0.347-2.454,1.414c-0.287,1.066,0.348,2.163,1.417,2.449L24.264,54L1.486,60.091
			c-1.069,0.286-1.704,1.383-1.417,2.45c0.286,1.066,1.385,1.699,2.454,1.414l29.484-7.885l29.483,7.885
			c1.069,0.285,2.168-0.348,2.454-1.414C64.231,61.474,63.597,60.377,62.527,60.091z"/>
	</g>
</g>
<g>
</g>
<g>
</g>
<g>
</g>
<g>
</g>
<g>
</g>
<g>
</g>
<g>
</g>
<g>
</g>
<g>
</g>
<g>
</g>
<g>
</g>
<g>
</g>
<g>
</g>
<g>
</g>
<g>
</g>
</svg>
