<?xml version="1.0" encoding="iso-8859-1"?>
<!-- Generator: Adobe Illustrator 16.0.0, SVG Export Plug-In . SVG Version: 6.00 Build 0)  -->
<!DOCTYPE svg PUBLIC "-//W3C//DTD SVG 1.1//EN" "http://www.w3.org/Graphics/SVG/1.1/DTD/svg11.dtd">
<svg version="1.1" id="Layer_1" xmlns="http://www.w3.org/2000/svg" xmlns:xlink="http://www.w3.org/1999/xlink" x="0px" y="0px"
	 width="64.02px" height="64.02px" viewBox="0 0 64.02 64.02" style="enable-background:new 0 0 64.02 64.02;" xml:space="preserve"
	>
<g id="Iron">
	<g>
		<path style="fill:#CCCCCC;" d="M58.01,12.01c0-1.105-0.896-2.001-2-2.001h-40c-1.105,0-2,0.896-2,2.001c0,1.104,0.895,2,2,2h38
			l2.4,16h-36.4c-11.046,0-20,8.954-20,20v1.999c0,1.105,0.896,2.001,2,2.001h60c1.104,0,2-0.896,2-2.001L58.01,12.01z"/>
	</g>
</g>
<g id="X_4_">
	<g>
		<path style="fill-rule:evenodd;clip-rule:evenodd;fill:#ED7161;" d="M34.786,32.009L63.444,3.352c0.767-0.768,0.767-2.01,0-2.777
			c-0.767-0.767-2.01-0.767-2.776,0L32.01,29.232L3.352,0.574c-0.767-0.767-2.01-0.767-2.777,0c-0.766,0.768-0.766,2.01,0,2.777
			l28.658,28.657L0.574,60.667c-0.766,0.767-0.766,2.011,0,2.776c0.768,0.768,2.011,0.768,2.777,0L32.01,34.786l28.658,28.657
			c0.767,0.768,2.01,0.768,2.776,0c0.767-0.766,0.767-2.01,0-2.776L34.786,32.009z"/>
	</g>
</g>
<g>
</g>
<g>
</g>
<g>
</g>
<g>
</g>
<g>
</g>
<g>
</g>
<g>
</g>
<g>
</g>
<g>
</g>
<g>
</g>
<g>
</g>
<g>
</g>
<g>
</g>
<g>
</g>
<g>
</g>
</svg>
