<?xml version="1.0" encoding="iso-8859-1"?>
<!-- Generator: Adobe Illustrator 16.0.0, SVG Export Plug-In . SVG Version: 6.00 Build 0)  -->
<!DOCTYPE svg PUBLIC "-//W3C//DTD SVG 1.1//EN" "http://www.w3.org/Graphics/SVG/1.1/DTD/svg11.dtd">
<svg version="1.1" id="Layer_1" xmlns="http://www.w3.org/2000/svg" xmlns:xlink="http://www.w3.org/1999/xlink" x="0px" y="0px"
	 width="44px" height="64px" viewBox="0 0 44 64" style="enable-background:new 0 0 44 64;" xml:space="preserve">
<g id="Dress_1_">
	<g>
		<path style="fill-rule:evenodd;clip-rule:evenodd;fill:#ED7161;" d="M32,28v-4c0-6,2-7.999,2-12c0-1.999,0-4-2-4V2c0-1.69-4-2-4-2
			v8.676C26.139,9.256,24.441,10,22,10c-2.443,0-4.138-0.745-6-1.325V0c0,0-4,0.31-4,2v6c-2,0-2,2.001-2,4c0,4.001,2,6,2,12v4
			c-2,0.001-8,26.001-12,30.001C0,60,4,60,6,60c0,2,2,2,4,2c0,0,2,2,12,2s12-2,12-2c2,0,4,0,4-2c2,0,6,0,6-1.999
			C40,54.001,34,28.001,32,28z"/>
	</g>
</g>
<g id="Fold_2_">
	<g>
		<path style="fill-rule:evenodd;clip-rule:evenodd;fill:#BA594C;" d="M32,44c0,10.001,2,18,2,18c2,0,4,0,4-2C38,60,32,50.001,32,44
			z M10,62c0,0,2-7.999,2-18c0,6.001-6,16-6,16C6,62,8,62,10,62z"/>
	</g>
</g>
<g id="Belt_5_">
	<g>
		<path style="fill:#666666;" d="M22,24c-8,0-10-1.999-10-1.999V26c0,0,0,2,10,2s10-2,10-2v-3.999C32,22.001,30,24,22,24z"/>
	</g>
</g>
<g id="Buckle_15_">
	<g>
		<path style="fill:#FFFFFF;" d="M24,24h-4c-1.104,0-2,0.896-2,2s0.896,2,2,2h4c1.104,0,2-0.896,2-2S25.104,24,24,24z"/>
	</g>
</g>
<g>
</g>
<g>
</g>
<g>
</g>
<g>
</g>
<g>
</g>
<g>
</g>
<g>
</g>
<g>
</g>
<g>
</g>
<g>
</g>
<g>
</g>
<g>
</g>
<g>
</g>
<g>
</g>
<g>
</g>
</svg>
