<?xml version="1.0" encoding="iso-8859-1"?>
<!-- Generator: Adobe Illustrator 16.0.0, SVG Export Plug-In . SVG Version: 6.00 Build 0)  -->
<!DOCTYPE svg PUBLIC "-//W3C//DTD SVG 1.1//EN" "http://www.w3.org/Graphics/SVG/1.1/DTD/svg11.dtd">
<svg version="1.1" id="Layer_1" xmlns="http://www.w3.org/2000/svg" xmlns:xlink="http://www.w3.org/1999/xlink" x="0px" y="0px"
	 width="32px" height="64px" viewBox="0 0 32 64" style="enable-background:new 0 0 32 64;" xml:space="preserve">
<g id="Dress">
	<g>
		<path style="fill:#666666;" d="M26,24.001c0-4.001,2-8,2-10c0-6,2-10.44,2-12.001c0-2-4-2-4-2s-8,8-10,8S6,0,6,0S2,0,2,2
			c0,1.543,2,6.001,2,12.001c0,2,2,5.999,2,10c0,6-6,14-6,35.999c0,2,2,2,4,2c0,0,2,2,12,2s12-2,12-2c2,0,4,0,4-2
			C32,38.001,26,30.001,26,24.001z"/>
	</g>
</g>
<g>
</g>
<g>
</g>
<g>
</g>
<g>
</g>
<g>
</g>
<g>
</g>
<g>
</g>
<g>
</g>
<g>
</g>
<g>
</g>
<g>
</g>
<g>
</g>
<g>
</g>
<g>
</g>
<g>
</g>
</svg>
