<?xml version="1.0" encoding="iso-8859-1"?>
<!-- Generator: Adobe Illustrator 16.0.0, SVG Export Plug-In . SVG Version: 6.00 Build 0)  -->
<!DOCTYPE svg PUBLIC "-//W3C//DTD SVG 1.1//EN" "http://www.w3.org/Graphics/SVG/1.1/DTD/svg11.dtd">
<svg version="1.1" id="Layer_1" xmlns="http://www.w3.org/2000/svg" xmlns:xlink="http://www.w3.org/1999/xlink" x="0px" y="0px"
	 width="64px" height="58px" viewBox="0 0 64 58" style="enable-background:new 0 0 64 58;" xml:space="preserve">
<g id="Sandals_3_">
	<g>
		<path style="fill-rule:evenodd;clip-rule:evenodd;fill:#A67C52;" d="M54,44c0,0-6-2-8-4c0,0-6-10-6-34L10,0C10,0,0,6,0,16l16,10
			l21.14-3.844c0.128,0.861,0.262,1.705,0.405,2.514L18,30l4,6l16.367-7.274c0.232,1.018,0.472,1.982,0.717,2.895L24,40l2,6
			l14.198-10.648c0.395,1.191,0.786,2.258,1.16,3.199L28,50.001L30,56l13.268-13.268C43.721,43.582,44,44.001,44,44.001
			c0.101,0.101,0.227,0.201,0.355,0.301L36,56h6l6.467-9.7c1.355,0.496,2.729,0.92,3.773,1.22L48,56h6c0,0,4-7.999,4-10
			C58,44.001,56,44,54,44z M36.054,9.474c0.023,0.813,0.053,1.611,0.091,2.394l-21.726-1.552c-0.28-1.326-0.608-2.629-0.996-3.859
			L36.054,9.474z M15.711,19.715c-0.091-1.155-0.211-2.408-0.369-3.714h21.08c0.062,0.716,0.129,1.418,0.202,2.104L15.711,19.715z"
			/>
	</g>
</g>
<g id="Sandals_2_">
	<g>
		<path style="fill:#735538;" d="M60,52.001c-2,0-6,1.999-26,1.999c-2,0-6.845-11.478-14-24C12,16.001,4,16.001,2,16.001
			s-2,0-2,1.999c0,1.688,0,2,0,2s6,8,6,36c0,1.104,0.896,2,2,2s2-0.896,2-2V32.001C10,30,10,28,12,28s2.992,2.272,4,4.001
			C30,56,26,58,32,58c22,0,32-2,32-4C64,52.001,62,52.001,60,52.001z"/>
	</g>
</g>
<g id="Buckle_11_">
	<g>
		<path style="fill-rule:evenodd;clip-rule:evenodd;fill:#735538;" d="M14,8h6c1.104,0,2-0.896,2-2s-0.896-2-2-2h-6
			c-1.104,0-2,0.896-2,2S12.896,8,14,8z M20,12h-6c-1.104,0-2,0.896-2,2s0.896,2.001,2,2.001h6c1.104,0,2-0.896,2-2.001
			S21.104,12,20,12z"/>
	</g>
</g>
<g>
</g>
<g>
</g>
<g>
</g>
<g>
</g>
<g>
</g>
<g>
</g>
<g>
</g>
<g>
</g>
<g>
</g>
<g>
</g>
<g>
</g>
<g>
</g>
<g>
</g>
<g>
</g>
<g>
</g>
</svg>
