<?xml version="1.0" encoding="iso-8859-1"?>
<!-- Generator: Adobe Illustrator 16.0.0, SVG Export Plug-In . SVG Version: 6.00 Build 0)  -->
<!DOCTYPE svg PUBLIC "-//W3C//DTD SVG 1.1//EN" "http://www.w3.org/Graphics/SVG/1.1/DTD/svg11.dtd">
<svg version="1.1" id="Layer_1" xmlns="http://www.w3.org/2000/svg" xmlns:xlink="http://www.w3.org/1999/xlink" x="0px" y="0px"
	 width="64px" height="64.001px" viewBox="0 0 64 64.001" style="enable-background:new 0 0 64 64.001;" xml:space="preserve">
<g id="Glove">
	<g>
		<path style="fill:#F06EAA;" d="M46,0c-8,0-16,18.001-18,20.001c0,0,2-6,2-10c0-2-2-4-4-4c-3.999,0-12,12-14,16s-6,14-6,16
			s18,20,20,20c6,0,38-22,38-34S60,0,46,0z"/>
	</g>
</g>
<g id="Band_2_">
	<g>
		<path style="fill:#9B7CAB;" d="M6,38.001c-2,2-6,8-6,10s0,2,2,4s8,7.999,10,10c2,2,2,2,4,2s8-4.001,10-6L6,38.001z"/>
	</g>
</g>
<g>
</g>
<g>
</g>
<g>
</g>
<g>
</g>
<g>
</g>
<g>
</g>
<g>
</g>
<g>
</g>
<g>
</g>
<g>
</g>
<g>
</g>
<g>
</g>
<g>
</g>
<g>
</g>
<g>
</g>
</svg>
