<?xml version="1.0" encoding="iso-8859-1"?>
<!-- Generator: Adobe Illustrator 16.0.0, SVG Export Plug-In . SVG Version: 6.00 Build 0)  -->
<!DOCTYPE svg PUBLIC "-//W3C//DTD SVG 1.1//EN" "http://www.w3.org/Graphics/SVG/1.1/DTD/svg11.dtd">
<svg version="1.1" id="Layer_1" xmlns="http://www.w3.org/2000/svg" xmlns:xlink="http://www.w3.org/1999/xlink" x="0px" y="0px"
	 width="64px" height="64px" viewBox="0 0 64 64" style="enable-background:new 0 0 64 64;" xml:space="preserve">
<g id="Glove_1_">
	<g>
		<path style="fill:#9B7CAB;" d="M60,26c-2,0-12,8-12,8s16-16,16-18s-2-4-4-4S44,26,44,26S58,10,58,7.999C58,6,56,4,54,4
			S38,20,38,20S48,6,48,4s-2-4-4-4c-2,0-19.682,22.663-22,24c0,0,8-12,8-14c0-2.001-2-4-4-4c-2,0-12,12-14,16S6,36,6,38s18,20,20,20
			c2,0,18-6,30-18c2-2,8-8,8-10S62,26,60,26z"/>
	</g>
</g>
<g id="Band_3_">
	<g>
		<path style="fill:#88C057;" d="M6,38c-2,2-6,8-6,10s0,2,2,4c2,2,8,8,10,10s2,2,4,2c2,0,8-4,10-6L6,38z"/>
	</g>
</g>
<g>
</g>
<g>
</g>
<g>
</g>
<g>
</g>
<g>
</g>
<g>
</g>
<g>
</g>
<g>
</g>
<g>
</g>
<g>
</g>
<g>
</g>
<g>
</g>
<g>
</g>
<g>
</g>
<g>
</g>
</svg>
