<?xml version="1.0" encoding="iso-8859-1"?>
<!-- Generator: Adobe Illustrator 16.0.0, SVG Export Plug-In . SVG Version: 6.00 Build 0)  -->
<!DOCTYPE svg PUBLIC "-//W3C//DTD SVG 1.1//EN" "http://www.w3.org/Graphics/SVG/1.1/DTD/svg11.dtd">
<svg version="1.1" id="Layer_1" xmlns="http://www.w3.org/2000/svg" xmlns:xlink="http://www.w3.org/1999/xlink" x="0px" y="0px"
	 width="64px" height="64.001px" viewBox="0 0 64 64.001" style="enable-background:new 0 0 64 64.001;" xml:space="preserve">
<g id="Strap_20_">
	<g>
		<path style="fill:#9B7CAB;" d="M56,0c-2,0-2,0-4,2.001l-50,50c-2,2-2,2.001-2,4c0,2,6,8,8,8s2,0,4-2L62,12c2-2,2-2,2-4S58,0,56,0z
			"/>
	</g>
</g>
<g id="Case">
	<g>
		<path style="fill:#FFCC66;" d="M34,10c-2,0-2,0-4,2L12,30.001c-2,2-2,2-2,4s18,20,20,20s2,0,4-2L52,34c2-2,2-2.001,2-4
			C54,27.999,36,10,34,10z"/>
	</g>
</g>
<g id="Dial">
	<g>
		<circle style="fill:#FFFFFF;" cx="32" cy="32.001" r="12"/>
	</g>
</g>
<g id="Axe">
	<g>
		<circle style="fill:#CCCCCC;" cx="32" cy="32.001" r="4"/>
	</g>
</g>
<g id="Hands">
	<g>
		<path style="fill-rule:evenodd;clip-rule:evenodd;fill:#999999;" d="M40,30.001h-7.061l-3.409-3.408
			c-0.812-0.812-2.127-0.812-2.938,0s-0.812,2.127,0,2.938l3.877,3.877c0.448,0.448,1.05,0.64,1.636,0.593H40c1.104,0,2-0.896,2-2
			C42,30.896,41.104,30.001,40,30.001z"/>
	</g>
</g>
<g>
</g>
<g>
</g>
<g>
</g>
<g>
</g>
<g>
</g>
<g>
</g>
<g>
</g>
<g>
</g>
<g>
</g>
<g>
</g>
<g>
</g>
<g>
</g>
<g>
</g>
<g>
</g>
<g>
</g>
</svg>
