<?xml version="1.0" encoding="iso-8859-1"?>
<!-- Generator: Adobe Illustrator 16.0.0, SVG Export Plug-In . SVG Version: 6.00 Build 0)  -->
<!DOCTYPE svg PUBLIC "-//W3C//DTD SVG 1.1//EN" "http://www.w3.org/Graphics/SVG/1.1/DTD/svg11.dtd">
<svg version="1.1" id="Layer_1" xmlns="http://www.w3.org/2000/svg" xmlns:xlink="http://www.w3.org/1999/xlink" x="0px" y="0px"
	 width="64px" height="44.001px" viewBox="0 0 64 44.001" style="enable-background:new 0 0 64 44.001;" xml:space="preserve">
<g id="Iron_2_">
	<g>
		<path style="fill:#FFCC66;" d="M58,2.001C58,0.896,57.104,0,56,0H16c-1.104,0-2,0.896-2,2.001c0,1.104,0.896,2,2,2h38l2.399,16H20
			c-11.046,0-20,8.954-20,20V42c0,1.105,0.896,2.001,2,2.001h60c1.104,0,2-0.896,2-2.001L58,2.001z"/>
	</g>
</g>
<g id="Hot_1_">
	<g>
		<path style="fill-rule:evenodd;clip-rule:evenodd;fill:#FFFFFF;" d="M26,28.001c-2.209,0-4,1.791-4,4s1.791,4,4,4s4-1.791,4-4
			S28.209,28.001,26,28.001z M38,28.001c-2.209,0-4,1.791-4,4s1.791,4,4,4s4-1.791,4-4S40.209,28.001,38,28.001z"/>
	</g>
</g>
<g>
</g>
<g>
</g>
<g>
</g>
<g>
</g>
<g>
</g>
<g>
</g>
<g>
</g>
<g>
</g>
<g>
</g>
<g>
</g>
<g>
</g>
<g>
</g>
<g>
</g>
<g>
</g>
<g>
</g>
</svg>
