<?xml version="1.0" encoding="iso-8859-1"?>
<!-- Generator: Adobe Illustrator 16.0.0, SVG Export Plug-In . SVG Version: 6.00 Build 0)  -->
<!DOCTYPE svg PUBLIC "-//W3C//DTD SVG 1.1//EN" "http://www.w3.org/Graphics/SVG/1.1/DTD/svg11.dtd">
<svg version="1.1" id="Layer_1" xmlns="http://www.w3.org/2000/svg" xmlns:xlink="http://www.w3.org/1999/xlink" x="0px" y="0px"
	 width="64px" height="44px" viewBox="0 0 64 44" style="enable-background:new 0 0 64 44;" xml:space="preserve">
<g id="Shoe_10_">
	<g>
		<path style="fill:#D9B898;" d="M46,32.001c0,0,0,2-12,8l-4,2c0,0,2,1.999,10,1.999s24-1.029,24-6C64,33.896,46,32.001,46,32.001z"
			/>
	</g>
</g>
<g id="Strap_12_">
	<g>
		<path style="fill:#999999;" d="M8,0C6,0,4,6.001,4,8c0,2,6,10.001,6,18.001l10,6C20,21.938,12,10,12,10s20,0,20-2V2C32,0,8,0,8,0z
			"/>
	</g>
</g>
<g id="Buckle_5_">
	<g>
		<path style="fill:#666666;" d="M24,0h-4c-1.104,0-2,0.896-2,2v6c0,1.104,0.896,2,2,2h4c1.104,0,2-0.896,2-2V2
			C26,0.896,25.104,0,24,0z"/>
	</g>
</g>
<g id="Heel_3_">
	<g>
		<path style="fill-rule:evenodd;clip-rule:evenodd;fill:#666666;" d="M16,28c-6-4-10-5.999-14-5.999c0,0-2-0.063-2,1.999
			c0,1.938,2,2.001,2,2.001s6,4,6,11.999v2.001v2C8,43.104,8.896,44,10,44s2-0.896,2-1.999v-2v-6c0,0,0-2,2-2h2
			c4.212,2.664,14,10,14,10l4-2C34,40.001,20.909,31.274,16,28z"/>
	</g>
</g>
<g>
</g>
<g>
</g>
<g>
</g>
<g>
</g>
<g>
</g>
<g>
</g>
<g>
</g>
<g>
</g>
<g>
</g>
<g>
</g>
<g>
</g>
<g>
</g>
<g>
</g>
<g>
</g>
<g>
</g>
</svg>
