<?xml version="1.0" encoding="iso-8859-1"?>
<!-- Generator: Adobe Illustrator 16.0.0, SVG Export Plug-In . SVG Version: 6.00 Build 0)  -->
<!DOCTYPE svg PUBLIC "-//W3C//DTD SVG 1.1//EN" "http://www.w3.org/Graphics/SVG/1.1/DTD/svg11.dtd">
<svg version="1.1" id="Layer_1" xmlns="http://www.w3.org/2000/svg" xmlns:xlink="http://www.w3.org/1999/xlink" x="0px" y="0px"
	 width="52px" height="64px" viewBox="0 0 52 64" style="enable-background:new 0 0 52 64;" xml:space="preserve">
<g id="Tassel">
	<g>
		<circle style="fill:#B3B3B3;" cx="24" cy="8" r="8"/>
	</g>
</g>
<g id="Cap_1_">
	<g>
		<path style="fill:#CCCCCC;" d="M24,12C4,12,0,38,0,40c0,2.001,4,6,8,10c4,4.001,4,14,12,14s8-9.999,12-14c4-4,20-4,20-6
			C52,40,48,12,24,12z"/>
	</g>
</g>
<g id="Decoration">
	<g>
		<path style="fill-rule:evenodd;clip-rule:evenodd;fill:#E6E6E6;" d="M12,46c-1.104,0-2,0.896-2,2s0.896,2,2,2s2-0.896,2-2
			S13.104,46,12,46z M20,46c-1.105,0-2,0.896-2,2s0.895,2,2,2c1.104,0,2-0.896,2-2S21.104,46,20,46z M28,46c-1.105,0-2,0.896-2,2
			s0.895,2,2,2c1.104,0,2-0.896,2-2S29.104,46,28,46z M12,28c0-1.104-0.896-1.999-2-1.999c-1.105,0-2,0.895-2,1.999s0.895,2,2,2
			C11.104,30,12,29.104,12,28z M20,28c0-1.104-0.896-1.999-2-1.999c-1.105,0-2,0.895-2,1.999s0.895,2,2,2C19.104,30,20,29.104,20,28
			z M28,28c0-1.104-0.896-1.999-2-1.999c-1.105,0-2,0.895-2,1.999s0.895,2,2,2C27.104,30,28,29.104,28,28z M34,26.001
			c-1.105,0-2,0.895-2,1.999s0.895,2,2,2c1.104,0,2-0.896,2-2S35.104,26.001,34,26.001z M42,26.001c-1.105,0-2,0.895-2,1.999
			s0.895,2,2,2c1.104,0,2-0.896,2-2S43.104,26.001,42,26.001z"/>
	</g>
</g>
<g id="Decoration_1_">
	<g>
		<path style="fill-rule:evenodd;clip-rule:evenodd;fill:#48A0DC;" d="M10,36c0-1.104-0.896-2-2-2c-1.105,0-2,0.896-2,2
			c-1.105,0-2,0.896-2,1.999C4,39.104,4.895,40,6,40c0,1.104,0.895,2,2,2c1.104,0,2-0.896,2-2c1.104,0,2-0.896,2-2.001
			C12,36.896,11.104,36,10,36z M22,36c0-1.104-0.896-2-2-2c-1.105,0-2,0.896-2,2c-1.105,0-2,0.896-2,1.999
			C16,39.104,16.895,40,18,40c0,1.104,0.895,2,2,2c1.104,0,2-0.896,2-2c1.104,0,2-0.896,2-2.001C24,36.896,23.104,36,22,36z M34,36
			c0-1.104-0.896-2-2-2c-1.105,0-2,0.896-2,2c-1.104,0-2,0.896-2,1.999C28,39.104,28.896,40,30,40c0,1.104,0.895,2,2,2
			c1.104,0,2-0.896,2-2c1.104,0,2-0.896,2-2.001C36,36.896,35.104,36,34,36z M46,36c0-1.104-0.896-2-2-2c-1.105,0-2,0.896-2,2
			c-1.105,0-2,0.896-2,1.999C40,39.104,40.895,40,42,40c0,1.104,0.895,2,2,2c1.104,0,2-0.896,2-2c1.104,0,2-0.896,2-2.001
			C48,36.896,47.104,36,46,36z"/>
	</g>
</g>
<g>
</g>
<g>
</g>
<g>
</g>
<g>
</g>
<g>
</g>
<g>
</g>
<g>
</g>
<g>
</g>
<g>
</g>
<g>
</g>
<g>
</g>
<g>
</g>
<g>
</g>
<g>
</g>
<g>
</g>
</svg>
