<?xml version="1.0" encoding="iso-8859-1"?>
<!-- Generator: Adobe Illustrator 16.0.0, SVG Export Plug-In . SVG Version: 6.00 Build 0)  -->
<!DOCTYPE svg PUBLIC "-//W3C//DTD SVG 1.1//EN" "http://www.w3.org/Graphics/SVG/1.1/DTD/svg11.dtd">
<svg version="1.1" id="Layer_1" xmlns="http://www.w3.org/2000/svg" xmlns:xlink="http://www.w3.org/1999/xlink" x="0px" y="0px"
	 width="64px" height="62px" viewBox="0 0 64 62" style="enable-background:new 0 0 64 62;" xml:space="preserve">
<g id="Collar_12_">
	<g>
		<path style="fill:#387BA8;" d="M40,2c-2-2-4-2-8-2c-4,0-6,0-8,2l-4,4l12,12.001L44,6L40,2z"/>
	</g>
</g>
<g id="Interior_11_">
	<g>
		<path style="fill:#CCA352;" d="M42,6c-2-1.999-8-1.999-10-1.999s-8,0-10,1.999l-2,4l12,10.001L44,10L42,6z"/>
	</g>
</g>
<g id="Collar_13_">
	<g>
		<path style="fill:#48A0DC;" d="M40,2c0,0-2,6-8,6s-8-6-8-6l-4,2.001c0,0,4,8,12,8c8,0,12-8,12-8L40,2z"/>
	</g>
</g>
<g id="Shirt_6_">
	<g>
		<path style="fill:#FFCC66;" d="M50,30l12-6c-2.153-5.341-6-11.999-8-14c-2-2-6-4-10-5.999c0,0-4,8-12,8c-8,0-12-8-12-8
			C16,6,12,8,10,10c-2,2.001-5.847,8.659-8,14l12,6c1.275-2.57,2-2,2-2s-2,28.001-2,30c0,2.001,4,4,18,4c14,0,18-1.999,18-4
			c0-2-2-30-2-30S48.725,27.43,50,30z"/>
	</g>
</g>
<g id="Fringe_3_">
	<g>
		<path style="fill-rule:evenodd;clip-rule:evenodd;fill:#48A0DC;" d="M0,28c0,1.75,10.25,6,12,6c0.575,0,1.376-2.742,2-4L2,24
			C1.414,25.452,0,27.626,0,28z M62,24l-12,6c0.624,1.258,1.425,4,2,4c1.75,0,12-4.25,12-6C64,27.626,62.585,25.452,62,24z"/>
	</g>
</g>
<g>
</g>
<g>
</g>
<g>
</g>
<g>
</g>
<g>
</g>
<g>
</g>
<g>
</g>
<g>
</g>
<g>
</g>
<g>
</g>
<g>
</g>
<g>
</g>
<g>
</g>
<g>
</g>
<g>
</g>
</svg>
