<?xml version="1.0" encoding="iso-8859-1"?>
<!-- Generator: Adobe Illustrator 16.0.0, SVG Export Plug-In . SVG Version: 6.00 Build 0)  -->
<!DOCTYPE svg PUBLIC "-//W3C//DTD SVG 1.1//EN" "http://www.w3.org/Graphics/SVG/1.1/DTD/svg11.dtd">
<svg version="1.1" id="Layer_1" xmlns="http://www.w3.org/2000/svg" xmlns:xlink="http://www.w3.org/1999/xlink" x="0px" y="0px"
	 width="60px" height="64px" viewBox="0 0 60 64" style="enable-background:new 0 0 60 64;" xml:space="preserve">
<g id="Suit_1_">
	<g>
		<path style="fill-rule:evenodd;clip-rule:evenodd;fill:#666666;" d="M58,30c-2-18-4-20-6-20L38,4h-8h-8L8,10c-2,0-4,2-6,20
			S0,56,0,58s6,2,8,2s2-6,2-12s4-20,4-20s-2,16-2,34c0,0,4,2,10,2c4,0,8,0,8-4c0,4,4,4,8,4c6,0,10-2,10-2c0-18-2-34-2-34s4,14,4,20
			s0,12,2,12s8,0,8-2S59.78,46.025,58,30z"/>
	</g>
</g>
<g id="Pockets_9_">
	<g>
		<path style="fill-rule:evenodd;clip-rule:evenodd;fill:#4D4D4D;" d="M46,46c-0.813,0-8,1.374-8,1.999C38,49.062,39.375,50,40,50
			s8-1.626,8-2.001C48,47.25,46.5,46,46,46z M14,46c-0.5,0-2,1.25-2,1.999C12,48.374,19.375,50,20,50s2-0.938,2-2.001
			C22,47.374,14.813,46,14,46z"/>
	</g>
</g>
<g id="Collar_6_">
	<g>
		<path style="fill:#4D4D4D;" d="M42,6c-4-6-4-6-12-6s-8,0-12,6l4,2l-4,4l12,20l12-20l-4-4L42,6z"/>
	</g>
</g>
<g id="Interor_2_">
	<g>
		<path style="fill:#333333;" d="M30,4c-6,0-6,2-6,2l6,24l6-24C36,6,36,4,30,4z"/>
	</g>
</g>
<g>
</g>
<g>
</g>
<g>
</g>
<g>
</g>
<g>
</g>
<g>
</g>
<g>
</g>
<g>
</g>
<g>
</g>
<g>
</g>
<g>
</g>
<g>
</g>
<g>
</g>
<g>
</g>
<g>
</g>
</svg>
