<?xml version="1.0" encoding="iso-8859-1"?>
<!-- Generator: Adobe Illustrator 16.0.0, SVG Export Plug-In . SVG Version: 6.00 Build 0)  -->
<!DOCTYPE svg PUBLIC "-//W3C//DTD SVG 1.1//EN" "http://www.w3.org/Graphics/SVG/1.1/DTD/svg11.dtd">
<svg version="1.1" id="Layer_1" xmlns="http://www.w3.org/2000/svg" xmlns:xlink="http://www.w3.org/1999/xlink" x="0px" y="0px"
	 width="63.999px" height="64px" viewBox="0 0 63.999 64" style="enable-background:new 0 0 63.999 64;" xml:space="preserve">
<g id="Cuffs_1_">
	<g>
		<path style="fill-rule:evenodd;clip-rule:evenodd;fill:#408EC2;" d="M4,62.001c6,0,6,0,6-2.001c0-1.063,0-4,0-4l-8,2
			C2,62.001,2,62.001,4,62.001z M54,56c0,0,0,2.938,0,4c0,2.001,0,2.001,6,2.001c2,0,2,0,2-6L54,56z"/>
	</g>
</g>
<g id="Coat">
	<g>
		<path style="fill:#48A0DC;" d="M58,16c-4-4-8-6-8-6H14c0,0-4,2-8,6S0,36.001,0,40.001S0.463,58,1.999,58C3.524,58,10,57.451,10,56
			c0-3.371,1.104-9.285,2-14c1.266-6.667,2-6,2-6v24c0,4,0,4,4,4h28c4,0,4,0,4-4V36c0,0,0.733-0.667,2,6
			c0.895,4.715,2,10.629,2,14.001c0,1.45,6.475,2,8,2c1.537,0,1.999-16.001,1.999-20.001C63.999,34.001,62,20,58,16z"/>
	</g>
</g>
<g id="Zipper_1_">
	<g>
		<rect x="30" y="14" style="fill:#408EC2;" width="4" height="50"/>
	</g>
</g>
<g id="Pockets_8_">
	<g>
		<path style="fill-rule:evenodd;clip-rule:evenodd;fill:#408EC2;" d="M46,46c-0.75,0-2,1.188-2,2c0,0.959,3.625,8,6,8v-6
			C48.813,50,46.854,46,46,46z M18,46c-0.854,0-2.813,4-4,4v6c2.375,0,6-7.041,6-8C20,47.188,18.75,46,18,46z"/>
	</g>
</g>
<g id="Interior_5_">
	<g>
		<path style="fill:#2F698F;" d="M36,0h-8c0,0-8,3.037-8,6c0,3.985,10,10,10,10s0.375,4,2,4s2-4,2-4S44,9.985,44,6
			C44,3.037,36,0,36,0z"/>
	</g>
</g>
<g id="Hood">
	<g>
		<path style="fill-rule:evenodd;clip-rule:evenodd;fill:#408EC2;" d="M28,0c-6,0-14,6.295-14,10c0,0,7.225,6,16,6c0,0-6-6.274-6-10
			C24,3.324,28,0,28,0z M50,10c0-3.705-8-10-14-10c0,0,4,3.324,4,6c0,3.726-6,10-6,10C42.775,16,50,10,50,10z"/>
	</g>
</g>
<g>
</g>
<g>
</g>
<g>
</g>
<g>
</g>
<g>
</g>
<g>
</g>
<g>
</g>
<g>
</g>
<g>
</g>
<g>
</g>
<g>
</g>
<g>
</g>
<g>
</g>
<g>
</g>
<g>
</g>
</svg>
