<?xml version="1.0" encoding="iso-8859-1"?>
<!-- Generator: Adobe Illustrator 16.0.0, SVG Export Plug-In . SVG Version: 6.00 Build 0)  -->
<!DOCTYPE svg PUBLIC "-//W3C//DTD SVG 1.1//EN" "http://www.w3.org/Graphics/SVG/1.1/DTD/svg11.dtd">
<svg version="1.1" id="Layer_1" xmlns="http://www.w3.org/2000/svg" xmlns:xlink="http://www.w3.org/1999/xlink" x="0px" y="0px"
	 width="60px" height="64.001px" viewBox="0 0 60 64.001" style="enable-background:new 0 0 60 64.001;" xml:space="preserve">
<g id="Cuffs_4_">
	<g>
		<path style="fill-rule:evenodd;clip-rule:evenodd;fill:#CCCCCC;" d="M2,58.002c0,1.499,1.604,1.999,4,1.999
			c1.479,0,1.999-0.913,1.999-1.999v-4l-5.999,2V58.002z M52,54.002v4c0,1.086,0.521,1.999,2,1.999c2.396,0,4-0.5,4-1.999v-2
			L52,54.002z"/>
	</g>
</g>
<g id="Shirt_4_">
	<g>
		<path style="fill:#E6E6E6;" d="M52,10.001c-2-2-8-4-12-6v4H20v-4h-0.001c-4,2-10,4-12,6S0,29.336,0,34.002
			c0,4.665,0.463,21.999,2,21.999c1.524,0,5.999-0.549,5.999-1.999c0-4.197,3.448-17.955,4.001-20c0.777-2.878,2-4,2-4
			s-2,28-2,29.999c0,1.896,4,3.963,16,3.963h4c12,0,16-2.066,16-3.963c0-2-2-29.999-2-29.999s1.222,1.122,2,4
			c0.553,2.045,4,15.803,4,20c0,1.45,4.475,1.999,6,1.999c1.536,0,2-17.334,2-21.999C60,29.336,54,12.001,52,10.001z"/>
	</g>
</g>
<g id="Interior_9_">
	<g>
		<path style="fill:#999999;" d="M38,2.001C36,0,34,0,30,0h-0.001c-4,0-6,0-7.999,2.001l-2,2v4h20v-4L38,2.001z"/>
	</g>
</g>
<g id="Fringe_1_">
	<g>
		<rect x="28" y="8.001" style="fill:#CCCCCC;" width="4" height="56"/>
	</g>
</g>
<g id="Collar_10_">
	<g>
		<path style="fill-rule:evenodd;clip-rule:evenodd;fill:#CCCCCC;" d="M22,2.001l-2,2c0,8,0,10,2,10c1.999,0,7.999-6,7.999-6
			S25.999,8.001,22,2.001z M38,2.001c-4,6-8.001,6-8.001,6s6.001,6,8.001,6s2-2,2-10L38,2.001z"/>
	</g>
</g>
<g>
</g>
<g>
</g>
<g>
</g>
<g>
</g>
<g>
</g>
<g>
</g>
<g>
</g>
<g>
</g>
<g>
</g>
<g>
</g>
<g>
</g>
<g>
</g>
<g>
</g>
<g>
</g>
<g>
</g>
</svg>
