<?xml version="1.0" encoding="iso-8859-1"?>
<!-- Generator: Adobe Illustrator 16.0.0, SVG Export Plug-In . SVG Version: 6.00 Build 0)  -->
<!DOCTYPE svg PUBLIC "-//W3C//DTD SVG 1.1//EN" "http://www.w3.org/Graphics/SVG/1.1/DTD/svg11.dtd">
<svg version="1.1" id="Layer_1" xmlns="http://www.w3.org/2000/svg" xmlns:xlink="http://www.w3.org/1999/xlink" x="0px" y="0px"
	 width="48.001px" height="63.999px" viewBox="0 0 48.001 63.999" style="enable-background:new 0 0 48.001 63.999;"
	 xml:space="preserve">
<g id="Collar_7_">
	<g>
		<path style="fill:#808080;" d="M24.001,0c-4,0-6,0-10,1.999v34h20v-34C30.001,0,28.001,0,24.001,0z"/>
	</g>
</g>
<g id="Interior_6_">
	<g>
		<path style="fill:#666666;" d="M24.001,3.999c-4,0-6,0-10,2V60h20V5.999C30.001,3.999,28.001,3.999,24.001,3.999z"/>
	</g>
</g>
<g id="Vest">
	<g>
		<path style="fill-rule:evenodd;clip-rule:evenodd;fill:#999999;" d="M48.001,34c0,0-4-4-4-12c0-10.001,2-14.001,2-14.001
			c-2-1.999-8-4-12-6c0,0-8,28.001-8,32.001v25.999c2,2.001,2,4,4,4s18-7.999,18-9.999C48,50,48.001,34,48.001,34z M2.001,7.999
			c0,0,2,4,2,14.001C4.001,30,0,34,0,34s0.001,16,0.001,20c0,2,16,9.999,18,9.999s2-1.999,4-4V34c0-4-8-32.001-8-32.001
			C10,3.999,4.001,6,2.001,7.999z"/>
	</g>
</g>
<g id="Pockets_10_">
	<g>
		<path style="fill-rule:evenodd;clip-rule:evenodd;fill:#666666;" d="M42.001,42c-0.813,0-8,1.374-8,1.999c0,1.063,1.375,2,2,2
			s8-1.625,8-2C44.001,43.25,42.501,42,42.001,42z M6.001,42c-0.5,0-2,1.25-2,1.999c0,0.375,7.375,2,8,2s2-0.938,2-2
			C14.001,43.374,6.813,42,6.001,42z"/>
	</g>
</g>
<g>
</g>
<g>
</g>
<g>
</g>
<g>
</g>
<g>
</g>
<g>
</g>
<g>
</g>
<g>
</g>
<g>
</g>
<g>
</g>
<g>
</g>
<g>
</g>
<g>
</g>
<g>
</g>
<g>
</g>
</svg>
