<?xml version="1.0" encoding="iso-8859-1"?>
<!-- Generator: Adobe Illustrator 16.0.0, SVG Export Plug-In . SVG Version: 6.00 Build 0)  -->
<!DOCTYPE svg PUBLIC "-//W3C//DTD SVG 1.1//EN" "http://www.w3.org/Graphics/SVG/1.1/DTD/svg11.dtd">
<svg version="1.1" id="Layer_1" xmlns="http://www.w3.org/2000/svg" xmlns:xlink="http://www.w3.org/1999/xlink" x="0px" y="0px"
	 width="64px" height="24px" viewBox="0 0 64 24" style="enable-background:new 0 0 64 24;" xml:space="preserve">
<g id="Sole_12_">
	<g>
		<path style="fill:#333333;" d="M62,14H2v6c0,2,2,4,4,4c0,0,17.315-0.001,30-0.001c16,0,28-5.999,28-8C64,14,62,14,62,14z"/>
	</g>
</g>
<g id="Shoe">
	<g>
		<path style="fill:#D99857;" d="M40,6l-6-2c-6-4-8.149-4-10-4c-2,0-2,2-2,2c0,2,6,8,6,8h34C60.553,8.553,48,8,40,6z"/>
	</g>
</g>
<g id="Shoe_1_">
	<g>
		<path style="fill:#BF864C;" d="M62,10C22,10,8,4,2,4c-2,0-2,4-2,8c0,6,0,8,2,8h38c20,0,24-3.999,24-6C64,12,62,10,62,10z"/>
	</g>
</g>
<g>
</g>
<g>
</g>
<g>
</g>
<g>
</g>
<g>
</g>
<g>
</g>
<g>
</g>
<g>
</g>
<g>
</g>
<g>
</g>
<g>
</g>
<g>
</g>
<g>
</g>
<g>
</g>
<g>
</g>
</svg>
