<?xml version="1.0" encoding="iso-8859-1"?>
<!-- Generator: Adobe Illustrator 16.0.0, SVG Export Plug-In . SVG Version: 6.00 Build 0)  -->
<!DOCTYPE svg PUBLIC "-//W3C//DTD SVG 1.1//EN" "http://www.w3.org/Graphics/SVG/1.1/DTD/svg11.dtd">
<svg version="1.1" id="Layer_1" xmlns="http://www.w3.org/2000/svg" xmlns:xlink="http://www.w3.org/1999/xlink" x="0px" y="0px"
	 width="64px" height="64px" viewBox="0 0 64 64" style="enable-background:new 0 0 64 64;" xml:space="preserve">
<g id="Necklace">
	<g>
		<path style="fill-rule:evenodd;clip-rule:evenodd;fill:#9B7CAB;" d="M64,28c0-3.165-2.451-5.75-5.558-5.978
			C59.407,20.958,60,19.55,60,18c0-3.314-2.687-6-6-6c-0.79,0-1.543,0.157-2.234,0.434C51.903,11.977,52,11.502,52,11
			c0-2.762-2.239-5-5-5c-1.132,0-2.164,0.391-3.002,1.024C43.998,7.016,44,7.008,44,7c0-2.762-2.238-5-5-5
			c-1.181,0-2.252,0.426-3.107,1.111C35.487,1.331,33.902,0,32,0s-3.487,1.331-3.893,3.111C27.252,2.426,26.181,2,25,2
			c-2.762,0-5,2.238-5,5c0,0.008,0.002,0.016,0.002,0.024C19.164,6.391,18.132,6,17,6c-2.762,0-5,2.238-5,5
			c0,0.502,0.097,0.977,0.234,1.434C11.543,12.157,10.79,12,10,12c-3.313,0-6,2.686-6,6c0,1.55,0.593,2.958,1.558,4.022
			C2.45,22.25,0,24.835,0,28c0,2.578,1.628,4.769,3.91,5.618C2.737,34.713,2,36.269,2,38c0,3.313,2.686,6,6,6
			c1.184,0,2.285-0.348,3.215-0.94C10.449,44.183,10,45.539,10,47c0,3.866,3.134,7,7,7s7-3.134,7-7s-3.134-7-7-7
			c-1.462,0-2.817,0.449-3.939,1.215C13.652,40.285,14,39.184,14,38c0-2.578-1.629-4.769-3.91-5.618C11.263,31.287,12,29.731,12,28
			c0-1.55-0.593-2.958-1.557-4.022C13.549,23.75,16,21.164,16,18c0-0.791-0.156-1.543-0.435-2.234C16.022,15.904,16.498,16,17,16
			c2.762,0,5-2.238,5-5c0-0.008-0.002-0.016-0.002-0.024C22.836,11.609,23.868,12,25,12c2.617,0,4.74-2.017,4.957-4.578
			C30.557,7.781,31.25,8,32,8s1.443-0.219,2.043-0.578C34.26,9.983,36.383,12,39,12c1.132,0,2.164-0.391,3.002-1.024
			C42.002,10.984,42,10.992,42,11c0,2.762,2.238,5,5,5c0.502,0,0.977-0.096,1.435-0.234C48.156,16.457,48,17.209,48,18
			c0,3.164,2.45,5.75,5.557,5.978C52.593,25.042,52,26.45,52,28c0,1.731,0.737,3.286,1.91,4.381C51.628,33.231,50,35.422,50,38
			c0,1.184,0.348,2.285,0.939,3.215C49.817,40.449,48.461,40,47,40c-3.866,0-7,3.134-7,7s3.134,7,7,7c3.865,0,7-3.134,7-7
			c0-1.461-0.449-2.817-1.215-3.94C53.715,43.652,54.815,44,56,44c3.313,0,6-2.687,6-6c0-1.731-0.737-3.287-1.91-4.382
			C62.371,32.769,64,30.578,64,28z"/>
	</g>
</g>
<g id="Necklace_1_">
	<g>
		<circle style="fill:#F06EAA;" cx="32" cy="54" r="10"/>
	</g>
</g>
<g>
</g>
<g>
</g>
<g>
</g>
<g>
</g>
<g>
</g>
<g>
</g>
<g>
</g>
<g>
</g>
<g>
</g>
<g>
</g>
<g>
</g>
<g>
</g>
<g>
</g>
<g>
</g>
<g>
</g>
</svg>
