<?xml version="1.0" encoding="iso-8859-1"?>
<!-- Generator: Adobe Illustrator 16.0.0, SVG Export Plug-In . SVG Version: 6.00 Build 0)  -->
<!DOCTYPE svg PUBLIC "-//W3C//DTD SVG 1.1//EN" "http://www.w3.org/Graphics/SVG/1.1/DTD/svg11.dtd">
<svg version="1.1" id="Layer_1" xmlns="http://www.w3.org/2000/svg" xmlns:xlink="http://www.w3.org/1999/xlink" x="0px" y="0px"
	 width="64px" height="44px" viewBox="0 0 64 44" style="enable-background:new 0 0 64 44;" xml:space="preserve">
<g id="Heel_6_">
	<g>
		<path style="fill:#59422C;" d="M2,20c0,0,4,20.001,4,22.001C6,44,8,44,8,44h4c0,0,2,0,2-1.999c0-2,4-14.001,4-14.001v-8H2z"/>
	</g>
</g>
<g id="Shoe_13_">
	<g>
		<path style="fill:#735538;" d="M40,16c-4,0-6,4-12,4S8,0,8,0S0,6.001,0,14.001C0,18.001,2,20,2,20l12,6.001L34,36h16v-8
			C50,28,42,16,40,16z"/>
	</g>
</g>
<g id="Shoe_14_">
	<g>
		<path style="fill:#A67C52;" d="M50,28c0,0-2,4.001-4,4.001C38,32.001,26,24,22,24c-4,0-8,2.001-8,2.001L18,28
			c10,12.001,12,16,20,16c20,0,26-1.999,26-8C64,28,54,32.001,50,28z"/>
	</g>
</g>
<g>
</g>
<g>
</g>
<g>
</g>
<g>
</g>
<g>
</g>
<g>
</g>
<g>
</g>
<g>
</g>
<g>
</g>
<g>
</g>
<g>
</g>
<g>
</g>
<g>
</g>
<g>
</g>
<g>
</g>
</svg>
