<?xml version="1.0" encoding="iso-8859-1"?>
<!-- Generator: Adobe Illustrator 16.0.0, SVG Export Plug-In . SVG Version: 6.00 Build 0)  -->
<!DOCTYPE svg PUBLIC "-//W3C//DTD SVG 1.1//EN" "http://www.w3.org/Graphics/SVG/1.1/DTD/svg11.dtd">
<svg version="1.1" id="Layer_1" xmlns="http://www.w3.org/2000/svg" xmlns:xlink="http://www.w3.org/1999/xlink" x="0px" y="0px"
	 width="40px" height="64px" viewBox="0 0 40 64" style="enable-background:new 0 0 40 64;" xml:space="preserve">
<g id="Leg_Band_1_">
	<g>
		<path style="fill-rule:evenodd;clip-rule:evenodd;fill:#BFA284;" d="M2,62.001C2,63.104,2.896,64,4,64h8c1.104,0,2-0.896,2-1.999
			v-4H2V62.001z M26,58.001v4C26,63.104,26.896,64,28,64h8c1.104,0,2-0.896,2-1.999v-4H26z"/>
	</g>
</g>
<g id="Pants_2_">
	<g>
		<path style="fill:#A67C52;" d="M36,4.001H4C4,4.001,2,12,2,16v42.001h12c0-10.001,6-40,6-40s6,29.999,6,40h12V16
			C38,12,36,4.001,36,4.001z"/>
	</g>
</g>
<g id="Side_Pockets">
	<g>
		<path style="fill-rule:evenodd;clip-rule:evenodd;fill:#8C6845;" d="M38,22.001h-4c-1.104,0-2,0.895-2,1.999v12
			c0,1.105,0.896,2.001,2,2.001h4c1.104,0,2-0.896,2-2.001V24C40,22.896,39.104,22.001,38,22.001z M6,22.001H2
			c-1.104,0-2,0.895-2,1.999v12c0,1.105,0.896,2.001,2,2.001h4c1.104,0,2-0.896,2-2.001V24C8,22.896,7.104,22.001,6,22.001z"/>
	</g>
</g>
<g id="Side_Pockets_1_">
	<g>
		<path style="fill-rule:evenodd;clip-rule:evenodd;fill:#A67C52;" d="M38,22.001c-1.104,0-2,0.895-2,1.999v12
			c0,1.105,0.896,2.001,2,2.001s2-0.896,2-2.001V24C40,22.896,39.104,22.001,38,22.001z M2,22.001c-1.104,0-2,0.895-2,1.999v12
			c0,1.105,0.896,2.001,2,2.001S4,37.105,4,36V24C4,22.896,3.104,22.001,2,22.001z"/>
	</g>
</g>
<g id="Waist_Band_2_">
	<g>
		<path style="fill:#8C6845;" d="M34,0H6C4.896,0,4,0.896,4,2v2.001h32V2C36,0.896,35.104,0,34,0z"/>
	</g>
</g>
<g id="Front_Rise_5_">
	<g>
		<path style="fill:#8C6845;" d="M18,4.001V14c0,4.001,2,4.001,4,4.001v-14H18z"/>
	</g>
</g>
<g id="Pockets_5_">
	<g>
		<path style="fill-rule:evenodd;clip-rule:evenodd;fill:#8C6845;" d="M37.877,13.995C34.817,11.358,32,6.741,32,4.001h-4
			C28,8,34,16,38,16C38,15.408,37.952,14.723,37.877,13.995z M2.139,13.839C2.054,14.626,2,15.366,2,16c4,0,10-8.687,10-11.999H8
			C8,6.267,5.192,11.044,2.139,13.839z"/>
	</g>
</g>
<g>
</g>
<g>
</g>
<g>
</g>
<g>
</g>
<g>
</g>
<g>
</g>
<g>
</g>
<g>
</g>
<g>
</g>
<g>
</g>
<g>
</g>
<g>
</g>
<g>
</g>
<g>
</g>
<g>
</g>
</svg>
