<?xml version="1.0" encoding="iso-8859-1"?>
<!-- Generator: Adobe Illustrator 16.0.0, SVG Export Plug-In . SVG Version: 6.00 Build 0)  -->
<!DOCTYPE svg PUBLIC "-//W3C//DTD SVG 1.1//EN" "http://www.w3.org/Graphics/SVG/1.1/DTD/svg11.dtd">
<svg version="1.1" id="Layer_1" xmlns="http://www.w3.org/2000/svg" xmlns:xlink="http://www.w3.org/1999/xlink" x="0px" y="0px"
	 width="64px" height="64px" viewBox="0 0 64 64" style="enable-background:new 0 0 64 64;" xml:space="preserve">
<g id="Upper_10_">
	<g>
		<path style="fill:#4D4D4D;" d="M54.008,40.001h-11.99H2.052v14.001h57.951v-6.001C60.003,41.999,58.005,40.001,54.008,40.001z"/>
	</g>
</g>
<g id="Heel">
	<g>
		<path style="fill:#4D4D4D;" d="M20.037,3.998c0,0-15.423,0-17.985,0c-2.563,0-2,2-2,4c0,6.001,3.998,20.003,3.998,20.003
			c0,4-1.998,8-1.998,12v9.998h7.993h9.992h3.997l7.993-9.998L20.037,3.998z"/>
	</g>
</g>
<g id="Straps">
	<g>
		<path style="fill:#333333;" d="M30.029,26.001c-1.999-6-3.997-10.002-3.997-24.003C26.032,0,24.034,0,22.034,0h-1.997
			c-1.82,0-3.997,0-3.997,1.998v4c0,2-1.999,2-3.997,2H8.047c-1.998,0-3.997,0-3.997,2v2.003c0,1.998,1.999,1.998,3.997,1.998h3.997
			c1.999,0,7.994,0,7.994,2v2.002c0,2-3.997,2-5.995,2h-3.997c-1.999,0-3.997,0-3.997,1.998v2c0,2.002,1.998,2.002,3.997,2.002
			h3.997c1.871,0,5.995,0,5.995,2c0,1.998-5.995,5.998-7.994,8c-1.998,1.998-1.998,3-1.998,4c0,0.998,0.998,1.998,1.998,1.998
			c0.999,0,1.999,0,3.997-1.998c1.998-2.002,3.997-4,5.994-4c1.95,0,2,1.998,2,4c0,1.998-3.997,9.998-3.997,9.998l5.995,2.002
			c0,0,3.997-8,7.993-8c5.995,0,7.994-4,7.994-4S32.027,32.001,30.029,26.001z"/>
	</g>
</g>
<g id="Sole_20_">
	<g>
		<path style="fill:#333333;" d="M62.001,49.999l-1.998-1.998c0,0-5.995,6.001-19.983,6.001c-1.998,0-7.993,0-13.988-2.001
			l-5.995-2.002c-11.99-3.998-17.985-3.998-17.985-3.998s-1.999,3.998-1.999,6V60c0,2.002,1.999,4,7.993,4c3.608,0,11.99,0,11.99,0
			v-1.998c0,0,1.997-2.002,5.995-2.002c3.997,0,7.993,4,13.988,4S64,62.002,64,54.002C64,52.001,62.001,49.999,62.001,49.999z"/>
	</g>
</g>
<g id="Metal">
	<g>
		<path style="fill-rule:evenodd;clip-rule:evenodd;fill:#666666;" d="M4.05,52.001H0.054V58H4.05c1.999,0,3.997,0,3.997-2v-1.998
			C8.047,52.001,6.049,52.001,4.05,52.001z M62.001,49.999c0,0-3.997,2.002-3.997,4.003C58.005,56,60.003,56,60.003,56
			C62.001,56,64,54.002,64,54.002C64,52.001,62.001,49.999,62.001,49.999z M26.032,56h-3.998c-1.997,0-1.997,2-1.997,6.002
			c0,0,1.997-2.002,5.995-2.002c3.997,0,5.995,0,5.995-2S28.03,56,26.032,56z"/>
	</g>
</g>
<g id="Buckle_2_">
	<g>
		<path style="fill-rule:evenodd;clip-rule:evenodd;fill:#999999;" d="M16.041,26.001v-6c0-1-1.104-2-1.999-2
			c-3.997,0-5.995,0-5.995,2c0,0,3.997,0,3.997,1.998v2c0,2.002-3.997,2.002-3.997,2.002c0,2,1.999,2,5.995,2
			C15.041,28.001,16.041,27.001,16.041,26.001z M14.042,13.999V7.998c0-1-1.104-2-1.999-2c-3.997,0-5.995,0-5.995,2
			c0,0,3.997,0,3.997,2v2.003c0,1.998-3.997,1.998-3.997,1.998c0,2,1.998,2,5.995,2C13.042,15.999,14.042,15.001,14.042,13.999z
			 M20.037,32.001c-1.999-2.002-1.999-2.002-3.997-2.002c-1.999,0-3.997,2.002-3.997,6.002c0,0,1.999-2.002,3.997-2.002l1.998,2.002
			c0,1.998-1.998,4-1.998,4c3.997,0,5.994-2.002,5.994-4C22.034,33.999,22.034,33.999,20.037,32.001z"/>
	</g>
</g>
<g>
</g>
<g>
</g>
<g>
</g>
<g>
</g>
<g>
</g>
<g>
</g>
<g>
</g>
<g>
</g>
<g>
</g>
<g>
</g>
<g>
</g>
<g>
</g>
<g>
</g>
<g>
</g>
<g>
</g>
</svg>
