<?xml version="1.0" encoding="iso-8859-1"?>
<!-- Generator: Adobe Illustrator 16.0.0, SVG Export Plug-In . SVG Version: 6.00 Build 0)  -->
<!DOCTYPE svg PUBLIC "-//W3C//DTD SVG 1.1//EN" "http://www.w3.org/Graphics/SVG/1.1/DTD/svg11.dtd">
<svg version="1.1" id="Layer_1" xmlns="http://www.w3.org/2000/svg" xmlns:xlink="http://www.w3.org/1999/xlink" x="0px" y="0px"
	 width="64px" height="28px" viewBox="0 0 64 28" style="enable-background:new 0 0 64 28;" xml:space="preserve">
<g id="Strap_3_">
	<g>
		<path style="fill-rule:evenodd;clip-rule:evenodd;fill:#666666;" d="M6,8c-2,0-2,2-2,4s10.175,5.131,16,12h8
			C24.316,15.959,8,8,6,8z M36,8c0,0-2-2-6,0c2,4,2,16,2,16h6C38,24,38,14,36,8z"/>
	</g>
</g>
<g id="Strap_4_">
	<g>
		<path style="fill-rule:evenodd;clip-rule:evenodd;fill:#808080;" d="M56,18.001L46,14c0,8-2,10-2,10h12c0,0,2,0,2-2
			S56,18.001,56,18.001z M30,0C20,0,6,24,6,24h8c0,0,4-10,16-16c4-2,6,0,6,0C34,2,32,0,30,0z"/>
	</g>
</g>
<g id="Buckle_1_">
	<g>
		<path style="fill:#CCCCCC;" d="M22,4c-1,0-4,3-4,4c0,1.001,5,4,6,4s4-2.999,4-4C28,7,23,4,22,4z"/>
	</g>
</g>
<g id="Sole_11_">
	<g>
		<path style="fill:#333333;" d="M62,24L2,22c-1.105,0-2,0.896-2,2v2.001C0,27.104,0.895,28,2,28h60c1.104,0,2-0.896,2-1.999
			C64,24.896,63.104,24,62,24z"/>
	</g>
</g>
<g>
</g>
<g>
</g>
<g>
</g>
<g>
</g>
<g>
</g>
<g>
</g>
<g>
</g>
<g>
</g>
<g>
</g>
<g>
</g>
<g>
</g>
<g>
</g>
<g>
</g>
<g>
</g>
<g>
</g>
</svg>
