<?xml version="1.0" encoding="iso-8859-1"?>
<!-- Generator: Adobe Illustrator 16.0.0, SVG Export Plug-In . SVG Version: 6.00 Build 0)  -->
<!DOCTYPE svg PUBLIC "-//W3C//DTD SVG 1.1//EN" "http://www.w3.org/Graphics/SVG/1.1/DTD/svg11.dtd">
<svg version="1.1" id="Layer_1" xmlns="http://www.w3.org/2000/svg" xmlns:xlink="http://www.w3.org/1999/xlink" x="0px" y="0px"
	 width="56px" height="64.001px" viewBox="0 0 56 64.001" style="enable-background:new 0 0 56 64.001;" xml:space="preserve">
<g id="Skirt">
	<g>
		<path style="fill:#BFA386;" d="M46,12.001c0-4.001-2-6-2-6H12c0,0,2,36,4,44s8,14,16,14s24-4,24-6C56,54.001,46,20,46,12.001z"/>
	</g>
</g>
<g id="Skirt_1_">
	<g>
		<path style="fill:#D9B898;" d="M12,6.001c0,0-2,1.999-2,6c0,7.999-10,42-10,46c0,2,16,6,24,6s14-6,16-14s4-44,4-44H12z"/>
	</g>
</g>
<g id="Weist">
	<g>
		<path style="fill:#BFA386;" d="M42,0H14c-1.105,0-2,0.896-2,2v4.001h32V2C44,0.896,43.104,0,42,0z"/>
	</g>
</g>
<g>
</g>
<g>
</g>
<g>
</g>
<g>
</g>
<g>
</g>
<g>
</g>
<g>
</g>
<g>
</g>
<g>
</g>
<g>
</g>
<g>
</g>
<g>
</g>
<g>
</g>
<g>
</g>
<g>
</g>
</svg>
