<?xml version="1.0" encoding="iso-8859-1"?>
<!-- Generator: Adobe Illustrator 16.0.0, SVG Export Plug-In . SVG Version: 6.00 Build 0)  -->
<!DOCTYPE svg PUBLIC "-//W3C//DTD SVG 1.1//EN" "http://www.w3.org/Graphics/SVG/1.1/DTD/svg11.dtd">
<svg version="1.1" id="Layer_1" xmlns="http://www.w3.org/2000/svg" xmlns:xlink="http://www.w3.org/1999/xlink" x="0px" y="0px"
	 width="40px" height="64.001px" viewBox="0 0 40 64.001" style="enable-background:new 0 0 40 64.001;" xml:space="preserve">
<g id="Skirt_4_">
	<g>
		<path style="fill:#666666;" d="M36,4.001H4c0,0-4,6-4,18c0,13.999,4,20.015,4,30h32c0-9.985,4-16.001,4-30
			C40,10.001,36,4.001,36,4.001z"/>
	</g>
</g>
<g id="Skirt_5_">
	<g>
		<path style="fill:#999999;" d="M36,52.001H4c0,0-4,8-4,10s6-2,6,0s2,2,4,2c4,0,6-2,8-2s2,2,6,2c2,0,4-2,8-2c2,0,8,2,8,0
			S36,52.001,36,52.001z"/>
	</g>
</g>
<g id="Weist_3_">
	<g>
		<path style="fill:#4D4D4D;" d="M34,0H6C4.895,0,4,0.896,4,2v2.001h32V2C36,0.896,35.104,0,34,0z"/>
	</g>
</g>
<g>
</g>
<g>
</g>
<g>
</g>
<g>
</g>
<g>
</g>
<g>
</g>
<g>
</g>
<g>
</g>
<g>
</g>
<g>
</g>
<g>
</g>
<g>
</g>
<g>
</g>
<g>
</g>
<g>
</g>
</svg>
