<?xml version="1.0" encoding="iso-8859-1"?>
<!-- Generator: Adobe Illustrator 16.0.0, SVG Export Plug-In . SVG Version: 6.00 Build 0)  -->
<!DOCTYPE svg PUBLIC "-//W3C//DTD SVG 1.1//EN" "http://www.w3.org/Graphics/SVG/1.1/DTD/svg11.dtd">
<svg version="1.1" id="Layer_1" xmlns="http://www.w3.org/2000/svg" xmlns:xlink="http://www.w3.org/1999/xlink" x="0px" y="0px"
	 width="40px" height="64.001px" viewBox="0 0 40 64.001" style="enable-background:new 0 0 40 64.001;" xml:space="preserve">
<g id="Skirt_3_">
	<g>
		<path style="fill:#CCCCCC;" d="M36,4.001H4c0,0-4,6-4,12c0,8,2,42,2,44s0,4,17.827,4c18.173,0,18.173-2,18.173-4s2-36,2-44
			C40,10.001,36,4.001,36,4.001z"/>
	</g>
</g>
<g id="Fold_1_">
	<g>
		<path style="fill-rule:evenodd;clip-rule:evenodd;fill:#B3B3B3;" d="M8,24.001c0-8,6-20,6-20h-4C10,4.001,8,12.001,8,24.001z
			 M30,4.001h-4c0,0,6,12,6,20C32,12.001,30,4.001,30,4.001z"/>
	</g>
</g>
<g id="Weist_2_">
	<g>
		<path style="fill:#999999;" d="M34,0H6C4.895,0,4,0.896,4,2v2.001h32V2C36,0.896,35.104,0,34,0z"/>
	</g>
</g>
<g>
</g>
<g>
</g>
<g>
</g>
<g>
</g>
<g>
</g>
<g>
</g>
<g>
</g>
<g>
</g>
<g>
</g>
<g>
</g>
<g>
</g>
<g>
</g>
<g>
</g>
<g>
</g>
<g>
</g>
</svg>
