<?xml version="1.0" encoding="iso-8859-1"?>
<!-- Generator: Adobe Illustrator 16.0.0, SVG Export Plug-In . SVG Version: 6.00 Build 0)  -->
<!DOCTYPE svg PUBLIC "-//W3C//DTD SVG 1.1//EN" "http://www.w3.org/Graphics/SVG/1.1/DTD/svg11.dtd">
<svg version="1.1" id="Layer_1" xmlns="http://www.w3.org/2000/svg" xmlns:xlink="http://www.w3.org/1999/xlink" x="0px" y="0px"
	 width="64px" height="64px" viewBox="0 0 64 64" style="enable-background:new 0 0 64 64;" xml:space="preserve">
<g id="Interior_1_">
	<g>
		<path style="fill:#638C3F;" d="M28,12L14,26c-2,2-2,8-4,10l18,16c2-2,10-4,12-6l12-12L28,12z"/>
	</g>
</g>
<g id="Sole_27_">
	<g>
		<path style="fill:#CCCCCC;" d="M30,16c0,0-18,18-20,20S0,44,0,52c0,6,4,12,12,12s10-6,16-12c2-2,20-20,20-20L30,16z"/>
	</g>
</g>
<g id="Upper_13_">
	<g>
		<path style="fill:#88C057;" d="M50,0C37.001,0,24,14,18,20c-2,2-4,6-4,6s6-4,14-4s16,6,16,14c0,6-4,10-4,10s4-2,6-4
			c6-6,18-18.515,18-30C64,6,58,0,50,0z"/>
	</g>
</g>
<g>
</g>
<g>
</g>
<g>
</g>
<g>
</g>
<g>
</g>
<g>
</g>
<g>
</g>
<g>
</g>
<g>
</g>
<g>
</g>
<g>
</g>
<g>
</g>
<g>
</g>
<g>
</g>
<g>
</g>
</svg>
