<?xml version="1.0" encoding="iso-8859-1"?>
<!-- Generator: Adobe Illustrator 16.0.0, SVG Export Plug-In . SVG Version: 6.00 Build 0)  -->
<!DOCTYPE svg PUBLIC "-//W3C//DTD SVG 1.1//EN" "http://www.w3.org/Graphics/SVG/1.1/DTD/svg11.dtd">
<svg version="1.1" id="Layer_1" xmlns="http://www.w3.org/2000/svg" xmlns:xlink="http://www.w3.org/1999/xlink" x="0px" y="0px"
	 width="36.001px" height="64px" viewBox="0 0 36.001 64" style="enable-background:new 0 0 36.001 64;" xml:space="preserve">
<g id="Leg_Band">
	<g>
		<path style="fill-rule:evenodd;clip-rule:evenodd;fill:#B3B3B3;" d="M2.001,62.001c0,1.104,0.895,1.999,2,1.999h6
			c1.104,0,2-0.896,2-1.999v-2h-10V62.001z M24.001,60.001v2c0,1.104,0.895,1.999,2,1.999h6c1.104,0,2-0.896,2-1.999v-2H24.001z"/>
	</g>
</g>
<g id="Pants">
	<g>
		<path style="fill:#CCCCCC;" d="M36,14c0-4-1.999-9.999-1.999-9.999h-32c0,0-2,6-2,9.999v6.001c0,3.999,0,40,2,40h10
			C12.001,50,18,26,18,26s6.001,24,6.001,34.001h10c2,0,2-36.001,2-40L36,14z"/>
	</g>
</g>
<g id="Waist_Band">
	<g>
		<path style="fill:#B3B3B3;" d="M32.001,0h-28c-1.105,0-2,0.896-2,2v2.001h32V2C34.001,0.896,33.105,0,32.001,0z"/>
	</g>
</g>
<g id="Pockets_3_">
	<g>
		<path style="fill-rule:evenodd;clip-rule:evenodd;fill:#B3B3B3;" d="M8.001,8c-1,0-4,4.001-8,6.001L0,20
			c4.001-1.999,10.001-8.999,10.001-9.999C10.001,9,9.001,8,8.001,8z M28.001,8c-1,0-2,1-2,2.001c0,1,6,8,10,9.999v-5.999
			C32.001,12.001,29.001,8,28.001,8z"/>
	</g>
</g>
<g>
</g>
<g>
</g>
<g>
</g>
<g>
</g>
<g>
</g>
<g>
</g>
<g>
</g>
<g>
</g>
<g>
</g>
<g>
</g>
<g>
</g>
<g>
</g>
<g>
</g>
<g>
</g>
<g>
</g>
</svg>
