<?xml version="1.0" encoding="iso-8859-1"?>
<!-- Generator: Adobe Illustrator 16.0.0, SVG Export Plug-In . SVG Version: 6.00 Build 0)  -->
<!DOCTYPE svg PUBLIC "-//W3C//DTD SVG 1.1//EN" "http://www.w3.org/Graphics/SVG/1.1/DTD/svg11.dtd">
<svg version="1.1" id="Layer_1" xmlns="http://www.w3.org/2000/svg" xmlns:xlink="http://www.w3.org/1999/xlink" x="0px" y="0px"
	 width="64px" height="28px" viewBox="0 0 64 28" style="enable-background:new 0 0 64 28;" xml:space="preserve">
<g id="Sandal">
	<g>
		<path style="fill:#BF864C;" d="M58,12h-2C46.483,12,32,0,30,0s-6,8-14,8C10,8,8,2,6,2S2,6,2,8s8,4,8,8c0,0.926,0,6,0,6h10v-3.999
			C20,16,27.631,8,34,8c2.023,0,6,2,6,4s-10,2-10,10h6c0,0,4-6,8-6c2,0,2,6,2,6h6c0-3.999,0-6,2-6c4,0,4,6,4,6h4v-8L58,12z"/>
	</g>
</g>
<g id="Sole_10_">
	<g>
		<path style="fill:#666666;" d="M58,12c0,0,2,2,2,4c0,4-4,6-14,6c-9.835,0-20-3.999-24-3.999S16,20,10,20c-4,0-6.249-1.999-8-1.999
			c-1,0-2,0-2,1.999c0,4,2,8,10,8s10-1.999,14-1.999c2.686,0,10,1.999,18,1.999c18,0,22-6,22-9.999C64,14.628,62,12,58,12z"/>
	</g>
</g>
<g id="Strap_2_">
	<g>
		<path style="fill-rule:evenodd;clip-rule:evenodd;fill:#F2AA61;" d="M30,0c-1,0-2,2-4,4l-4,4c-2,2-4,3.665-4,4c0,1,3,2,4,2
			s2-2,4-4l4-4c2-2,4-3,4-4C34,1.001,31,0,30,0z M50,10c-1,0-4,3-4,4s3,2,4,2s4-3,4-4S51,10,50,10z"/>
	</g>
</g>
<g id="Buckle">
	<g>
		<polygon style="fill:#999999;" points="26,4 22,8 26,10 30,6 		"/>
	</g>
</g>
<g>
</g>
<g>
</g>
<g>
</g>
<g>
</g>
<g>
</g>
<g>
</g>
<g>
</g>
<g>
</g>
<g>
</g>
<g>
</g>
<g>
</g>
<g>
</g>
<g>
</g>
<g>
</g>
<g>
</g>
</svg>
