<?xml version="1.0" encoding="iso-8859-1"?>
<!-- Generator: Adobe Illustrator 16.0.0, SVG Export Plug-In . SVG Version: 6.00 Build 0)  -->
<!DOCTYPE svg PUBLIC "-//W3C//DTD SVG 1.1//EN" "http://www.w3.org/Graphics/SVG/1.1/DTD/svg11.dtd">
<svg version="1.1" id="Layer_1" xmlns="http://www.w3.org/2000/svg" xmlns:xlink="http://www.w3.org/1999/xlink" x="0px" y="0px"
	 width="64px" height="56px" viewBox="0 0 64 56" style="enable-background:new 0 0 64 56;" xml:space="preserve">
<g id="Strap_15_">
	<g>
		<path style="fill-rule:evenodd;clip-rule:evenodd;fill:#FF8833;" d="M54,40c-6,0-14-8-14-38c0-1.104-0.896-2-2-2H10C10,0,0,6,0,16
			l16,10c0,0-0.003-13.9-3.481-22h23.502c0.231,17.95,3.545,28.088,7.5,33.652L28,48l4,6l14.705-12.867
			c1.616,1.338,3.229,2.112,4.694,2.508L44,54h8c0,0,6-9.999,6-12C58,40,56,40,54,40z"/>
	</g>
</g>
<g id="Buckle_10_">
	<g>
		<path style="fill:#999999;" d="M30,0h-6c-1.104,0-2,0.896-2,2s0.896,2,2,2h6c1.104,0,2-0.896,2-2S31.104,0,30,0z"/>
	</g>
</g>
<g id="Shoe_25_">
	<g>
		<path style="fill:#999999;" d="M60,50c-2,0-6,2-26,2c-2,0-6.845-11.478-14-24C12,14,4,14,2,14s-2,0-2,2c0,1.688,0,2,0,2s6,8,6,36
			c0,1.104,0.896,2,2,2s2-0.896,2-2V30c0-2,0-4,2-4c1.188,0,2.992,2.272,4,4c14,24,10,26,16,26c22,0,32-2,32-4S62,50,60,50z"/>
	</g>
</g>
<g>
</g>
<g>
</g>
<g>
</g>
<g>
</g>
<g>
</g>
<g>
</g>
<g>
</g>
<g>
</g>
<g>
</g>
<g>
</g>
<g>
</g>
<g>
</g>
<g>
</g>
<g>
</g>
<g>
</g>
</svg>
