<?xml version="1.0" encoding="iso-8859-1"?>
<!-- Generator: Adobe Illustrator 16.0.0, SVG Export Plug-In . SVG Version: 6.00 Build 0)  -->
<!DOCTYPE svg PUBLIC "-//W3C//DTD SVG 1.1//EN" "http://www.w3.org/Graphics/SVG/1.1/DTD/svg11.dtd">
<svg version="1.1" id="Layer_1" xmlns="http://www.w3.org/2000/svg" xmlns:xlink="http://www.w3.org/1999/xlink" x="0px" y="0px"
	 width="64px" height="40px" viewBox="0 0 64 40" style="enable-background:new 0 0 64 40;" xml:space="preserve">
<g id="Front_3_">
	<g>
		<path style="fill:#FF8833;" d="M16,3.999V6c0,2,2,3.999,8,15.999C30,34,28,40,30,40h4c2,0,0-6,6-18.001C46,9.999,48,8,48,6V3.999
			H16z"/>
	</g>
</g>
<g id="Band_8_">
	<g>
		<path style="fill:#E67A2E;" d="M62,0c-2,0-12,1.999-30,1.999S4,0,2,0S0,1.999,0,3.999C0,6,14,6,32,6s32,0,32-2.001
			C64,1.999,64,0,62,0z"/>
	</g>
</g>
<g>
</g>
<g>
</g>
<g>
</g>
<g>
</g>
<g>
</g>
<g>
</g>
<g>
</g>
<g>
</g>
<g>
</g>
<g>
</g>
<g>
</g>
<g>
</g>
<g>
</g>
<g>
</g>
<g>
</g>
</svg>
