<?xml version="1.0" encoding="iso-8859-1"?>
<!-- Generator: Adobe Illustrator 16.0.0, SVG Export Plug-In . SVG Version: 6.00 Build 0)  -->
<!DOCTYPE svg PUBLIC "-//W3C//DTD SVG 1.1//EN" "http://www.w3.org/Graphics/SVG/1.1/DTD/svg11.dtd">
<svg version="1.1" id="Layer_1" xmlns="http://www.w3.org/2000/svg" xmlns:xlink="http://www.w3.org/1999/xlink" x="0px" y="0px"
	 width="64px" height="44px" viewBox="0 0 64 44" style="enable-background:new 0 0 64 44;" xml:space="preserve">
<g id="Sole_18_">
	<g>
		<path style="fill:#B37D47;" d="M62.001,32C50.001,32,2,32,2,32v4c-1.104,0-2,0.896-2,2v4c0,1.104,0.896,2,2,2h14
			c1.104,0,2-0.896,2-2v-2c2.741-0.028,7.489,0.681,12.001,2c1.979,0.578,0,2,2,2C48,44,64,38,64,36s0-2,0-2S64,32,62.001,32z"/>
	</g>
</g>
<g id="Boot_3_">
	<g>
		<path style="fill:#D99857;" d="M56.001,24c-2.696,0-6,0-10,0c-4.001,0-6.001-2-8-4c-2.001-2-12-20-14-20S10,2,2.001,2
			C2.001,18,0,28,0,32s2.001,4,2.001,4H18c8,0,10.001,2,22,2c10.001,0,22.001-4,22.001-6S62,24,56.001,24z"/>
	</g>
</g>
<g id="Tab">
	<g>
		<path style="fill:#666666;" d="M18,0c-2,0-3.999,2-15.999,2C0,2,0,4,0,6s0,4,2.001,4c12,0,18-2,18-4S20.001,0,18,0z"/>
	</g>
</g>
<g id="Holes_2_">
	<g>
		<path style="fill-rule:evenodd;clip-rule:evenodd;fill:#FFBE7D;" d="M24.001,4C22.896,4,22,4.896,22,6s0.896,2,2.001,2
			C25.104,8,26,7.104,26,6S25.104,4,24.001,4z M28.001,10C26.896,10,26,10.896,26,12s0.896,2,2.001,2c1.104,0,2-0.896,2-2
			S29.105,10,28.001,10z M32.001,16c-1.105,0-2,0.896-2,2s0.895,2,2,2C33.104,20,34,19.104,34,18S33.104,16,32.001,16z"/>
	</g>
</g>
<g>
</g>
<g>
</g>
<g>
</g>
<g>
</g>
<g>
</g>
<g>
</g>
<g>
</g>
<g>
</g>
<g>
</g>
<g>
</g>
<g>
</g>
<g>
</g>
<g>
</g>
<g>
</g>
<g>
</g>
</svg>
