<?xml version="1.0" encoding="iso-8859-1"?>
<!-- Generator: Adobe Illustrator 16.0.0, SVG Export Plug-In . SVG Version: 6.00 Build 0)  -->
<!DOCTYPE svg PUBLIC "-//W3C//DTD SVG 1.1//EN" "http://www.w3.org/Graphics/SVG/1.1/DTD/svg11.dtd">
<svg version="1.1" id="Layer_1" xmlns="http://www.w3.org/2000/svg" xmlns:xlink="http://www.w3.org/1999/xlink" x="0px" y="0px"
	 width="56px" height="64px" viewBox="0 0 56 64" style="enable-background:new 0 0 56 64;" xml:space="preserve">
<g id="Fur">
	<g>
		<path style="fill:#F2DAC2;" d="M46,2.001c-4,0-10,15.296-10,21.999v22.001c0,5.999-2,10-8,10s-8-8-12-12.001
			c-4-3.999-16-3.999-16-3.999S0,44,2,44s6,0,10,4.001c4,3.999,4,14,16,14s14-8,14-16v-18c0,0,14-2,14-8S52,2.001,46,2.001z"/>
	</g>
</g>
<g id="Cap">
	<g>
		<path style="fill:#48A0DC;" d="M28,0C8,0,0,16,0,26.001v14c0,0,12,0,16,3.999c4,4.001,6,12.001,12,12.001s8-4.001,8-10V24
			l6-17.999C42,6.001,38,0,28,0z"/>
	</g>
</g>
<g id="Strap_22_">
	<g>
		<path style="fill:#A67C52;" d="M28,48.001c-1.104,0-2,0.895-2,2v12C26,63.105,26.896,64,28,64s2-0.895,2-1.999v-12
			C30,48.896,29.104,48.001,28,48.001z"/>
	</g>
</g>
<g>
</g>
<g>
</g>
<g>
</g>
<g>
</g>
<g>
</g>
<g>
</g>
<g>
</g>
<g>
</g>
<g>
</g>
<g>
</g>
<g>
</g>
<g>
</g>
<g>
</g>
<g>
</g>
<g>
</g>
</svg>
