<?xml version="1.0" encoding="iso-8859-1"?>
<!-- Generator: Adobe Illustrator 16.0.0, SVG Export Plug-In . SVG Version: 6.00 Build 0)  -->
<!DOCTYPE svg PUBLIC "-//W3C//DTD SVG 1.1//EN" "http://www.w3.org/Graphics/SVG/1.1/DTD/svg11.dtd">
<svg version="1.1" id="Layer_1" xmlns="http://www.w3.org/2000/svg" xmlns:xlink="http://www.w3.org/1999/xlink" x="0px" y="0px"
	 width="64px" height="48px" viewBox="0 0 64 48" style="enable-background:new 0 0 64 48;" xml:space="preserve">
<g id="Back_1_">
	<g>
		<path style="fill:#B3B3B3;" d="M0,23.999V26c0,10,26,12,26,18h12c0-6,26-8,26-18v-2.001H0z"/>
	</g>
</g>
<g id="Front_6_">
	<g>
		<path style="fill:#E6E6E6;" d="M0,8v18c0,0,0-2.001,4-2.001C12,23.999,26,36,26,44c0,2,0,4,2,4h8c2,0,2-2,2-4
			c0-8,14-20.001,22-20.001c4,0,4,2.001,4,2.001V8H0z"/>
	</g>
</g>
<g id="Lines_4_">
	<g>
		<path style="fill-rule:evenodd;clip-rule:evenodd;fill:#CCCCCC;" d="M42,8h-4c0,0,3.819,15.286,3.991,27.183
			c1.084-1.346,2.335-2.659,3.684-3.886C44.724,20.266,42,8,42,8z M18.324,31.297c1.349,1.227,2.6,2.54,3.684,3.886
			C22.18,23.286,26,8,26,8h-4C22,8,19.275,20.265,18.324,31.297z"/>
	</g>
</g>
<g id="Weist_Band_1_">
	<g>
		<path style="fill:#CCCCCC;" d="M62,0H2C0.895,0,0,0.896,0,2v6h64V2C64,0.896,63.104,0,62,0z"/>
	</g>
</g>
<g>
</g>
<g>
</g>
<g>
</g>
<g>
</g>
<g>
</g>
<g>
</g>
<g>
</g>
<g>
</g>
<g>
</g>
<g>
</g>
<g>
</g>
<g>
</g>
<g>
</g>
<g>
</g>
<g>
</g>
</svg>
