<?xml version="1.0" encoding="iso-8859-1"?>
<!-- Generator: Adobe Illustrator 16.0.0, SVG Export Plug-In . SVG Version: 6.00 Build 0)  -->
<!DOCTYPE svg PUBLIC "-//W3C//DTD SVG 1.1//EN" "http://www.w3.org/Graphics/SVG/1.1/DTD/svg11.dtd">
<svg version="1.1" id="Layer_1" xmlns="http://www.w3.org/2000/svg" xmlns:xlink="http://www.w3.org/1999/xlink" x="0px" y="0px"
	 width="63.981px" height="44.035px" viewBox="0 0 63.981 44.035" style="enable-background:new 0 0 63.981 44.035;"
	 xml:space="preserve">
<g id="Wash_7_">
	<g>
		<path style="fill:#FFA79C;" d="M51.991,2.035c-6,0-6,4-10,4s-4-4-10-4s-6,4-10,4s-4-4-10-4s-10,5.999-10,5.999l10,34h40l10-34
			C61.991,8.034,57.991,2.035,51.991,2.035z"/>
	</g>
</g>
<g id="Wash_2_">
	<g>
		<path style="fill-rule:evenodd;clip-rule:evenodd;fill:#ED7161;" d="M62.537,0.067c-1.039-0.281-2.106,0.343-2.386,1.394
			l-9.706,38.574H13.536L3.83,1.461C3.551,0.41,2.483-0.214,1.444,0.067C0.405,0.35-0.211,1.43,0.067,2.48L10.15,42.552
			c0.229,0.867,0.997,1.434,1.841,1.451v0.032h40v-0.032c0.844-0.018,1.611-0.584,1.841-1.451L63.915,2.48
			C64.193,1.43,63.576,0.35,62.537,0.067z"/>
	</g>
</g>
<g id="_x39_0">
	<g>
		<path style="fill-rule:evenodd;clip-rule:evenodd;fill:#FFFFFF;" d="M23.991,14.003c-3.293,0-5.97,2.7-5.97,6.021
			s2.677,6.021,5.97,6.021c0.294,0,0.581-0.028,0.863-0.07c-0.565,0.982-1.324,1.708-2.237,2.629
			c-0.004,0.005-0.006,0.012-0.011,0.017C22.233,28.984,22,29.493,22,30.059c0,1.107,0.891,2.007,1.989,2.007
			c0.43,0,0.826-0.141,1.151-0.375c0.081-0.053,0.157-0.111,0.222-0.177c2.189-2.209,4.597-4.846,4.597-11.49
			C29.959,16.703,27.282,14.003,23.991,14.003z M23.991,22.031c-1.098,0-1.99-0.9-1.99-2.008c0-1.106,0.893-2.006,1.99-2.006
			c1.097,0,1.989,0.899,1.989,2.006C25.98,21.131,25.087,22.031,23.991,22.031z M37.991,14.034c-3.314,0-6,2.687-6,6v0.001v6
			c0,3.313,2.686,5.999,6,5.999c3.313,0,6-2.686,6-5.999v-6v-0.001C43.991,16.721,41.304,14.034,37.991,14.034z M39.991,20.035v6
			c0,1.104-0.896,1.999-2,1.999s-2-0.895-2-1.999v-6v-0.001c0-1.104,0.896-2.001,2-2.001S39.991,18.93,39.991,20.035L39.991,20.035z
			 M47.991,14.035c-1.104,0-2,0.896-2,1.999c0,1.105,0.896,2.001,2,2.001s2-0.896,2-2.001
			C49.991,14.931,49.095,14.035,47.991,14.035z"/>
	</g>
</g>
<g>
</g>
<g>
</g>
<g>
</g>
<g>
</g>
<g>
</g>
<g>
</g>
<g>
</g>
<g>
</g>
<g>
</g>
<g>
</g>
<g>
</g>
<g>
</g>
<g>
</g>
<g>
</g>
<g>
</g>
</svg>
