<?xml version="1.0" encoding="iso-8859-1"?>
<!-- Generator: Adobe Illustrator 16.0.0, SVG Export Plug-In . SVG Version: 6.00 Build 0)  -->
<!DOCTYPE svg PUBLIC "-//W3C//DTD SVG 1.1//EN" "http://www.w3.org/Graphics/SVG/1.1/DTD/svg11.dtd">
<svg version="1.1" id="Layer_1" xmlns="http://www.w3.org/2000/svg" xmlns:xlink="http://www.w3.org/1999/xlink" x="0px" y="0px"
	 width="60px" height="63.999px" viewBox="0 0 60 63.999" style="enable-background:new 0 0 60 63.999;" xml:space="preserve">
<g id="Strap_14_">
	<g>
		<path style="fill-rule:evenodd;clip-rule:evenodd;fill:#88C057;" d="M33.563,7.948c1.04,0.28,2.109-0.34,2.388-1.386
			c0.278-1.045-0.339-2.119-1.379-2.398L10,0C10,0,0,5.999,0,15.999l16,10c0,0-0.002-13.393-3.291-21.546L33.563,7.948z M44,36
			c-2,0-2.586,0.585-4,1.999C36,41.999,30,54,30,54h22c0,0,2-12,2-14.001C54,37.999,46,36,44,36z"/>
	</g>
</g>
<g id="Buckle_9_">
	<g>
		<path style="fill:#999999;" d="M29.955,2.868L24.962,1.97c-1.379-0.247-2.702,0.706-2.956,2.132
			c-0.254,1.425,0.658,2.781,2.038,3.029l4.993,0.897c1.379,0.248,2.703-0.706,2.956-2.131C32.247,4.472,31.335,3.115,29.955,2.868z
			"/>
	</g>
</g>
<g id="Wedge_1_">
	<g>
		<path style="fill:#A67C52;" d="M58,43.999c-2,0-8,4.001-24,4.001c-2,0-8.619-8.584-14-18.001c-8-14-17.013-14-18-14c-2,0-2,0-2,2
			c0,2.001,6,16,6,44c0,1.104,0.896,2,2,2c2,0,22,0,24,0c14,0,20-4,26-7.999c2-8,2-10.001,2-10.001C60,43.999,60,43.999,58,43.999z"
			/>
	</g>
</g>
<g>
</g>
<g>
</g>
<g>
</g>
<g>
</g>
<g>
</g>
<g>
</g>
<g>
</g>
<g>
</g>
<g>
</g>
<g>
</g>
<g>
</g>
<g>
</g>
<g>
</g>
<g>
</g>
<g>
</g>
</svg>
