<?xml version="1.0" encoding="iso-8859-1"?>
<!-- Generator: Adobe Illustrator 16.0.0, SVG Export Plug-In . SVG Version: 6.00 Build 0)  -->
<!DOCTYPE svg PUBLIC "-//W3C//DTD SVG 1.1//EN" "http://www.w3.org/Graphics/SVG/1.1/DTD/svg11.dtd">
<svg version="1.1" id="Layer_1" xmlns="http://www.w3.org/2000/svg" xmlns:xlink="http://www.w3.org/1999/xlink" x="0px" y="0px"
	 width="52px" height="64px" viewBox="0 0 52 64" style="enable-background:new 0 0 52 64;" xml:space="preserve">
<g id="Sole_21_">
	<g>
		<path style="fill:#999999;" d="M6,54v5.999C6,62,6,64,8,64c1.728,0,10,0,10,0l1.999-4.001c0,0,6,4.001,16.001,4.001
			c16,0,16-8,16-10H6z"/>
	</g>
</g>
<g id="Boots">
	<g>
		<path style="fill:#CCCCCC;" d="M48,50c-2,0-6,2-8,2c-6,0-12-8-12-12s2-18,2-38c0,0-7.872-2-14-2C10,0,0,2,0,2c0,18,6,32,6,42
			c0,4-2.001,6-2.001,12c0,0,0,3.999,2.001,3.999h13.999c0,0,6,2.001,14.001,2.001c12,0,18-4,18-8C52,52,50,50,48,50z"/>
	</g>
</g>
<g id="Strap_7_">
	<g>
		<path style="fill:#B3B3B3;" d="M18,8h-8c-1.105,0-2,0.896-2,2s0.895,2,2,2h8c1.104,0,1.999-0.896,1.999-2S19.104,8,18,8z"/>
	</g>
</g>
<g>
</g>
<g>
</g>
<g>
</g>
<g>
</g>
<g>
</g>
<g>
</g>
<g>
</g>
<g>
</g>
<g>
</g>
<g>
</g>
<g>
</g>
<g>
</g>
<g>
</g>
<g>
</g>
<g>
</g>
</svg>
