<?xml version="1.0" encoding="iso-8859-1"?>
<!-- Generator: Adobe Illustrator 16.0.0, SVG Export Plug-In . SVG Version: 6.00 Build 0)  -->
<!DOCTYPE svg PUBLIC "-//W3C//DTD SVG 1.1//EN" "http://www.w3.org/Graphics/SVG/1.1/DTD/svg11.dtd">
<svg version="1.1" id="Layer_1" xmlns="http://www.w3.org/2000/svg" xmlns:xlink="http://www.w3.org/1999/xlink" x="0px" y="0px"
	 width="52px" height="64px" viewBox="0 0 52 64" style="enable-background:new 0 0 52 64;" xml:space="preserve">
<g id="Cuffs">
	<g>
		<path style="fill-rule:evenodd;clip-rule:evenodd;fill:#D66399;" d="M0,54.001C0,55.5,1.604,56,3.999,56
			C5.479,56,6,55.087,6,54.001V50l-6,2V54.001z M46,50v4.001C46,55.087,46.521,56,48,56c2.396,0,4-0.5,4-1.999V52L46,50z"/>
	</g>
</g>
<g id="Interior_3_">
	<g>
		<path style="fill:#A64C76;" d="M26,0L26,0c-4.001,0-6.001,0-8,2v6h16V2C32,0,30,0,26,0z"/>
	</g>
</g>
<g id="Shirt_1_">
	<g>
		<path style="fill:#F06EAA;" d="M44,6.001C42,4.001,34,2,34,2v6H18V2c0,0-8,2.001-10,4C5.999,8,0,27.334,0,32s0,20,0,20s6-0.55,6-2
			c0-4.195,1.447-15.954,2-18c0.777-2.877,4-7.999,4-7.999c0,20-4,30-4,34c0,1.896,4.207,5.582,16,5.962h4
			c11.793-0.38,16-4.066,16-5.962c0-4-4-14-4-34c0,0,3.222,5.122,3.999,7.999C44.553,34.046,46,45.805,46,50c0,1.45,6,2,6,2
			s0-15.334,0-20S46,8.001,44,6.001z"/>
	</g>
</g>
<g id="Fringe">
	<g>
		<rect x="24" y="8" style="fill:#FF8FC3;" width="4" height="56"/>
	</g>
</g>
<g id="Collar_3_">
	<g>
		<path style="fill-rule:evenodd;clip-rule:evenodd;fill:#FF8FC3;" d="M18,2l-2,2c0,8,0,10,2,10c1.999,0,7.999-6,7.999-6
			S21.999,8,18,2z M34,2c-4,6-8.001,6-8.001,6S32,14,34,14s2-2,2-10L34,2z"/>
	</g>
</g>
<g>
</g>
<g>
</g>
<g>
</g>
<g>
</g>
<g>
</g>
<g>
</g>
<g>
</g>
<g>
</g>
<g>
</g>
<g>
</g>
<g>
</g>
<g>
</g>
<g>
</g>
<g>
</g>
<g>
</g>
</svg>
