<?xml version="1.0" encoding="iso-8859-1"?>
<!-- Generator: Adobe Illustrator 16.0.0, SVG Export Plug-In . SVG Version: 6.00 Build 0)  -->
<!DOCTYPE svg PUBLIC "-//W3C//DTD SVG 1.1//EN" "http://www.w3.org/Graphics/SVG/1.1/DTD/svg11.dtd">
<svg version="1.1" id="Layer_1" xmlns="http://www.w3.org/2000/svg" xmlns:xlink="http://www.w3.org/1999/xlink" x="0px" y="0px"
	 width="60px" height="64px" viewBox="0 0 60 64" style="enable-background:new 0 0 60 64;" xml:space="preserve">
<g id="Jacket">
	<g>
		<path style="fill:#75A64B;" d="M58,30c-2-10-6-22-8-22l-6-2H16l-6,2C8,8,4,20,2,30S0,60,0,62s6,2,8,2s2-14,2-20s4-18,4-18
			s0,10,0,12c0,4-2,14-2,22h36c0-8-2-18-2-22c0-2,0-12,0-12s4,12,4,18s0,20,2,20s8,0,8-2S60,40,58,30z"/>
	</g>
</g>
<g id="Zippper">
	<g>
		<polygon style="fill:#638C3F;" points="34,16 24,60 28,60 38,16 		"/>
	</g>
</g>
<g id="Fur_1_">
	<g>
		<path style="fill:#D9B898;" d="M46,56c0,0-4,2-16,2s-16-2-16-2c-2,0-2,2-2,4s4,4,18,4s18-2,18-4S48,56,46,56z"/>
	</g>
</g>
<g id="Pockets_6_">
	<g>
		<path style="fill-rule:evenodd;clip-rule:evenodd;fill:#88C057;" d="M18,40c-1,0-2,7-2,8s3,2,4,2s2-7,2-8C22.001,41,19,40,18,40z
			 M42,40c-1,0-4.001,1-4,2c0,1,1,8,1.999,8C41,50,44,49,44,48S43,40,42,40z"/>
	</g>
</g>
<g id="Collar">
	<g>
		<path style="fill:#D9B898;" d="M30,0c-8,0-10,0-14,6c0,12,4,16,4,16s4-2,10-4c6,2,8,4,8,4s6-4,6-16C40,0,38,0,30,0z"/>
	</g>
</g>
<g id="Interor">
	<g>
		<path style="fill:#638C3F;" d="M30,4c-6,0-6,2-6,2c0,4,6,12,6,12s6-8,6-12C36,6,36,4,30,4z"/>
	</g>
</g>
<g>
</g>
<g>
</g>
<g>
</g>
<g>
</g>
<g>
</g>
<g>
</g>
<g>
</g>
<g>
</g>
<g>
</g>
<g>
</g>
<g>
</g>
<g>
</g>
<g>
</g>
<g>
</g>
<g>
</g>
</svg>
