<?xml version="1.0" encoding="iso-8859-1"?>
<!-- Generator: Adobe Illustrator 16.0.0, SVG Export Plug-In . SVG Version: 6.00 Build 0)  -->
<!DOCTYPE svg PUBLIC "-//W3C//DTD SVG 1.1//EN" "http://www.w3.org/Graphics/SVG/1.1/DTD/svg11.dtd">
<svg version="1.1" id="Layer_1" xmlns="http://www.w3.org/2000/svg" xmlns:xlink="http://www.w3.org/1999/xlink" x="0px" y="0px"
	 width="50px" height="64.001px" viewBox="0 0 50 64.001" style="enable-background:new 0 0 50 64.001;" xml:space="preserve">
<g id="Bodysuit">
	<g>
		<path style="fill:#ED7161;" d="M42,0c0,0-12,10-16,10S10,0.001,10,0.001c-4,0-10,6-10,8c0,0,4,10,6,10s4-2,4-2s4,10,4,18
			s-6,12-6,16c0,2,6,2,10,6c6,6,4,8,8,8s2-2,8-8c4-4,10-4,10-6c0-4-6-8-6-16s4-18,4-18s2,2,4,2s4-10,4-10C50,6.001,44,0,42,0z"/>
	</g>
</g>
<g>
</g>
<g>
</g>
<g>
</g>
<g>
</g>
<g>
</g>
<g>
</g>
<g>
</g>
<g>
</g>
<g>
</g>
<g>
</g>
<g>
</g>
<g>
</g>
<g>
</g>
<g>
</g>
<g>
</g>
</svg>
