<?xml version="1.0" encoding="iso-8859-1"?>
<!-- Generator: Adobe Illustrator 16.0.0, SVG Export Plug-In . SVG Version: 6.00 Build 0)  -->
<!DOCTYPE svg PUBLIC "-//W3C//DTD SVG 1.1//EN" "http://www.w3.org/Graphics/SVG/1.1/DTD/svg11.dtd">
<svg version="1.1" id="Layer_1" xmlns="http://www.w3.org/2000/svg" xmlns:xlink="http://www.w3.org/1999/xlink" x="0px" y="0px"
	 width="60px" height="64px" viewBox="0 0 60 64" style="enable-background:new 0 0 60 64;" xml:space="preserve">
<g id="Suit">
	<g>
		<path style="fill-rule:evenodd;clip-rule:evenodd;fill:#999999;" d="M58,30c-2-10-6-22-8-22L38,4h-8h-8L10,8C8,8,4,20,2,30
			S0,60,0,62s6,2,8,2s2-14,2-20s4-18,4-18c2,6,2,8,2,10c0,4-4,16-4,24c0,0,4,2,10,2c4,0,8-4,8-8c0,4,4,8,8,8c6,0,10-2,10-2
			c0-8-4-20-4-24c0-2,0-4,2-10c0,0,4,12,4,18s0,20,2,20s8,0,8-2S60,40,58,30z"/>
	</g>
</g>
<g id="Pockets_7_">
	<g>
		<path style="fill-rule:evenodd;clip-rule:evenodd;fill:#B3B3B3;" d="M16,46c-1-0.001-2,3-2,4s7,2,8,2s2-3,1.999-4.001
			C23.999,47,17,46,16,46z M44,46c-1,0-8,1-8,1.999C36,49,37,52,38,52s8-1,8-2S45,45.999,44,46z"/>
	</g>
</g>
<g id="Collar_1_">
	<g>
		<path style="fill:#B3B3B3;" d="M42,6c-4-6-4-6-12-6s-8,0-12,6l4,2l-4,4c0,6,12,24,12,24s12-18,12-24l-4-4L42,6z"/>
	</g>
</g>
<g id="Interor_1_">
	<g>
		<path style="fill:#666666;" d="M30,4c-6,0-6,2-6,2c0,10,6,28,6,28s6-18,6-28C36,6,36,4,30,4z"/>
	</g>
</g>
<g>
</g>
<g>
</g>
<g>
</g>
<g>
</g>
<g>
</g>
<g>
</g>
<g>
</g>
<g>
</g>
<g>
</g>
<g>
</g>
<g>
</g>
<g>
</g>
<g>
</g>
<g>
</g>
<g>
</g>
</svg>
