<?xml version="1.0" encoding="iso-8859-1"?>
<!-- Generator: Adobe Illustrator 16.0.0, SVG Export Plug-In . SVG Version: 6.00 Build 0)  -->
<!DOCTYPE svg PUBLIC "-//W3C//DTD SVG 1.1//EN" "http://www.w3.org/Graphics/SVG/1.1/DTD/svg11.dtd">
<svg version="1.1" id="Layer_1" xmlns="http://www.w3.org/2000/svg" xmlns:xlink="http://www.w3.org/1999/xlink" x="0px" y="0px"
	 width="36px" height="64px" viewBox="0 0 36 64" style="enable-background:new 0 0 36 64;" xml:space="preserve">
<g id="Shirt">
	<g>
		<path style="fill:#9B7CAB;" d="M32,32c0-3.999,2-8,2-8s-2-3.999-2-7.999s2-10,2-10S30,4,26,2H10C6,4,2,6.001,2,6.001s2,6,2,10
			S2,24,2,24s2,4.001,2,8c0,12.001-4,22.001-4,26c0,2,4,6,18,6s18-4,18-6C36,54.001,32,44.001,32,32z"/>
	</g>
</g>
<g id="Interior_2_">
	<g>
		<path style="fill:#6D5778;" d="M18,0c-2,0-6,0-8,2v8h6l2,4l2-4h6V2C24,0,20,0,18,0z"/>
	</g>
</g>
<g id="Collar_2_">
	<g>
		<path style="fill-rule:evenodd;clip-rule:evenodd;fill:#CCCCCC;" d="M8,4c0,8,0,10,2,10s6-4,6-4s-2-2-6-8L8,4z M26,2c-4,6-6,8-6,8
			s4,4,6,4s2-2,2-10L26,2z"/>
	</g>
</g>
<g>
</g>
<g>
</g>
<g>
</g>
<g>
</g>
<g>
</g>
<g>
</g>
<g>
</g>
<g>
</g>
<g>
</g>
<g>
</g>
<g>
</g>
<g>
</g>
<g>
</g>
<g>
</g>
<g>
</g>
</svg>
