<?xml version="1.0" encoding="iso-8859-1"?>
<!-- Generator: Adobe Illustrator 16.0.0, SVG Export Plug-In . SVG Version: 6.00 Build 0)  -->
<!DOCTYPE svg PUBLIC "-//W3C//DTD SVG 1.1//EN" "http://www.w3.org/Graphics/SVG/1.1/DTD/svg11.dtd">
<svg version="1.1" id="Layer_1" xmlns="http://www.w3.org/2000/svg" xmlns:xlink="http://www.w3.org/1999/xlink" x="0px" y="0px"
	 width="64px" height="64px" viewBox="0 0 64 64" style="enable-background:new 0 0 64 64;" xml:space="preserve">
<g id="Clover">
	<g>
		<path style="fill-rule:evenodd;clip-rule:evenodd;fill:#88C057;" d="M64,32c0-5.523-4.478-10-10-10
			c-1.505,0-2.918,0.356-4.198,0.951l-0.028-0.014l-12.448,6.348c-0.283-0.554-0.636-1.064-1.068-1.502L47.071,17.07l0,0
			C48.881,15.261,50,12.761,50,10c0-5.523-4.478-10-10-10c-3.287,0-6.178,1.606-8,4.055C30.177,1.606,27.286,0,24,0
			c-5.523,0-10,4.477-10,10c0,2.762,1.12,5.262,2.93,7.072l10.81,10.707c-0.434,0.438-0.778,0.953-1.062,1.507l-12.452-6.349
			l-0.028,0.014C12.918,22.356,11.505,22,10,22C4.478,22,0,26.477,0,32c0,3.879,2.232,7.205,5.461,8.863C4.553,42.369,4,44.113,4,46
			c0,5.521,4.477,10,10,10c4.008,0,7.439-2.373,9.035-5.777l0.028,0.004l6.306-12.861c0.205,0.102,0.413,0.193,0.631,0.271V52
			c0,6.438,1.938,10.428,2.268,11c0.015,0,0.022-0.002,0.037-0.004C32.652,63.586,33.267,64,34,64c1.104,0,2-0.896,2-2
			c0-0.365-0.124-0.689-0.295-0.984c0.011-0.006,0.016-0.01,0.027-0.016C35.18,60.043,34,57.5,34,52V37.629
			c0.217-0.076,0.429-0.158,0.633-0.258l6.304,12.855l0.028-0.004C42.56,53.627,45.991,56,50,56c5.522,0,10-4.479,10-10
			c0-1.887-0.553-3.631-1.461-5.137C61.768,39.205,64,35.879,64,32z"/>
	</g>
</g>
<g>
</g>
<g>
</g>
<g>
</g>
<g>
</g>
<g>
</g>
<g>
</g>
<g>
</g>
<g>
</g>
<g>
</g>
<g>
</g>
<g>
</g>
<g>
</g>
<g>
</g>
<g>
</g>
<g>
</g>
</svg>
