<?xml version="1.0" encoding="iso-8859-1"?>
<!-- Generator: Adobe Illustrator 16.0.0, SVG Export Plug-In . SVG Version: 6.00 Build 0)  -->
<!DOCTYPE svg PUBLIC "-//W3C//DTD SVG 1.1//EN" "http://www.w3.org/Graphics/SVG/1.1/DTD/svg11.dtd">
<svg version="1.1" id="Layer_1" xmlns="http://www.w3.org/2000/svg" xmlns:xlink="http://www.w3.org/1999/xlink" x="0px" y="0px"
	 width="52px" height="64.002px" viewBox="0 0 52 64.002" style="enable-background:new 0 0 52 64.002;" xml:space="preserve">
<g id="Cover_2_">
	<g>
		<path style="fill:#8C6845;" d="M48,0H4v64h44c2.209,0,4-1.791,4-4V4.002C52,1.791,50.209,0,48,0z"/>
	</g>
</g>
<g id="Corners">
	<g>
		<path style="fill-rule:evenodd;clip-rule:evenodd;fill:#FFCC66;" d="M48.01,0.002H46c-1.105,0-2,0.895-2,2c0,1.104,0.895,2,2,2h2
			v2c0,1.104,0.895,2,2,2c1.104,0,1.998-0.895,2-1.998V4.002C52,1.795,50.215,0.008,48.01,0.002z M50,56.002c-1.105,0-2,0.895-2,2v2
			h-2c-1.105,0-2,0.895-2,2c0,1.104,0.895,2,2,2h2.01c2.205-0.006,3.99-1.795,3.99-4v-2.004C51.998,56.896,51.104,56.002,50,56.002z
			"/>
	</g>
</g>
<g id="Cross_2_">
	<g>
		<path style="fill-rule:evenodd;clip-rule:evenodd;fill:#FFCC66;" d="M34,26.002h-4v-4c0-1.105-0.895-2-2-2s-2,0.895-2,2v4h-4
			c-1.105,0-2,0.895-2,2s0.895,2,2,2h4v12c0,1.104,0.895,2,2,2s2-0.896,2-2v-12h4c1.105,0,2-0.895,2-2S35.105,26.002,34,26.002z"/>
	</g>
</g>
<g id="Spine">
	<g>
		<path style="fill:#A67C52;" d="M2,0.002c-1.105,0-2,0.895-2,2v60c0,1.104,0.895,2,2,2h2v-64H2z"/>
	</g>
</g>
<g>
</g>
<g>
</g>
<g>
</g>
<g>
</g>
<g>
</g>
<g>
</g>
<g>
</g>
<g>
</g>
<g>
</g>
<g>
</g>
<g>
</g>
<g>
</g>
<g>
</g>
<g>
</g>
<g>
</g>
</svg>
