<?xml version="1.0" encoding="iso-8859-1"?>
<!-- Generator: Adobe Illustrator 16.0.0, SVG Export Plug-In . SVG Version: 6.00 Build 0)  -->
<!DOCTYPE svg PUBLIC "-//W3C//DTD SVG 1.1//EN" "http://www.w3.org/Graphics/SVG/1.1/DTD/svg11.dtd">
<svg version="1.1" id="Layer_1" xmlns="http://www.w3.org/2000/svg" xmlns:xlink="http://www.w3.org/1999/xlink" x="0px" y="0px"
	 width="64.001px" height="63.999px" viewBox="0 0 64.001 63.999" style="enable-background:new 0 0 64.001 63.999;"
	 xml:space="preserve">
<g id="Handle_3_">
	<g>
		<path style="fill:#A67C52;" d="M63.4,0.6c-0.8-0.8-2.099-0.8-2.899,0L24.554,36.548l2.898,2.899L63.4,3.499
			C64.201,2.699,64.201,1.401,63.4,0.6z"/>
	</g>
</g>
<g id="Bristles">
	<g>
		<path style="fill:#FFCC66;" d="M29.975,33.997c0,0-1.998-2-5.995-2c-3.996,0-7.993,2-11.989,6C7.993,41.998,0,43.998,0,45.998
			c0,4.001,15.986,18.001,17.984,18.001c1.999,0,3.997-8,7.993-12c3.997-4.001,5.995-8.001,5.995-12.001
			C31.973,35.997,29.975,33.997,29.975,33.997z"/>
	</g>
</g>
<g id="Bristles_1_">
	<g>
		<path style="fill:#E6B85C;" d="M33.971,29.997c0,0-1.998-2-3.996-2s-5.995,4-5.995,4l7.993,8.001c0,0,4.023-4.001,4.023-6.001
			S33.971,29.997,33.971,29.997z"/>
	</g>
</g>
<g>
</g>
<g>
</g>
<g>
</g>
<g>
</g>
<g>
</g>
<g>
</g>
<g>
</g>
<g>
</g>
<g>
</g>
<g>
</g>
<g>
</g>
<g>
</g>
<g>
</g>
<g>
</g>
<g>
</g>
</svg>
