<?xml version="1.0" encoding="iso-8859-1"?>
<!-- Generator: Adobe Illustrator 16.0.0, SVG Export Plug-In . SVG Version: 6.00 Build 0)  -->
<!DOCTYPE svg PUBLIC "-//W3C//DTD SVG 1.1//EN" "http://www.w3.org/Graphics/SVG/1.1/DTD/svg11.dtd">
<svg version="1.1" id="Layer_1" xmlns="http://www.w3.org/2000/svg" xmlns:xlink="http://www.w3.org/1999/xlink" x="0px" y="0px"
	 width="52px" height="64px" viewBox="0 0 52 64" style="enable-background:new 0 0 52 64;" xml:space="preserve">
<g id="Ear">
	<g>
		<path style="fill:#CCCCCC;" d="M24,0c-1.977,0-3.355,2.566-4,4c-2.086,4.641-6,14-6,14h10c0,0,1.969-6.67,2-12
			C26.016,3.234,26.131,0,24,0z"/>
	</g>
</g>
<g id="Body_7_">
	<g>
		<path style="fill:#E6E6E6;" d="M46,38c-7.014-7.016-11.904-5.904-14-8s-4-5.689-4-10c0-2.619,12-8.779,12-18c0-1.6-1.396-2-4-2
			c-6.914,0-17.965,10.203-22,16c-3.996,0-14,9.734-14,14c0,7.418,10,7.609,10,12c0,1.123,0,0.525,0,2c0,2.012-1.396,6.012-2,8
			c-2.475,8.145-4,7.137-4,10c0,1.803,3.096,2,4,2c4.578,0,5.188-10,8-10c1.875,0,2.023,3.049,2,4c-0.043,1.758-2,0.742-2,4
			c0,1.219,1.182,2,10,2c8.059,0,20-1.148,20-6c0,0,4,0,4-8C50,48.338,49.756,41.756,46,38z"/>
	</g>
</g>
<g id="Ear_1_">
	<g>
		<path style="fill:#FFCCE4;" d="M38,4c-5.195,0-14,9.883-14,12c0,0.934,1.969,2.012,4.428,2.992
			c1.813-2.604,9.096-7.254,11.072-13.746C39.15,4.469,38.639,4,38,4z"/>
	</g>
</g>
<g id="Tail_1_">
	<g>
		<path style="fill-rule:evenodd;clip-rule:evenodd;fill:#CCCCCC;" d="M52,52c0-1.105-0.896-2-2-2c0-1.105-0.895-2-2-2s-2,0.895-2,2
			c0,0.371,0.129,0.701,0.307,1C46.129,51.299,46,51.627,46,52c-1.105,0-2,0.895-2,2c0,0.371,0.129,0.701,0.307,1
			C44.129,55.299,44,55.627,44,56c0,1.104,0.895,2,2,2c0.373,0,0.701-0.129,1-0.307C47.299,57.871,47.627,58,48,58
			c1.105,0,2-0.896,2-2c1.104,0,2-0.896,2-2c0-0.373-0.129-0.701-0.307-1C51.871,52.701,52,52.371,52,52z"/>
	</g>
</g>
<g id="Eye_1_">
	<g>
		<circle style="fill:#666666;" cx="10" cy="26" r="2"/>
	</g>
</g>
<g>
</g>
<g>
</g>
<g>
</g>
<g>
</g>
<g>
</g>
<g>
</g>
<g>
</g>
<g>
</g>
<g>
</g>
<g>
</g>
<g>
</g>
<g>
</g>
<g>
</g>
<g>
</g>
<g>
</g>
</svg>
