<?xml version="1.0" encoding="iso-8859-1"?>
<!-- Generator: Adobe Illustrator 16.0.0, SVG Export Plug-In . SVG Version: 6.00 Build 0)  -->
<!DOCTYPE svg PUBLIC "-//W3C//DTD SVG 1.1//EN" "http://www.w3.org/Graphics/SVG/1.1/DTD/svg11.dtd">
<svg version="1.1" id="Layer_1" xmlns="http://www.w3.org/2000/svg" xmlns:xlink="http://www.w3.org/1999/xlink" x="0px" y="0px"
	 width="64px" height="64.011px" viewBox="0 0 64 64.011" style="enable-background:new 0 0 64 64.011;" xml:space="preserve">
<g id="Plate">
	<g>
		<path style="fill:#CCCCCC;" d="M0,60c0,4.418,3.582,4,8,4h48c4.418,0,8,0.418,8-4H0z"/>
	</g>
</g>
<g id="Cake_1_">
	<g>
		<path style="fill-rule:evenodd;clip-rule:evenodd;fill:#E6E6E6;" d="M58,40h-2V28c0-2.209-1.791-4-4-4h-2V12c0-2.209-1.791-4-4-4
			H18c-2.209,0-4,1.791-4,4v12h-2c-2.209,0-4,1.791-4,4v12H6c-2.209,0-4,1.791-4,4v16h60V44C62,41.791,60.209,40,58,40z"/>
	</g>
</g>
<g id="Decoration_3_">
	<g>
		<path style="fill-rule:evenodd;clip-rule:evenodd;fill:#F06EAA;" d="M60,44c-1.104,0-2-0.896-2-2c0-1.105-0.896-2-2-2
			s-2,0.895-2,2c0,1.104-0.896,2-2,2s-2-0.896-2-2c0-1.105-0.896-2-2-2s-2,0.895-2,2c0,1.104-0.896,2-2,2s-2-0.896-2-2
			c0-1.105-0.896-2-2-2s-2,0.895-2,2c0,1.104-0.896,2-2,2s-2-0.896-2-2c0-1.105-0.896-2-2-2s-2,0.895-2,2c0,1.104-0.896,2-2,2
			s-2-0.896-2-2c0-1.105-0.896-2-2-2s-2,0.895-2,2c0,1.104-0.896,2-2,2s-2-0.896-2-2c0-1.105-0.896-2-2-2s-2,0.895-2,2
			c0,1.104-0.896,2-2,2s-2-0.896-2-2c0-1.105-0.896-2-2-2s-2,0.895-2,2c0,1.104-0.896,2-2,2H2v4h2c1.544,0,2.937-0.6,4-1.559
			C9.063,47.4,10.456,48,12,48s2.937-0.6,4-1.559C17.063,47.4,18.456,48,20,48s2.937-0.6,4-1.559C25.063,47.4,26.456,48,28,48
			s2.937-0.6,4-1.559C33.063,47.4,34.456,48,36,48s2.937-0.6,4-1.559C41.063,47.4,42.456,48,44,48s2.937-0.6,4-1.559
			C49.063,47.4,50.456,48,52,48s2.937-0.6,4-1.559C57.063,47.4,58.456,48,60,48h2v-4H60z M16,32c1.544,0,2.937-0.6,4-1.559
			C21.063,31.4,22.456,32,24,32s2.937-0.6,4-1.559C29.063,31.4,30.456,32,32,32s2.937-0.6,4-1.559C37.063,31.4,38.456,32,40,32
			s2.937-0.6,4-1.559C45.063,31.4,46.456,32,48,32s2.937-0.6,4-1.559C53.063,31.4,54.456,32,56,32v-4c-1.104,0-2-0.896-2-2
			c0-1.105-0.896-2-2-2s-2,0.895-2,2c0,1.104-0.896,2-2,2s-2-0.896-2-2c0-1.105-0.896-2-2-2s-2,0.895-2,2c0,1.104-0.896,2-2,2
			s-2-0.896-2-2c0-1.105-0.896-2-2-2s-2,0.895-2,2c0,1.104-0.896,2-2,2s-2-0.896-2-2c0-1.105-0.896-2-2-2s-2,0.895-2,2
			c0,1.104-0.896,2-2,2s-2-0.896-2-2c0-1.105-0.896-2-2-2s-2,0.895-2,2c0,1.104-0.896,2-2,2s-2-0.896-2-2c0-1.105-0.896-2-2-2
			s-2,0.895-2,2c0,1.104-0.896,2-2,2v4c1.544,0,2.937-0.6,4-1.559C13.063,31.4,14.456,32,16,32z M20,14.443
			C21.063,15.4,22.456,16,24,16s2.937-0.6,4-1.557C29.063,15.4,30.456,16,32,16s2.937-0.6,4-1.557C37.063,15.4,38.456,16,40,16
			s2.937-0.6,4-1.557C45.063,15.4,46.456,16,48,16h2v-4h-2c-1.104,0-2-0.896-2-2c0-1.105-0.896-2-2-2s-2,0.895-2,2
			c0,1.104-0.896,2-2,2s-2-0.896-2-2c0-1.105-0.896-2-2-2s-2,0.895-2,2c0,1.104-0.896,2-2,2s-2-0.896-2-2c0-1.105-0.896-2-2-2
			s-2,0.895-2,2c0,1.104-0.896,2-2,2s-2-0.896-2-2c0-1.105-0.896-2-2-2s-2,0.895-2,2c0,1.104-0.896,2-2,2h-2v4h2
			C17.544,16,18.937,15.4,20,14.443z"/>
	</g>
</g>
<g id="Ball">
	<g>
		<circle style="fill:#88C057;" cx="32" cy="4" r="4"/>
	</g>
</g>
<g>
</g>
<g>
</g>
<g>
</g>
<g>
</g>
<g>
</g>
<g>
</g>
<g>
</g>
<g>
</g>
<g>
</g>
<g>
</g>
<g>
</g>
<g>
</g>
<g>
</g>
<g>
</g>
<g>
</g>
</svg>
