<?xml version="1.0" encoding="iso-8859-1"?>
<!-- Generator: Adobe Illustrator 16.0.0, SVG Export Plug-In . SVG Version: 6.00 Build 0)  -->
<!DOCTYPE svg PUBLIC "-//W3C//DTD SVG 1.1//EN" "http://www.w3.org/Graphics/SVG/1.1/DTD/svg11.dtd">
<svg version="1.1" id="Layer_1" xmlns="http://www.w3.org/2000/svg" xmlns:xlink="http://www.w3.org/1999/xlink" x="0px" y="0px"
	 width="60px" height="64px" viewBox="0 0 60 64" style="enable-background:new 0 0 60 64;" xml:space="preserve">
<g id="Candybar_3_">
	<g>
		<path style="fill:#A67C52;" d="M52,4c-2-2-4-4-6-4s-4,2-6,4c-1.25,1.25-26,26-26,26l20,20l24-24c0,0-2,0.063-2-2c0,0-2-0.813-2-4
			c0-2.813,2.5-4,4-4c0-4,2-4,2-4S52.875,4.875,52,4z"/>
	</g>
</g>
<g id="Packaging_8_">
	<g>
		<path style="fill:#F06EAA;" d="M8,36l-6,6c-2,2-2,2-2,4c0,1.104,0.895,2,2,2h2v2c0,1.104,0.895,2,2,2h2v2c0,1.104,0.895,2,2,2h2v2
			c0,1.104,0.895,2,2,2h2v2c0,1.104,0.895,2,2,2c2,0,2,0,4-2l6-6L8,36z"/>
	</g>
</g>
<g id="Packaging_6_">
	<g>
		<polygon style="fill:#9B7CAB;" points="32,28 28,22 26,16 4,38 26,60 48,38 		"/>
	</g>
</g>
<g id="Decoration_44_">
	<g>
		<path style="fill-rule:evenodd;clip-rule:evenodd;fill:#F06EAA;" d="M32,48h-4v-4c0-1.105-0.896-2-2-2h-4v-4c0-1.105-0.895-2-2-2
			h-4v-4c0-1.105-0.896-2-2-2h-2l-4,4h4v4c0,1.104,0.895,2,2,2h4v4c0,1.104,0.895,2,2,2h4v4c0,1.104,0.895,2,2,2h4v4l4-4v-2
			C34,48.895,33.104,48,32,48z M40,40h-4v-4c0-1.105-0.895-2-2-2h-4v-4c0-1.105-0.895-2-2-2h-4v-4c0-1.105-0.895-2-2-2h-2l-4,4h4v4
			c0,1.104,0.895,2,2,2h4v4c0,1.104,0.895,2,2,2h4v4c0,1.104,0.895,2,2,2h4v4l4-4v-2C42,40.895,41.105,40,40,40z"/>
	</g>
</g>
<g id="Foil_12_">
	<g>
		<path style="fill-rule:evenodd;clip-rule:evenodd;fill:#CCCCCC;" d="M28,12c-1.105,0-2,0.895-2,2v10c0,1.104,0.895,2,2,2h2V14
			C30,12.895,29.105,12,28,12z M50,34H36v2c0,1.104,0.895,2,2,2h12c1.104,0,2-0.896,2-2C52,34.895,51.104,34,50,34z"/>
	</g>
</g>
<g id="Foil_10_">
	<g>
		<path style="fill:#E6E6E6;" d="M42,32c-1.75,0-4-2.23-4-4c0-1.105-0.895-2-2-2c-1.75,0-4-2.23-4-4c0-1.105-0.895-2-2-2
			s-2,0.895-2,2v6c0,1.104,0.895,2,2,2h2c1.104,0,2,0.895,2,2v2c0,1.104,0.895,2,2,2h6c1.105,0,2-0.896,2-2
			C44,32.895,43.105,32,42,32z"/>
	</g>
</g>
<g>
</g>
<g>
</g>
<g>
</g>
<g>
</g>
<g>
</g>
<g>
</g>
<g>
</g>
<g>
</g>
<g>
</g>
<g>
</g>
<g>
</g>
<g>
</g>
<g>
</g>
<g>
</g>
<g>
</g>
</svg>
