<?xml version="1.0" encoding="iso-8859-1"?>
<!-- Generator: Adobe Illustrator 16.0.0, SVG Export Plug-In . SVG Version: 6.00 Build 0)  -->
<!DOCTYPE svg PUBLIC "-//W3C//DTD SVG 1.1//EN" "http://www.w3.org/Graphics/SVG/1.1/DTD/svg11.dtd">
<svg version="1.1" id="Layer_1" xmlns="http://www.w3.org/2000/svg" xmlns:xlink="http://www.w3.org/1999/xlink" x="0px" y="0px"
	 width="64px" height="64px" viewBox="0 0 64 64" style="enable-background:new 0 0 64 64;" xml:space="preserve">
<g id="Candycane_3_">
	<g>
		<path style="fill-rule:evenodd;clip-rule:evenodd;fill:#ED7161;" d="M54.017,2.682C44.47-2.839,32.263,0.437,26.75,9.997
			L0.803,55.004c-1.653,2.867-0.672,6.535,2.191,8.19c2.865,1.657,6.527,0.674,8.18-2.194l25.948-45.006
			c2.205-3.824,7.087-5.134,10.906-2.926c3.818,2.207,5.127,7.097,2.922,10.921l-3.992,6.924c-1.653,2.867-0.672,6.535,2.192,8.192
			c2.864,1.655,6.525,0.671,8.179-2.196l3.993-6.924C66.834,20.425,63.563,8.2,54.017,2.682z"/>
	</g>
</g>
<g id="Lines_12_">
	<g>
		<path style="fill:#FFFFFF;" d="M5.913,46.142l7.257,11.397l3.111-5.395L9.024,40.747L5.913,46.142z M50.841,15.877l9.62-7.211
			c-1.348-1.961-3.056-3.706-5.109-5.12l-7.208,9.604C49.297,13.845,50.19,14.796,50.841,15.877z M20.773,20.366l7.257,11.397
			l3.11-5.394l-7.257-11.399L20.773,20.366z M13.342,33.253L20.6,44.652l3.11-5.395L16.453,27.86L13.342,33.253z M63.732,16.765
			l-11.763,3.92c-0.097,1.13-0.414,2.257-1.019,3.305l-0.01,0.018H63.58C64.074,21.594,64.122,19.143,63.732,16.765z M28.311,7.716
			l7.068,11.302l1.743-3.023c0.041-0.07,0.097-0.125,0.139-0.193l-4.17-12.504C31.297,4.474,29.679,5.953,28.311,7.716z
			 M47.408,30.134l10.167,6.352l3.203-5.557l-11.6-3.865L47.408,30.134z M39.999,0.438v12.696c1.021-0.602,2.148-0.986,3.323-1.094
			L47.244,0.28C44.816-0.115,42.363-0.051,39.999,0.438z"/>
	</g>
</g>
<g>
</g>
<g>
</g>
<g>
</g>
<g>
</g>
<g>
</g>
<g>
</g>
<g>
</g>
<g>
</g>
<g>
</g>
<g>
</g>
<g>
</g>
<g>
</g>
<g>
</g>
<g>
</g>
<g>
</g>
</svg>
