<?xml version="1.0" encoding="iso-8859-1"?>
<!-- Generator: Adobe Illustrator 16.0.0, SVG Export Plug-In . SVG Version: 6.00 Build 0)  -->
<!DOCTYPE svg PUBLIC "-//W3C//DTD SVG 1.1//EN" "http://www.w3.org/Graphics/SVG/1.1/DTD/svg11.dtd">
<svg version="1.1" id="Layer_1" xmlns="http://www.w3.org/2000/svg" xmlns:xlink="http://www.w3.org/1999/xlink" x="0px" y="0px"
	 width="64px" height="64px" viewBox="0 0 64 64" style="enable-background:new 0 0 64 64;" xml:space="preserve">
<g id="Ears_1_">
	<g>
		<path style="fill-rule:evenodd;clip-rule:evenodd;fill:#88C057;" d="M60,12c0-0.75,0-0.979,0-2c0-3.314-2.686-6-6-6
			c-1.021,0-1.375,0-2,0c0-2.209-1.791-4-4-4s-4,1.791-4,4v8c0,4.418,3.582,8,8,8h8c2.209,0,4-1.791,4-4S62.209,12,60,12z M12,44H4
			c-2.209,0-4,1.791-4,4s1.791,4,4,4c0,0.75,0,0.979,0,2c0,3.313,2.686,6,6,6c1.021,0,1.375,0,2,0c0,2.209,1.791,4,4,4s4-1.791,4-4
			v-8C20,47.582,16.418,44,12,44z"/>
	</g>
</g>
<g id="Candy_1_">
	<g>
		<path style="fill:#ED7161;" d="M50,20l-6-6c-2-2-4-4-8-4s-6,2-8,4L14,28c-2,2-4,4-4,8s2,6,4,8l6,6c2,2,4,4,8,4s6-2,8-4l14-14
			c2-2,4-4,4-8S52,22,50,20z"/>
	</g>
</g>
<g id="Decoration_14_">
	<g>
		<path style="fill-rule:evenodd;clip-rule:evenodd;fill:#FFFFFF;" d="M38,42h-4v-4c0-1.105-0.895-2-2-2h-4v-4c0-1.105-0.895-2-2-2
			h-4v-4c0-1.105-0.895-2-2-2h-2l-4,4h4v4c0,1.104,0.895,2,2,2h4v4c0,1.105,0.895,2,2,2h4v4c0,1.104,0.895,2,2,2h4v4l4-4v-2
			C40,42.895,39.105,42,38,42z M48,32h-4v-4c0-1.105-0.895-2-2-2h-4v-4c0-1.105-0.895-2-2-2h-4v-4c0-1.105-0.895-2-2-2h-2l-4,4h4v4
			c0,1.104,0.895,2,2,2h4v4c0,1.104,0.895,2,2,2h4v4c0,1.104,0.895,2,2,2h4v4l4-4v-2C50,32.895,49.105,32,48,32z"/>
	</g>
</g>
<g>
</g>
<g>
</g>
<g>
</g>
<g>
</g>
<g>
</g>
<g>
</g>
<g>
</g>
<g>
</g>
<g>
</g>
<g>
</g>
<g>
</g>
<g>
</g>
<g>
</g>
<g>
</g>
<g>
</g>
</svg>
