<?xml version="1.0" encoding="iso-8859-1"?>
<!-- Generator: Adobe Illustrator 16.0.0, SVG Export Plug-In . SVG Version: 6.00 Build 0)  -->
<!DOCTYPE svg PUBLIC "-//W3C//DTD SVG 1.1//EN" "http://www.w3.org/Graphics/SVG/1.1/DTD/svg11.dtd">
<svg version="1.1" id="Layer_1" xmlns="http://www.w3.org/2000/svg" xmlns:xlink="http://www.w3.org/1999/xlink" x="0px" y="0px"
	 width="64px" height="64px" viewBox="0 0 64 64" style="enable-background:new 0 0 64 64;" xml:space="preserve">
<g id="Body_46_">
	<g>
		<path style="fill-rule:evenodd;clip-rule:evenodd;fill:#4D4D4D;" d="M64,14c0-8.553-6.412-14-12-14c-1.104,0-2,0.895-2,2
			c0,1.104,0.896,2,2,2c0,0,8,0.258,8,10c0,7.793-4.829,10-6,10c-1.172,0-2.272-18-18-18C16.409,6,19.456,24,16,24
			c-3.457,0-4,6.27-4,10s4,7.717,4,12c0,4.281-4,13.014-4,14c0,0.984,0.584,2,2,2c1.367,0,6-8.658,6-10c0-1.344,1.266-4,2-4
			s2,3.871,2,6s-2,7.1-2,8c0,0.898,0.666,2,2,2c2.271,0,6-10.914,6-12c0-2.729-2-4.639-2-6c0-1.363,0-5.816,0-8c0-2.186,1.296-8,4-8
			c6.055,0,4.577,7.48,6,10c1.423,2.518,6,5.102,6,8c0,2.896-4,8.826-4,10s0.867,2,2,2s5.686-7.684,6-10c0,0,2,2.246,2,4
			s-2,7.168-2,8c0,0.83,0.837,2,2,2c1.324,0,6-7.65,6-10c0-2.352-2.914-5.58-4-8c-1.087-2.422-2-4.656-2-6c0-1.346-0.164-4.018,4-8
			C58.163,28.018,64,22.553,64,14z"/>
	</g>
</g>
<g id="Head_60_">
	<g>
		<path style="fill:#4D4D4D;" d="M22,18c-1.631-1.725-2-6.105-2-10.002c-2.182,0-6,8.002-6,8.002s-2-3.98-2-6c-1.978,0-4,6-4,6
			s-6,5.584-6,8c0,1.586-2,3.547-2,6c0,3.27,5.045,6,12,6c1.772,0,12,1.678,12-10C24,22.1,23.392,19.471,22,18z"/>
	</g>
</g>
<g id="Eye_15_">
	<g>
		<path style="fill:#FFFFFF;" d="M12,22c-1.104,0-4,4-4,4s0.896,0,2,0s4-0.896,4-2C14,22.895,13.104,22,12,22z"/>
	</g>
</g>
<g>
</g>
<g>
</g>
<g>
</g>
<g>
</g>
<g>
</g>
<g>
</g>
<g>
</g>
<g>
</g>
<g>
</g>
<g>
</g>
<g>
</g>
<g>
</g>
<g>
</g>
<g>
</g>
<g>
</g>
</svg>
