<?xml version="1.0" encoding="iso-8859-1"?>
<!-- Generator: Adobe Illustrator 16.0.0, SVG Export Plug-In . SVG Version: 6.00 Build 0)  -->
<!DOCTYPE svg PUBLIC "-//W3C//DTD SVG 1.1//EN" "http://www.w3.org/Graphics/SVG/1.1/DTD/svg11.dtd">
<svg version="1.1" id="Layer_1" xmlns="http://www.w3.org/2000/svg" xmlns:xlink="http://www.w3.org/1999/xlink" x="0px" y="0px"
	 width="64px" height="64.005px" viewBox="0 0 64 64.005" style="enable-background:new 0 0 64 64.005;" xml:space="preserve">
<g id="Bubbles_6_">
	<g>
		<path style="fill-rule:evenodd;clip-rule:evenodd;fill:#88C057;" d="M40,4c-1.105,0-2,0.895-2,2c0,1.104,0.895,2,2,2
			c1.104,0,2-0.896,2-2C42,4.895,41.104,4,40,4z M30,4c-2.209,0-4,1.791-4,4s1.791,4,4,4s4-1.791,4-4S32.209,4,30,4z M21,10
			c-1.656,0-3,1.342-3,3c0,1.656,1.344,3,3,3s3-1.344,3-3C24,11.342,22.656,10,21,10z M20,3c0-1.658-1.344-3-3-3s-3,1.342-3,3
			c0,1.656,1.344,3,3,3S20,4.656,20,3z"/>
	</g>
</g>
<g id="Handle_18_">
	<g>
		<path style="fill:#A67C52;" d="M59,0.279c-0.957-0.557-2.18-0.227-2.732,0.736l-8,13.953c-0.553,0.963-0.225,2.195,0.732,2.752
			c0.957,0.555,2.18,0.225,2.732-0.738l8-13.953C60.285,2.066,59.957,0.836,59,0.279z"/>
	</g>
</g>
<g id="Cauldron_5_">
	<g>
		<path style="fill:#4D4D4D;" d="M55.803,22H8.197C8.197,26,0,32,0,40c0,13.254,14.326,22,32,22s32-8.746,32-22
			C64,32,55.803,26,55.803,22z"/>
	</g>
</g>
<g id="Legs_14_">
	<g>
		<path style="fill-rule:evenodd;clip-rule:evenodd;fill:#333333;" d="M14,54c-2.209,0-4,5.791-4,8s-0.209,2,2,2s8-3.791,8-6
			S16.209,54,14,54z M53.816,62c0-2.209-1.758-8-3.928-8C47.721,54,44,55.791,44,58s5.684,6,7.852,6
			C54.021,64,53.816,64.209,53.816,62z"/>
	</g>
</g>
<g id="Ring_29_">
	<g>
		<path style="fill:#333333;" d="M56,14H8c-2.209,0-4,1.791-4,4s1.791,4,4,4h48c2.209,0,4-1.791,4-4S58.209,14,56,14z"/>
	</g>
</g>
<g>
</g>
<g>
</g>
<g>
</g>
<g>
</g>
<g>
</g>
<g>
</g>
<g>
</g>
<g>
</g>
<g>
</g>
<g>
</g>
<g>
</g>
<g>
</g>
<g>
</g>
<g>
</g>
<g>
</g>
</svg>
