<?xml version="1.0" encoding="iso-8859-1"?>
<!-- Generator: Adobe Illustrator 16.0.0, SVG Export Plug-In . SVG Version: 6.00 Build 0)  -->
<!DOCTYPE svg PUBLIC "-//W3C//DTD SVG 1.1//EN" "http://www.w3.org/Graphics/SVG/1.1/DTD/svg11.dtd">
<svg version="1.1" id="Layer_1" xmlns="http://www.w3.org/2000/svg" xmlns:xlink="http://www.w3.org/1999/xlink" x="0px" y="0px"
	 width="64px" height="60px" viewBox="0 0 64 60" style="enable-background:new 0 0 64 60;" xml:space="preserve">
<g id="Legs_2_">
	<g>
		<path style="fill-rule:evenodd;clip-rule:evenodd;fill:#FF8833;" d="M42,56h-4V46c0-1.105-0.896-2-2-2c-1.105,0-2,0.895-2,2v10h-6
			c-1.105,0-2,0.895-2,2c0,1.104,0.895,2,2,2h14c1.105,0,2-0.896,2-2C44,56.895,43.105,56,42,56z"/>
	</g>
</g>
<g id="Beak_2_">
	<g>
		<polygon style="fill:#FF8833;" points="8,10 0,18 12,20 12,10 		"/>
	</g>
</g>
<g id="Body_5_">
	<g>
		<path style="fill:#FFCC66;" d="M54,24c-3.83-3.867-13.777-7.777-18-12C32.428,8.428,32.303,0,22,0C14.35,0,8,6.531,8,10
			c0,0,4,3.539,4,8c0,2.439-2,4.178-2,12c0,15.211,20.891,22,26,22c4.416,0,9.287-6,12-6c5.949,0,16-3.162,16-6S58.83,28.877,54,24z
			"/>
	</g>
</g>
<g id="Eye">
	<g>
		<circle style="fill:#A67C52;" cx="18" cy="10" r="2"/>
	</g>
</g>
<g>
</g>
<g>
</g>
<g>
</g>
<g>
</g>
<g>
</g>
<g>
</g>
<g>
</g>
<g>
</g>
<g>
</g>
<g>
</g>
<g>
</g>
<g>
</g>
<g>
</g>
<g>
</g>
<g>
</g>
</svg>
