<?xml version="1.0" encoding="iso-8859-1"?>
<!-- Generator: Adobe Illustrator 16.0.0, SVG Export Plug-In . SVG Version: 6.00 Build 0)  -->
<!DOCTYPE svg PUBLIC "-//W3C//DTD SVG 1.1//EN" "http://www.w3.org/Graphics/SVG/1.1/DTD/svg11.dtd">
<svg version="1.1" id="Layer_1" xmlns="http://www.w3.org/2000/svg" xmlns:xlink="http://www.w3.org/1999/xlink" x="0px" y="0px"
	 width="64px" height="56px" viewBox="0 0 64 56" style="enable-background:new 0 0 64 56;" xml:space="preserve">
<g id="Box_8_">
	<g>
		<path style="fill:#BA594C;" d="M38,10.018c-6.602,0-12.102,4.586-13.578,10.736C21.857,17.871,18.162,16.02,14,16.02
			c-7.732,0-14,6.268-14,14.002c0,5.225,2.895,9.729,7.135,12.135l22.838,12.705C30.945,55.352,31.986,56,33.135,56
			c0.246,0,0.498-0.027,0.754-0.098c1.455-0.381,2.121-1.492,2.861-2.818l12.641-20.967C50.645,29.951,52,27.045,52,24.02
			C52,16.285,45.732,10.018,38,10.018z"/>
	</g>
</g>
<g id="Interior_34_">
	<g>
		<path style="fill:#E6E6E6;" d="M38,14.018c-4.621,0-8.604,3.17-9.689,7.707c-0.348,1.457-1.471,2.6-2.916,2.963
			c-0.322,0.082-0.648,0.121-0.973,0.121c-1.127,0-2.22-0.48-2.988-1.35c-1.946-2.199-4.587-3.41-7.434-3.41
			c-5.514,0-10,4.51-10,10.053c0,3.568,1.957,6.9,5.107,8.695l22.76,12.727l0.395,0.203c0.172,0.09,0.391,0.207,0.586,0.301
			c0.15-0.244,0.318-0.545,0.41-0.709c0.021-0.039,0.043-0.078,0.066-0.117l12.641-21.072C47.322,27.773,48,25.771,48,24.07
			C48,18.527,43.514,14.018,38,14.018z"/>
	</g>
</g>
<g id="Chocolate_2_">
	<g>
		<path style="fill-rule:evenodd;clip-rule:evenodd;fill:#A67C52;" d="M16,26.008h-4c-1.104,0-2,0.895-2,2v4
			c0,1.105,0.896,2.002,2,2.002h4c1.104,0,2-0.896,2-2.002v-4C18,26.902,17.104,26.008,16,26.008z M26,32.008h-4
			c-1.104,0-2,0.895-2,2.002v4c0,1.104,0.896,2.002,2,2.002h4c1.104,0,2-0.898,2-2.002v-4C28,32.902,27.104,32.008,26,32.008z"/>
	</g>
</g>
<g id="Lid_12_">
	<g>
		<path style="fill:#ED7161;" d="M50,6.002c-4.162,0-7.858,1.852-10.422,4.736C38.101,4.586,32.602,0,26,0
			c-7.732,0-14,6.27-14,14.004c0,3.025,1.355,5.932,2.609,8.094l12.642,20.969c0.74,1.328,1.406,2.439,2.859,2.82
			c1.454,0.383,2.735-0.445,3.917-1.041l22.838-12.705C61.105,29.732,64,25.23,64,20.006C64,12.271,57.731,6.002,50,6.002z"/>
	</g>
</g>
<g>
</g>
<g>
</g>
<g>
</g>
<g>
</g>
<g>
</g>
<g>
</g>
<g>
</g>
<g>
</g>
<g>
</g>
<g>
</g>
<g>
</g>
<g>
</g>
<g>
</g>
<g>
</g>
<g>
</g>
</svg>
