<?xml version="1.0" encoding="iso-8859-1"?>
<!-- Generator: Adobe Illustrator 16.0.0, SVG Export Plug-In . SVG Version: 6.00 Build 0)  -->
<!DOCTYPE svg PUBLIC "-//W3C//DTD SVG 1.1//EN" "http://www.w3.org/Graphics/SVG/1.1/DTD/svg11.dtd">
<svg version="1.1" id="Layer_1" xmlns="http://www.w3.org/2000/svg" xmlns:xlink="http://www.w3.org/1999/xlink" x="0px" y="0px"
	 width="63.998px" height="64px" viewBox="0 0 63.998 64" style="enable-background:new 0 0 63.998 64;" xml:space="preserve">
<g id="Cable_1_">
	<g>
		<path style="fill-rule:evenodd;clip-rule:evenodd;fill:#CCCCCC;" d="M61.998,36.021c-18.789,0-34.02-15.231-34.02-34.02
			C27.979,0.896,27.082,0,25.977,0s-2,0.896-2,2.002C23.977,23,41,40.024,61.998,40.024c1.104,0,2-0.897,2-2.001
			C63.998,36.917,63.102,36.021,61.998,36.021z"/>
	</g>
</g>
<g id="Bulb">
	<g>
		<path style="fill:#ED7161;" d="M27.979,30.019c0,0-4.627,0.619-6.004,2.001c-1.16,1.165-6.004,10.006-6.004,14.009
			c0,2.001,0,2.001,2.002,2.001c4.002,0,12.848-4.839,14.008-6.004c1.375-1.382,2.002-6.004,2.002-6.004L27.979,30.019z"/>
	</g>
</g>
<g id="Cap">
	<g>
		<path style="fill:#666666;" d="M35.34,28.613c-1.98-1.985-7.361,1.405-7.361,1.405l6.004,6.003
			C33.982,36.021,37.318,30.601,35.34,28.613z"/>
	</g>
</g>
<g id="Bulb_3_">
	<g>
		<path style="fill:#FFCC66;" d="M18.898,9.338c0,0-4.275-1.792-6.143-1.28C11.184,8.492,2.652,13.774,0.67,17.271
			c-0.99,1.749-0.99,1.749,0.727,2.76c3.432,2.019,13.416,2.253,14.99,1.821c1.863-0.515,4.688-4.237,4.688-4.237L18.898,9.338z"/>
	</g>
</g>
<g id="Cap_3_">
	<g>
		<path style="fill:#666666;" d="M25.906,11.826c-0.713-2.734-7.008-2.488-7.008-2.488l2.176,8.276
			C21.074,17.614,26.621,14.56,25.906,11.826z"/>
	</g>
</g>
<g id="Bulb_2_">
	<g>
		<path style="fill:#88C057;" d="M54.604,45.102l-8.238-2.177c0,0-3.715,2.823-4.217,4.69c-0.426,1.574-0.197,11.556,1.811,14.989
			c1.008,1.716,1.008,1.716,2.748,0.725c3.48-1.981,8.746-10.512,9.17-12.087C56.381,49.376,54.604,45.102,54.604,45.102z"/>
	</g>
</g>
<g id="Cap_2_">
	<g>
		<path style="fill:#666666;" d="M52.064,38.076c-2.721-0.724-5.699,4.849-5.699,4.849l8.238,2.177
			C54.604,45.102,54.783,38.799,52.064,38.076z"/>
	</g>
</g>
<g>
</g>
<g>
</g>
<g>
</g>
<g>
</g>
<g>
</g>
<g>
</g>
<g>
</g>
<g>
</g>
<g>
</g>
<g>
</g>
<g>
</g>
<g>
</g>
<g>
</g>
<g>
</g>
<g>
</g>
</svg>
