<?xml version="1.0" encoding="iso-8859-1"?>
<!-- Generator: Adobe Illustrator 16.0.0, SVG Export Plug-In . SVG Version: 6.00 Build 0)  -->
<!DOCTYPE svg PUBLIC "-//W3C//DTD SVG 1.1//EN" "http://www.w3.org/Graphics/SVG/1.1/DTD/svg11.dtd">
<svg version="1.1" id="Layer_1" xmlns="http://www.w3.org/2000/svg" xmlns:xlink="http://www.w3.org/1999/xlink" x="0px" y="0px"
	 width="64px" height="64px" viewBox="0 0 64 64" style="enable-background:new 0 0 64 64;" xml:space="preserve">
<g id="Crown_17_">
	<g>
		<path style="fill-rule:evenodd;clip-rule:evenodd;fill:#88C057;" d="M62,32c0-1.66-0.676-3.163-1.766-4.249
			c0.762-0.958,1.084-2.244,0.742-3.517c-0.418-1.566-1.715-2.658-3.219-2.904c0.889-1.238,1.035-2.926,0.223-4.33
			c-0.658-1.141-1.797-1.822-3.01-1.963c0.002-1.538-0.584-3.078-1.758-4.252S50.5,9.027,48.961,9.029
			C48.82,7.814,48.141,6.677,47,6.018c-1.406-0.811-3.094-0.664-4.33,0.223c-0.248-1.502-1.338-2.799-2.906-3.219
			c-1.271-0.342-2.557-0.018-3.516,0.742C35.162,2.675,33.66,2,32,2s-3.162,0.675-4.248,1.764c-0.959-0.76-2.244-1.084-3.518-0.742
			c-1.566,0.42-2.656,1.717-2.904,3.219C20.092,5.354,18.404,5.207,17,6.018c-1.141,0.659-1.822,1.797-1.961,3.012
			c-1.539-0.002-3.078,0.582-4.252,1.756s-1.76,2.714-1.758,4.252C7.814,15.178,6.678,15.859,6.02,17
			c-0.813,1.404-0.666,3.092,0.221,4.33c-1.502,0.247-2.799,1.338-3.219,2.904c-0.342,1.272-0.018,2.559,0.742,3.517
			C2.674,28.838,2,30.34,2,32s0.676,3.162,1.764,4.248c-0.76,0.959-1.084,2.244-0.742,3.516c0.42,1.567,1.717,2.658,3.219,2.905
			C5.354,43.906,5.207,45.595,6.02,47c0.658,1.141,1.795,1.82,3.01,1.961c-0.002,1.539,0.584,3.078,1.758,4.252
			s2.713,1.758,4.252,1.756c0.139,1.215,0.82,2.353,1.961,3.012c1.404,0.811,3.092,0.666,4.33-0.223
			c0.248,1.504,1.338,2.8,2.904,3.219c1.273,0.342,2.559,0.019,3.518-0.741C28.838,61.324,30.34,62,32,62s3.162-0.676,4.248-1.766
			c0.959,0.761,2.244,1.084,3.516,0.742c1.568-0.419,2.658-1.715,2.906-3.219c1.236,0.889,2.924,1.033,4.33,0.223
			c1.141-0.659,1.82-1.797,1.961-3.012c1.539,0.002,3.078-0.583,4.252-1.756c1.174-1.174,1.76-2.714,1.758-4.252
			c1.213-0.141,2.352-0.821,3.01-1.961c0.813-1.405,0.666-3.094-0.223-4.331c1.504-0.247,2.801-1.338,3.219-2.905
			c0.342-1.271,0.018-2.557-0.742-3.516C61.324,35.162,62,33.66,62,32z M27.953,51.595c-0.621-1.272-1.869-2.493-3.561-3.282
			c-1.213-0.564-2.447-0.809-3.561-0.783c-0.254-1.025-0.76-2.002-1.561-2.803s-1.777-1.307-2.803-1.56
			c0.025-1.112-0.219-2.349-0.783-3.562c-0.789-1.691-2.01-2.938-3.283-3.559C13.385,34.979,14,33.565,14,32
			c0-1.566-0.615-2.98-1.598-4.049c1.273-0.621,2.494-1.867,3.283-3.559c0.564-1.212,0.809-2.447,0.783-3.561
			c1.025-0.253,2.002-0.76,2.803-1.561s1.307-1.777,1.561-2.803c1.113,0.025,2.348-0.219,3.561-0.783
			c1.691-0.789,2.939-2.01,3.561-3.282C29.021,13.386,30.434,14,32,14s2.979-0.614,4.047-1.598c0.621,1.273,1.869,2.494,3.561,3.283
			c1.213,0.565,2.447,0.809,3.561,0.783c0.254,1.025,0.76,2.002,1.561,2.803s1.775,1.307,2.801,1.561
			c-0.025,1.112,0.219,2.349,0.783,3.561c0.789,1.691,2.012,2.938,3.285,3.559C50.613,29.02,50,30.434,50,32
			c0,1.565,0.613,2.979,1.596,4.047c-1.271,0.621-2.494,1.868-3.283,3.559c-0.564,1.213-0.809,2.449-0.783,3.562
			c-1.025,0.253-2,0.759-2.801,1.56s-1.307,1.777-1.561,2.803c-1.113-0.025-2.348,0.218-3.561,0.783
			c-1.691,0.789-2.939,2.01-3.561,3.283c-1.068-0.983-2.48-1.598-4.047-1.598S29.021,50.612,27.953,51.595z"/>
	</g>
</g>
<g id="Ribbon_30_">
	<g>
		<path style="fill-rule:evenodd;clip-rule:evenodd;fill:#ED7161;" d="M34,49.998h-4c-1.105,0-2,0.896-2,2.002v10
			c0,1.104,0.895,2,2,2h4c1.104,0,2-0.896,2-2V52C36,50.895,35.104,49.998,34,49.998z M48.277,42.568
			c-0.789-0.789-2.066-0.789-2.855,0l-2.854,2.854c-0.787,0.789-0.787,2.066,0,2.854l7.135,7.135c0.789,0.789,2.066,0.789,2.854,0
			l2.855-2.854c0.787-0.787,0.787-2.066,0-2.854L48.277,42.568z M18.578,42.568c-0.789-0.789-2.066-0.789-2.855,0l-7.135,7.135
			c-0.787,0.787-0.787,2.066,0,2.854l2.854,2.854c0.789,0.789,2.066,0.789,2.855,0l7.135-7.135c0.787-0.787,0.787-2.064,0-2.854
			L18.578,42.568z M0,32c0,1.871,1.063,6,2,6c2.5,0,12-10,12-10c1.645-1.645,3.984-7.986,10-14c0,0-20.822,11.178-22,12
			C0.982,26.709,0,29.883,0,32z M62,26c-1.178-0.822-22-12-22-12c6.016,6.014,8.355,12.355,10,14c0,0,9.5,10,12,10
			c0.938,0,2-4.129,2-6C64,29.883,63.018,26.709,62,26z"/>
	</g>
</g>
<g id="Bow_12_">
	<g>
		<path style="fill-rule:evenodd;clip-rule:evenodd;fill:#ED7161;" d="M46,0c-4,0-10.088,6-14,6S22,0,18,0s-4,4-4,6
			c0,1.033,2,8.732,2,10c0,2,0,6,4,6c3.963,0,8-8,12-8s8.037,8,12,8c4,0,4-4,4-6c0-1.268,2-8.967,2-10C50,4,50,0,46,0z"/>
	</g>
</g>
<g id="Knot_14_">
	<g>
		<path style="fill:#BA594C;" d="M34,6h-4c-1.105,0-2,0.895-2,2v4c0,1.104,0.895,2,2,2h4c1.104,0,2-0.896,2-2V8
			C36,6.895,35.104,6,34,6z"/>
	</g>
</g>
<g>
</g>
<g>
</g>
<g>
</g>
<g>
</g>
<g>
</g>
<g>
</g>
<g>
</g>
<g>
</g>
<g>
</g>
<g>
</g>
<g>
</g>
<g>
</g>
<g>
</g>
<g>
</g>
<g>
</g>
</svg>
