<?xml version="1.0" encoding="iso-8859-1"?>
<!-- Generator: Adobe Illustrator 16.0.0, SVG Export Plug-In . SVG Version: 6.00 Build 0)  -->
<!DOCTYPE svg PUBLIC "-//W3C//DTD SVG 1.1//EN" "http://www.w3.org/Graphics/SVG/1.1/DTD/svg11.dtd">
<svg version="1.1" id="Layer_1" xmlns="http://www.w3.org/2000/svg" xmlns:xlink="http://www.w3.org/1999/xlink" x="0px" y="0px"
	 width="48px" height="64px" viewBox="0 0 48 64" style="enable-background:new 0 0 48 64;" xml:space="preserve">
<g id="Cross_31_">
	<g>
		<path style="fill-rule:evenodd;clip-rule:evenodd;fill:#E6B85C;" d="M28,4h-2V2c0-1.105-0.896-2-2-2s-2,0.895-2,2v2h-2
			c-1.104,0-2,0.895-2,2c0,1.104,0.896,2,2,2h2v6c0,1.104,0.896,2,2,2s2-0.896,2-2V8h2c1.104,0,2-0.896,2-2C30,4.895,29.104,4,28,4z
			"/>
	</g>
</g>
<g id="Building_6_">
	<g>
		<polygon style="fill-rule:evenodd;clip-rule:evenodd;fill:#CCCCCC;" points="34,40 34,26 24,16 14,26 14,40 4,50 4,64 44,64 
			44,50 		"/>
	</g>
</g>
<g id="Roof_6_">
	<g>
		<path style="fill-rule:evenodd;clip-rule:evenodd;fill:#ED7161;" d="M36,30c1.104,0,2-0.896,2-2c0-0.553-0.225-1.055-0.588-1.416
			L25.415,14.588C25.054,14.225,24.553,14,24,14s-1.054,0.225-1.415,0.588L10.588,26.584C10.225,26.945,10,27.447,10,28
			c0,1.104,0.896,2,2,2c0.552,0,1.052-0.225,1.414-0.586L24,18.828l10.586,10.586C34.948,29.775,35.448,30,36,30z M14,38
			c-0.553,0-1.054,0.225-1.415,0.588L0.588,50.584C0.225,50.945,0,51.447,0,52c0,1.104,0.896,2,2,2c0.552,0,1.052-0.225,1.414-0.586
			l12-12C15.776,41.053,16,40.553,16,40C16,38.895,15.104,38,14,38z M47.412,50.584L35.415,38.588C35.054,38.225,34.553,38,34,38
			c-1.104,0-2,0.895-2,2c0,0.553,0.224,1.053,0.586,1.414l12,12C44.948,53.775,45.448,54,46,54c1.104,0,2-0.896,2-2
			C48,51.447,47.775,50.945,47.412,50.584z"/>
	</g>
</g>
<g id="Windows_6_">
	<g>
		<path style="fill-rule:evenodd;clip-rule:evenodd;fill:#999999;" d="M24,36c2.209,0,4-1.791,4-4s-1.791-4-4-4s-4,1.791-4,4
			S21.791,36,24,36z M24,48c-3.313,0-6,2.686-6,6v10h12V54C30,50.686,27.313,48,24,48z"/>
	</g>
</g>
<g>
</g>
<g>
</g>
<g>
</g>
<g>
</g>
<g>
</g>
<g>
</g>
<g>
</g>
<g>
</g>
<g>
</g>
<g>
</g>
<g>
</g>
<g>
</g>
<g>
</g>
<g>
</g>
<g>
</g>
</svg>
