<?xml version="1.0" encoding="iso-8859-1"?>
<!-- Generator: Adobe Illustrator 16.0.0, SVG Export Plug-In . SVG Version: 6.00 Build 0)  -->
<!DOCTYPE svg PUBLIC "-//W3C//DTD SVG 1.1//EN" "http://www.w3.org/Graphics/SVG/1.1/DTD/svg11.dtd">
<svg version="1.1" id="Layer_1" xmlns="http://www.w3.org/2000/svg" xmlns:xlink="http://www.w3.org/1999/xlink" x="0px" y="0px"
	 width="63.999px" height="64px" viewBox="0 0 63.999 64" style="enable-background:new 0 0 63.999 64;" xml:space="preserve">
<g id="Base_8_">
	<g>
		<path style="fill:#8C6845;" d="M63.353,17.067L46.934,0.646c-0.596-0.595-1.468-0.802-2.228-0.526L25.802,6.975
			C25.38,7.127,25.028,7.416,24.8,7.797L0.28,49.384c-0.483,0.805-0.331,1.868,0.365,2.563l11.407,11.406
			c0.696,0.698,1.759,0.849,2.565,0.365L56.2,39.199c0.383-0.229,0.672-0.581,0.826-1.001l6.854-18.905
			C64.152,18.533,63.947,17.661,63.353,17.067z"/>
	</g>
</g>
<g id="Lid_2_">
	<g>
		<polygon style="fill:#A67C52;" points="44.591,5.927 29.455,11.646 6.035,49.382 14.603,57.959 52.303,34.516 58.014,19.363 		"/>
	</g>
</g>
<g id="Cross_10_">
	<g>
		<path style="fill-rule:evenodd;clip-rule:evenodd;fill:#FFCC66;" d="M41.794,24.845l1.607-1.617c0.75-0.755,0.75-1.976,0-2.73
			c-0.749-0.755-1.964-0.755-2.714,0l-1.606,1.615l-1.563-1.574c-0.804-0.812-2.112-0.812-2.917,0c-0.807,0.813-0.807,2.128,0,2.941
			l1.56,1.571l-3.617,3.638c-0.75,0.754-0.75,1.978,0,2.731c0.75,0.755,1.966,0.755,2.716,0l3.613-3.636l1.564,1.576
			c0.807,0.812,2.113,0.812,2.919,0c0.807-0.813,0.807-2.128,0-2.941L41.794,24.845z"/>
	</g>
</g>
<g>
</g>
<g>
</g>
<g>
</g>
<g>
</g>
<g>
</g>
<g>
</g>
<g>
</g>
<g>
</g>
<g>
</g>
<g>
</g>
<g>
</g>
<g>
</g>
<g>
</g>
<g>
</g>
<g>
</g>
</svg>
