<?xml version="1.0" encoding="iso-8859-1"?>
<!-- Generator: Adobe Illustrator 16.0.0, SVG Export Plug-In . SVG Version: 6.00 Build 0)  -->
<!DOCTYPE svg PUBLIC "-//W3C//DTD SVG 1.1//EN" "http://www.w3.org/Graphics/SVG/1.1/DTD/svg11.dtd">
<svg version="1.1" id="Layer_1" xmlns="http://www.w3.org/2000/svg" xmlns:xlink="http://www.w3.org/1999/xlink" x="0px" y="0px"
	 width="44px" height="64px" viewBox="0 0 44 64" style="enable-background:new 0 0 44 64;" xml:space="preserve">
<g id="Cone">
	<g>
		<path style="fill:#F06EAA;" d="M43.857,61.258l-20-50.002C23.553,10.498,22.818,10,22,10c-0.816,0-1.553,0.498-1.857,1.256
			l-20,50.002c-0.246,0.615-0.17,1.314,0.201,1.863C0.717,63.67,1.336,64,2,64h40c0.664,0,1.283-0.33,1.656-0.879
			C44.027,62.572,44.104,61.873,43.857,61.258z"/>
	</g>
</g>
<g id="Stripes_1_">
	<g>
		<path style="fill:#CCCCCC;" d="M26.141,16.965l-9.201,2.301l-2.666,6.666l14.049-3.514L26.141,16.965z M30.504,27.873
			l-18.896,4.725l-2.668,6.666l23.746-5.936L30.504,27.873z M39.23,49.691L0.939,59.264l-0.797,1.994
			c-0.246,0.615-0.17,1.314,0.201,1.863C0.717,63.67,1.336,64,2,64h4l35.414-8.854L39.23,49.691z M34.867,38.783L6.273,45.932
			l-2.666,6.666l33.441-8.359L34.867,38.783z"/>
	</g>
</g>
<g id="Tassel">
	<g>
		<path style="fill-rule:evenodd;clip-rule:evenodd;fill:#88C057;" d="M29.408,2.592c-0.813-0.813-2.127-0.813-2.939,0L24,5.061V2
			c0-1.105-0.895-2-2-2s-2,0.895-2,2v3.018l-2.43-2.43c-0.807-0.807-2.113-0.807-2.92,0s-0.807,2.113,0,2.92l5.84,5.84
			c0.027,0.027,0.063,0.035,0.092,0.061c0.19,0.191,0.422,0.34,0.677,0.441c0.755,0.316,1.657,0.172,2.272-0.441l5.877-5.879
			C30.219,4.719,30.219,3.402,29.408,2.592z"/>
	</g>
</g>
<g>
</g>
<g>
</g>
<g>
</g>
<g>
</g>
<g>
</g>
<g>
</g>
<g>
</g>
<g>
</g>
<g>
</g>
<g>
</g>
<g>
</g>
<g>
</g>
<g>
</g>
<g>
</g>
<g>
</g>
</svg>
