<?xml version="1.0" encoding="iso-8859-1"?>
<!-- Generator: Adobe Illustrator 16.0.0, SVG Export Plug-In . SVG Version: 6.00 Build 0)  -->
<!DOCTYPE svg PUBLIC "-//W3C//DTD SVG 1.1//EN" "http://www.w3.org/Graphics/SVG/1.1/DTD/svg11.dtd">
<svg version="1.1" id="Layer_1" xmlns="http://www.w3.org/2000/svg" xmlns:xlink="http://www.w3.org/1999/xlink" x="0px" y="0px"
	 width="64px" height="64px" viewBox="0 0 64 64" style="enable-background:new 0 0 64 64;" xml:space="preserve">
<g id="Interior">
	<g>
		<path style="fill-rule:evenodd;clip-rule:evenodd;fill:#CCBEA3;" d="M28,30C28,0,8,0,8,0l4,6v30v13.898C5.904,54.734,4,60,4,60
			c2.475,2.475,6.146,4,12,4c16,0,27.195-10,34-10c4.254,0,6,2,6,2c0,4.75-2,8-2,8s6,0,6-12C60,36,28,30,28,30z"/>
	</g>
</g>
<g id="Corn">
	<g>
		<path style="fill:#FFCC66;" d="M54,0C36,0,2,44,2,44l18,18c0,0,44-34,44-52C64,2,62,0,54,0z"/>
	</g>
</g>
<g id="Leaf_4_">
	<g>
		<path style="fill:#88C057;" d="M8,0c0,0,2,4,2,8C10,32,0,32,0,48c0,5.852,1.525,9.523,4,12c0,0,16-6.479,16-34C20,0,8,0,8,0z"/>
	</g>
</g>
<g id="Leaf_5_">
	<g>
		<path style="fill:#75A64B;" d="M38,42C10.479,42,4,60,4,60c2.475,2.475,6.146,4,12,4c16,0,27.195-10,34-10c4.254,0,6,2,6,2
			S56,42,38,42z"/>
	</g>
</g>
<g>
</g>
<g>
</g>
<g>
</g>
<g>
</g>
<g>
</g>
<g>
</g>
<g>
</g>
<g>
</g>
<g>
</g>
<g>
</g>
<g>
</g>
<g>
</g>
<g>
</g>
<g>
</g>
<g>
</g>
</svg>
