<?xml version="1.0" encoding="iso-8859-1"?>
<!-- Generator: Adobe Illustrator 16.0.0, SVG Export Plug-In . SVG Version: 6.00 Build 0)  -->
<!DOCTYPE svg PUBLIC "-//W3C//DTD SVG 1.1//EN" "http://www.w3.org/Graphics/SVG/1.1/DTD/svg11.dtd">
<svg version="1.1" id="Layer_1" xmlns="http://www.w3.org/2000/svg" xmlns:xlink="http://www.w3.org/1999/xlink" x="0px" y="0px"
	 width="92px" height="64px" viewBox="0 0 92 64" style="enable-background:new 0 0 92 64;" xml:space="preserve">
<g id="Egg_22_">
	<g>
		<path style="fill:#FFCC66;" d="M44,22c-6.627,0-12,10.164-12,19s5.373,13,12,13s12-4.164,12-13S50.627,22,44,22z"/>
	</g>
</g>
<g id="Egg_20_">
	<g>
		<path style="fill:#ED7161;" d="M60,20c-6.627,0-12,10.162-12,19c0,8.836,5.373,13,12,13s12-4.164,12-13C72,30.162,66.627,20,60,20
			z"/>
	</g>
</g>
<g id="Egg_18_">
	<g>
		<path style="fill:#48A0DC;" d="M32,22c-6.627,0-12,10.164-12,19s5.373,13,12,13s12-4.164,12-13S38.627,22,32,22z"/>
	</g>
</g>
<g id="Basket_6_">
	<g>
		<path style="fill:#D9B693;" d="M16,40c0,13.254,10.744,24,24,24h12c13.254,0,24-10.746,24-24H16z"/>
	</g>
</g>
<g id="Basket_4_">
	<g>
		<path style="fill-rule:evenodd;clip-rule:evenodd;fill:#BFA182;" d="M53,59l4,4l-0.574,0.574
			c9.701-1.811,17.338-9.447,19.148-19.148L74,46l-4-4l2-2h-4h-2h-4l2,2l-4,4l-4-4l2-2h-4h-2h-4l2,2l-4,4l-4-4l2-2h-4h-2h-4l2,2
			l-4,4l-4-4l2-2h-4h-2h-4l2,2l-4,4l-1.576-1.576c1.811,9.703,9.449,17.34,19.152,19.152L35,63l4-4l4,4l-1,1h2h4h2l-1-1L53,59z
			 M67,45l4,4l-4,4l-4-4L67,45z M64,56l-4,4l-4-4l4-4L64,56z M53,45l4,4l-4,4l-4-4L53,45z M21,49l4-4l4,4l-4,4L21,49z M32,60l-4-4
			l4-4l4,4L32,60z M35,49l4-4l4,4l-4,4L35,49z M46,60l-4-4l4-4l4,4L46,60z"/>
	</g>
</g>
<g id="Ring_33_">
	<g>
		<path style="fill:#A67C52;" d="M76,36H16c-1.105,0-2,0.895-2,2c0,1.104,0.895,2,2,2h60c1.105,0,2-0.896,2-2
			C78,36.895,77.105,36,76,36z"/>
	</g>
</g>
<g id="Handle_22_">
	<g>
		<path style="fill-rule:evenodd;clip-rule:evenodd;fill:#D9B693;" d="M46,2C29.432,2,16,15.432,16,32v4h4v-4
			C20,17.641,31.641,6,46,6s26,11.641,26,26v4h4v-4C76,15.432,62.568,2,46,2z"/>
	</g>
</g>
<g id="Bow_18_">
	<g>
		<path style="fill-rule:evenodd;clip-rule:evenodd;fill:#ED7161;" d="M54,0c-3.088,0-6.25,4-8,4s-4.912-4-8-4c-1.688,0-2,2.375-2,4
			c0,2.578,0,1.279,0,4c0,2,0.563,4,4,4c2.063,0,2.838-4,6-4s3.938,4,6,4c3.438,0,4-2,4-4c0-2.721,0-1.422,0-4
			C56,2.375,55.688,0,54,0z"/>
	</g>
</g>
<g id="Knot_20_">
	<g>
		<path style="fill:#BA594C;" d="M46,2c-1.105,0-2,0.895-2,2v2c0,1.104,0.895,2,2,2s2-0.896,2-2V4C48,2.895,47.105,2,46,2z"/>
	</g>
</g>
<g>
</g>
<g>
</g>
<g>
</g>
<g>
</g>
<g>
</g>
<g>
</g>
<g>
</g>
<g>
</g>
<g>
</g>
<g>
</g>
<g>
</g>
<g>
</g>
<g>
</g>
<g>
</g>
<g>
</g>
</svg>
