<?xml version="1.0" encoding="iso-8859-1"?>
<!-- Generator: Adobe Illustrator 16.0.0, SVG Export Plug-In . SVG Version: 6.00 Build 0)  -->
<!DOCTYPE svg PUBLIC "-//W3C//DTD SVG 1.1//EN" "http://www.w3.org/Graphics/SVG/1.1/DTD/svg11.dtd">
<svg version="1.1" id="Layer_1" xmlns="http://www.w3.org/2000/svg" xmlns:xlink="http://www.w3.org/1999/xlink" x="0px" y="0px"
	 width="64px" height="64px" viewBox="0 0 64 64" style="enable-background:new 0 0 64 64;" xml:space="preserve">
<g id="Coat_3_">
	<g>
		<path style="fill:#88C057;" d="M60,47.999c-1.881-1.881-18-9.998-18-9.998H22c0,0-16.121,8.117-18,9.998C0.24,51.758,0,64,0,64h64
			C64,64,63.76,51.758,60,47.999z"/>
	</g>
</g>
<g id="Buttons_3_">
	<g>
		<path style="fill-rule:evenodd;clip-rule:evenodd;fill:#FFFFFF;" d="M32,52c1.104,0,2-0.896,2-2.002C34,48.895,33.104,48,32,48
			c-1.105,0-2,0.895-2,1.998C30,51.104,30.895,52,32,52z M32,56c-1.105,0-2,0.895-2,2c0,1.104,0.895,2,2,2c1.104,0,2-0.896,2-2
			C34,56.895,33.104,56,32,56z"/>
	</g>
</g>
<g id="Collar_5_">
	<g>
		<path style="fill:#ED7161;" d="M40,35.999H24l-2,2.002c0,0,0,2.422,0,4c0,2.209,1.791,4,4,4c2.299,0,4.613-4,6-4
			c1.385,0,3.701,4,6,4c2.209,0,4-1.791,4-4c0-1.578,0-4,0-4L40,35.999z"/>
	</g>
</g>
<g id="Neck_7_">
	<g>
		<path style="fill:#DBB59A;" d="M38,29.999H26l-2,6c0,1.105,4.895,4,6,4h4c1.104,0,6-2.895,6-4L38,29.999z"/>
	</g>
</g>
<g id="Head_20_">
	<g>
		<path style="fill-rule:evenodd;clip-rule:evenodd;fill:#F5CAAB;" d="M45.973,17.143C45.99,16.777,46,16.398,46,16
			c0-8-6.27-11.998-14-11.998C24.268,4.002,18,8,18,16c0,0.399,0.01,0.778,0.027,1.143c-1.517-1.579-3.446-3.141-4.027-3.141
			c0,1.188,2,4.938,2,6c0,0.773,2.578,3.592,4.418,5.073c0.501,0.908,1.041,1.843,1.582,2.925c2,4,6.082,8,10,8s8-4,10-8
			c0.541-1.082,1.081-2.017,1.582-2.925c1.84-1.48,4.418-4.3,4.418-5.073c0-1.063,2-4.813,2-6
			C49.419,14.001,47.489,15.564,45.973,17.143z"/>
	</g>
</g>
<g id="Hair_9_">
	<g>
		<path style="fill:#8C6845;" d="M32,2c-4.684,0-10,1.732-10,4.002c-2.957,0-4,6.617-4,11.998c0,0.9,0.08,1.844,0.205,2.805
			c0.514-2.646,2.105-6.803,5.795-6.803c3.453,0,2.107,0,8,0c3.063,0,8-1.498,8-4.002c2.596-0.035,6,3.662,6,8
			C46,10.136,44.715,2,32,2z"/>
	</g>
</g>
<g id="Hat_2_">
	<g>
		<path style="fill-rule:evenodd;clip-rule:evenodd;fill:#88C057;" d="M32,0c-7.732,0-14,4.002-14,14.001
			c0,0.217,0.064,0.391,0.082,0.596C18.508,10.923,24.543,8.002,32,8.002c7.455,0,13.492,2.921,13.918,6.595
			C45.934,14.392,46,14.218,46,14.001c0-4.189,1.215-5.216,4-8C47.625,3.627,43.295,0,32,0z"/>
	</g>
</g>
<g id="Band_7_">
	<g>
		<path style="fill-rule:evenodd;clip-rule:evenodd;fill:#ED7161;" d="M32,10.001c7.16,0,13.054,1.723,13.889,8.329
			C45.957,17.584,46,16.813,46,16c0-8-6.268-9.998-14-9.998S18,8,18,16c0,0.814,0.043,1.585,0.111,2.331
			C18.946,11.725,24.84,10.001,32,10.001z"/>
	</g>
</g>
<g id="Ball_3_">
	<g>
		<circle style="fill:#ED7161;" cx="49" cy="5.002" r="3"/>
	</g>
</g>
<g>
</g>
<g>
</g>
<g>
</g>
<g>
</g>
<g>
</g>
<g>
</g>
<g>
</g>
<g>
</g>
<g>
</g>
<g>
</g>
<g>
</g>
<g>
</g>
<g>
</g>
<g>
</g>
<g>
</g>
</svg>
