<?xml version="1.0" encoding="iso-8859-1"?>
<!-- Generator: Adobe Illustrator 16.0.0, SVG Export Plug-In . SVG Version: 6.00 Build 0)  -->
<!DOCTYPE svg PUBLIC "-//W3C//DTD SVG 1.1//EN" "http://www.w3.org/Graphics/SVG/1.1/DTD/svg11.dtd">
<svg version="1.1" id="Layer_1" xmlns="http://www.w3.org/2000/svg" xmlns:xlink="http://www.w3.org/1999/xlink" x="0px" y="0px"
	 width="64px" height="56px" viewBox="0 0 64 56" style="enable-background:new 0 0 64 56;" xml:space="preserve">
<g id="Bone_1_">
	<g>
		<path style="fill-rule:evenodd;clip-rule:evenodd;fill:#B3B3B3;" d="M42,32c0,0-1.35-8.939-2.844-13.535
			C44.996,14.402,50,12,50,12l-2-4c0,0-5.17,2.545-11.375,6.963C32.637,12.495,24,10,24,10s5.672,4.399,9.271,7.468
			c-0.889,0.697-1.781,1.438-2.67,2.2C26.066,17.799,18,16,18,16s6.316,3.766,9.799,6.197c-0.871,0.831-1.723,1.689-2.563,2.56
			C20.602,23.344,12,22,12,22s8.035,3.366,10.967,5.185c-0.725,0.802-1.43,1.604-2.115,2.404C17.27,28.669,8,28,8,28
			s6.729,3.043,10.139,4.862c-0.646,0.807-1.26,1.589-1.846,2.35C12.729,34.122,6,34,6,34l7.727,4.636C11.404,41.825,10,44,10,44
			l4,2c0,0,1.121-1.8,3.082-4.557L22,48c0,0-1.039-6.142-2.582-9.741c0.621-0.822,1.297-1.688,2.008-2.583C23.785,38.57,28,44,28,44
			s-2.119-7.181-4.135-11.3c0.584-0.692,1.193-1.394,1.82-2.1C28.055,34.176,32,40,32,40s-1.592-8.943-3.258-12.709
			C29.156,26.859,29.572,26.428,30,26c0.229-0.229,0.467-0.446,0.699-0.67C32.34,28.542,36,36,36,36s-0.941-9.876-2.094-13.543
			c0.818-0.683,1.641-1.339,2.461-1.965C38.963,24.085,42,32,42,32z"/>
	</g>
</g>
<g id="Fish">
	<g>
		<path style="fill-rule:evenodd;clip-rule:evenodd;fill:#48A0DC;" d="M0,46c0,1.355,0.477,2,2,2c11.576,0,11.662,8,14,8
			c1.275,0,2-0.381,2-2c0-3.609-4-12-4-12S0,43.883,0,46z M42,0c-2.918,0-10,1.068-10,4c0,4.654,7.244,5.227,10,10
			c2.279,3.949,4.273,14,8,14c2.863,0,14-16.906,14-20C64,1.881,49.75,0,42,0z"/>
	</g>
</g>
<g id="Eye_2_">
	<g>
		<circle style="fill:#FFFFFF;" cx="47" cy="7" r="3"/>
	</g>
</g>
<g>
</g>
<g>
</g>
<g>
</g>
<g>
</g>
<g>
</g>
<g>
</g>
<g>
</g>
<g>
</g>
<g>
</g>
<g>
</g>
<g>
</g>
<g>
</g>
<g>
</g>
<g>
</g>
<g>
</g>
</svg>
