<?xml version="1.0" encoding="iso-8859-1"?>
<!-- Generator: Adobe Illustrator 16.0.0, SVG Export Plug-In . SVG Version: 6.00 Build 0)  -->
<!DOCTYPE svg PUBLIC "-//W3C//DTD SVG 1.1//EN" "http://www.w3.org/Graphics/SVG/1.1/DTD/svg11.dtd">
<svg version="1.1" id="Layer_1" xmlns="http://www.w3.org/2000/svg" xmlns:xlink="http://www.w3.org/1999/xlink" x="0px" y="0px"
	 width="64px" height="64px" viewBox="0 0 64 64" style="enable-background:new 0 0 64 64;" xml:space="preserve">
<g id="Ghost_3_">
	<g>
		<path style="fill:#CCCCCC;" d="M58,20c-1.511-2.666-2.792-8-8-8c-6.229,0-8.324,6-12,6c-1.509,0-2-0.998-2-2c0-2.234,2-4.213,2-8
			c0-1.701-1.495-8-8-8c-5.29,0-8,3.787-8,8c0,3.805-0.337,10-2,10c-4.174,0-3.979-10-8-10c-3.329,0-8,6.387-8,10
			c0,2.549-4,1.984-4,6c0,4.246,6,4,6,4s-2,1.404-2,6c1.923,0,4,2.461,4,4s1.098,4,4,4c3.34,0,6.278,1.037,8,4
			c1.579,2.717,2.045,8,6,8s6.271,2.291,8,4c1.729,1.709,7.568,6,10,6c1.369,0,2-1.02,2-2s-4-4.16-4-6s2-3.508,2-6
			c0-2.494-2-3.844-2-6c0-2.158,4.906-3.18,8-4c3.093-0.822,1.272-3.758,6-4c0-1.557,1.898-4,4-4c2.811,0,4-1.713,4-4
			C64,25.063,59.76,23.107,58,20z"/>
	</g>
</g>
<g id="Mouth_10_">
	<g>
		<path style="fill:#4D4D4D;" d="M28,14c-1.604,0-2,0.229-2,2c0,2.209,1.271,6,2,6c0.604,0,2-2.291,2-4C30,16.354,29.792,14,28,14z"
			/>
	</g>
</g>
<g>
</g>
<g>
</g>
<g>
</g>
<g>
</g>
<g>
</g>
<g>
</g>
<g>
</g>
<g>
</g>
<g>
</g>
<g>
</g>
<g>
</g>
<g>
</g>
<g>
</g>
<g>
</g>
<g>
</g>
</svg>
