<?xml version="1.0" encoding="iso-8859-1"?>
<!-- Generator: Adobe Illustrator 16.0.0, SVG Export Plug-In . SVG Version: 6.00 Build 0)  -->
<!DOCTYPE svg PUBLIC "-//W3C//DTD SVG 1.1//EN" "http://www.w3.org/Graphics/SVG/1.1/DTD/svg11.dtd">
<svg version="1.1" id="Layer_1" xmlns="http://www.w3.org/2000/svg" xmlns:xlink="http://www.w3.org/1999/xlink" x="0px" y="0px"
	 width="64px" height="64px" viewBox="0 0 64 64" style="enable-background:new 0 0 64 64;" xml:space="preserve">
<g id="Wrapper">
	<g>
		<path style="fill:#FFCC66;" d="M62.828,23.172l-21.998-22C40.08,0.422,39.061,0,38,0s-2.078,0.422-2.828,1.172l-34,34
			C0.422,35.922,0,36.939,0,38s0.422,2.078,1.172,2.828l22,22C23.922,63.578,24.939,64,26,64c1.063,0,2.08-0.422,2.83-1.172
			l33.998-34C64.391,27.266,64.391,24.732,62.828,23.172z"/>
	</g>
</g>
<g id="Bands">
	<g>
		<polygon style="fill:#ED7161;" points="53.828,14.172 49.828,10.172 28,32 16.172,20.172 12.172,24.172 24,36 10.172,49.828 
			14.172,53.828 28,40 39.828,51.828 43.828,47.828 32,36 		"/>
	</g>
</g>
<g id="Bow">
	<g>
		<path style="fill:#ED7161;" d="M40,30c-3.287,0-10.178,2.531-12,4c-1.822-1.469-8.713-4-12-4c-6,0-6,4-6,6s0,6,6,6
			c3.287,0,10.178-2.531,12-4c1.822,1.469,8.713,4,12,4c6,0,6-4,6-6S46,30,40,30z M16,38c-2,0-2-2-2-2s0-2,2-2c3.313,0,8,2,8,2
			S19.313,38,16,38z M40,38c-3.314,0-8-2-8-2s4.686-2,8-2c2,0,2,2,2,2S42,38,40,38z"/>
	</g>
</g>
<g id="Knot">
	<g>
		<path style="fill:#BA594C;" d="M30,32h-4c-1.105,0-2,0.895-2,2v4c0,1.104,0.895,2,2,2h4c1.105,0,2-0.896,2-2v-4
			C32,32.895,31.105,32,30,32z"/>
	</g>
</g>
<g>
</g>
<g>
</g>
<g>
</g>
<g>
</g>
<g>
</g>
<g>
</g>
<g>
</g>
<g>
</g>
<g>
</g>
<g>
</g>
<g>
</g>
<g>
</g>
<g>
</g>
<g>
</g>
<g>
</g>
</svg>
