<?xml version="1.0" encoding="iso-8859-1"?>
<!-- Generator: Adobe Illustrator 16.0.0, SVG Export Plug-In . SVG Version: 6.00 Build 0)  -->
<!DOCTYPE svg PUBLIC "-//W3C//DTD SVG 1.1//EN" "http://www.w3.org/Graphics/SVG/1.1/DTD/svg11.dtd">
<svg version="1.1" id="Layer_1" xmlns="http://www.w3.org/2000/svg" xmlns:xlink="http://www.w3.org/1999/xlink" x="0px" y="0px"
	 width="60px" height="64px" viewBox="0 0 60 64" style="enable-background:new 0 0 60 64;" xml:space="preserve">
<g id="Mug">
	<g>
		<path style="fill-rule:evenodd;clip-rule:evenodd;fill:#88C057;" d="M52,16h-4.847C47.597,13.223,48,12,48,12v-2
			c0-1.105-0.895-2-2-2H6c-1.105,0-2,0.895-2,2v2c0,0,2,6,2,22S4,54,4,60c0,2,2,4,4,4c2.75,0,33.25,0,36,0c2,0,4-2,4-4
			c0-2.652-0.391-4.918-0.827-8H52c4.418,0,8-3.582,8-8V24C60,19.582,56.418,16,52,16z M54,42c0,2.209-1.791,4-4,4h-3.527
			C46.199,42.9,46,39.051,46,34c0-4.904,0.188-8.859,0.449-12H50c2.209,0,4,1.789,4,4V42z"/>
	</g>
</g>
<g id="Beer">
	<g>
		<path style="fill:#75A64B;" d="M40,34c0-9.963,1.35-16.348,2-20H10c0.65,3.652,2,10.037,2,20c0,10.355-0.818,16.002-1.416,20.123
			c-0.215,1.484-0.393,2.709-0.494,3.877h31.82c-0.102-1.168-0.279-2.393-0.494-3.877C40.818,50.002,40,44.355,40,34z"/>
	</g>
</g>
<g id="Foam">
	<g>
		<path style="fill:#E6E6E6;" d="M46,8c0-0.277-0.045-0.541-0.082-0.807C45.521,4.266,43.037,2,40,2
			c-0.602,0-1.17,0.115-1.717,0.279C36.563,0.875,34.395,0,32,0c-3.148,0-5.924,1.484-7.756,3.758C23.158,2.672,21.658,2,20,2
			c-2.42,0-4.492,1.439-5.441,3.504C13.121,3.402,10.74,2,8,2c-4.418,0-8,3.582-8,8c0,5.305,4,11.02,4,18c0,3.6,1.729,6,4,6
			c1.908,0,2-3.791,2-6c0-13.965,8.188-14,10-14c2.188,0,2.207,2,4,2c3.369,0,2.762-1.842,6-2c1.098,1.201,2.244,2,4,2
			c1.242,0,2.395-0.379,3.352-1.023C38.059,15.605,38.979,16,40,16c2.209,0,4-1.791,4-4c0-0.18-0.029-0.352-0.053-0.527
			C45.166,10.789,46,9.498,46,8z"/>
	</g>
</g>
<g>
</g>
<g>
</g>
<g>
</g>
<g>
</g>
<g>
</g>
<g>
</g>
<g>
</g>
<g>
</g>
<g>
</g>
<g>
</g>
<g>
</g>
<g>
</g>
<g>
</g>
<g>
</g>
<g>
</g>
</svg>
