<?xml version="1.0" encoding="iso-8859-1"?>
<!-- Generator: Adobe Illustrator 16.0.0, SVG Export Plug-In . SVG Version: 6.00 Build 0)  -->
<!DOCTYPE svg PUBLIC "-//W3C//DTD SVG 1.1//EN" "http://www.w3.org/Graphics/SVG/1.1/DTD/svg11.dtd">
<svg version="1.1" id="Layer_1" xmlns="http://www.w3.org/2000/svg" xmlns:xlink="http://www.w3.org/1999/xlink" x="0px" y="0px"
	 width="64px" height="64px" viewBox="0 0 64 64" style="enable-background:new 0 0 64 64;" xml:space="preserve">
<g id="Pumpkin_7_">
	<g>
		<path style="fill:#E67A2E;" d="M38,12c-2.068,0-4.071,1.543-6,2c-1.93-0.457-3.932-2-6-2C11.641,12,0,23.641,0,38s11.641,26,26,26
			c2.068,0,4.07-1.545,6-2c1.929,0.455,3.932,2,6,2c14.359,0,26-11.641,26-26S52.359,12,38,12z"/>
	</g>
</g>
<g id="Stripes_16_">
	<g>
		<path style="fill-rule:evenodd;clip-rule:evenodd;fill:#FF8833;" d="M16,38c0-12.436,5.376-22.817,12.556-25.38
			c-0.23-0.095-0.462-0.181-0.694-0.26C15.474,14.347,6,25.053,6,38s9.474,23.652,21.86,25.64c0.232-0.079,0.464-0.165,0.694-0.26
			C21.376,60.816,16,50.436,16,38z M33.874,13.312C33.242,13.594,32.617,13.854,32,14c-0.617-0.146-1.242-0.406-1.874-0.688
			C27.73,16.725,26,26.479,26,38c0,11.52,1.73,21.274,4.126,24.688C30.758,62.405,31.383,62.146,32,62
			c0.617,0.146,1.242,0.406,1.874,0.688C36.27,59.275,38,49.521,38,38S36.269,16.724,33.874,13.312z M36.139,12.36
			c-0.232,0.079-0.464,0.165-0.694,0.26C42.623,15.183,48,25.564,48,38s-5.376,22.816-12.555,25.38
			c0.23,0.095,0.462,0.181,0.694,0.26C48.526,61.652,58,50.947,58,38S48.526,14.347,36.139,12.36z"/>
	</g>
</g>
<g id="Tail_8_">
	<g>
		<path style="fill-rule:evenodd;clip-rule:evenodd;fill:#88C057;" d="M34,0c-3.313,0-6,2.686-6,5.998c0,3.314,2.125,5.877,0,8.002
			c0,1.104,1.791,1.998,4,1.998s4-0.895,4-1.998c-1.125-1.125-4-6.896-4-8.002C32,4.895,32.896,4,34,4s2,0.895,2,1.998
			C36,7.104,36.896,8,38,8s2-0.896,2-2.002C40,2.686,37.313,0,34,0z"/>
	</g>
</g>
<g id="Face_12_">
	<g>
		<path style="fill-rule:evenodd;clip-rule:evenodd;fill:#542823;" d="M50,42c-1.257,0-3.287,0.438-6,0.903V46c0,1.104-0.896,2-2,2
			h-4c-1.104,0-2-0.896-2-2v-2.138C34.732,43.942,33.416,44,32,44s-2.732-0.058-4-0.138V46c0,1.104-0.896,2-2,2h-4
			c-1.104,0-2-0.896-2-2v-3.097C17.287,42.438,15.257,42,14,42c-0.94,0-2,0.797-2,2c0,2.813,8,8,20,8s20-5.188,20-8
			C52,42.797,50.94,42,50,42z M38,36c1.16,0,5.945-2,10-2c1.243,0,2-1.033,2-2s-1.992-6-4-6s-10,5.209-10,8
			C36,34.965,36.84,36,38,36z M16,34c4.054,0,8.84,2,10,2s2-1.035,2-2c0-2.791-7.993-8-10-8c-2.008,0-4,5.033-4,6S14.757,34,16,34z"
			/>
	</g>
</g>
<g>
</g>
<g>
</g>
<g>
</g>
<g>
</g>
<g>
</g>
<g>
</g>
<g>
</g>
<g>
</g>
<g>
</g>
<g>
</g>
<g>
</g>
<g>
</g>
<g>
</g>
<g>
</g>
<g>
</g>
</svg>
