<?xml version="1.0" encoding="iso-8859-1"?>
<!-- Generator: Adobe Illustrator 16.0.0, SVG Export Plug-In . SVG Version: 6.00 Build 0)  -->
<!DOCTYPE svg PUBLIC "-//W3C//DTD SVG 1.1//EN" "http://www.w3.org/Graphics/SVG/1.1/DTD/svg11.dtd">
<svg version="1.1" id="Layer_1" xmlns="http://www.w3.org/2000/svg" xmlns:xlink="http://www.w3.org/1999/xlink" x="0px" y="0px"
	 width="48px" height="64px" viewBox="0 0 48 64" style="enable-background:new 0 0 48 64;" xml:space="preserve">
<g id="Strings_2_">
	<g>
		<path style="fill-rule:evenodd;clip-rule:evenodd;fill:#CCCCCC;" d="M19,9.998c-0.553,0-1,0.449-1,1V53c0,0.551,0.447,1,1,1
			c0.551,0,1-0.449,1-1V10.998C20,10.447,19.551,9.998,19,9.998z M23,9.998c-0.553,0-1,0.449-1,1V53c0,0.551,0.447,1,1,1
			c0.551,0,1-0.449,1-1V10.998C24,10.447,23.551,9.998,23,9.998z M27,10c-0.553,0-1,0.447-1,0.998v28C26,39.551,26.447,40,27,40
			s1-0.449,1-1.002v-28C28,10.447,27.553,10,27,10z M31,10c-0.553,0-1,0.447-1,0.998v28C30,39.551,30.447,40,31,40s1-0.449,1-1.002
			v-28C32,10.447,31.553,10,31,10z M35,9.998c-0.553,0-1,0.449-1,1V27c0,0.551,0.447,0.998,1,0.998c0.551,0,1-0.447,1-0.998V10.998
			C36,10.447,35.551,9.998,35,9.998z M39,9.998c-0.553,0-1,0.449-1,1V25c0,0.551,0.447,1,1,1s1-0.449,1-1V10.998
			C40,10.447,39.553,9.998,39,9.998z"/>
	</g>
</g>
<g id="Arm_2_">
	<g>
		<path style="fill-rule:evenodd;clip-rule:evenodd;fill:#FFCC66;" d="M42,6c-3.063,0-5.188,4-8,4c-4.625,0-5.875-10-14-10
			C20,0,0,8.473,0,32s16,32,16,32V54c0,0-8-5.529-8-22c0-12.537,12-20,12-20c6.625,0,5.625,4,10,4c5.75,0,7.875-4,10-4
			c2.313,0,2,2.625,2,6h4c0,0,0-6.313,0-8S45.063,6,42,6z"/>
	</g>
</g>
<g id="Leg_2_">
	<g>
		<path style="fill:#E6B85C;" d="M44,14c-2.363,0-3.402,1.705-6,6S16,54,16,54v10h14c0,0,18-45.084,18-48C48,14.15,47.049,14,44,14z
			"/>
	</g>
</g>
<g>
</g>
<g>
</g>
<g>
</g>
<g>
</g>
<g>
</g>
<g>
</g>
<g>
</g>
<g>
</g>
<g>
</g>
<g>
</g>
<g>
</g>
<g>
</g>
<g>
</g>
<g>
</g>
<g>
</g>
</svg>
