<?xml version="1.0" encoding="iso-8859-1"?>
<!-- Generator: Adobe Illustrator 16.0.0, SVG Export Plug-In . SVG Version: 6.00 Build 0)  -->
<!DOCTYPE svg PUBLIC "-//W3C//DTD SVG 1.1//EN" "http://www.w3.org/Graphics/SVG/1.1/DTD/svg11.dtd">
<svg version="1.1" id="Layer_1" xmlns="http://www.w3.org/2000/svg" xmlns:xlink="http://www.w3.org/1999/xlink" x="0px" y="0px"
	 width="64px" height="64.001px" viewBox="0 0 64 64.001" style="enable-background:new 0 0 64 64.001;" xml:space="preserve">
<g id="Arrow_8_">
	<g>
		<path style="fill-rule:evenodd;clip-rule:evenodd;fill:#666666;" d="M63.887,1.526c-0.004-0.014,0.001-0.029-0.003-0.043
			c-0.007-0.025-0.027-0.043-0.035-0.068c-0.065-0.188-0.146-0.357-0.262-0.518c-0.066-0.096-0.141-0.178-0.222-0.262
			c-0.084-0.082-0.166-0.156-0.263-0.223c-0.158-0.113-0.326-0.195-0.511-0.26c-0.027-0.008-0.046-0.029-0.073-0.037
			c-0.016-0.004-0.03,0-0.046-0.002c-0.348-0.102-0.714-0.145-1.09-0.045l-7.887,2.07c-1.09,0.283-1.735,1.379-1.443,2.447
			c0.291,1.066,1.41,1.697,2.499,1.414l0.725-0.189L38.544,22.544c-0.786,0.785-0.786,2.063,0,2.85c0.787,0.787,2.063,0.787,2.85,0
			L58.237,8.55l-0.236,0.9c-0.286,1.086,0.347,2.207,1.413,2.498c1.066,0.293,2.162-0.355,2.448-1.443l2.069-7.887
			C64.03,2.241,63.987,1.874,63.887,1.526z"/>
	</g>
</g>
<g id="Heart_14_">
	<g>
		<path style="fill-rule:evenodd;clip-rule:evenodd;fill:#ED7161;" d="M59.967,26.575c0-8.033-6.656-14.547-14.867-14.547
			c-5.682,0-10.615,3.121-13.117,7.705c-2.503-4.584-7.437-7.705-13.119-7.705c-8.21,0-14.865,6.514-14.865,14.547
			c0,4.457,2.053,8.439,5.279,11.109l-0.032,0.014c0,0,18.897,19.779,20.263,21.189c1.367,1.412,3.581,1.412,4.948,0
			c1.365-1.41,20.263-21.189,20.263-21.189l-0.031-0.014C57.913,35.015,59.967,31.032,59.967,26.575z"/>
	</g>
</g>
<g id="Arrow_6_">
	<g>
		<path style="fill-rule:evenodd;clip-rule:evenodd;fill:#666666;" d="M27.356,36.581c-0.787-0.787-2.063-0.787-2.85,0L9.081,52.007
			H5.997c-1.104,0-1.999,0.895-1.999,2c0,0.832,0.512,1.545,1.238,1.844l-0.153,0.154H1.999C0.896,56.005,0,56.899,0,58.003
			s0.896,2,1.999,2h1.999v1.998c0,1.104,0.895,2,1.999,2c1.104,0,1.999-0.896,1.999-2V58.79l0.132-0.133
			c0.273,0.779,0.995,1.346,1.867,1.346c1.104,0,1.998-0.896,1.998-2v-3.209l15.363-15.363
			C28.143,38.644,28.143,37.366,27.356,36.581z"/>
	</g>
</g>
<g id="Heart_12_">
	<g>
		<path style="fill-rule:evenodd;clip-rule:evenodd;fill:#BA594C;" d="M21.988,32.019c-1.104,0-1.999,0.895-1.999,1.998
			s0.895,2,1.999,2c3.312,0,5.996,2.684,5.996,5.996c0,1.104,0.896,2,1.999,2c1.104,0,1.999-0.896,1.999-2
			C31.982,36.493,27.508,32.019,21.988,32.019z"/>
	</g>
</g>
<g>
</g>
<g>
</g>
<g>
</g>
<g>
</g>
<g>
</g>
<g>
</g>
<g>
</g>
<g>
</g>
<g>
</g>
<g>
</g>
<g>
</g>
<g>
</g>
<g>
</g>
<g>
</g>
<g>
</g>
</svg>
