<?xml version="1.0" encoding="iso-8859-1"?>
<!-- Generator: Adobe Illustrator 16.0.0, SVG Export Plug-In . SVG Version: 6.00 Build 0)  -->
<!DOCTYPE svg PUBLIC "-//W3C//DTD SVG 1.1//EN" "http://www.w3.org/Graphics/SVG/1.1/DTD/svg11.dtd">
<svg version="1.1" id="Layer_1" xmlns="http://www.w3.org/2000/svg" xmlns:xlink="http://www.w3.org/1999/xlink" x="0px" y="0px"
	 width="64px" height="48px" viewBox="0 0 64 48" style="enable-background:new 0 0 64 48;" xml:space="preserve">
<g id="Heartbreak">
	<g>
		<path style="fill-rule:evenodd;clip-rule:evenodd;fill:#ED7161;" d="M64,14.572C64,6.525,57.34,0,49.125,0
			c-5.549,0-10.357,2.988-12.904,7.4l1.193,1.197C37.777,8.959,38,9.461,38,10.014c0,0.551-0.223,1.055-0.586,1.416l-4.586,4.59
			l4.586,4.592C37.777,20.973,38,21.475,38,22.027c0,0.551-0.223,1.053-0.586,1.416l-4.586,4.59l4.586,4.592
			C37.777,32.986,38,33.486,38,34.041c0,0.553-0.223,1.053-0.586,1.414l-4.586,4.592l4.586,4.592C37.777,45,38,45.5,38,46.055
			c0,0.553-0.238,1.039-0.605,1.395l0.02,0.02l-0.244,0.246c0.473-0.162,0.928-0.387,1.305-0.773
			c1.367-1.414,20.275-21.227,20.275-21.227l-0.094-0.043C61.896,22.998,64,19.047,64,14.572z M26,40.047
			c0-0.553,0.225-1.053,0.586-1.416l4.586-4.59l-4.586-4.592C26.225,29.088,26,28.588,26,28.033c0-0.553,0.225-1.053,0.586-1.414
			l4.586-4.592l-4.586-4.592C26.225,17.074,26,16.572,26,16.02s0.225-1.053,0.586-1.414l4.586-4.592l-2.783-2.787
			C28.264,7.439,28.115,7.637,28,7.852C25.514,3.205,20.602,0,14.875,0C6.66,0,0,6.525,0,14.572c0,4.475,2.104,8.426,5.342,11.1
			L5.25,25.715c0,0,18.908,19.813,20.275,21.227c1.367,1.412,3.582,1.412,4.949,0c0.119-0.125,0.412-0.43,0.775-0.809l-4.664-4.67
			C26.225,41.1,26,40.6,26,40.047z"/>
	</g>
</g>
<g>
</g>
<g>
</g>
<g>
</g>
<g>
</g>
<g>
</g>
<g>
</g>
<g>
</g>
<g>
</g>
<g>
</g>
<g>
</g>
<g>
</g>
<g>
</g>
<g>
</g>
<g>
</g>
<g>
</g>
</svg>
