<?xml version="1.0" encoding="iso-8859-1"?>
<!-- Generator: Adobe Illustrator 16.0.0, SVG Export Plug-In . SVG Version: 6.00 Build 0)  -->
<!DOCTYPE svg PUBLIC "-//W3C//DTD SVG 1.1//EN" "http://www.w3.org/Graphics/SVG/1.1/DTD/svg11.dtd">
<svg version="1.1" id="Layer_1" xmlns="http://www.w3.org/2000/svg" xmlns:xlink="http://www.w3.org/1999/xlink" x="0px" y="0px"
	 width="64px" height="64px" viewBox="0 0 64 64" style="enable-background:new 0 0 64 64;" xml:space="preserve">
<g id="Key_2_">
	<g>
		<path style="fill-rule:evenodd;clip-rule:evenodd;fill:#FFCC66;" d="M50.007,14.008C50.007,8.004,46.01,0,36.015,0
			c-7.996,0-13.993,6.004-13.993,14.008c0,8.336,0.707,15.941,1.28,20.752L0.612,57.473c-0.816,0.816-0.816,2.141,0,2.957
			l2.953,2.955c0.816,0.818,2.139,0.818,2.953,0l2.131-2.133l2.111,2.113c0.847,0.846,2.22,0.846,3.066,0l1.533-1.535
			c0.847-0.848,0.847-2.221,0-3.07l-2.11-2.111l15.908-15.924c4.797,0.576,12.452,1.295,20.849,1.295
			C58.003,42.02,64,36.018,64,28.014C64,18.01,56.004,14.008,50.007,14.008z M50.007,34.016c-11.993,0-17.99-2-17.99-2
			s-1.999-6.002-1.999-18.008c0-4.002,3.998-6.004,5.997-6.004s5.997,2.002,5.997,6.004c0,2,0,8.004,0,8.004s5.997,0,7.995,0
			c3.998,0,5.997,4.002,5.997,6.002C56.004,30.016,54.005,34.016,50.007,34.016z"/>
	</g>
</g>
<g id="Ring_35_">
	<g>
		<path style="fill:#CCA352;" d="M29.459,38.799l-4.218-4.223c-0.735-0.738-1.927-0.738-2.661,0c-0.735,0.734-0.735,1.926,0,2.662
			l4.219,4.223c0.734,0.734,1.926,0.734,2.66,0C30.194,40.727,30.194,39.535,29.459,38.799z"/>
	</g>
</g>
<g>
</g>
<g>
</g>
<g>
</g>
<g>
</g>
<g>
</g>
<g>
</g>
<g>
</g>
<g>
</g>
<g>
</g>
<g>
</g>
<g>
</g>
<g>
</g>
<g>
</g>
<g>
</g>
<g>
</g>
</svg>
