<?xml version="1.0" encoding="iso-8859-1"?>
<!-- Generator: Adobe Illustrator 16.0.0, SVG Export Plug-In . SVG Version: 6.00 Build 0)  -->
<!DOCTYPE svg PUBLIC "-//W3C//DTD SVG 1.1//EN" "http://www.w3.org/Graphics/SVG/1.1/DTD/svg11.dtd">
<svg version="1.1" id="Layer_1" xmlns="http://www.w3.org/2000/svg" xmlns:xlink="http://www.w3.org/1999/xlink" x="0px" y="0px"
	 width="64px" height="56px" viewBox="0 0 64 56" style="enable-background:new 0 0 64 56;" xml:space="preserve">
<g id="Cup_10_">
	<g>
		<path style="fill-rule:evenodd;clip-rule:evenodd;fill:#E6B85C;" d="M38,32h8c0-4,6-8,6-8H32C32,24,38,28,38,32z M46,36h-8
			c0,4-6,8-6,8h20C52,44,46,40,46,36z"/>
	</g>
</g>
<g id="Cup_8_">
	<g>
		<path style="fill-rule:evenodd;clip-rule:evenodd;fill:#FFCC66;" d="M54,44H30c-1.105,0-2,0.895-2,2c0,1.104,0.895,2,2,2h24
			c1.104,0,2-0.896,2-2C56,44.895,55.104,44,54,44z M32,24h20c0,0,12-6,12-24H20C20,18,32,24,32,24z M38,32c-1.105,0-2,0.895-2,2
			c0,1.104,0.895,2,2,2h8c1.104,0,2-0.896,2-2c0-1.105-0.896-2-2-2H38z"/>
	</g>
</g>
<g id="Stones_4_">
	<g>
		<path style="fill-rule:evenodd;clip-rule:evenodd;fill:#ED7161;" d="M42,4c-1.105,0-2,0.895-2,2c0,1.104,0.895,2,2,2
			c1.104,0,2-0.896,2-2C44,4.895,43.104,4,42,4z M50,4c-1.105,0-2,0.895-2,2c0,1.104,0.895,2,2,2s2-0.896,2-2
			C52,4.895,51.105,4,50,4z M58,4c-1.105,0-2,0.895-2,2c0,1.104,0.895,2,2,2c1.104,0,2-0.896,2-2C60,4.895,59.104,4,58,4z M34,4
			c-1.105,0-2,0.895-2,2c0,1.104,0.895,2,2,2c1.104,0,2-0.896,2-2C36,4.895,35.104,4,34,4z M26,4c-1.105,0-2,0.895-2,2
			c0,1.104,0.895,2,2,2s2-0.896,2-2C28,4.895,27.105,4,26,4z"/>
	</g>
</g>
<g id="Bread_2_">
	<g>
		<path style="fill-rule:evenodd;clip-rule:evenodd;fill:#D9A16A;" d="M40,38c-1.279,0-2.512,0.205-3.668,0.576
			C33.771,35.771,30.098,34,26,34c-2.15,0-4.18,0.5-6,1.365C18.18,34.5,16.15,34,14,34C6.268,34,0,40.268,0,48c0,4.418,3.582,8,8,8
			h38c3.313,0,6-2.688,6-6C52,43.371,46.627,38,40,38z"/>
	</g>
</g>
<g id="Lines_20_">
	<g>
		<path style="fill-rule:evenodd;clip-rule:evenodd;fill:#FFBE7D;" d="M16.715,36.568l-4.146,4.146c-0.748,0.75-0.748,1.965,0,2.715
			c0.75,0.75,1.967,0.75,2.717,0l4.145-4.145c0.75-0.75,0.75-1.967,0-2.717C18.68,35.82,17.465,35.82,16.715,36.568z M35.43,38.568
			c-0.75-0.75-1.965-0.75-2.715,0l-4.145,4.146c-0.75,0.75-0.75,1.965,0,2.715c0.748,0.75,1.965,0.75,2.715,0l4.145-4.146
			C36.18,40.535,36.18,39.318,35.43,38.568z"/>
	</g>
</g>
<g>
</g>
<g>
</g>
<g>
</g>
<g>
</g>
<g>
</g>
<g>
</g>
<g>
</g>
<g>
</g>
<g>
</g>
<g>
</g>
<g>
</g>
<g>
</g>
<g>
</g>
<g>
</g>
<g>
</g>
</svg>
