<?xml version="1.0" encoding="iso-8859-1"?>
<!-- Generator: Adobe Illustrator 16.0.0, SVG Export Plug-In . SVG Version: 6.00 Build 0)  -->
<!DOCTYPE svg PUBLIC "-//W3C//DTD SVG 1.1//EN" "http://www.w3.org/Graphics/SVG/1.1/DTD/svg11.dtd">
<svg version="1.1" id="Layer_1" xmlns="http://www.w3.org/2000/svg" xmlns:xlink="http://www.w3.org/1999/xlink" x="0px" y="0px"
	 width="64px" height="48px" viewBox="0 0 64 48" style="enable-background:new 0 0 64 48;" xml:space="preserve">
<g id="Horn">
	<g>
		<path style="fill:#88C057;" d="M62,40c0-1.105-0.896-2-2-2s-2,0.895-2,2l-16-2l-6,10l22-2c0,1.104,0.896,2,2,2s2-0.896,2-2
			c1.656,0,2-1.344,2-3C64,41.342,63.656,40,62,40z"/>
	</g>
</g>
<g id="Paper">
	<g>
		<path style="fill-rule:evenodd;clip-rule:evenodd;fill:#48A0DC;" d="M4,24C4,12.953,12.954,4,24,4c8.836,0,16,7.162,16,16
			c0,8.836-7.164,16-16,16c-6.628,0-12-5.373-12-12c0-6.629,5.372-12,12-12c4.418,0,8,3.582,8,8s-3.582,8-8,8c-2.209,0-4-1.791-4-4
			c0-2.211,1.791-4,4-4c1.104,0,2-0.896,2-2c0-1.105-0.896-2-2-2c-4.418,0-8,3.582-8,8s3.582,8,8,8c6.627,0,12-5.373,12-12
			c0-6.629-5.373-12-12-12C15.163,8,8,15.164,8,24s7.163,16,16,16c11.046,0,20-8.955,20-20C44,8.953,35.046,0,24,0
			C10.745,0,0,10.744,0,24c0,13.254,10.745,24,24,24c8,0,8,0,12,0l6-10c-4,0-10,6-18,6C12.954,44,4,35.045,4,24z"/>
	</g>
</g>
<g>
</g>
<g>
</g>
<g>
</g>
<g>
</g>
<g>
</g>
<g>
</g>
<g>
</g>
<g>
</g>
<g>
</g>
<g>
</g>
<g>
</g>
<g>
</g>
<g>
</g>
<g>
</g>
<g>
</g>
</svg>
