<?xml version="1.0" encoding="iso-8859-1"?>
<!-- Generator: Adobe Illustrator 16.0.0, SVG Export Plug-In . SVG Version: 6.00 Build 0)  -->
<!DOCTYPE svg PUBLIC "-//W3C//DTD SVG 1.1//EN" "http://www.w3.org/Graphics/SVG/1.1/DTD/svg11.dtd">
<svg version="1.1" id="Layer_1" xmlns="http://www.w3.org/2000/svg" xmlns:xlink="http://www.w3.org/1999/xlink" x="0px" y="0px"
	 width="64px" height="64px" viewBox="0 0 64 64" style="enable-background:new 0 0 64 64;" xml:space="preserve">
<g id="Brim_2_">
	<g>
		<path style="fill:#638C3F;" d="M60,41.998c-2,0-4,2.002-10,2.002H14c-6,0-8-2.002-10-2.002C1.998,41.998,0,44,0,46
			c0,4.018,11.977,18,32,18c20.021,0,32-14.002,32-18C64,44,62,41.998,60,41.998z"/>
	</g>
</g>
<g id="Crown_3_">
	<g>
		<path style="fill-rule:evenodd;clip-rule:evenodd;fill:#88C057;" d="M32,0C20.953,0,10,1.789,10,4c0,0,4,16,4,28c0,0,0,14,0,16
			s12,4,18,4s18-2,18-4s0-16,0-16c0-12,4-28,4-28C54,1.789,43.045,0,32,0z"/>
	</g>
</g>
<g id="Band_2_">
	<g>
		<path style="fill:#333333;" d="M32,46c-6,0-18-2-18-4v6c0,2,12,4,18,4s18-2,18-4v-6C50,44,38,46,32,46z"/>
	</g>
</g>
<g id="Buckle_1_">
	<g>
		<path style="fill-rule:evenodd;clip-rule:evenodd;fill:#FFCC66;" d="M36,42h-8c-1.105,0-2,0.895-2,2v8c0,1.104,0.895,2,2,2h8
			c1.104,0,2-0.896,2-2v-8C38,42.895,37.104,42,36,42z M34,50h-4v-4h4V50z"/>
	</g>
</g>
<g>
</g>
<g>
</g>
<g>
</g>
<g>
</g>
<g>
</g>
<g>
</g>
<g>
</g>
<g>
</g>
<g>
</g>
<g>
</g>
<g>
</g>
<g>
</g>
<g>
</g>
<g>
</g>
<g>
</g>
</svg>
