<?xml version="1.0" encoding="iso-8859-1"?>
<!-- Generator: Adobe Illustrator 16.0.0, SVG Export Plug-In . SVG Version: 6.00 Build 0)  -->
<!DOCTYPE svg PUBLIC "-//W3C//DTD SVG 1.1//EN" "http://www.w3.org/Graphics/SVG/1.1/DTD/svg11.dtd">
<svg version="1.1" id="Layer_1" xmlns="http://www.w3.org/2000/svg" xmlns:xlink="http://www.w3.org/1999/xlink" x="0px" y="0px"
	 width="60px" height="64px" viewBox="0 0 60 64" style="enable-background:new 0 0 60 64;" xml:space="preserve">
<g id="Orange">
	<g>
		<path style="fill-rule:evenodd;clip-rule:evenodd;fill:#FF8833;" d="M42,13.285v36.012C50.041,48.721,60,48,60,48V12L42,13.285z"
			/>
	</g>
</g>
<g id="White">
	<g>
		<path style="fill-rule:evenodd;clip-rule:evenodd;fill:#CCCCCC;" d="M42,13.285L32,14c-2.209,0-4,0.895-4,2v32
			c0,1.105,1.791,2,4,2c0.15,0,4.652-0.32,10-0.703V13.285z"/>
	</g>
</g>
<g id="Back_1_">
	<g>
		<path style="fill:#B3B3B3;" d="M28,36v8v4c0-1.105,1.791-2,4-2s4-0.895,4-2v-8H28z"/>
	</g>
</g>
<g id="White_1_">
	<g>
		<path style="fill-rule:evenodd;clip-rule:evenodd;fill:#E6E6E6;" d="M32,6c-0.15,0-1.758,0.154-4,0.377v36
			C30.242,42.154,31.85,42,32,42c2.209,0,4,0.895,4,2V8C36,6.895,34.209,6,32,6z"/>
	</g>
</g>
<g id="Green">
	<g>
		<path style="fill-rule:evenodd;clip-rule:evenodd;fill:#88C057;" d="M28,6.377C22.158,6.955,12,8,12,8v36
			c0,0,10.158-1.045,16-1.623V6.377z"/>
	</g>
</g>
<g id="Pole">
	<g>
		<path style="fill-rule:evenodd;clip-rule:evenodd;fill:#CCCCCC;" d="M18,60h-6V7.445C13.191,6.752,14,5.477,14,4
			c0-2.209-1.791-4-4-4S6,1.791,6,4c0,1.477,0.809,2.752,2,3.445V60H2c-1.105,0-2,0.895-2,2s0.895,2,2,2h16c1.105,0,2-0.895,2-2
			S19.105,60,18,60z"/>
	</g>
</g>
<g>
</g>
<g>
</g>
<g>
</g>
<g>
</g>
<g>
</g>
<g>
</g>
<g>
</g>
<g>
</g>
<g>
</g>
<g>
</g>
<g>
</g>
<g>
</g>
<g>
</g>
<g>
</g>
<g>
</g>
</svg>
