<?xml version="1.0" encoding="iso-8859-1"?>
<!-- Generator: Adobe Illustrator 16.0.0, SVG Export Plug-In . SVG Version: 6.00 Build 0)  -->
<!DOCTYPE svg PUBLIC "-//W3C//DTD SVG 1.1//EN" "http://www.w3.org/Graphics/SVG/1.1/DTD/svg11.dtd">
<svg version="1.1" id="Layer_1" xmlns="http://www.w3.org/2000/svg" xmlns:xlink="http://www.w3.org/1999/xlink" x="0px" y="0px"
	 width="48px" height="64px" viewBox="0 0 48 64" style="enable-background:new 0 0 48 64;" xml:space="preserve">
<g id="Ribbon_36_">
	<g>
		<path style="fill-rule:evenodd;clip-rule:evenodd;fill:#638C3F;" d="M0,56h10l6,8l6-18l-12-6L0,56z M38,40l-12,6l6,18l6-8h10
			L38,40z"/>
	</g>
</g>
<g id="Flower_6_">
	<g>
		<path style="fill-rule:evenodd;clip-rule:evenodd;fill:#FF8833;" d="M48,24c0-2.445-1.469-4.541-3.566-5.475
			c1.35-1.859,1.574-4.408,0.352-6.525c-1.225-2.119-3.543-3.199-5.826-2.959c0.24-2.285-0.842-4.604-2.959-5.826
			s-4.666-0.998-6.525,0.352C28.539,1.467,26.445,0,24,0s-4.541,1.467-5.475,3.566C16.666,2.217,14.117,1.992,12,3.215
			S8.801,6.756,9.041,9.041C6.756,8.801,4.438,9.881,3.215,12c-1.223,2.117-0.998,4.666,0.352,6.525C1.467,19.459,0,21.555,0,24
			s1.467,4.539,3.566,5.475C2.217,31.334,1.992,33.881,3.215,36c1.223,2.117,3.541,3.197,5.826,2.957
			c-0.24,2.285,0.842,4.604,2.959,5.826c2.117,1.225,4.666,1,6.525-0.35C19.459,46.531,21.555,48,24,48s4.541-1.469,5.475-3.566
			c1.859,1.35,4.408,1.574,6.525,0.35c2.117-1.223,3.199-3.541,2.959-5.826c2.283,0.24,4.602-0.84,5.826-2.957
			c1.223-2.119,0.998-4.666-0.352-6.525C46.531,28.539,48,26.445,48,24z"/>
	</g>
</g>
<g id="Container_12_">
	<g>
		<circle style="fill:#FFFFFF;" cx="24" cy="24" r="16"/>
	</g>
</g>
<g id="Center_12_">
	<g>
		<circle style="fill:#88C057;" cx="24" cy="24" r="12"/>
	</g>
</g>
<g>
</g>
<g>
</g>
<g>
</g>
<g>
</g>
<g>
</g>
<g>
</g>
<g>
</g>
<g>
</g>
<g>
</g>
<g>
</g>
<g>
</g>
<g>
</g>
<g>
</g>
<g>
</g>
<g>
</g>
</svg>
