<?xml version="1.0" encoding="iso-8859-1"?>
<!-- Generator: Adobe Illustrator 16.0.0, SVG Export Plug-In . SVG Version: 6.00 Build 0)  -->
<!DOCTYPE svg PUBLIC "-//W3C//DTD SVG 1.1//EN" "http://www.w3.org/Graphics/SVG/1.1/DTD/svg11.dtd">
<svg version="1.1" id="Layer_1" xmlns="http://www.w3.org/2000/svg" xmlns:xlink="http://www.w3.org/1999/xlink" x="0px" y="0px"
	 width="60px" height="64px" viewBox="0 0 60 64" style="enable-background:new 0 0 60 64;" xml:space="preserve">
<g id="Egg_16_">
	<g>
		<path style="fill-rule:evenodd;clip-rule:evenodd;fill:#A67C52;" d="M20,36l24-12h7.936C48.201,11.086,39.788,0,30,0
			C17.242,0,6.814,18.828,6.05,36H20z"/>
	</g>
</g>
<g id="Interior_32_">
	<g>
		<path style="fill:#FFE6B2;" d="M30,4c-6.845,0-16,12.404-16,16c0,1.264,0.462,2,2,2c1.938,0,1.688-2,4-2c1.188,0,3,4,4,4
			s2.813-4,4-4c1.625,0,2-4.813,2-6s4-2.625,4-4s2-0.688,2-2S32.563,4,30,4z"/>
	</g>
</g>
<g id="Packaging_10_">
	<g>
		<path style="fill-rule:evenodd;clip-rule:evenodd;fill:#E6E6E6;" d="M44,24L20,36H6.05C6.02,36.67,6,37.336,6,38
			c0,17.672,10.745,26,24,26s24-8.328,24-26c0-4.623-0.741-9.426-2.064-14H44z"/>
	</g>
</g>
<g id="Decoration_54_">
	<g>
		<path style="fill:#ED7161;" d="M46,50c-4,0-3.09-4-8-4c-4.911,0-4,4-8,4s-3.09-4-8-4c-4.911,0-4,4-8,4
			c-3.719,0-3.252-3.418-7.105-3.904C9.704,58.213,18.972,64,30,64s20.296-5.787,23.105-17.904C49.252,46.582,49.719,50,46,50z"/>
	</g>
</g>
<g id="Foil_16_">
	<g>
		<path style="fill:#B3B3B3;" d="M52,20c-2.451,0-5.747,0-8,0s-11.946,8-14,8s-6.741,2-8,2s-3.416,4-6,4s-7.88-2-10-2
			c-3.112,0-6,5.746-6,8c0,1.523,0.84,2,2,2c1.06,0,2.939-4,4-4c1.126,0,2.675,2,4,2s2.012-2,4-2c1.987,0,3.35,6,6,6s5.813-8,8-8
			s6.211,4,8,4s1.88-12,4-12s5.15,2,8,2s3.35-2,6-2c1.735,0,2.209-2,4-2c1.739,0,2-1.43,2-2C60,22.344,54.451,20,52,20z"/>
	</g>
</g>
<g id="Foil_14_">
	<g>
		<path style="fill:#CCCCCC;" d="M48,22c-2.585,0-8.26,0.26-10,2c-1.193,1.191-4.404,0.404-6,2c-1.5,1.5-2.813,2-4,2
			c-4.438,0-5.25,4-8,4c-2.119,0-1.803-2-4-2c-2.786,0-3.099,2-6,2c-1.938,0-4,0.188-4,2c0,0.688,2.563,2,4,2c2.188,0,2.5-2,4-2
			s4.375,4,6,4s2.813-4,4-4c4.438,0,3.5-2,6-2c2.563,0,0.875,4,4,4c2.813,0,0.688-8,4-8c1.313,0,1.563-2,8-2c2.063,0,8-0.625,8-2
			C54,22.826,50.241,22,48,22z"/>
	</g>
</g>
<g>
</g>
<g>
</g>
<g>
</g>
<g>
</g>
<g>
</g>
<g>
</g>
<g>
</g>
<g>
</g>
<g>
</g>
<g>
</g>
<g>
</g>
<g>
</g>
<g>
</g>
<g>
</g>
<g>
</g>
</svg>
