<?xml version="1.0" encoding="iso-8859-1"?>
<!-- Generator: Adobe Illustrator 16.0.0, SVG Export Plug-In . SVG Version: 6.00 Build 0)  -->
<!DOCTYPE svg PUBLIC "-//W3C//DTD SVG 1.1//EN" "http://www.w3.org/Graphics/SVG/1.1/DTD/svg11.dtd">
<svg version="1.1" id="Layer_1" xmlns="http://www.w3.org/2000/svg" xmlns:xlink="http://www.w3.org/1999/xlink" x="0px" y="0px"
	 width="64px" height="52px" viewBox="0 0 64 52" style="enable-background:new 0 0 64 52;" xml:space="preserve">
<g id="Leaf_14_">
	<g>
		<path style="fill:#75A64B;" d="M44,22c0.286-1.211,2-3.582,2-6c0-1.123-3.499-1.02-4-2c-0.389-0.762,2-3.977,2-6
			c0-1.158-3.45-0.924-4-2c-0.583-1.141-0.219-6-2-6c-2.644,0-4.991,3.34-6,4c-0.953,0.621-2.838,0-4,0c-1.213,0-1.327,5.561-2,6
			c-0.868,0.566-6-1.123-6,0c0,2.418,2.286,4.789,2,6c-0.262,1.102-2,0.76-2,2c0,0.955,2.3,2.734,2,4c-0.391,1.648-2.39,3.236-2,4
			c0.474,0.928,5.499,3.02,6,4c0.613,1.201,1.242,5.77,2,6c0.758,0.229,3.596-3.42,4.658-4.113C33.526,31.32,37.179,32.535,38,32
			c0.675-0.441,1.609-2.352,2-4c0.3-1.266,3.779-1.07,4-2C44.22,25.072,43.738,23.102,44,22z"/>
	</g>
</g>
<g id="Leafs_2_">
	<g>
		<path style="fill-rule:evenodd;clip-rule:evenodd;fill:#88C057;" d="M26,32c-0.882-0.51-1.165-3.52-2-4
			c-0.687-0.396-2.517-0.398-4,0c-1.138,0.305-2.163-2-4-2c-0.863,0-1.009,1.734-2,2c-1.088,0.291-3.324-2-6-2
			c-1.017,0,0.51,3.117,0,4c-0.396,0.684-3.157,1.156-4,2c-1.536,1.535,0,4.344,0,6c0,1.184-4,4.266-4,6c0,1.795,4.974,1.406,6,2
			c0.969,0.559,1.072,3.465,2,4c1.032,0.596,4.195-1.031,4.88-0.637C13.763,49.873,14.983,52,16,52c2.176,0,2.912-3.709,4-4
			c0.99-0.266,1.166,2.223,2,2c0.837-0.225,0.862-3.695,2-4c1.483-0.398,3.604-1.314,4-2c0.481-0.836-0.51-5.119,0-6
			c0.623-1.08,4.206-3.23,4-4C31.793,33.229,27.08,32.623,26,32z M60,32c0-1.656,1.535-4.465,0-6c-0.844-0.844-3.604-1.316-4-2
			c-0.51-0.883,1.017-4,0-4c-2.676,0-4.912,2.291-6,2c-0.991-0.266-1.137-2-2-2c-1.837,0-2.863,2.305-4,2
			c-1.483-0.398-3.313-0.396-4,0c-0.835,0.48-1.118,3.49-2,4c-1.08,0.623-5.794,1.229-6,2c-0.207,0.77,3.376,2.918,4,4
			c0.509,0.881-0.482,5.164,0,6c0.396,0.686,2.517,1.602,4,2c1.137,0.305,1.163,3.775,2,4c0.833,0.223,1.009-2.266,2-2
			c1.088,0.291,1.824,4,4,4c1.017,0,2.237-2.127,3.12-2.637C51.805,42.967,54.967,44.596,56,44c0.928-0.535,1.031-3.441,2-4
			c1.026-0.594,6-0.205,6-2C64,36.266,60,33.184,60,32z"/>
	</g>
</g>
<g id="Fruit_2_">
	<g>
		<circle style="fill:#BA594C;" cx="31" cy="29" r="7"/>
	</g>
</g>
<g id="Fruits_2_">
	<g>
		<path style="fill-rule:evenodd;clip-rule:evenodd;fill:#ED7161;" d="M35,32c-3.866,0-7,3.133-7,7c0,3.865,3.134,7,7,7s7-3.135,7-7
			C42,35.133,38.866,32,35,32z M21,28c-3.866,0-7,3.133-7,7c0,3.865,3.134,7,7,7s7-3.135,7-7C28,31.133,24.866,28,21,28z"/>
	</g>
</g>
<g>
</g>
<g>
</g>
<g>
</g>
<g>
</g>
<g>
</g>
<g>
</g>
<g>
</g>
<g>
</g>
<g>
</g>
<g>
</g>
<g>
</g>
<g>
</g>
<g>
</g>
<g>
</g>
<g>
</g>
</svg>
