<?xml version="1.0" encoding="iso-8859-1"?>
<!-- Generator: Adobe Illustrator 16.0.0, SVG Export Plug-In . SVG Version: 6.00 Build 0)  -->
<!DOCTYPE svg PUBLIC "-//W3C//DTD SVG 1.1//EN" "http://www.w3.org/Graphics/SVG/1.1/DTD/svg11.dtd">
<svg version="1.1" id="Layer_1" xmlns="http://www.w3.org/2000/svg" xmlns:xlink="http://www.w3.org/1999/xlink" x="0px" y="0px"
	 width="64px" height="64px" viewBox="0 0 64 64" style="enable-background:new 0 0 64 64;" xml:space="preserve">
<g id="Body_15_">
	<g>
		<path style="fill:#E6E6E6;" d="M60,47.998c-1.881-1.879-18-10-18-10L38,32c1.289-1.328,3.215-4.434,4-6c2-4.002,4-8,4-14
			c0-8.002-6.268-12-14-12S18,3.998,18,12c0,6,2,9.998,4,14c0.783,1.566,2.711,4.672,4,6l-4,5.998c0,0-16.121,8.121-18,10
			C0.24,51.76,0,64,0,64h64C64,64,63.76,51.76,60,47.998z"/>
	</g>
</g>
<g id="Bandages">
	<g>
		<path style="fill-rule:evenodd;clip-rule:evenodd;fill:#999999;" d="M34,34l2-4H24.424c0.553,0.795,1.107,1.516,1.576,2l-1.334,2
			H34z M28,18l-4-4l-5.676,2c0.334,2.035,0.902,3.838,1.586,5.521L28,18z M42,14l-10-4l-4,2l10,4L42,14z M44.115,39.076
			C42.838,38.422,42,37.998,42,37.998l-2.461-2.461L26,44l4,2L44.115,39.076z M43.852,5.074L38,8l8,4
			C46,9.188,45.191,6.898,43.852,5.074z M43.885,22H32l-4,2l14.117,1.764C42.73,24.535,43.336,23.295,43.885,22z M2,52
			c-0.51,1.391-0.891,2.451-1.176,4H16l-8-6L2,52z M36,48l14,6l4-2l-14-6L36,48z M62,54l-6,2l7.717,3.857
			C63.545,58.184,62.445,55.906,62,54z M36,58l4,2l10-2l-8-2L36,58z M22,46l-6,6h6l4-4L22,46z M26,54l4,4l4-4l-2-4L26,54z M24,40h-4
			c-1.139,0.58-2.172,1.043-4,2l4,2L24,40z"/>
	</g>
</g>
<g>
</g>
<g>
</g>
<g>
</g>
<g>
</g>
<g>
</g>
<g>
</g>
<g>
</g>
<g>
</g>
<g>
</g>
<g>
</g>
<g>
</g>
<g>
</g>
<g>
</g>
<g>
</g>
<g>
</g>
</svg>
