<?xml version="1.0" encoding="iso-8859-1"?>
<!-- Generator: Adobe Illustrator 16.0.0, SVG Export Plug-In . SVG Version: 6.00 Build 0)  -->
<!DOCTYPE svg PUBLIC "-//W3C//DTD SVG 1.1//EN" "http://www.w3.org/Graphics/SVG/1.1/DTD/svg11.dtd">
<svg version="1.1" id="Layer_1" xmlns="http://www.w3.org/2000/svg" xmlns:xlink="http://www.w3.org/1999/xlink" x="0px" y="0px"
	 width="64px" height="64px" viewBox="0 0 64 64" style="enable-background:new 0 0 64 64;" xml:space="preserve">
<g id="Hair_38_">
	<g>
		<polygon style="fill:#8C6845;" points="32,2 16,20 16,44 48,44 48,20 		"/>
	</g>
</g>
<g id="Shirt_26_">
	<g>
		<path style="fill:#E68845;" d="M60,47.998C58.119,46.119,42,38,42,38H22c0,0-16.121,8.119-18,9.998c-3.76,3.762-4,16-4,16h64
			C64,63.998,63.76,51.76,60,47.998z"/>
	</g>
</g>
<g id="Decoration_66_">
	<g>
		<rect x="26" y="42" style="fill:#88C057;" width="12" height="22"/>
	</g>
</g>
<g id="Decoration_64_">
	<g>
		<rect x="30" y="42" style="fill:#FFCC66;" width="4" height="22"/>
	</g>
</g>
<g id="Necklace_10_">
	<g>
		<path style="fill:#48A0DC;" d="M42,36H22c-2.063,0-4,2.563-4,4s2,8,14,8s14-6,14-8S44,36,42,36z"/>
	</g>
</g>
<g id="Neck_30_">
	<g>
		<path style="fill:#DBB59A;" d="M38,30H26c0,4-4,8-4,10s4,4,10,4s10-2,10-4S38,34,38,30z"/>
	</g>
</g>
<g id="Head_86_">
	<g>
		<path style="fill:#F6CBAD;" d="M32,2c-7.732,0-14,4-14,12c0,6,2,10,4,14c2,3.998,6.082,8,10,8s8-4.002,10-8c2-4,4-8,4-14
			C46,6,39.732,2,32,2z"/>
	</g>
</g>
<g id="Feather_9_">
	<g>
		<path style="fill:#88C057;" d="M18,0c-2,0-2,0-2,2s6,14,8,14s2,0,2-2S20,0,18,0z"/>
	</g>
</g>
<g id="Hair_36_">
	<g>
		<path style="fill:#8C6845;" d="M32,0C21.072,0,16,8,16,12v8c6,0,16-14,16-14s10,14,16,14v-8C48,8,42.891,0,32,0z"/>
	</g>
</g>
<g id="Band_38_">
	<g>
		<rect x="16" y="12" style="fill:#ED7161;" width="32" height="4"/>
	</g>
</g>
<g>
</g>
<g>
</g>
<g>
</g>
<g>
</g>
<g>
</g>
<g>
</g>
<g>
</g>
<g>
</g>
<g>
</g>
<g>
</g>
<g>
</g>
<g>
</g>
<g>
</g>
<g>
</g>
<g>
</g>
</svg>
