<?xml version="1.0" encoding="iso-8859-1"?>
<!-- Generator: Adobe Illustrator 16.0.0, SVG Export Plug-In . SVG Version: 6.00 Build 0)  -->
<!DOCTYPE svg PUBLIC "-//W3C//DTD SVG 1.1//EN" "http://www.w3.org/Graphics/SVG/1.1/DTD/svg11.dtd">
<svg version="1.1" id="Layer_1" xmlns="http://www.w3.org/2000/svg" xmlns:xlink="http://www.w3.org/1999/xlink" x="0px" y="0px"
	 width="64px" height="64px" viewBox="0 0 64 64" style="enable-background:new 0 0 64 64;" xml:space="preserve">
<g id="Fire_16_">
	<g>
		<path style="fill:#FFCC66;" d="M28,0c0,10.063-6,8.248-6,14c0,3.313,2.687,6,6,6s6-2.688,6-6C34,10.686,33.501,5.5,28,0z"/>
	</g>
</g>
<g id="Wick_12_">
	<g>
		<path style="fill:#666666;" d="M28,16c-1.104,0-2,0.895-2,2v8c0,1.104,0.896,2,2,2s2-0.896,2-2v-8C30,16.895,29.104,16,28,16z"/>
	</g>
</g>
<g id="Candle_13_">
	<g>
		<rect x="14" y="26" style="fill:#CCCCCC;" width="28" height="30"/>
	</g>
</g>
<g id="Wax_8_">
	<g>
		<path style="fill-rule:evenodd;clip-rule:evenodd;fill:#B3B3B3;" d="M40,24c-2.443,0-3.443,2-6,2c-3.078,0-9.437-2-14-2
			c-3.414,0-4.273,2-6,2c-1.137,0-2,1.238-2,4c0,2.76,0.738,6,2,6c2.292,0,2.346-6,12-6c1.191,0,2.317,0.293,3.394,0.753
			C28.805,33.464,28,37.299,28,38c0,1.104,0.896,2,2,2s2-0.896,2-2c0-0.645-0.68-3.933-1.246-6.566C35.48,34.194,39.078,40,42,40
			c1.637,0,2-7.24,2-10C44,27.238,42.762,24,40,24z M14,48c1.104,0,2-0.896,2-2c0-1.105-2-10-2-10s-2,8.895-2,10
			C12,47.104,12.896,48,14,48z"/>
	</g>
</g>
<g id="Plate_10_">
	<g>
		<path style="fill-rule:evenodd;clip-rule:evenodd;fill:#666666;" d="M56,46c-4.419,0-8,3.582-8,8c0,0-9.599,2-22,2
			c-11.569,0-22-2-22-2c-1.104,0-4,0.895-4,2c0,1.104,10.896,8,12,8h30c0.813,0,4.749-4.318,6.779-6.608
			C50.059,60.107,52.799,62,56,62c4.418,0,8-3.582,8-8S60.418,46,56,46z M56,58c-2.209,0-4-1.791-4-4s1.791-4,4-4s4,1.791,4,4
			S58.209,58,56,58z"/>
	</g>
</g>
<g>
</g>
<g>
</g>
<g>
</g>
<g>
</g>
<g>
</g>
<g>
</g>
<g>
</g>
<g>
</g>
<g>
</g>
<g>
</g>
<g>
</g>
<g>
</g>
<g>
</g>
<g>
</g>
<g>
</g>
</svg>
