<?xml version="1.0" encoding="iso-8859-1"?>
<!-- Generator: Adobe Illustrator 16.0.0, SVG Export Plug-In . SVG Version: 6.00 Build 0)  -->
<!DOCTYPE svg PUBLIC "-//W3C//DTD SVG 1.1//EN" "http://www.w3.org/Graphics/SVG/1.1/DTD/svg11.dtd">
<svg version="1.1" id="Layer_1" xmlns="http://www.w3.org/2000/svg" xmlns:xlink="http://www.w3.org/1999/xlink" x="0px" y="0px"
	 width="64px" height="64px" viewBox="0 0 64 64" style="enable-background:new 0 0 64 64;" xml:space="preserve">
<g id="Squeeze_Ball_2_">
	<g>
		<path style="fill-rule:evenodd;clip-rule:evenodd;fill:#999999;" d="M56,32v-2C56,14.535,43.463,2,28,2h-4v4h4
			c13.254,0,24,10.744,24,24v2c-4,4-8,10.26-8,16c0,7.732,4.477,12,10,12s10-4.268,10-12C64,42.35,60,36,56,32z"/>
	</g>
</g>
<g id="Ring_41_">
	<g>
		<path style="fill:#333333;" d="M56,28h-4c-1.105,0-2,0.895-2,2c0,1.104,0.895,2,2,2h4c1.104,0,2-0.896,2-2
			C58,28.895,57.104,28,56,28z"/>
	</g>
</g>
<g id="Head_74_">
	<g>
		<path style="fill:#999999;" d="M22,0h-4c-1.105,0-2,0.895-2,2v8c0,1.104,0.895,2,2,2h4c1.105,0,2-0.896,2-2V2
			C24,0.895,23.105,0,22,0z"/>
	</g>
</g>
<g id="Mount_4_">
	<g>
		<path style="fill:#666666;" d="M24,8h-8c-1.105,0-2,0.895-2,2v12c0,1.105,0.895,2,2,2h8c1.104,0,2-0.895,2-2V10
			C26,8.895,25.104,8,24,8z"/>
	</g>
</g>
<g id="Bottle_8_">
	<g>
		<path style="fill:#F06EAA;" d="M40,38c0-12-8.955-20-20-20C8.953,18,0,26,0,38s10,16,10,18c0,2.359-4,4-4,6s1.791,2,4,2h20
			c2.209,0,4,0,4-2s-4-3.641-4-6C30,54,40,50,40,38z"/>
	</g>
</g>
<g>
</g>
<g>
</g>
<g>
</g>
<g>
</g>
<g>
</g>
<g>
</g>
<g>
</g>
<g>
</g>
<g>
</g>
<g>
</g>
<g>
</g>
<g>
</g>
<g>
</g>
<g>
</g>
<g>
</g>
</svg>
