<?xml version="1.0" encoding="iso-8859-1"?>
<!-- Generator: Adobe Illustrator 16.0.0, SVG Export Plug-In . SVG Version: 6.00 Build 0)  -->
<!DOCTYPE svg PUBLIC "-//W3C//DTD SVG 1.1//EN" "http://www.w3.org/Graphics/SVG/1.1/DTD/svg11.dtd">
<svg version="1.1" id="Layer_1" xmlns="http://www.w3.org/2000/svg" xmlns:xlink="http://www.w3.org/1999/xlink" x="0px" y="0px"
	 width="44px" height="64px" viewBox="0 0 44 64" style="enable-background:new 0 0 44 64;" xml:space="preserve">
<g id="Bottle_2_">
	<g>
		<path style="fill-rule:evenodd;clip-rule:evenodd;fill:#E6E6E6;" d="M12,8h20c1.105,0,2-0.896,2-2V4c0-1.084-2.916-4-4-4H14
			c-1.084,0-4,2.916-4,4v2C10,7.104,10.895,8,12,8z M40,14H4c-1.084,0-4,2.916-4,4v44c0,1.105,0.895,2,2,2h40c1.105,0,2-0.895,2-2
			V18C44,16.916,41.084,14,40,14z"/>
	</g>
</g>
<g id="Mount">
	<g>
		<rect x="16" y="8" style="fill:#CCCCCC;" width="12" height="6"/>
	</g>
</g>
<g id="Perfume">
	<g>
		<path style="fill:#FFCC66;" d="M38,20H6c-1.105,0-2,0.895-2,2v34c0,1.104,0.895,2,2,2h32c1.105,0,2-0.896,2-2V22
			C40,20.895,39.105,20,38,20z"/>
	</g>
</g>
<g id="Label_1_">
	<g>
		<rect x="12" y="28" style="fill:#FFFFFF;" width="20" height="16"/>
	</g>
</g>
<g>
</g>
<g>
</g>
<g>
</g>
<g>
</g>
<g>
</g>
<g>
</g>
<g>
</g>
<g>
</g>
<g>
</g>
<g>
</g>
<g>
</g>
<g>
</g>
<g>
</g>
<g>
</g>
<g>
</g>
</svg>
