<?xml version="1.0" encoding="iso-8859-1"?>
<!-- Generator: Adobe Illustrator 16.0.0, SVG Export Plug-In . SVG Version: 6.00 Build 0)  -->
<!DOCTYPE svg PUBLIC "-//W3C//DTD SVG 1.1//EN" "http://www.w3.org/Graphics/SVG/1.1/DTD/svg11.dtd">
<svg version="1.1" id="Layer_1" xmlns="http://www.w3.org/2000/svg" xmlns:xlink="http://www.w3.org/1999/xlink" x="0px" y="0px"
	 width="64px" height="56px" viewBox="0 0 64 56" style="enable-background:new 0 0 64 56;" xml:space="preserve">
<g id="Brim_22_">
	<g>
		<path style="fill:#353535;" d="M32,38C0,38,0,42.666,0,48c0,4.018,11.977,8,32,8c20.021,0,32-4,32-8C64,42.666,64,38,32,38z"/>
	</g>
</g>
<g id="Crown_31_">
	<g>
		<path style="fill-rule:evenodd;clip-rule:evenodd;fill:#4D4D4D;" d="M46,2c0-1.105-6.268-2-14-2S18,0.895,18,2l-4,44h36L46,2z"/>
	</g>
</g>
<g id="Band_36_">
	<g>
		<polygon style="fill-rule:evenodd;clip-rule:evenodd;fill:#A67C52;" points="14.727,38 14,46 50,46 49.273,38 		"/>
	</g>
</g>
<g id="Buckle_18_">
	<g>
		<path style="fill-rule:evenodd;clip-rule:evenodd;fill:#FFCC66;" d="M36,36h-8c-1.105,0-2,0.895-2,2v8c0,1.104,0.895,2,2,2h8
			c1.104,0,2-0.896,2-2v-8C38,36.895,37.104,36,36,36z M34,44h-4v-4h4V44z"/>
	</g>
</g>
<g>
</g>
<g>
</g>
<g>
</g>
<g>
</g>
<g>
</g>
<g>
</g>
<g>
</g>
<g>
</g>
<g>
</g>
<g>
</g>
<g>
</g>
<g>
</g>
<g>
</g>
<g>
</g>
<g>
</g>
</svg>
