<?xml version="1.0" encoding="iso-8859-1"?>
<!-- Generator: Adobe Illustrator 16.0.0, SVG Export Plug-In . SVG Version: 6.00 Build 0)  -->
<!DOCTYPE svg PUBLIC "-//W3C//DTD SVG 1.1//EN" "http://www.w3.org/Graphics/SVG/1.1/DTD/svg11.dtd">
<svg version="1.1" id="Layer_1" xmlns="http://www.w3.org/2000/svg" xmlns:xlink="http://www.w3.org/1999/xlink" x="0px" y="0px"
	 width="56px" height="64px" viewBox="0 0 56 64" style="enable-background:new 0 0 56 64;" xml:space="preserve">
<g id="Shirt_1_">
	<g>
		<path style="fill:#666666;" d="M52,48c-1.881-1.881-8-4-8-4H12c0,0-6.121,2.119-8,4c-3.76,3.76-4,16-4,16h56
			C56,64,55.76,51.76,52,48z"/>
	</g>
</g>
<g id="Buttons">
	<g>
		<path style="fill-rule:evenodd;clip-rule:evenodd;fill:#999999;" d="M28,56c1.104,0,2-0.896,2-2c0-1.105-0.896-2-2-2
			c-1.105,0-2,0.895-2,2C26,55.104,26.895,56,28,56z M28,60c-1.105,0-2,0.895-2,2s0.895,2,2,2c1.104,0,2-0.895,2-2S29.104,60,28,60z
			"/>
	</g>
</g>
<g id="Collar">
	<g>
		<path style="fill:#E6E6E6;" d="M36,40l-2-2H22l-2,2l-8,4c0,4,12,6,12,6l4-6l4,6c0,0,12-2,12-6L36,40z"/>
	</g>
</g>
<g id="Bonnet">
	<g>
		<ellipse style="fill:#B3B3B3;" cx="28" cy="10" rx="12" ry="10"/>
	</g>
</g>
<g id="Bonnet_1_">
	<g>
		<path style="fill:#E6E6E6;" d="M28,4c-8,0-16,4-16,14c0,9.973,4,18,4,18s2-2,4-2s14,0,16,0s4,2,4,2s4-8,4-18S36,4,28,4z"/>
	</g>
</g>
<g id="Neck_1_">
	<g>
		<path style="fill:#DBB59A;" d="M32,30h-8l-2,8c0,0,2.023,2,6,2s6-2,6-2L32,30z"/>
	</g>
</g>
<g id="Head_2_">
	<g>
		<path style="fill:#F6CBAD;" d="M28,12c-7.732,0-12,2-12,6c0,2,0,6,2,10c2,3.998,6.082,8,10,8s8-4.002,10-8c2-4,2-8,2-10
			C40,14,35.732,12,28,12z"/>
	</g>
</g>
<g id="Hair_2_">
	<g>
		<path style="fill:#8C6845;" d="M28,8c-8,0-12,4-12,10c6,0,12-6,12-6s6,6,12,6C40,12,36,8,28,8z"/>
	</g>
</g>
<g>
</g>
<g>
</g>
<g>
</g>
<g>
</g>
<g>
</g>
<g>
</g>
<g>
</g>
<g>
</g>
<g>
</g>
<g>
</g>
<g>
</g>
<g>
</g>
<g>
</g>
<g>
</g>
<g>
</g>
</svg>
