<?xml version="1.0" encoding="iso-8859-1"?>
<!-- Generator: Adobe Illustrator 16.0.0, SVG Export Plug-In . SVG Version: 6.00 Build 0)  -->
<!DOCTYPE svg PUBLIC "-//W3C//DTD SVG 1.1//EN" "http://www.w3.org/Graphics/SVG/1.1/DTD/svg11.dtd">
<svg version="1.1" id="Layer_1" xmlns="http://www.w3.org/2000/svg" xmlns:xlink="http://www.w3.org/1999/xlink" x="0px" y="0px"
	 width="64px" height="64.001px" viewBox="0 0 64 64.001" style="enable-background:new 0 0 64 64.001;" xml:space="preserve">
<g id="Shirt_22_">
	<g>
		<path style="fill:#666666;" d="M60,47.999c-1.881-1.879-10-5.998-10-5.998H14c0,0-8.121,4.119-10,5.998
			c-3.762,3.76-4,16.002-4,16.002h64C64,64.001,63.76,51.759,60,47.999z"/>
	</g>
</g>
<g id="Buttons_12_">
	<g>
		<path style="fill-rule:evenodd;clip-rule:evenodd;fill:#999999;" d="M32,54.001c1.104,0,2-0.896,2-2c0-1.105-0.896-2-2-2
			c-1.105,0-2,0.895-2,2C30,53.104,30.895,54.001,32,54.001z M32,58.001c-1.105,0-2,0.895-2,1.998c0,1.105,0.895,2.002,2,2.002
			c1.104,0,2-0.896,2-2.002C34,58.896,33.104,58.001,32,58.001z"/>
	</g>
</g>
<g id="Collar_20_">
	<g>
		<path style="fill:#E6E6E6;" d="M42,38.001l-2-2H24l-2,2l-8,4c0,4,12,8,12,8l6-8l6,8c0,0,12-4,12-8L42,38.001z"/>
	</g>
</g>
<g id="Neck_26_">
	<g>
		<path style="fill:#DBB59A;" d="M38,30.001H26l-2,6c0,1.104,4.895,4,6,4h4c1.104,0,6-2.896,6-4L38,30.001z"/>
	</g>
</g>
<g id="Crown_29_">
	<g>
		<path style="fill:#666666;" d="M40,2.001c-0.777-2.121-4-2-8-2s-7.223-0.121-8,2c-0.732,2-2,8-2,8h20
			C42,10.001,40.732,4.001,40,2.001z"/>
	</g>
</g>
<g id="Brim_20_">
	<g>
		<path style="fill:#4D4D4D;" d="M32,8.001c-9.941,0-20,4.477-20,10c0,5.521,10.059,14,20,14s20-8.479,20-14
			C52,12.478,41.941,8.001,32,8.001z"/>
	</g>
</g>
<g id="Head_80_">
	<g>
		<path style="fill:#F5CAAB;" d="M32,14.001c-7.004,0-14,2-14,4c0.549,3.84,2.371,6.744,4,9.998c2,4,6.08,8.002,10,8.002
			c3.918,0,8-4.002,10-8.002c1.627-3.254,3.449-6.158,4-9.998C46,16.001,39.004,14.001,32,14.001z"/>
	</g>
</g>
<g>
</g>
<g>
</g>
<g>
</g>
<g>
</g>
<g>
</g>
<g>
</g>
<g>
</g>
<g>
</g>
<g>
</g>
<g>
</g>
<g>
</g>
<g>
</g>
<g>
</g>
<g>
</g>
<g>
</g>
</svg>
