<?xml version="1.0" encoding="iso-8859-1"?>
<!-- Generator: Adobe Illustrator 16.0.0, SVG Export Plug-In . SVG Version: 6.00 Build 0)  -->
<!DOCTYPE svg PUBLIC "-//W3C//DTD SVG 1.1//EN" "http://www.w3.org/Graphics/SVG/1.1/DTD/svg11.dtd">
<svg version="1.1" id="Layer_1" xmlns="http://www.w3.org/2000/svg" xmlns:xlink="http://www.w3.org/1999/xlink" x="0px" y="0px"
	 width="64px" height="64px" viewBox="0 0 64 64" style="enable-background:new 0 0 64 64;" xml:space="preserve">
<g id="T-Shirt_2_">
	<g>
		<path style="fill:#666666;" d="M60,48c-1.881-1.881-18-10-18-10H22c0,0-16.121,8.119-18,10c-3.76,3.76-4,16-4,16h64
			C64,64,63.76,51.76,60,48z"/>
	</g>
</g>
<g id="Shirt_20_">
	<g>
		<path style="fill:#333333;" d="M40,35.998H24L22,38c0,0,3.373,6,10,6s10-6,10-6L40,35.998z"/>
	</g>
</g>
<g id="Rounded_Rectangle_126_2_">
	<g>
		<path style="fill:#FFFFFF;" d="M34,40h-4c-1.105,0-2,0.895-2,2c0,1.104,0.895,2,2,2h4c1.104,0,2-0.896,2-2
			C36,40.895,35.104,40,34,40z"/>
	</g>
</g>
<g id="Neck_22_">
	<g>
		<path style="fill:#DBB59A;" d="M38,30H26l-2,5.998C24,37.104,28.895,40,30,40h4c1.104,0,6-2.896,6-4.002L38,30z"/>
	</g>
</g>
<g id="Head_72_">
	<g>
		<path style="fill:#F6CBAD;" d="M32,2c-7.732,0-14,4-14,12c0,5.998,2,9.998,4,14c2,4,6.082,7.998,10,7.998S40,32,42,28
			c2-4.002,4-8.002,4-14C46,6,39.732,2,32,2z"/>
	</g>
</g>
<g id="Hair_30_">
	<g>
		<path style="fill:#8C6845;" d="M32,0c-4.684,0-10,1.73-10,4c-2.957,0-4,6.617-4,12c0,0.896,0.08,1.842,0.205,2.803
			C18.719,16.156,20.311,12,24,12c3.453,0,2.107,0,8,0c3.063,0,8-1.498,8-4c2.596-0.035,6,3.66,6,8C46,8.135,44.715,0,32,0z"/>
	</g>
</g>
<g id="Necklace_8_">
	<g>
		<path style="fill-rule:evenodd;clip-rule:evenodd;fill:#CCA352;" d="M33.43,59.43c0.127-0.127,0.201-0.281,0.285-0.43
			l16.662-16.662c-1.24-0.658-2.451-1.291-3.563-1.869L32,55.283L17.186,40.469c-1.111,0.576-2.322,1.211-3.564,1.869l16.66,16.658
			c0.084,0.15,0.16,0.305,0.287,0.434c0.395,0.395,0.916,0.568,1.432,0.549C32.516,59.998,33.035,59.824,33.43,59.43z"/>
	</g>
</g>
<g id="Cross_37_">
	<g>
		<path style="fill-rule:evenodd;clip-rule:evenodd;fill:#FFCC66;" d="M36,56h-2v-2c0-1.105-0.896-2-2-2c-1.105,0-2,0.895-2,2v2h-2
			c-1.105,0-2,0.895-2,2c0,1.104,0.895,2,2,2h2v4h4v-4h2c1.105,0,2-0.896,2-2C38,56.895,37.105,56,36,56z"/>
	</g>
</g>
<g>
</g>
<g>
</g>
<g>
</g>
<g>
</g>
<g>
</g>
<g>
</g>
<g>
</g>
<g>
</g>
<g>
</g>
<g>
</g>
<g>
</g>
<g>
</g>
<g>
</g>
<g>
</g>
<g>
</g>
</svg>
