<?xml version="1.0" encoding="iso-8859-1"?>
<!-- Generator: Adobe Illustrator 16.0.0, SVG Export Plug-In . SVG Version: 6.00 Build 0)  -->
<!DOCTYPE svg PUBLIC "-//W3C//DTD SVG 1.1//EN" "http://www.w3.org/Graphics/SVG/1.1/DTD/svg11.dtd">
<svg version="1.1" id="Layer_1" xmlns="http://www.w3.org/2000/svg" xmlns:xlink="http://www.w3.org/1999/xlink" x="0px" y="0px"
	 width="48px" height="64px" viewBox="0 0 48 64" style="enable-background:new 0 0 48 64;" xml:space="preserve">
<g id="Ring_37_">
	<g>
		<path style="fill-rule:evenodd;clip-rule:evenodd;fill:#FFCC66;" d="M24,16C10.744,16,0,26.744,0,40c0,13.254,10.744,24,24,24
			c13.254,0,24-10.746,24-24C48,26.744,37.254,16,24,16z M24,58c-9.941,0-18-8.059-18-18s8.059-18,18-18s18,8.059,18,18
			S33.941,58,24,58z"/>
	</g>
</g>
<g id="Diamond_10_">
	<g>
		<path style="fill-rule:evenodd;clip-rule:evenodd;fill:#B3B3B3;" d="M18,6L9.988,5.996L24,20h0.004l0.004-0.008l-0.006,0.006L18,6
			z M30,6l-5.992,13.992l14.01-13.996L30,6z"/>
	</g>
</g>
<g id="Diamond_8_">
	<g>
		<path style="fill-rule:evenodd;clip-rule:evenodd;fill:#CCCCCC;" d="M10,6l7.984-0.004l-1.982-5.992L10,6z M32.002,0.004
			l-1.98,5.992L38,6L32.002,0.004z M24,20l6.01-14.004H17.996L24,20z"/>
	</g>
</g>
<g id="Diamond_6_">
	<g>
		<polygon style="fill:#E6E6E6;" points="16,0 18,6 30,6 32,0 		"/>
	</g>
</g>
<g>
</g>
<g>
</g>
<g>
</g>
<g>
</g>
<g>
</g>
<g>
</g>
<g>
</g>
<g>
</g>
<g>
</g>
<g>
</g>
<g>
</g>
<g>
</g>
<g>
</g>
<g>
</g>
<g>
</g>
</svg>
