<?xml version="1.0" encoding="iso-8859-1"?>
<!-- Generator: Adobe Illustrator 16.0.0, SVG Export Plug-In . SVG Version: 6.00 Build 0)  -->
<!DOCTYPE svg PUBLIC "-//W3C//DTD SVG 1.1//EN" "http://www.w3.org/Graphics/SVG/1.1/DTD/svg11.dtd">
<svg version="1.1" id="Layer_1" xmlns="http://www.w3.org/2000/svg" xmlns:xlink="http://www.w3.org/1999/xlink" x="0px" y="0px"
	 width="64px" height="56px" viewBox="0 0 64 56" style="enable-background:new 0 0 64 56;" xml:space="preserve">
<g id="Tray">
	<g>
		<path style="fill:#CCCCCC;" d="M0,48v4c0,2.209,1.791,4,4,4h56c2.209,0,4-1.791,4-4v-4H0z"/>
	</g>
</g>
<g id="Body">
	<g>
		<path style="fill:#E68845;" d="M52,26c-7.957,0-10.301-12-28-12C5.689,14,0,30.799,0,38c0,8,6,10,6,10h42c4,0,12-8,12-14
			S56,26,52,26z"/>
	</g>
</g>
<g id="Bone">
	<g>
		<path style="fill-rule:evenodd;clip-rule:evenodd;fill:#CCCCCC;" d="M61,4c-0.475,0-0.918,0.121-1.316,0.316
			C59.88,3.918,60,3.475,60,3c0-1.658-1.344-3-3-3s-3,1.342-3,3c0,0.828,0.336,1.578,0.879,2.121L50,10l4,4l4.879-4.879
			C59.422,9.664,60.172,10,61,10c1.656,0,3-1.344,3-3C64,5.342,62.656,4,61,4z"/>
	</g>
</g>
<g id="Drumstick">
	<g>
		<path style="fill:#B36A36;" d="M54,10c-2-2-4-2-6,0c-6,6-20,4-20,16c0,6,4,10,10,10c12,0,10-14,16-20C56,14,56,12,54,10z"/>
	</g>
</g>
<g id="Wing">
	<g>
		<path style="fill:#B36A36;" d="M18,30c0,0,6-7.656,6-10c0-1.348-0.371-2-2-2c-1.594,0-14,9.328-14,14c0,2.031,2,4,2,4s-4,2-4,6
			c0,6,4,6,4,6s12.971,0,20,0c2,0,4-2,4-4C34,38,18,30,18,30z"/>
	</g>
</g>
<g>
</g>
<g>
</g>
<g>
</g>
<g>
</g>
<g>
</g>
<g>
</g>
<g>
</g>
<g>
</g>
<g>
</g>
<g>
</g>
<g>
</g>
<g>
</g>
<g>
</g>
<g>
</g>
<g>
</g>
</svg>
