<?xml version="1.0" encoding="iso-8859-1"?>
<!-- Generator: Adobe Illustrator 16.0.0, SVG Export Plug-In . SVG Version: 6.00 Build 0)  -->
<!DOCTYPE svg PUBLIC "-//W3C//DTD SVG 1.1//EN" "http://www.w3.org/Graphics/SVG/1.1/DTD/svg11.dtd">
<svg version="1.1" id="Layer_1" xmlns="http://www.w3.org/2000/svg" xmlns:xlink="http://www.w3.org/1999/xlink" x="0px" y="0px"
	 width="52px" height="68px" viewBox="0 0 52 68" style="enable-background:new 0 0 52 68;" xml:space="preserve">
<g id="Horns">
	<g>
		<path style="fill-rule:evenodd;clip-rule:evenodd;fill:#CCCCCC;" d="M50,2c0-1.105-0.895-2-2-2s-2,0.895-2,2
			c0,2.052-0.311,4.03-0.885,5.895C43.332,7.49,42,5.904,42,4c0-1.105-0.895-2-2-2s-2,0.895-2,2c0,3.561,2.342,6.543,5.557,7.58
			c-0.84,1.536-1.887,2.94-3.086,4.199C37.902,15.1,36,12.781,36,10c0-1.105-0.896-2-2-2c-1.105,0-2,0.895-2,2
			c0,3.721,2.057,6.929,5.07,8.651C33.9,20.764,30.096,22,26,22s-7.9-1.236-11.07-3.349C17.943,16.929,20,13.721,20,10
			c0-1.105-0.895-2-2-2s-2,0.895-2,2c0,2.781-1.902,5.1-4.471,5.779c-1.199-1.259-2.246-2.663-3.086-4.199
			C11.658,10.543,14,7.561,14,4c0-1.105-0.895-2-2-2s-2,0.895-2,2c0,1.904-1.332,3.49-3.115,3.895C6.311,6.03,6,4.052,6,2
			c0-1.105-0.895-2-2-2S2,0.895,2,2c0,7.099,3.102,13.459,8,17.853V20c0.051,0,0.096-0.014,0.146-0.015
			C14.377,23.717,19.914,26,26,26c6.084,0,11.623-2.283,15.854-6.015C41.904,19.986,41.949,20,42,20v-0.148
			C46.898,15.458,50,9.099,50,2z"/>
	</g>
</g>
<g id="Ears_2_">
	<g>
		<path style="fill-rule:evenodd;clip-rule:evenodd;fill:#735538;" d="M38,22c-3.314,0-12,2.686-12,6c0,3.313,8.686,6,12,6
			c3.313,0,14-2.688,14-6C52,24.686,41.313,22,38,22z M14,22c-3.314,0-14,2.686-14,6c0,3.313,10.686,6,14,6s12-2.688,12-6
			C26,24.686,17.314,22,14,22z"/>
	</g>
</g>
<g id="Head_19_">
	<g>
		<path style="fill:#A67C52;" d="M26,18C18.035,18,8,33.963,8,46c0,12.035,10.557,18,18,18s18-5.965,18-18
			C44,33.963,33.963,18,26,18z"/>
	</g>
</g>
<g id="Snout">
	<g>
		<path style="fill-rule:evenodd;clip-rule:evenodd;fill:#F2CDA7;" d="M10.039,54.375C13.467,60.796,20.557,64,26,64
			s12.533-3.204,15.961-9.625C41.557,47.488,34.576,42,26,42S10.443,47.488,10.039,54.375z"/>
	</g>
</g>
<g id="Nose_4_">
	<g>
		<circle style="fill:#ED7161;" cx="26" cy="48" r="6"/>
	</g>
</g>
<g id="Eyes_5_">
	<g>
		<path style="fill-rule:evenodd;clip-rule:evenodd;" d="M20,32c-1.105,0-2,0.895-2,2c0,1.104,0.895,2,2,2s2-0.896,2-2
			C22,32.895,21.105,32,20,32z M32,32c-1.105,0-2,0.895-2,2c0,1.104,0.895,2,2,2s2-0.896,2-2C34,32.895,33.105,32,32,32z"/>
	</g>
</g>
<g>
</g>
<g>
</g>
<g>
</g>
<g>
</g>
<g>
</g>
<g>
</g>
<g>
</g>
<g>
</g>
<g>
</g>
<g>
</g>
<g>
</g>
<g>
</g>
<g>
</g>
<g>
</g>
<g>
</g>
</svg>
