<?xml version="1.0" encoding="iso-8859-1"?>
<!-- Generator: Adobe Illustrator 16.0.0, SVG Export Plug-In . SVG Version: 6.00 Build 0)  -->
<!DOCTYPE svg PUBLIC "-//W3C//DTD SVG 1.1//EN" "http://www.w3.org/Graphics/SVG/1.1/DTD/svg11.dtd">
<svg version="1.1" id="Layer_1" xmlns="http://www.w3.org/2000/svg" xmlns:xlink="http://www.w3.org/1999/xlink" x="0px" y="0px"
	 width="64px" height="64px" viewBox="0 0 64 64" style="enable-background:new 0 0 64 64;" xml:space="preserve">
<g id="Bag">
	<g>
		<path style="fill:#E6E6E6;" d="M60,16H4c-2.209,0-4,1.791-4,4v40c0,2.209,1.791,4,4,4h56c2.209,0,4-1.791,4-4V20
			C64,17.791,62.209,16,60,16z"/>
	</g>
</g>
<g id="Heart">
	<g>
		<path style="fill:#ED7161;" d="M44,38.348c0-3.521-2.893-6.377-6.461-6.377c-2.367,0-4.414,1.268-5.539,3.139
			c-1.127-1.871-3.174-3.139-5.539-3.139c-3.568,0-6.461,2.855-6.461,6.377c0,1.764,0.723,3.359,1.895,4.514l-0.006,0.002
			l8.518,8.25h0.027c0.322,0.537,0.889,0.914,1.566,0.914s1.244-0.377,1.566-0.914h0.027l8.516-8.25l-0.004-0.004
			C43.275,41.707,44,40.111,44,38.348z"/>
	</g>
</g>
<g id="Rope">
	<g>
		<path style="fill-rule:evenodd;clip-rule:evenodd;fill:#ED7161;" d="M32,0c-8.836,0-16,7.164-16,16v6c0,1.105,0.895,2,2,2
			s2-0.895,2-2v-6c0-6.627,5.373-12,12-12s12,5.373,12,12v6c0,1.105,0.895,2,2,2s2-0.895,2-2v-6C48,7.164,40.836,0,32,0z"/>
	</g>
</g>
<g>
</g>
<g>
</g>
<g>
</g>
<g>
</g>
<g>
</g>
<g>
</g>
<g>
</g>
<g>
</g>
<g>
</g>
<g>
</g>
<g>
</g>
<g>
</g>
<g>
</g>
<g>
</g>
<g>
</g>
</svg>
