<?xml version="1.0" encoding="iso-8859-1"?>
<!-- Generator: Adobe Illustrator 16.0.0, SVG Export Plug-In . SVG Version: 6.00 Build 0)  -->
<!DOCTYPE svg PUBLIC "-//W3C//DTD SVG 1.1//EN" "http://www.w3.org/Graphics/SVG/1.1/DTD/svg11.dtd">
<svg version="1.1" id="Layer_1" xmlns="http://www.w3.org/2000/svg" xmlns:xlink="http://www.w3.org/1999/xlink" x="0px" y="0px"
	 width="64px" height="48px" viewBox="0 0 64 48" style="enable-background:new 0 0 64 48;" xml:space="preserve">
<g id="Runner_2_">
	<g>
		<path style="fill-rule:evenodd;clip-rule:evenodd;fill:#FFCC66;" d="M62,44H50v-4h-4v4H26v-4h-4v4H10c-3.314,0-6-2.688-6-6
			c0-3.314,2.686-6,6-6c1.104,0,2-0.896,2-2c0-1.105-0.896-2-2-2v-0.002C4.477,27.998,0,32.477,0,38c0,5.521,4.477,10,10,10h52
			c1.104,0,2-0.896,2-2C64,44.895,63.104,44,62,44z"/>
	</g>
</g>
<g id="Seat_2_">
	<g>
		<path style="fill:#A67C52;" d="M34.717,24C35.148,24,52,24,52,24V4C41.896,4,38.088,18.986,34.717,24z"/>
	</g>
</g>
<g id="Sledge_3_">
	<g>
		<path style="fill:#ED7161;" d="M64,2c0-1.301-0.795-2-2-2C44.652,0,43.754,24,38,24c-2.688,0-5.938,0-8,0c-8,0-6-12-14-12
			c-3.484,0-6,2.527-6,6c0,4.834,6,11.072,6,18c0,2.377,1.244,4,4,4c4.465,0,26.816,0,32,0c6.684,0,12-5.371,12-12
			c0-6.568-6-13.82-6-18C58,4.5,64,4,64,2z"/>
	</g>
</g>
<g id="Decoration_34_">
	<g>
		<path style="fill:#BA594C;" d="M52,20c-1.105,0-2,0.895-2,2c0,5.521-4.477,10-10,10H28c-1.105,0-2,0.895-2,2c0,1.104,0.895,2,2,2
			c0,0,11.645,0,24,0c4.418,0,8-3.582,8-8.002C60,23.582,56.418,20,52,20z"/>
	</g>
</g>
<g>
</g>
<g>
</g>
<g>
</g>
<g>
</g>
<g>
</g>
<g>
</g>
<g>
</g>
<g>
</g>
<g>
</g>
<g>
</g>
<g>
</g>
<g>
</g>
<g>
</g>
<g>
</g>
<g>
</g>
</svg>
