<?xml version="1.0" encoding="iso-8859-1"?>
<!-- Generator: Adobe Illustrator 16.0.0, SVG Export Plug-In . SVG Version: 6.00 Build 0)  -->
<!DOCTYPE svg PUBLIC "-//W3C//DTD SVG 1.1//EN" "http://www.w3.org/Graphics/SVG/1.1/DTD/svg11.dtd">
<svg version="1.1" id="Layer_1" xmlns="http://www.w3.org/2000/svg" xmlns:xlink="http://www.w3.org/1999/xlink" x="0px" y="0px"
	 width="64px" height="64px" viewBox="0 0 64 64" style="enable-background:new 0 0 64 64;" xml:space="preserve">
<g id="Globe_5_">
	<g>
		<circle style="fill:#E6E6E6;" cx="32" cy="32" r="32"/>
	</g>
</g>
<g id="Home">
	<g>
		<polygon style="fill:#CCCCCC;" points="31.984,29.982 22,40 22,52 42,52 42,40 		"/>
	</g>
</g>
<g id="Door">
	<g>
		<path style="fill:#A67C52;" d="M34,40h-4c-1.105,0-2,0.895-2,2v10h8V42C36,40.895,35.105,40,34,40z"/>
	</g>
</g>
<g id="Chimney">
	<g>
		<path style="fill:#4D4D4D;" d="M24.984,28.016h-2c-0.553,0-1,0.445-1,0.998v6c0,0.551,0.447,1,1,1h2c0.553,0,1-0.449,1-1v-6
			C25.984,28.461,25.537,28.016,24.984,28.016z"/>
	</g>
</g>
<g id="Roof_1_">
	<g>
		<path style="fill-rule:evenodd;clip-rule:evenodd;fill:#ED7161;" d="M47.41,40.639L33.517,26.745
			c-0.041-0.05-0.059-0.11-0.104-0.157c-0.205-0.205-0.445-0.345-0.7-0.439c-0.715-0.306-1.571-0.173-2.153,0.41
			c-0.102,0.102-0.154,0.229-0.229,0.344L16.588,40.645c-0.764,0.764-0.764,2.002,0,2.768c0.764,0.764,2.004,0.764,2.768,0
			l12.644-12.644l12.64,12.642c0.766,0.766,2.006,0.766,2.771,0S48.176,41.404,47.41,40.639z"/>
	</g>
</g>
<g id="Snow">
	<g>
		<path style="fill-rule:evenodd;clip-rule:evenodd;fill:#FFFFFF;" d="M42,46c-4.891,0-9.09,1.953-10.959,4.75
			C28.841,49.068,25.61,48,22,48c-6.627,0-12,3.582-12,8s5.373,8,12,8c4.891,0,9.09-1.953,10.959-4.751
			C35.159,60.932,38.39,62,42,62c6.627,0,12-3.582,12-8C54,49.58,48.627,46,42,46z"/>
	</g>
</g>
<g id="Base_10_">
	<g>
		<path style="fill:#48A0DC;" d="M56,52H8c-2,0-4,6-4,8s1.791,4,4,4h48c2.209,0,4-2,4-4S58,52,56,52z"/>
	</g>
</g>
<g id="Snow_1_">
	<g>
		<path style="fill-rule:evenodd;clip-rule:evenodd;fill:#FFFFFF;" d="M22,8c-1.105,0-2,0.895-2,2c0,1.104,0.895,2,2,2s2-0.896,2-2
			C24,8.895,23.105,8,22,8z M28,18c-1.105,0-2,0.895-2,2c0,1.104,0.895,2,2,2c1.104,0,2-0.896,2-2C30,18.895,29.104,18,28,18z
			 M32,12c-1.105,0-2,0.895-2,2c0,1.104,0.895,2,2,2c1.104,0,2-0.896,2-2C34,12.895,33.104,12,32,12z M40,8c-1.105,0-2,0.895-2,2
			c0,1.104,0.895,2,2,2c1.104,0,2-0.896,2-2C42,8.895,41.104,8,40,8z M18,18c-1.105,0-2,0.895-2,2c0,1.104,0.895,2,2,2
			c1.104,0,2-0.896,2-2C20,18.895,19.104,18,18,18z M12,28c-1.105,0-2,0.895-2,2c0,1.104,0.895,2,2,2s2-0.896,2-2
			C14,28.895,13.105,28,12,28z M38,20c-1.105,0-2,0.895-2,2c0,1.104,0.895,2,2,2c1.104,0,2-0.896,2-2C40,20.895,39.104,20,38,20z
			 M50,26c-1.105,0-2,0.895-2,2c0,1.104,0.895,2,2,2c1.104,0,2-0.896,2-2C52,26.895,51.104,26,50,26z M50,18c0-1.105-0.895-2-2-2
			s-2,0.895-2,2c0,1.104,0.895,2,2,2S50,19.104,50,18z M38,28c-1.105,0-2,0.895-2,2c0,1.104,0.895,2,2,2c1.104,0,2-0.896,2-2
			C40,28.895,39.104,28,38,28z M18,34c-1.105,0-2,0.895-2,2c0,1.104,0.895,2,2,2c1.104,0,2-0.896,2-2C20,34.895,19.104,34,18,34z"/>
	</g>
</g>
<g>
</g>
<g>
</g>
<g>
</g>
<g>
</g>
<g>
</g>
<g>
</g>
<g>
</g>
<g>
</g>
<g>
</g>
<g>
</g>
<g>
</g>
<g>
</g>
<g>
</g>
<g>
</g>
<g>
</g>
</svg>
