<?xml version="1.0" encoding="iso-8859-1"?>
<!-- Generator: Adobe Illustrator 16.0.0, SVG Export Plug-In . SVG Version: 6.00 Build 0)  -->
<!DOCTYPE svg PUBLIC "-//W3C//DTD SVG 1.1//EN" "http://www.w3.org/Graphics/SVG/1.1/DTD/svg11.dtd">
<svg version="1.1" id="Layer_1" xmlns="http://www.w3.org/2000/svg" xmlns:xlink="http://www.w3.org/1999/xlink" x="0px" y="0px"
	 width="56.018px" height="64px" viewBox="0 0 56.018 64" style="enable-background:new 0 0 56.018 64;" xml:space="preserve">
<g id="Snowballs">
	<g>
		<path style="fill-rule:evenodd;clip-rule:evenodd;fill:#E6E6E6;" d="M37.807,30.912c1.383-1.955,2.202-4.336,2.202-6.912
			c0-6.627-5.373-12-12-12c-6.628,0-12,5.373-12,12c0,2.576,0.819,4.957,2.201,6.912c-4.933,3.211-8.201,8.764-8.201,15.088
			c0,9.941,8.059,18,18,18s18-8.059,18-18C46.009,39.676,42.741,34.123,37.807,30.912z"/>
	</g>
</g>
<g id="Butons">
	<g>
		<path style="fill-rule:evenodd;clip-rule:evenodd;fill:#666666;" d="M28.009,48c-1.105,0-2,0.895-2,2c0,1.104,0.895,2,2,2
			c1.104,0,2-0.896,2-2C30.009,48.895,29.114,48,28.009,48z M28.009,44c1.104,0,2-0.896,2-2c0-1.105-0.896-2-2-2
			c-1.105,0-2,0.895-2,2C26.009,43.104,26.904,44,28.009,44z"/>
	</g>
</g>
<g id="Eyes_6_">
	<g>
		<path style="fill-rule:evenodd;clip-rule:evenodd;fill:#666666;" d="M24.009,20c-1.104,0-2,0.895-2,2c0,1.104,0.896,2,2,2
			s2-0.896,2-2C26.009,20.895,25.114,20,24.009,20z M32.009,20c-1.104,0-2,0.895-2,2c0,1.104,0.896,2,2,2s2-0.896,2-2
			C34.009,20.895,33.114,20,32.009,20z"/>
	</g>
</g>
<g id="Nose_5_">
	<g>
		<path style="fill:#ED7161;" d="M27.991,25.979c-1.094-0.006-1.976,0.928-1.971,2.086c0.006,1.158,0.915,5.936,2.009,5.941
			s1.958-4.762,1.952-5.92S29.084,25.984,27.991,25.979z"/>
	</g>
</g>
<g id="Hat_4_">
	<g>
		<path style="fill-rule:evenodd;clip-rule:evenodd;fill:#666666;" d="M38.009,12h-4V2c0-1.105-0.896-2-2-2h-8c-1.104,0-2,0.895-2,2
			v10h-4c-1.104,0-2,0.895-2,2c0,1.104,0.896,2,2,2h20c1.104,0,2-0.896,2-2C40.009,12.895,39.114,12,38.009,12z"/>
	</g>
</g>
<g id="Hands">
	<g>
		<path style="fill-rule:evenodd;clip-rule:evenodd;fill:#A67C52;" d="M55.436,24.572c-0.776-0.775-2.033-0.775-2.81,0l-2.617,2.617
			V26c0-1.105-0.896-2-2-2c-1.105,0-2,0.895-2,2v5.189l-5.427,5.428c-0.776,0.775-0.776,2.033,0,2.809
			c0.775,0.775,2.033,0.775,2.809,0l5.97-5.97c0.037-0.034,0.07-0.067,0.104-0.104l5.971-5.971
			C56.211,26.605,56.211,25.348,55.436,24.572z M10.009,31.19V26c0-1.105-0.896-2-2-2s-2,0.895-2,2v1.19l-2.618-2.618
			c-0.775-0.775-2.033-0.775-2.809,0c-0.776,0.775-0.776,2.033,0,2.809l5.972,5.972c0.033,0.036,0.066,0.069,0.102,0.103
			l5.971,5.971c0.776,0.775,2.033,0.775,2.81,0c0.775-0.775,0.775-2.033,0-2.809L10.009,31.19z"/>
	</g>
</g>
<g>
</g>
<g>
</g>
<g>
</g>
<g>
</g>
<g>
</g>
<g>
</g>
<g>
</g>
<g>
</g>
<g>
</g>
<g>
</g>
<g>
</g>
<g>
</g>
<g>
</g>
<g>
</g>
<g>
</g>
</svg>
