<?xml version="1.0" encoding="iso-8859-1"?>
<!-- Generator: Adobe Illustrator 16.0.0, SVG Export Plug-In . SVG Version: 6.00 Build 0)  -->
<!DOCTYPE svg PUBLIC "-//W3C//DTD SVG 1.1//EN" "http://www.w3.org/Graphics/SVG/1.1/DTD/svg11.dtd">
<svg version="1.1" id="Layer_1" xmlns="http://www.w3.org/2000/svg" xmlns:xlink="http://www.w3.org/1999/xlink" x="0px" y="0px"
	 width="36px" height="64px" viewBox="0 0 36 64" style="enable-background:new 0 0 36 64;" xml:space="preserve">
<g id="Hanger">
	<g>
		<path style="fill:#999999;" d="M12,0c-1.438,0-2,1.998-2,4c0,5.521,2,10,2,10s2-4.479,2-10C14,1.998,13.438,0,12,0z"/>
	</g>
</g>
<g id="Sock">
	<g>
		<path style="fill:#E6E6E6;" d="M30,40c-2.668-2.67-4-4.209-4-6c0-1.23,1.957-3.889,3.938-6.668
			c-0.566-6.662-16.861-12.141-21.002-13.15C4.805,21.279,0,32.627,0,38c0,7.16,8.936,16.936,14,21.998
			c2.521,2.523,4.695,3.992,8,4.002c7.082,0.02,14-4.547,14-12C36,46.596,32.473,42.471,30,40z"/>
	</g>
</g>
<g id="Toe_1_">
	<g>
		<path style="fill:#CCCCCC;" d="M33.826,44.744C32.709,44.297,31.467,44,30,44c-7.18,0-16,6.82-16,14
			c0,0.758,0.078,1.482,0.203,2.184C16.639,62.58,18.785,63.99,22,64c7.082,0.02,14-4.547,14-12
			C36,49.225,35.064,46.793,33.826,44.744z"/>
	</g>
</g>
<g id="Heel">
	<g>
		<path style="fill:#CCCCCC;" d="M2.594,27.629C1.063,31.689,0,35.498,0,38c0,3.486,2.125,7.592,4.883,11.471
			C7.637,46.752,10,42.766,10,39C10,34.275,6.492,29.984,2.594,27.629z"/>
	</g>
</g>
<g id="Band_4_">
	<g>
		<path style="fill:#48A0DC;" d="M14,8c-1.025,0.033-2.959,2.566-5.064,6.182c4.141,1.01,20.436,6.488,21.002,13.15
			C31.891,24.588,34,21.73,34,20C34,12.285,15.199,7.959,14,8z"/>
	</g>
</g>
<g>
</g>
<g>
</g>
<g>
</g>
<g>
</g>
<g>
</g>
<g>
</g>
<g>
</g>
<g>
</g>
<g>
</g>
<g>
</g>
<g>
</g>
<g>
</g>
<g>
</g>
<g>
</g>
<g>
</g>
</svg>
