<?xml version="1.0" encoding="iso-8859-1"?>
<!-- Generator: Adobe Illustrator 16.0.0, SVG Export Plug-In . SVG Version: 6.00 Build 0)  -->
<!DOCTYPE svg PUBLIC "-//W3C//DTD SVG 1.1//EN" "http://www.w3.org/Graphics/SVG/1.1/DTD/svg11.dtd">
<svg version="1.1" id="Layer_1" xmlns="http://www.w3.org/2000/svg" xmlns:xlink="http://www.w3.org/1999/xlink" x="0px" y="0px"
	 width="55.994px" height="63.996px" viewBox="0 0 55.994 63.996" style="enable-background:new 0 0 55.994 63.996;"
	 xml:space="preserve">
<g id="Ring_27_">
	<g>
		<path style="fill-rule:evenodd;clip-rule:evenodd;fill:#CCCCCC;" d="M27.998,0c-3.314,0-6,2.686-6,6c0,3.313,2.686,6,6,6
			c3.313,0,6-2.688,6-6C33.998,2.686,31.311,0,27.998,0z M27.998,8c-1.105,0-2-0.896-2-2c0-1.105,0.895-2,2-2c1.104,0,2,0.895,2,2
			C29.998,7.104,29.102,8,27.998,8z"/>
	</g>
</g>
<g id="Star_3_">
	<g>
		<path style="fill:#ED7161;" d="M55.844,30.398c-0.35-1.107-1.262-1.93-2.381-2.145L37.998,26l-7.287-14.375
			c-0.549-1.004-1.588-1.627-2.713-1.627c-1.127,0-2.166,0.623-2.717,1.627L17.998,26L2.533,28.254
			C1.414,28.469,0.5,29.291,0.15,30.398s-0.078,2.32,0.705,3.164L11.998,44L9.531,60.42c-0.145,1.146,0.334,2.283,1.248,2.963
			c0.543,0.406,1.188,0.613,1.838,0.613c0.443,0,0.889-0.096,1.305-0.293L27.998,56l14.072,7.703
			c0.418,0.197,0.863,0.293,1.307,0.293c0.65,0,1.295-0.207,1.838-0.613c0.912-0.68,1.391-1.816,1.248-2.963L43.998,44
			l11.141-10.438C55.922,32.719,56.193,31.506,55.844,30.398z"/>
	</g>
</g>
<g id="Interior_28_">
	<g>
		<polygon style="fill:#FFFFFF;" points="39.221,42.084 40.686,40.715 50.018,32.016 37.012,30.129 35.047,29.844 34.15,28.082 
			27.998,16.002 21.846,28.082 20.947,29.844 18.984,30.129 5.977,32.016 15.309,40.715 16.775,42.084 16.477,44.059 14.373,57.996 
			26.162,51.576 27.998,50.576 29.834,51.578 41.621,57.998 39.52,44.059 		"/>
	</g>
</g>
<g>
</g>
<g>
</g>
<g>
</g>
<g>
</g>
<g>
</g>
<g>
</g>
<g>
</g>
<g>
</g>
<g>
</g>
<g>
</g>
<g>
</g>
<g>
</g>
<g>
</g>
<g>
</g>
<g>
</g>
</svg>
