<?xml version="1.0" encoding="iso-8859-1"?>
<!-- Generator: Adobe Illustrator 16.0.0, SVG Export Plug-In . SVG Version: 6.00 Build 0)  -->
<!DOCTYPE svg PUBLIC "-//W3C//DTD SVG 1.1//EN" "http://www.w3.org/Graphics/SVG/1.1/DTD/svg11.dtd">
<svg version="1.1" id="Layer_1" xmlns="http://www.w3.org/2000/svg" xmlns:xlink="http://www.w3.org/1999/xlink" x="0px" y="0px"
	 width="64px" height="64px" viewBox="0 0 64 64" style="enable-background:new 0 0 64 64;" xml:space="preserve">
<g id="Cross">
	<g>
		<path style="fill-rule:evenodd;clip-rule:evenodd;fill:#A67C52;" d="M46,12H36V2c0-1.105-0.896-2-2-2h-4c-1.105,0-2,0.895-2,2v10
			H18c-1.105,0-2,0.895-2,2v4c0,1.105,0.895,2,2,2h10v26c0,1.104,0.895,2,2,2h4c1.104,0,2-0.896,2-2V20h10c1.105,0,2-0.895,2-2v-4
			C48,12.895,47.105,12,46,12z"/>
	</g>
</g>
<g id="Cross_1_">
	<g>
		<path style="fill-rule:evenodd;clip-rule:evenodd;fill:#735538;" d="M18,30h-4v-4c0-1.105-0.895-2-2-2s-2,0.895-2,2v4H6
			c-1.105,0-2,0.895-2,2c0,1.104,0.895,2,2,2h4v16c0,1.104,0.895,2,2,2s2-0.896,2-2V34h4c1.105,0,2-0.896,2-2
			C20,30.895,19.105,30,18,30z M58,30h-4v-4c0-1.105-0.896-2-2-2c-1.105,0-2,0.895-2,2v4h-4c-1.105,0-2,0.895-2,2
			c0,1.104,0.895,2,2,2h4v16c0,1.104,0.895,2,2,2c1.104,0,2-0.896,2-2V34h4c1.104,0,2-0.896,2-2C60,30.895,59.104,30,58,30z"/>
	</g>
</g>
<g id="Hill">
	<g>
		<path style="fill:#88C057;" d="M32,46C0,46,0,64,0,64h64C64,64,64,46,32,46z"/>
	</g>
</g>
<g>
</g>
<g>
</g>
<g>
</g>
<g>
</g>
<g>
</g>
<g>
</g>
<g>
</g>
<g>
</g>
<g>
</g>
<g>
</g>
<g>
</g>
<g>
</g>
<g>
</g>
<g>
</g>
<g>
</g>
</svg>
