<?xml version="1.0" encoding="iso-8859-1"?>
<!-- Generator: Adobe Illustrator 16.0.0, SVG Export Plug-In . SVG Version: 6.00 Build 0)  -->
<!DOCTYPE svg PUBLIC "-//W3C//DTD SVG 1.1//EN" "http://www.w3.org/Graphics/SVG/1.1/DTD/svg11.dtd">
<svg version="1.1" id="Layer_1" xmlns="http://www.w3.org/2000/svg" xmlns:xlink="http://www.w3.org/1999/xlink" x="0px" y="0px"
	 width="64px" height="64px" viewBox="0 0 64 64" style="enable-background:new 0 0 64 64;" xml:space="preserve">
<g id="Triangle">
	<g>
		<polygon style="fill:#ED7161;" points="30,20 16,48 44,34 		"/>
	</g>
</g>
<g id="Triangle_3_">
	<g>
		<polygon style="fill:#FFCC66;" points="25.898,0.1 0,16 30,20 		"/>
	</g>
</g>
<g id="Triangle_2_">
	<g>
		<polygon style="fill:#88C057;" points="44,34 48,64 64,38 		"/>
	</g>
</g>
<g id="Cable">
	<g>
		<path style="fill-rule:evenodd;clip-rule:evenodd;fill:#CCCCCC;" d="M62,36C43.223,36,28,20.777,28,2c0-1.105-0.896-2-2-2
			c-1.105,0-2,0.895-2,2c0,20.986,17.014,38,38,38c1.104,0,2-0.896,2-2C64,36.895,63.104,36,62,36z"/>
	</g>
</g>
<g>
</g>
<g>
</g>
<g>
</g>
<g>
</g>
<g>
</g>
<g>
</g>
<g>
</g>
<g>
</g>
<g>
</g>
<g>
</g>
<g>
</g>
<g>
</g>
<g>
</g>
<g>
</g>
<g>
</g>
</svg>
