<?xml version="1.0" encoding="iso-8859-1"?>
<!-- Generator: Adobe Illustrator 16.0.0, SVG Export Plug-In . SVG Version: 6.00 Build 0)  -->
<!DOCTYPE svg PUBLIC "-//W3C//DTD SVG 1.1//EN" "http://www.w3.org/Graphics/SVG/1.1/DTD/svg11.dtd">
<svg version="1.1" id="Layer_1" xmlns="http://www.w3.org/2000/svg" xmlns:xlink="http://www.w3.org/1999/xlink" x="0px" y="0px"
	 width="64px" height="64px" viewBox="0 0 64 64" style="enable-background:new 0 0 64 64;" xml:space="preserve">
<g id="Elipse">
	<g>
		<path style="fill:#8C6845;" d="M32,12.004c-14.356,0-25.995,11.639-25.995,25.998C6.005,52.359,17.644,64,32,64
			s25.995-11.641,25.995-25.998C57.995,23.643,46.356,12.004,32,12.004z M32,60c-12.148,0-21.996-9.85-21.996-21.998
			c0-12.15,9.848-22,21.996-22s21.996,9.85,21.996,22C53.996,50.15,44.148,60,32,60z"/>
	</g>
</g>
<g id="Arc">
	<g>
		<path style="fill:#A67C52;" d="M32.006,26.01h-0.012C15.305,26.016,1.324,38.639,0,54.863c1.273,0.602,2.568,0.695,3.927,1.129
			C4.759,41.486,16.99,30.012,32,30.01c15.011,0.002,27.239,11.477,28.071,25.982c1.358-0.434,2.655-0.527,3.929-1.129
			C62.676,38.639,48.692,26.016,32.006,26.01z"/>
	</g>
</g>
<g id="Arc_3_">
	<g>
		<path style="fill:#8C6845;" d="M63.326,50.771c-3.938,2.076-8.43,3.262-13.204,3.262c-15.524,0-28.108-12.439-28.108-27.787
			c0-8.506,3.887-16.09,9.98-21.184V0c-8.48,5.717-13.997,15.33-13.997,26.246c0,17.541,14.382,31.758,32.125,31.758
			c4.978,0,9.674-1.152,13.878-3.15C63.861,53.465,63.641,52.102,63.326,50.771z"/>
	</g>
</g>
<g id="Arc_2_">
	<g>
		<path style="fill:#BF8E5E;" d="M32.006,0v5.063c6.095,5.094,9.98,12.678,9.98,21.184c0,15.348-12.584,27.787-28.108,27.787
			c-4.774,0-9.266-1.186-13.204-3.262C0.359,52.102,0.139,53.465,0,54.854c4.204,1.998,8.9,3.15,13.878,3.15
			c17.743,0,32.125-14.217,32.125-31.758C46.003,15.33,40.486,5.717,32.006,0z"/>
	</g>
</g>
<g>
</g>
<g>
</g>
<g>
</g>
<g>
</g>
<g>
</g>
<g>
</g>
<g>
</g>
<g>
</g>
<g>
</g>
<g>
</g>
<g>
</g>
<g>
</g>
<g>
</g>
<g>
</g>
<g>
</g>
</svg>
