<?xml version="1.0" encoding="iso-8859-1"?>
<!-- Generator: Adobe Illustrator 16.0.0, SVG Export Plug-In . SVG Version: 6.00 Build 0)  -->
<!DOCTYPE svg PUBLIC "-//W3C//DTD SVG 1.1//EN" "http://www.w3.org/Graphics/SVG/1.1/DTD/svg11.dtd">
<svg version="1.1" id="Layer_1" xmlns="http://www.w3.org/2000/svg" xmlns:xlink="http://www.w3.org/1999/xlink" x="0px" y="0px"
	 width="48px" height="64px" viewBox="0 0 48 64" style="enable-background:new 0 0 48 64;" xml:space="preserve">
<g id="Ribbon_34_">
	<g>
		<path style="fill-rule:evenodd;clip-rule:evenodd;fill:#387BA8;" d="M0,56h10l6,8l6-18l-12-6L0,56z M38,40l-12,6l6,18l6-8h10
			L38,40z"/>
	</g>
</g>
<g id="Flower_4_">
	<g>
		<path style="fill-rule:evenodd;clip-rule:evenodd;fill:#ED7161;" d="M48,24c0-2.446-1.469-4.541-3.566-5.476
			c1.35-1.858,1.574-4.407,0.352-6.524c-1.225-2.119-3.543-3.199-5.826-2.959c0.24-2.284-0.842-4.603-2.959-5.826
			c-2.117-1.223-4.666-0.999-6.525,0.352C28.541,1.468,26.445,0,24,0s-4.541,1.468-5.475,3.566C16.666,2.216,14.117,1.992,12,3.215
			C9.883,4.438,8.801,6.757,9.041,9.041C6.756,8.801,4.438,9.881,3.215,12c-1.223,2.117-0.998,4.666,0.352,6.524
			C1.467,19.459,0,21.554,0,24c0,2.444,1.467,4.54,3.566,5.475C2.217,31.333,1.992,33.882,3.215,36
			c1.223,2.117,3.541,3.197,5.826,2.957c-0.24,2.285,0.842,4.604,2.959,5.826c2.117,1.224,4.666,1,6.525-0.351
			C19.459,46.531,21.555,48,24,48s4.541-1.469,5.475-3.567c1.859,1.351,4.408,1.574,6.525,0.351
			c2.117-1.223,3.199-3.541,2.959-5.826c2.283,0.24,4.602-0.84,5.826-2.957c1.223-2.118,0.998-4.667-0.352-6.525
			C46.531,28.54,48,26.444,48,24z"/>
	</g>
</g>
<g id="Container_10_">
	<g>
		<circle style="fill:#FFFFFF;" cx="24" cy="24" r="16"/>
	</g>
</g>
<g id="Center_8_">
	<g>
		<circle style="fill:#48A0DC;" cx="24" cy="24" r="12"/>
	</g>
</g>
<g>
</g>
<g>
</g>
<g>
</g>
<g>
</g>
<g>
</g>
<g>
</g>
<g>
</g>
<g>
</g>
<g>
</g>
<g>
</g>
<g>
</g>
<g>
</g>
<g>
</g>
<g>
</g>
<g>
</g>
</svg>
