<?xml version="1.0" encoding="iso-8859-1"?>
<!-- Generator: Adobe Illustrator 16.0.0, SVG Export Plug-In . SVG Version: 6.00 Build 0)  -->
<!DOCTYPE svg PUBLIC "-//W3C//DTD SVG 1.1//EN" "http://www.w3.org/Graphics/SVG/1.1/DTD/svg11.dtd">
<svg version="1.1" id="Layer_1" xmlns="http://www.w3.org/2000/svg" xmlns:xlink="http://www.w3.org/1999/xlink" x="0px" y="0px"
	 width="64px" height="63.998px" viewBox="0 0 64 63.998" style="enable-background:new 0 0 64 63.998;" xml:space="preserve">
<g id="Brim_4_">
	<g>
		<path style="fill:#48A0DC;" d="M60,41.998c-2,0-4,2.002-10,2.002H14c-6,0-8-2.002-10-2.002c-2.002,0-4,2.002-4,4
			c0,4.02,11.977,18,32,18c20.021,0,32-14,32-18C64,44,62,41.998,60,41.998z"/>
	</g>
</g>
<g id="Crown_5_">
	<g>
		<path style="fill:#ED7161;" d="M32,0C20.953,0,10,1.791,10,4c0,0,4,16,4,28h36c0-12,4-28,4-28C54,1.791,43.045,0,32,0z"/>
	</g>
</g>
<g id="Crown_6_">
	<g>
		<path style="fill:#387BA8;" d="M14,32c0,0,0,14,0,16s12,4,18,4s18-2,18-4s0-16,0-16H14z"/>
	</g>
</g>
<g id="Stars">
	<g>
		<path style="fill-rule:evenodd;clip-rule:evenodd;fill:#FFFFFF;" d="M46,40h-4l-2-4l-2,4h-4l2.939,3.451L36,48l4-2l4,2
			l-0.939-4.549L46,40z M26,40l-2-4l-2,4h-4l2.939,3.451L20,48l4-2l4,2l-0.939-4.549L30,40H26z"/>
	</g>
</g>
<g id="Stripes_2_">
	<g>
		<path style="fill-rule:evenodd;clip-rule:evenodd;fill:#FFFFFF;" d="M36,0.078V32h6l1.957-31.298
			C41.523,0.401,38.811,0.186,36,0.078z M22,32h6V0.078c-2.811,0.107-5.523,0.323-7.957,0.624L22,32z"/>
	</g>
</g>
<g>
</g>
<g>
</g>
<g>
</g>
<g>
</g>
<g>
</g>
<g>
</g>
<g>
</g>
<g>
</g>
<g>
</g>
<g>
</g>
<g>
</g>
<g>
</g>
<g>
</g>
<g>
</g>
<g>
</g>
</svg>
