<?xml version="1.0" encoding="iso-8859-1"?>
<!-- Generator: Adobe Illustrator 16.0.0, SVG Export Plug-In . SVG Version: 6.00 Build 0)  -->
<!DOCTYPE svg PUBLIC "-//W3C//DTD SVG 1.1//EN" "http://www.w3.org/Graphics/SVG/1.1/DTD/svg11.dtd">
<svg version="1.1" id="Layer_1" xmlns="http://www.w3.org/2000/svg" xmlns:xlink="http://www.w3.org/1999/xlink" x="0px" y="0px"
	 width="64px" height="64px" viewBox="0 0 64 64" style="enable-background:new 0 0 64 64;" xml:space="preserve">
<g id="Head_84_">
	<g>
		<path style="fill-rule:evenodd;clip-rule:evenodd;fill:#FFCC66;" d="M47.002,15.998c1.656,0,3-3.135,3-7s-3-6.998-3-6.998
			s-3,3.133-3,6.998S45.345,15.998,47.002,15.998z M52.001,9.998c1.104,0,2-2.238,2-4.998c0-2.762-2-5-2-5s-1.999,2.238-1.999,5
			C50.002,7.76,50.898,9.998,52.001,9.998z M26.392,37.609c0.977-2.188,1.612-5.674,1.612-9.613c0-6.625-3.999-11.998-3.999-11.998
			s-3.999,5.373-3.999,11.998c0,6.627,1.79,12,3.999,12c0,2.207,5.372,3.998,11.999,3.998c6.626,0,11.998-3.998,11.998-3.998
			s-5.372-4-11.998-4C32.065,35.996,28.58,36.633,26.392,37.609z M34.571,29.43c0.876-2.018,1.434-5.045,1.434-8.432
			c0-6.076-4-11-4-11s-4,4.924-4,11c0,6.072,1.791,10.998,4,10.998c0,2.209,4.924,4,10.999,4c6.074,0,10.998-4,10.998-4
			s-4.924-4-10.998-4C39.616,27.996,36.588,28.555,34.571,29.43z M42.737,21.264c0.775-1.822,1.266-4.393,1.266-7.266
			C44.002,8.475,40.003,4,40.003,4s-3.999,4.475-3.999,9.998s1.79,9.998,3.999,9.998c0,2.209,4.477,4,9.999,4
			c5.521,0,9.998-4,9.998-4s-4.477-3.998-9.998-3.998C47.13,19.998,44.56,20.488,42.737,21.264z M48.002,16.998
			c0,1.656,3.134,3,6.999,3c3.866,0,6.999-3,6.999-3s-3.133-3-6.999-3C51.136,13.998,48.002,15.342,48.002,16.998z M54.001,11.998
			c0,1.104,2.238,2,5,2c2.761,0,4.999-2,4.999-2s-2.238-2-4.999-2C56.24,9.998,54.001,10.893,54.001,11.998z M61.233,7.23
			C63.7,4.766,64,0,64,0s-4.766,0.301-7.232,2.768c-2.466,2.467-3.466,5.463-2.232,6.695C55.769,10.697,58.768,9.697,61.233,7.23z
			 M18.393,45.607c0.978-2.188,1.613-5.674,1.613-9.611c0-6.629-4-12-4-12s-3.999,5.371-3.999,12c0,6.625,1.79,11.998,3.999,11.998
			c0,2.209,5.371,4,11.998,4s11.999-4,11.999-4s-5.372-4-11.999-4C24.065,43.994,20.581,44.629,18.393,45.607z M10.741,53.26
			c0.775-1.822,1.267-4.395,1.267-7.266c0-5.521-4-9.998-4-9.998s-3.999,4.477-3.999,9.998c0,5.523,1.79,10,3.999,10
			c0,2.209,4.478,3.998,9.999,3.998s9.998-3.998,9.998-3.998s-4.477-4-9.998-4C15.135,51.994,12.565,52.484,10.741,53.26z"/>
	</g>
</g>
<g id="Base_34_">
	<g>
		<path style="fill:#CCA352;" d="M57.428,6.57c-0.775-0.775-2.033-0.775-2.81,0L0.582,60.609c-0.775,0.775-0.775,2.033,0,2.809
			s2.033,0.775,2.809,0L57.428,9.379C58.204,8.604,58.204,7.346,57.428,6.57z"/>
	</g>
</g>
<g>
</g>
<g>
</g>
<g>
</g>
<g>
</g>
<g>
</g>
<g>
</g>
<g>
</g>
<g>
</g>
<g>
</g>
<g>
</g>
<g>
</g>
<g>
</g>
<g>
</g>
<g>
</g>
<g>
</g>
</svg>
