<?xml version="1.0" encoding="iso-8859-1"?>
<!-- Generator: Adobe Illustrator 16.0.0, SVG Export Plug-In . SVG Version: 6.00 Build 0)  -->
<!DOCTYPE svg PUBLIC "-//W3C//DTD SVG 1.1//EN" "http://www.w3.org/Graphics/SVG/1.1/DTD/svg11.dtd">
<svg version="1.1" id="Layer_1" xmlns="http://www.w3.org/2000/svg" xmlns:xlink="http://www.w3.org/1999/xlink" x="0px" y="0px"
	 width="52px" height="64px" viewBox="0 0 52 64" style="enable-background:new 0 0 52 64;" xml:space="preserve">
<g id="Cover">
	<g>
		<path style="fill-rule:evenodd;clip-rule:evenodd;fill:#48A0DC;" d="M48,0H14H4H0v4v56.001V64h4h10h34c2.209,0,4-1.79,4-3.999V4
			C52,1.791,50.209,0,48,0z"/>
	</g>
</g>
<g id="Cover_1_">
	<g>
		<rect style="fill:#387BA8;" width="8" height="64"/>
	</g>
</g>
<g id="Music_Shape">
	<g>
		<path style="fill-rule:evenodd;clip-rule:evenodd;fill:#FFFFFF;" d="M39.654,21.353c-2.979-4.052-7.21-5.05-9.678-5.271
			c-0.056-1.157-0.92-2.08-1.987-2.08c-1.104,0-1.997,0.983-1.997,2.195V42.23c-0.627-0.148-1.299-0.233-2.002-0.233
			c-3.311,0-5.994,1.791-5.994,4.003c0,2.211,2.684,4.004,5.994,4.004c3.138,0,5.707-1.611,5.968-3.661
			C29.985,46.265,30,46.153,30,46.001l-0.011-25.547c5.091,0.798,7.965,4.532,8.007,7.48c-0.002,0.028-0.009,0.054-0.009,0.082
			c0,1.102,0.896,1.995,2.002,1.995c1.106,0,2.003-0.894,2.003-1.995c0-0.003-0.001-0.006-0.001-0.009
			C41.992,28.005,42,28.004,42,28.001C42,26.368,42.309,24.962,39.654,21.353z"/>
	</g>
</g>
<g>
</g>
<g>
</g>
<g>
</g>
<g>
</g>
<g>
</g>
<g>
</g>
<g>
</g>
<g>
</g>
<g>
</g>
<g>
</g>
<g>
</g>
<g>
</g>
<g>
</g>
<g>
</g>
<g>
</g>
</svg>
