<?xml version="1.0" encoding="iso-8859-1"?>
<!-- Generator: Adobe Illustrator 16.0.0, SVG Export Plug-In . SVG Version: 6.00 Build 0)  -->
<!DOCTYPE svg PUBLIC "-//W3C//DTD SVG 1.1//EN" "http://www.w3.org/Graphics/SVG/1.1/DTD/svg11.dtd">
<svg version="1.1" id="Layer_1" xmlns="http://www.w3.org/2000/svg" xmlns:xlink="http://www.w3.org/1999/xlink" x="0px" y="0px"
	 width="64px" height="56px" viewBox="0 0 64 56" style="enable-background:new 0 0 64 56;" xml:space="preserve">
<g id="Base_23_">
	<g>
		<path style="fill:#48A0DC;" d="M60,12.001H4c-2.209,0-4,1.79-4,3.999v36c0,2.209,1.791,4,4,4h56c2.209,0,4-1.791,4-4V16
			C64,13.791,62.209,12.001,60,12.001z"/>
	</g>
</g>
<g id="Shape_25_">
	<g>
		<path style="fill:#54BBFF;" d="M60,12.001H4c-2.209,0-4,1.79-4,3.999v4c0,2.21,1.791,4,4,4h56c2.209,0,4-1.79,4-4v-4
			C64,13.791,62.209,12.001,60,12.001z"/>
	</g>
</g>
<g id="Speakers_1_">
	<g>
		<path style="fill-rule:evenodd;clip-rule:evenodd;fill:#387BA8;" d="M16,28.001C9.372,28.001,4,33.373,4,40
			c0,6.628,5.372,12,12,12c6.627,0,12-5.372,12-12C28,33.373,22.627,28.001,16,28.001z M48,28.001c-6.628,0-12,5.372-12,11.999
			c0,6.628,5.372,12,12,12c6.627,0,12-5.372,12-12C60,33.373,54.627,28.001,48,28.001z"/>
	</g>
</g>
<g id="Shape_26_">
	<g>
		<path style="fill-rule:evenodd;clip-rule:evenodd;fill:#4D4D4D;" d="M16,38.001c-1.104,0-2,0.895-2,1.999
			c0,1.105,0.896,2.001,2,2.001s2-0.896,2-2.001C18,38.896,17.104,38.001,16,38.001z M48,38.001c-1.104,0-2,0.895-2,1.999
			c0,1.105,0.896,2.001,2,2.001s2-0.896,2-2.001C50,38.896,49.104,38.001,48,38.001z"/>
	</g>
</g>
<g id="Handle">
	<g>
		<path style="fill-rule:evenodd;clip-rule:evenodd;fill:#CCCCCC;" d="M8,6.001C8,4.896,8.896,4,10,4h44c1.104,0,2,0.896,2,2.001v6
			h4V4c0-2.209-1.791-4-4-4H8C5.791,0,4,1.791,4,4v8.001h4V6.001z"/>
	</g>
</g>
<g id="Btns_9_">
	<g>
		<path style="fill-rule:evenodd;clip-rule:evenodd;fill:#FFFFFF;" d="M10,16c-1.104,0-2,0.896-2,2.001S8.896,20,10,20
			s2-0.895,2-1.999S11.104,16,10,16z M18,16c-1.104,0-2,0.896-2,2.001S16.896,20,18,20s2-0.895,2-1.999S19.104,16,18,16z"/>
	</g>
</g>
<g id="Btns_10_">
	<g>
		<path style="fill-rule:evenodd;clip-rule:evenodd;fill:#666666;" d="M46,16c-1.104,0-2,0.896-2,2.001S44.896,20,46,20
			s2-0.895,2-1.999S47.104,16,46,16z M54,16c-1.104,0-2,0.896-2,2.001S52.896,20,54,20s2-0.895,2-1.999S55.104,16,54,16z"/>
	</g>
</g>
<g>
</g>
<g>
</g>
<g>
</g>
<g>
</g>
<g>
</g>
<g>
</g>
<g>
</g>
<g>
</g>
<g>
</g>
<g>
</g>
<g>
</g>
<g>
</g>
<g>
</g>
<g>
</g>
<g>
</g>
</svg>
