<?xml version="1.0" encoding="iso-8859-1"?>
<!-- Generator: Adobe Illustrator 16.0.0, SVG Export Plug-In . SVG Version: 6.00 Build 0)  -->
<!DOCTYPE svg PUBLIC "-//W3C//DTD SVG 1.1//EN" "http://www.w3.org/Graphics/SVG/1.1/DTD/svg11.dtd">
<svg version="1.1" id="Layer_1" xmlns="http://www.w3.org/2000/svg" xmlns:xlink="http://www.w3.org/1999/xlink" x="0px" y="0px"
	 width="64.002px" height="42px" viewBox="0 0 64.002 42" style="enable-background:new 0 0 64.002 42;" xml:space="preserve">
<g id="Base_28_">
	<g>
		<path style="fill:#CCCCCC;" d="M60.002,0H4C1.791,0,0,1.79,0,4v34c0,2.209,1.791,4,4,4h56.002c2.209,0,4-1.791,4-4V4
			C64.002,1.79,62.211,0,60.002,0z"/>
	</g>
</g>
<g id="Shape_31_">
	<g>
		<rect x="4" y="4" style="fill:#E6E6E6;" width="56.002" height="34"/>
	</g>
</g>
<g id="Shape_32_">
	<g>
		<path style="fill:#999999;" d="M48.073,30.992c-0.41-0.645-1.159-0.972-1.923-0.962C46.099,30.025,46.055,30,46.002,30H18
			c-0.053,0-0.097,0.025-0.148,0.03c-0.764-0.01-1.514,0.317-1.923,0.962L8.942,42h5.039h36.041h5.039L48.073,30.992z"/>
	</g>
</g>
<g id="Holes_4_">
	<g>
		<path style="fill-rule:evenodd;clip-rule:evenodd;fill:#FFFFFF;" d="M22.001,34c-1.105,0-2,0.896-2,2s0.896,2,2,2
			c1.104,0,2-0.896,2-2S23.105,34,22.001,34z M42.001,34c-1.104,0-2,0.896-2,2s0.896,2,2,2s2-0.896,2-2S43.106,34,42.001,34z"/>
	</g>
</g>
<g id="Label_5_">
	<g>
		<path style="fill:#ED7161;" d="M36.001,16h-8c-1.104,0-2,0.895-2,2c0,1.104,0.896,1.999,2,1.999h8c1.104,0,2-0.895,2-1.999
			C38.001,16.895,37.106,16,36.001,16z"/>
	</g>
</g>
<g id="Holes_5_">
	<g>
		<path style="fill-rule:evenodd;clip-rule:evenodd;fill:#666666;" d="M18,14c-2.209,0-4,1.791-4,4s1.791,4,4,4c2.209,0,4-1.791,4-4
			S20.21,14,18,14z M46.002,14c-2.209,0-4,1.791-4,4s1.791,4,4,4c2.209,0,4-1.791,4-4S48.211,14,46.002,14z"/>
	</g>
</g>
<g>
</g>
<g>
</g>
<g>
</g>
<g>
</g>
<g>
</g>
<g>
</g>
<g>
</g>
<g>
</g>
<g>
</g>
<g>
</g>
<g>
</g>
<g>
</g>
<g>
</g>
<g>
</g>
<g>
</g>
</svg>
