<?xml version="1.0" encoding="iso-8859-1"?>
<!-- Generator: Adobe Illustrator 16.0.0, SVG Export Plug-In . SVG Version: 6.00 Build 0)  -->
<!DOCTYPE svg PUBLIC "-//W3C//DTD SVG 1.1//EN" "http://www.w3.org/Graphics/SVG/1.1/DTD/svg11.dtd">
<svg version="1.1" id="Layer_1" xmlns="http://www.w3.org/2000/svg" xmlns:xlink="http://www.w3.org/1999/xlink" x="0px" y="0px"
	 width="64.03px" height="64px" viewBox="0 0 64.03 64" style="enable-background:new 0 0 64.03 64;" xml:space="preserve">
<g id="Base_10_">
	<g>
		<path style="fill:#CCCCCC;" d="M64.015,50V4c0-2.209-1.791-4-4-4h-56c-2.209,0-4,1.791-4,4v46c0,2.209-0.475,5.508,4,8
			c0,0,13.208,6,26.795,6c14.39,0,29.205-6,29.205-6C64.506,56.223,64.015,52.209,64.015,50z"/>
	</g>
</g>
<g id="Base_11_">
	<g>
		<path style="fill:#E6E6E6;" d="M64.015,42.001V4c0-2.209-1.791-4-4-4h-56c-2.209,0-4,1.791-4,4v38.001
			c0,2.209-0.475,5.507,4,7.999c0,0,13.208,6,26.795,6c14.39,0,29.205-6,29.205-6C64.506,48.223,64.015,44.21,64.015,42.001z"/>
	</g>
</g>
<g id="Display_1_">
	<g>
		<path style="fill:#88C057;" d="M42.015,38.001h-20c-1.105,0-2,0.896-2,1.999v4c0,1.104,0.895,2.001,2,2.001h20
			c1.104,0,2-0.896,2-2.001v-4C44.015,38.896,43.119,38.001,42.015,38.001z"/>
	</g>
</g>
<g id="Btns_2_">
	<g>
		<path style="fill-rule:evenodd;clip-rule:evenodd;fill:#B3B3B3;" d="M12.015,40h-4c-1.105,0-2,0.896-2,2.001S6.909,44,8.015,44h4
			c1.104,0,2-0.895,2-1.999S13.119,40,12.015,40z M56.015,40h-4c-1.105,0-2,0.896-2,2.001s0.895,1.999,2,1.999h4
			c1.104,0,2-0.895,2-1.999S57.119,40,56.015,40z"/>
	</g>
</g>
<g>
</g>
<g>
</g>
<g>
</g>
<g>
</g>
<g>
</g>
<g>
</g>
<g>
</g>
<g>
</g>
<g>
</g>
<g>
</g>
<g>
</g>
<g>
</g>
<g>
</g>
<g>
</g>
<g>
</g>
</svg>
