<?xml version="1.0" encoding="iso-8859-1"?>
<!-- Generator: Adobe Illustrator 16.0.0, SVG Export Plug-In . SVG Version: 6.00 Build 0)  -->
<!DOCTYPE svg PUBLIC "-//W3C//DTD SVG 1.1//EN" "http://www.w3.org/Graphics/SVG/1.1/DTD/svg11.dtd">
<svg version="1.1" id="Layer_1" xmlns="http://www.w3.org/2000/svg" xmlns:xlink="http://www.w3.org/1999/xlink" x="0px" y="0px"
	 width="64.007px" height="60.018px" viewBox="0 0 64.007 60.018" style="enable-background:new 0 0 64.007 60.018;"
	 xml:space="preserve">
<g id="Body_43_">
	<g>
		<path style="fill-rule:evenodd;clip-rule:evenodd;fill:#88C057;" d="M58,6.017c-1.051-1.05-6.66-6.357-8-5.999
			c-0.659,0.176-3.483,7.482-4,8L10.336,46.782C11.34,47.509,12,48.683,12,50.017c0,2.21-1.791,4.001-4,4.001
			c-1.215,0-2.29-0.554-3.024-1.409L0,58.018v2h10l46-42c0.596-0.596,7.857-3.23,8-4.001C64.233,12.76,58.973,6.99,58,6.017z"/>
	</g>
</g>
<g id="Holes_9_">
	<g>
		<path style="fill-rule:evenodd;clip-rule:evenodd;fill:#638C3F;" d="M16,38.018c-1.104,0-2,0.896-2,2s0.896,2,2,2s2-0.896,2-2
			S17.104,38.018,16,38.018z M22,32.018c-1.104,0-2,0.896-2,2c0,1.104,0.896,2,2,2s2-0.896,2-2C24,32.913,23.104,32.018,22,32.018z
			 M28,26.017c-1.104,0-2,0.896-2,2.001c0,1.104,0.896,1.999,2,1.999s2-0.895,2-1.999C30,26.912,29.104,26.017,28,26.017z
			 M34,20.018c-1.104,0-2,0.896-2,1.999c0,1.105,0.896,2.001,2,2.001s2-0.896,2-2.001C36,20.913,35.104,20.018,34,20.018z
			 M40,14.017c-1.104,0-2,0.896-2,2.001c0,1.104,0.896,2,2,2s2-0.896,2-2C42,14.912,41.104,14.017,40,14.017z"/>
	</g>
</g>
<g>
</g>
<g>
</g>
<g>
</g>
<g>
</g>
<g>
</g>
<g>
</g>
<g>
</g>
<g>
</g>
<g>
</g>
<g>
</g>
<g>
</g>
<g>
</g>
<g>
</g>
<g>
</g>
<g>
</g>
</svg>
