<?xml version="1.0" encoding="iso-8859-1"?>
<!-- Generator: Adobe Illustrator 16.0.0, SVG Export Plug-In . SVG Version: 6.00 Build 0)  -->
<!DOCTYPE svg PUBLIC "-//W3C//DTD SVG 1.1//EN" "http://www.w3.org/Graphics/SVG/1.1/DTD/svg11.dtd">
<svg version="1.1" id="Layer_1" xmlns="http://www.w3.org/2000/svg" xmlns:xlink="http://www.w3.org/1999/xlink" x="0px" y="0px"
	 width="64px" height="64.046px" viewBox="0 0 64 64.046" style="enable-background:new 0 0 64 64.046;" xml:space="preserve">
<g id="Tripod_1_">
	<g>
		<path style="fill-rule:evenodd;clip-rule:evenodd;fill:#CCCCCC;" d="M43.711,60.969L34.02,44.98
			c-0.006-0.009-0.014-0.017-0.02-0.026V2.001C34,0.896,33.104,0,32,0s-2,0.896-2,2.001v42.954c-0.006,0.009-0.014,0.017-0.02,0.026
			l-9.692,15.988c-0.595,0.981-0.241,2.236,0.789,2.803c1.03,0.565,2.347,0.229,2.941-0.751L30,53.154v6.847
			C30,61.105,30.896,62,32,62s2-0.895,2-1.999v-6.846l5.98,9.865c0.595,0.98,1.912,1.316,2.942,0.751
			C43.953,63.205,44.307,61.95,43.711,60.969z"/>
	</g>
</g>
<g id="Cymbal">
	<g>
		<path style="fill-rule:evenodd;clip-rule:evenodd;fill:#CCA352;" d="M32,4.001c-3.313,0-6,2.686-6,6h12
			C38,6.687,35.313,4.001,32,4.001z M32,24.001c3.313,0,6-2.687,6-6H26C26,21.314,28.687,24.001,32,24.001z"/>
	</g>
</g>
<g id="Cymbal_1_">
	<g>
		<path style="fill-rule:evenodd;clip-rule:evenodd;fill:#FFCC66;" d="M44,8H20C15.582,8,0,7.582,0,12h64C64,7.582,48.418,8,44,8z
			 M20,20.001h24c4.418,0,20,0.418,20-4.001H0C0,20.419,15.582,20.001,20,20.001z"/>
	</g>
</g>
<g>
</g>
<g>
</g>
<g>
</g>
<g>
</g>
<g>
</g>
<g>
</g>
<g>
</g>
<g>
</g>
<g>
</g>
<g>
</g>
<g>
</g>
<g>
</g>
<g>
</g>
<g>
</g>
<g>
</g>
</svg>
