<?xml version="1.0" encoding="iso-8859-1"?>
<!-- Generator: Adobe Illustrator 16.0.0, SVG Export Plug-In . SVG Version: 6.00 Build 0)  -->
<!DOCTYPE svg PUBLIC "-//W3C//DTD SVG 1.1//EN" "http://www.w3.org/Graphics/SVG/1.1/DTD/svg11.dtd">
<svg version="1.1" id="Layer_1" xmlns="http://www.w3.org/2000/svg" xmlns:xlink="http://www.w3.org/1999/xlink" x="0px" y="0px"
	 width="44px" height="63.876px" viewBox="0 0 44 63.876" style="enable-background:new 0 0 44 63.876;" xml:space="preserve">
<g id="Base_35_">
	<g>
		<path style="fill:#FF8833;" d="M38,0H6C3.791,0,2,1.788,2,3.992v55.892c0,2.205,1.791,3.992,4,3.992h32c2.209,0,4-1.787,4-3.992
			V3.992C42,1.788,40.209,0,38,0z"/>
	</g>
</g>
<g id="Knobs_3_">
	<g>
		<path style="fill-rule:evenodd;clip-rule:evenodd;fill:#B35F24;" d="M12,3.992c-2.209,0-4,1.787-4,3.992s1.791,3.992,4,3.992
			s4-1.787,4-3.992S14.209,3.992,12,3.992z M22,11.977c-2.209,0-4,1.787-4,3.992s1.791,3.992,4,3.992s4-1.787,4-3.992
			S24.209,11.977,22,11.977z M32,3.992c-2.209,0-4,1.787-4,3.992s1.791,3.992,4,3.992s4-1.787,4-3.992S34.209,3.992,32,3.992z"/>
	</g>
</g>
<g id="Pedal_Body">
	<g>
		<path style="fill:#FF9E59;" d="M40,23.953H4c-2.209,0-4,1.787-4,3.992v31.938c0,2.205,1.791,3.992,4,3.992h36
			c2.209,0,4-1.787,4-3.992V27.945C44,25.74,42.209,23.953,40,23.953z"/>
	</g>
</g>
<g id="Pedal">
	<g>
		<path style="fill:#333333;" d="M36,27.945H8c-2.209,0-4,1.787-4,3.992v23.954c0,2.204,1.791,3.992,4,3.992h28
			c2.209,0,4-1.788,4-3.992V31.938C40,29.732,38.209,27.945,36,27.945z"/>
	</g>
</g>
<g id="Stripes_6_">
	<g>
		<path style="fill-rule:evenodd;clip-rule:evenodd;fill:#4D4D4D;" d="M10,31.938c-1.104,0-2,0.894-2,1.996v19.962
			c0,1.102,0.896,1.996,2,1.996s2-0.895,2-1.996V33.934C12,32.831,11.104,31.938,10,31.938z M18,31.938c-1.104,0-2,0.894-2,1.996
			v19.962c0,1.102,0.896,1.996,2,1.996s2-0.895,2-1.996V33.934C20,32.831,19.104,31.938,18,31.938z M26,31.938
			c-1.104,0-2,0.894-2,1.996v19.962c0,1.102,0.896,1.996,2,1.996s2-0.895,2-1.996V33.934C28,32.831,27.104,31.938,26,31.938z
			 M34,31.938c-1.104,0-2,0.894-2,1.996v19.962c0,1.102,0.896,1.996,2,1.996s2-0.895,2-1.996V33.934
			C36,32.831,35.104,31.938,34,31.938z"/>
	</g>
</g>
<g>
</g>
<g>
</g>
<g>
</g>
<g>
</g>
<g>
</g>
<g>
</g>
<g>
</g>
<g>
</g>
<g>
</g>
<g>
</g>
<g>
</g>
<g>
</g>
<g>
</g>
<g>
</g>
<g>
</g>
</svg>
