<?xml version="1.0" encoding="iso-8859-1"?>
<!-- Generator: Adobe Illustrator 16.0.0, SVG Export Plug-In . SVG Version: 6.00 Build 0)  -->
<!DOCTYPE svg PUBLIC "-//W3C//DTD SVG 1.1//EN" "http://www.w3.org/Graphics/SVG/1.1/DTD/svg11.dtd">
<svg version="1.1" id="Layer_1" xmlns="http://www.w3.org/2000/svg" xmlns:xlink="http://www.w3.org/1999/xlink" x="0px" y="0px"
	 width="64px" height="63.992px" viewBox="0 0 64 63.992" style="enable-background:new 0 0 64 63.992;" xml:space="preserve">
<g id="Cable_9_">
	<g>
		<polygon style="fill:#ED7161;" points="40,42.012 36,46.012 46,63.992 52,63.992 		"/>
	</g>
</g>
<g id="Base_7_">
	<g>
		<path style="fill-rule:evenodd;clip-rule:evenodd;fill:#4D4D4D;" d="M28,13.999C28,6.268,21.731,0,14,0C6.268,0,0,6.268,0,13.999
			c0,0.004,0,0.009,0,0.013h0c0,9.078,5.878,21.803,5.98,35.982h16.038C22.121,35.814,28,23.09,28,14.012h0
			C28,14.008,28,14.003,28,13.999z"/>
	</g>
</g>
<g id="Plug_13_">
	<g>
		<path style="fill-rule:evenodd;clip-rule:evenodd;fill:#4D4D4D;" d="M52,0c-4.448,0-8.321,2.426-10.394,6.02
			C38.477,6.224,36,8.818,36,11.999s2.477,5.775,5.606,5.979c2.073,3.594,5.946,6.02,10.394,6.02c6.627,0,12-5.373,12-11.999
			S58.627,0,52,0z"/>
	</g>
</g>
<g id="Shape_11_">
	<g>
		<path style="fill-rule:evenodd;clip-rule:evenodd;fill:#CCCCCC;" d="M45.863,50.977c-0.021-0.079-0.06-0.147-0.085-0.224
			l0.017-0.006l-6-18.001l-0.017,0.006c-0.664-1.991-2.759-3.154-4.813-2.604c-2.134,0.572-3.4,2.766-2.828,4.899
			c0.021,0.079,0.06,0.147,0.085,0.224l-0.017,0.006l6,18l0.017-0.006c0.663,1.992,2.759,3.155,4.813,2.604
			C45.169,55.304,46.436,53.11,45.863,50.977z"/>
	</g>
</g>
<g id="Shape_12_">
	<g>
		<path style="fill-rule:evenodd;clip-rule:evenodd;fill:#4D4D4D;" d="M43.863,44.977c-0.021-0.079-0.06-0.147-0.085-0.224
			l0.017-0.006L40,33.361V4c0-2.209-1.791-4-4-4s-4,1.791-4,4v29.996c0,0.04,0.011,0.076,0.012,0.116
			c0.004,0.146,0.024,0.292,0.044,0.439c0.017,0.12,0.031,0.239,0.058,0.355c0.011,0.047,0.01,0.093,0.022,0.14
			c0.021,0.079,0.06,0.147,0.085,0.224l-0.017,0.006l4,12l0.017-0.006c0.663,1.992,2.759,3.155,4.813,2.604
			C43.169,49.304,44.436,47.11,43.863,44.977z"/>
	</g>
</g>
<g id="Shape_13_">
	<g>
		<rect x="6" y="49.994" style="fill:#CCCCCC;" width="16" height="3.999"/>
	</g>
</g>
<g id="Cable_10_">
	<g>
		<rect x="10" y="53.993" style="fill:#ED7161;" width="8" height="9.999"/>
	</g>
</g>
<g id="Logo_Base">
	<g>
		<circle style="fill:#ED7161;" cx="14" cy="13.999" r="7.999"/>
	</g>
</g>
<g id="Beats_Logo">
	<g>
		<path style="fill-rule:evenodd;clip-rule:evenodd;fill:#ED7161;" d="M16.438,13.998c0-1.347-1.092-2.438-2.438-2.438
			c-1.348,0-2.438,1.091-2.438,2.438c0,1.348,1.091,2.438,2.438,2.438C15.347,16.437,16.438,15.346,16.438,13.998z M14,5.999
			c-0.763,0-1.498,0.109-2.197,0.309v4.323c0.632-0.413,1.387-0.653,2.197-0.653c2.221,0,4.021,1.8,4.021,4.021
			c0,2.222-1.801,4.021-4.021,4.021c-2.222,0-4.021-1.8-4.021-4.021c0-0.07,0.002-0.143,0.006-0.213L9.979,13.79V7.085
			C7.6,8.471,6,11.047,6,13.998c0,4.418,3.582,7.999,8,7.999s7.999-3.581,7.999-7.999S18.418,5.999,14,5.999z"/>
	</g>
</g>
<g id="Ear_Hole">
	<g>
		<ellipse cx="58" cy="11.999" rx="2" ry="3.999"/>
	</g>
</g>
<g>
</g>
<g>
</g>
<g>
</g>
<g>
</g>
<g>
</g>
<g>
</g>
<g>
</g>
<g>
</g>
<g>
</g>
<g>
</g>
<g>
</g>
<g>
</g>
<g>
</g>
<g>
</g>
<g>
</g>
</svg>
