<?xml version="1.0" encoding="iso-8859-1"?>
<!-- Generator: Adobe Illustrator 16.0.0, SVG Export Plug-In . SVG Version: 6.00 Build 0)  -->
<!DOCTYPE svg PUBLIC "-//W3C//DTD SVG 1.1//EN" "http://www.w3.org/Graphics/SVG/1.1/DTD/svg11.dtd">
<svg version="1.1" id="Layer_1" xmlns="http://www.w3.org/2000/svg" xmlns:xlink="http://www.w3.org/1999/xlink" x="0px" y="0px"
	 width="44px" height="64px" viewBox="0 0 44 64" style="enable-background:new 0 0 44 64;" xml:space="preserve">
<g id="Ear">
	<g>
		<path style="fill:#F6CBAD;" d="M20,0C2.639,0,0,15.999,0,15.999L4,50c0,0,0.343,14,10,14c16.574,0,8.973-10.103,16-20
			c7.027-9.898,14-11.803,14-22C44,11.802,37.361,0,20,0z"/>
	</g>
</g>
<g id="Ear_Shape">
	<g>
		<path style="fill:#CC9C7A;" d="M21.585,10.013c-4.407,0-7.833,1.186-10.175,3.524c-3.412,3.41-3.408,8.151-3.404,10.088
			c0,5.771,2.184,8.697,6.516,8.697c3.418,0,4.548-2.613,5.342-4.116c0.589-1.114,1.019-1.742,2.044-1.993
			c1.612-0.395,3.165,0.189,3.165,4.052c0,2.229-1.061,2.823-2.488,3.808c-1.461,1.006-3.858,2.386-3.858,5.623v0.355
			c0,1.347,0.417,4.502-0.605,5.524c-0.146,0.146,0.04,0.296-0.442,0.296c-0.582,0-0.991-0.115-1.215-0.342
			c-0.551-0.557-0.471-1.109-0.463-1.846c0-1.193-1.027-2.105-2-2.105s-1.944,1-1.944,2.193l-0.002,0.28
			c-0.015,1.324-0.294,2.587,1.47,4.367c1.029,1.041,2.426,1.567,4.154,1.567c1.479,0,2.384-0.52,3.367-1.505
			c2.233-2.235,1.81-6.276,1.81-8.446v-0.34c0-1.035,0.774-1.341,2.079-2.239c1.619-1.117,4.468-2.806,4.468-7.191
			c0-4.304-0.564-8.167-7.395-8.167c-3.769,0-5.059,2.725-5.828,4.353c-0.766,1.616-0.963,1.757-1.633,1.757
			c-1.358,0-2.399-0.338-2.399-4.742c-0.002-1.442-0.011-4.819,2.193-7.021c1.538-1.537,3.977-2.315,7.248-2.315
			c9.446,0,10.352,7.857,10.406,8.795c0.059,1.066,0.948,1.883,2.1,1.834c1.103-0.053,1.953-0.961,1.898-2.029
			C35.768,18.329,32.449,10.013,21.585,10.013z"/>
	</g>
</g>
<g>
</g>
<g>
</g>
<g>
</g>
<g>
</g>
<g>
</g>
<g>
</g>
<g>
</g>
<g>
</g>
<g>
</g>
<g>
</g>
<g>
</g>
<g>
</g>
<g>
</g>
<g>
</g>
<g>
</g>
</svg>
