<?xml version="1.0" encoding="iso-8859-1"?>
<!-- Generator: Adobe Illustrator 16.0.0, SVG Export Plug-In . SVG Version: 6.00 Build 0)  -->
<!DOCTYPE svg PUBLIC "-//W3C//DTD SVG 1.1//EN" "http://www.w3.org/Graphics/SVG/1.1/DTD/svg11.dtd">
<svg version="1.1" id="Layer_1" xmlns="http://www.w3.org/2000/svg" xmlns:xlink="http://www.w3.org/1999/xlink" x="0px" y="0px"
	 width="64px" height="63.874px" viewBox="0 0 64 63.874" style="enable-background:new 0 0 64 63.874;" xml:space="preserve">
<g id="Body_49_">
	<g>
		<path style="fill-rule:evenodd;clip-rule:evenodd;fill:#9B7CAB;" d="M36,23.953c-3.168,0.374-6,1.996-6,1.996L4,35.93
			c0,0-4,1.787-4,3.991c0,2.205,1.791,3.993,4,3.993c0,0,8.426,0,12,0c2.916,0,4,0.977,4,3.992c0,3.87,0,11.976,0,11.976
			c0,2.205,1.791,3.992,4,3.992s4-3.992,4-3.992l10-25.948c0,0,1.188-1.766,2-5.988C40.833,23.614,40.388,23.435,36,23.953z"/>
	</g>
</g>
<g id="Pickup_2_">
	<g>
		<path style="fill:#FFFFFF;" d="M31.463,34.903l-2.49-2.485c-0.688-0.687-1.804-0.687-2.491,0c-0.688,0.687-0.688,1.8,0,2.485
			l2.491,2.487c0.688,0.687,1.803,0.687,2.49,0C32.151,36.704,32.151,35.59,31.463,34.903z"/>
	</g>
</g>
<g id="Controlls_1_">
	<g>
		<path style="fill-rule:evenodd;clip-rule:evenodd;fill:#FFFFFF;" d="M11,37.926c-0.553,0-1,0.446-1,0.998
			c0,0.551,0.447,0.997,1,0.997c0.552,0,1-0.446,1-0.997C12,38.372,11.552,37.926,11,37.926z M15,37.926c-0.553,0-1,0.446-1,0.998
			c0,0.551,0.447,0.997,1,0.997c0.552,0,1-0.446,1-0.997C16,38.372,15.552,37.926,15,37.926z"/>
	</g>
</g>
<g id="Headstock_2_">
	<g>
		<polygon style="fill-rule:evenodd;clip-rule:evenodd;fill:#666666;" points="62,0 54,1.996 53,6.986 32,27.945 36,31.938 
			57,10.979 62,9.98 64,1.996 64,0 		"/>
	</g>
</g>
<g>
</g>
<g>
</g>
<g>
</g>
<g>
</g>
<g>
</g>
<g>
</g>
<g>
</g>
<g>
</g>
<g>
</g>
<g>
</g>
<g>
</g>
<g>
</g>
<g>
</g>
<g>
</g>
<g>
</g>
</svg>
