<?xml version="1.0" encoding="iso-8859-1"?>
<!-- Generator: Adobe Illustrator 16.0.0, SVG Export Plug-In . SVG Version: 6.00 Build 0)  -->
<!DOCTYPE svg PUBLIC "-//W3C//DTD SVG 1.1//EN" "http://www.w3.org/Graphics/SVG/1.1/DTD/svg11.dtd">
<svg version="1.1" id="Layer_1" xmlns="http://www.w3.org/2000/svg" xmlns:xlink="http://www.w3.org/1999/xlink" x="0px" y="0px"
	 width="64px" height="64px" viewBox="0 0 64 64" style="enable-background:new 0 0 64 64;" xml:space="preserve">
<g id="Tube_1_">
	<g>
		<path style="fill:#E8AD72;" d="M58,0L3.12,55.386c-1.518,1.518-1.518,3.978,0,5.494c1.518,1.519,3.978,1.519,5.495,0L64,6L58,0z"
			/>
	</g>
</g>
<g id="Shape_46_">
	<g>
		<polygon style="fill:#B38557;" points="8.684,49.983 0,57.999 6,64 14.018,55.317 		"/>
	</g>
</g>
<g id="Hole_3_">
	<g>
		
			<rect x="2.604" y="55.741" transform="matrix(0.7071 -0.7071 0.7071 0.7071 -39.2377 21.2375)" style="fill:#664C32;" width="6.825" height="4.484"/>
	</g>
</g>
<g id="Holes_8_">
	<g>
		<path style="fill-rule:evenodd;clip-rule:evenodd;fill:#B38557;" d="M24.023,38.037c-1.105,0-2.002,0.896-2.002,2.002
			c0,1.105,0.896,2.002,2.002,2.002s2.002-0.896,2.002-2.002C26.025,38.933,25.129,38.037,24.023,38.037z M30.029,32.03
			c-1.105,0-2.002,0.897-2.002,2.003s0.896,2.002,2.002,2.002s2.002-0.896,2.002-2.002S31.135,32.03,30.029,32.03z M36.035,26.025
			c-1.105,0-2.002,0.896-2.002,2.002s0.896,2.002,2.002,2.002s2.002-0.896,2.002-2.002S37.141,26.025,36.035,26.025z M42.041,20.02
			c-1.105,0-2.002,0.896-2.002,2.002c0,1.105,0.896,2.002,2.002,2.002s2.002-0.896,2.002-2.002
			C44.043,20.915,43.146,20.02,42.041,20.02z M48.047,14.014c-1.105,0-2.002,0.896-2.002,2.001c0,1.106,0.896,2.003,2.002,2.003
			s2.002-0.896,2.002-2.003C50.049,14.909,49.152,14.014,48.047,14.014z"/>
	</g>
</g>
<g>
</g>
<g>
</g>
<g>
</g>
<g>
</g>
<g>
</g>
<g>
</g>
<g>
</g>
<g>
</g>
<g>
</g>
<g>
</g>
<g>
</g>
<g>
</g>
<g>
</g>
<g>
</g>
<g>
</g>
</svg>
