<?xml version="1.0" encoding="iso-8859-1"?>
<!-- Generator: Adobe Illustrator 16.0.0, SVG Export Plug-In . SVG Version: 6.00 Build 0)  -->
<!DOCTYPE svg PUBLIC "-//W3C//DTD SVG 1.1//EN" "http://www.w3.org/Graphics/SVG/1.1/DTD/svg11.dtd">
<svg version="1.1" id="Layer_1" xmlns="http://www.w3.org/2000/svg" xmlns:xlink="http://www.w3.org/1999/xlink" x="0px" y="0px"
	 width="104.039px" height="104.039px" viewBox="0 0 104.039 104.039" style="enable-background:new 0 0 104.039 104.039;"
	 xml:space="preserve">
<g id="Body_46_">
	<g>
		<path style="fill:#FFD580;" d="M80.02,20.02h-56c-2.209,0-4,1.79-4,4v56c0,2.209,1.791,4,4,4h56c2.209,0,4-1.791,4-4v-56
			C84.02,21.81,82.229,20.02,80.02,20.02z"/>
	</g>
</g>
<g id="Shape_48_">
	<g>
		<circle style="fill:#E8AD72;" cx="52.02" cy="52.02" r="24"/>
	</g>
</g>
<g id="Neck_4_">
	<g>
		<path style="fill-rule:evenodd;clip-rule:evenodd;fill:#666666;" d="M80.02,20.02H67.102l-20.54,20.539
			c-0.789,0.789-0.789,2.068,0,2.857L60.56,57.414c0.789,0.789,2.067,0.789,2.856,0L84.02,36.811V24.02
			C84.02,21.81,82.229,20.02,80.02,20.02z"/>
	</g>
</g>
<g id="Hole_4_">
	<g>
		<circle style="fill:#664C32;" cx="52.02" cy="52.019" r="16"/>
	</g>
</g>
<g id="Strings_3_">
	<g>
		<path style="fill-rule:evenodd;clip-rule:evenodd;fill:#999999;" d="M83.81,22.799L22.799,83.81
			c0.387,0.125,0.792,0.21,1.221,0.21h1.431L84.02,25.451V24.02C84.02,23.591,83.935,23.186,83.81,22.799z M80.02,20.02h-1.432
			L20.02,78.588v1.432c0,0.429,0.085,0.834,0.21,1.221L81.24,20.229C80.854,20.104,80.448,20.02,80.02,20.02z M33.45,84.02
			L84.02,33.45v-2.862L30.588,84.02H33.45z M70.588,20.02L20.02,70.588v2.862L73.45,20.02H70.588z"/>
	</g>
</g>
<g>
</g>
<g>
</g>
<g>
</g>
<g>
</g>
<g>
</g>
<g>
</g>
<g>
</g>
<g>
</g>
<g>
</g>
<g>
</g>
<g>
</g>
<g>
</g>
<g>
</g>
<g>
</g>
<g>
</g>
</svg>
