<?xml version="1.0" encoding="iso-8859-1"?>
<!-- Generator: Adobe Illustrator 16.0.0, SVG Export Plug-In . SVG Version: 6.00 Build 0)  -->
<!DOCTYPE svg PUBLIC "-//W3C//DTD SVG 1.1//EN" "http://www.w3.org/Graphics/SVG/1.1/DTD/svg11.dtd">
<svg version="1.1" id="Layer_1" xmlns="http://www.w3.org/2000/svg" xmlns:xlink="http://www.w3.org/1999/xlink" x="0px" y="0px"
	 width="64px" height="24.001px" viewBox="0 0 64 24.001" style="enable-background:new 0 0 64 24.001;" xml:space="preserve">
<g id="Base_30_">
	<g>
		<path style="fill:#B3B3B3;" d="M54,0H10C7.791,0,6,1.792,6,4h52C58,1.792,56.209,0,54,0z M10,24.001h44c2.209,0,4-1.792,4-4.001H6
			C6,22.209,7.791,24.001,10,24.001z"/>
	</g>
</g>
<g id="Body_29_">
	<g>
		<polygon style="fill-rule:evenodd;clip-rule:evenodd;fill:#FF8833;" points="62,4 2,4 0,4 0,6.001 0,18.001 0,20 2,20 62,20 
			64,20 64,18.001 64,6.001 64,4 		"/>
	</g>
</g>
<g id="Holes_6_">
	<g>
		<path style="fill-rule:evenodd;clip-rule:evenodd;fill:#A65821;" d="M8,8c-1.104,0-2,0.896-2,2.001v4C6,15.104,6.896,16,8,16
			s2-0.896,2-1.999v-4C10,8.896,9.104,8,8,8z M16,8c-1.104,0-2,0.896-2,2.001v4C14,15.104,14.896,16,16,16s2-0.896,2-1.999v-4
			C18,8.896,17.104,8,16,8z M24,8c-1.105,0-2,0.896-2,2.001v4C22,15.104,22.895,16,24,16c1.104,0,2-0.896,2-1.999v-4
			C26,8.896,25.104,8,24,8z M32,8c-1.104,0-2,0.896-2,2.001v4C30,15.104,30.896,16,32,16s2-0.896,2-1.999v-4C34,8.896,33.104,8,32,8
			z M40,8c-1.104,0-2,0.896-2,2.001v4C38,15.104,38.896,16,40,16s2-0.896,2-1.999v-4C42,8.896,41.104,8,40,8z M48,8
			c-1.104,0-2,0.896-2,2.001v4C46,15.104,46.896,16,48,16s2-0.896,2-1.999v-4C50,8.896,49.104,8,48,8z M56,8
			c-1.104,0-2,0.896-2,2.001v4C54,15.104,54.896,16,56,16s2-0.896,2-1.999v-4C58,8.896,57.104,8,56,8z"/>
	</g>
</g>
<g>
</g>
<g>
</g>
<g>
</g>
<g>
</g>
<g>
</g>
<g>
</g>
<g>
</g>
<g>
</g>
<g>
</g>
<g>
</g>
<g>
</g>
<g>
</g>
<g>
</g>
<g>
</g>
<g>
</g>
</svg>
