<?xml version="1.0" encoding="iso-8859-1"?>
<!-- Generator: Adobe Illustrator 16.0.0, SVG Export Plug-In . SVG Version: 6.00 Build 0)  -->
<!DOCTYPE svg PUBLIC "-//W3C//DTD SVG 1.1//EN" "http://www.w3.org/Graphics/SVG/1.1/DTD/svg11.dtd">
<svg version="1.1" id="Layer_1" xmlns="http://www.w3.org/2000/svg" xmlns:xlink="http://www.w3.org/1999/xlink" x="0px" y="0px"
	 width="44px" height="63.999px" viewBox="0 0 44 63.999" style="enable-background:new 0 0 44 63.999;" xml:space="preserve">
<g id="Strings">
	<g>
		<path style="fill-rule:evenodd;clip-rule:evenodd;fill:#CCCCCC;" d="M15,9.999c-0.553,0-1,0.448-1,1v42c0,0.553,0.447,1,1,1
			c0.552,0,1-0.447,1-1v-42C16,10.447,15.552,9.999,15,9.999z M19,9.999c-0.553,0-1,0.448-1,1v42c0,0.553,0.447,1,1,1
			c0.552,0,1-0.447,1-1v-42C20,10.447,19.552,9.999,19,9.999z M23,14c-0.553,0-1,0.447-1,0.999v28c0,0.553,0.447,1,1,1s1-0.447,1-1
			v-28C24,14.447,23.553,14,23,14z M27,14c-0.553,0-1,0.447-1,0.999v28c0,0.553,0.447,1,1,1c0.552,0,1-0.447,1-1v-28
			C28,14.447,27.552,14,27,14z M31,17.999c-0.553,0-1,0.448-1,1v16c0,0.553,0.447,1,1,1c0.552,0,1-0.447,1-1v-16
			C32,18.447,31.552,17.999,31,17.999z M35,17.999c-0.553,0-1,0.448-1,1v14c0,0.553,0.447,1,1,1s1-0.447,1-1v-14
			C36,18.447,35.553,17.999,35,17.999z"/>
	</g>
</g>
<g id="Arm">
	<g>
		<path style="fill:#E6B85C;" d="M34,16c-3.875,0-6.75-3.376-10-8.001s-12-4-12-4v8c1.875,0,5.875-0.625,10,4.001
			c4.125,4.624,9.25,5.999,10,5.999s3.824-0.664,4,2c0.155,2.355-2,4-2,4l-22,22v10h6c0,0,26-32,26-38C44,16.624,41.332,16,34,16z"
			/>
	</g>
</g>
<g id="Leg_2_">
	<g>
		<path style="fill-rule:evenodd;clip-rule:evenodd;fill:#FFCC66;" d="M16,55.999h-4v-41.61c1.213-1.46,2-3.775,2-6.39
			C14,3.581,11.762,0,9,0C8.819,0,8.642,0.017,8.466,0.047C8.311,0.029,8.159,0,8,0C5.791,0,4,1.79,4,3.999v52c-2.209,0-4,1.791-4,4
			s1.791,4,4,4h12c2.209,0,4-1.791,4-4S18.209,55.999,16,55.999z"/>
	</g>
</g>
<g>
</g>
<g>
</g>
<g>
</g>
<g>
</g>
<g>
</g>
<g>
</g>
<g>
</g>
<g>
</g>
<g>
</g>
<g>
</g>
<g>
</g>
<g>
</g>
<g>
</g>
<g>
</g>
<g>
</g>
</svg>
