<?xml version="1.0" encoding="iso-8859-1"?>
<!-- Generator: Adobe Illustrator 16.0.0, SVG Export Plug-In . SVG Version: 6.00 Build 0)  -->
<!DOCTYPE svg PUBLIC "-//W3C//DTD SVG 1.1//EN" "http://www.w3.org/Graphics/SVG/1.1/DTD/svg11.dtd">
<svg version="1.1" id="Layer_1" xmlns="http://www.w3.org/2000/svg" xmlns:xlink="http://www.w3.org/1999/xlink" x="0px" y="0px"
	 width="64px" height="61.992px" viewBox="0 0 64 61.992" style="enable-background:new 0 0 64 61.992;" xml:space="preserve">
<g id="Headphone_10_">
	<g>
		<path style="fill-rule:evenodd;clip-rule:evenodd;fill:#CCCCCC;" d="M64,49.995V27.997C64,12.535,47.464,0,32,0S0,12.535,0,27.997
			v21.996v0.001c0,0.003,0.001,0.006,0.001,0.01C0.001,50.007,0,50.01,0,50.013c0,1.104,0.896,1.999,2,1.999h8
			c1.104,0,2-0.895,2-1.999s-0.896-1.999-2-1.999H4V27.997C4,14.744,18.745,4,32,4s28,10.744,28,23.997v20.017H50
			c-1.104,0-2,0.895-2,1.999s0.896,1.999,2,1.999h12c1.104,0,2-0.895,2-1.999c0-0.005-0.001-0.009-0.002-0.014
			C63.998,49.998,63.999,49.996,64,49.995L64,49.995z"/>
	</g>
</g>
<g id="Headphone_11_">
	<g>
		<path style="fill-rule:evenodd;clip-rule:evenodd;fill:#666666;" d="M31.299,0.018h1.402C32.467,0.012,32.233,0,32,0
			S31.533,0.012,31.299,0.018z M10,48.014H4v-8H0v9.979v0.001c0,0.003,0.001,0.006,0.001,0.01C0.001,50.007,0,50.01,0,50.013
			c0,1.104,0.896,1.999,2,1.999h8c1.104,0,2-0.895,2-1.999S11.104,48.014,10,48.014z M64,49.995v-9.981h-4v8H50
			c-1.104,0-2,0.895-2,1.999s0.896,1.999,2,1.999h12c1.104,0,2-0.895,2-1.999c0-0.005-0.001-0.009-0.002-0.014
			C63.998,49.998,63.999,49.996,64,49.995L64,49.995z"/>
	</g>
</g>
<g id="Headphone_12_">
	<g>
		<path style="fill-rule:evenodd;clip-rule:evenodd;fill:#ED7161;" d="M14,39.996c-3.314,0-6,2.686-6,5.999v9.998
			c0,3.313,2.686,5.999,6,5.999c3.313,0,6-2.686,6-5.999v-9.998C20,42.682,17.313,39.996,14,39.996z M50,39.996
			c-3.314,0-6,2.686-6,5.999v9.998c0,3.313,2.686,5.999,6,5.999c3.313,0,6-2.686,6-5.999v-9.998C56,42.682,53.313,39.996,50,39.996z
			"/>
	</g>
</g>
<g>
</g>
<g>
</g>
<g>
</g>
<g>
</g>
<g>
</g>
<g>
</g>
<g>
</g>
<g>
</g>
<g>
</g>
<g>
</g>
<g>
</g>
<g>
</g>
<g>
</g>
<g>
</g>
<g>
</g>
</svg>
