<?xml version="1.0" encoding="iso-8859-1"?>
<!-- Generator: Adobe Illustrator 16.0.0, SVG Export Plug-In . SVG Version: 6.00 Build 0)  -->
<!DOCTYPE svg PUBLIC "-//W3C//DTD SVG 1.1//EN" "http://www.w3.org/Graphics/SVG/1.1/DTD/svg11.dtd">
<svg version="1.1" id="Layer_1" xmlns="http://www.w3.org/2000/svg" xmlns:xlink="http://www.w3.org/1999/xlink" x="0px" y="0px"
	 width="56px" height="61.975px" viewBox="0 0 56 61.975" style="enable-background:new 0 0 56 61.975;" xml:space="preserve">
<g id="Headphone">
	<g>
		<path style="fill:#4D4D4D;" d="M28,0C12.536,0,0,12.522,0,27.969l4,27.967c0,0-0.001,0-0.001,0.001
			c0,1.103,0.896,1.997,2.001,1.997c1.104,0,1.999-0.894,1.999-1.997H8L4,27.969C4,14.729,14.745,3.996,28,3.996
			s24,10.732,24,23.973l-4,27.967c0,0,0,0,0,0.001c0,1.103,0.896,1.997,2,1.997s1.999-0.894,2-1.997l4-27.968
			C56,12.522,43.464,0,28,0z"/>
	</g>
</g>
<g id="Headphone_17_">
	<g>
		<path style="fill:#CCCCCC;" d="M46,35.96c-5.867-1.285-2.867,5.726-4.515,11.724C39.838,53.683,32.189,58.413,38,59.932
			c5.81,1.52,11.979-3.768,12-9.988C50.021,43.258,50.372,36.917,46,35.96z"/>
	</g>
</g>
<g id="Headphone_15_">
	<g>
		<path style="fill:#ED7161;" d="M44.751,36.136c-3.353-0.877-6.8,1.064-7.698,4.337l-2.88,11.781
			c-0.898,3.272,1.091,6.635,4.444,7.512s6.8-1.064,7.698-4.337l2.881-11.782C50.095,40.375,48.104,37.013,44.751,36.136z"/>
	</g>
</g>
<g id="Headphone_13_">
	<g>
		<path style="fill:#666666;" d="M42.751,32.141c-3.353-0.877-6.8,1.064-7.697,4.337l-4.881,17.773
			c-0.898,3.272,1.091,6.636,4.444,7.513c3.353,0.877,6.8-1.064,7.698-4.337l4.881-17.774
			C48.095,36.381,46.104,33.017,42.751,32.141z"/>
	</g>
</g>
<g id="Headphone_4_">
	<g>
		<path style="fill:#CCCCCC;" d="M14.514,47.684C12.867,41.686,15.866,34.675,10,35.96c-4.373,0.957-4.022,7.298-4,13.983
			c0.021,6.221,6.189,11.508,12,9.988C23.81,58.413,16.161,53.683,14.514,47.684z"/>
	</g>
</g>
<g id="Headphone_5_">
	<g>
		<path style="fill:#ED7161;" d="M21.827,52.254l-2.881-11.781c-0.898-3.272-4.345-5.214-7.698-4.337s-5.343,4.239-4.444,7.511
			l2.88,11.782c0.898,3.272,4.346,5.214,7.699,4.337C20.735,58.889,22.726,55.526,21.827,52.254z"/>
	</g>
</g>
<g id="Headphone_6_">
	<g>
		<path style="fill:#666666;" d="M25.827,54.251l-4.881-17.773c-0.898-3.272-4.345-5.214-7.698-4.337
			c-3.354,0.876-5.343,4.24-4.445,7.512l4.881,17.774c0.898,3.272,4.346,5.214,7.699,4.337
			C24.735,60.887,26.726,57.523,25.827,54.251z"/>
	</g>
</g>
<g>
</g>
<g>
</g>
<g>
</g>
<g>
</g>
<g>
</g>
<g>
</g>
<g>
</g>
<g>
</g>
<g>
</g>
<g>
</g>
<g>
</g>
<g>
</g>
<g>
</g>
<g>
</g>
<g>
</g>
</svg>
