<?xml version="1.0" encoding="iso-8859-1"?>
<!-- Generator: Adobe Illustrator 16.0.0, SVG Export Plug-In . SVG Version: 6.00 Build 0)  -->
<!DOCTYPE svg PUBLIC "-//W3C//DTD SVG 1.1//EN" "http://www.w3.org/Graphics/SVG/1.1/DTD/svg11.dtd">
<svg version="1.1" id="Layer_1" xmlns="http://www.w3.org/2000/svg" xmlns:xlink="http://www.w3.org/1999/xlink" x="0px" y="0px"
	 width="64.003px" height="63.991px" viewBox="0 0 64.003 63.991" style="enable-background:new 0 0 64.003 63.991;"
	 xml:space="preserve">
<g id="BTNS_1_">
	<g>
		<path style="fill-rule:evenodd;clip-rule:evenodd;fill:#B3B3B3;" d="M25.002,0h-2c-1.657,0-3.001,1.343-3.001,3
			c0,1.656,1.344,2.999,3.001,2.999h2c1.656,0,3-1.343,3-2.999C28.002,1.343,26.658,0,25.002,0z M11.001,0h-2c-1.657,0-3,1.343-3,3
			c0,1.656,1.343,2.999,3,2.999h2c1.657,0,3-1.343,3-2.999C14.001,1.343,12.658,0,11.001,0z M53.003,0h-6c-1.657,0-3,1.343-3,3
			c0,1.656,1.343,2.999,3,2.999h6c1.657,0,3-1.343,3-2.999C56.003,1.343,54.66,0,53.003,0z"/>
	</g>
</g>
<g id="Body_26_">
	<g>
		<path style="fill:#48A0DC;" d="M60.003,1.999H4.001c-2.21,0-4.001,1.792-4.001,4v53.993c0,2.209,1.791,3.999,4.001,3.999h56.002
			c2.21,0,4-1.79,4-3.999V5.999C64.003,3.791,62.213,1.999,60.003,1.999z"/>
	</g>
</g>
<g id="Rounded_Rectangle_59">
	<g>
		<path style="fill:#4D4D4D;" d="M56.003,7.999H8.001c-1.104,0-2,0.896-2,2v45.994c0,1.104,0.896,2,2,2h48.002c1.104,0,2-0.896,2-2
			V9.999C58.003,8.895,57.107,7.999,56.003,7.999z"/>
	</g>
</g>
<g id="Apple_Logo">
	<g>
		<path style="fill-rule:evenodd;clip-rule:evenodd;fill:#FFFFFF;" d="M34.992,25.03c0.771-0.806,1.292-1.926,1.15-3.042
			c-1.112,0.039-2.459,0.637-3.256,1.441c-0.716,0.715-1.341,1.855-1.174,2.949C32.954,26.461,34.22,25.835,34.992,25.03z
			 M37.358,32.738c-0.024-2.503,2.029-3.704,2.121-3.763c-1.154-1.699-2.952-1.932-3.592-1.957
			c-1.529-0.157-2.984,0.905-3.762,0.905c-0.773,0-1.971-0.885-3.24-0.861c-1.668,0.026-3.205,0.975-4.063,2.479
			c-1.732,3.024-0.444,7.506,1.245,9.958c0.825,1.2,1.809,2.549,3.1,2.499c1.245-0.049,1.716-0.809,3.219-0.809
			c1.504,0,1.927,0.809,3.242,0.784c1.339-0.024,2.188-1.224,3.007-2.429c0.946-1.392,1.336-2.74,1.36-2.809
			C39.965,36.721,37.386,35.729,37.358,32.738z"/>
	</g>
</g>
<g>
</g>
<g>
</g>
<g>
</g>
<g>
</g>
<g>
</g>
<g>
</g>
<g>
</g>
<g>
</g>
<g>
</g>
<g>
</g>
<g>
</g>
<g>
</g>
<g>
</g>
<g>
</g>
<g>
</g>
</svg>
