<?xml version="1.0" encoding="iso-8859-1"?>
<!-- Generator: Adobe Illustrator 16.0.0, SVG Export Plug-In . SVG Version: 6.00 Build 0)  -->
<!DOCTYPE svg PUBLIC "-//W3C//DTD SVG 1.1//EN" "http://www.w3.org/Graphics/SVG/1.1/DTD/svg11.dtd">
<svg version="1.1" id="Layer_1" xmlns="http://www.w3.org/2000/svg" xmlns:xlink="http://www.w3.org/1999/xlink" x="0px" y="0px"
	 width="44.002px" height="63.991px" viewBox="0 0 44.002 63.991" style="enable-background:new 0 0 44.002 63.991;"
	 xml:space="preserve">
<g id="Body_25_">
	<g>
		<path style="fill:#ED7161;" d="M42.002,0H2C0.896,0,0,0.896,0,1.999v59.993c0,1.104,0.896,1.999,2,1.999h40.002
			c1.104,0,2-0.895,2-1.999V1.999C44.002,0.896,43.106,0,42.002,0z"/>
	</g>
</g>
<g id="Screen">
	<g>
		<path style="fill:#4D4D4D;" d="M38.002,4H6C4.896,4,4,4.896,4,5.999v23.997c0,1.104,0.896,2,2,2h32.002c1.104,0,2-0.896,2-2V5.999
			C40.002,4.896,39.106,4,38.002,4z"/>
	</g>
</g>
<g id="Wheel_1_">
	<g>
		<circle style="fill:#FFFFFF;" cx="22.001" cy="47.994" r="9.999"/>
	</g>
</g>
<g id="Btn_6_">
	<g>
		<circle style="fill:#ED7161;" cx="22.001" cy="47.994" r="4"/>
	</g>
</g>
<g>
</g>
<g>
</g>
<g>
</g>
<g>
</g>
<g>
</g>
<g>
</g>
<g>
</g>
<g>
</g>
<g>
</g>
<g>
</g>
<g>
</g>
<g>
</g>
<g>
</g>
<g>
</g>
<g>
</g>
</svg>
