<?xml version="1.0" encoding="iso-8859-1"?>
<!-- Generator: Adobe Illustrator 16.0.0, SVG Export Plug-In . SVG Version: 6.00 Build 0)  -->
<!DOCTYPE svg PUBLIC "-//W3C//DTD SVG 1.1//EN" "http://www.w3.org/Graphics/SVG/1.1/DTD/svg11.dtd">
<svg version="1.1" id="Layer_1" xmlns="http://www.w3.org/2000/svg" xmlns:xlink="http://www.w3.org/1999/xlink" x="0px" y="0px"
	 width="63.972px" height="64.003px" viewBox="0 0 63.972 64.003" style="enable-background:new 0 0 63.972 64.003;"
	 xml:space="preserve">
<g id="Cable_2_">
	<g>
		<path style="fill:#333333;" d="M24.793,39.152c-1.521-1.525-3.987-1.525-5.509,0L0,58.48v5.522h5.51l19.283-19.328
			C26.315,43.15,26.315,40.678,24.793,39.152z"/>
	</g>
</g>
<g id="Socket">
	<g>
		<path style="fill:#FFCC66;" d="M62.727,10l-8.787-8.787c-1.618-1.617-4.241-1.617-5.858,0l-2.929,2.93
			c-1.618,1.617-1.618,4.24,0,5.857l8.787,8.787c1.617,1.618,4.24,1.618,5.858,0l2.929-2.929C64.345,14.241,64.345,11.618,62.727,10
			z"/>
	</g>
</g>
<g id="Body_8_">
	<g>
		<polygon style="fill:#666666;" points="45.972,0.078 23.972,22.057 15.972,42.036 21.972,48.03 41.972,40.038 63.972,18.06 		"/>
	</g>
</g>
<g id="Body_9_">
	<g>
		<path style="fill-rule:evenodd;clip-rule:evenodd;fill:#333333;" d="M18.257,36.327l9.429,9.42l2.857-1.142L19.4,33.474
			L18.257,36.327z M20.543,30.619L33.4,43.463l2.857-1.142L21.686,27.765L20.543,30.619z M23.972,22.057l-1.143,2.854l16.286,16.27
			l2.857-1.142L23.972,22.057z"/>
	</g>
</g>
<g id="Body_10_">
	<g>
		<polygon style="fill:#333333;" points="38.991,7.052 32.987,13.049 50.979,31.04 56.981,25.043 		"/>
	</g>
</g>
<g>
</g>
<g>
</g>
<g>
</g>
<g>
</g>
<g>
</g>
<g>
</g>
<g>
</g>
<g>
</g>
<g>
</g>
<g>
</g>
<g>
</g>
<g>
</g>
<g>
</g>
<g>
</g>
<g>
</g>
</svg>
