<?xml version="1.0" encoding="iso-8859-1"?>
<!-- Generator: Adobe Illustrator 16.0.0, SVG Export Plug-In . SVG Version: 6.00 Build 0)  -->
<!DOCTYPE svg PUBLIC "-//W3C//DTD SVG 1.1//EN" "http://www.w3.org/Graphics/SVG/1.1/DTD/svg11.dtd">
<svg version="1.1" id="Layer_1" xmlns="http://www.w3.org/2000/svg" xmlns:xlink="http://www.w3.org/1999/xlink" x="0px" y="0px"
	 width="64px" height="64.001px" viewBox="0 0 64 64.001" style="enable-background:new 0 0 64 64.001;" xml:space="preserve">
<g id="Base_6_">
	<g>
		<circle style="fill:#4D4D4D;" cx="32" cy="32" r="32"/>
	</g>
</g>
<g id="Rim">
	<g>
		<path style="fill-rule:evenodd;clip-rule:evenodd;fill:#B3B3B3;" d="M32,4C16.536,4,4,16.536,4,32.001c0,15.463,12.536,28,28,28
			s28-12.537,28-28C60,16.536,47.464,4,32,4z M32,56.001c-13.255,0-24-10.745-24-24c0-13.256,10.745-24,24-24s24,10.744,24,24
			C56,45.256,45.255,56.001,32,56.001z"/>
	</g>
</g>
<g id="Label">
	<g>
		<path style="fill-rule:evenodd;clip-rule:evenodd;fill:#88C057;" d="M32,16.001c-8.837,0-16,7.163-16,16c0,8.836,7.163,16,16,16
			c8.836,0,16-7.164,16-16C48,23.164,40.836,16.001,32,16.001z M32,40.001c-4.418,0-8-3.582-8-8s3.582-8,8-8s8,3.582,8,8
			S36.418,40.001,32,40.001z"/>
	</g>
</g>
<g>
</g>
<g>
</g>
<g>
</g>
<g>
</g>
<g>
</g>
<g>
</g>
<g>
</g>
<g>
</g>
<g>
</g>
<g>
</g>
<g>
</g>
<g>
</g>
<g>
</g>
<g>
</g>
<g>
</g>
</svg>
