<?xml version="1.0" encoding="iso-8859-1"?>
<!-- Generator: Adobe Illustrator 16.0.0, SVG Export Plug-In . SVG Version: 6.00 Build 0)  -->
<!DOCTYPE svg PUBLIC "-//W3C//DTD SVG 1.1//EN" "http://www.w3.org/Graphics/SVG/1.1/DTD/svg11.dtd">
<svg version="1.1" id="Layer_1" xmlns="http://www.w3.org/2000/svg" xmlns:xlink="http://www.w3.org/1999/xlink" x="0px" y="0px"
	 width="52px" height="64.006px" viewBox="0 0 52 64.006" style="enable-background:new 0 0 52 64.006;" xml:space="preserve">
<g id="Shape_42_">
	<g>
		<path style="fill-rule:evenodd;clip-rule:evenodd;fill:#CCCCCC;" d="M8,42.049c0-7.671,0.688-13.346,6-25.944
			C19.313,3.507,12.89-0.138,4,0.139c-2.21,0-4,1.787-4,3.992c0,2.204,1.79,3.991,4,3.991c1.218,0,2.295-0.555,3.028-1.411
			C7.922,6.372,8.837,6.104,9.5,6.104c1.813,0,3.625,2.205,0.5,8.006c-3.125,5.8-10,19.208-10,27.939c0,8.73,7.125,17.775,14,19.957
			l4-7.982C18,54.023,8,49.721,8,42.049z M42.5,5.979c0.663,0,1.577,0.268,2.471,0.607C45.704,7.442,46.781,7.997,48,7.997
			c2.209,0,4-1.786,4-3.991c0-2.204-1.791-3.991-4-3.991C39.109-0.263,32.688,3.382,38,15.98c5.313,12.598,6,18.273,6,25.944
			S34,53.897,34,53.897l4,7.983c6.875-2.182,14-11.225,14-19.956s-6.875-22.141-10-27.94S40.688,5.979,42.5,5.979z"/>
	</g>
</g>
<g id="Strings_1_">
	<g>
		<path style="fill-rule:evenodd;clip-rule:evenodd;fill:#CCCCCC;" d="M17,8.045c-0.553,0-1,0.447-1,1v45.993
			c0,0.553,0.447,1.001,1,1.001c0.552,0,1-0.448,1-1.001V9.045C18,8.492,17.552,8.045,17,8.045z M23,8.045c-0.553,0-1,0.447-1,1
			v45.993c0,0.553,0.447,1.001,1,1.001c0.552,0,1-0.448,1-1.001V9.045C24,8.492,23.552,8.045,23,8.045z M29,8.045
			c-0.553,0-1,0.447-1,1v45.993c0,0.553,0.447,1.001,1,1.001c0.552,0,1-0.448,1-1.001V9.045C30,8.492,29.552,8.045,29,8.045z
			 M35,8.045c-0.553,0-1,0.447-1,1v45.993c0,0.553,0.447,1.001,1,1.001c0.552,0,1-0.448,1-1.001V9.045
			C36,8.492,35.552,8.045,35,8.045z"/>
	</g>
</g>
<g id="Shape_43_">
	<g>
		<path style="fill:#B3B3B3;" d="M40,6.045H12c-1.105,0-2,0.895-2,2c0,1.104,0.895,2,2,2h28c1.104,0,2-0.896,2-2
			C42,6.939,41.104,6.045,40,6.045z"/>
	</g>
</g>
<g id="Base_33_">
	<g>
		<path style="fill-rule:evenodd;clip-rule:evenodd;fill:#9B7CAB;" d="M38,52.008h-4c0-2.209-1.791-4-4-4h-8c-2.21,0-4,1.791-4,4h-4
			c-1.105,0-2,0.895-2,1.999v7.999c0,1.104,0.895,2,2,2h24c1.104,0,2-0.896,2-2v-7.999C40,52.902,39.104,52.008,38,52.008z"/>
	</g>
</g>
<g>
</g>
<g>
</g>
<g>
</g>
<g>
</g>
<g>
</g>
<g>
</g>
<g>
</g>
<g>
</g>
<g>
</g>
<g>
</g>
<g>
</g>
<g>
</g>
<g>
</g>
<g>
</g>
<g>
</g>
</svg>
