<?xml version="1.0" encoding="iso-8859-1"?>
<!-- Generator: Adobe Illustrator 16.0.0, SVG Export Plug-In . SVG Version: 6.00 Build 0)  -->
<!DOCTYPE svg PUBLIC "-//W3C//DTD SVG 1.1//EN" "http://www.w3.org/Graphics/SVG/1.1/DTD/svg11.dtd">
<svg version="1.1" id="Layer_1" xmlns="http://www.w3.org/2000/svg" xmlns:xlink="http://www.w3.org/1999/xlink" x="0px" y="0px"
	 width="96.397px" height="96.397px" viewBox="0 0 96.397 96.397" style="enable-background:new 0 0 96.397 96.397;"
	 xml:space="preserve">
<g id="Handle_4_">
	<g>
		<path style="fill:#ED7161;" d="M51.999,44.335c-1.587-1.587-4.16-1.587-5.747,0L10.336,80.252c-1.587,1.587-1.587,4.16,0,5.746
			c1.587,1.587,4.159,1.587,5.746,0l35.917-35.916C53.586,48.495,53.586,45.922,51.999,44.335z"/>
	</g>
</g>
<g id="Body_37_">
	<g>
		
			<ellipse transform="matrix(0.7071 -0.7071 0.7071 0.7071 -18.9642 48.6137)" style="fill:#FFCC66;" cx="49.199" cy="47.198" rx="27.64" ry="19.743"/>
	</g>
</g>
<g id="Red_1_">
	<g>
		<path style="fill-rule:evenodd;clip-rule:evenodd;fill:#ED7161;" d="M53.019,68.391L28.007,43.379
			c-4.149,8.719-3.833,17.884,1.647,23.364S44.3,72.54,53.019,68.391z"/>
	</g>
</g>
<g id="Green_1_">
	<g>
		<path style="fill-rule:evenodd;clip-rule:evenodd;fill:#90C462;" d="M42.764,27.391l26.243,26.243
			c5.55-9.452,5.77-19.947-0.264-25.98C62.711,21.622,52.216,21.84,42.764,27.391z"/>
	</g>
</g>
<g>
</g>
<g>
</g>
<g>
</g>
<g>
</g>
<g>
</g>
<g>
</g>
<g>
</g>
<g>
</g>
<g>
</g>
<g>
</g>
<g>
</g>
<g>
</g>
<g>
</g>
<g>
</g>
<g>
</g>
</svg>
