<?xml version="1.0" encoding="iso-8859-1"?>
<!-- Generator: Adobe Illustrator 16.0.0, SVG Export Plug-In . SVG Version: 6.00 Build 0)  -->
<!DOCTYPE svg PUBLIC "-//W3C//DTD SVG 1.1//EN" "http://www.w3.org/Graphics/SVG/1.1/DTD/svg11.dtd">
<svg version="1.1" id="Layer_1" xmlns="http://www.w3.org/2000/svg" xmlns:xlink="http://www.w3.org/1999/xlink" x="0px" y="0px"
	 width="44.002px" height="64.001px" viewBox="0 0 44.002 64.001" style="enable-background:new 0 0 44.002 64.001;"
	 xml:space="preserve">
<g id="Head_5_">
	<g>
		<path style="fill:#CCCCCC;" d="M22.001,0c-6.628,0-12,5.373-12,12v8.001h24.001V12C34.002,5.373,28.629,0,22.001,0z"/>
	</g>
</g>
<g id="Rims">
	<g>
		<path style="fill-rule:evenodd;clip-rule:evenodd;fill:#999999;" d="M10.181,10.001h9.82v-2h-9.303
			C10.47,8.645,10.297,9.313,10.181,10.001z M30.929,4.001h-6.928v2h8.383C31.968,5.283,31.479,4.615,30.929,4.001z M11.619,6.001
			h8.382v-2h-6.928C12.523,4.615,12.035,5.283,11.619,6.001z M33.305,8.001h-9.304v2h9.821C33.706,9.313,33.532,8.645,33.305,8.001z
			 M24.001,18.001h10.001v-2H24.001V18.001z M24.001,12v2.001h10.001V12H24.001z M10.001,14.001h10V12h-10V14.001z M10.001,18.001
			h10v-2h-10V18.001z"/>
	</g>
</g>
<g id="Axe">
	<g>
		<rect x="4" y="22.001" style="fill:#999999;" width="36.002" height="4"/>
	</g>
</g>
<g id="Base_37_">
	<g>
		<path style="fill:#666666;" d="M10.001,28.001V34c0,6.628,5.372,12,12,12s12.001-5.372,12.001-12v-5.999H10.001z"/>
	</g>
</g>
<g id="Shape_5_">
	<g>
		<rect x="10.001" y="20.001" style="fill:#333333;" width="24.001" height="8"/>
	</g>
</g>
<g id="Foot">
	<g>
		<path style="fill-rule:evenodd;clip-rule:evenodd;fill:#CCCCCC;" d="M38.002,18.001v6v6v4c0,8.837-7.164,16-16.001,16
			S6,42.838,6,34.001v-4v-6v-6c-3.313,0-6,2.687-6,6c0,1.774,0.775,3.364,2,4.463v5.537C2,43.677,8.872,51.746,18.001,53.6v8.401h8
			V53.6c9.129-1.854,16.001-9.923,16.001-19.599v-5.537c1.225-1.099,2-2.688,2-4.463C44.002,20.688,41.315,18.001,38.002,18.001z"/>
	</g>
</g>
<g id="Base_2_">
	<g>
		<path style="fill:#666666;" d="M36.002,58H8c-1.104,0-2,0.896-2,2.001v2c0,1.104,0.896,2,2,2h28.002c1.104,0,2-0.896,2-2v-2
			C38.002,58.896,37.106,58,36.002,58z"/>
	</g>
</g>
<g>
</g>
<g>
</g>
<g>
</g>
<g>
</g>
<g>
</g>
<g>
</g>
<g>
</g>
<g>
</g>
<g>
</g>
<g>
</g>
<g>
</g>
<g>
</g>
<g>
</g>
<g>
</g>
<g>
</g>
</svg>
