<?xml version="1.0" encoding="iso-8859-1"?>
<!-- Generator: Adobe Illustrator 16.0.0, SVG Export Plug-In . SVG Version: 6.00 Build 0)  -->
<!DOCTYPE svg PUBLIC "-//W3C//DTD SVG 1.1//EN" "http://www.w3.org/Graphics/SVG/1.1/DTD/svg11.dtd">
<svg version="1.1" id="Layer_1" xmlns="http://www.w3.org/2000/svg" xmlns:xlink="http://www.w3.org/1999/xlink" x="0px" y="0px"
	 width="64.035px" height="63.971px" viewBox="0 0 64.035 63.971" style="enable-background:new 0 0 64.035 63.971;"
	 xml:space="preserve">
<g id="Body_2_">
	<g>
		<path style="fill:#666666;" d="M52.818,16.891l-5.736-5.736c-1.584-1.585-4.152-1.585-5.736,0L1.188,55.31
			c-1.584,1.584-1.584,4.152,0,5.736l1.736,1.736c1.585,1.585,4.152,1.585,5.737,0l44.157-40.155
			C54.402,21.043,54.402,18.475,52.818,16.891z"/>
	</g>
</g>
<g id="Ball">
	<g>
		<circle style="fill:#CCCCCC;" cx="48.034" cy="16" r="16"/>
	</g>
</g>
<g id="Lines_1_">
	<g>
		<path style="fill-rule:evenodd;clip-rule:evenodd;fill:#B3B3B3;" d="M33.45,18.588c-0.361-0.362-0.862-0.587-1.415-0.587
			c-1.104,0-2,0.896-2,2c0,0.553,0.225,1.054,0.587,1.415L42.62,33.414c0.361,0.362,0.862,0.587,1.415,0.587c1.104,0,2-0.896,2-2
			c0-0.553-0.225-1.054-0.587-1.415L33.45,18.588z M57.448,28.586L35.45,6.588c-0.361-0.362-0.862-0.587-1.415-0.587
			c-1.104,0-2,0.896-2,2c0,0.553,0.225,1.054,0.587,1.415L54.62,31.414c0.361,0.362,0.862,0.587,1.415,0.587c1.104,0,2-0.896,2-2
			C58.035,29.448,57.811,28.947,57.448,28.586z"/>
	</g>
</g>
<g>
</g>
<g>
</g>
<g>
</g>
<g>
</g>
<g>
</g>
<g>
</g>
<g>
</g>
<g>
</g>
<g>
</g>
<g>
</g>
<g>
</g>
<g>
</g>
<g>
</g>
<g>
</g>
<g>
</g>
</svg>
