<?xml version="1.0" encoding="iso-8859-1"?>
<!-- Generator: Adobe Illustrator 16.0.0, SVG Export Plug-In . SVG Version: 6.00 Build 0)  -->
<!DOCTYPE svg PUBLIC "-//W3C//DTD SVG 1.1//EN" "http://www.w3.org/Graphics/SVG/1.1/DTD/svg11.dtd">
<svg version="1.1" id="Layer_1" xmlns="http://www.w3.org/2000/svg" xmlns:xlink="http://www.w3.org/1999/xlink" x="0px" y="0px"
	 width="64.001px" height="64px" viewBox="0 0 64.001 64" style="enable-background:new 0 0 64.001 64;" xml:space="preserve">
<g id="Base_15_">
	<g>
		<path style="fill:#4D4D4D;" d="M60,0H4C1.791,0,0,1.791,0,4v56c0,2.209,1.791,4,4,4h56c2.21,0,4-1.791,4-4V4
			C64,1.791,62.21,0,60,0z"/>
	</g>
</g>
<g id="Base_16_">
	<g>
		<path style="fill-rule:evenodd;clip-rule:evenodd;fill:#48A0DC;" d="M64,40.001L64,40.001V4c0-2.209-1.79-4-4-4H4
			C1.791,0,0,1.791,0,4v36c0,0.003,0.001,0.007,0.001,0.01V44H4h56h4.001L64,40.001L64,40.001z"/>
	</g>
</g>
<g id="Btns_5_">
	<g>
		<path style="fill-rule:evenodd;clip-rule:evenodd;fill:#808080;" d="M10,49.999c-2.209,0-4,1.791-4,4.001c0,2.208,1.791,4,4,4
			s4-1.792,4-4C14,51.79,12.209,49.999,10,49.999z M54,49.999c-2.209,0-4,1.791-4,4.001c0,2.208,1.791,4,4,4s4-1.792,4-4
			C58,51.79,56.209,49.999,54,49.999z M20,52c-1.104,0-2,0.896-2,2s0.896,2,2,2s2-0.896,2-2S21.104,52,20,52z M44,52
			c-1.104,0-2,0.896-2,2s0.896,2,2,2s2-0.896,2-2S45.104,52,44,52z"/>
	</g>
</g>
<g id="Equalizer_1_">
	<g>
		<path style="fill-rule:evenodd;clip-rule:evenodd;fill:#41779C;" d="M34,18v-6c0-1.104-0.896-2-1.999-2C30.896,10,30,10.896,30,12
			v6c-1.104,0-2,0.896-2,2c0,1.104,0.896,2,2,2v9.999C30,33.104,30.896,34,32.001,34C33.104,34,34,33.104,34,31.999V22
			c1.105,0,2.001-0.896,2.001-2C36.001,18.896,35.105,18,34,18z M24,16v-4c0-1.104-0.896-2-2-2s-1.999,0.896-1.999,2v4
			c-1.105,0-2,0.895-2,2c0,1.104,0.895,2,2,2v11.999C20.001,33.104,20.896,34,22,34s2-0.896,2-2.001V20c1.104,0,2-0.896,2-2
			C26,16.895,25.104,16,24,16z M14.001,24V12c0-1.104-0.896-2-2.001-2s-2,0.896-2,2v12c-1.104,0-2,0.895-2,2c0,1.104,0.896,2,2,2
			v3.999C10,33.104,10.896,34,12,34s2.001-0.896,2.001-2.001V28C15.104,28,16,27.104,16,26C16,24.895,15.104,24,14.001,24z
			 M54.001,16v-4c0-1.104-0.896-2-2.001-2c-1.104,0-1.999,0.896-1.999,2v4C48.896,16,48,16.895,48,18c0,1.104,0.896,2,2.001,2
			v11.999C50.001,33.104,50.896,34,52,34c1.105,0,2.001-0.896,2.001-2.001V20c1.104,0,2-0.896,2-2
			C56.001,16.895,55.104,16,54.001,16z M44,24V12c0-1.104-0.896-2-2-2s-2,0.896-2,2v12c-1.104,0-1.999,0.895-1.999,2
			c0,1.104,0.895,2,1.999,2v3.999C40,33.104,40.896,34,42,34s2-0.896,2-2.001V28c1.104,0,2-0.896,2-2C46,24.895,45.104,24,44,24z"/>
	</g>
</g>
<g>
</g>
<g>
</g>
<g>
</g>
<g>
</g>
<g>
</g>
<g>
</g>
<g>
</g>
<g>
</g>
<g>
</g>
<g>
</g>
<g>
</g>
<g>
</g>
<g>
</g>
<g>
</g>
<g>
</g>
</svg>
