<?xml version="1.0" encoding="iso-8859-1"?>
<!-- Generator: Adobe Illustrator 16.0.0, SVG Export Plug-In . SVG Version: 6.00 Build 0)  -->
<!DOCTYPE svg PUBLIC "-//W3C//DTD SVG 1.1//EN" "http://www.w3.org/Graphics/SVG/1.1/DTD/svg11.dtd">
<svg version="1.1" id="Layer_1" xmlns="http://www.w3.org/2000/svg" xmlns:xlink="http://www.w3.org/1999/xlink" x="0px" y="0px"
	 width="64px" height="57.998px" viewBox="0 0 64 57.998" style="enable-background:new 0 0 64 57.998;" xml:space="preserve">
<g id="Lines">
	<g>
		<path style="fill:#CCCCCC;" d="M2,21.998h10v-4H2c-1.104,0-2,0.896-2,2S0.896,21.998,2,21.998z M2,33.998h1.517
			c-0.943-1.181-1.522-2.535-1.523-3.999C0.893,30.003,0,30.896,0,31.998C0,33.103,0.896,33.998,2,33.998z M34.025,29.998H24h-0.005
			c0,1.464-0.58,2.819-1.523,4h11.554V29.998z M33.477,9.998H62c1.104,0,2-0.896,2-2s-0.896-2-2-2H30.952
			c0.079,0.111,0.165,0.204,0.243,0.317C32.178,7.747,32.892,8.937,33.477,9.998z M2,9.998h10v-4H2c-1.104,0-2,0.896-2,2
			S0.896,9.998,2,9.998z M62,53.998h-0.334c-0.515,1.58-1.606,2.957-3.097,4H62c1.104,0,2-0.896,2-2S63.105,53.998,62,53.998z
			 M62,17.998H30.448c-1.094,1.239-2.672,2.035-4.448,2.035c-0.705,0-1.372-0.146-2-0.371l0,2.337l38-0.001c1.104,0,2-0.896,2-2
			S63.105,17.998,62,17.998z M62,29.998h-2.066l0.01,4H62c1.104,0,2-0.896,2-2S63.105,29.998,62,29.998z M2,45.998h22.488
			c0.626-1.586,1.96-2.964,3.775-4H2c-1.104,0-2,0.896-2,2S0.896,45.998,2,45.998z M42.576,54.612
			c-1.886,0.846-4.119,1.369-6.564,1.369c-3.006,0-5.72-0.764-7.821-1.983H2c-1.104,0-2,0.896-2,2s0.896,2,2,2h43.435
			C44.142,57.093,43.154,55.938,42.576,54.612z M62,41.998h-2.038l0.009,4H62c1.104,0,2-0.896,2-2S63.105,41.998,62,41.998z"/>
	</g>
</g>
<g id="Music_1_">
	<g>
		<path style="fill-rule:evenodd;clip-rule:evenodd;fill:#666666;" d="M19.999,2.507v-0.45C19.999,0.921,19.104,0,18.001,0
			c-1.077,0-1.949,0.88-1.99,1.979c-0.009,0.001-0.03,0.003-0.03,0.003v4.008c0.008,0,0.015,0.001,0.022,0.001v20.239
			c-0.628-0.149-1.302-0.234-2.007-0.234c-3.314,0-6,1.791-6,4.003c0,2.211,2.687,4.004,6,4.004c3.305,0,5.985-1.784,5.999-3.987
			c0-0.006,0.005-0.01,0.005-0.016L19.999,6.898c2.59,1.331,3.822,3.896,3.822,6.105c0,0.271,0.012,0.498,0.029,0.707
			c-0.014,0.097-0.029,0.193-0.029,0.294c0,1.107,0.877,2.005,1.96,2.005s1.96-0.897,1.96-2.005c0-1.542,0.267-3.604-1.96-7.014
			C24.075,4.379,21.881,3.117,19.999,2.507z M56.024,34.469v-3.704c0-1.024-0.807-2-1.802-2.181l-14.414-2.612
			c-0.995-0.181-1.801,0.502-1.801,1.525v2.5v1.206V44.2c-0.626-0.149-1.298-0.235-2.001-0.235c-3.303,0-5.98,1.795-5.98,4.012
			c0,2.216,2.677,4.014,5.98,4.014c3.257,0,5.9-1.749,5.974-3.922C41.985,48.045,42,48.025,42,47.999l-0.01-14.215l9.981,1.841
			v12.43c-0.314-0.049-0.638-0.078-0.971-0.078c-2.768,0-5.012,1.796-5.012,4.012c0,2.217,2.244,4.014,5.012,4.014
			c2.768,0,5.012-1.797,5.012-4.014c0-0.034-0.012-0.066-0.013-0.101V34.655C56.008,34.593,56.024,34.534,56.024,34.469z"/>
	</g>
</g>
<g>
</g>
<g>
</g>
<g>
</g>
<g>
</g>
<g>
</g>
<g>
</g>
<g>
</g>
<g>
</g>
<g>
</g>
<g>
</g>
<g>
</g>
<g>
</g>
<g>
</g>
<g>
</g>
<g>
</g>
</svg>
