<?xml version="1.0" encoding="iso-8859-1"?>
<!-- Generator: Adobe Illustrator 16.0.0, SVG Export Plug-In . SVG Version: 6.00 Build 0)  -->
<!DOCTYPE svg PUBLIC "-//W3C//DTD SVG 1.1//EN" "http://www.w3.org/Graphics/SVG/1.1/DTD/svg11.dtd">
<svg version="1.1" id="Layer_1" xmlns="http://www.w3.org/2000/svg" xmlns:xlink="http://www.w3.org/1999/xlink" x="0px" y="0px"
	 width="42.012px" height="64.004px" viewBox="0 0 42.012 64.004" style="enable-background:new 0 0 42.012 64.004;"
	 xml:space="preserve">
<g id="Music_Shape_1_">
	<g>
		<path style="fill-rule:evenodd;clip-rule:evenodd;fill:#9B7CAB;" d="M37.994,14.064c-4.887-7.304-11.749-9.336-16.028-9.858V4.003
			C21.966,1.792,20.181,0,17.979,0c-2.203,0-3.988,1.792-3.988,4.003v46.262c-0.957-0.174-1.963-0.272-3.008-0.272
			C4.917,49.992,0,53.127,0,56.996s4.917,7.008,10.982,7.008c5.858,0,10.632-2.932,10.951-6.618
			c0.046-0.116,0.074-0.244,0.074-0.389l-0.035-44.551c8.192,1.609,12.025,8.145,12.025,13.589c0,0.54,0.024,0.993,0.059,1.409
			c-0.029,0.192-0.059,0.385-0.059,0.586c0,2.204,1.789,3.989,3.997,3.989c2.078,0,3.766-1.588,3.959-3.613
			c0.024-0.117,0.038-0.242,0.038-0.376C41.991,24.959,42.535,20.854,37.994,14.064z"/>
	</g>
</g>
<g>
</g>
<g>
</g>
<g>
</g>
<g>
</g>
<g>
</g>
<g>
</g>
<g>
</g>
<g>
</g>
<g>
</g>
<g>
</g>
<g>
</g>
<g>
</g>
<g>
</g>
<g>
</g>
<g>
</g>
</svg>
