<?xml version="1.0" encoding="iso-8859-1"?>
<!-- Generator: Adobe Illustrator 16.0.0, SVG Export Plug-In . SVG Version: 6.00 Build 0)  -->
<!DOCTYPE svg PUBLIC "-//W3C//DTD SVG 1.1//EN" "http://www.w3.org/Graphics/SVG/1.1/DTD/svg11.dtd">
<svg version="1.1" id="Layer_1" xmlns="http://www.w3.org/2000/svg" xmlns:xlink="http://www.w3.org/1999/xlink" x="0px" y="0px"
	 width="51.961px" height="60.002px" viewBox="0 0 51.961 60.002" style="enable-background:new 0 0 51.961 60.002;"
	 xml:space="preserve">
<g id="Music">
	<g>
		<path style="fill-rule:evenodd;clip-rule:evenodd;fill:#F06EAA;" d="M51.961,53.011l-0.039-34.216
			c0.003-0.063,0.018-0.12,0.018-0.184v-8.088c0-2.234-1.699-4.364-3.796-4.758L17.779,0.063c-2.097-0.394-3.795,1.096-3.795,3.33
			v6.592v1.498v24.776c-0.957-0.174-1.963-0.272-3.008-0.272C4.914,35.986,0,39.121,0,42.992c0,3.87,4.914,7.009,10.977,7.009
			s10.977-3.139,10.977-7.009c0-0.013-0.003-0.024-0.003-0.037c0.018-0.146,0.047-0.288,0.047-0.444l-0.033-25.487l21.985,4.133
			v25.103c-0.957-0.174-1.963-0.272-3.007-0.272c-6.063,0-10.978,3.136-10.978,7.007c0,3.87,4.915,7.009,10.978,7.009
			c5.661,0,10.32-2.738,10.911-6.253C51.921,53.56,51.961,53.322,51.961,53.011z"/>
	</g>
</g>
<g>
</g>
<g>
</g>
<g>
</g>
<g>
</g>
<g>
</g>
<g>
</g>
<g>
</g>
<g>
</g>
<g>
</g>
<g>
</g>
<g>
</g>
<g>
</g>
<g>
</g>
<g>
</g>
<g>
</g>
</svg>
