<?xml version="1.0" encoding="iso-8859-1"?>
<!-- Generator: Adobe Illustrator 16.0.0, SVG Export Plug-In . SVG Version: 6.00 Build 0)  -->
<!DOCTYPE svg PUBLIC "-//W3C//DTD SVG 1.1//EN" "http://www.w3.org/Graphics/SVG/1.1/DTD/svg11.dtd">
<svg version="1.1" id="Layer_1" xmlns="http://www.w3.org/2000/svg" xmlns:xlink="http://www.w3.org/1999/xlink" x="0px" y="0px"
	 width="44px" height="63.999px" viewBox="0 0 44 63.999" style="enable-background:new 0 0 44 63.999;" xml:space="preserve">
<g id="Ring">
	<g>
		<path style="fill-rule:evenodd;clip-rule:evenodd;fill:#CCCCCC;" d="M44,26c0-1.518-0.154-2.999-0.446-4.431l0,0
			c0-0.001,0-0.001,0-0.002C41.503,11.542,32.632,4,22,4C9.85,4,0,13.85,0,26c0,10.632,7.542,19.503,17.568,21.554c0,0,0,0,0.001,0
			l0,0C19.001,47.846,20.482,48,22,48s2.999-0.154,4.431-0.446l0,0c0.001,0,0.001,0,0.001,0C36.458,45.503,44,36.632,44,26z M40,26
			c0,0.964-0.098,1.903-0.243,2.826L29.977,26l9.78-2.826C39.902,24.097,40,25.036,40,26z M38.547,18.914l-13.306,3.844
			l3.845-13.306C33.328,11.271,36.729,14.672,38.547,18.914z M24.826,8.242L22,18.023l-2.826-9.781
			C20.097,8.097,21.036,7.999,22,7.999S23.903,8.097,24.826,8.242z M14.914,9.452l3.845,13.306L5.453,18.914
			C7.271,14.672,10.672,11.271,14.914,9.452z M4,26c0-0.964,0.098-1.902,0.243-2.825L14.023,26l-9.78,2.825
			C4.098,27.902,4,26.964,4,26z M5.452,33.085l13.307-3.844l-3.845,13.306C10.672,40.728,7.271,37.327,5.452,33.085z M19.175,43.756
			L22,33.977l2.825,9.779c-0.923,0.146-1.861,0.243-2.825,0.243S20.098,43.901,19.175,43.756z M29.086,42.547l-3.845-13.306
			l13.307,3.844C36.729,37.327,33.328,40.728,29.086,42.547z"/>
	</g>
</g>
<g id="Microphone">
	<g>
		<circle style="fill:#333333;" cx="22" cy="26" r="10"/>
	</g>
</g>
<g id="Base">
	<g>
		<path style="fill-rule:evenodd;clip-rule:evenodd;fill:#808080;" d="M28,59.999h-2V46h-8v13.999h-2c-1.104,0-2,0.896-2,2.001
			c0,1.104,0.896,1.999,2,1.999h12c1.104,0,2-0.896,2-1.999C30,60.895,29.104,59.999,28,59.999z"/>
	</g>
</g>
<g id="Shape">
	<g>
		<path style="fill-rule:evenodd;clip-rule:evenodd;fill:#999999;" d="M32,39.999c0,0-5,2.001-10,2.001s-10-2.001-10-2.001
			c-2.021-0.812-4,1.792-4,4c0,2.21,1.666,3.251,4,4.001c0,0,5,2,10,2s10-2,10-2c2.146-0.813,4-1.791,4-4.001
			C36,41.791,33.959,39,32,39.999z"/>
	</g>
</g>
<g id="Shape_1_">
	<g>
		<path style="fill:#999999;" d="M32,2c0,0-5-2-10-2S12,2,12,2C9.854,2.875,8,3.79,8,6c0,2.209,2.104,4.813,4,4
			c0,0,5.042-2.001,10.063-2.001C27.041,7.999,32,10,32,10c2.146,1,4-1.791,4-4C36,3.79,34.146,3,32,2z"/>
	</g>
</g>
<g>
</g>
<g>
</g>
<g>
</g>
<g>
</g>
<g>
</g>
<g>
</g>
<g>
</g>
<g>
</g>
<g>
</g>
<g>
</g>
<g>
</g>
<g>
</g>
<g>
</g>
<g>
</g>
<g>
</g>
</svg>
