<?xml version="1.0" encoding="iso-8859-1"?>
<!-- Generator: Adobe Illustrator 16.0.0, SVG Export Plug-In . SVG Version: 6.00 Build 0)  -->
<!DOCTYPE svg PUBLIC "-//W3C//DTD SVG 1.1//EN" "http://www.w3.org/Graphics/SVG/1.1/DTD/svg11.dtd">
<svg version="1.1" id="Layer_1" xmlns="http://www.w3.org/2000/svg" xmlns:xlink="http://www.w3.org/1999/xlink" x="0px" y="0px"
	 width="56px" height="63.991px" viewBox="0 0 56 63.991" style="enable-background:new 0 0 56 63.991;" xml:space="preserve">
<g id="Flute">
	<g>
		<path style="fill-rule:evenodd;clip-rule:evenodd;fill:#FFCC66;" d="M8,0C5.791,0,4,1.791,4,3.999v55.992c0,2.209,1.791,4,4,4
			c2.208,0,4-1.791,4-4V3.999C12,1.791,10.209,0,8,0z M18,0c-2.209,0-4,1.791-4,3.999v47.994c0,2.208,1.791,3.999,4,3.999
			c2.209,0,4-1.791,4-3.999V3.999C22,1.791,20.209,0,18,0z M28,0c-2.209,0-4,1.791-4,3.999v39.995c0,2.209,1.791,3.999,4,3.999
			c2.209,0,4-1.79,4-3.999V3.999C32,1.791,30.209,0,28,0z M38,0c-2.209,0-4,1.791-4,3.999v31.996c0,2.209,1.791,3.999,4,3.999
			s4-1.79,4-3.999V3.999C42,1.791,40.209,0,38,0z M48,0c-2.209,0-4,1.791-4,3.999v23.997c0,2.209,1.791,3.999,4,3.999
			c2.209,0,4-1.79,4-3.999V3.999C52,1.791,50.209,0,48,0z"/>
	</g>
</g>
<g id="Flute_1_">
	<g>
		<path style="fill:#E6B85C;" d="M52,5.999H4c-2.209,0-4,1.791-4,3.999c0,2.209,1.791,4,4,4h48c2.209,0,4-1.791,4-4
			C56,7.79,54.209,5.999,52,5.999z"/>
	</g>
</g>
<g>
</g>
<g>
</g>
<g>
</g>
<g>
</g>
<g>
</g>
<g>
</g>
<g>
</g>
<g>
</g>
<g>
</g>
<g>
</g>
<g>
</g>
<g>
</g>
<g>
</g>
<g>
</g>
<g>
</g>
</svg>
