<?xml version="1.0" encoding="iso-8859-1"?>
<!-- Generator: Adobe Illustrator 16.0.0, SVG Export Plug-In . SVG Version: 6.00 Build 0)  -->
<!DOCTYPE svg PUBLIC "-//W3C//DTD SVG 1.1//EN" "http://www.w3.org/Graphics/SVG/1.1/DTD/svg11.dtd">
<svg version="1.1" id="Layer_1" xmlns="http://www.w3.org/2000/svg" xmlns:xlink="http://www.w3.org/1999/xlink" x="0px" y="0px"
	 width="50px" height="63.971px" viewBox="0 0 50 63.971" style="enable-background:new 0 0 50 63.971;" xml:space="preserve">
<g id="Base_17_">
	<g>
		<path style="fill:#666666;" d="M38,47.986H6c-1.104,0-2,0.895-2,1.998v11.988c0,1.104,0.896,1.998,2,1.998h32
			c1.104,0,2-0.894,2-1.998V49.984C40,48.881,39.104,47.986,38,47.986z"/>
	</g>
</g>
<g id="Leg_1_">
	<g>
		<path style="fill:#333333;" d="M42,59.975H2c-1.105,0-2,0.895-2,1.998c0,1.104,0.895,1.998,2,1.998h40c1.104,0,2-0.894,2-1.998
			C44,60.869,43.104,59.975,42,59.975z"/>
	</g>
</g>
<g id="Shape_20_">
	<g>
		<path style="fill:#999999;" d="M40,45.988H4c-1.105,0-2,0.895-2,1.998s0.895,1.998,2,1.998h36c1.104,0,2-0.895,2-1.998
			S41.104,45.988,40,45.988z"/>
	</g>
</g>
<g id="Disc_2_">
	<g>
		<path style="fill-rule:evenodd;clip-rule:evenodd;fill:#B3B3B3;" d="M34,43.981c-0.002-1.102-0.896-1.993-2-1.993H12
			c-1.103,0-1.997,0.892-1.999,1.993h0v2h1.971c0.01,0,0.019,0.003,0.029,0.003h20c0.01,0,0.019-0.003,0.029-0.003H34L34,43.981
			L34,43.981z"/>
	</g>
</g>
<g id="Patefon">
	<g>
		<path style="fill-rule:evenodd;clip-rule:evenodd;fill:#FFCC66;" d="M43.679,28.372C43.234,28.065,24,14.735,24,2.094
			c0,0,0.5-2.622-2-1.998c0,0-20,6.993-20,29.971c0,0-0.188,1.998,2,1.998s7.75-4.113,16-4.113c13.725,0,23.444,4.633,25.731,9.756
			C45.905,38.445,46,39.216,46,40.009c0,4.104-2.472,7.619-6,9.166v4.198c5.769-1.731,10-7.024,10-13.364
			C50,35.12,47.478,30.862,43.679,28.372z"/>
	</g>
</g>
<g>
</g>
<g>
</g>
<g>
</g>
<g>
</g>
<g>
</g>
<g>
</g>
<g>
</g>
<g>
</g>
<g>
</g>
<g>
</g>
<g>
</g>
<g>
</g>
<g>
</g>
<g>
</g>
<g>
</g>
</svg>
