<?xml version="1.0" encoding="iso-8859-1"?>
<!-- Generator: Adobe Illustrator 16.0.0, SVG Export Plug-In . SVG Version: 6.00 Build 0)  -->
<!DOCTYPE svg PUBLIC "-//W3C//DTD SVG 1.1//EN" "http://www.w3.org/Graphics/SVG/1.1/DTD/svg11.dtd">
<svg version="1.1" id="Layer_1" xmlns="http://www.w3.org/2000/svg" xmlns:xlink="http://www.w3.org/1999/xlink" x="0px" y="0px"
	 width="64px" height="58.008px" viewBox="0 0 64 58.008" style="enable-background:new 0 0 64 58.008;" xml:space="preserve">
<g id="Keys_2_">
	<g>
		<path style="fill:#808080;" d="M58,44.006H6c-1.104,0-2,0.896-2,2.001v10.001c0,1.104,0.896,2,2,2h52c1.104,0,2-0.896,2-2V46.007
			C60,44.902,59.104,44.006,58,44.006z"/>
	</g>
</g>
<g id="Body_39_">
	<g>
		<path style="fill-rule:evenodd;clip-rule:evenodd;fill:#4D4D4D;" d="M49,26.004c-0.338,0-0.668,0.028-1,0.051v-0.051H49h1
			c-7.947,0-13.483-0.185-14-8.001C36,8.061,27.941,0,18,0S0,8.061,0,18.003v14.002v14.002c0,2.209,1.791,4,4,4h14h16h26
			c2.209,0,4-1.791,4-4v-5.001C64,32.721,57.284,26.004,49,26.004z"/>
	</g>
</g>
<g>
</g>
<g>
</g>
<g>
</g>
<g>
</g>
<g>
</g>
<g>
</g>
<g>
</g>
<g>
</g>
<g>
</g>
<g>
</g>
<g>
</g>
<g>
</g>
<g>
</g>
<g>
</g>
<g>
</g>
</svg>
