<?xml version="1.0" encoding="iso-8859-1"?>
<!-- Generator: Adobe Illustrator 16.0.0, SVG Export Plug-In . SVG Version: 6.00 Build 0)  -->
<!DOCTYPE svg PUBLIC "-//W3C//DTD SVG 1.1//EN" "http://www.w3.org/Graphics/SVG/1.1/DTD/svg11.dtd">
<svg version="1.1" id="Layer_1" xmlns="http://www.w3.org/2000/svg" xmlns:xlink="http://www.w3.org/1999/xlink" x="0px" y="0px"
	 width="64px" height="63.938px" viewBox="0 0 64 63.938" style="enable-background:new 0 0 64 63.938;" xml:space="preserve">
<g id="White_Keys">
	<g>
		<path style="fill:#E6E6E6;" d="M34,39.961V0h-4v39.961c0,1.104-0.895,1.997-2,1.997h-6v17.985c0,2.207,1.791,3.995,4,3.995h12
			c2.209,0,4-1.788,4-3.995V41.958h-6C34.895,41.958,34,41.065,34,39.961z M10,39.961V0H4C1.791,0,0,1.789,0,3.996v55.947
			c0,2.207,1.791,3.995,4,3.995h10c2.209,0,4-1.788,4-3.995V41.958h-6C10.896,41.958,10,41.065,10,39.961z M60,0h-6v39.961
			c0,1.104-0.895,1.997-2,1.997h-6v17.985c0,2.207,1.791,3.995,4,3.995h10c2.209,0,4-1.788,4-3.995V3.996C64,1.789,62.209,0,60,0z"
			/>
	</g>
</g>
<g id="Black_Keys_1_">
	<g>
		<path style="fill-rule:evenodd;clip-rule:evenodd;fill:#666666;" d="M38,0.001v35.965c0,1.104,0.896,1.998,2,1.998h8
			c1.104,0,2-0.895,2-1.998V0.001H38z M14,35.966c0,1.104,0.896,1.998,2,1.998h8c1.104,0,2-0.895,2-1.998V0.001H14V35.966z"/>
	</g>
</g>
<g>
</g>
<g>
</g>
<g>
</g>
<g>
</g>
<g>
</g>
<g>
</g>
<g>
</g>
<g>
</g>
<g>
</g>
<g>
</g>
<g>
</g>
<g>
</g>
<g>
</g>
<g>
</g>
<g>
</g>
</svg>
