<?xml version="1.0" encoding="iso-8859-1"?>
<!-- Generator: Adobe Illustrator 16.0.0, SVG Export Plug-In . SVG Version: 6.00 Build 0)  -->
<!DOCTYPE svg PUBLIC "-//W3C//DTD SVG 1.1//EN" "http://www.w3.org/Graphics/SVG/1.1/DTD/svg11.dtd">
<svg version="1.1" id="Layer_1" xmlns="http://www.w3.org/2000/svg" xmlns:xlink="http://www.w3.org/1999/xlink" x="0px" y="0px"
	 width="64px" height="64.001px" viewBox="0 0 64 64.001" style="enable-background:new 0 0 64 64.001;" xml:space="preserve">
<g id="Base_21_">
	<g>
		<path style="fill:#ED7161;" d="M60,24.001H4c-2.209,0-4,1.79-4,4V60c0,2.209,1.791,4.001,4,4.001h56c2.209,0,4-1.792,4-4.001
			V28.001C64,25.791,62.209,24.001,60,24.001z"/>
	</g>
</g>
<g id="Bar_1_">
	<g>
		<path style="fill:#CC6254;" d="M42,52H22c-1.104,0-2,0.896-2,2c0,1.105,0.896,2.001,2,2.001h20c1.104,0,2-0.896,2-2.001
			C44,52.896,43.104,52,42,52z"/>
	</g>
</g>
<g id="Signal_Box">
	<g>
		<rect x="8" y="32" style="fill:#FFFFFF;" width="48" height="12"/>
	</g>
</g>
<g id="Signal_Bars">
	<g>
		<path style="fill-rule:evenodd;clip-rule:evenodd;fill:#CCCCCC;" d="M10,44h2v-9.999h-2V44z M14,44h2v-5.999h-2V44z M18,44h2
			v-5.999h-2V44z M22,44h2v-9.999h-2V44z M26,44h2v-5.999h-2V44z M30,44h2v-5.999h-2V44z M38,44h2v-5.999h-2V44z M42,44h2v-5.999h-2
			V44z M46,44h2v-9.999h-2V44z M50,44h2v-5.999h-2V44z M54,38.001V44h2v-5.999H54z"/>
	</g>
</g>
<g id="Signal_Bar_2_">
	<g>
		<rect x="34" y="34.001" style="fill:#9B7CAB;" width="2" height="9.999"/>
	</g>
</g>
<g id="Knobs_1_">
	<g>
		<path style="fill-rule:evenodd;clip-rule:evenodd;fill:#FFFFFF;" d="M12,48c-2.209,0-4,1.791-4,4c0,2.21,1.791,4.001,4,4.001
			S16,54.21,16,52C16,49.791,14.209,48,12,48z M52,48c-2.209,0-4,1.791-4,4c0,2.21,1.791,4.001,4,4.001S56,54.21,56,52
			C56,49.791,54.209,48,52,48z"/>
	</g>
</g>
<g id="Antena">
	<g>
		<path style="fill-rule:evenodd;clip-rule:evenodd;fill:#CCCCCC;" d="M56,2.001c-1.105,0-2,0.895-2,2v16v2v2h4v-2v-2v-16
			C58,2.896,57.104,2.001,56,2.001z"/>
	</g>
</g>
<g id="Antena_1_">
	<g>
		<circle style="fill:#999999;" cx="56" cy="4" r="4"/>
	</g>
</g>
<g>
</g>
<g>
</g>
<g>
</g>
<g>
</g>
<g>
</g>
<g>
</g>
<g>
</g>
<g>
</g>
<g>
</g>
<g>
</g>
<g>
</g>
<g>
</g>
<g>
</g>
<g>
</g>
<g>
</g>
</svg>
