<?xml version="1.0" encoding="iso-8859-1"?>
<!-- Generator: Adobe Illustrator 16.0.0, SVG Export Plug-In . SVG Version: 6.00 Build 0)  -->
<!DOCTYPE svg PUBLIC "-//W3C//DTD SVG 1.1//EN" "http://www.w3.org/Graphics/SVG/1.1/DTD/svg11.dtd">
<svg version="1.1" id="Layer_1" xmlns="http://www.w3.org/2000/svg" xmlns:xlink="http://www.w3.org/1999/xlink" x="0px" y="0px"
	 width="64px" height="64px" viewBox="0 0 64 64" style="enable-background:new 0 0 64 64;" xml:space="preserve">
<g id="Box_5_">
	<g>
		<path style="fill:#88C057;" d="M60,0H4C1.791,0,0,1.791,0,4v56c0,2.209,1.791,4,4,4h56c2.209,0,4-1.791,4-4V4
			C64,1.791,62.209,0,60,0z"/>
	</g>
</g>
<g id="Box_6_">
	<g>
		<path style="fill-rule:evenodd;clip-rule:evenodd;fill:#666666;" d="M56,0H8H4v4v6v46c0,2.209,1.791,4,4,4h48c2.209,0,4-1.791,4-4
			V10V4V0H56z"/>
	</g>
</g>
<g id="Knobs">
	<g>
		<path style="fill-rule:evenodd;clip-rule:evenodd;fill:#CCCCCC;" d="M16,44c-2.209,0-4,1.791-4,4s1.791,4,4,4s4-1.791,4-4
			S18.209,44,16,44z M48,44c-2.209,0-4,1.791-4,4s1.791,4,4,4s4-1.791,4-4S50.209,44,48,44z M32,44c-2.209,0-4,1.791-4,4
			s1.791,4,4,4s4-1.791,4-4S34.209,44,32,44z"/>
	</g>
</g>
<g id="Grid">
	<g>
		<path style="fill-rule:evenodd;clip-rule:evenodd;fill:#404040;" d="M10,12h44c1.104,0,2-0.896,2-2s-0.896-2-2-2H10
			c-1.104,0-2,0.896-2,2S8.896,12,10,12z M54,16H10c-1.104,0-2,0.896-2,2s0.896,2,2,2h44c1.104,0,2-0.896,2-2S55.104,16,54,16z
			 M54,24H10c-1.104,0-2,0.896-2,2s0.896,2,2,2h44c1.104,0,2-0.896,2-2S55.104,24,54,24z M54,32H10c-1.104,0-2,0.896-2,2
			c0,1.105,0.896,2,2,2h44c1.104,0,2-0.895,2-2C56,32.896,55.104,32,54,32z"/>
	</g>
</g>
<g id="Speaker_10_">
	<g>
		<path style="fill-rule:evenodd;clip-rule:evenodd;" d="M17.174,28h29.652c0.511-1.262,0.861-2.603,1.036-4H16.138
			C16.313,25.397,16.663,26.738,17.174,28z M39.74,8H24.261c-1.831,1.015-3.438,2.378-4.739,4h24.958
			C43.178,10.378,41.571,9.015,39.74,8z M24.26,36h15.48c1.831-1.015,3.438-2.378,4.739-4H19.521
			C20.822,33.622,22.43,34.985,24.26,36z M46.826,16H17.174c-0.511,1.262-0.861,2.603-1.036,4h31.724
			C47.687,18.603,47.337,17.262,46.826,16z"/>
	</g>
</g>
<g>
</g>
<g>
</g>
<g>
</g>
<g>
</g>
<g>
</g>
<g>
</g>
<g>
</g>
<g>
</g>
<g>
</g>
<g>
</g>
<g>
</g>
<g>
</g>
<g>
</g>
<g>
</g>
<g>
</g>
</svg>
