<?xml version="1.0" encoding="iso-8859-1"?>
<!-- Generator: Adobe Illustrator 16.0.0, SVG Export Plug-In . SVG Version: 6.00 Build 0)  -->
<!DOCTYPE svg PUBLIC "-//W3C//DTD SVG 1.1//EN" "http://www.w3.org/Graphics/SVG/1.1/DTD/svg11.dtd">
<svg version="1.1" id="Layer_1" xmlns="http://www.w3.org/2000/svg" xmlns:xlink="http://www.w3.org/1999/xlink" x="0px" y="0px"
	 width="63.977px" height="63.976px" viewBox="0 0 63.977 63.976" style="enable-background:new 0 0 63.977 63.976;"
	 xml:space="preserve">
<g id="Plug_15_">
	<g>
		<path style="fill-rule:evenodd;clip-rule:evenodd;fill:#999999;" d="M46.145,21.979l-0.072,0.072L42,17.979l-4-10l-2,1.999
			L14,31.979c-1.484,1.481-0.371,3.377,1.112,4.859c0.305,0.305,0.629,0.681,0.964,1.071L16,37.979l8,8l0.285-0.261
			c0.656,1.075,2.258,2.201,3.194,3.147c1.467,1.484,3.054,2.597,4.521,1.113l22.062-22l1.938-2L46.145,21.979z"/>
	</g>
</g>
<g id="Plug_2_">
	<g>
		<path style="fill:#B3B3B3;" d="M58.604,0L37.112,21.47c-1.483,1.481-1.483,3.886,0,5.368c1.483,1.481,3.89,1.481,5.373,0
			L63.977,5.367V0H58.604z"/>
	</g>
</g>
<g id="Plug_3_">
	<g>
		
			<rect x="51.165" y="6.175" transform="matrix(0.7075 -0.7068 0.7068 0.7075 8.7478 41.078)" style="fill:#808080;" width="5.657" height="7.594"/>
	</g>
</g>
<g id="Body_6_">
	<g>
		<polygon style="fill:#88C057;" points="30,15.961 8,37.944 0,57.974 6,63.976 26,55.973 48,33.967 		"/>
	</g>
</g>
<g id="Body_7_">
	<g>
		<path style="fill-rule:evenodd;clip-rule:evenodd;fill:#638C3F;" d="M12.005,34.001l18,17.981l2-1.998l-18-17.981L12.005,34.001z
			 M8.005,37.997L26,55.974l2-1.998L10.006,35.998L8.005,37.997z M18.005,28.007l-2,1.998l18,17.982l2-1.999L18.005,28.007z"/>
	</g>
</g>
<g>
</g>
<g>
</g>
<g>
</g>
<g>
</g>
<g>
</g>
<g>
</g>
<g>
</g>
<g>
</g>
<g>
</g>
<g>
</g>
<g>
</g>
<g>
</g>
<g>
</g>
<g>
</g>
<g>
</g>
</svg>
