<?xml version="1.0" encoding="iso-8859-1"?>
<!-- Generator: Adobe Illustrator 16.0.0, SVG Export Plug-In . SVG Version: 6.00 Build 0)  -->
<!DOCTYPE svg PUBLIC "-//W3C//DTD SVG 1.1//EN" "http://www.w3.org/Graphics/SVG/1.1/DTD/svg11.dtd">
<svg version="1.1" id="Layer_1" xmlns="http://www.w3.org/2000/svg" xmlns:xlink="http://www.w3.org/1999/xlink" x="0px" y="0px"
	 width="56px" height="64.001px" viewBox="0 0 56 64.001" style="enable-background:new 0 0 56 64.001;" xml:space="preserve">
<g id="Hair">
	<g>
		<path style="fill:#ED7161;" d="M28,0.001c-11.09,0-16,6-16,16v28h32v-28C44,6.001,37.457,0.001,28,0.001z"/>
	</g>
</g>
<g id="Suit">
	<g>
		<path style="fill:#333333;" d="M52,48.001c-1.88-1.881-16-8-16-8H20c0,0-14.12,6.119-16,8c-3.761,3.76-4,16-4,16h56
			C56,64.001,55.76,51.761,52,48.001z"/>
	</g>
</g>
<g id="Chest">
	<g>
		<path style="fill-rule:evenodd;clip-rule:evenodd;fill:#DBB599;" d="M28,40.002h-8c0,0,2.689,20,8,20c5.31,0,8-20,8-20H28z"/>
	</g>
</g>
<g id="Neck">
	<g>
		<path style="fill:#DBB599;" d="M32,30.001h-8l-4,10.001c0,0,4.023,1.999,8,1.999s8-1.999,8-1.999L32,30.001z"/>
	</g>
</g>
<g id="Head">
	<g>
		<path style="fill-rule:evenodd;clip-rule:evenodd;fill:#F6CBAD;" d="M28,12.001c-0.186,0.41-0.406,0.807-0.657,1.188
			c-0.014,0.021-0.024,0.042-0.038,0.062c-1.88,2.802-5.57,4.743-11.275,4.75c0.088,3.916,0.451,6.961,1.971,10c2,4,6.081,8,10,8
			c3.918,0,8-4,10-8c1.519-3.037,1.882-6.086,1.969-10C33.449,17.993,29.562,15.458,28,12.001z"/>
	</g>
</g>
<g>
</g>
<g>
</g>
<g>
</g>
<g>
</g>
<g>
</g>
<g>
</g>
<g>
</g>
<g>
</g>
<g>
</g>
<g>
</g>
<g>
</g>
<g>
</g>
<g>
</g>
<g>
</g>
<g>
</g>
</svg>
