<?xml version="1.0" encoding="iso-8859-1"?>
<!-- Generator: Adobe Illustrator 16.0.0, SVG Export Plug-In . SVG Version: 6.00 Build 0)  -->
<!DOCTYPE svg PUBLIC "-//W3C//DTD SVG 1.1//EN" "http://www.w3.org/Graphics/SVG/1.1/DTD/svg11.dtd">
<svg version="1.1" id="Layer_1" xmlns="http://www.w3.org/2000/svg" xmlns:xlink="http://www.w3.org/1999/xlink" x="0px" y="0px"
	 width="64px" height="44px" viewBox="0 0 64 44" style="enable-background:new 0 0 64 44;" xml:space="preserve">
<g id="Lower_Lip">
	<g>
		<path style="fill:#D46557;" d="M60,34c-7.813,0-15.875-6-20-6s-8,2-8,2s-3.875-2-8-2s-12.188,6-20,6H0c0,0,1.26,1.364,4,2
			c9.438,2.188,3.375,8,28,8s18.563-5.813,28-8c2.74-0.636,4-2,4-2H60z"/>
	</g>
</g>
<g id="Upper_Lip">
	<g>
		<path style="fill:#ED7161;" d="M62,26C54.813,3.125,39.063,0,36,0s-4,1.999-4,1.999S31.063,0,28,0S9.188,3.125,2,26
			c0,0,0,3.124-2,6c0,0,0.813,2,4,2s8.375-2.125,14-10s10.875-4.625,14-4c3.125-0.625,8.375-3.875,14,4s10.813,10,14,10s4-2,4-2
			C62,29.124,62,26,62,26z"/>
	</g>
</g>
<g>
</g>
<g>
</g>
<g>
</g>
<g>
</g>
<g>
</g>
<g>
</g>
<g>
</g>
<g>
</g>
<g>
</g>
<g>
</g>
<g>
</g>
<g>
</g>
<g>
</g>
<g>
</g>
<g>
</g>
</svg>
