<?xml version="1.0" encoding="iso-8859-1"?>
<!-- Generator: Adobe Illustrator 16.0.0, SVG Export Plug-In . SVG Version: 6.00 Build 0)  -->
<!DOCTYPE svg PUBLIC "-//W3C//DTD SVG 1.1//EN" "http://www.w3.org/Graphics/SVG/1.1/DTD/svg11.dtd">
<svg version="1.1" id="Layer_1" xmlns="http://www.w3.org/2000/svg" xmlns:xlink="http://www.w3.org/1999/xlink" x="0px" y="0px"
	 width="71.951px" height="65.99px" viewBox="0 0 71.951 65.99" style="enable-background:new 0 0 71.951 65.99;"
	 xml:space="preserve">
<g id="Rims_1_">
	<g>
		<path style="fill-rule:evenodd;clip-rule:evenodd;fill:#808080;" d="M5.976,23.959h60c1.104,0,2-0.896,2-2s-0.896-2-2-2h-60
			c-1.104,0-2,0.896-2,2S4.871,23.959,5.976,23.959z M65.976,59.959h-60c-1.104,0-2,0.896-2,2s0.896,2,2,2h60c1.104,0,2-0.896,2-2
			S67.08,59.959,65.976,59.959z"/>
	</g>
</g>
<g id="Body_33_">
	<g>
		<rect x="7.976" y="23.958" style="fill:#88C057;" width="56" height="36"/>
	</g>
</g>
<g id="Stripes_4_">
	<g>
		<polygon style="fill-rule:evenodd;clip-rule:evenodd;fill:#A5D977;" points="7.976,37.666 7.976,51.269 13.976,30.786 
			22.521,59.958 27.431,59.958 35.976,30.786 44.521,59.958 49.431,59.958 57.976,30.786 63.976,51.269 63.976,37.666 
			59.829,24.457 59.976,23.958 55.976,23.958 56.122,24.457 46.976,53.593 37.829,24.457 37.976,23.958 33.976,23.958 
			34.122,24.457 24.976,53.593 15.829,24.457 15.976,23.958 11.976,23.958 12.122,24.457 		"/>
	</g>
</g>
<g id="Stick_1_">
	<g>
		<path style="fill-rule:evenodd;clip-rule:evenodd;fill:#FFCC66;" d="M67.818,1.262c-0.412-1.031-1.603-1.531-2.659-1.115
			L24.948,12.372l1.493,3.738L66.652,3.885C67.709,3.469,68.23,2.295,67.818,1.262z"/>
	</g>
</g>
<g id="Head_6_">
	<g>
		<path style="fill:#E6B85C;" d="M29.519,12.734c-0.824-2.064-4.488-2.558-8.185-1.102c-3.695,1.456-6.022,4.311-5.198,6.375
			s4.488,2.558,8.185,1.102C28.016,17.653,30.344,14.8,29.519,12.734z"/>
	</g>
</g>
<g>
</g>
<g>
</g>
<g>
</g>
<g>
</g>
<g>
</g>
<g>
</g>
<g>
</g>
<g>
</g>
<g>
</g>
<g>
</g>
<g>
</g>
<g>
</g>
<g>
</g>
<g>
</g>
<g>
</g>
</svg>
