<?xml version="1.0" encoding="iso-8859-1"?>
<!-- Generator: Adobe Illustrator 16.0.0, SVG Export Plug-In . SVG Version: 6.00 Build 0)  -->
<!DOCTYPE svg PUBLIC "-//W3C//DTD SVG 1.1//EN" "http://www.w3.org/Graphics/SVG/1.1/DTD/svg11.dtd">
<svg version="1.1" id="Layer_1" xmlns="http://www.w3.org/2000/svg" xmlns:xlink="http://www.w3.org/1999/xlink" x="0px" y="0px"
	 width="63.975px" height="63.989px" viewBox="0 0 63.975 63.989" style="enable-background:new 0 0 63.975 63.989;"
	 xml:space="preserve">
<g id="Magnet">
	<g>
		<path style="fill:#666666;" d="M60.981,34.325c-5.171-5.236-15.248-3.52-22.509,3.835s-8.956,17.562-3.786,22.797
			c5.17,5.236,15.248,3.521,22.508-3.834C64.456,49.769,66.151,39.562,60.981,34.325z"/>
	</g>
</g>
<g id="Speaker_7_">
	<g>
		<path style="fill:#999999;" d="M54.456,7.527c-11.184-11.179-30.754-9.74-43.712,3.212S-3.653,43.253,7.531,54.431
			c11.184,11.179,30.754,9.741,43.712-3.211S65.64,18.706,54.456,7.527z"/>
	</g>
</g>
<g id="Speaker_4_">
	<g>
		<path style="fill:#FFFFFF;" d="M51.462,10.57c-9.733-9.723-26.785-8.454-38.085,2.833c-11.3,11.288-12.57,28.32-2.837,38.042
			c9.734,9.723,26.785,8.454,38.085-2.834C59.926,37.324,61.196,20.292,51.462,10.57z"/>
	</g>
</g>
<g id="Speaker_5_">
	<g>
		<path style="fill:#CCCCCC;" d="M48.38,13.581c-8.294-8.291-22.812-7.222-32.426,2.39C6.339,25.582,5.27,40.094,13.563,48.385
			c8.294,8.292,22.812,7.222,32.426-2.389C55.604,36.385,56.675,21.872,48.38,13.581z"/>
	</g>
</g>
<g id="Speaker_6_">
	<g>
		<path style="fill:#FFFFFF;" d="M39.896,26.122c-3.203-3.187-8.885-2.699-12.692,1.089C23.397,31,22.907,36.655,26.11,39.843
			c3.203,3.187,8.885,2.7,12.691-1.089C42.608,34.966,43.098,29.311,39.896,26.122z"/>
	</g>
</g>
<g id="Hole">
	<g>
		<path style="fill:#AEAEAE;" d="M35.005,30.101c-2.141,0.525-4.322,2.684-4.871,4.821c-0.549,2.139,0.742,3.445,2.883,2.92
			c2.141-0.525,4.322-2.684,4.871-4.822C38.437,30.883,37.146,29.575,35.005,30.101z"/>
	</g>
</g>
<g>
</g>
<g>
</g>
<g>
</g>
<g>
</g>
<g>
</g>
<g>
</g>
<g>
</g>
<g>
</g>
<g>
</g>
<g>
</g>
<g>
</g>
<g>
</g>
<g>
</g>
<g>
</g>
<g>
</g>
</svg>
