<?xml version="1.0" encoding="iso-8859-1"?>
<!-- Generator: Adobe Illustrator 16.0.0, SVG Export Plug-In . SVG Version: 6.00 Build 0)  -->
<!DOCTYPE svg PUBLIC "-//W3C//DTD SVG 1.1//EN" "http://www.w3.org/Graphics/SVG/1.1/DTD/svg11.dtd">
<svg version="1.1" id="Layer_1" xmlns="http://www.w3.org/2000/svg" xmlns:xlink="http://www.w3.org/1999/xlink" x="0px" y="0px"
	 width="60px" height="64px" viewBox="0 0 60 64" style="enable-background:new 0 0 60 64;" xml:space="preserve">
<g id="Shape_39_">
	<g>
		<path style="fill-rule:evenodd;clip-rule:evenodd;fill:#B3B3B3;" d="M24,4c-1.469,0-6,0-6,0s0,3.54,0,6.001
			C18,14.419,24.043,16,24,16c-0.045,0,6-1.581,6-5.999C30,7.472,30,4,30,4S25.417,4,24,4z M24,12c-1.104,0-2,0.21-2-1.999
			s0.896-2,2-2s2-0.209,2,2S25.105,12,24,12z"/>
	</g>
</g>
<g id="Triangle">
	<g>
		<path style="fill-rule:evenodd;clip-rule:evenodd;fill:#CECECE;" d="M36,56v-3.999H4L24,14l15.584,29.611l3.346-2.23L27.54,12.137
			c-0.691-1.313-2.054-2.136-3.539-2.136s-2.848,0.822-3.54,2.136l-20,38.001c-0.652,1.24-0.608,2.73,0.115,3.929
			C1.3,55.268,2.599,56.001,4,56.001h40c0.005,0,0.01-0.001,0.015-0.001H36z"/>
	</g>
</g>
<g id="Stick_3_">
	<g>
		<path style="fill:#CECECE;" d="M56,0c-1.104,0-2,0.896-2,2.001V56c0,1.104,0.896,2.001,2,2.001s2-0.896,2-2.001V2.001
			C58,0.896,57.105,0,56,0z"/>
	</g>
</g>
<g id="Handle_2_">
	<g>
		<path style="fill:#9B7CAB;" d="M56,44c-2.209,0-4,1.791-4,4v12c0,2.209,1.791,4,4,4s4-1.791,4-4V48C60,45.791,58.209,44,56,44z"/>
	</g>
</g>
<g>
</g>
<g>
</g>
<g>
</g>
<g>
</g>
<g>
</g>
<g>
</g>
<g>
</g>
<g>
</g>
<g>
</g>
<g>
</g>
<g>
</g>
<g>
</g>
<g>
</g>
<g>
</g>
<g>
</g>
</svg>
