<?xml version="1.0" encoding="iso-8859-1"?>
<!-- Generator: Adobe Illustrator 16.0.0, SVG Export Plug-In . SVG Version: 6.00 Build 0)  -->
<!DOCTYPE svg PUBLIC "-//W3C//DTD SVG 1.1//EN" "http://www.w3.org/Graphics/SVG/1.1/DTD/svg11.dtd">
<svg version="1.1" id="Layer_1" xmlns="http://www.w3.org/2000/svg" xmlns:xlink="http://www.w3.org/1999/xlink" x="0px" y="0px"
	 width="63.979px" height="46.009px" viewBox="0 0 63.979 46.009" style="enable-background:new 0 0 63.979 46.009;"
	 xml:space="preserve">
<g id="Shape_45_">
	<g>
		<path style="fill-rule:evenodd;clip-rule:evenodd;fill:#CEA453;" d="M51.646,20.867l-8.484-8.485
			c-0.781-0.781-2.048-0.781-2.829,0c-0.78,0.781-0.78,2.048,0,2.828l8.485,8.485c0.781,0.781,2.048,0.781,2.828,0
			C52.428,22.914,52.428,21.648,51.646,20.867z M13.162,24.381c-0.781-0.781-2.048-0.781-2.829,0c-0.78,0.781-0.78,2.048,0,2.828
			l8.485,8.485c0.781,0.781,2.048,0.781,2.828,0c0.781-0.781,0.781-2.047,0-2.828L13.162,24.381z M19.162,18.381
			c-0.781-0.781-2.048-0.781-2.828,0c-0.781,0.781-0.781,2.048,0,2.828l8.484,8.485c0.781,0.781,2.048,0.781,2.828,0
			c0.781-0.78,0.781-2.048,0-2.828L19.162,18.381z"/>
	</g>
</g>
<g id="Body_42_">
	<g>
		<path style="fill-rule:evenodd;clip-rule:evenodd;fill:#FFCC66;" d="M61.621,2.316c-3.146-3.088-8.244-3.088-11.39,0l-0.649,0.637
			c-0.066,0.051-0.136,0.098-0.197,0.159L28.04,24.069l0,0L12.18,39.641c-1.53,1.503-4.046,1.47-5.619-0.074
			c-1.571-1.543-1.605-4.012-0.077-5.516l15.074-14.8l0.788-0.774l0,0l6.495-6.377c0.056-0.053,0.106-0.098,0.168-0.159
			c1.941-1.925,6.942-2.564,8.031-2.564c1.088,0,1.433-1.527,0-2.801l-5.647-5.6c-1.552-1.569-2.823-0.963-2.823,0
			c0,0.911-0.352,5.664-2.063,7.825L6.195,28.743l-3.943,3.872c-0.002,0.002-0.003,0.004-0.005,0.006L0.98,33.864
			c-0.464,0.456-0.646,1.079-0.563,1.671c-0.935,2.725-0.272,5.896,1.986,8.114c3.145,3.088,8.176,3.154,11.237,0.148l4.268-4.19
			l17.446-17.13c0.002,0.01,0.003,0.02,0.006,0.03L51.655,6.509c1.572-1.544,4.122-1.544,5.694,0
			c1.511,1.483,1.554,3.842,0.163,5.396L32.301,36.66c-0.787,0.771-0.787,2.023,0,2.796c0.786,0.771,2.061,0.771,2.847,0
			l13.378-13.135c0.093-0.083,0.192-0.154,0.282-0.242l12.813-12.58C64.766,10.411,64.766,5.404,61.621,2.316z"/>
	</g>
</g>
<g>
</g>
<g>
</g>
<g>
</g>
<g>
</g>
<g>
</g>
<g>
</g>
<g>
</g>
<g>
</g>
<g>
</g>
<g>
</g>
<g>
</g>
<g>
</g>
<g>
</g>
<g>
</g>
<g>
</g>
</svg>
