<?xml version="1.0" encoding="iso-8859-1"?>
<!-- Generator: Adobe Illustrator 16.0.0, SVG Export Plug-In . SVG Version: 6.00 Build 0)  -->
<!DOCTYPE svg PUBLIC "-//W3C//DTD SVG 1.1//EN" "http://www.w3.org/Graphics/SVG/1.1/DTD/svg11.dtd">
<svg version="1.1" id="Layer_1" xmlns="http://www.w3.org/2000/svg" xmlns:xlink="http://www.w3.org/1999/xlink" x="0px" y="0px"
	 width="46px" height="64.014px" viewBox="0 0 46 64.014" style="enable-background:new 0 0 46 64.014;" xml:space="preserve">
<g id="Tube">
	<g>
		<path style="fill:#E6B85C;" d="M42,58.094H16c-1.104,0-2,0.884-2,1.974s0.896,1.973,2,1.973h26c1.104,0,2-0.883,2-1.973
			S43.104,58.094,42,58.094z"/>
	</g>
</g>
<g id="Nozzle_1_">
	<g>
		<path style="fill:#CCA352;" d="M44,56.122c-1.104,0-2,0.883-2,1.973v3.946c0,1.09,0.896,1.974,2,1.974s2-0.884,2-1.974v-3.946
			C46,57.004,45.104,56.122,44,56.122z"/>
	</g>
</g>
<g id="Body_40_">
	<g>
		<path style="fill-rule:evenodd;clip-rule:evenodd;fill:#FFCC66;" d="M38,14.688C37,13.702,12,0.877,12,0.877s-2.688-1.974-4,0
			C6.448,3.209,8,4.823,8,4.823c6,9.541,3.925,15.353,0,19.73c-3.282,3.661-5.266,9.462-5.829,11.269C0.787,38.337,0,41.22,0,44.284
			c0,9.807,8.059,17.757,18,17.757s18-7.95,18-17.757s-8.059-17.758-18-17.758c-2.196,0-4.291,0.407-6.237,1.118
			c10.175-9.26,27.645-7.925,28.237-9.009C41.39,16.088,39,15.675,38,14.688z M32,44.284c0,7.628-6.268,13.811-14,13.811
			S4,51.912,4,44.284s6.268-13.812,14-13.812S32,36.656,32,44.284z"/>
	</g>
</g>
<g>
</g>
<g>
</g>
<g>
</g>
<g>
</g>
<g>
</g>
<g>
</g>
<g>
</g>
<g>
</g>
<g>
</g>
<g>
</g>
<g>
</g>
<g>
</g>
<g>
</g>
<g>
</g>
<g>
</g>
</svg>
