<?xml version="1.0" encoding="iso-8859-1"?>
<!-- Generator: Adobe Illustrator 16.0.0, SVG Export Plug-In . SVG Version: 6.00 Build 0)  -->
<!DOCTYPE svg PUBLIC "-//W3C//DTD SVG 1.1//EN" "http://www.w3.org/Graphics/SVG/1.1/DTD/svg11.dtd">
<svg version="1.1" id="Layer_1" xmlns="http://www.w3.org/2000/svg" xmlns:xlink="http://www.w3.org/1999/xlink" x="0px" y="0px"
	 width="74.003px" height="104px" viewBox="0 0 74.003 104" style="enable-background:new 0 0 74.003 104;" xml:space="preserve">
<g id="Disc_5_">
	<g>
		<path style="fill-rule:evenodd;clip-rule:evenodd;fill:#666666;" d="M38.002,16C20.328,16,6,30.327,6,48
			c0,17.674,14.328,32,32.002,32c17.673,0,32.001-14.326,32.001-32C70.003,30.327,55.675,16,38.002,16z M38.002,50
			c-1.105,0-2.001-0.896-2.001-2s0.896-2,2.001-2c1.104,0,2,0.896,2,2S39.106,50,38.002,50z"/>
	</g>
</g>
<g id="Reflection_1_">
	<g>
		<path style="fill-rule:evenodd;clip-rule:evenodd;fill:#808080;" d="M38.002,72v-0.003C29.715,71.989,21.657,67.693,17.216,60
			c-2.187-3.786-3.217-7.921-3.213-12h-0.002c0-1.104-0.896-2-2.001-2c-1.104,0-2,0.896-2,2c0,0.02,0.005,0.037,0.006,0.056
			C10.011,52.797,11.211,57.6,13.752,62c5.174,8.961,14.554,13.971,24.207,13.996c0.015,0,0.029,0.004,0.043,0.004
			c1.104,0,2-0.896,2-2S39.106,72,38.002,72z M38.002,64c-0.013,0-0.024,0.004-0.037,0.004c-5.517-0.018-10.878-2.873-13.835-7.995
			c-1.453-2.517-2.13-5.264-2.132-7.976c0-0.011,0.003-0.021,0.003-0.033c0-1.104-0.896-2-2-2s-2,0.896-2,2
			c0,0.076,0.014,0.147,0.022,0.222c0.032,3.327,0.875,6.69,2.657,9.778c3.662,6.343,10.275,9.897,17.104,9.979
			C37.857,67.986,37.928,68,38.002,68c1.104,0,2-0.895,2-2C40.002,64.896,39.106,64,38.002,64z M65.997,47.944
			c-0.005-4.741-1.205-9.543-3.746-13.944C57.08,25.044,47.707,20.035,38.06,20.006c-0.02,0-0.038-0.006-0.058-0.006
			c-1.105,0-2.001,0.896-2.001,2c0,1.105,0.896,2,2.001,2v0.003C46.289,24.012,54.346,28.308,58.787,36
			c2.187,3.787,3.216,7.921,3.213,12h0.003c0,1.104,0.896,2,1.999,2c1.105,0,2.001-0.896,2.001-2
			C66.003,47.981,65.998,47.963,65.997,47.944z M55.322,38c-3.659-6.338-10.266-9.891-17.089-9.977
			C38.156,28.014,38.081,28,38.002,28c-1.105,0-2.001,0.896-2.001,2s0.896,2,2.001,2c0.01,0,0.019-0.003,0.029-0.003
			c5.52,0.016,10.883,2.87,13.842,7.994c1.453,2.517,2.13,5.264,2.132,7.975c0,0.012-0.003,0.022-0.003,0.034c0,1.104,0.896,2,2,2
			c1.105,0,2-0.896,2-2c0-0.074-0.014-0.144-0.021-0.215C57.949,44.455,57.106,41.089,55.322,38z"/>
	</g>
</g>
<g id="Label_4_">
	<g>
		<path style="fill-rule:evenodd;clip-rule:evenodd;fill:#ED7161;" d="M38.002,36c-6.628,0-12.001,5.373-12.001,12
			c0,6.628,5.373,12,12.001,12c6.627,0,12-5.372,12-12C50.002,41.373,44.629,36,38.002,36z M38.002,50c-1.105,0-2.001-0.896-2.001-2
			s0.896-2,2.001-2c1.104,0,2,0.896,2,2S39.106,50,38.002,50z"/>
	</g>
</g>
<g>
</g>
<g>
</g>
<g>
</g>
<g>
</g>
<g>
</g>
<g>
</g>
<g>
</g>
<g>
</g>
<g>
</g>
<g>
</g>
<g>
</g>
<g>
</g>
<g>
</g>
<g>
</g>
<g>
</g>
</svg>
