<?xml version="1.0" encoding="iso-8859-1"?>
<!-- Generator: Adobe Illustrator 16.0.0, SVG Export Plug-In . SVG Version: 6.00 Build 0)  -->
<!DOCTYPE svg PUBLIC "-//W3C//DTD SVG 1.1//EN" "http://www.w3.org/Graphics/SVG/1.1/DTD/svg11.dtd">
<svg version="1.1" id="Layer_1" xmlns="http://www.w3.org/2000/svg" xmlns:xlink="http://www.w3.org/1999/xlink" x="0px" y="0px"
	 width="74.003px" height="104px" viewBox="0 0 74.003 104" style="enable-background:new 0 0 74.003 104;" xml:space="preserve">
<g id="Disc_4_">
	<g>
		<path style="fill-rule:evenodd;clip-rule:evenodd;fill:#666666;" d="M38.002,16C20.328,16,6,30.327,6,48
			c0,17.674,14.328,32,32.002,32c17.673,0,32.001-14.326,32.001-32C70.003,30.327,55.675,16,38.002,16z M38.002,50
			c-1.105,0-2.001-0.896-2.001-2s0.896-2,2.001-2c1.104,0,2,0.896,2,2S39.106,50,38.002,50z"/>
	</g>
</g>
<g id="Reflection">
	<g>
		<path style="fill-rule:evenodd;clip-rule:evenodd;fill:#808080;" d="M38.002,72v-0.003C29.715,71.989,21.657,67.693,17.216,60
			c-2.187-3.786-3.217-7.921-3.213-12h-0.002c0-1.104-0.896-2-2.001-2s-2,0.896-2,2c0,0.02,0.005,0.037,0.006,0.056
			C10.01,52.797,11.211,57.6,13.752,62c5.174,8.961,14.554,13.971,24.207,13.996c0.015,0,0.028,0.004,0.043,0.004
			c1.104,0,2-0.896,2-2S39.106,72,38.002,72z M65.997,47.944c-0.004-4.741-1.205-9.543-3.746-13.944
			C57.08,25.044,47.707,20.035,38.06,20.006c-0.02,0-0.038-0.006-0.058-0.006c-1.105,0-2.001,0.896-2.001,2c0,1.105,0.896,2,2.001,2
			v0.003C46.289,24.012,54.346,28.308,58.787,36c2.186,3.787,3.216,7.921,3.212,12h0.004c0,1.104,0.896,2,1.999,2
			c1.105,0,2.001-0.896,2.001-2C66.003,47.981,65.998,47.963,65.997,47.944z M38.002,64c-0.013,0-0.024,0.004-0.036,0.004
			c-5.518-0.018-10.879-2.873-13.836-7.995c-1.452-2.516-2.128-5.261-2.133-7.972c0-0.013,0.004-0.024,0.004-0.037
			c0-1.104-0.896-2-2-2s-2,0.896-2,2c0,0.071,0.014,0.139,0.021,0.208c0.031,3.332,0.874,6.7,2.659,9.792
			c3.661,6.343,10.275,9.897,17.104,9.979C37.857,67.986,37.928,68,38.002,68c1.104,0,2-0.895,2-2
			C40.002,64.896,39.106,64,38.002,64z M55.322,38c-3.659-6.338-10.266-9.891-17.089-9.977C38.156,28.014,38.081,28,38.002,28
			c-1.105,0-2.001,0.896-2.001,2s0.896,2,2.001,2c0.01,0,0.02-0.003,0.029-0.003c5.519,0.016,10.882,2.87,13.842,7.994
			c1.452,2.516,2.129,5.261,2.133,7.972c0,0.013-0.004,0.024-0.004,0.037c0,1.104,0.896,2,2,2s2-0.896,2-2
			c0-0.076-0.014-0.147-0.022-0.221C57.947,44.451,57.105,41.087,55.322,38z"/>
	</g>
</g>
<g id="Label_3_">
	<g>
		<path style="fill-rule:evenodd;clip-rule:evenodd;fill:#CCCCCC;" d="M38.002,36c-6.628,0-12.001,5.373-12.001,12
			c0,6.628,5.373,12,12.001,12c6.627,0,12-5.372,12-12C50.002,41.373,44.629,36,38.002,36z M38.002,50c-1.105,0-2.001-0.896-2.001-2
			s0.896-2,2.001-2c1.104,0,2,0.896,2,2S39.106,50,38.002,50z"/>
	</g>
</g>
<g id="Dot">
	<g>
		<circle style="fill:#FFFFFF;" cx="37.98" cy="48" r="2"/>
	</g>
</g>
<g id="Vinyl_Cover">
	<g>
		<path style="fill-rule:evenodd;clip-rule:evenodd;fill:#9B7CAB;" d="M65.807,16H10.154c-2.306,0-4.174,1.869-4.174,4.174v55.652
			C5.98,78.132,7.849,80,10.154,80h55.652c2.305,0,4.174-1.868,4.174-4.174v-8.348V67.02v-2.871
			C62.783,62.293,57.458,55.777,57.458,48c0-7.776,5.325-14.292,12.522-16.148v-2.87v-0.459v-8.349
			C69.98,17.869,68.111,16,65.807,16z M37.98,62.001c-7.732,0-14-6.269-14-14.001c0-7.731,6.268-14,14-14c7.731,0,14,6.269,14,14
			C51.98,55.732,45.712,62.001,37.98,62.001z"/>
	</g>
</g>
<g>
</g>
<g>
</g>
<g>
</g>
<g>
</g>
<g>
</g>
<g>
</g>
<g>
</g>
<g>
</g>
<g>
</g>
<g>
</g>
<g>
</g>
<g>
</g>
<g>
</g>
<g>
</g>
<g>
</g>
</svg>
