<?xml version="1.0" encoding="iso-8859-1"?>
<!-- Generator: Adobe Illustrator 16.0.0, SVG Export Plug-In . SVG Version: 6.00 Build 0)  -->
<!DOCTYPE svg PUBLIC "-//W3C//DTD SVG 1.1//EN" "http://www.w3.org/Graphics/SVG/1.1/DTD/svg11.dtd">
<svg version="1.1" id="Layer_1" xmlns="http://www.w3.org/2000/svg" xmlns:xlink="http://www.w3.org/1999/xlink" x="0px" y="0px"
	 width="64.002px" height="64.044px" viewBox="0 0 64.002 64.044" style="enable-background:new 0 0 64.002 64.044;"
	 xml:space="preserve">
<g id="Body_45_">
	<g>
		<path style="fill:#A67C52;" d="M43.486,20.5c0,0-10.877-9.063-18.505-1.426c-7.628,7.639-0.947,9.501-5.694,14.254
			c-4.747,4.754-7.818-3.574-15.658,4.276c-7.84,7.851-1.122,15.981,2.847,19.955c3.968,3.974,12.089,10.701,19.929,2.851
			s-0.477-10.926,4.271-15.679c4.747-4.753,6.607,1.937,14.235-5.702C52.537,31.393,43.486,20.5,43.486,20.5z"/>
	</g>
</g>
<g id="Strings_2_">
	<g>
		
			<rect x="9.396" y="32.006" transform="matrix(0.7071 -0.7071 0.7071 0.7071 -15.2925 31.1813)" style="fill:#BF9469;" width="41.193" height="4.088"/>
	</g>
</g>
<g id="Bottom">
	<g>
		<path style="fill-rule:evenodd;clip-rule:evenodd;fill:#664C32;" d="M22.012,50.451l-4.21-4.21l-4.209-4.209
			c0,0-1.447,7.06-4.21,9.822l-2.807,2.807c-0.775,0.775-0.775,2.032,0,2.807c0.775,0.775,2.032,0.775,2.807,0l2.807-2.807l0,0
			C14.952,51.898,22.012,50.451,22.012,50.451z"/>
	</g>
</g>
<g id="Neck_3_">
	<g>
		
			<rect x="24.982" y="15.006" transform="matrix(0.7071 -0.7071 0.7071 0.7071 1.7075 38.2229)" style="fill:#805F3E;" width="44.022" height="4.088"/>
	</g>
</g>
<g id="Head_7_">
	<g>
		<path style="fill:#664B31;" d="M63.37,3.547l-2.939-2.938c-0.812-0.811-2.127-0.811-2.938,0l-2.938,4.939
			c-0.812,0.812-0.812,2.127,0,2.938l0.938,0.938c0.812,0.812,2.127,0.812,2.938,0l4.939-2.938
			C64.181,5.675,64.181,4.359,63.37,3.547z"/>
	</g>
</g>
<g>
</g>
<g>
</g>
<g>
</g>
<g>
</g>
<g>
</g>
<g>
</g>
<g>
</g>
<g>
</g>
<g>
</g>
<g>
</g>
<g>
</g>
<g>
</g>
<g>
</g>
<g>
</g>
<g>
</g>
</svg>
