<?xml version="1.0" encoding="iso-8859-1"?>
<!-- Generator: Adobe Illustrator 16.0.0, SVG Export Plug-In . SVG Version: 6.00 Build 0)  -->
<!DOCTYPE svg PUBLIC "-//W3C//DTD SVG 1.1//EN" "http://www.w3.org/Graphics/SVG/1.1/DTD/svg11.dtd">
<svg version="1.1" id="Layer_1" xmlns="http://www.w3.org/2000/svg" xmlns:xlink="http://www.w3.org/1999/xlink" x="0px" y="0px"
	 width="98.005px" height="75.927px" viewBox="0 0 98.005 75.927" style="enable-background:new 0 0 98.005 75.927;"
	 xml:space="preserve">
<g id="Volume">
	<g>
		<path style="fill-rule:evenodd;clip-rule:evenodd;fill:#AAD1EC;" d="M32.069,71.874c-6.146,0.011-12.297-2.327-16.986-7.017
			c-9.358-9.358-9.358-24.531,0-33.89c4.689-4.69,10.84-7.028,16.986-7.018V7.894c-8.211-0.013-16.427,3.112-22.691,9.377
			c-12.504,12.504-12.504,32.777,0,45.281c6.265,6.266,14.48,9.391,22.691,9.377V71.874z"/>
	</g>
</g>
<g id="Knob">
	<g>
		<circle style="fill:#333333;" cx="32.067" cy="47.954" r="17.984"/>
	</g>
</g>
<g id="Level">
	<g>
		<path style="fill-rule:evenodd;clip-rule:evenodd;fill:#FFFFFF;" d="M34.066,30.31c-0.647-0.071-1.305-0.113-1.972-0.113
			c-0.687,0.001-1.361,0.049-2.027,0.124l-0.01,17.642l3.999-0.004L34.066,30.31z"/>
	</g>
</g>
<g>
</g>
<g>
</g>
<g>
</g>
<g>
</g>
<g>
</g>
<g>
</g>
<g>
</g>
<g>
</g>
<g>
</g>
<g>
</g>
<g>
</g>
<g>
</g>
<g>
</g>
<g>
</g>
<g>
</g>
</svg>
