<?xml version="1.0" encoding="iso-8859-1"?>
<!-- Generator: Adobe Illustrator 16.0.0, SVG Export Plug-In . SVG Version: 6.00 Build 0)  -->
<!DOCTYPE svg PUBLIC "-//W3C//DTD SVG 1.1//EN" "http://www.w3.org/Graphics/SVG/1.1/DTD/svg11.dtd">
<svg version="1.1" id="Layer_1" xmlns="http://www.w3.org/2000/svg" xmlns:xlink="http://www.w3.org/1999/xlink" x="0px" y="0px"
	 width="44px" height="64px" viewBox="0 0 44 64" style="enable-background:new 0 0 44 64;" xml:space="preserve">
<g id="Btns">
	<g>
		<path style="fill-rule:evenodd;clip-rule:evenodd;fill:#4D4D4D;" d="M10,4H2C0.896,4,0,4.896,0,6v8c0,1.105,0.896,2,2,2h8
			c1.104,0,2-0.895,2-2V6C12,4.896,11.104,4,10,4z M10,20H2c-1.104,0-2,0.896-2,2v8c0,1.105,0.896,2,2,2h8c1.104,0,2-0.895,2-2v-8
			C12,20.896,11.104,20,10,20z M10,36H2c-1.104,0-2,0.896-2,2v8.001C0,47.105,0.896,48,2,48h8c1.104,0,2-0.895,2-1.999V38
			C12,36.896,11.104,36,10,36z"/>
	</g>
</g>
<g id="Base_9_">
	<g>
		<path style="fill:#ED7161;" d="M40,0H8C5.791,0,4,1.791,4,4v56c0,2.209,1.791,4,4,4h32c2.209,0,4-1.791,4-4V4
			C44,1.791,42.209,0,40,0z"/>
	</g>
</g>
<g id="Shape_15_">
	<g>
		<path style="fill:#CCCCCC;" d="M42,4H14c-1.104,0-2,0.896-2,2v44c0,1.105,0.896,2,2,2h28c1.104,0,2-0.895,2-2V6
			C44,4.896,43.104,4,42,4z"/>
	</g>
</g>
<g id="Glass" style="opacity:0.4;">
	<g>
		<rect x="16" y="8" style="fill:#808080;" width="24" height="40"/>
	</g>
</g>
<g id="Hole_1_">
	<g>
		<path style="fill-rule:evenodd;clip-rule:evenodd;fill:#4D4D4D;" d="M28,20c1.104,0,2-0.895,2-1.999S29.104,16,28,16
			s-2,0.896-2,2.001S26.896,20,28,20z M28,36c-1.104,0-2,0.896-2,2.001S26.896,40,28,40s2-0.895,2-1.999S29.104,36,28,36z"/>
	</g>
</g>
<g id="Label_1_">
	<g>
		<path style="fill:#808080;" d="M28,24c-1.104,0-2,0.896-2,2v4c0,1.105,0.896,2,2,2s2-0.895,2-2v-4C30,24.896,29.104,24,28,24z"/>
	</g>
</g>
<g>
</g>
<g>
</g>
<g>
</g>
<g>
</g>
<g>
</g>
<g>
</g>
<g>
</g>
<g>
</g>
<g>
</g>
<g>
</g>
<g>
</g>
<g>
</g>
<g>
</g>
<g>
</g>
<g>
</g>
</svg>
