<?xml version="1.0" encoding="iso-8859-1"?>
<!-- Generator: Adobe Illustrator 16.0.0, SVG Export Plug-In . SVG Version: 6.00 Build 0)  -->
<!DOCTYPE svg PUBLIC "-//W3C//DTD SVG 1.1//EN" "http://www.w3.org/Graphics/SVG/1.1/DTD/svg11.dtd">
<svg version="1.1" id="Layer_1" xmlns="http://www.w3.org/2000/svg" xmlns:xlink="http://www.w3.org/1999/xlink" x="0px" y="0px"
	 width="60px" height="60.042px" viewBox="0 0 60 60.042" style="enable-background:new 0 0 60 60.042;" xml:space="preserve">
<g id="Red">
	<g>
		<path style="fill:#ED7161;" d="M54,11.999c-3.314,0-6,2.687-6,6v24C48,45.313,50.686,48,54,48c3.313,0,6-2.687,6-6.001v-24
			C60,14.686,57.313,11.999,54,11.999z"/>
	</g>
</g>
<g id="Green">
	<g>
		<path style="fill:#88C057;" d="M38,7.999c-3.313,0-6,2.687-6,6v32c0,3.314,2.687,6,6,6s6-2.686,6-6v-32
			C44,10.686,41.313,7.999,38,7.999z"/>
	</g>
</g>
<g id="Yellow">
	<g>
		<path style="fill:#FFCC66;" d="M22,4c-3.313,0-6,2.686-6,5.999v40c0,3.313,2.687,6,6,6s6-2.687,6-6v-40C28,6.686,25.313,4,22,4z"
			/>
	</g>
</g>
<g id="Blue">
	<g>
		<path style="fill:#54BBFF;" d="M6,0C2.686,0,0,2.686,0,6v47.999c0,3.313,2.686,6,6,6c3.313,0,6-2.687,6-6V6C12,2.686,9.313,0,6,0z
			"/>
	</g>
</g>
<g id="Holes_7_">
	<g>
		<path style="fill-rule:evenodd;clip-rule:evenodd;fill:#FFFFFF;" d="M6,19.999c-1.104,0-2,0.896-2,2s0.896,2,2,2s2-0.896,2-2
			S7.104,19.999,6,19.999z M6,35.999c-1.104,0-2,0.896-2,2c0,1.104,0.896,2,2,2s2-0.896,2-2C8,36.896,7.104,35.999,6,35.999z
			 M22,19.999c-1.104,0-2,0.896-2,2s0.896,2,2,2s2-0.896,2-2S23.104,19.999,22,19.999z M22,35.999c-1.104,0-2,0.896-2,2
			c0,1.104,0.896,2,2,2s2-0.896,2-2C24,36.896,23.104,35.999,22,35.999z M38,19.999c-1.104,0-2,0.896-2,2s0.896,2,2,2s2-0.896,2-2
			S39.104,19.999,38,19.999z M38,35.999c-1.104,0-2,0.896-2,2c0,1.104,0.896,2,2,2s2-0.896,2-2C40,36.896,39.104,35.999,38,35.999z
			 M54,23.999c1.104,0,2-0.896,2-2s-0.896-2-2-2s-2,0.896-2,2S52.896,23.999,54,23.999z M54,35.999c-1.104,0-2,0.896-2,2
			c0,1.104,0.896,2,2,2s2-0.896,2-2C56,36.896,55.104,35.999,54,35.999z"/>
	</g>
</g>
<g id="Stick_2_">
	<g>
		<path style="fill-rule:evenodd;clip-rule:evenodd;fill:#9B7CAB;" d="M35.743,57.089L27.01,41.517
			c2.431-2.456,3.052-6.374,1.27-9.552c-2.113-3.768-6.793-5.059-10.453-2.884c-3.66,2.176-4.914,6.993-2.801,10.761
			c1.781,3.177,5.388,4.583,8.67,3.644l8.734,15.572c0.528,0.942,1.698,1.265,2.613,0.721C35.958,59.235,36.271,58.03,35.743,57.089
			z"/>
	</g>
</g>
<g>
</g>
<g>
</g>
<g>
</g>
<g>
</g>
<g>
</g>
<g>
</g>
<g>
</g>
<g>
</g>
<g>
</g>
<g>
</g>
<g>
</g>
<g>
</g>
<g>
</g>
<g>
</g>
<g>
</g>
</svg>
