<?xml version="1.0" encoding="UTF-8" standalone="no"?>
<svg width="748px" height="355px" viewBox="0 0 748 355" version="1.1" xmlns="http://www.w3.org/2000/svg" xmlns:xlink="http://www.w3.org/1999/xlink" xmlns:sketch="http://www.bohemiancoding.com/sketch/ns">
    <!-- Generator: Sketch 3.3.3 (12081) - http://www.bohemiancoding.com/sketch -->
    <title>Artboard 1</title>
    <desc>Created with Sketch.</desc>
    <defs>
        <path id="path-1" d="M665.3978,53 L665.3978,317 L57.3978271,317 L57.3978271,53 L665.3978,53 Z"></path>
        <linearGradient x1="50%" y1="0%" x2="56.8317853%" y2="118.706283%" id="linearGradient-3">
            <stop stop-color="#496BE1" offset="0%"></stop>
            <stop stop-color="#09CFD2" offset="100%"></stop>
        </linearGradient>
    </defs>
    <g id="Page-1" stroke="none" stroke-width="1" fill="none" fill-rule="evenodd" sketch:type="MSPage">
        <g id="Artboard-1" sketch:type="MSArtboardGroup">
            <mask id="mask-2" sketch:name="Clip 2" fill="white">
                <use xlink:href="#path-1"></use>
            </mask>
            <g id="Clip-2"></g>
            <path d="M517.7383,198.0741 C516.5782,204.3145 514.4008,209.9192 511.2091,214.8883 C508.0145,219.85735 503.7787,224.02061 498.5018,227.36913 C493.225,230.72064 486.9903,232.94104 479.7948,234.03633 C473.111,235.05103 466.7573,234.74065 460.7279,233.10519 C454.6985,231.47569 449.3026,228.82255 444.5433,225.14873 C439.784,221.47789 435.8011,216.8491 432.5945,211.2712 C429.382,205.6933 427.2641,199.4648 426.226,192.5887 C425.1879,185.7156 425.3753,179.135 426.7971,172.8527 C428.213,166.5735 430.6462,160.93 434.0967,155.9192 C437.5472,150.9143 441.9108,146.7361 447.1907,143.3846 C452.4675,140.0361 458.4434,137.8485 465.1273,136.8338 C472.3227,135.7415 478.9411,136.0549 484.9825,137.7739 C491.0238,139.4959 496.3066,142.2535 500.822,146.0497 C505.3374,149.8459 509.0704,154.5553 512.0182,160.172 C514.972,165.7916 516.953,171.9515 517.9644,178.6545 C518.9757,185.3575 518.9014,191.8307 517.7383,198.0741 M242.19,220.15878 C241.2024,225.23527 239.3582,229.86709 236.6632,234.05423 C233.9623,238.24734 230.378,241.77791 225.9072,244.65489 C221.4335,247.53485 216.115,249.43891 209.9487,250.37602 C206.519,250.89531 203.0805,251.02364 199.624,250.75504 C196.1676,250.48943 192.9283,249.66274 189.9151,248.27499 C186.9018,246.88723 184.3616,244.85783 182.2942,242.1808 C180.221,239.50677 178.8675,236.02096 178.2191,231.7234 C177.3624,226.05002 178.5612,221.21228 181.8094,217.20122 C185.0576,213.1902 189.5046,209.8327 195.1414,207.1318 C200.7781,204.4279 207.1943,202.2254 214.3868,200.5153 C221.5733,198.8082 228.7688,197.4056 235.9612,196.3133 L241.1043,195.5343 L242.4666,204.5562 C243.2697,209.8864 243.1745,215.0912 242.19,220.15878 M606.5438,135.5236 C605.119,126.072 600.6006,119.0646 592.9887,114.5044 C585.3768,109.9501 574.243,107.288 559.5844,106.524 C549.3371,105.9719 541.6746,104.5424 536.594,102.2354 C531.5165,99.9344 528.5479,95.9413 527.6912,90.2709 C527.2004,87.0059 527.4978,84.0603 528.5895,81.431 C529.6841,78.8048 531.3142,76.5336 533.4797,74.6206 C535.6422,72.7106 538.2181,71.1796 541.1987,70.0216 C544.1762,68.8696 547.2073,68.0519 550.2919,67.5833 C556.9727,66.5686 563.1658,67.258 568.871,69.6426 C574.5762,72.0301 579.0886,75.5189 582.4112,80.1119 L594.2559,68.028 C589.2794,61.7548 582.5629,57.3229 574.1151,54.7354 C565.6614,52.1539 557.2375,51.4973 548.8462,52.7717 C543.3582,53.6043 538.1557,55.0995 533.2239,57.2543 C528.292,59.412 524.0265,62.2114 520.4303,65.6584 C516.8311,69.1054 514.1599,73.206 512.4287,77.9512 C510.6886,82.6994 510.287,88.1669 511.221,94.3536 C512.0777,100.027 513.9041,104.5871 516.7002,108.0252 C519.4963,111.4722 522.798,114.1821 526.6025,116.1488 C530.401,118.1245 534.4167,119.4466 538.6376,120.124 C542.8555,120.8015 546.8325,121.2969 550.5566,121.6103 C562.4489,122.619 571.676,124.2485 578.2379,126.5047 C584.7998,128.7639 588.5626,133.0704 589.5234,139.4273 C590.1183,143.3816 589.8446,146.8077 588.7053,149.7056 C587.5661,152.6065 585.8438,155.1104 583.5326,157.2174 C581.2214,159.3274 578.4044,160.9867 575.0789,162.1924 C571.7593,163.4011 568.2106,164.2905 564.4448,164.8635 C557.2494,165.9558 550.3811,165.1529 543.8401,162.455 C537.299,159.7541 532.0846,155.9759 528.1969,151.1172 L528.0392,151.2754 C523.8986,144.1098 518.7467,138.1171 512.5685,133.3211 C506.316,128.4685 499.1295,124.9916 491.0149,122.8816 C482.9003,120.7746 474.1283,120.4344 464.7079,121.8639 C456.1411,123.1652 448.0087,126.4719 440.3105,131.7692 C432.6094,137.0725 426.8715,144.0531 423.0997,152.7139 L421.1454,153.7107 L420.1579,147.4703 L417.457,125.6751 C415.1993,110.7201 409.5714,99.2719 400.5734,91.3154 C391.5783,83.3649 379.451,80.5447 364.2064,82.8606 C354.4409,84.3438 346.3323,87.8177 339.8864,93.2792 C333.4376,98.7437 328.7824,105.9122 325.9149,114.7879 C323.0801,109.9442 320.0044,106.1032 316.6848,103.265 C313.3652,100.4328 309.888,98.2781 306.2471,96.8098 C302.6062,95.3414 298.9803,94.5297 295.3662,94.3715 C291.7491,94.2223 288.3105,94.3894 285.0593,94.8818 C276.323,96.2099 268.726,99.6062 262.2831,105.0676 C255.8313,110.5321 251.429,117.0471 249.0642,124.6156 L248.5496,124.6932 C248.1629,122.1146 247.5799,118.8646 246.8154,114.9341 C246.045,111.0066 245.2448,107.4373 244.409,104.223 L227.7098,106.7598 C228.6706,110.8335 229.6284,115.4355 230.5803,120.5657 C231.5262,125.6959 232.249,129.898 232.7398,133.16 L233.9861,141.4149 C229.679,139.09 224.9911,137.4695 219.8629,136.6517 C213.9376,135.7057 207.7178,135.7266 201.2095,136.7144 C190.9294,138.2753 181.967,141.3104 174.3254,145.8079 C166.6778,150.3144 160.7465,155.4327 156.53157,161.1717 L168.0491,171.2889 C171.681,166.3437 176.3868,162.1118 182.1693,158.5962 C187.9459,155.0805 194.4304,152.7766 201.6289,151.6843 C212.0755,150.0966 220.4281,151.4485 226.6836,155.7311 C232.9391,160.0197 236.8536,167.3674 238.4242,177.7711 L239.0042,181.609 C228.037,183.2773 217.516,185.2739 207.4412,187.5958 C197.3634,189.9206 188.5854,193.0185 181.1133,196.8893 C174.9262,200.0945 170.039,204.1205 166.306,208.8807 L166.2673,208.824 C159.1075,217.33552 153.55106,222.65077 148.68468,226.37532 C143.81533,230.10585 137.52414,232.55605 129.81705,233.72595 C122.79114,234.79138 116.26793,234.51085 110.23553,232.87539 C104.20609,231.24291 98.88758,228.53306 94.28891,224.74881 C89.68429,220.96457 85.87388,216.3119 82.8547,210.7937 C79.8266,205.2785 77.79795,199.0768 76.75983,192.2007 C75.72468,185.3276 75.82582,178.7619 77.07513,172.5066 C78.32147,166.2512 80.62676,160.6256 83.99396,155.6297 C87.35521,150.6367 91.67725,146.4645 96.95709,143.113 C102.23099,139.7645 108.3794,137.553 115.40829,136.4846 C121.91662,135.4968 128.18104,136.0877 134.20453,138.2484 C140.22206,140.4091 145.04085,143.5905 148.65494,147.7896 L160.7971,135.9206 C154.62191,129.8294 147.11114,125.6512 138.27075,123.386 C129.42738,121.1298 120.98261,120.6045 112.93048,121.8281 C103.16797,123.3114 94.58339,126.2451 87.18566,130.6202 C79.78198,134.9984 73.72578,140.4449 69.01408,146.9599 C64.302375,153.4779 60.99169,160.8405 59.073099,169.0416 C57.1545082,177.2458 56.8838232,185.9036 58.25807,195.0121 C59.632316,204.1235 62.44625,212.3098 66.696896,219.57681 C70.95052,226.84089 76.2839,232.89031 82.70895,237.71611 C89.13102,242.54192 96.52281,245.94714 104.88727,247.9288 C113.24281,249.91045 122.30629,250.16114 132.07177,248.67789 C142.5214,247.09017 151.18629,243.83716 158.0694,238.92779 C158.9886,238.2742 159.8155,237.54899 160.6841,236.85362 C161.7995,242.76874 163.8311,247.70795 166.889,251.57576 C170.2443,255.82855 174.1588,259.11738 178.6266,261.43628 C183.0944,263.75815 187.8686,265.19366 192.9491,265.74279 C198.0237,266.29193 202.8752,266.21732 207.5007,265.51598 C217.2661,264.03272 225.351,261.00055 231.7582,256.42544 C238.1654,251.85032 243.4988,245.10554 247.7613,236.19108 L248.2759,236.11348 C248.7697,239.38142 249.4449,242.70606 250.3075,246.09039 C251.1672,249.48069 252.0774,252.59344 253.0322,255.43461 L268.7052,253.05603 C267.5005,249.72243 266.3523,245.592 265.2607,240.65577 C264.1601,235.72551 263.2677,230.93551 262.5687,226.29474 L256.9527,189.082 L252.0923,154.7045 C251.2237,146.2496 252.2916,148.8849 254.3232,138.2902 C255.519,132.0557 258.1098,129.701 260.8702,125.3259 C263.6276,120.9507 266.9591,117.5037 270.8707,114.9729 C274.7822,112.4451 278.7979,110.8664 282.9087,110.2426 C288.7299,109.3592 293.6647,109.5323 297.7072,110.7649 C301.7436,111.9975 305.09,114.1254 307.7403,117.1516 C310.3847,120.1807 312.4996,124.0366 314.0851,128.7162 C315.6646,133.3987 316.899,138.6632 317.7825,144.5067 L328.4016,214.8913 L345.8772,212.2381 L336.189,148.0403 C335.3324,142.3669 335.1003,136.7771 335.4989,131.2649 C335.8916,125.7586 337.0992,120.697 339.119,116.0772 C341.1387,111.4662 344.143,107.5358 348.12,104.2947 C352.0999,101.0536 357.2578,98.9496 363.5996,97.9856 C374.9029,96.2696 383.4935,98.9197 389.3742,105.9391 C395.2519,112.9584 399.1545,122.8309 401.0731,135.5475 L410.6125,193.6571 L429.2452,317.140459 L446.7177,314.484326 L434.3079,232.2397 L435.0812,232.12331 C441.188,238.93376 448.7017,243.72673 457.6225,246.50224 C466.5372,249.27477 475.2824,250.0149 483.8491,248.7137 C493.2696,247.28416 501.5478,244.35346 508.6778,239.93354 C515.8078,235.51361 521.6439,230.05213 526.1831,223.55803 C530.7252,217.06692 533.911,209.7282 535.7403,201.536 C537.4775,193.7646 537.7363,185.641 536.6089,177.1921 C537.6054,177.5293 538.6108,177.8487 539.634,178.1262 C548.7659,180.6033 557.877,181.1554 566.9583,179.7766 C572.4375,178.9439 577.7828,177.4726 582.9853,175.3656 C588.1848,173.2556 592.7002,170.3727 596.5314,166.7138 C600.3567,163.0579 603.242,158.6648 605.1844,153.5316 C607.1268,148.4044 607.5819,142.3997 606.5438,135.5236" id="Fill-1" fill="url(#linearGradient-3)" sketch:type="MSShapeGroup" mask="url(#mask-2)"></path>
            <path d="M665.3993,249.35415 L647.9268,252.0073 L629.7195,131.3472 L647.192,128.6941 L665.3993,249.35415 Z M643.7891,81.7372 C644.3335,85.3454 643.4947,88.5059 641.2727,91.2187 C639.0566,93.9286 636.4063,95.5163 633.3217,95.9849 C630.237,96.4534 627.2357,95.7252 624.3147,93.7943 C621.3967,91.8634 619.6625,89.0938 619.1181,85.4857 C618.5738,81.8745 619.4126,78.714 621.6287,76.0042 C623.8507,73.2943 626.501,71.7036 629.5856,71.2351 C632.6702,70.7665 635.6716,71.4977 638.5896,73.4286 C641.5106,75.3595 643.2448,78.1291 643.7891,81.7372 L643.7891,81.7372 Z" id="Fill-3" fill="url(#linearGradient-3)" sketch:type="MSShapeGroup" mask="url(#mask-2)"></path>
        </g>
    </g>
</svg>