<?xml version="1.0" encoding="iso-8859-1"?>
<!-- Generator: Adobe Illustrator 16.0.0, SVG Export Plug-In . SVG Version: 6.00 Build 0)  -->
<!DOCTYPE svg PUBLIC "-//W3C//DTD SVG 1.1//EN" "http://www.w3.org/Graphics/SVG/1.1/DTD/svg11.dtd">
<svg version="1.1" id="Layer_1" xmlns="http://www.w3.org/2000/svg" xmlns:xlink="http://www.w3.org/1999/xlink" x="0px" y="0px"
	 width="64px" height="74px" viewBox="0 0 64 74" style="enable-background:new 0 0 64 74;" xml:space="preserve">
<g id="Cable_16_">
	<g>
		<path style="fill:#CCCCCC;" d="M34,54h-4c-1.104,0-2,0.896-2,2v16c0,1.104,0.896,2,2,2h4c1.104,0,2-0.896,2-2V56
			C36,54.896,35.104,54,34,54z"/>
	</g>
</g>
<g id="Cable_17_">
	<g>
		<path style="fill:#B3B3B3;" d="M36,48h-8c-1.104,0-2,0.896-2,2v10c0,1.104,0.896,2,2,2h8c1.104,0,2-0.896,2-2V50
			C38,48.896,37.104,48,36,48z"/>
	</g>
</g>
<g id="Body_19_">
	<g>
		<path style="fill:#CCCCCC;" d="M60,22H4c-2.209,0-4,1.791-4,4v28c0,2.209,1.791,4,4,4h56c2.209,0,4-1.791,4-4V26
			C64,23.791,62.209,22,60,22z"/>
	</g>
</g>
<g id="Body_20_">
	<g>
		<path style="fill:#FFFFFF;" d="M58,26H6c-1.104,0-2,0.896-2,2v24c0,1.104,0.896,2,2,2h52c1.104,0,2-0.896,2-2V28
			C60,26.896,59.104,26,58,26z"/>
	</g>
</g>
<g id="Symbol">
	<g>
		<path style="fill-rule:evenodd;clip-rule:evenodd;fill:#CCCCCC;" d="M40,34H24c-1.104,0-2,0.896-2,2v6c0,1.104,0.896,2,2,2h16
			c1.104,0,2-0.896,2-2v-6C42,34.896,41.104,34,40,34z M40,42H24v-6h16V42z M27,40h10c0.552,0,1-0.448,1-1s-0.448-1-1-1H27
			c-0.553,0-1,0.448-1,1S26.447,40,27,40z"/>
	</g>
</g>
<g id="Plug_3_">
	<g>
		<path style="fill-rule:evenodd;clip-rule:evenodd;fill:#B3B3B3;" d="M54,10H10c-1.104,0-2,0.896-2,2v10h48V12
			C56,10.896,55.104,10,54,10z"/>
	</g>
</g>
<g id="Pins_6_">
	<g>
		<path style="fill-rule:evenodd;clip-rule:evenodd;fill:#8C8C8C;" d="M16,14c0,1.104,0.896,2,2,2s2-0.896,2-2v-4h-4V14z M44,10v4
			c0,1.104,0.896,2,2,2s2-0.896,2-2v-4H44z"/>
	</g>
</g>
<g>
</g>
<g>
</g>
<g>
</g>
<g>
</g>
<g>
</g>
<g>
</g>
<g>
</g>
<g>
</g>
<g>
</g>
<g>
</g>
<g>
</g>
<g>
</g>
<g>
</g>
<g>
</g>
<g>
</g>
</svg>
