<?xml version="1.0" encoding="iso-8859-1"?>
<!-- Generator: Adobe Illustrator 16.0.0, SVG Export Plug-In . SVG Version: 6.00 Build 0)  -->
<!DOCTYPE svg PUBLIC "-//W3C//DTD SVG 1.1//EN" "http://www.w3.org/Graphics/SVG/1.1/DTD/svg11.dtd">
<svg version="1.1" id="Layer_1" xmlns="http://www.w3.org/2000/svg" xmlns:xlink="http://www.w3.org/1999/xlink" x="0px" y="0px"
	 width="28px" height="64px" viewBox="0 0 28 64" style="enable-background:new 0 0 28 64;" xml:space="preserve">
<g id="Cable_10_">
	<g>
		<path style="fill:#CCCCCC;" d="M20,46h-4c-1.104,0-2,0.896-2,2v14c0,1.104,0.896,2,2,2h4c1.104,0,2-0.896,2-2V48
			C22,46.896,21.104,46,20,46z"/>
	</g>
</g>
<g id="Cable_11_">
	<g>
		<path style="fill:#B3B3B3;" d="M22,48h-8c-1.104,0-2,0.896-2,2v6c0,1.104,0.896,2,2,2h8c1.104,0,2-0.896,2-2v-6
			C24,48.896,23.104,48,22,48z"/>
	</g>
</g>
<g id="Body_14_">
	<g>
		<path style="fill:#CCCCCC;" d="M24,0H12C9.791,0,8,1.791,8,4v44c0,2.209,1.791,4,4,4h12c2.209,0,4-1.791,4-4V4
			C28,1.791,26.209,0,24,0z"/>
	</g>
</g>
<g id="Body_15_">
	<g>
		<path style="fill-rule:evenodd;clip-rule:evenodd;fill:#B3B3B3;" d="M8.01,8.001C8.007,8.001,8.003,8,8,8H4c-2.209,0-4,1.79-4,4
			v20c0,2.209,1.791,4,4,4h4v0.001h4V32V12V8.001H8.01z"/>
	</g>
</g>
<g id="Grey_Led">
	<g>
		<circle style="fill:#999999;" cx="20" cy="22.001" r="2"/>
	</g>
</g>
<g>
</g>
<g>
</g>
<g>
</g>
<g>
</g>
<g>
</g>
<g>
</g>
<g>
</g>
<g>
</g>
<g>
</g>
<g>
</g>
<g>
</g>
<g>
</g>
<g>
</g>
<g>
</g>
<g>
</g>
</svg>
