<?xml version="1.0" encoding="iso-8859-1"?>
<!-- Generator: Adobe Illustrator 16.0.0, SVG Export Plug-In . SVG Version: 6.00 Build 0)  -->
<!DOCTYPE svg PUBLIC "-//W3C//DTD SVG 1.1//EN" "http://www.w3.org/Graphics/SVG/1.1/DTD/svg11.dtd">
<svg version="1.1" id="Layer_1" xmlns="http://www.w3.org/2000/svg" xmlns:xlink="http://www.w3.org/1999/xlink" x="0px" y="0px"
	 width="64px" height="36px" viewBox="0 0 64 36" style="enable-background:new 0 0 64 36;" xml:space="preserve">
<g id="Upper_8_">
	<g>
		<path style="fill:#48A0DC;" d="M52,22.001h-4L26,8c-2-4-6-8-8-8c-2,0-2,2-2,2C12,6.001,8,6.001,6,6.001S2,6.001,2,8
			c0,0.569,0,6,0,8s-2,6.001-2,12v4h54l8-4v-2C62,24,58,22.001,52,22.001z"/>
	</g>
</g>
<g id="Stripes_1_">
	<g>
		<path style="fill:#FFFFFF;" d="M43.2,21.601L36,30h4l6-6.999L43.2,21.601z M32,16L20,30h4l10.8-12.6L32,16z M37.6,18.8L28,30h4
			l8.4-9.8L37.6,18.8z"/>
	</g>
</g>
<g id="Design_6_">
	<g>
		<path style="fill:#E6E6E6;" d="M18,6.001L16,2C12,6.001,8,6.001,6,6.001S2,6.001,2,8c0,0.196,0,2,0,2C16,10,18,6.001,18,6.001z
			 M20,10c0,0-4,4-18,4v2c0,0,4,2,10,2c6,0,10-4,10-4L20,10z"/>
	</g>
</g>
<g id="Tongue_7_">
	<g>
		<path style="fill:#408EC2;" d="M48,22.001L26,8c-2-4-6-8-8-8c-2,0-2,2-2,2l2,4.001L20,10v6c0,4.001,2,4.001,4,4.001
			c2,0,4-4.001,6-4.001s12,6.001,14,8c2,2,2,4,4,4s4-2,4-5.999H48z"/>
	</g>
</g>
<g id="Sole_7_">
	<g>
		<path style="fill:#E6E6E6;" d="M62,26c-2,0-4.599,4-30,4c-10,0-28,0-30,0c-2,0-2,0-2,2c0,4,0,4,7,4c6.729,0,20.547,0,25,0
			c6,0,32,0,32-8C64,28,64,26,62,26z"/>
	</g>
</g>
<g>
</g>
<g>
</g>
<g>
</g>
<g>
</g>
<g>
</g>
<g>
</g>
<g>
</g>
<g>
</g>
<g>
</g>
<g>
</g>
<g>
</g>
<g>
</g>
<g>
</g>
<g>
</g>
<g>
</g>
</svg>
