<?xml version="1.0" encoding="iso-8859-1"?>
<!-- Generator: Adobe Illustrator 16.0.0, SVG Export Plug-In . SVG Version: 6.00 Build 0)  -->
<!DOCTYPE svg PUBLIC "-//W3C//DTD SVG 1.1//EN" "http://www.w3.org/Graphics/SVG/1.1/DTD/svg11.dtd">
<svg version="1.1" id="Layer_1" xmlns="http://www.w3.org/2000/svg" xmlns:xlink="http://www.w3.org/1999/xlink" x="0px" y="0px"
	 width="60px" height="64px" viewBox="0 0 60 64" style="enable-background:new 0 0 60 64;" xml:space="preserve">
<g id="Heel_8_">
	<g>
		<path style="fill:#FFCC66;" d="M0,26c0,0,5.999,8,5.999,36c0,1.104,0.896,2,2.001,2c1.104,0,2-0.896,2-2V38c0-2,0.791-4,2-4
			c1.208,0,2,2,2,2V26H0z"/>
	</g>
</g>
<g id="Shoe_17_">
	<g>
		<path style="fill:#666666;" d="M46,46c0,0-8-13.999-8-46c-4,0-12,2-16,2s-8-2-12-2C10,8,0,14,0,24.001V26c0,0,6,0,16,14.001
			C26,54,26,64,34,64c22,0,26-3.999,26-10C60,50,52,50,46,46z"/>
	</g>
</g>
<g id="Straps_1_">
	<g>
		<path style="fill-rule:evenodd;clip-rule:evenodd;fill:#999999;" d="M24,10h14c1.104,0,2-0.896,2-2s-0.896-2-2-2H24
			c-1.105,0-2,0.896-2,2S22.895,10,24,10z M38,18H24c-1.105,0-2,0.896-2,2s0.895,2,2,2h14c1.104,0,2-0.896,2-2S39.104,18,38,18z"/>
	</g>
</g>
<g id="Buckle_7_">
	<g>
		<path style="fill-rule:evenodd;clip-rule:evenodd;fill:#FFCC66;" d="M34,16h-4c-1.105,0-2,0.896-2,2v4
			c0,1.104,0.895,2.001,2,2.001h4c1.104,0,2-0.896,2-2.001v-4C36,16.896,35.104,16,34,16z M34,4h-4c-1.105,0-2,0.896-2,2v4
			c0,1.104,0.895,2,2,2h4c1.104,0,2-0.896,2-2V6C36,4.896,35.104,4,34,4z"/>
	</g>
</g>
<g>
</g>
<g>
</g>
<g>
</g>
<g>
</g>
<g>
</g>
<g>
</g>
<g>
</g>
<g>
</g>
<g>
</g>
<g>
</g>
<g>
</g>
<g>
</g>
<g>
</g>
<g>
</g>
<g>
</g>
</svg>
