<?xml version="1.0" encoding="iso-8859-1"?>
<!-- Generator: Adobe Illustrator 16.0.0, SVG Export Plug-In . SVG Version: 6.00 Build 0)  -->
<!DOCTYPE svg PUBLIC "-//W3C//DTD SVG 1.1//EN" "http://www.w3.org/Graphics/SVG/1.1/DTD/svg11.dtd">
<svg version="1.1" id="Layer_1" xmlns="http://www.w3.org/2000/svg" xmlns:xlink="http://www.w3.org/1999/xlink" x="0px" y="0px"
	 width="64px" height="64px" viewBox="0 0 64 64" style="enable-background:new 0 0 64 64;" xml:space="preserve">
<g id="Bag_1_">
	<g>
		<path style="fill:#FF8833;" d="M0,24c0,0,4,8,4,12v16c0,6,2,12,8,12h40c6,0,8-6,8-12V36c0-4,4-12,4-12H0z"/>
	</g>
</g>
<g id="Lines_1_">
	<g>
		<path style="fill-rule:evenodd;clip-rule:evenodd;fill:#999999;" d="M12,64h8V32h-8V64z M44,32v32h8V32H44z"/>
	</g>
</g>
<g id="Design_7_">
	<g>
		<path style="fill-rule:evenodd;clip-rule:evenodd;fill:#FFCC66;" d="M44,24v8c0,2.209,1.791,4,4,4s4-1.791,4-4v-8H44z M12,32
			c0,2.209,1.791,4,4,4s4-1.791,4-4v-8h-8V32z"/>
	</g>
</g>
<g id="Handle_1_">
	<g>
		<path style="fill-rule:evenodd;clip-rule:evenodd;fill:#999999;" d="M32,0C22,0,14,22,14,30c0,1.104,0.896,2,2,2s2-0.896,2-2
			c0-6,6-26,14-26s14,20,14,26c0,1.104,0.896,2,2,2s2-0.896,2-2C50,22,42,0,32,0z"/>
	</g>
</g>
<g>
</g>
<g>
</g>
<g>
</g>
<g>
</g>
<g>
</g>
<g>
</g>
<g>
</g>
<g>
</g>
<g>
</g>
<g>
</g>
<g>
</g>
<g>
</g>
<g>
</g>
<g>
</g>
<g>
</g>
</svg>
