<?xml version="1.0" encoding="iso-8859-1"?>
<!-- Generator: Adobe Illustrator 16.0.0, SVG Export Plug-In . SVG Version: 6.00 Build 0)  -->
<!DOCTYPE svg PUBLIC "-//W3C//DTD SVG 1.1//EN" "http://www.w3.org/Graphics/SVG/1.1/DTD/svg11.dtd">
<svg version="1.1" id="Layer_1" xmlns="http://www.w3.org/2000/svg" xmlns:xlink="http://www.w3.org/1999/xlink" x="0px" y="0px"
	 width="64px" height="40px" viewBox="0 0 64 40" style="enable-background:new 0 0 64 40;" xml:space="preserve">
<g id="Back">
	<g>
		<path style="fill:#333333;" d="M0,7.999v2C0,16,8,20,14,26s10,14,14,14h8c4,0,8-8,14-14S64,16,64,9.999v-2H0z"/>
	</g>
</g>
<g id="Front_4_">
	<g>
		<path style="fill:#808080;" d="M60,0c0,0-10,1.999-28,1.999S4,0,4,0C2,0,0,3.999,0,8v1.999c0,0,0-2,4-2c8,0,24,14,24,28.001
			c0,1.999,0,4,2,4h4c2,0,2-2.001,2-4C36,21.999,52,7.999,60,7.999c4,0,4,2,4,2V8C64,6,62,0,60,0z"/>
	</g>
</g>
<g>
</g>
<g>
</g>
<g>
</g>
<g>
</g>
<g>
</g>
<g>
</g>
<g>
</g>
<g>
</g>
<g>
</g>
<g>
</g>
<g>
</g>
<g>
</g>
<g>
</g>
<g>
</g>
<g>
</g>
</svg>
