<?xml version="1.0" encoding="iso-8859-1"?>
<!-- Generator: Adobe Illustrator 16.0.0, SVG Export Plug-In . SVG Version: 6.00 Build 0)  -->
<!DOCTYPE svg PUBLIC "-//W3C//DTD SVG 1.1//EN" "http://www.w3.org/Graphics/SVG/1.1/DTD/svg11.dtd">
<svg version="1.1" id="Layer_1" xmlns="http://www.w3.org/2000/svg" xmlns:xlink="http://www.w3.org/1999/xlink" x="0px" y="0px"
	 width="64px" height="60px" viewBox="0 0 64 60" style="enable-background:new 0 0 64 60;" xml:space="preserve">
<g id="Peak">
	<g>
		<path style="fill:#ED7161;" d="M60,38.001v-6H4v6c0,2-4,10-4,14C0,58,16,60,32,60s32-2,32-7.999C64,48.001,60,40.001,60,38.001z"
			/>
	</g>
</g>
<g id="Crown_4_">
	<g>
		<path style="fill-rule:evenodd;clip-rule:evenodd;fill:#CCCCCC;" d="M34,2.001C34,0,33.104,0,32,0s-2,0-2,2.001c-16,0-28,0-28,30
			c0,4,0,6,0,6l4,2c4,2,14,4,26,4s22-2,26-4l4-2c0,0,0-2,0-6C62,2.001,50,2.001,34,2.001z"/>
	</g>
</g>
<g id="Front_1_">
	<g>
		<path style="fill:#E6E6E6;" d="M32,2.001c-8,0-26,6-26,15.999v22.001c4,2,14,4,26,4s22-2,26-4V18C58,10,40,2.001,32,2.001z"/>
	</g>
</g>
<g id="Holes_4_">
	<g>
		<path style="fill-rule:evenodd;clip-rule:evenodd;fill:#ED7161;" d="M22,10c-1.105,0-2,0.896-2,2.001C20,13.105,20.895,14,22,14
			c1.104,0,2-0.895,2-1.999C24,10.896,23.104,10,22,10z M42,10c-1.105,0-2,0.896-2,2.001C40,13.105,40.895,14,42,14
			c1.104,0,2-0.895,2-1.999C44,10.896,43.104,10,42,10z"/>
	</g>
</g>
<g>
</g>
<g>
</g>
<g>
</g>
<g>
</g>
<g>
</g>
<g>
</g>
<g>
</g>
<g>
</g>
<g>
</g>
<g>
</g>
<g>
</g>
<g>
</g>
<g>
</g>
<g>
</g>
<g>
</g>
</svg>
