<?xml version="1.0" encoding="iso-8859-1"?>
<!-- Generator: Adobe Illustrator 16.0.0, SVG Export Plug-In . SVG Version: 6.00 Build 0)  -->
<!DOCTYPE svg PUBLIC "-//W3C//DTD SVG 1.1//EN" "http://www.w3.org/Graphics/SVG/1.1/DTD/svg11.dtd">
<svg version="1.1" id="Layer_1" xmlns="http://www.w3.org/2000/svg" xmlns:xlink="http://www.w3.org/1999/xlink" x="0px" y="0px"
	 width="64px" height="44.025px" viewBox="0 0 64 44.025" style="enable-background:new 0 0 64 44.025;" xml:space="preserve">
<g id="Sole_16_">
	<g>
		<path style="fill:#4D4D4D;" d="M62.001,34.025H2v8c0,2,0,2,2.001,2H16c2.001,0,2.001,0,2.001-2c0,0,13.999,2,18,2
			c16,0,27.999-6,27.999-8S62.001,34.025,62.001,34.025z"/>
	</g>
</g>
<g id="Strap_5_">
	<g>
		<path style="fill:#666666;" d="M7.732,7.291l-4-6.371C3.18,0.04,1.957-0.261,1,0.247C0.044,0.755-0.284,1.88,0.269,2.759l4,6.371
			C4.82,10.01,6.044,10.312,7,9.804C7.957,9.296,8.284,8.171,7.732,7.291z"/>
	</g>
</g>
<g id="Band">
	<g>
		<path style="fill:#BA594C;" d="M14,6.025c-3.999,0-6,2-6,2v22h14.001v-22C22.001,8.025,18.001,6.025,14,6.025z"/>
	</g>
</g>
<g id="Boot">
	<g>
		<path style="fill:#4D4D4D;" d="M56,28.025c-5.999,0-19.999-4-23.999-8s-6.001-10-6.001-14c0-2,0-2-1.999-2H20
			c-1.999,0-1.999,0-1.999,2c0,10,4,20,4,22s-2.001,2-4,2c-4.001,0-8-2-8-6c0-6,0-20-2.001-20c0,0-4.13,0-6,0
			c0,20-1.999,20-1.999,28c0,6,1.999,6,1.999,6h16c8,0,10.001,2,22.001,2c9.999,0,23.999-4,23.999-6S62.001,28.025,56,28.025z"/>
	</g>
</g>
<g>
</g>
<g>
</g>
<g>
</g>
<g>
</g>
<g>
</g>
<g>
</g>
<g>
</g>
<g>
</g>
<g>
</g>
<g>
</g>
<g>
</g>
<g>
</g>
<g>
</g>
<g>
</g>
<g>
</g>
</svg>
