<?xml version="1.0" encoding="iso-8859-1"?>
<!-- Generator: Adobe Illustrator 16.0.0, SVG Export Plug-In . SVG Version: 6.00 Build 0)  -->
<!DOCTYPE svg PUBLIC "-//W3C//DTD SVG 1.1//EN" "http://www.w3.org/Graphics/SVG/1.1/DTD/svg11.dtd">
<svg version="1.1" id="Layer_1" xmlns="http://www.w3.org/2000/svg" xmlns:xlink="http://www.w3.org/1999/xlink" x="0px" y="0px"
	 width="64px" height="31.999px" viewBox="0 0 64 31.999" style="enable-background:new 0 0 64 31.999;" xml:space="preserve">
<g id="Heel_4_">
	<g>
		<path style="fill:#B3B3B3;" d="M2,20c0,0,0,8,0,9.999c0,2,2,2,4,2h4c2,0,4,0,4-2V20H2z"/>
	</g>
</g>
<g id="Shoe_11_">
	<g>
		<path style="fill:#88C057;" d="M58,17.999c-4,0-10-4-10-4s-2,4-8,4S28,16,22,12C10,3.999,8,0,6,0S0,8,0,13.999c0,6.001,2,8,4,8
			c10,0,28,10,36,10c16,0,24-2,24-5.999C64,21.999,62,17.999,58,17.999z"/>
	</g>
</g>
<g>
</g>
<g>
</g>
<g>
</g>
<g>
</g>
<g>
</g>
<g>
</g>
<g>
</g>
<g>
</g>
<g>
</g>
<g>
</g>
<g>
</g>
<g>
</g>
<g>
</g>
<g>
</g>
<g>
</g>
</svg>
