<?xml version="1.0" encoding="iso-8859-1"?>
<!-- Generator: Adobe Illustrator 16.0.0, SVG Export Plug-In . SVG Version: 6.00 Build 0)  -->
<!DOCTYPE svg PUBLIC "-//W3C//DTD SVG 1.1//EN" "http://www.w3.org/Graphics/SVG/1.1/DTD/svg11.dtd">
<svg version="1.1" id="Layer_1" xmlns="http://www.w3.org/2000/svg" xmlns:xlink="http://www.w3.org/1999/xlink" x="0px" y="0px"
	 width="64px" height="55.999px" viewBox="0 0 64 55.999" style="enable-background:new 0 0 64 55.999;" xml:space="preserve">
<g id="Sole_19_">
	<g>
		<path style="fill:#333333;" d="M62,44c-12,0-60.001,0-60.001,0v4C0.895,48,0,48.896,0,50v4c0,1.104,0.895,1.999,1.999,1.999h14
			C17.104,55.999,18,55.104,18,54v-2c2.74-0.028,7.488,0.681,12,2c1.979,0.579,0,1.999,2,1.999C48,55.999,64,50,64,48s0-2,0-2
			S64,44,62,44z"/>
	</g>
</g>
<g id="Boot_4_">
	<g>
		<path style="fill:#666666;" d="M55.999,36C53.304,36,54,36.001,50,36.001c-2,0-6,0-8-2.001H20v14c4,0,8,2,19.999,2
			C49.999,50,62,46,62,44S62,36,55.999,36z"/>
	</g>
</g>
<g id="Boot_5_">
	<g>
		<path style="fill:#808080;" d="M28,20c0-6,2-8,2-18c0-2-4-2-10-2C12,0,0,2,0,4c0,6,2,16,2,22c0,6.001-2,14-2,18s2,4,2,4h18
			c0,0,0-2,4-5.999C28,38,34,38,38,38c2,0,4-1.999,4-4C42,32.001,34,32.001,28,20z"/>
	</g>
</g>
<g id="Holes_3_">
	<g>
		<path style="fill-rule:evenodd;clip-rule:evenodd;fill:#333333;" d="M22,20c-1.105,0-2.001,0.896-2.001,2s0.896,2,2.001,2
			c1.104,0,2-0.896,2-2S23.104,20,22,20z M25.999,26C24.895,26,24,26.896,24,28s0.895,2,1.999,2S28,29.104,28,28
			S27.104,26,25.999,26z M32,32c-1.105,0-2,0.896-2,2s0.895,2.001,2,2.001c1.104,0,1.999-0.896,1.999-2.001S33.104,32,32,32z M22,16
			c1.104,0,2-0.896,2-2s-0.896-2-2-2c-1.105,0-2.001,0.896-2.001,2S20.895,16,22,16z M24,8c1.104,0,2-0.896,2-2s-0.896-2-2-2
			c-1.105,0-2,0.896-2,2S22.895,8,24,8z"/>
	</g>
</g>
<g>
</g>
<g>
</g>
<g>
</g>
<g>
</g>
<g>
</g>
<g>
</g>
<g>
</g>
<g>
</g>
<g>
</g>
<g>
</g>
<g>
</g>
<g>
</g>
<g>
</g>
<g>
</g>
<g>
</g>
</svg>
