<?xml version="1.0" encoding="iso-8859-1"?>
<!-- Generator: Adobe Illustrator 16.0.0, SVG Export Plug-In . SVG Version: 6.00 Build 0)  -->
<!DOCTYPE svg PUBLIC "-//W3C//DTD SVG 1.1//EN" "http://www.w3.org/Graphics/SVG/1.1/DTD/svg11.dtd">
<svg version="1.1" id="Layer_1" xmlns="http://www.w3.org/2000/svg" xmlns:xlink="http://www.w3.org/1999/xlink" x="0px" y="0px"
	 width="64.001px" height="40px" viewBox="0 0 64.001 40" style="enable-background:new 0 0 64.001 40;" xml:space="preserve">
<g id="Tongue_2_">
	<g>
		<path style="fill:#BA594C;" d="M18,0c-4,0-4,16-4,16h16C22,8.001,20,0,18,0z"/>
	</g>
</g>
<g id="Toe_Cap_1_">
	<g>
		<path style="fill:#E6E6E6;" d="M50,26v8h12v-4C62,26,50,26,50,26z"/>
	</g>
</g>
<g id="Upper_2_">
	<g>
		<path style="fill:#ED7161;" d="M50,26c-4-1.999-10-1.999-20-10C20,8.001,20.295,4,18,4c-2.296,0-4,4.001-8,4.001S6,6,4,6
			s-2,2.2-2,4v8c0,4.001-2,8-2,14v4.001h54V32C54,30,50,26,50,26z"/>
	</g>
</g>
<g id="Shoelaces_1_">
	<g>
		<path style="fill-rule:evenodd;clip-rule:evenodd;fill:#E6E6E6;" d="M43.473,23.7l-0.887,0.886c-0.781,0.78-0.781,2.048,0,2.828
			c0.78,0.781,2.047,0.781,2.828,0l2.321-2.321C46.487,24.671,45.081,24.266,43.473,23.7z M21.907,5.265l-3.321,3.321
			c-0.781,0.781-0.781,2.048,0,2.829c0.78,0.78,2.047,0.78,2.828,0l2.664-2.665C23.238,7.497,22.529,6.326,21.907,5.265z
			 M34.586,22.586c-0.781,0.781-0.781,2.048,0,2.829c0.78,0.78,2.047,0.78,2.828,0l2.951-2.951
			c-1.163-0.517-2.406-1.134-3.751-1.906L34.586,22.586z M28.586,18.586c-0.781,0.781-0.781,2.047,0,2.828
			c0.78,0.781,2.047,0.781,2.828,0l2.525-2.525c-1.04-0.695-2.133-1.488-3.277-2.379L28.586,18.586z M25.891,11.28l-3.305,3.306
			c-0.781,0.781-0.781,2.048,0,2.828c0.78,0.781,2.047,0.781,2.828,0l3.042-3.041C27.508,13.326,26.659,12.291,25.891,11.28z"/>
	</g>
</g>
<g id="Logo_1_">
	<g>
		<circle style="fill:#FFFFFF;" cx="12" cy="21.983" r="5.998"/>
	</g>
</g>
<g id="Sole_2_">
	<g>
		<path style="fill:#CCCCCC;" d="M62,30c-2.104,0-7.595,4-22,4c-4,0-36.57,0-38,0c-2,0-2,0-2,2.001C0,36.593,0,36.966,0,38
			c0,2,0,2,2,2c1.138,0,32,0,38,0c14,0,24-3.999,24-6C64,32,64.104,30,62,30z"/>
	</g>
</g>
<g>
</g>
<g>
</g>
<g>
</g>
<g>
</g>
<g>
</g>
<g>
</g>
<g>
</g>
<g>
</g>
<g>
</g>
<g>
</g>
<g>
</g>
<g>
</g>
<g>
</g>
<g>
</g>
<g>
</g>
</svg>
