<?xml version="1.0" encoding="iso-8859-1"?>
<!-- Generator: Adobe Illustrator 16.0.0, SVG Export Plug-In . SVG Version: 6.00 Build 0)  -->
<!DOCTYPE svg PUBLIC "-//W3C//DTD SVG 1.1//EN" "http://www.w3.org/Graphics/SVG/1.1/DTD/svg11.dtd">
<svg version="1.1" id="Layer_1" xmlns="http://www.w3.org/2000/svg" xmlns:xlink="http://www.w3.org/1999/xlink" x="0px" y="0px"
	 width="64px" height="32px" viewBox="0 0 64 32" style="enable-background:new 0 0 64 32;" xml:space="preserve">
<g id="Crocs">
	<g>
		<path style="fill:#88C057;" d="M58,6c-2,0-6,2-12,2S30,0,30,0S18.002,14,10,14c-2,0-4,0-6,0s-4,2-4,6s2,6,4,7.999
			C6,30,10,32,14,32c8,0,10-2,16-2s8,2,16,2c18,0,18-12,18-14v-4C64,8,59.999,6,58,6z"/>
	</g>
</g>
<g id="Holes">
	<g>
		<path style="fill-rule:evenodd;clip-rule:evenodd;fill:#638C3F;" d="M42,22h-2c-2,0-2,4-2,4h6C44,26,44,22,42,22z M59.999,18
			C58,18,58,24,58,24c4,0,4-2,4-2C62,20,62,18,59.999,18z M52,22h-2c-2,0-2,4-2,4h6C54,26,54,22,52,22z"/>
	</g>
</g>
<g id="Sole_9_">
	<g>
		<path style="fill:#75A64B;" d="M44,26c-10,0-26-12-34-12c-2,0-4,0-6,0s-4,2-4,6s2,6,4,7.999C6,26,8,24,14,24c8,0,16,6,16,6
			c6,0,8,2,16,2c18,0,18-12,18-14C64,22,55.93,26,44,26z"/>
	</g>
</g>
<g id="Strap_1_">
	<g>
		<path style="fill-rule:evenodd;clip-rule:evenodd;fill:#638C3F;" d="M22.035,12.036L12,2c0,0-2-2-4,0L6,4C4,6,6,8,6,8
			l10.021,10.021c0.009,3.289,2.692,5.953,6.005,5.953c3.316,0,6.005-2.673,6.005-5.969C28.03,14.712,25.348,12.041,22.035,12.036z"
			/>
	</g>
</g>
<g id="Logo_5_">
	<g>
		<ellipse style="fill:#FFFFFF;" cx="22.008" cy="18.001" rx="2.002" ry="1.99"/>
	</g>
</g>
<g>
</g>
<g>
</g>
<g>
</g>
<g>
</g>
<g>
</g>
<g>
</g>
<g>
</g>
<g>
</g>
<g>
</g>
<g>
</g>
<g>
</g>
<g>
</g>
<g>
</g>
<g>
</g>
<g>
</g>
</svg>
