<?xml version="1.0" encoding="iso-8859-1"?>
<!-- Generator: Adobe Illustrator 16.0.0, SVG Export Plug-In . SVG Version: 6.00 Build 0)  -->
<!DOCTYPE svg PUBLIC "-//W3C//DTD SVG 1.1//EN" "http://www.w3.org/Graphics/SVG/1.1/DTD/svg11.dtd">
<svg version="1.1" id="Layer_1" xmlns="http://www.w3.org/2000/svg" xmlns:xlink="http://www.w3.org/1999/xlink" x="0px" y="0px"
	 width="64px" height="36px" viewBox="0 0 64 36" style="enable-background:new 0 0 64 36;" xml:space="preserve">
<g id="Heel_5_">
	<g>
		<path style="fill:#A67C52;" d="M4,23.999l2,10C6,36,8,36,8,36h6c0,0,2,0,2-2.001V30c0-2,2-2,2-2v-4.001H4z"/>
	</g>
</g>
<g id="Shoe_12_">
	<g>
		<path style="fill-rule:evenodd;clip-rule:evenodd;fill:#CCCCCC;" d="M48,19.999C44,15.999,34,0,32,0S22,5.999,16,5.999S6,0,4,0
			S0,5.999,0,11.999c0,3.938,2,12,4,12S14,26,18,28s15.524,8,18,8c4,0,18,0,18,0c4,0,10-2.001,10-4.001
			C64,23.999,52,23.999,48,19.999z M34,28c-2,0-12-8.001-14-10c-2-2.001-2-4-2-6.001c0-1.999,8-6,10-6s4,2,6,4.001
			c2,1.999,3.937,4,6,5.999c2,1.938,4,3.938,4,6.001C44,23.999,36,28,34,28z"/>
	</g>
</g>
<g id="Buckle_6_">
	<g>
		<path style="fill:#A67C52;" d="M26,2c-1,0-4,0.999-4,1.999c0,1.001,1,4,2,4s4-1,4-2C28,5,27,2,26,2z"/>
	</g>
</g>
<g>
</g>
<g>
</g>
<g>
</g>
<g>
</g>
<g>
</g>
<g>
</g>
<g>
</g>
<g>
</g>
<g>
</g>
<g>
</g>
<g>
</g>
<g>
</g>
<g>
</g>
<g>
</g>
<g>
</g>
</svg>
