<?xml version="1.0" encoding="iso-8859-1"?>
<!-- Generator: Adobe Illustrator 16.0.0, SVG Export Plug-In . SVG Version: 6.00 Build 0)  -->
<!DOCTYPE svg PUBLIC "-//W3C//DTD SVG 1.1//EN" "http://www.w3.org/Graphics/SVG/1.1/DTD/svg11.dtd">
<svg version="1.1" id="Layer_1" xmlns="http://www.w3.org/2000/svg" xmlns:xlink="http://www.w3.org/1999/xlink" x="0px" y="0px"
	 width="64px" height="40px" viewBox="0 0 64 40" style="enable-background:new 0 0 64 40;" xml:space="preserve">
<g id="Front_Rise">
	<g>
		<path style="fill:#48A0DC;" d="M58,6H6c-1.938,5.999-4,14-4,20l30,8l30-8C62,20,60,11.999,58,6z"/>
	</g>
</g>
<g id="Fold">
	<g>
		<path style="fill-rule:evenodd;clip-rule:evenodd;fill:#A0C4DB;" d="M2,26c-2,0-2,4-2,5.999C0,34,22,40,28,40c2,0,4-4,4-6
			C32,31.999,4,26,2,26z M62,26c-2,0-30,5.999-30,8c0,2,2,6,4,6c6,0,28-6,28-8.001C64,30,64,26,62,26z"/>
	</g>
</g>
<g id="Pockets">
	<g>
		<path style="fill-rule:evenodd;clip-rule:evenodd;fill:#408EC2;" d="M58,6H42c0,12.647,16.318,13.869,19.472,13.987
			C60.75,15.247,59.383,10.149,58,6z M2.541,19.986C5.722,19.866,22,18.632,22,6H6C4.66,10.149,3.276,15.247,2.541,19.986z"/>
	</g>
</g>
<g id="Front_Rise_1_">
	<g>
		<path style="fill:#408EC2;" d="M30,6v16c0,0,6,0,6-6.001V6H30z"/>
	</g>
</g>
<g id="Weist_Band_2_">
	<g>
		<path style="fill:#51B3F5;" d="M56,0H8C6.895,0,6,0.896,6,2v4h52V2C58,0.896,57.104,0,56,0z"/>
	</g>
</g>
<g id="Belt_Loops">
	<g>
		<path style="fill-rule:evenodd;clip-rule:evenodd;fill:#48A0DC;" d="M18,6c0,1.104,0.895,1.999,2,1.999c1.104,0,2-0.896,2-1.999V0
			h-4V6z M41.999,0v6c0,1.104,0.896,1.999,2.001,1.999c1.104,0,2-0.896,2-1.999V0H41.999z"/>
	</g>
</g>
<g>
</g>
<g>
</g>
<g>
</g>
<g>
</g>
<g>
</g>
<g>
</g>
<g>
</g>
<g>
</g>
<g>
</g>
<g>
</g>
<g>
</g>
<g>
</g>
<g>
</g>
<g>
</g>
<g>
</g>
</svg>
