<?xml version="1.0" encoding="iso-8859-1"?>
<!-- Generator: Adobe Illustrator 16.0.0, SVG Export Plug-In . SVG Version: 6.00 Build 0)  -->
<!DOCTYPE svg PUBLIC "-//W3C//DTD SVG 1.1//EN" "http://www.w3.org/Graphics/SVG/1.1/DTD/svg11.dtd">
<svg version="1.1" id="Layer_1" xmlns="http://www.w3.org/2000/svg" xmlns:xlink="http://www.w3.org/1999/xlink" x="0px" y="0px"
	 width="64px" height="43.999px" viewBox="0 0 64 43.999" style="enable-background:new 0 0 64 43.999;" xml:space="preserve">
<g id="Brim_2_">
	<g>
		<path style="fill:#4D4D4D;" d="M60,23.999c-2,0-3.999,2.001-9.999,2.001h-36c-6,0-8-2.001-10.001-2.001c-2,0-4,2.001-4,4
			c0,4.019,11.978,16,32,16s32-12,32-16C64,26,62.001,23.999,60,23.999z"/>
	</g>
</g>
<g id="Crown_2_">
	<g>
		<path style="fill:#333333;" d="M32.001,0c-10,0-20,4.001-20,24.001v6c0,2,14,3.999,20,3.999s20-1.999,20-3.999v-6
			C52.001,4.001,42.001,0,32.001,0z"/>
	</g>
</g>
<g id="Band_6_">
	<g>
		<path style="fill-rule:evenodd;clip-rule:evenodd;fill:#808080;" d="M32.001,28.001c-6,0-20-2.001-20-4v6c0,2,14,3.999,20,3.999
			s20-1.999,20-3.999v-6C52.001,26,38.001,28.001,32.001,28.001z"/>
	</g>
</g>
<g>
</g>
<g>
</g>
<g>
</g>
<g>
</g>
<g>
</g>
<g>
</g>
<g>
</g>
<g>
</g>
<g>
</g>
<g>
</g>
<g>
</g>
<g>
</g>
<g>
</g>
<g>
</g>
<g>
</g>
</svg>
