<?xml version="1.0" encoding="iso-8859-1"?>
<!-- Generator: Adobe Illustrator 16.0.0, SVG Export Plug-In . SVG Version: 6.00 Build 0)  -->
<!DOCTYPE svg PUBLIC "-//W3C//DTD SVG 1.1//EN" "http://www.w3.org/Graphics/SVG/1.1/DTD/svg11.dtd">
<svg version="1.1" id="Layer_1" xmlns="http://www.w3.org/2000/svg" xmlns:xlink="http://www.w3.org/1999/xlink" x="0px" y="0px"
	 width="64.02px" height="64.02px" viewBox="0 0 64.02 64.02" style="enable-background:new 0 0 64.02 64.02;" xml:space="preserve"
	>
<g id="Wash">
	<g>
		<path style="fill-rule:evenodd;clip-rule:evenodd;fill:#CCCCCC;" d="M62.556,10.042c-1.039-0.281-2.106,0.343-2.386,1.394
			l-0.901,3.582c-1.75-1.503-4.253-3.008-7.259-3.008c-6,0-6,4-10,4s-4-4-10-4s-6,4-10,4s-4-4-10-4c-3.006,0-5.509,1.506-7.26,3.008
			l-0.901-3.582c-0.278-1.051-1.347-1.675-2.386-1.394c-1.039,0.282-1.655,1.362-1.377,2.413l10.082,40.071
			c0.23,0.867,0.998,1.434,1.842,1.451v0.032h40v-0.032c0.844-0.018,1.611-0.584,1.841-1.451l10.083-40.071
			C64.212,11.404,63.595,10.324,62.556,10.042z"/>
	</g>
</g>
<g id="X_5_">
	<g>
		<path style="fill-rule:evenodd;clip-rule:evenodd;fill:#ED7161;" d="M34.786,32.009L63.444,3.352c0.767-0.768,0.767-2.01,0-2.777
			c-0.767-0.767-2.01-0.767-2.776,0L32.01,29.232L3.352,0.574c-0.767-0.767-2.01-0.767-2.776,0c-0.767,0.768-0.767,2.01,0,2.777
			l28.658,28.657L0.575,60.667c-0.767,0.767-0.767,2.011,0,2.776c0.767,0.768,2.01,0.768,2.776,0L32.01,34.785l28.658,28.658
			c0.767,0.768,2.01,0.768,2.776,0c0.767-0.766,0.767-2.01,0-2.776L34.786,32.009z"/>
	</g>
</g>
<g>
</g>
<g>
</g>
<g>
</g>
<g>
</g>
<g>
</g>
<g>
</g>
<g>
</g>
<g>
</g>
<g>
</g>
<g>
</g>
<g>
</g>
<g>
</g>
<g>
</g>
<g>
</g>
<g>
</g>
</svg>
