<?xml version="1.0" encoding="iso-8859-1"?>
<!-- Generator: Adobe Illustrator 16.0.0, SVG Export Plug-In . SVG Version: 6.00 Build 0)  -->
<!DOCTYPE svg PUBLIC "-//W3C//DTD SVG 1.1//EN" "http://www.w3.org/Graphics/SVG/1.1/DTD/svg11.dtd">
<svg version="1.1" id="Layer_1" xmlns="http://www.w3.org/2000/svg" xmlns:xlink="http://www.w3.org/1999/xlink" x="0px" y="0px"
	 width="64.02px" height="64.02px" viewBox="0 0 64.02 64.02" style="enable-background:new 0 0 64.02 64.02;" xml:space="preserve"
	>
<g id="Bleach">
	<g>
		<path style="fill:#CCCCCC;" d="M63.464,53.993L35.466,5.994C34.749,4.766,33.433,4.01,32.01,4.01s-2.738,0.756-3.455,1.984
			l-28,47.999c-0.722,1.236-0.727,2.766-0.014,4.008c0.714,1.242,2.036,2.008,3.469,2.008h55.999c1.432,0,2.756-0.766,3.469-2.008
			S64.187,55.231,63.464,53.993z"/>
	</g>
</g>
<g id="X">
	<g>
		<path style="fill-rule:evenodd;clip-rule:evenodd;fill:#ED7161;" d="M34.786,32.009L63.444,3.351c0.767-0.766,0.767-2.009,0-2.776
			c-0.767-0.766-2.01-0.766-2.776,0L32.01,29.232L3.352,0.574c-0.767-0.766-2.01-0.766-2.776,0c-0.767,0.768-0.767,2.011,0,2.776
			l28.658,28.658L0.575,60.668c-0.767,0.767-0.767,2.01,0,2.775c0.767,0.768,2.01,0.768,2.776,0L32.01,34.785l28.658,28.658
			c0.767,0.768,2.01,0.768,2.776,0c0.767-0.766,0.767-2.009,0-2.775L34.786,32.009z"/>
	</g>
</g>
<g>
</g>
<g>
</g>
<g>
</g>
<g>
</g>
<g>
</g>
<g>
</g>
<g>
</g>
<g>
</g>
<g>
</g>
<g>
</g>
<g>
</g>
<g>
</g>
<g>
</g>
<g>
</g>
<g>
</g>
</svg>
