<?xml version="1.0" encoding="iso-8859-1"?>
<!-- Generator: Adobe Illustrator 16.0.0, SVG Export Plug-In . SVG Version: 6.00 Build 0)  -->
<!DOCTYPE svg PUBLIC "-//W3C//DTD SVG 1.1//EN" "http://www.w3.org/Graphics/SVG/1.1/DTD/svg11.dtd">
<svg version="1.1" id="Layer_1" xmlns="http://www.w3.org/2000/svg" xmlns:xlink="http://www.w3.org/1999/xlink" x="0px" y="0px"
	 width="64.02px" height="64.02px" viewBox="0 0 64.02 64.02" style="enable-background:new 0 0 64.02 64.02;" xml:space="preserve"
	>
<g id="Tumble_Dry">
	<g>
		<path style="fill-rule:evenodd;clip-rule:evenodd;fill:#CCCCCC;" d="M32.01,8.01c-13.255,0-24,10.744-24,24
			c0,13.254,10.745,23.999,24,23.999s24-10.745,24-23.999C56.01,18.754,45.265,8.01,32.01,8.01z M32.01,52.01
			c-11.046,0-20-8.955-20-20c0-11.046,8.954-20,20-20c11.045,0,20,8.954,20,20C52.01,43.055,43.055,52.01,32.01,52.01z M60.01,0.01
			h-56c-2.209,0-4,1.791-4,4v56c0,2.209,1.791,3.999,4,3.999h56c2.209,0,4-1.79,4-3.999v-56C64.01,1.801,62.219,0.01,60.01,0.01z
			 M60.01,58.01c0,1.104-0.896,2-2,2h-52c-1.104,0-2-0.896-2-2v-52c0-1.105,0.896-2,2-2h52c1.104,0,2,0.895,2,2V58.01z"/>
	</g>
</g>
<g id="X_1_">
	<g>
		<path style="fill-rule:evenodd;clip-rule:evenodd;fill:#ED7161;" d="M34.786,32.009L63.444,3.351c0.767-0.766,0.767-2.009,0-2.776
			c-0.767-0.766-2.01-0.766-2.776,0L32.01,29.232L3.352,0.574c-0.767-0.766-2.01-0.766-2.776,0c-0.767,0.768-0.767,2.011,0,2.776
			l28.658,28.658L0.575,60.668c-0.767,0.767-0.767,2.01,0,2.775c0.767,0.768,2.01,0.768,2.776,0L32.01,34.785l28.658,28.658
			c0.767,0.768,2.01,0.768,2.776,0c0.767-0.766,0.767-2.009,0-2.775L34.786,32.009z"/>
	</g>
</g>
<g>
</g>
<g>
</g>
<g>
</g>
<g>
</g>
<g>
</g>
<g>
</g>
<g>
</g>
<g>
</g>
<g>
</g>
<g>
</g>
<g>
</g>
<g>
</g>
<g>
</g>
<g>
</g>
<g>
</g>
</svg>
