<?xml version="1.0" encoding="iso-8859-1"?>
<!-- Generator: Adobe Illustrator 16.0.0, SVG Export Plug-In . SVG Version: 6.00 Build 0)  -->
<!DOCTYPE svg PUBLIC "-//W3C//DTD SVG 1.1//EN" "http://www.w3.org/Graphics/SVG/1.1/DTD/svg11.dtd">
<svg version="1.1" id="Layer_1" xmlns="http://www.w3.org/2000/svg" xmlns:xlink="http://www.w3.org/1999/xlink" x="0px" y="0px"
	 width="64.02px" height="64.02px" viewBox="0 0 64.02 64.02" style="enable-background:new 0 0 64.02 64.02;" xml:space="preserve"
	>
<g id="Elipse_1_">
	<g>
		<path style="fill-rule:evenodd;clip-rule:evenodd;fill:#88C057;" d="M32.01,4.01c-15.464,0-28,12.535-28,28
			c0,15.463,12.536,27.999,28,27.999s28-12.536,28-27.999C60.01,16.545,47.474,4.01,32.01,4.01z M32.01,56.01
			c-13.255,0-24-10.745-24-24c0-13.256,10.745-24,24-24s24,10.744,24,24C56.01,45.265,45.265,56.01,32.01,56.01z"/>
	</g>
</g>
<g id="X_2_">
	<g>
		<path style="fill-rule:evenodd;clip-rule:evenodd;fill:#ED7161;" d="M34.786,32.009L63.444,3.352c0.767-0.768,0.767-2.01,0-2.777
			c-0.767-0.766-2.01-0.766-2.776,0L32.01,29.232L3.352,0.574c-0.767-0.766-2.01-0.766-2.776,0c-0.767,0.768-0.767,2.01,0,2.777
			l28.658,28.657L0.575,60.667c-0.767,0.767-0.767,2.01,0,2.776c0.767,0.768,2.01,0.768,2.776,0L32.01,34.785l28.658,28.658
			c0.767,0.768,2.01,0.768,2.776,0c0.767-0.767,0.767-2.01,0-2.776L34.786,32.009z"/>
	</g>
</g>
<g>
</g>
<g>
</g>
<g>
</g>
<g>
</g>
<g>
</g>
<g>
</g>
<g>
</g>
<g>
</g>
<g>
</g>
<g>
</g>
<g>
</g>
<g>
</g>
<g>
</g>
<g>
</g>
<g>
</g>
</svg>
