<?xml version="1.0" encoding="iso-8859-1"?>
<!-- Generator: Adobe Illustrator 16.0.0, SVG Export Plug-In . SVG Version: 6.00 Build 0)  -->
<!DOCTYPE svg PUBLIC "-//W3C//DTD SVG 1.1//EN" "http://www.w3.org/Graphics/SVG/1.1/DTD/svg11.dtd">
<svg version="1.1" id="Layer_1" xmlns="http://www.w3.org/2000/svg" xmlns:xlink="http://www.w3.org/1999/xlink" x="0px" y="0px"
	 width="32px" height="64px" viewBox="0 0 32 64" style="enable-background:new 0 0 32 64;" xml:space="preserve">
<g id="Skirt_7_">
	<g>
		<path style="fill:#48A0DC;" d="M28,30H4c0,0-2,4-2,9.999C2,44,6,60,6,62s10,2,10,2s10,0,10-2s4-18,4-22.001C30,34,28,30,28,30z"/>
	</g>
</g>
<g id="Top">
	<g>
		<path style="fill:#51B3F5;" d="M26,24c0-6,2-9.001,2-10.001c0-8,2-11,2-12C30,1,27,0,26,0c0,0-4.016,5.929-10,10
			C10.015,5.929,6,0,6,0C5,0,2,1,2,1.999c0,1,2,4,2,12C4,14.999,6,18,6,24c0,2-6,6-6,7.999c0,2,10,2,16,2s16,0,16-2
			C32,30,26,26,26,24z"/>
	</g>
</g>
<g>
</g>
<g>
</g>
<g>
</g>
<g>
</g>
<g>
</g>
<g>
</g>
<g>
</g>
<g>
</g>
<g>
</g>
<g>
</g>
<g>
</g>
<g>
</g>
<g>
</g>
<g>
</g>
<g>
</g>
</svg>
