<?xml version="1.0" encoding="iso-8859-1"?>
<!-- Generator: Adobe Illustrator 16.0.0, SVG Export Plug-In . SVG Version: 6.00 Build 0)  -->
<!DOCTYPE svg PUBLIC "-//W3C//DTD SVG 1.1//EN" "http://www.w3.org/Graphics/SVG/1.1/DTD/svg11.dtd">
<svg version="1.1" id="Layer_1" xmlns="http://www.w3.org/2000/svg" xmlns:xlink="http://www.w3.org/1999/xlink" x="0px" y="0px"
	 width="44px" height="64px" viewBox="0 0 44 64" style="enable-background:new 0 0 44 64;" xml:space="preserve">
<g id="Bottom">
	<g>
		<path style="fill:#638C3F;" d="M38,48.001H6c0,2-6,8-6,10C0,60,2,62,6,62c4,0,8,2,16,2c8,0,12-2,16-2c4,0,6-2,6-3.999
			C44,56.001,38,50.001,38,48.001z"/>
	</g>
</g>
<g id="Middle">
	<g>
		<path style="fill:#75A64B;" d="M34,36H10c0,2.001-6,10-6,12.001c0,2,2,2,4,2c4,0,6,1.999,14,1.999c8,0,10-1.999,14-1.999
			c2,0,4,0,4-2C40,46,34,38.001,34,36z"/>
	</g>
</g>
<g id="Top_1_">
	<g>
		<path style="fill-rule:evenodd;clip-rule:evenodd;fill:#88C057;" d="M32,26v-3.999c0-6.001,2-6,2-10.001c0-1.999,0-4-2-4V2
			c0-1.69-4-2-4-2v8.676C26.14,9.256,24.442,10,22,10c-2.443,0-4.138-0.745-6-1.326V0c0,0-4,0.31-4,2v6c-2,0-2,2.001-2,4
			c0,4.001,2,4,2,10.001V26c-2,4-4,8-4,10c0,2.001,2,2.001,4,2.001c4,0,6,1.999,10,1.999c4,0,6-1.999,10-1.999c2,0,4,0,4-2.001
			C36,34,34,30,32,26z"/>
	</g>
</g>
<g id="Belt_6_">
	<g>
		<path style="fill:#FFCC66;" d="M22,24c-8,0-10-2-10-2v4c0,0,2,2,10,2c8,0,10-2,10-2v-4C32,22,30,24,22,24z"/>
	</g>
</g>
<g id="Buckle_16_">
	<g>
		<path style="fill:#FFFFFF;" d="M24,24h-4c-1.104,0-2,0.896-2,2s0.896,2,2,2h4c1.104,0,2-0.896,2-2S25.105,24,24,24z"/>
	</g>
</g>
<g>
</g>
<g>
</g>
<g>
</g>
<g>
</g>
<g>
</g>
<g>
</g>
<g>
</g>
<g>
</g>
<g>
</g>
<g>
</g>
<g>
</g>
<g>
</g>
<g>
</g>
<g>
</g>
<g>
</g>
</svg>
