<?xml version="1.0" encoding="iso-8859-1"?>
<!-- Generator: Adobe Illustrator 16.0.0, SVG Export Plug-In . SVG Version: 6.00 Build 0)  -->
<!DOCTYPE svg PUBLIC "-//W3C//DTD SVG 1.1//EN" "http://www.w3.org/Graphics/SVG/1.1/DTD/svg11.dtd">
<svg version="1.1" id="Layer_1" xmlns="http://www.w3.org/2000/svg" xmlns:xlink="http://www.w3.org/1999/xlink" x="0px" y="0px"
	 width="60px" height="63.999px" viewBox="0 0 60 63.999" style="enable-background:new 0 0 60 63.999;" xml:space="preserve">
<g id="Wedge">
	<g>
		<path style="fill:#F2DAC2;" d="M56,43.999c-6.15,0-18,0-18,0l-22-26H0c0,0,6,16,6,44c0,1.104,0.895,2,2,2c2,0,22,0,24,0
			c14,0,20-4,26-7.999c2-8,2-10.001,2-12.001C60,43.999,58,43.999,56,43.999z"/>
	</g>
</g>
<g id="Shoe_24_">
	<g>
		<path style="fill:#F06EAA;" d="M46,37.999c0,0,0,2-6,2c-4,0-8-6-16-18C16.715,11.072,10,0,10,0S0,6.786,0,15.999v2c0,0,6,0,16,14
			S26,54,34,54c22,0,26-4.001,26-10.001C60,39.999,52,41.999,46,37.999z"/>
	</g>
</g>
<g>
</g>
<g>
</g>
<g>
</g>
<g>
</g>
<g>
</g>
<g>
</g>
<g>
</g>
<g>
</g>
<g>
</g>
<g>
</g>
<g>
</g>
<g>
</g>
<g>
</g>
<g>
</g>
<g>
</g>
</svg>
