<?xml version="1.0" encoding="iso-8859-1"?>
<!-- Generator: Adobe Illustrator 16.0.0, SVG Export Plug-In . SVG Version: 6.00 Build 0)  -->
<!DOCTYPE svg PUBLIC "-//W3C//DTD SVG 1.1//EN" "http://www.w3.org/Graphics/SVG/1.1/DTD/svg11.dtd">
<svg version="1.1" id="Layer_1" xmlns="http://www.w3.org/2000/svg" xmlns:xlink="http://www.w3.org/1999/xlink" x="0px" y="0px"
	 width="64px" height="40px" viewBox="0 0 64 40" style="enable-background:new 0 0 64 40;" xml:space="preserve">
<g id="Brim_3_">
	<g>
		<path style="fill:#B3B3B3;" d="M50,20H14C2,20,0,22.001,0,26c0,8,11.977,14,32,14c20.022,0,32-6,32-14.001C64,22.001,62,20,50,20z
			"/>
	</g>
</g>
<g id="Crown_3_">
	<g>
		<path style="fill:#999999;" d="M44,0c-8,0-8,2-12,2s-4-2-12-2c-4,0-10,24-10,26s10,6,22,6s22-4,22-6S48,0,44,0z"/>
	</g>
</g>
<g id="Band_7_">
	<g>
		<path style="fill-rule:evenodd;clip-rule:evenodd;fill:#666666;" d="M32,24c-9.339,0-17.464-2.422-20.61-4.44
			C10.535,22.847,10,25.404,10,26c0,2,10,6,22,6s22-4,22-6c0-0.596-0.536-3.153-1.39-6.44C49.465,21.577,41.339,24,32,24z"/>
	</g>
</g>
<g>
</g>
<g>
</g>
<g>
</g>
<g>
</g>
<g>
</g>
<g>
</g>
<g>
</g>
<g>
</g>
<g>
</g>
<g>
</g>
<g>
</g>
<g>
</g>
<g>
</g>
<g>
</g>
<g>
</g>
</svg>
