<?xml version="1.0" encoding="iso-8859-1"?>
<!-- Generator: Adobe Illustrator 16.0.0, SVG Export Plug-In . SVG Version: 6.00 Build 0)  -->
<!DOCTYPE svg PUBLIC "-//W3C//DTD SVG 1.1//EN" "http://www.w3.org/Graphics/SVG/1.1/DTD/svg11.dtd">
<svg version="1.1" id="Layer_1" xmlns="http://www.w3.org/2000/svg" xmlns:xlink="http://www.w3.org/1999/xlink" x="0px" y="0px"
	 width="64px" height="64px" viewBox="0 0 64 64" style="enable-background:new 0 0 64 64;" xml:space="preserve">
<g id="Sole_28_">
	<g>
		<path style="fill:#FFCC66;" d="M48,0C36,0,26,8,14,28C8.055,37.909,0,46,0,52s4,12,12,12c10,0,16-15.999,26-26
			c10-10,26-15.999,26-28C64,6,58,0,48,0z"/>
	</g>
</g>
<g id="Strap_18_">
	<g>
		<path style="fill-rule:evenodd;clip-rule:evenodd;fill:#BA594C;" d="M51.32,10.671c-0.92-0.91-2.412-0.91-3.332,0l-1.867,1.847
			C45.026,12.163,43.674,12,42,12c-10,0-20,2.001-24,6c-2,2-4,4.001-6,10c-2,6.001-2,10-2,10s2,0,4-2c2-1.999,2-10,10-16
			c6-2,12-2,16-2c2,0,4,2,4,4.001C44,24,44,28,40,36c-4,4-6,4-10,6.001c-4,1.999-4,6-4,6L32,46c6-2,8-3.999,10-6c6-5.999,8-12,8-20
			c0-1.709-0.17-3.084-0.541-4.19l1.861-1.842C52.24,13.057,52.24,11.581,51.32,10.671z"/>
	</g>
</g>
<g id="Strap_19_">
	<g>
		<path style="fill:#ED7161;" d="M42,12c-10,0-20,2.001-24,6c-2,2-4,4.001-6,10c0,0,6-5.999,12-8c6-2,12-2,16-2c2,0,4,2,4,4.001
			C44,24,44,28,40,36c-2,4-8,10-8,10c6-2,8-3.999,10-6c6-5.999,8-12,8-20C50,14.001,48,12,42,12z"/>
	</g>
</g>
<g>
</g>
<g>
</g>
<g>
</g>
<g>
</g>
<g>
</g>
<g>
</g>
<g>
</g>
<g>
</g>
<g>
</g>
<g>
</g>
<g>
</g>
<g>
</g>
<g>
</g>
<g>
</g>
<g>
</g>
</svg>
