<?xml version="1.0" encoding="iso-8859-1"?>
<!-- Generator: Adobe Illustrator 16.0.0, SVG Export Plug-In . SVG Version: 6.00 Build 0)  -->
<!DOCTYPE svg PUBLIC "-//W3C//DTD SVG 1.1//EN" "http://www.w3.org/Graphics/SVG/1.1/DTD/svg11.dtd">
<svg version="1.1" id="Layer_1" xmlns="http://www.w3.org/2000/svg" xmlns:xlink="http://www.w3.org/1999/xlink" x="0px" y="0px"
	 width="64px" height="63.999px" viewBox="0 0 64 63.999" style="enable-background:new 0 0 64 63.999;" xml:space="preserve">
<g id="Earpiece_2_">
	<g>
		<path style="fill-rule:evenodd;clip-rule:evenodd;fill:#CC6D29;" d="M62,7.999c-1.111,0-5.923,1.235-10.668,3.017
			C55.313,6.827,58,3.999,58,3.999L54,0c0,0-14.5,16.11-25.606,28.394C16.11,39.501,0,54,0,54l4,3.999c0,0,2.828-2.687,7.018-6.669
			C9.234,56.075,8,60.889,8,62c0,1.999,2,1.999,4,1.999S16,48,18,46c0.755-0.755,6.645-6.93,13.682-14.322
			C39.072,24.643,45.245,18.755,46,18c2-2.001,18-4,18-6.001C64,10,64,7.999,62,7.999z"/>
	</g>
</g>
<g id="Frame_1_">
	<g>
		<path style="fill-rule:evenodd;clip-rule:evenodd;fill:#FF8833;" d="M58,7.999c-1.383-1.382-1.182-2.818,0-4L54,0
			c0,0-8,3.999-14,10c-6,5.999-8,13.999-12,18c-4,3.999-12,6-18,11.999C4,46,0,54,0,54l4,3.999c1.181-1.181,2.618-1.382,4,0
			c4,4.001,8,6,12,6C26,63.999,36,54,36,48c0-8.001-6-14-4-16.001C34,30,40,36,48,36c6,0,16-10,16-16C64,15.999,62,11.999,58,7.999z
			"/>
	</g>
</g>
<g id="Lens_1_">
	<g>
		<path style="fill-rule:evenodd;clip-rule:evenodd;fill:#E6E6E6;" d="M24,36C18,36,8,46,8,50s6,9.999,12,9.999
			C24,59.999,32,54,32,48C32,39.999,28,36,24,36z M50,7.999c-4,0-14,10.001-14,16c0,4.001,4,8,12,8c6,0,12-8,12-11.999
			C60,14,54,7.999,50,7.999z"/>
	</g>
</g>
<g id="Earpiece_3_">
	<g>
		<path style="fill-rule:evenodd;clip-rule:evenodd;fill:#B3B3B3;" d="M54.516,9.901c-1.044,0.342-2.128,0.718-3.209,1.125
			c0.68-0.713,1.318-1.383,1.915-2.01C52.106,8.37,50.991,7.999,50,7.999c-1.811,0-4.851,2.053-7.637,4.854
			c-0.681,0.751-1.377,1.52-2.086,2.302C37.851,18.101,36,21.419,36,23.999c0,0.979,0.243,1.958,0.723,2.878
			C41.715,22.12,45.426,18.574,46,18c1.211-1.212,7.554-2.423,12.372-3.634C57.361,12.589,55.981,11.033,54.516,9.901z
			 M15.836,39.731c-1.194,1.077-2.364,2.132-3.494,3.151C9.807,45.521,8,48.301,8,50c0,0.994,0.372,2.11,1.02,3.229
			c0.28-0.267,0.557-0.529,0.855-0.813c-0.148,0.5-0.287,1-0.417,1.495c1.044,1.533,2.578,3.014,4.366,4.134
			C14.39,53.973,14.883,49.116,16,48c0.632-0.633,5.063-5.264,10.827-11.301C25.921,36.237,24.961,36,24,36
			C21.617,36,18.604,37.579,15.836,39.731z"/>
	</g>
</g>
<g>
</g>
<g>
</g>
<g>
</g>
<g>
</g>
<g>
</g>
<g>
</g>
<g>
</g>
<g>
</g>
<g>
</g>
<g>
</g>
<g>
</g>
<g>
</g>
<g>
</g>
<g>
</g>
<g>
</g>
</svg>
