<?xml version="1.0" encoding="iso-8859-1"?>
<!-- Generator: Adobe Illustrator 16.0.0, SVG Export Plug-In . SVG Version: 6.00 Build 0)  -->
<!DOCTYPE svg PUBLIC "-//W3C//DTD SVG 1.1//EN" "http://www.w3.org/Graphics/SVG/1.1/DTD/svg11.dtd">
<svg version="1.1" id="Layer_1" xmlns="http://www.w3.org/2000/svg" xmlns:xlink="http://www.w3.org/1999/xlink" x="0px" y="0px"
	 width="64px" height="60.016px" viewBox="0 0 64 60.016" style="enable-background:new 0 0 64 60.016;" xml:space="preserve">
<g id="Strap_17_">
	<g>
		<path style="fill-rule:evenodd;clip-rule:evenodd;fill:#CCCCCC;" d="M52,44.016c-2,0-3.106,0.211-4,2.001
			c-2,3.999-8,11.999-8,11.999h8c0,0,6-9.999,6-11.999C54,44.016,54,44.016,52,44.016z M34.572,8.181L4.438,0.066
			C3.398-0.213,2.329,0.407,2.05,1.452s0.338,2.119,1.378,2.399l1.158,0.312L10,24.016l10,10.001L10.588,5.779l22.975,6.186
			c1.04,0.28,2.109-0.34,2.388-1.386C36.229,9.534,35.612,8.46,34.572,8.181z"/>
	</g>
</g>
<g id="Buckle_13_">
	<g>
		<path style="fill:#999999;" d="M18.111,3.319l-4.906-1.242c-1.355-0.344-2.748,0.416-3.111,1.696
			c-0.363,1.28,0.441,2.597,1.796,2.939l4.907,1.242c1.354,0.343,2.747-0.417,3.11-1.696C20.27,4.978,19.466,3.661,18.111,3.319z"/>
	</g>
</g>
<g id="Shoe_27_">
	<g>
		<path style="fill:#666666;" d="M60,54.017c-2,0-6,1.999-26,1.999c-2,0-6.845-11.478-14-24C12,18.017,4,18.017,2,18.017
			c-2,0-2,0-2,1.999c0,1.688,0,2,0,2s6,8,6,36c0,1.104,0.896,2,2,2c1.105,0,2-0.896,2-2V34.017c0-2.001,0-4.001,2-4.001
			c1.188,0,2.993,2.272,4,4.001c14,23.999,10,25.999,16,25.999c22,0,32-2,32-4C64,54.017,62,54.017,60,54.017z"/>
	</g>
</g>
<g>
</g>
<g>
</g>
<g>
</g>
<g>
</g>
<g>
</g>
<g>
</g>
<g>
</g>
<g>
</g>
<g>
</g>
<g>
</g>
<g>
</g>
<g>
</g>
<g>
</g>
<g>
</g>
<g>
</g>
</svg>
