<?xml version="1.0" encoding="iso-8859-1"?>
<!-- Generator: Adobe Illustrator 16.0.0, SVG Export Plug-In . SVG Version: 6.00 Build 0)  -->
<!DOCTYPE svg PUBLIC "-//W3C//DTD SVG 1.1//EN" "http://www.w3.org/Graphics/SVG/1.1/DTD/svg11.dtd">
<svg version="1.1" id="Layer_1" xmlns="http://www.w3.org/2000/svg" xmlns:xlink="http://www.w3.org/1999/xlink" x="0px" y="0px"
	 width="35.999px" height="64px" viewBox="0 0 35.999 64" style="enable-background:new 0 0 35.999 64;" xml:space="preserve">
<g id="Pants_1_">
	<g>
		<path style="fill:#48A0DC;" d="M34,4.001H2C2,4.001,0,12,0,16v46.001C0,63.104,0.895,64,2,64h8c1.104,0,1.999-0.896,1.999-1.999
			v-4c0-10.001,6-40,6-40S24,48,24,58.001v4C24,63.104,24.895,64,26,64h8c1.104,0,1.999-0.896,1.999-1.999V16
			C35.999,12,34,4.001,34,4.001z"/>
	</g>
</g>
<g id="Waist_Band_1_">
	<g>
		<path style="fill:#48A0DC;" d="M32,0H3.999C2.895,0,2,0.896,2,2v2.001h32V2C34,0.896,33.104,0,32,0z"/>
	</g>
</g>
<g id="Belt_Loops_3_">
	<g>
		<path style="fill-rule:evenodd;clip-rule:evenodd;fill:#408EC2;" d="M22,0v4.001h4V0H22z M10,4.001h3.999V0H10V4.001z"/>
	</g>
</g>
<g id="Front_Rise_4_">
	<g>
		<path style="fill:#408EC2;" d="M16,4.001V14c0,4.001,2,4.001,4,4.001v-14H16z"/>
	</g>
</g>
<g id="Pockets_4_">
	<g>
		<path style="fill-rule:evenodd;clip-rule:evenodd;fill:#408EC2;" d="M34,4.001h-8C26,7.313,32.686,16,35.999,16L34,4.001z M0,16
			c3.313,0,10-8.687,10-11.999H2L0,16z"/>
	</g>
</g>
<g>
</g>
<g>
</g>
<g>
</g>
<g>
</g>
<g>
</g>
<g>
</g>
<g>
</g>
<g>
</g>
<g>
</g>
<g>
</g>
<g>
</g>
<g>
</g>
<g>
</g>
<g>
</g>
<g>
</g>
</svg>
