<?xml version="1.0" encoding="iso-8859-1"?>
<!-- Generator: Adobe Illustrator 16.0.0, SVG Export Plug-In . SVG Version: 6.00 Build 0)  -->
<!DOCTYPE svg PUBLIC "-//W3C//DTD SVG 1.1//EN" "http://www.w3.org/Graphics/SVG/1.1/DTD/svg11.dtd">
<svg version="1.1" id="Layer_1" xmlns="http://www.w3.org/2000/svg" xmlns:xlink="http://www.w3.org/1999/xlink" x="0px" y="0px"
	 width="44px" height="64px" viewBox="0 0 44 64" style="enable-background:new 0 0 44 64;" xml:space="preserve">
<g id="Shorts">
	<g>
		<path style="fill:#FF8833;" d="M42,6H22H2c0,0-2,6.001-2,14c0,4,4,38.001,4,42.001C4,64,14,64,16,64s6-38,6-38s4,38,6,38
			s12,0,12-1.999c0-4,4-38.001,4-42.001C44,12.001,42,6,42,6z"/>
	</g>
</g>
<g id="Front_Rise_2_">
	<g>
		<path style="fill:#E67A2E;" d="M20,6v14c0,0,4,0,4-5.999V6H20z"/>
	</g>
</g>
<g id="Weist_Band_3_">
	<g>
		<path style="fill:#CC6D29;" d="M40,0H4C2.896,0,2,0.896,2,2.001V6h40V2.001C42,0.896,41.104,0,40,0z"/>
	</g>
</g>
<g id="Belt_Loops_1_">
	<g>
		<path style="fill-rule:evenodd;clip-rule:evenodd;fill:#E67A2E;" d="M10,4c0,1.104,0.896,2,2,2s2-0.896,2-2V0h-4V4z M30,0v4
			c0,1.104,0.895,2,2,2c1.104,0,2-0.896,2-2V0H30z"/>
	</g>
</g>
<g>
</g>
<g>
</g>
<g>
</g>
<g>
</g>
<g>
</g>
<g>
</g>
<g>
</g>
<g>
</g>
<g>
</g>
<g>
</g>
<g>
</g>
<g>
</g>
<g>
</g>
<g>
</g>
<g>
</g>
</svg>
