<?xml version="1.0" encoding="iso-8859-1"?>
<!-- Generator: Adobe Illustrator 16.0.0, SVG Export Plug-In . SVG Version: 6.00 Build 0)  -->
<!DOCTYPE svg PUBLIC "-//W3C//DTD SVG 1.1//EN" "http://www.w3.org/Graphics/SVG/1.1/DTD/svg11.dtd">
<svg version="1.1" id="Layer_1" xmlns="http://www.w3.org/2000/svg" xmlns:xlink="http://www.w3.org/1999/xlink" x="0px" y="0px"
	 width="56px" height="64px" viewBox="0 0 56 64" style="enable-background:new 0 0 56 64;" xml:space="preserve">
<g id="Tassel_1_">
	<g>
		<circle style="fill:#48A0DC;" cx="28" cy="8" r="8"/>
	</g>
</g>
<g id="Cap_5_">
	<g>
		<path style="fill:#408EC2;" d="M0,54.001V60c0,2.21,1.791,4,4,4h48c2.209,0,4-1.79,4-4v-5.999H0z M28,14.001
			c-16,0-24,16-26,23.999h52C52,30.001,44,14.001,28,14.001z"/>
	</g>
</g>
<g id="Decoration_2_">
	<g>
		<path style="fill-rule:evenodd;clip-rule:evenodd;fill:#E6E6E6;" d="M54,38H2c-2,8-2,12.001-2,16.001h56C56,50.001,56,46,54,38z
			 M8,56.001c-1.104,0-2,0.895-2,1.999s0.896,2,2,2s2-0.896,2-2S9.104,56.001,8,56.001z M16,56.001c-1.104,0-2,0.895-2,1.999
			s0.896,2,2,2s2-0.896,2-2S17.104,56.001,16,56.001z M24,56.001c-1.104,0-2,0.895-2,1.999s0.896,2,2,2s2-0.896,2-2
			S25.104,56.001,24,56.001z M32,56.001c-1.104,0-2,0.895-2,1.999s0.896,2,2,2s2-0.896,2-2S33.104,56.001,32,56.001z M40,56.001
			c-1.104,0-2,0.895-2,1.999s0.896,2,2,2s2-0.896,2-2S41.104,56.001,40,56.001z M48,56.001c-1.105,0-2,0.895-2,1.999s0.895,2,2,2
			c1.104,0,2-0.896,2-2S49.104,56.001,48,56.001z M8,36c1.104,0,2-0.896,2-1.999C10,32.896,9.104,32,8,32s-2,0.896-2,2.001
			C6,35.104,6.896,36,8,36z M16,36c1.104,0,2-0.896,2-1.999C18,32.896,17.104,32,16,32s-2,0.896-2,2.001C14,35.104,14.896,36,16,36z
			 M24,36c1.104,0,2-0.896,2-1.999C26,32.896,25.104,32,24,32s-2,0.896-2,2.001C22,35.104,22.896,36,24,36z M32,36
			c1.104,0,2-0.896,2-1.999C34,32.896,33.104,32,32,32s-2,0.896-2,2.001C30,35.104,30.896,36,32,36z M40,36c1.104,0,2-0.896,2-1.999
			C42,32.896,41.104,32,40,32s-2,0.896-2,2.001C38,35.104,38.896,36,40,36z M48,36c1.104,0,2-0.896,2-1.999
			C50,32.896,49.104,32,48,32c-1.105,0-2,0.896-2,2.001C46,35.104,46.895,36,48,36z"/>
	</g>
</g>
<g id="Decoration_3_">
	<g>
		<path style="fill-rule:evenodd;clip-rule:evenodd;fill:#ED7161;" d="M12,44c0-1.104-0.896-1.999-2-1.999S8,42.896,8,44
			c-1.104,0-2,0.896-2,2s0.896,2,2,2c0,1.104,0.896,2,2,2s2-0.896,2-2c1.104,0,2-0.896,2-2S13.104,44,12,44z M24,44
			c0-1.104-0.896-1.999-2-1.999c-1.105,0-2,0.895-2,1.999c-1.104,0-2,0.896-2,2s0.896,2,2,2c0,1.104,0.895,2,2,2
			c1.104,0,2-0.896,2-2c1.104,0,2-0.896,2-2S25.104,44,24,44z M36,44c0-1.104-0.896-1.999-2-1.999S32,42.896,32,44
			c-1.104,0-2,0.896-2,2s0.896,2,2,2c0,1.104,0.896,2,2,2s2-0.896,2-2c1.104,0,2-0.896,2-2S37.104,44,36,44z M48,44
			c0-1.104-0.896-1.999-2-1.999S44,42.896,44,44c-1.104,0-2,0.896-2,2s0.896,2,2,2c0,1.104,0.896,2,2,2s2-0.896,2-2
			c1.104,0,2-0.896,2-2S49.104,44,48,44z"/>
	</g>
</g>
<g>
</g>
<g>
</g>
<g>
</g>
<g>
</g>
<g>
</g>
<g>
</g>
<g>
</g>
<g>
</g>
<g>
</g>
<g>
</g>
<g>
</g>
<g>
</g>
<g>
</g>
<g>
</g>
<g>
</g>
</svg>
