<?xml version="1.0" encoding="iso-8859-1"?>
<!-- Generator: Adobe Illustrator 16.0.0, SVG Export Plug-In . SVG Version: 6.00 Build 0)  -->
<!DOCTYPE svg PUBLIC "-//W3C//DTD SVG 1.1//EN" "http://www.w3.org/Graphics/SVG/1.1/DTD/svg11.dtd">
<svg version="1.1" id="Layer_1" xmlns="http://www.w3.org/2000/svg" xmlns:xlink="http://www.w3.org/1999/xlink" x="0px" y="0px"
	 width="48px" height="63.999px" viewBox="0 0 48 63.999" style="enable-background:new 0 0 48 63.999;" xml:space="preserve">
<g id="Lobster">
	<g>
		<path style="fill:#48A0DC;" d="M28,0c-2,0-4,1.999-10,1.999C14,1.999,10,0,8,0S0,12,0,21.999C0,33.999,2,48,4,56
			c2,7.999,2,7.999,4,7.999s2,0,0-7.999c-2-8-2-14.001-2-16c0-6.001,2-8,4-8c10,0,14,31.999,16,31.999C44,63.999,46,58,46,58
			s2-12.001,2-22.001C48,13.999,30,0,28,0z"/>
	</g>
</g>
<g>
</g>
<g>
</g>
<g>
</g>
<g>
</g>
<g>
</g>
<g>
</g>
<g>
</g>
<g>
</g>
<g>
</g>
<g>
</g>
<g>
</g>
<g>
</g>
<g>
</g>
<g>
</g>
<g>
</g>
</svg>
