<?xml version="1.0" encoding="iso-8859-1"?>
<!-- Generator: Adobe Illustrator 16.0.0, SVG Export Plug-In . SVG Version: 6.00 Build 0)  -->
<!DOCTYPE svg PUBLIC "-//W3C//DTD SVG 1.1//EN" "http://www.w3.org/Graphics/SVG/1.1/DTD/svg11.dtd">
<svg version="1.1" id="Layer_1" xmlns="http://www.w3.org/2000/svg" xmlns:xlink="http://www.w3.org/1999/xlink" x="0px" y="0px"
	 width="64px" height="31.999px" viewBox="0 0 64 31.999" style="enable-background:new 0 0 64 31.999;" xml:space="preserve">
<g id="Sole_25_">
	<g>
		<path style="fill:#666666;" d="M62,21.999H2c0,0,0,6.001,0,8c0,2,2,2,4,2h10c2,0,2,0,2-2V28c0,0,18,3.999,22,3.999
			C56,31.999,64,26,64,24C64,21.999,62,21.999,62,21.999z"/>
	</g>
</g>
<g id="Shoe_9_">
	<g>
		<path style="fill:#408EC2;" d="M58,13.999C50,13.999,46,12,46,12s0,4-6,4S26,8,26,8s-4,4-10,4C8,12,6,5.999,4,5.999S0,9.999,0,16
			c0,5.999,2,10,2,10h10c10,0,22,2,28,2c16,0,24-4,24-8S62,13.999,58,13.999z"/>
	</g>
</g>
<g id="Strap_11_">
	<g>
		<path style="fill:#48A0DC;" d="M32,0c-1,0-12,12-12,12c-1,0.999-2,1.999-2,4c0,1,1,1.999,2,1.999c2,0,3-0.999,4-1.999
			c0,0,12-11.001,12-12.001C36,3,33,0,32,0z"/>
	</g>
</g>
<g id="Buckle_4_">
	<g>
		<path style="fill:#CCCCCC;" d="M24,8c-1,0-4,3-4,4c0,0.999,3,4,4,4s4-3.001,4-4C28,11,25,8,24,8z"/>
	</g>
</g>
<g>
</g>
<g>
</g>
<g>
</g>
<g>
</g>
<g>
</g>
<g>
</g>
<g>
</g>
<g>
</g>
<g>
</g>
<g>
</g>
<g>
</g>
<g>
</g>
<g>
</g>
<g>
</g>
<g>
</g>
</svg>
