<?xml version="1.0" encoding="iso-8859-1"?>
<!-- Generator: Adobe Illustrator 16.0.0, SVG Export Plug-In . SVG Version: 6.00 Build 0)  -->
<!DOCTYPE svg PUBLIC "-//W3C//DTD SVG 1.1//EN" "http://www.w3.org/Graphics/SVG/1.1/DTD/svg11.dtd">
<svg version="1.1" id="Layer_1" xmlns="http://www.w3.org/2000/svg" xmlns:xlink="http://www.w3.org/1999/xlink" x="0px" y="0px"
	 width="60px" height="63.999px" viewBox="0 0 60 63.999" style="enable-background:new 0 0 60 63.999;" xml:space="preserve">
<g id="Collar_8_">
	<g>
		<path style="fill:#BA594C;" d="M40,1.999C36,0,34,0,30,0c-4.001,0-7.774,0.887-10,1.999c-4,2-4,2-4,2l14,14l14-14
			C44,3.999,44,3.999,40,1.999z"/>
	</g>
</g>
<g id="Interior_8_">
	<g>
		<path style="fill:#999999;" d="M38,6c-2-2.001-6-2.001-8-2.001s-6.001,0-8,2.001l-2,3.999L30,20L40,9.999L38,6z"/>
	</g>
</g>
<g id="Collar_9_">
	<g>
		<path style="fill:#ED7161;" d="M40,1.999C40,1.999,32,14,30,14S20,1.999,20,1.999l-4,2C16,3.999,24,20,30,20S44,3.999,44,3.999
			L40,1.999z"/>
	</g>
</g>
<g id="Cuffs_3_">
	<g>
		<path style="fill-rule:evenodd;clip-rule:evenodd;fill:#ED7161;" d="M2,62c1,0,5.999-0.938,5.999-2.001c0-1.062,0-3.999,0-3.999
			L0,58C0,58,1,62,2,62z M52,56c0,0,0,2.938,0,3.999C52,61.063,57,62,58,62s2-4,2-4L52,56z"/>
	</g>
</g>
<g id="Pull-Over">
	<g>
		<path style="fill:#CCCCCC;" d="M56,11.999c-2-2-8-5.999-12-8C44,3.999,36,20,30,20S16,3.999,16,3.999c-4.001,2.001-10.001,6-12,8
			C1.999,14,0,28,0,31.999C0,36,0,56,0,58c1.524,0,7.999-0.55,7.999-2c0-3.372,1.105-11.285,2.001-16c1.266-6.667,2-6,2-6
			s0,24,0,25.999c0,2.001,4,4,18,4s18-1.999,18-4C47.999,58,48,34,48,34s0.733-0.667,2,6c0.895,4.715,2,12.628,2,16
			c0,1.45,6.475,2,8,2c0-2,0-22,0-26.001C60,28,58,14,56,11.999z"/>
	</g>
</g>
<g>
</g>
<g>
</g>
<g>
</g>
<g>
</g>
<g>
</g>
<g>
</g>
<g>
</g>
<g>
</g>
<g>
</g>
<g>
</g>
<g>
</g>
<g>
</g>
<g>
</g>
<g>
</g>
<g>
</g>
</svg>
