<?xml version="1.0" encoding="iso-8859-1"?>
<!-- Generator: Adobe Illustrator 16.0.0, SVG Export Plug-In . SVG Version: 6.00 Build 0)  -->
<!DOCTYPE svg PUBLIC "-//W3C//DTD SVG 1.1//EN" "http://www.w3.org/Graphics/SVG/1.1/DTD/svg11.dtd">
<svg version="1.1" id="Layer_1" xmlns="http://www.w3.org/2000/svg" xmlns:xlink="http://www.w3.org/1999/xlink" x="0px" y="0px"
	 width="64px" height="62px" viewBox="0 0 64 62" style="enable-background:new 0 0 64 62;" xml:space="preserve">
<g id="Shirt_5_">
	<g>
		<path style="fill:#48A0DC;" d="M50,30l12-6c-2.153-5.341-6-11.999-8-14c-2-2-8-4-12-5.999L40,2c-2-2-4-2-8-2s-6,0-8,2l-2,2.001
			C18,6,12,8,10,10c-2,2.001-5.848,8.659-8,14l12,6c1.275-2.57,2-2,2-2s-2,28.001-2,30c0,2.001,4,4,18,4s18-1.999,18-4
			c0-2-2-30-2-30S48.725,27.43,50,30z"/>
	</g>
</g>
<g id="Interior_10_">
	<g>
		<path style="fill:#387BA8;" d="M32,4.001c-2,0-4,0-6,1.999v4h4l2,4l2-4h4V6C36,4.001,34,4.001,32,4.001z"/>
	</g>
</g>
<g id="Fringe_2_">
	<g>
		<path style="fill-rule:evenodd;clip-rule:evenodd;fill:#387BA8;" d="M0,28c0,1.75,10.25,6,12,6c0.574,0,1.376-2.742,2-4L2,24
			C1.414,25.452,0,27.626,0,28z M62,24l-12,6c0.624,1.258,1.425,4,2,4c1.75,0,12-4.25,12-6C64,27.626,62.585,25.452,62,24z"/>
	</g>
</g>
<g id="Collar_11_">
	<g>
		<path style="fill-rule:evenodd;clip-rule:evenodd;fill:#CCCCCC;" d="M22,4.001c0,8,0,9.999,2,9.999s6-4,6-4s-2-2-6-8L22,4.001z
			 M40,2c-4,6-6,8-6,8s4,4,6,4s2-1.999,2-9.999L40,2z"/>
	</g>
</g>
<g>
</g>
<g>
</g>
<g>
</g>
<g>
</g>
<g>
</g>
<g>
</g>
<g>
</g>
<g>
</g>
<g>
</g>
<g>
</g>
<g>
</g>
<g>
</g>
<g>
</g>
<g>
</g>
<g>
</g>
</svg>
