<?xml version="1.0" encoding="iso-8859-1"?>
<!-- Generator: Adobe Illustrator 16.0.0, SVG Export Plug-In . SVG Version: 6.00 Build 0)  -->
<!DOCTYPE svg PUBLIC "-//W3C//DTD SVG 1.1//EN" "http://www.w3.org/Graphics/SVG/1.1/DTD/svg11.dtd">
<svg version="1.1" id="Layer_1" xmlns="http://www.w3.org/2000/svg" xmlns:xlink="http://www.w3.org/1999/xlink" x="0px" y="0px"
	 width="60px" height="56px" viewBox="0 0 60 56" style="enable-background:new 0 0 60 56;" xml:space="preserve">
<g id="Heel_14_">
	<g>
		<path style="fill:#A67C52;" d="M58,36c-6.15,0-26,0-26,0L10,10H0c0,0,6,38,6,44c0,2,0,2,1.999,2c0.513,0,1.126,0,2.001,0
			c2,0,2,0,2-2c0-6,4-30,4-30c10,14,8,32,16,32c14,0,20-3.999,26-8c2-8,2-10,2-10S60,36,58,36z"/>
	</g>
</g>
<g id="Shoe_23_">
	<g>
		<path style="fill:#666666;" d="M54,32.001c0,0-4,0-8-2.001c-4-2-6-24-6-30C24.873,0,21.248,9.501,18,16.001C12,6,3.838,6,2,6
			C0,6,0,6,0,8c0,1.688,0,2,0,2c4,0,10.123,1.927,16,12c8,16,12,24,18,24c15.814,0,22-4,22-4C56,34,54,32.001,54,32.001z"/>
	</g>
</g>
<g>
</g>
<g>
</g>
<g>
</g>
<g>
</g>
<g>
</g>
<g>
</g>
<g>
</g>
<g>
</g>
<g>
</g>
<g>
</g>
<g>
</g>
<g>
</g>
<g>
</g>
<g>
</g>
<g>
</g>
</svg>
