<?xml version="1.0" encoding="iso-8859-1"?>
<!-- Generator: Adobe Illustrator 16.0.0, SVG Export Plug-In . SVG Version: 6.00 Build 0)  -->
<!DOCTYPE svg PUBLIC "-//W3C//DTD SVG 1.1//EN" "http://www.w3.org/Graphics/SVG/1.1/DTD/svg11.dtd">
<svg version="1.1" id="Layer_1" xmlns="http://www.w3.org/2000/svg" xmlns:xlink="http://www.w3.org/1999/xlink" x="0px" y="0px"
	 width="36px" height="63.969px" viewBox="0 0 36 63.969" style="enable-background:new 0 0 36 63.969;" xml:space="preserve">
<g id="Neck">
	<g>
		<path style="fill:#D46557;" d="M34,0c-2,0-6.06,4.001-16,4.001C8,4.001,4,0,2,0S0,4.001,0,6.001c0,1.999,8,4,18,4
			c9.94,0,18-2.001,18-4C36,4.001,36,0,34,0z"/>
	</g>
</g>
<g id="Knot">
	<g>
		<path style="fill:#ED7161;" d="M22,0h-8c-2.209,0-4,1.791-4,4v3.733c-0.066,1.064,0.268,2.146,1.081,2.959L14,14h8l2.858-3.308
			C25.602,9.948,25.972,8.976,25.979,8H26V4C26,1.791,24.209,0,22,0z"/>
	</g>
</g>
<g id="Front">
	<g>
		<path style="fill:#ED7161;" d="M22,14c-1.525-1.524-2.438-2-4-2s-2.476,0.476-4,2L4,50c0.008,1.049,0.38,2.097,1.18,2.897
			l9.858,9.857c1.618,1.618,4.241,1.618,5.858,0l9.858-9.857c0.801-0.801,1.202-1.849,1.21-2.897L22,14z"/>
	</g>
</g>
<g id="Stripes_2_">
	<g>
		<path style="fill:#CCCCCC;" d="M5.304,45.305l16.521,16.521l4-4L7.043,39.044L5.304,45.305z M25.062,25.063L14,14l-1.739,6.261
			l15.863,15.863L25.062,25.063z M31.186,47.187L10.521,26.521l-1.739,6.261l21.044,21.044l0.929-0.929
			c0.801-0.801,1.202-1.849,1.21-2.897L31.186,47.187z"/>
	</g>
</g>
<g>
</g>
<g>
</g>
<g>
</g>
<g>
</g>
<g>
</g>
<g>
</g>
<g>
</g>
<g>
</g>
<g>
</g>
<g>
</g>
<g>
</g>
<g>
</g>
<g>
</g>
<g>
</g>
<g>
</g>
</svg>
