<?xml version="1.0" encoding="iso-8859-1"?>
<!-- Generator: Adobe Illustrator 16.0.0, SVG Export Plug-In . SVG Version: 6.00 Build 0)  -->
<!DOCTYPE svg PUBLIC "-//W3C//DTD SVG 1.1//EN" "http://www.w3.org/Graphics/SVG/1.1/DTD/svg11.dtd">
<svg version="1.1" id="Layer_1" xmlns="http://www.w3.org/2000/svg" xmlns:xlink="http://www.w3.org/1999/xlink" x="0px" y="0px"
	 width="64px" height="40px" viewBox="0 0 64 40" style="enable-background:new 0 0 64 40;" xml:space="preserve">
<g id="Tongue_5_">
	<g>
		<path style="fill:#CCCCCC;" d="M22,0c-4,0-4,4.001-4,4.001v4h12C28,4,24,0,22,0z"/>
	</g>
</g>
<g id="Upper_6_">
	<g>
		<path style="fill:#E6E6E6;" d="M46,24.001c-4,0-14-14.001-16-16c-2-2.001-4-4-6-4c0,0-2,0-4,1.999c-2,2.001-6,4-10,4
			c-2.254,0-1.057,0-4,0c-2,0-4,0-4,2v4c0,2-2,5.994-2,12v6h58v-8C48,24.001,46,24.001,46,24.001z"/>
	</g>
</g>
<g id="Design_3_">
	<g>
		<path style="fill:#D46557;" d="M30,8.001c-2-2.001-4-4-6-4c0,0-2,0-4,1.999c0,0,4,4,6,6.001c1.414,1.414,0,2,2,4
			c2,1.999,4,0,6,1.999c4,4.001,6,8,12,8v-1.999C42,24.001,32,10,30,8.001z"/>
	</g>
</g>
<g id="Design_4_">
	<g>
		<path style="fill-rule:evenodd;clip-rule:evenodd;fill:#ED7161;" d="M34,26c0-4-4-6-4-6s0.189,4.001-2,4.001
			c-1.653,0-4.83-1.182-8.409-2.804C22.866,17.026,27.554,12.447,30,10c0,0,0-1.999-2-4c-2-1.999-4-1.999-4-1.999
			c-5.233,5.232-9.907,9.357-13.709,12.572C5.66,14.118,2,12,2,12v2c0,0,2.592,1.885,6.157,4.36C3.06,22.597,0,24.933,0,26
			c0,1.931,0,8,0,8h16c0,0,0-1.823,0-6c0-0.949,0.49-2.164,1.294-3.521C22.027,27.5,26.419,30,28,30C30,30,34,30,34,26z M58,26
			c0,0-2,4.001-8,4.001c-2,0-2-2.001-2-4.001c0,0,0-1.999-2-1.999S42,26,40,28s-8,6-8,6h30v-3.999C62,26,58,26,58,26z"/>
	</g>
</g>
<g id="Sole_5_">
	<g>
		<path style="fill:#CCCCCC;" d="M62,30c-2,0-4.599,4-30,4c-10,0-28-1.999-30-1.999s-2,0-2,1.999c0,4,0,6,7,6c6.729,0,20.548,0,25,0
			c6,0,32,0,32-7.999C64,32.001,64,30,62,30z"/>
	</g>
</g>
<g>
</g>
<g>
</g>
<g>
</g>
<g>
</g>
<g>
</g>
<g>
</g>
<g>
</g>
<g>
</g>
<g>
</g>
<g>
</g>
<g>
</g>
<g>
</g>
<g>
</g>
<g>
</g>
<g>
</g>
</svg>
