<?xml version="1.0" encoding="iso-8859-1"?>
<!-- Generator: Adobe Illustrator 16.0.0, SVG Export Plug-In . SVG Version: 6.00 Build 0)  -->
<!DOCTYPE svg PUBLIC "-//W3C//DTD SVG 1.1//EN" "http://www.w3.org/Graphics/SVG/1.1/DTD/svg11.dtd">
<svg version="1.1" id="Layer_1" xmlns="http://www.w3.org/2000/svg" xmlns:xlink="http://www.w3.org/1999/xlink" x="0px" y="0px"
	 width="64px" height="56px" viewBox="0 0 64 56" style="enable-background:new 0 0 64 56;" xml:space="preserve">
<g id="Interior">
	<g>
		<path style="fill:#E6E6E6;" d="M30,32c0,0-4-4-4-6s0-10,0-10c0-12,0-16-4-16C16,0,12,10,6,10c-2,0-4,0-4,2s0,4,0,4h14v16H30z"/>
	</g>
</g>
<g id="Upper_9_">
	<g>
		<path style="fill:#B3B3B3;" d="M42,38c-6-2-10-4-12-6s-4-4-6-4c-4,0-6,0-6-2s8-2,8-4v-6c0,0-4,0-4-2c0-6,0-8-2-8s-8,8-12,8H2v2
			l2,14v2v20h46l12-4v-4C62,40,48,40,42,38z"/>
	</g>
</g>
<g id="Logo_4_">
	<g>
		<path style="fill:#E6E6E6;" d="M24,34c0,2,0,4-2,4c-4,0-16-4-16-4v2l10,4c0,0,6,2,8,2c1,0,4,0,4-2C28,37,24,34,24,34z"/>
	</g>
</g>
<g id="Strap">
	<g>
		<path style="fill-rule:evenodd;clip-rule:evenodd;fill:#E6E6E6;" d="M26,20H12c0-0.759,0-1.456,0-2c0-2-6-2-8-2s-2,2-2,2s-2,2-2,4
			s2,4,2,4s0,2,2,2s8,0,8-2c0-0.544,0-1.241,0-2h14c1.104,0,2-0.896,2-2S27.104,20,26,20z"/>
	</g>
</g>
<g id="Sole_8_">
	<g>
		<path style="fill:#999999;" d="M62,44c0,0-4,6-14,6c-2,0-6-4-8-4h-4c0,0-4.111-2-8-2c-6,0-8,0-8,0s-2,0-2-2c0,0-0.144-1.257-2-2
			L6,36v-2c0-2-2-2-2-2s-4,8-4,12c0,6,4,6,4,6v2c0,2,2,4,6,4h32c4,0,22-2,22-8C64,44,62,44,62,44z"/>
	</g>
</g>
<g id="Button">
	<g>
		<circle style="fill:#FFFFFF;" cx="18" cy="14" r="2"/>
	</g>
</g>
<g id="Lights">
	<g>
		<path style="fill-rule:evenodd;clip-rule:evenodd;fill:#B3B3B3;" d="M10,56h16c0,0-6-6-8-6C14,50,10,56,10,56z M32,50
			c-2,0-6,6-6,6h14C40,56,36,50,32,50z"/>
	</g>
</g>
<g>
</g>
<g>
</g>
<g>
</g>
<g>
</g>
<g>
</g>
<g>
</g>
<g>
</g>
<g>
</g>
<g>
</g>
<g>
</g>
<g>
</g>
<g>
</g>
<g>
</g>
<g>
</g>
<g>
</g>
</svg>
