<?xml version="1.0" encoding="iso-8859-1"?>
<!-- Generator: Adobe Illustrator 16.0.0, SVG Export Plug-In . SVG Version: 6.00 Build 0)  -->
<!DOCTYPE svg PUBLIC "-//W3C//DTD SVG 1.1//EN" "http://www.w3.org/Graphics/SVG/1.1/DTD/svg11.dtd">
<svg version="1.1" id="Layer_1" xmlns="http://www.w3.org/2000/svg" xmlns:xlink="http://www.w3.org/1999/xlink" x="0px" y="0px"
	 width="64.001px" height="32px" viewBox="0 0 64.001 32" style="enable-background:new 0 0 64.001 32;" xml:space="preserve">
<g id="Upper_4_">
	<g>
		<path style="fill:#387BA8;" d="M44,15.999H0V28h62v-4.001C62,18,58,20,44,15.999z"/>
	</g>
</g>
<g id="Tongue_4_">
	<g>
		<path style="fill:#387BA8;" d="M26,0c-2,0-4,4-4,5.999C22,8,26,10,26,10h10C36,10,27.991,0,26,0z"/>
	</g>
</g>
<g id="Upper_5_">
	<g>
		<path style="fill:#408EC2;" d="M28,4c-2,0-8,8-14,8S4,10,2,10s-2,5.999-2,5.999C20.227,21.623,20,26,20,26h16
			c0-2.001,8-8,8-10.001C44,13.999,30,4,28,4z"/>
	</g>
</g>
<g id="Logo_3_">
	<g>
		<path style="fill:#FFFFFF;" d="M30,12c0,0,2,3.999-2,3.999c-2,0-14-2-14-2S28,20,30,20s4,0,4-2C34,13.999,30,12,30,12z"/>
	</g>
</g>
<g id="Sole_4_">
	<g>
		<path style="fill:#CCCCCC;" d="M62,23.999c-2.104,0-7.595,2.001-22,2.001c-4,0-36.57,0-38,0c-2,0-2,0-2,2c0,0.592,0,0.965,0,1.999
			C0,32,0,32,2,32c1.138,0,32,0,38,0c14,0,24-2.001,24-4C64,25.999,64.104,23.999,62,23.999z"/>
	</g>
</g>
<g>
</g>
<g>
</g>
<g>
</g>
<g>
</g>
<g>
</g>
<g>
</g>
<g>
</g>
<g>
</g>
<g>
</g>
<g>
</g>
<g>
</g>
<g>
</g>
<g>
</g>
<g>
</g>
<g>
</g>
</svg>
