<?xml version="1.0" encoding="iso-8859-1"?>
<!-- Generator: Adobe Illustrator 16.0.0, SVG Export Plug-In . SVG Version: 6.00 Build 0)  -->
<!DOCTYPE svg PUBLIC "-//W3C//DTD SVG 1.1//EN" "http://www.w3.org/Graphics/SVG/1.1/DTD/svg11.dtd">
<svg version="1.1" id="Layer_1" xmlns="http://www.w3.org/2000/svg" xmlns:xlink="http://www.w3.org/1999/xlink" x="0px" y="0px"
	 width="60px" height="64px" viewBox="0 0 60 64" style="enable-background:new 0 0 60 64;" xml:space="preserve">
<g id="Heel_9_">
	<g>
		<path style="fill:#9B7CAB;" d="M58,44c-6.15,0-20,0-20,0L16,18H0c0,0,6,16,6,44c0,1.104,0.896,2,2,2s2-0.896,2-2V36
			c0-3.999,0-6,2-6s4,2.001,4,2.001C26,46,24,64,32,64c14,0,20-3.999,26-8c2-8,2-10,2-10S60,44,58,44z"/>
	</g>
</g>
<g id="Shoe_18_">
	<g>
		<path style="fill:#F06EAA;" d="M54,38c0,0-4,0-8-2c0,0,0,4.001-6,4.001C36,40.001,32,34,24,22C16.715,11.073,10,0,10,0
			S0,6.787,0,16v2c0,0,13.55,1.101,20,14.001c12,23.999,8,28,14,28c5.575,0,14-2,20-6.001c2-6,2-8,2-10C56,40.001,54,38,54,38z"/>
	</g>
</g>
<g>
</g>
<g>
</g>
<g>
</g>
<g>
</g>
<g>
</g>
<g>
</g>
<g>
</g>
<g>
</g>
<g>
</g>
<g>
</g>
<g>
</g>
<g>
</g>
<g>
</g>
<g>
</g>
<g>
</g>
</svg>
