<?xml version="1.0" encoding="iso-8859-1"?>
<!-- Generator: Adobe Illustrator 16.0.0, SVG Export Plug-In . SVG Version: 6.00 Build 0)  -->
<!DOCTYPE svg PUBLIC "-//W3C//DTD SVG 1.1//EN" "http://www.w3.org/Graphics/SVG/1.1/DTD/svg11.dtd">
<svg version="1.1" id="Layer_1" xmlns="http://www.w3.org/2000/svg" xmlns:xlink="http://www.w3.org/1999/xlink" x="0px" y="0px"
	 width="56px" height="64px" viewBox="0 0 56 64" style="enable-background:new 0 0 56 64;" xml:space="preserve">
<g id="Heel_1_">
	<g>
		<path style="fill:#333333;" d="M10,59.999V62c0,2,0,2,2,2h8c2,0,2,0,2-2v-2.001H10z"/>
	</g>
</g>
<g id="Boot_6_">
	<g>
		<path style="fill:#666666;" d="M48,52c-6,0-12-2-14-3.999L30,42c0-8.063,2-22,2-22l-12-4L6,20c0,6,4,18,4,22v4
			c0,2.001-2,4.838-2,8c0,4,2,5.999,2,5.999h10C20,60.009,26,62,26,62s6,2,8,2c16,0,22-4.001,22-4.001S56,52,48,52z"/>
	</g>
</g>
<g id="Boot_7_">
	<g>
		<path style="fill:#808080;" d="M36,4c0,0-7.164-2-16-2C11.163,2,4,4,4,4S0,18,0,24c6,0,16-6,20-6s14,6,20,6C40,18.063,36,4,36,4z"
			/>
	</g>
</g>
<g id="Strap_8_">
	<g>
		<path style="fill:#333333;" d="M30,42c0,8-10,17.999-10,17.999L26,62c0,0,8-10,8-13.999C34,48.001,34,44,30,42z"/>
	</g>
</g>
<g id="Strap_9_">
	<g>
		<path style="fill:#666666;" d="M20,0c-1.105,0-2,0.896-2,2v18c0,1.104,0.895,2,2,2c1.104,0,2-0.896,2-2V2C22,0.896,21.104,0,20,0z
			"/>
	</g>
</g>
<g id="Buckle_3_">
	<g>
		<path style="fill-rule:evenodd;clip-rule:evenodd;fill:#999999;" d="M28,48.001c-1,0-4,4.999-4,5.999s5,4,6,4s4-5,4-6
			C34,51.001,29,48.001,28,48.001z M28,56c-1.104,0-2-0.896-2-2s0.896-2,2-2s2,0.896,2,2S29.104,56,28,56z"/>
	</g>
</g>
<g>
</g>
<g>
</g>
<g>
</g>
<g>
</g>
<g>
</g>
<g>
</g>
<g>
</g>
<g>
</g>
<g>
</g>
<g>
</g>
<g>
</g>
<g>
</g>
<g>
</g>
<g>
</g>
<g>
</g>
</svg>
