<?xml version="1.0" encoding="iso-8859-1"?>
<!-- Generator: Adobe Illustrator 16.0.0, SVG Export Plug-In . SVG Version: 6.00 Build 0)  -->
<!DOCTYPE svg PUBLIC "-//W3C//DTD SVG 1.1//EN" "http://www.w3.org/Graphics/SVG/1.1/DTD/svg11.dtd">
<svg version="1.1" id="Layer_1" xmlns="http://www.w3.org/2000/svg" xmlns:xlink="http://www.w3.org/1999/xlink" x="0px" y="0px"
	 width="64.001px" height="44.025px" viewBox="0 0 64.001 44.025" style="enable-background:new 0 0 64.001 44.025;"
	 xml:space="preserve">
<g id="Sole_17_">
	<g>
		<path style="fill:#4D4D4D;" d="M62.001,32.025h-60v10c0,2,0,2,2,2s12,0,12,0c2,0,2,0,2-2c0,0,13.999,2,18,2c16,0,28-8,28-10
			S62.001,32.025,62.001,32.025z"/>
	</g>
</g>
<g id="Strap_6_">
	<g>
		<path style="fill:#666666;" d="M7.732,7.291l-4-6.371C3.18,0.04,1.957-0.261,1.001,0.247C0.044,0.755-0.284,1.88,0.269,2.759
			l4,6.371c0.552,0.88,1.775,1.182,2.732,0.674C7.957,9.296,8.285,8.171,7.732,7.291z"/>
	</g>
</g>
<g id="Boot_11_">
	<g>
		<path style="fill:#666666;" d="M56.001,26.025c-2.696,0-6.001,0-10,0c-4,0-6-2-8-4s-10-12-14-18c-1.109-1.664,0-2.001-4-2.001
			c-2,0-11.089,2.001-18,2.001c0,16-2,24-2,28c0,6,2,6,2,6H18c8,0,10.001,2,22.001,2c9.999,0,24-6,24-8S62.001,26.025,56.001,26.025
			z"/>
	</g>
</g>
<g id="Boot_2_">
	<g>
		<path style="fill:#4D4D4D;" d="M24.001,4.025c-1.109-1.664,0-2.001-4-2.001c-2,0-2,2.001-2,2.001c0,2,13.999,24,16,24c2,0,0-2,4-6
			C36.001,20.025,28.001,10.025,24.001,4.025z"/>
	</g>
</g>
<g id="Holes_1_">
	<g>
		<path style="fill-rule:evenodd;clip-rule:evenodd;fill:#333333;" d="M24.001,6.025c-1.105,0-2,0.896-2,2s0.895,2,2,2
			c1.104,0,1.999-0.896,1.999-2S25.104,6.025,24.001,6.025z M28.001,12.025c-1.105,0-2.001,0.896-2.001,2s0.896,2,2.001,2
			c1.104,0,2-0.896,2-2S29.105,12.025,28.001,12.025z M32,18.025c-1.104,0-1.999,0.896-1.999,2s0.895,2,1.999,2
			c1.105,0,2.001-0.896,2.001-2S33.105,18.025,32,18.025z"/>
	</g>
</g>
<g>
</g>
<g>
</g>
<g>
</g>
<g>
</g>
<g>
</g>
<g>
</g>
<g>
</g>
<g>
</g>
<g>
</g>
<g>
</g>
<g>
</g>
<g>
</g>
<g>
</g>
<g>
</g>
<g>
</g>
</svg>
