<?xml version="1.0" encoding="iso-8859-1"?>
<!-- Generator: Adobe Illustrator 16.0.0, SVG Export Plug-In . SVG Version: 6.00 Build 0)  -->
<!DOCTYPE svg PUBLIC "-//W3C//DTD SVG 1.1//EN" "http://www.w3.org/Graphics/SVG/1.1/DTD/svg11.dtd">
<svg version="1.1" id="Layer_1" xmlns="http://www.w3.org/2000/svg" xmlns:xlink="http://www.w3.org/1999/xlink" x="0px" y="0px"
	 width="60px" height="64px" viewBox="0 0 60 64" style="enable-background:new 0 0 60 64;" xml:space="preserve">
<g id="Strap_13_">
	<g>
		<path style="fill:#638C3F;" d="M32,0H10v4h22c1.104,0,2-0.896,2-2S33.104,0,32,0z"/>
	</g>
</g>
<g id="Buckle_8_">
	<g>
		<path style="fill:#CCCCCC;" d="M26,0h-4c-1.105,0-2,0.896-2,2s0.895,2,2,2h4c1.104,0,2-0.896,2-2S27.104,0,26,0z"/>
	</g>
</g>
<g id="Heel_10_">
	<g>
		<path style="fill:#638C3F;" d="M56,44c-6.15,0-18,0-18,0L16,18H0c0,0,6,16,6,44c0,1.104,0.895,2,1.999,2C9.104,64,10,63.104,10,62
			V36c0-3.999,0-6,2-6s4,2.001,4,2.001C26,46,24,64,32,64c14,0,20-3.999,26-8c2-8,2-10,2-12C60,44,58,44,56,44z"/>
	</g>
</g>
<g id="Shoe_19_">
	<g>
		<path style="fill:#88C057;" d="M46,38c0,0,0,2.001-6,2.001C36,40.001,32,34,24,22C16.715,11.073,10,0,10,0S0,6.787,0,16v2
			c0,0,6,0,16,14.001C26,46,26,54,34,54c22,0,26-4,26-10C60,40.001,52,42,46,38z"/>
	</g>
</g>
<g>
</g>
<g>
</g>
<g>
</g>
<g>
</g>
<g>
</g>
<g>
</g>
<g>
</g>
<g>
</g>
<g>
</g>
<g>
</g>
<g>
</g>
<g>
</g>
<g>
</g>
<g>
</g>
<g>
</g>
</svg>
