<?xml version="1.0" encoding="iso-8859-1"?>
<!-- Generator: Adobe Illustrator 16.0.0, SVG Export Plug-In . SVG Version: 6.00 Build 0)  -->
<!DOCTYPE svg PUBLIC "-//W3C//DTD SVG 1.1//EN" "http://www.w3.org/Graphics/SVG/1.1/DTD/svg11.dtd">
<svg version="1.1" id="Layer_1" xmlns="http://www.w3.org/2000/svg" xmlns:xlink="http://www.w3.org/1999/xlink" x="0px" y="0px"
	 width="60px" height="64px" viewBox="0 0 60 64" style="enable-background:new 0 0 60 64;" xml:space="preserve">
<g id="Heel_11_">
	<g>
		<path style="fill:#408EC2;" d="M0,18c0,0,6,16,6,44c0,1.104,0.895,2,1.999,2S10,63.104,10,62V36c0-3.999,0-6,2-6s4,2.001,4,2.001
			V18H0z"/>
	</g>
</g>
<g id="Shoe_20_">
	<g>
		<path style="fill:#48A0DC;" d="M46,38c0,0,0,2.001-6,2.001C36,40.001,32,34,24,22C16.715,11.073,10,0,10,0S0,6.787,0,16v2
			c0,0,6,0,16,14.001C26,46,24,64,32,64c14,0,20-3.999,26-8c2-8,2-10,2-12C60,40,52,42,46,38z"/>
	</g>
</g>
<g>
</g>
<g>
</g>
<g>
</g>
<g>
</g>
<g>
</g>
<g>
</g>
<g>
</g>
<g>
</g>
<g>
</g>
<g>
</g>
<g>
</g>
<g>
</g>
<g>
</g>
<g>
</g>
<g>
</g>
</svg>
