<?xml version="1.0" encoding="iso-8859-1"?>
<!-- Generator: Adobe Illustrator 16.0.0, SVG Export Plug-In . SVG Version: 6.00 Build 0)  -->
<!DOCTYPE svg PUBLIC "-//W3C//DTD SVG 1.1//EN" "http://www.w3.org/Graphics/SVG/1.1/DTD/svg11.dtd">
<svg version="1.1" id="Layer_1" xmlns="http://www.w3.org/2000/svg" xmlns:xlink="http://www.w3.org/1999/xlink" x="0px" y="0px"
	 width="64px" height="64px" viewBox="0 0 64 64" style="enable-background:new 0 0 64 64;" xml:space="preserve">
<g id="Bag">
	<g>
		<path style="fill:#999999;" d="M52,26h-8c0,4.418-5.373,8-12,8c-6.628,0-12-3.582-12-8h-8c0,0-12,22-12,30c0,4,2,8,8,8h48
			c6,0,8-4,8-8C64,48,52,26,52,26z"/>
	</g>
</g>
<g id="Handle">
	<g>
		<path style="fill-rule:evenodd;clip-rule:evenodd;fill:#FFCC66;" d="M46.724,18.048C44.465,11.717,39.3,0,32,0
			S19.535,11.717,17.276,18.048C14.305,18.406,12,20.931,12,24c0,3.313,2.687,6,6,6s6-2.687,6-6c0-2.159-1.144-4.046-2.854-5.103
			C23.168,13.75,27.583,4,32,4s8.831,9.75,10.854,14.897C41.144,19.954,40,21.841,40,24c0,3.313,2.686,6,6,6c3.313,0,6-2.687,6-6
			C52,20.931,49.695,18.406,46.724,18.048z M18,26c-1.104,0-2-0.896-2-2c0-1.105,0.896-2,2-2s2,0.895,2,2C20,25.104,19.104,26,18,26
			z M46,26c-1.104,0-2-0.896-2-2c0-1.105,0.896-2,2-2s2,0.895,2,2C48,25.104,47.104,26,46,26z"/>
	</g>
</g>
<g>
</g>
<g>
</g>
<g>
</g>
<g>
</g>
<g>
</g>
<g>
</g>
<g>
</g>
<g>
</g>
<g>
</g>
<g>
</g>
<g>
</g>
<g>
</g>
<g>
</g>
<g>
</g>
<g>
</g>
</svg>
