<?xml version="1.0" encoding="iso-8859-1"?>
<!-- Generator: Adobe Illustrator 16.0.0, SVG Export Plug-In . SVG Version: 6.00 Build 0)  -->
<!DOCTYPE svg PUBLIC "-//W3C//DTD SVG 1.1//EN" "http://www.w3.org/Graphics/SVG/1.1/DTD/svg11.dtd">
<svg version="1.1" id="Layer_1" xmlns="http://www.w3.org/2000/svg" xmlns:xlink="http://www.w3.org/1999/xlink" x="0px" y="0px"
	 width="64px" height="32.001px" viewBox="0 0 64 32.001" style="enable-background:new 0 0 64 32.001;" xml:space="preserve">
<g id="Tongue_3_">
	<g>
		<path style="fill:#FF8833;" d="M24,0c-2,0-2,6-2,6h10C32,6,26,0,24,0z"/>
	</g>
</g>
<g id="Upper_3_">
	<g>
		<path style="fill:#999999;" d="M62,20.001C62,18,52,18,50,18S32,4,28,4s-8.065,4-14,4c-4,0-6-4-8-4c-4,0-6,4-6,6
			c0,4,0,18.001,0,18.001h58c0,0,6,0,6-4.001C64,20.001,62,20.001,62,20.001z"/>
	</g>
</g>
<g id="Logo_2_">
	<g>
		<path style="fill:#FF8833;" d="M32,14c-14-3.999-24-3.999-24-3.999V14c0,0,6,0,12,2c10.218,3.406,12,10,12,10l4-2c0,0-2-3.999-6-6
			c8,2.001,10,6,10,6l4-2C44,22,41.806,16.802,32,14z"/>
	</g>
</g>
<g id="Design_2_">
	<g>
		<path style="fill:#808080;" d="M62,20.001h-6c-2,0-4,1.999-6,1.999c0,0-2,0-2-1.999C48,18,50,18,50,18C48,18,32,4,28,4
			c-2,0-2,0-6,2c0,0,4,4.001,4,6.001C26,13.687,16,22,16,22c-4-4-8-6-8-8c0-1.999,6-4,6-6c-4,0-6-4-8-4c-4,0-6,4-6,6v18.001h22
			L20,26c6-4,12-8,24-8c0,0,0,4-2,4c-1.888,0-6,0-12,6.001h28c0,0,6,0,6-4.001C64,20.001,62,20.001,62,20.001z"/>
	</g>
</g>
<g id="Sole_3_">
	<g>
		<path style="fill:#CCCCCC;" d="M46,28.001C22,28.001,14,22,8,22c-2,0-8,2-8,4v4c0,2.001,4,2.001,6,2.001c6.007,0,31.016,0,36,0
			c16,0,22-1.017,22-8.001C64,28.001,50,28.001,46,28.001z"/>
	</g>
</g>
<g>
</g>
<g>
</g>
<g>
</g>
<g>
</g>
<g>
</g>
<g>
</g>
<g>
</g>
<g>
</g>
<g>
</g>
<g>
</g>
<g>
</g>
<g>
</g>
<g>
</g>
<g>
</g>
<g>
</g>
</svg>
