<?xml version="1.0" encoding="iso-8859-1"?>
<!-- Generator: Adobe Illustrator 16.0.0, SVG Export Plug-In . SVG Version: 6.00 Build 0)  -->
<!DOCTYPE svg PUBLIC "-//W3C//DTD SVG 1.1//EN" "http://www.w3.org/Graphics/SVG/1.1/DTD/svg11.dtd">
<svg version="1.1" id="Layer_1" xmlns="http://www.w3.org/2000/svg" xmlns:xlink="http://www.w3.org/1999/xlink" x="0px" y="0px"
	 width="64px" height="60px" viewBox="0 0 64 60" style="enable-background:new 0 0 64 60;" xml:space="preserve">
<g id="Shorts_2_">
	<g>
		<path style="fill-rule:evenodd;clip-rule:evenodd;fill:#D9B898;" d="M60,21.999C58,10,56,8,56,8V2c0-1.104-0.896-2-2-2H10
			C8.896,0,8,0.896,8,2v6c0,0-2,2-4,13.999C2,34,0,54,0,58c0,2,24,2,26,2s6-24.001,6-24.001S36,60,38,60s26,0,26-2
			C64,54,62,34,60,21.999z"/>
	</g>
</g>
<g id="Pockets_2_">
	<g>
		<path style="fill-rule:evenodd;clip-rule:evenodd;fill:#BFA386;" d="M4,21.999C4,21.999,14,18,18,8H8C8,8,6,10,4,21.999z M56,8H46
			c4,10,14,13.999,14,13.999C58,10,56,8,56,8z"/>
	</g>
</g>
<g id="Front_Rise_3_">
	<g>
		<path style="fill:#BFA386;" d="M30,8v22c0,0,6,0,6-6V8H30z"/>
	</g>
</g>
<g id="Belt_4_">
	<g>
		<rect x="8" y="4" style="fill:#A67C52;" width="48" height="4"/>
	</g>
</g>
<g id="Bukle">
	<g>
		<path style="fill:#CCCCCC;" d="M36,2h-6c-1.104,0-2,0.896-2,2v4c0,1.104,0.896,2,2,2h6c1.104,0,2-0.896,2-2V4
			C38,2.896,37.104,2,36,2z"/>
	</g>
</g>
<g id="Belt_Loops_2_">
	<g>
		<path style="fill-rule:evenodd;clip-rule:evenodd;fill:#BFA386;" d="M18,8c0,1.104,0.896,2,2,2s2-0.896,2-2V0h-4V8z M42,0v8
			c0,1.104,0.896,2,2,2s2-0.896,2-2V0H42z"/>
	</g>
</g>
<g>
</g>
<g>
</g>
<g>
</g>
<g>
</g>
<g>
</g>
<g>
</g>
<g>
</g>
<g>
</g>
<g>
</g>
<g>
</g>
<g>
</g>
<g>
</g>
<g>
</g>
<g>
</g>
<g>
</g>
</svg>
