<?xml version="1.0" encoding="iso-8859-1"?>
<!-- Generator: Adobe Illustrator 16.0.0, SVG Export Plug-In . SVG Version: 6.00 Build 0)  -->
<!DOCTYPE svg PUBLIC "-//W3C//DTD SVG 1.1//EN" "http://www.w3.org/Graphics/SVG/1.1/DTD/svg11.dtd">
<svg version="1.1" id="Layer_1" xmlns="http://www.w3.org/2000/svg" xmlns:xlink="http://www.w3.org/1999/xlink" x="0px" y="0px"
	 width="64px" height="64.001px" viewBox="0 0 64 64.001" style="enable-background:new 0 0 64 64.001;" xml:space="preserve">
<g id="Skirt_2_">
	<g>
		<path style="fill:#87CFFF;" d="M48,8H16C12,8,0,50.001,0,54.001s12,2,12,6c0,2,6,2,12,2s12,2,18,2s10-2,10-4c0-4,12-2,12-6
			S52,8,48,8z"/>
	</g>
</g>
<g id="Weist_1_">
	<g>
		<path style="fill:#48A0DC;" d="M46,0H18c-1.104,0-2,0.896-2,2v6h32V2C48,0.896,47.104,0,46,0z"/>
	</g>
</g>
<g id="Bubbles">
	<g>
		<path style="fill-rule:evenodd;clip-rule:evenodd;fill:#FFCC66;" d="M12,34.001c-1.104,0-2,0.895-2,1.999
			c0,1.105,0.896,2.001,2,2.001s2-0.896,2-2.001C14,34.896,13.104,34.001,12,34.001z M18,26.001c-1.104,0-2,0.895-2,1.999
			c0,1.105,0.896,2.001,2,2.001s2-0.896,2-2.001C20,26.896,19.104,26.001,18,26.001z M24,34.001c-1.104,0-2,0.895-2,1.999
			c0,1.105,0.896,2.001,2,2.001s2-0.896,2-2.001C26,34.896,25.104,34.001,24,34.001z M16,44.001c-1.104,0-2,0.895-2,2
			c0,1.104,0.896,2,2,2s2-0.896,2-2C18,44.896,17.104,44.001,16,44.001z M8,50.001c-1.104,0-2,0.895-2,2c0,1.104,0.896,2,2,2
			s2-0.896,2-2C10,50.896,9.104,50.001,8,50.001z M18,16.001c-1.104,0-2,0.896-2,2S16.896,20,18,20s2-0.895,2-1.999
			S19.104,16.001,18,16.001z M32,14.001c0-1.105-0.896-2-2-2s-2,0.895-2,2c0,1.104,0.896,2,2,2S32,15.105,32,14.001z M32,24.001
			c-1.104,0-2,0.895-2,2C30,27.105,30.896,28,32,28s2-0.895,2-1.999C34,24.896,33.104,24.001,32,24.001z M32,44.001
			c-1.104,0-2,0.895-2,2c0,1.104,0.896,2,2,2s2-0.896,2-2C34,44.896,33.104,44.001,32,44.001z M38,32.001c-1.104,0-2,0.895-2,2
			C36,35.105,36.896,36,38,36s2-0.895,2-1.999C40,32.896,39.104,32.001,38,32.001z M50,36c-1.104,0-2,0.896-2,2.001
			c0,1.104,0.896,2,2,2s2-0.896,2-2C52,36.896,51.104,36,50,36z M42,46.001c-1.104,0-2,0.895-2,2c0,1.104,0.896,2,2,2s2-0.896,2-2
			C44,46.896,43.104,46.001,42,46.001z M24,54.001c-1.104,0-2,0.895-2,2c0,1.104,0.896,2,2,2s2-0.896,2-2
			C26,54.896,25.104,54.001,24,54.001z M40,22.001c1.104,0,2-0.896,2-2.001c0-1.104-0.896-1.999-2-1.999S38,18.896,38,20
			C38,21.105,38.896,22.001,40,22.001z M50,26.001c0-1.105-0.896-2-2-2s-2,0.895-2,2C46,27.105,46.896,28,48,28S50,27.105,50,26.001
			z M56,46.001c-1.105,0-2,0.895-2,2c0,1.104,0.895,2,2,2c1.104,0,2-0.896,2-2C58,46.896,57.104,46.001,56,46.001z"/>
	</g>
</g>
<g>
</g>
<g>
</g>
<g>
</g>
<g>
</g>
<g>
</g>
<g>
</g>
<g>
</g>
<g>
</g>
<g>
</g>
<g>
</g>
<g>
</g>
<g>
</g>
<g>
</g>
<g>
</g>
<g>
</g>
</svg>
