<?xml version="1.0" encoding="iso-8859-1"?>
<!-- Generator: Adobe Illustrator 16.0.0, SVG Export Plug-In . SVG Version: 6.00 Build 0)  -->
<!DOCTYPE svg PUBLIC "-//W3C//DTD SVG 1.1//EN" "http://www.w3.org/Graphics/SVG/1.1/DTD/svg11.dtd">
<svg version="1.1" id="Layer_1" xmlns="http://www.w3.org/2000/svg" xmlns:xlink="http://www.w3.org/1999/xlink" x="0px" y="0px"
	 width="64px" height="60px" viewBox="0 0 64 60" style="enable-background:new 0 0 64 60;" xml:space="preserve">
<g id="Heel_12_">
	<g>
		<path style="fill:#735538;" d="M8,22H0c0,0,6,8,6,36c0,1.104,0.895,2,2,2c1.104,0,2-0.896,2-2V34c0-2,0.791-4,2-4c1.208,0,2,2,2,2
			v-4L8,22z"/>
	</g>
</g>
<g id="Sole_26_">
	<g>
		<path style="fill:#CCA352;" d="M60,52c-2,0-26,0-26,0v8c8,0,24-4,24-4c1.897-0.632,6-1.237,6-2C64,52,62,52,60,52z"/>
	</g>
</g>
<g id="Shoe_21_">
	<g>
		<path style="fill:#FFCC66;" d="M56,46c0,0-4,0-10-4c0,0,0,2-6,2S28,29.875,22,18.001C15.898,5.926,10,0,8,0C6.563,0,6,0.625,6,2
			c0,4,10,8.001,10,26C12,24.125,4,18,2,18s-2,4-2,4s6,0,16,14s10,24,18,24s12,0,24-4C58,52,58,50,56,46z"/>
	</g>
</g>
<g>
</g>
<g>
</g>
<g>
</g>
<g>
</g>
<g>
</g>
<g>
</g>
<g>
</g>
<g>
</g>
<g>
</g>
<g>
</g>
<g>
</g>
<g>
</g>
<g>
</g>
<g>
</g>
<g>
</g>
</svg>
