<?xml version="1.0" encoding="iso-8859-1"?>
<!-- Generator: Adobe Illustrator 16.0.0, SVG Export Plug-In . SVG Version: 6.00 Build 0)  -->
<!DOCTYPE svg PUBLIC "-//W3C//DTD SVG 1.1//EN" "http://www.w3.org/Graphics/SVG/1.1/DTD/svg11.dtd">
<svg version="1.1" id="Layer_1" xmlns="http://www.w3.org/2000/svg" xmlns:xlink="http://www.w3.org/1999/xlink" x="0px" y="0px"
	 width="64.001px" height="28px" viewBox="0 0 64.001 28" style="enable-background:new 0 0 64.001 28;" xml:space="preserve">
<g id="Band_1_">
	<g>
		<polygon style="fill:#F06EAA;" points="28,4 20,12 20,20 36,20 36,12 		"/>
	</g>
</g>
<g id="Upper_11_">
	<g>
		<path style="fill:#846A91;" d="M18,8h-4C8,8,4,6,2,6s-2,6-2,6v12.001h32v-6C32,16,20,8,18,8z"/>
	</g>
</g>
<g id="Upper_12_">
	<g>
		<path style="fill:#9B7CAB;" d="M44,10.001C38,8,32,0,28,0c-2,0-4,2-4,4c0,1.98,8,4,8,10.001c0,4-14,4-14,8v2L62,24v-4
			C62,14,56,14.001,44,10.001z"/>
	</g>
</g>
<g id="Sole_24_">
	<g>
		<path style="fill:#CCCCCC;" d="M62,20c-2.104,0-7.595,2-22,2c-4,0-36.57,0-38,0c-2,0-2,0-2,2c0,0.593,0,0.965,0,2c0,2,0,2,2,2
			c1.138,0,32,0,38,0c14,0,24-2,24-4S64.104,20,62,20z"/>
	</g>
</g>
<g>
</g>
<g>
</g>
<g>
</g>
<g>
</g>
<g>
</g>
<g>
</g>
<g>
</g>
<g>
</g>
<g>
</g>
<g>
</g>
<g>
</g>
<g>
</g>
<g>
</g>
<g>
</g>
<g>
</g>
</svg>
