<?xml version="1.0" encoding="iso-8859-1"?>
<!-- Generator: Adobe Illustrator 16.0.0, SVG Export Plug-In . SVG Version: 6.00 Build 0)  -->
<!DOCTYPE svg PUBLIC "-//W3C//DTD SVG 1.1//EN" "http://www.w3.org/Graphics/SVG/1.1/DTD/svg11.dtd">
<svg version="1.1" id="Layer_1" xmlns="http://www.w3.org/2000/svg" xmlns:xlink="http://www.w3.org/1999/xlink" x="0px" y="0px"
	 width="48.001px" height="64px" viewBox="0 0 48.001 64" style="enable-background:new 0 0 48.001 64;" xml:space="preserve">
<g id="Sock">
	<g>
		<path style="fill-rule:evenodd;clip-rule:evenodd;fill:#CCCCCC;" d="M42.001,16c-4-4-6-16-8-16s-16,2-16,4c0,1.612,4,14,4,20
			c0,2,0,4-2,6l-18,18C2.001,48,0,50.001,0,54c0,5.523,4.478,10,10.001,10c4,0,6-2,6-2l28-28c2-2,4-5.238,4-8
			C48.001,20,44.001,18,42.001,16z"/>
	</g>
</g>
<g id="Heel__x26__Toe">
	<g>
		<path style="fill-rule:evenodd;clip-rule:evenodd;fill:#999999;" d="M2.001,48c0,0-1.994,1.996-2,5.984v0.035
			c0.011,5.515,4.483,9.98,10,9.98c4,0,6-2,6-2s0-6-4-10S2.001,48,2.001,48z M42.001,16c0,0-8,8-8,10s10,8,10,8c2-2,4-5.238,4-8
			C48.001,20,44.001,18,42.001,16z"/>
	</g>
</g>
<g>
</g>
<g>
</g>
<g>
</g>
<g>
</g>
<g>
</g>
<g>
</g>
<g>
</g>
<g>
</g>
<g>
</g>
<g>
</g>
<g>
</g>
<g>
</g>
<g>
</g>
<g>
</g>
<g>
</g>
</svg>
