<?xml version="1.0" encoding="iso-8859-1"?>
<!-- Generator: Adobe Illustrator 16.0.0, SVG Export Plug-In . SVG Version: 6.00 Build 0)  -->
<!DOCTYPE svg PUBLIC "-//W3C//DTD SVG 1.1//EN" "http://www.w3.org/Graphics/SVG/1.1/DTD/svg11.dtd">
<svg version="1.1" id="Layer_1" xmlns="http://www.w3.org/2000/svg" xmlns:xlink="http://www.w3.org/1999/xlink" x="0px" y="0px"
	 width="64px" height="60px" viewBox="0 0 64 60" style="enable-background:new 0 0 64 60;" xml:space="preserve">
<g id="Shorts_1_">
	<g>
		<path style="fill:#CCCCCC;" d="M60,21.999C58,10,56,8,56,8H32H8c0,0-2,2-4,13.999C2,34,0,54,0,58c0,2,24,2,26,2s6-24.001,6-24.001
			S36,60,38,60s26,0,26-2C64,54,62,34,60,21.999z"/>
	</g>
</g>
<g id="Pockets_1_">
	<g>
		<path style="fill-rule:evenodd;clip-rule:evenodd;fill:#B3B3B3;" d="M16,12c-2,0-12,9.999-12,12c0,1,1,2,2,2c2,0,12-10,12-12.001
			C18,13,17,12,16,12z M48,12c-1,0-2,1-2,1.999C46,16,56,26,58,26c1,0,2-1,2-2C60,21.999,50,12,48,12z"/>
	</g>
</g>
<g id="Weist_Band_4_">
	<g>
		<path style="fill:#B3B3B3;" d="M54,0H10C8.895,0,8,0.896,8,2v6h48V2C56,0.896,55.104,0,54,0z"/>
	</g>
</g>
<g id="String">
	<g>
		<path style="fill-rule:evenodd;clip-rule:evenodd;fill:#FFFFFF;" d="M26,13.999C26,15.104,26.895,16,28,16
			c1.104,0,2-0.896,2-2.001V4h-4V13.999z M34,4v9.999C34,15.104,34.896,16,36,16s2-0.896,2-2.001V4H34z"/>
	</g>
</g>
<g>
</g>
<g>
</g>
<g>
</g>
<g>
</g>
<g>
</g>
<g>
</g>
<g>
</g>
<g>
</g>
<g>
</g>
<g>
</g>
<g>
</g>
<g>
</g>
<g>
</g>
<g>
</g>
<g>
</g>
</svg>
