<?xml version="1.0" encoding="iso-8859-1"?>
<!-- Generator: Adobe Illustrator 16.0.0, SVG Export Plug-In . SVG Version: 6.00 Build 0)  -->
<!DOCTYPE svg PUBLIC "-//W3C//DTD SVG 1.1//EN" "http://www.w3.org/Graphics/SVG/1.1/DTD/svg11.dtd">
<svg version="1.1" id="Layer_1" xmlns="http://www.w3.org/2000/svg" xmlns:xlink="http://www.w3.org/1999/xlink" x="0px" y="0px"
	 width="64px" height="56.001px" viewBox="0 0 64 56.001" style="enable-background:new 0 0 64 56.001;" xml:space="preserve">
<g id="Heel_13_">
	<g>
		<path style="fill:#666666;" d="M0,18c0,0,6,8,6,36c0,1.104,0.896,2.001,2,2.001c1.105,0,2-0.896,2-2.001V30c0-2,0.792-4,2-4
			c1.209,0,2,2,2,2V18H0z"/>
	</g>
</g>
<g id="Shoe_22_">
	<g>
		<path style="fill:#ED7161;" d="M46,38c0,0,0,2-6,2c-4,0-8-6-16-18C16.715,11.073,10,0,10,0S0,6.786,0,16v2c0,0,6,0,16,14
			s10,24.001,18,24.001c8,0,30-2.001,30-8C64,44,52,42,46,38z"/>
	</g>
</g>
<g>
</g>
<g>
</g>
<g>
</g>
<g>
</g>
<g>
</g>
<g>
</g>
<g>
</g>
<g>
</g>
<g>
</g>
<g>
</g>
<g>
</g>
<g>
</g>
<g>
</g>
<g>
</g>
<g>
</g>
</svg>
