<?xml version="1.0" encoding="iso-8859-1"?>
<!-- Generator: Adobe Illustrator 16.0.0, SVG Export Plug-In . SVG Version: 6.00 Build 0)  -->
<!DOCTYPE svg PUBLIC "-//W3C//DTD SVG 1.1//EN" "http://www.w3.org/Graphics/SVG/1.1/DTD/svg11.dtd">
<svg version="1.1" id="Layer_1" xmlns="http://www.w3.org/2000/svg" xmlns:xlink="http://www.w3.org/1999/xlink" x="0px" y="0px"
	 width="36px" height="64px" viewBox="0 0 36 64" style="enable-background:new 0 0 36 64;" xml:space="preserve">
<g id="Pants_4_">
	<g>
		<path style="fill:#666666;" d="M34,4.001H2c0,0-2,1.999-2,6l4,52C4,63.104,4.896,64,6,64h8c1.104,0,2-0.896,2-1.999v-4
			c0-10.001,2-40,2-40s2,29.999,2,40v4C20,63.104,20.896,64,22,64h8c1.104,0,2-0.896,2-1.999l4-52C36,6,34,4.001,34,4.001z"/>
	</g>
</g>
<g id="Waist_Band_3_">
	<g>
		<path style="fill:#4D4D4D;" d="M32,0H4C2.896,0,2,0.896,2,2v2.001h32V2C34,0.896,33.104,0,32,0z"/>
	</g>
</g>
<g id="Front_Rise_6_">
	<g>
		<path style="fill:#4D4D4D;" d="M16,4.001V10c0,4,2,4,4,4V4.001H16z"/>
	</g>
</g>
<g>
</g>
<g>
</g>
<g>
</g>
<g>
</g>
<g>
</g>
<g>
</g>
<g>
</g>
<g>
</g>
<g>
</g>
<g>
</g>
<g>
</g>
<g>
</g>
<g>
</g>
<g>
</g>
<g>
</g>
</svg>
