<?xml version="1.0" encoding="iso-8859-1"?>
<!-- Generator: Adobe Illustrator 16.0.0, SVG Export Plug-In . SVG Version: 6.00 Build 0)  -->
<!DOCTYPE svg PUBLIC "-//W3C//DTD SVG 1.1//EN" "http://www.w3.org/Graphics/SVG/1.1/DTD/svg11.dtd">
<svg version="1.1" id="Layer_1" xmlns="http://www.w3.org/2000/svg" xmlns:xlink="http://www.w3.org/1999/xlink" x="0px" y="0px"
	 width="64px" height="63.999px" viewBox="0 0 64 63.999" style="enable-background:new 0 0 64 63.999;" xml:space="preserve">
<g id="Earpiece">
	<g>
		<path style="fill-rule:evenodd;clip-rule:evenodd;fill:#333333;" d="M62,8c-1.111,0-5.924,1.234-10.669,3.017
			C55.313,6.827,58,3.999,58,3.999L54,0c0,0-14.5,16.111-25.607,28.395C16.109,39.501,0,54,0,54l4,3.999
			c0,0,2.828-2.687,7.018-6.669C9.235,56.075,8,60.889,8,62c0,1.999,2,1.999,4,1.999S16,48,18,46
			c0.755-0.755,6.644-6.929,13.68-14.32C39.071,24.644,45.245,18.755,46,18c2-2.001,18-4,18-6.001C64,10,64,8,62,8z"/>
	</g>
</g>
<g id="Frame">
	<g>
		<path style="fill-rule:evenodd;clip-rule:evenodd;fill:#333333;" d="M58,8c-1.383-1.383-1.182-2.819,0-4.001L54,0
			c0,0-8,3.999-14,10c-6,5.999-8,13.999-12,18c-4,3.999-12,6-18,11.999C4,46,0,54,0,54l4,3.999c1.181-1.181,2.618-1.382,4,0
			c4,4.001,8,6,12,6C26,63.999,36,54,36,48c0-8.001-6-14-4-16.001C34,30,40,36,48,36c6,0,16-10,16-16C64,15.999,62,11.999,58,8z"/>
	</g>
</g>
<g id="Lens">
	<g>
		<path style="fill-rule:evenodd;clip-rule:evenodd;fill:#808080;" d="M24,36C18,36,8,46,8,50s6,9.999,12,9.999
			C24,59.999,32,54,32,48C32,39.999,28,36,24,36z M50,8c-4,0-14,10-14,15.999c0,4.001,4,8,12,8c6,0,12-8,12-11.999C60,14,54,8,50,8z
			"/>
	</g>
</g>
<g id="Earpiece_1_">
	<g>
		<path style="fill-rule:evenodd;clip-rule:evenodd;fill:#666666;" d="M15.833,39.734c-1.192,1.075-2.359,2.128-3.487,3.145
			C9.809,45.518,8,48.3,8,50c0,0.994,0.372,2.11,1.02,3.229c0.28-0.267,0.557-0.529,0.855-0.813c-0.148,0.5-0.286,1-0.417,1.495
			c1.044,1.533,2.578,3.014,4.366,4.134C14.39,53.973,14.883,49.116,16,48c0.632-0.633,5.063-5.264,10.827-11.301
			C25.921,36.237,24.961,36,24,36C21.616,36,18.602,37.581,15.833,39.734z M54.516,9.901c-1.045,0.342-2.128,0.718-3.21,1.125
			c0.68-0.714,1.318-1.383,1.915-2.01C52.105,8.37,50.991,8,50,8c-1.814,0-4.861,2.059-7.65,4.866
			c-0.674,0.744-1.363,1.505-2.064,2.278C37.855,18.093,36,21.417,36,23.999c0,0.979,0.243,1.958,0.723,2.878
			C41.715,22.12,45.426,18.574,46,18c1.211-1.212,7.554-2.423,12.371-3.634C57.36,12.589,55.981,11.034,54.516,9.901z"/>
	</g>
</g>
<g>
</g>
<g>
</g>
<g>
</g>
<g>
</g>
<g>
</g>
<g>
</g>
<g>
</g>
<g>
</g>
<g>
</g>
<g>
</g>
<g>
</g>
<g>
</g>
<g>
</g>
<g>
</g>
<g>
</g>
</svg>
