<?xml version="1.0" encoding="iso-8859-1"?>
<!-- Generator: Adobe Illustrator 16.0.0, SVG Export Plug-In . SVG Version: 6.00 Build 0)  -->
<!DOCTYPE svg PUBLIC "-//W3C//DTD SVG 1.1//EN" "http://www.w3.org/Graphics/SVG/1.1/DTD/svg11.dtd">
<svg version="1.1" id="Layer_1" xmlns="http://www.w3.org/2000/svg" xmlns:xlink="http://www.w3.org/1999/xlink" x="0px" y="0px"
	 width="64px" height="28px" viewBox="0 0 64 28" style="enable-background:new 0 0 64 28;" xml:space="preserve">
<g id="Sole_15_">
	<g>
		<path style="fill:#59422C;" d="M62,18H2v8c0,2,0,2,2,2h12c2,0,2,0,2-2c4,0,10,2,18,2c16,0,28-6,28-8S62,18,62,18z"/>
	</g>
</g>
<g id="Shoe_6_">
	<g>
		<path style="fill:#735538;" d="M48,12c-2,0-6,0-10-2C34,8,28,0,26,0s-2,6-10,6C10,6,6,4,4,4c-2,0-4,6-4,10c0,6,2,8,2,8h16
			c8,0,10,2,22,2h6c10,0,18-4.326,18-6C64,11.938,50.667,12,48,12z"/>
	</g>
</g>
<g id="Shoe_7_">
	<g>
		<path style="fill:#A67C52;" d="M38,10c0,2-2,6-6,6c-6,0-14,0-14,6c8,0,10,2,22,2h6c0-7.938,2-12,2-12C46,12,42,12,38,10z"/>
	</g>
</g>
<g>
</g>
<g>
</g>
<g>
</g>
<g>
</g>
<g>
</g>
<g>
</g>
<g>
</g>
<g>
</g>
<g>
</g>
<g>
</g>
<g>
</g>
<g>
</g>
<g>
</g>
<g>
</g>
<g>
</g>
</svg>
