<?xml version="1.0" encoding="iso-8859-1"?>
<!-- Generator: Adobe Illustrator 16.0.0, SVG Export Plug-In . SVG Version: 6.00 Build 0)  -->
<!DOCTYPE svg PUBLIC "-//W3C//DTD SVG 1.1//EN" "http://www.w3.org/Graphics/SVG/1.1/DTD/svg11.dtd">
<svg version="1.1" id="Layer_1" xmlns="http://www.w3.org/2000/svg" xmlns:xlink="http://www.w3.org/1999/xlink" x="0px" y="0px"
	 width="64px" height="56px" viewBox="0 0 64 56" style="enable-background:new 0 0 64 56;" xml:space="preserve">
<g id="Brim">
	<g>
		<path style="fill:#4D4D4D;" d="M60,36c-2,0-3.999,2.002-9.999,2.002h-36c-6,0-8-2.002-10.001-2.002c-2,0-4,2.002-4,4
			c0,4.019,11.978,16,32,16s32-12,32-16C64,38.002,62.001,36,60,36z"/>
	</g>
</g>
<g id="Crown">
	<g>
		<path style="fill-rule:evenodd;clip-rule:evenodd;fill:#333333;" d="M54,4.001C54,1.791,43.046,0,32.001,0
			C20.955,0,10,1.791,10,4.001c0,0.087,0.023,0.174,0.057,0.26c0.48,2.216,3.944,18.573,3.944,29.74c0,0,0,4.001,0,6c0,2,12,4,18,4
			s18-1.999,18-4c0-2,0-6,0-6c0-11.167,3.462-27.524,3.942-29.74C53.977,4.175,54,4.088,54,4.001z"/>
	</g>
</g>
<g id="Band_4_">
	<g>
		<path style="fill:#CCCCCC;" d="M32.001,38.002c-6,0-18-2.001-18-4.001v6c0,2,12,4,18,4s18-2,18-4v-6
			C50.001,36.001,38.001,38.002,32.001,38.002z"/>
	</g>
</g>
<g>
</g>
<g>
</g>
<g>
</g>
<g>
</g>
<g>
</g>
<g>
</g>
<g>
</g>
<g>
</g>
<g>
</g>
<g>
</g>
<g>
</g>
<g>
</g>
<g>
</g>
<g>
</g>
<g>
</g>
</svg>
