<?xml version="1.0" encoding="iso-8859-1"?>
<!-- Generator: Adobe Illustrator 16.0.0, SVG Export Plug-In . SVG Version: 6.00 Build 0)  -->
<!DOCTYPE svg PUBLIC "-//W3C//DTD SVG 1.1//EN" "http://www.w3.org/Graphics/SVG/1.1/DTD/svg11.dtd">
<svg version="1.1" id="Layer_1" xmlns="http://www.w3.org/2000/svg" xmlns:xlink="http://www.w3.org/1999/xlink" x="0px" y="0px"
	 width="64px" height="63.999px" viewBox="0 0 64 63.999" style="enable-background:new 0 0 64 63.999;" xml:space="preserve">
<g id="Tumble_Dry_1_">
	<g>
		<path style="fill-rule:evenodd;clip-rule:evenodd;fill:#9B7CAB;" d="M32,8C18.745,8,8,18.744,8,32
			c0,13.254,10.745,23.999,24,23.999S56,45.254,56,32C56,18.744,45.255,8,32,8z M32,52c-11.046,0-20-8.955-20-20
			c0-11.046,8.954-20,20-20s20,8.954,20,20C52,43.045,43.046,52,32,52z M60,0H4C1.791,0,0,1.791,0,4v56c0,2.209,1.791,3.999,4,3.999
			h56c2.209,0,4-1.79,4-3.999V4C64,1.791,62.209,0,60,0z M60,58c0,1.104-0.896,2-2,2H6c-1.104,0-2-0.896-2-2V6c0-1.105,0.896-2,2-2
			h52c1.104,0,2,0.895,2,2V58z"/>
	</g>
</g>
<g>
</g>
<g>
</g>
<g>
</g>
<g>
</g>
<g>
</g>
<g>
</g>
<g>
</g>
<g>
</g>
<g>
</g>
<g>
</g>
<g>
</g>
<g>
</g>
<g>
</g>
<g>
</g>
<g>
</g>
</svg>
