<?xml version="1.0" encoding="iso-8859-1"?>
<!-- Generator: Adobe Illustrator 16.0.0, SVG Export Plug-In . SVG Version: 6.00 Build 0)  -->
<!DOCTYPE svg PUBLIC "-//W3C//DTD SVG 1.1//EN" "http://www.w3.org/Graphics/SVG/1.1/DTD/svg11.dtd">
<svg version="1.1" id="Layer_1" xmlns="http://www.w3.org/2000/svg" xmlns:xlink="http://www.w3.org/1999/xlink" x="0px" y="0px"
	 width="64px" height="56px" viewBox="0 0 64 56" style="enable-background:new 0 0 64 56;" xml:space="preserve">
<g id="Sole_22_">
	<g>
		<path style="fill:#BF9973;" d="M62,50.001c0,0-57.933,0-60,0c-2,0-2,1.999-2,4C0,56,2,56,2,56h40c14,0,22-1.999,22-4
			C64,50.001,62,50.001,62,50.001z"/>
	</g>
</g>
<g id="Boot_10_">
	<g>
		<path style="fill:#D9B898;" d="M32,32c0-11.999,2-21.999,2-28c0-2,0-4-2-4c0,0-22,0-30,0C0,0,0,2,0,4c0,14,2,16.001,2,44.001
			C2,50.001,2,52,4,52h38c20,0,20-1.999,20-1.999v-2C62,38.001,32,32,32,32z"/>
	</g>
</g>
<g id="Lines">
	<g>
		<path style="fill-rule:evenodd;clip-rule:evenodd;fill:#F2CEAA;" d="M33.771,31.077c-0.567-1.03-1.821-1.383-2.803-0.788L18,38.15
			V0h-4v41.438c-0.05,0.269-0.051,0.544,0,0.818V52h4v-8.875l15.02-9.105C34,33.425,34.337,32.107,33.771,31.077z"/>
	</g>
</g>
<g>
</g>
<g>
</g>
<g>
</g>
<g>
</g>
<g>
</g>
<g>
</g>
<g>
</g>
<g>
</g>
<g>
</g>
<g>
</g>
<g>
</g>
<g>
</g>
<g>
</g>
<g>
</g>
<g>
</g>
</svg>
