<?xml version="1.0" encoding="iso-8859-1"?>
<!-- Generator: Adobe Illustrator 16.0.0, SVG Export Plug-In . SVG Version: 6.00 Build 0)  -->
<!DOCTYPE svg PUBLIC "-//W3C//DTD SVG 1.1//EN" "http://www.w3.org/Graphics/SVG/1.1/DTD/svg11.dtd">
<svg version="1.1" id="Layer_1" xmlns="http://www.w3.org/2000/svg" xmlns:xlink="http://www.w3.org/1999/xlink" x="0px" y="0px"
	 width="64.001px" height="28px" viewBox="0 0 64.001 28" style="enable-background:new 0 0 64.001 28;" xml:space="preserve">
<g id="Sole_13_">
	<g>
		<path style="fill:#333333;" d="M62.001,18h-60v8c0,2,0,2,2,2h12c2,0,1.999,0,1.999-2c4.001,0,10,2,18,2
			c16.001,0,28.001-6,28.001-8S62.001,18,62.001,18z"/>
	</g>
</g>
<g id="Shoe_2_">
	<g>
		<path style="fill:#4D4D4D;" d="M48.001,12c-2,0-6,0-10-2S28,0,26.001,0c-2,0-2,6-10,6c-6.001,0-10-2-12-2S0,10,0,14
			c0,6,2.001,8,2.001,8H18c8,0,10,2,22.001,2h6c10,0,18-4.326,18-6C64.001,11.938,50.667,12,48.001,12z"/>
	</g>
</g>
<g id="Shoe_3_">
	<g>
		<path style="fill:#E6E1E1;" d="M48.001,12c-2,0-6,0-10-2c0,2-2,6-6.001,6c-5.999,0-13.999,0-13.999,6c7.999,0,9.999,2,22,2
			c4-5.999,14-4,14-8S48.001,12,48.001,12z"/>
	</g>
</g>
<g>
</g>
<g>
</g>
<g>
</g>
<g>
</g>
<g>
</g>
<g>
</g>
<g>
</g>
<g>
</g>
<g>
</g>
<g>
</g>
<g>
</g>
<g>
</g>
<g>
</g>
<g>
</g>
<g>
</g>
</svg>
