<?xml version="1.0" encoding="iso-8859-1"?>
<!-- Generator: Adobe Illustrator 16.0.0, SVG Export Plug-In . SVG Version: 6.00 Build 0)  -->
<!DOCTYPE svg PUBLIC "-//W3C//DTD SVG 1.1//EN" "http://www.w3.org/Graphics/SVG/1.1/DTD/svg11.dtd">
<svg version="1.1" id="Layer_1" xmlns="http://www.w3.org/2000/svg" xmlns:xlink="http://www.w3.org/1999/xlink" x="0px" y="0px"
	 width="64px" height="52px" viewBox="0 0 64 52" style="enable-background:new 0 0 64 52;" xml:space="preserve">
<g id="Cap_6_">
	<g>
		<path style="fill:#88C057;" d="M32,0C8,0,4,28.001,4,36.001h56C60,28.001,56,0,32,0z"/>
	</g>
</g>
<g id="Cap_3_">
	<g>
		<path style="fill-rule:evenodd;clip-rule:evenodd;fill:#638C3F;" d="M56,36.001V52h4V36.001H56z M48,52h4V36.001h-4V52z M40,52h4
			V36.001h-4V52z M32,52h4V36.001h-4V52z M24,52h4V36.001h-4V52z M16,52h4V36.001h-4V52z M8,52h4V36.001H8V52z M0,40v8.001
			C0,50.21,1.791,52,4,52V36.001C1.791,36.001,0,37.791,0,40z"/>
	</g>
</g>
<g id="Cap_4_">
	<g>
		<path style="fill-rule:evenodd;clip-rule:evenodd;fill:#75A64B;" d="M4,52h4V36.001H4V52z M12,52h4V36.001h-4V52z M20,52h4V36.001
			h-4V52z M28,52h4V36.001h-4V52z M36,52h4V36.001h-4V52z M44,52h4V36.001h-4V52z M52,52h4V36.001h-4V52z M60,36.001V52
			c2.209,0,4-1.79,4-3.999V40C64,37.791,62.209,36.001,60,36.001z"/>
	</g>
</g>
<g>
</g>
<g>
</g>
<g>
</g>
<g>
</g>
<g>
</g>
<g>
</g>
<g>
</g>
<g>
</g>
<g>
</g>
<g>
</g>
<g>
</g>
<g>
</g>
<g>
</g>
<g>
</g>
<g>
</g>
</svg>
