<?xml version="1.0" encoding="iso-8859-1"?>
<!-- Generator: Adobe Illustrator 16.0.0, SVG Export Plug-In . SVG Version: 6.00 Build 0)  -->
<!DOCTYPE svg PUBLIC "-//W3C//DTD SVG 1.1//EN" "http://www.w3.org/Graphics/SVG/1.1/DTD/svg11.dtd">
<svg version="1.1" id="Layer_1" xmlns="http://www.w3.org/2000/svg" xmlns:xlink="http://www.w3.org/1999/xlink" x="0px" y="0px"
	 width="56px" height="64px" viewBox="0 0 56 64" style="enable-background:new 0 0 56 64;" xml:space="preserve">
<g id="Shirt_2_">
	<g>
		<path style="fill:#88C057;" d="M46,6c-2-2-6-2-10-4H20C16,4,10,4,8,6s-8,8-8,10c0,0,4,8,6,8s6-4,6-4l2,8c0,12-4,26.001-4,30
			c0,2,4,6,18,6s18-4,18-6c0-3.999-4-18-4-30l2-8c0,0,4,4,6,4s6-8,6-8C56,14,48,8,46,6z"/>
	</g>
</g>
<g id="Interior_4_">
	<g>
		<path style="fill:#638C3F;" d="M28,0c-2,0-6,0-8,2v8h6l2,4l2-4h6V2C34,0,30,0,28,0z"/>
	</g>
</g>
<g id="Collar_4_">
	<g>
		<path style="fill-rule:evenodd;clip-rule:evenodd;fill:#CCCCCC;" d="M18,4c0,8,0,10,2,10s6-4,6-4s-2-2-6-8L18,4z M36,2
			c-4,6-6,8-6,8s4,4,6,4s2-2,2-10L36,2z"/>
	</g>
</g>
<g>
</g>
<g>
</g>
<g>
</g>
<g>
</g>
<g>
</g>
<g>
</g>
<g>
</g>
<g>
</g>
<g>
</g>
<g>
</g>
<g>
</g>
<g>
</g>
<g>
</g>
<g>
</g>
<g>
</g>
</svg>
