<?xml version="1.0" encoding="iso-8859-1"?>
<!-- Generator: Adobe Illustrator 16.0.0, SVG Export Plug-In . SVG Version: 6.00 Build 0)  -->
<!DOCTYPE svg PUBLIC "-//W3C//DTD SVG 1.1//EN" "http://www.w3.org/Graphics/SVG/1.1/DTD/svg11.dtd">
<svg version="1.1" id="Layer_1" xmlns="http://www.w3.org/2000/svg" xmlns:xlink="http://www.w3.org/1999/xlink" x="0px" y="0px"
	 width="36px" height="64px" viewBox="0 0 36 64" style="enable-background:new 0 0 36 64;" xml:space="preserve">
<g id="Singlet">
	<g>
		<path style="fill:#FFCC66;" d="M32,16c0.006-2.705,4-10.904,4-11.999C36,2.905,31.095,0,30,0c0,0-2.57,20-12,20C8.569,20,6,0,6,0
			C4.904,0,0,2.905,0,4.001C0,5.096,3.993,13.295,4,16c0.013,5.443-4,6.48-4,8.001c0,2.273,4,7.999,4,14c0,6-4,16-4,20
			C0,60.001,4.021,64,18,64s18-3.999,18-5.999c0-4-4-14-4-20c0-6.001,4-11.727,4-14C36,22.48,31.986,21.443,32,16z"/>
	</g>
</g>
<g id="Back_2_">
	<g>
		<path style="fill:#CCA352;" d="M18,8C12.144,8,7.095,0,6,0c0,0,2.569,20,12,20c9.43,0,12-20,12-20C28.904,0,23.855,8,18,8z"/>
	</g>
</g>
<g>
</g>
<g>
</g>
<g>
</g>
<g>
</g>
<g>
</g>
<g>
</g>
<g>
</g>
<g>
</g>
<g>
</g>
<g>
</g>
<g>
</g>
<g>
</g>
<g>
</g>
<g>
</g>
<g>
</g>
</svg>
