<?xml version="1.0" encoding="iso-8859-1"?>
<!-- Generator: Adobe Illustrator 16.0.0, SVG Export Plug-In . SVG Version: 6.00 Build 0)  -->
<!DOCTYPE svg PUBLIC "-//W3C//DTD SVG 1.1//EN" "http://www.w3.org/Graphics/SVG/1.1/DTD/svg11.dtd">
<svg version="1.1" id="Layer_1" xmlns="http://www.w3.org/2000/svg" xmlns:xlink="http://www.w3.org/1999/xlink" x="0px" y="0px"
	 width="64px" height="64px" viewBox="0 0 64 64" style="enable-background:new 0 0 64 64;" xml:space="preserve">
<g id="Degree_2_">
	<g>
		<path style="fill-rule:evenodd;clip-rule:evenodd;fill:#EDA096;" d="M58,0c-3.314,0-6,2.686-6,6c0,3.313,2.686,6,6,6
			c3.313,0,6-2.687,6-6C64,2.686,61.313,0,58,0z M58,8.021c-1.116,0-2.021-0.905-2.021-2.021c0-1.116,0.905-2.021,2.021-2.021
			c1.115,0,2.021,0.905,2.021,2.021C60.021,7.115,59.115,8.021,58,8.021z"/>
	</g>
</g>
<g id="_x31_">
	<g>
		<path style="fill-rule:evenodd;clip-rule:evenodd;fill:#ED7161;" d="M56,20.68V20c0-2.209-1.791-4-4-4
			c-0.046,0-0.088,0.012-0.134,0.014c-0.807-0.042-1.634,0.144-2.385,0.599l-11.318,6.856c-2.084,1.264-2.798,4.059-1.595,6.246
			c1.203,2.186,3.868,2.935,5.951,1.673L48,28.067V60c0,2.209,1.791,4,4,4s4-1.791,4-4V20.922C56.006,20.842,55.998,20.761,56,20.68
			z"/>
	</g>
</g>
<g id="_x33_">
	<g>
		<path style="fill-rule:evenodd;clip-rule:evenodd;fill:#ED7161;" d="M32,20c0-0.021-0.006-0.041-0.006-0.063
			c0.018-1.005-0.351-2.016-1.118-2.783c-0.572-0.572-1.28-0.922-2.02-1.058C28.58,16.036,28.294,16,28,16H4c-2.209,0-4,1.791-4,4
			s1.791,4,4,4h14.599l-9.446,9.446c-1.5,1.5-1.5,3.932,0,5.432c0.785,0.784,1.824,1.148,2.852,1.111L12,40h4c4.418,0,8,3.581,8,8
			c0,4.418-3.582,8-8,8s-8-3.582-8-8c0-2.209-1.791-4-4-4c-2.209,0-4,1.791-4,4c0,8.837,7.164,16,16,16s16-7.163,16-16
			c0-7.184-4.735-13.262-11.255-15.284l9.29-9.291C31.207,22.729,32,21.462,32,20z"/>
	</g>
</g>
<g>
</g>
<g>
</g>
<g>
</g>
<g>
</g>
<g>
</g>
<g>
</g>
<g>
</g>
<g>
</g>
<g>
</g>
<g>
</g>
<g>
</g>
<g>
</g>
<g>
</g>
<g>
</g>
<g>
</g>
</svg>
